<?xml version="1.0" encoding="UTF-8" standalone="no"?>
<!DOCTYPE svg PUBLIC "-//W3C//DTD SVG 1.1//EN"
 "http://www.w3.org/Graphics/SVG/1.1/DTD/svg11.dtd">
<!-- Generated by graphviz version 14.0.2 (20251019.1705)
 -->
<!-- Pages: 1 -->
<svg width="230pt" height="248pt"
 viewBox="0.00 0.00 230.00 248.00" xmlns="http://www.w3.org/2000/svg" xmlns:xlink="http://www.w3.org/1999/xlink">
<g id="graph0" class="graph" transform="scale(1 1) rotate(0) translate(4 244)">
<polygon fill="white" stroke="none" points="-4,4 -4,-244 225.75,-244 225.75,4 -4,4"/>
<g id="clust2" class="cluster">
<title>cluster_associated</title>
</g>
<!-- pick&#45;up/drop&#45;off area -->
<g id="node1" class="node">
<title>pick&#45;up/drop&#45;off area</title>
<g id="a_node1"><a xlink:href="../classes/itsVocabulary__pick-up/drop-off area.md" xlink:title="&lt;TABLE&gt;">
<polygon fill="lightgray" stroke="none" points="1,-197.88 1,-214.12 112.5,-214.12 112.5,-197.88 1,-197.88"/>
<text xml:space="preserve" text-anchor="start" x="2" y="-201.72" font-family="Arial" font-size="12.00">pick&#45;up/drop&#45;off area</text>
<polygon fill="none" stroke="black" points="0,-196.88 0,-215.12 113.5,-215.12 113.5,-196.88 0,-196.88"/>
</a>
</g>
</g>
<!-- Invis -->
<!-- pick&#45;up/drop&#45;off area&#45;&gt;Invis -->
<!-- passenger -->
<g id="node3" class="node">
<title>passenger</title>
<g id="a_node3"><a xlink:href="../passenger/" xlink:title="&lt;TABLE&gt;" target="_top">
<polygon fill="lightgray" stroke="none" points="146.62,-98.88 146.62,-115.12 204.88,-115.12 204.88,-98.88 146.62,-98.88"/>
<text xml:space="preserve" text-anchor="start" x="147.62" y="-102.72" font-family="Arial" font-size="12.00">passenger</text>
<polygon fill="none" stroke="black" points="145.62,-97.88 145.62,-116.12 205.88,-116.12 205.88,-97.88 145.62,-97.88"/>
</a>
</g>
</g>
<!-- pick&#45;up/drop&#45;off area&#45;&gt;passenger -->
<g id="edge4" class="edge">
<title>pick&#45;up/drop&#45;off area&#45;&gt;passenger</title>
<path fill="none" stroke="black" d="M73.7,-188.24C87.05,-175.34 106.38,-157.36 124.5,-143 129.41,-139.11 134.73,-135.18 140.02,-131.43"/>
<polygon fill="black" stroke="black" points="141.95,-134.36 148.18,-125.79 137.97,-128.6 141.95,-134.36"/>
<text xml:space="preserve" text-anchor="middle" x="148.12" y="-159.55" font-family="Arial" font-size="11.00"> for </text>
<text xml:space="preserve" text-anchor="middle" x="148.12" y="-146.05" font-family="Arial" font-size="11.00"> «some» &#160;</text>
</g>
<!-- vehicle -->
<g id="node4" class="node">
<title>vehicle</title>
<g id="a_node4"><a xlink:href="../vehicle/" xlink:title="&lt;TABLE&gt;" target="_top">
<polygon fill="lightgray" stroke="none" points="153.62,-25.88 153.62,-42.12 193.88,-42.12 193.88,-25.88 153.62,-25.88"/>
<text xml:space="preserve" text-anchor="start" x="154.62" y="-29.73" font-family="Arial" font-size="12.00">vehicle</text>
<polygon fill="none" stroke="black" points="152.62,-24.88 152.62,-43.12 194.88,-43.12 194.88,-24.88 152.62,-24.88"/>
</a>
</g>
</g>
<!-- pick&#45;up/drop&#45;off area&#45;&gt;vehicle -->
<g id="edge5" class="edge">
<title>pick&#45;up/drop&#45;off area&#45;&gt;vehicle</title>
<path fill="none" stroke="black" d="M44.75,-188.1C29.29,-164.05 6.79,-119.48 28,-89 52.17,-54.28 101.4,-41.83 135.93,-37.4"/>
<polygon fill="black" stroke="black" points="135.95,-40.92 145.51,-36.35 135.19,-33.96 135.95,-40.92"/>
<text xml:space="preserve" text-anchor="middle" x="82.38" y="-110.05" font-family="Arial" font-size="11.00"> toBoardOrAlightFrom </text>
<text xml:space="preserve" text-anchor="middle" x="82.38" y="-96.55" font-family="Arial" font-size="11.00"> «some» &#160;</text>
</g>
<!-- Invis&#45;&gt;passenger -->
<!-- passenger&#45;&gt;vehicle -->
</g>
</svg>
