<?xml version="1.0" encoding="UTF-8" standalone="no"?>
<!DOCTYPE svg PUBLIC "-//W3C//DTD SVG 1.1//EN"
 "http://www.w3.org/Graphics/SVG/1.1/DTD/svg11.dtd">
<!-- Generated by graphviz version 14.1.3 (20260303.0454)
 -->
<!-- Pages: 1 -->
<svg width="182pt" height="162pt"
 viewBox="0.00 0.00 182.00 162.00" xmlns="http://www.w3.org/2000/svg" xmlns:xlink="http://www.w3.org/1999/xlink">
<g id="graph0" class="graph" transform="scale(1 1) rotate(0) translate(4 157.5)">
<polygon fill="white" stroke="none" points="-4,4 -4,-157.5 178,-157.5 178,4 -4,4"/>
<g id="clust2" class="cluster">
<title>cluster_associated</title>
</g>
<!-- actuator -->
<g id="node1" class="node">
<title>actuator</title>
<g id="a_node1"><a xlink:href="../terms/actuator/" xlink:title="&lt;TABLE&gt;">
<polygon fill="lightgray" stroke="none" points="4.62,-111.38 4.62,-127.62 49.38,-127.62 49.38,-111.38 4.62,-111.38"/>
<text xml:space="preserve" text-anchor="start" x="5.62" y="-115.38" font-family="Arial" font-size="12.00">actuator</text>
<polygon fill="none" stroke="black" points="3.62,-110.38 3.62,-128.62 50.38,-128.62 50.38,-110.38 3.62,-110.38"/>
</a>
</g>
</g>
<!-- Invis -->
<!-- actuator&#45;&gt;Invis -->
<!-- materialEntity -->
<g id="node3" class="node">
<title>materialEntity</title>
<g id="a_node3"><a xlink:href="../terms/material entity/" xlink:title="&lt;TABLE&gt;" target="_top">
<polygon fill="lightgray" stroke="none" points="80.88,-25.88 80.88,-42.12 157.12,-42.12 157.12,-25.88 80.88,-25.88"/>
<text xml:space="preserve" text-anchor="start" x="81.88" y="-29.88" font-family="Arial" font-size="12.00">material entity</text>
<polygon fill="none" stroke="black" points="79.88,-24.88 79.88,-43.12 158.12,-43.12 158.12,-24.88 79.88,-24.88"/>
</a>
</g>
</g>
<!-- actuator&#45;&gt;materialEntity -->
<g id="edge3" class="edge">
<title>actuator&#45;&gt;materialEntity</title>
<path fill="none" stroke="black" d="M17.47,-101.89C13.08,-91.85 10.14,-79.24 16.75,-70 28.7,-53.28 49.13,-44.46 68.61,-39.84"/>
<polygon fill="black" stroke="black" points="69.29,-43.28 78.41,-37.88 67.92,-36.41 69.29,-43.28"/>
<text xml:space="preserve" text-anchor="middle" x="67.38" y="-73.05" font-family="Arial" font-size="11.00"> changes property of </text>
</g>
<!-- Invis&#45;&gt;materialEntity -->
</g>
</svg>
