<?xml version="1.0" encoding="UTF-8" standalone="no"?>
<!DOCTYPE svg PUBLIC "-//W3C//DTD SVG 1.1//EN"
 "http://www.w3.org/Graphics/SVG/1.1/DTD/svg11.dtd">
<!-- Generated by graphviz version 14.1.3 (20260303.0454)
 -->
<!-- Pages: 1 -->
<svg width="306pt" height="162pt"
 viewBox="0.00 0.00 306.00 162.00" xmlns="http://www.w3.org/2000/svg" xmlns:xlink="http://www.w3.org/1999/xlink">
<g id="graph0" class="graph" transform="scale(1 1) rotate(0) translate(4 157.5)">
<polygon fill="white" stroke="none" points="-4,4 -4,-157.5 301.62,-157.5 301.62,4 -4,4"/>
<g id="clust2" class="cluster">
<title>cluster_associated</title>
</g>
<!-- application template -->
<g id="node1" class="node">
<title>application template</title>
<polygon fill="lightgray" stroke="none" points="1,-111.38 1,-127.62 110.25,-127.62 110.25,-111.38 1,-111.38"/>
<text xml:space="preserve" text-anchor="start" x="2" y="-115.38" font-family="Arial" font-size="12.00">application template</text>
<polygon fill="none" stroke="black" points="0,-110.38 0,-128.62 111.25,-128.62 111.25,-110.38 0,-110.38"/>
</g>
<!-- Invis -->
<!-- application template&#45;&gt;Invis -->
<!-- itsApplicationSpecification -->
<g id="node3" class="node">
<title>itsApplicationSpecification</title>
<g id="a_node3"><a xlink:href="../terms/ITS application specification/" xlink:title="&lt;TABLE&gt;" target="_top">
<polygon fill="lightgray" stroke="none" points="128.62,-25.88 128.62,-42.12 280.62,-42.12 280.62,-25.88 128.62,-25.88"/>
<text xml:space="preserve" text-anchor="start" x="129.62" y="-29.88" font-family="Arial" font-size="12.00">ITS application specification</text>
<polygon fill="none" stroke="black" points="127.62,-24.88 127.62,-43.12 281.62,-43.12 281.62,-24.88 127.62,-24.88"/>
</a>
</g>
</g>
<!-- application template&#45;&gt;itsApplicationSpecification -->
<g id="edge3" class="edge">
<title>application template&#45;&gt;itsApplicationSpecification</title>
<path fill="none" stroke="black" d="M62.78,-101.91C68.13,-91.36 76.4,-78.18 87.38,-70 96.32,-63.33 106.52,-57.93 117.1,-53.55"/>
<polygon fill="black" stroke="black" points="118.24,-56.86 126.35,-50.04 115.75,-50.32 118.24,-56.86"/>
<text xml:space="preserve" text-anchor="middle" x="139.5" y="-73.05" font-family="Arial" font-size="11.00"> annotated outline for </text>
</g>
<!-- Invis&#45;&gt;itsApplicationSpecification -->
</g>
</svg>
