<?xml version="1.0" encoding="UTF-8" standalone="no"?>
<!DOCTYPE svg PUBLIC "-//W3C//DTD SVG 1.1//EN"
 "http://www.w3.org/Graphics/SVG/1.1/DTD/svg11.dtd">
<!-- Generated by graphviz version 14.1.3 (20260303.0454)
 -->
<!-- Pages: 1 -->
<svg width="312pt" height="219pt"
 viewBox="0.00 0.00 312.00 219.00" xmlns="http://www.w3.org/2000/svg" xmlns:xlink="http://www.w3.org/1999/xlink">
<g id="graph0" class="graph" transform="scale(1 1) rotate(0) translate(4 214.5)">
<polygon fill="white" stroke="none" points="-4,4 -4,-214.5 308.38,-214.5 308.38,4 -4,4"/>
<g id="clust2" class="cluster">
<title>cluster_associated</title>
</g>
<!-- communications view -->
<g id="node1" class="node">
<title>communications view</title>
<polygon fill="lightgray" stroke="none" points="186.62,-111.38 186.62,-127.62 303.38,-127.62 303.38,-111.38 186.62,-111.38"/>
<text xml:space="preserve" text-anchor="start" x="187.62" y="-115.38" font-family="Arial" font-size="12.00">communications view</text>
<polygon fill="none" stroke="black" points="185.62,-110.38 185.62,-128.62 304.38,-128.62 304.38,-110.38 185.62,-110.38"/>
</g>
<!-- architectureView -->
<g id="node2" class="node">
<title>architectureView</title>
<g id="a_node2"><a xlink:href="../terms/architecture view/" xlink:title="&lt;TABLE&gt;" target="_top">
<polygon fill="lightgray" stroke="none" points="199,-184.38 199,-200.62 291,-200.62 291,-184.38 199,-184.38"/>
<text xml:space="preserve" text-anchor="start" x="200" y="-188.38" font-family="Arial" font-size="12.00">architecture view</text>
<polygon fill="none" stroke="black" points="198,-183.38 198,-201.62 292,-201.62 292,-183.38 198,-183.38"/>
</a>
</g>
</g>
<!-- communications view&#45;&gt;architectureView -->
<g id="edge1" class="edge">
<title>communications view&#45;&gt;architectureView</title>
<path fill="none" stroke="black" d="M245,-137.21C245,-144.97 245,-154.42 245,-163.24"/>
<polygon fill="none" stroke="black" points="241.5,-163.16 245,-173.16 248.5,-163.16 241.5,-163.16"/>
</g>
<!-- Invis -->
<!-- communications view&#45;&gt;Invis -->
<!-- its&#45;sReferenceArchitecture -->
<g id="node4" class="node">
<title>its&#45;sReferenceArchitecture</title>
<g id="a_node4"><a xlink:href="../terms/ITS-S reference architecture/" xlink:title="&lt;TABLE&gt;" target="_top">
<polygon fill="lightgray" stroke="none" points="17.38,-25.88 17.38,-42.12 168.62,-42.12 168.62,-25.88 17.38,-25.88"/>
<text xml:space="preserve" text-anchor="start" x="18.38" y="-29.88" font-family="Arial" font-size="12.00">ITS&#45;S reference architecture</text>
<polygon fill="none" stroke="black" points="16.38,-24.88 16.38,-43.12 169.62,-43.12 169.62,-24.88 16.38,-24.88"/>
</a>
</g>
</g>
<!-- communications view&#45;&gt;its&#45;sReferenceArchitecture -->
<g id="edge4" class="edge">
<title>communications view&#45;&gt;its&#45;sReferenceArchitecture</title>
<path fill="none" stroke="black" d="M214.24,-101.6C191.06,-88.87 159.06,-71.29 133.75,-57.39"/>
<polygon fill="black" stroke="black" points="135.49,-54.35 125.04,-52.6 132.12,-60.48 135.49,-54.35"/>
<text xml:space="preserve" text-anchor="middle" x="203.23" y="-73.05" font-family="Arial" font-size="11.00"> based on </text>
</g>
<!-- Invis&#45;&gt;its&#45;sReferenceArchitecture -->
</g>
</svg>
