<?xml version="1.0" encoding="UTF-8" standalone="no"?>
<!DOCTYPE svg PUBLIC "-//W3C//DTD SVG 1.1//EN"
 "http://www.w3.org/Graphics/SVG/1.1/DTD/svg11.dtd">
<!-- Generated by graphviz version 14.1.3 (20260303.0454)
 -->
<!-- Pages: 1 -->
<svg width="209pt" height="162pt"
 viewBox="0.00 0.00 209.00 162.00" xmlns="http://www.w3.org/2000/svg" xmlns:xlink="http://www.w3.org/1999/xlink">
<g id="graph0" class="graph" transform="scale(1 1) rotate(0) translate(4 157.5)">
<polygon fill="white" stroke="none" points="-4,4 -4,-157.5 205,-157.5 205,4 -4,4"/>
<g id="clust2" class="cluster">
<title>cluster_associated</title>
</g>
<!-- design speed -->
<g id="node1" class="node">
<title>design speed</title>
<polygon fill="lightgray" stroke="none" points="1,-111.38 1,-127.62 75,-127.62 75,-111.38 1,-111.38"/>
<text xml:space="preserve" text-anchor="start" x="2" y="-115.38" font-family="Arial" font-size="12.00">design speed</text>
<polygon fill="none" stroke="black" points="0,-110.38 0,-128.62 76,-128.62 76,-110.38 0,-110.38"/>
</g>
<!-- Invis -->
<!-- design speed&#45;&gt;Invis -->
<!-- vehicle -->
<g id="node3" class="node">
<title>vehicle</title>
<g id="a_node3"><a xlink:href="../terms/vehicle/" xlink:title="&lt;TABLE&gt;" target="_top">
<polygon fill="lightgray" stroke="none" points="137.88,-25.88 137.88,-42.12 178.12,-42.12 178.12,-25.88 137.88,-25.88"/>
<text xml:space="preserve" text-anchor="start" x="138.88" y="-29.88" font-family="Arial" font-size="12.00">vehicle</text>
<polygon fill="none" stroke="black" points="136.88,-24.88 136.88,-43.12 179.12,-43.12 179.12,-24.88 136.88,-24.88"/>
</a>
</g>
</g>
<!-- design speed&#45;&gt;vehicle -->
<g id="edge3" class="edge">
<title>design speed&#45;&gt;vehicle</title>
<path fill="none" stroke="black" d="M22.14,-101.67C14.78,-91.79 9.12,-79.43 16.5,-70 29.15,-53.84 82.59,-44.1 120.04,-39.14"/>
<polygon fill="black" stroke="black" points="120.1,-42.66 129.58,-37.94 119.23,-35.72 120.1,-42.66"/>
<text xml:space="preserve" text-anchor="middle" x="89.25" y="-73.05" font-family="Arial" font-size="11.00"> maximum sustained speed of </text>
</g>
<!-- Invis&#45;&gt;vehicle -->
</g>
</svg>
