<?xml version="1.0" encoding="UTF-8" standalone="no"?>
<!DOCTYPE svg PUBLIC "-//W3C//DTD SVG 1.1//EN"
 "http://www.w3.org/Graphics/SVG/1.1/DTD/svg11.dtd">
<!-- Generated by graphviz version 14.1.3 (20260303.0454)
 -->
<!-- Pages: 1 -->
<svg width="472pt" height="609pt"
 viewBox="0.00 0.00 472.00 609.00" xmlns="http://www.w3.org/2000/svg" xmlns:xlink="http://www.w3.org/1999/xlink">
<g id="graph0" class="graph" transform="scale(1 1) rotate(0) translate(4 604.5)">
<polygon fill="white" stroke="none" points="-4,4 -4,-604.5 468,-604.5 468,4 -4,4"/>
<g id="clust2" class="cluster">
<title>cluster_associated</title>
</g>
<!-- enterprise view -->
<g id="node1" class="node">
<title>enterprise view</title>
<polygon fill="lightgray" stroke="none" points="190.5,-501.38 190.5,-517.62 273.5,-517.62 273.5,-501.38 190.5,-501.38"/>
<text xml:space="preserve" text-anchor="start" x="191.5" y="-505.38" font-family="Arial" font-size="12.00">enterprise view</text>
<polygon fill="none" stroke="black" points="189.5,-500.38 189.5,-518.62 274.5,-518.62 274.5,-500.38 189.5,-500.38"/>
</g>
<!-- architectureView -->
<g id="node2" class="node">
<title>architectureView</title>
<g id="a_node2"><a xlink:href="../terms/architecture view/" xlink:title="&lt;TABLE&gt;" target="_top">
<polygon fill="lightgray" stroke="none" points="186,-574.38 186,-590.62 278,-590.62 278,-574.38 186,-574.38"/>
<text xml:space="preserve" text-anchor="start" x="187" y="-578.38" font-family="Arial" font-size="12.00">architecture view</text>
<polygon fill="none" stroke="black" points="185,-573.38 185,-591.62 279,-591.62 279,-573.38 185,-573.38"/>
</a>
</g>
</g>
<!-- enterprise view&#45;&gt;architectureView -->
<g id="edge1" class="edge">
<title>enterprise view&#45;&gt;architectureView</title>
<path fill="none" stroke="black" d="M232,-527.21C232,-534.97 232,-544.42 232,-553.24"/>
<polygon fill="none" stroke="black" points="228.5,-553.16 232,-563.16 235.5,-553.16 228.5,-553.16"/>
</g>
<!-- Invis -->
<!-- enterprise view&#45;&gt;Invis -->
<!-- enterpriseObject -->
<g id="node4" class="node">
<title>enterpriseObject</title>
<g id="a_node4"><a xlink:href="../terms/enterprise object/" xlink:title="&lt;TABLE&gt;" target="_top">
<polygon fill="lightgray" stroke="none" points="16.75,-415.88 16.75,-432.12 107.25,-432.12 107.25,-415.88 16.75,-415.88"/>
<text xml:space="preserve" text-anchor="start" x="17.75" y="-419.88" font-family="Arial" font-size="12.00">enterprise object</text>
<polygon fill="none" stroke="black" points="15.75,-414.88 15.75,-433.12 108.25,-433.12 108.25,-414.88 15.75,-414.88"/>
</a>
</g>
</g>
<!-- enterprise view&#45;&gt;enterpriseObject -->
<g id="edge10" class="edge">
<title>enterprise view&#45;&gt;enterpriseObject</title>
<path fill="none" stroke="black" d="M189.88,-501.91C144.7,-494.44 78.28,-482.2 70,-473.5 64.83,-468.06 62.26,-460.64 61.13,-453.24"/>
<polygon fill="black" stroke="black" points="64.63,-453.15 60.45,-443.41 57.65,-453.63 64.63,-453.15"/>
<text xml:space="preserve" text-anchor="middle" x="100" y="-463.05" font-family="Arial" font-size="11.00"> aggregates </text>
</g>
<!-- informationFlow -->
<g id="node5" class="node">
<title>informationFlow</title>
<g id="a_node5"><a xlink:href="../terms/information flow/" xlink:title="&lt;TABLE&gt;" target="_top">
<polygon fill="lightgray" stroke="none" points="21,-330.38 21,-346.62 107,-346.62 107,-330.38 21,-330.38"/>
<text xml:space="preserve" text-anchor="start" x="22" y="-334.38" font-family="Arial" font-size="12.00">information flow</text>
<polygon fill="none" stroke="black" points="20,-329.38 20,-347.62 108,-347.62 108,-329.38 20,-329.38"/>
</a>
</g>
</g>
<!-- enterprise view&#45;&gt;informationFlow -->
<g id="edge14" class="edge">
<title>enterprise view&#45;&gt;informationFlow</title>
<path fill="none" stroke="black" d="M212.37,-491.77C197.18,-478.61 175.8,-459.62 158,-442 132.33,-416.58 104.55,-385.86 85.9,-364.72"/>
<polygon fill="black" stroke="black" points="88.73,-362.63 79.5,-357.43 83.47,-367.25 88.73,-362.63"/>
<text xml:space="preserve" text-anchor="middle" x="188" y="-420.3" font-family="Arial" font-size="11.00"> aggregates </text>
</g>
<!-- interaction -->
<g id="node6" class="node">
<title>interaction</title>
<g id="a_node6"><a xlink:href="../terms/interaction/" xlink:title="&lt;TABLE&gt;" target="_top">
<polygon fill="lightgray" stroke="none" points="46.25,-244.88 46.25,-261.12 103.75,-261.12 103.75,-244.88 46.25,-244.88"/>
<text xml:space="preserve" text-anchor="start" x="47.25" y="-248.88" font-family="Arial" font-size="12.00">interaction</text>
<polygon fill="none" stroke="black" points="45.25,-243.88 45.25,-262.12 104.75,-262.12 104.75,-243.88 45.25,-243.88"/>
</a>
</g>
</g>
<!-- enterprise view&#45;&gt;interaction -->
<g id="edge13" class="edge">
<title>enterprise view&#45;&gt;interaction</title>
<path fill="none" stroke="black" d="M233.33,-491.71C234.24,-470.39 233.18,-433.11 218,-406 211.83,-394.98 205.15,-396.71 196,-388 158.68,-352.46 119.39,-307.3 96.05,-279.53"/>
<polygon fill="black" stroke="black" points="98.84,-277.41 89.74,-271.99 93.47,-281.9 98.84,-277.41"/>
<text xml:space="preserve" text-anchor="middle" x="226" y="-377.55" font-family="Arial" font-size="11.00"> aggregates </text>
</g>
<!-- relationship -->
<g id="node7" class="node">
<title>relationship</title>
<g id="a_node7"><a xlink:href="../terms/relationship/" xlink:title="&lt;TABLE&gt;" target="_top">
<polygon fill="lightgray" stroke="none" points="42.88,-171.88 42.88,-188.12 107.12,-188.12 107.12,-171.88 42.88,-171.88"/>
<text xml:space="preserve" text-anchor="start" x="43.88" y="-175.88" font-family="Arial" font-size="12.00">relationship</text>
<polygon fill="none" stroke="black" points="41.88,-170.88 41.88,-189.12 108.12,-189.12 108.12,-170.88 41.88,-170.88"/>
</a>
</g>
</g>
<!-- enterprise view&#45;&gt;relationship -->
<g id="edge12" class="edge">
<title>enterprise view&#45;&gt;relationship</title>
<path fill="none" stroke="black" d="M240.62,-491.84C252.79,-465.92 271.88,-414.73 256,-374.5 226.49,-299.76 152.98,-236.92 109.25,-204.54"/>
<polygon fill="black" stroke="black" points="111.51,-201.86 101.36,-198.81 107.39,-207.52 111.51,-201.86"/>
<text xml:space="preserve" text-anchor="middle" x="277.43" y="-334.8" font-family="Arial" font-size="11.00"> aggregates </text>
</g>
<!-- resource -->
<g id="node8" class="node">
<title>resource</title>
<g id="a_node8"><a xlink:href="../terms/resource/" xlink:title="&lt;TABLE&gt;" target="_top">
<polygon fill="lightgray" stroke="none" points="56.75,-98.88 56.75,-115.12 105.25,-115.12 105.25,-98.88 56.75,-98.88"/>
<text xml:space="preserve" text-anchor="start" x="57.75" y="-102.88" font-family="Arial" font-size="12.00">resource</text>
<polygon fill="none" stroke="black" points="55.75,-97.88 55.75,-116.12 106.25,-116.12 106.25,-97.88 55.75,-97.88"/>
</a>
</g>
</g>
<!-- enterprise view&#45;&gt;resource -->
<g id="edge9" class="edge">
<title>enterprise view&#45;&gt;resource</title>
<path fill="none" stroke="black" d="M273.98,-491.62C300.2,-478.01 329,-456 329,-425 329,-425 329,-425 329,-179 329,-135.82 188.27,-117.4 118.83,-110.95"/>
<polygon fill="black" stroke="black" points="119.32,-107.48 109.05,-110.08 118.7,-114.45 119.32,-107.48"/>
<text xml:space="preserve" text-anchor="middle" x="359" y="-292.05" font-family="Arial" font-size="11.00"> aggregates </text>
</g>
<!-- role -->
<g id="node9" class="node">
<title>role</title>
<g id="a_node9"><a xlink:href="../terms/role/" xlink:title="&lt;TABLE&gt;" target="_top">
<polygon fill="lightgray" stroke="none" points="69.88,-25.88 69.88,-42.12 92.12,-42.12 92.12,-25.88 69.88,-25.88"/>
<text xml:space="preserve" text-anchor="start" x="70.88" y="-29.88" font-family="Arial" font-size="12.00">role</text>
<polygon fill="none" stroke="black" points="68.88,-24.88 68.88,-43.12 93.12,-43.12 93.12,-24.88 68.88,-24.88"/>
</a>
</g>
</g>
<!-- enterprise view&#45;&gt;role -->
<g id="edge11" class="edge">
<title>enterprise view&#45;&gt;role</title>
<path fill="none" stroke="black" d="M274.08,-506.02C325,-500.47 404,-482.59 404,-425 404,-425 404,-425 404,-106 404,-48.29 204.79,-37.43 119.26,-35.43"/>
<polygon fill="black" stroke="black" points="119.57,-31.94 109.5,-35.24 119.42,-38.94 119.57,-31.94"/>
<text xml:space="preserve" text-anchor="middle" x="434" y="-249.3" font-family="Arial" font-size="11.00"> aggregates </text>
</g>
<!-- Invis&#45;&gt;enterpriseObject -->
<!-- enterpriseObject&#45;&gt;informationFlow -->
<!-- informationFlow&#45;&gt;interaction -->
<!-- interaction&#45;&gt;relationship -->
<!-- relationship&#45;&gt;resource -->
<!-- resource&#45;&gt;role -->
</g>
</svg>
