<?xml version="1.0" encoding="UTF-8" standalone="no"?>
<!DOCTYPE svg PUBLIC "-//W3C//DTD SVG 1.1//EN"
 "http://www.w3.org/Graphics/SVG/1.1/DTD/svg11.dtd">
<!-- Generated by graphviz version 14.1.3 (20260303.0454)
 -->
<!-- Pages: 1 -->
<svg width="337pt" height="450pt"
 viewBox="0.00 0.00 337.00 450.00" xmlns="http://www.w3.org/2000/svg" xmlns:xlink="http://www.w3.org/1999/xlink">
<g id="graph0" class="graph" transform="scale(1 1) rotate(0) translate(4 446)">
<polygon fill="white" stroke="none" points="-4,4 -4,-446 333,-446 333,4 -4,4"/>
<g id="clust2" class="cluster">
<title>cluster_associated</title>
</g>
<!-- functional view -->
<g id="node1" class="node">
<title>functional view</title>
<polygon fill="lightgray" stroke="none" points="149.25,-342.88 149.25,-359.12 230.75,-359.12 230.75,-342.88 149.25,-342.88"/>
<text xml:space="preserve" text-anchor="start" x="150.25" y="-346.88" font-family="Arial" font-size="12.00">functional view</text>
<polygon fill="none" stroke="black" points="148.25,-341.88 148.25,-360.12 231.75,-360.12 231.75,-341.88 148.25,-341.88"/>
</g>
<!-- architectureView -->
<g id="node2" class="node">
<title>architectureView</title>
<g id="a_node2"><a xlink:href="../terms/architecture view/" xlink:title="&lt;TABLE&gt;" target="_top">
<polygon fill="lightgray" stroke="none" points="144,-415.88 144,-432.12 236,-432.12 236,-415.88 144,-415.88"/>
<text xml:space="preserve" text-anchor="start" x="145" y="-419.88" font-family="Arial" font-size="12.00">architecture view</text>
<polygon fill="none" stroke="black" points="143,-414.88 143,-433.12 237,-433.12 237,-414.88 143,-414.88"/>
</a>
</g>
</g>
<!-- functional view&#45;&gt;architectureView -->
<g id="edge1" class="edge">
<title>functional view&#45;&gt;architectureView</title>
<path fill="none" stroke="black" d="M190,-368.71C190,-376.47 190,-385.92 190,-394.74"/>
<polygon fill="none" stroke="black" points="186.5,-394.66 190,-404.66 193.5,-394.66 186.5,-394.66"/>
</g>
<!-- Invis -->
<!-- functional view&#45;&gt;Invis -->
<!-- dataFlow -->
<g id="node4" class="node">
<title>dataFlow</title>
<g id="a_node4"><a xlink:href="../terms/data flow/" xlink:title="&lt;TABLE&gt;" target="_top">
<polygon fill="lightgray" stroke="none" points="18,-257.38 18,-273.62 68,-273.62 68,-257.38 18,-257.38"/>
<text xml:space="preserve" text-anchor="start" x="19" y="-261.38" font-family="Arial" font-size="12.00">data flow</text>
<polygon fill="none" stroke="black" points="17,-256.38 17,-274.62 69,-274.62 69,-256.38 17,-256.38"/>
</a>
</g>
</g>
<!-- functional view&#45;&gt;dataFlow -->
<g id="edge7" class="edge">
<title>functional view&#45;&gt;dataFlow</title>
<path fill="none" stroke="black" d="M148.48,-334.29C146.98,-333.83 145.48,-333.4 144,-333 100.43,-321.13 73.32,-349.34 44,-315 39.19,-309.37 37.57,-301.88 37.51,-294.48"/>
<polygon fill="black" stroke="black" points="40.98,-294.97 38.34,-284.71 34.01,-294.37 40.98,-294.97"/>
<text xml:space="preserve" text-anchor="middle" x="74" y="-304.55" font-family="Arial" font-size="11.00"> aggregates </text>
</g>
<!-- process -->
<g id="node5" class="node">
<title>process</title>
<g id="a_node5"><a xlink:href="../terms/process/" xlink:title="&lt;TABLE&gt;" target="_top">
<polygon fill="lightgray" stroke="none" points="52,-171.88 52,-188.12 96,-188.12 96,-171.88 52,-171.88"/>
<text xml:space="preserve" text-anchor="start" x="53" y="-175.88" font-family="Arial" font-size="12.00">process</text>
<polygon fill="none" stroke="black" points="51,-170.88 51,-189.12 97,-189.12 97,-170.88 51,-170.88"/>
</a>
</g>
</g>
<!-- functional view&#45;&gt;process -->
<g id="edge9" class="edge">
<title>functional view&#45;&gt;process</title>
<path fill="none" stroke="black" d="M168.26,-333.21C153.23,-320.74 133.57,-302.65 120,-283.5 103.46,-260.16 90.78,-229.93 82.96,-208.36"/>
<polygon fill="black" stroke="black" points="86.32,-207.37 79.72,-199.08 79.71,-209.68 86.32,-207.37"/>
<text xml:space="preserve" text-anchor="middle" x="150" y="-261.8" font-family="Arial" font-size="11.00"> aggregates </text>
</g>
<!-- processSpecification -->
<g id="node6" class="node">
<title>processSpecification</title>
<g id="a_node6"><a xlink:href="../terms/process specification/" xlink:title="&lt;TABLE&gt;" target="_top">
<polygon fill="lightgray" stroke="none" points="17.12,-98.88 17.12,-115.12 130.88,-115.12 130.88,-98.88 17.12,-98.88"/>
<text xml:space="preserve" text-anchor="start" x="18.12" y="-102.88" font-family="Arial" font-size="12.00">process specification</text>
<polygon fill="none" stroke="black" points="16.12,-97.88 16.12,-116.12 131.88,-116.12 131.88,-97.88 16.12,-97.88"/>
</a>
</g>
</g>
<!-- functional view&#45;&gt;processSpecification -->
<g id="edge8" class="edge">
<title>functional view&#45;&gt;processSpecification</title>
<path fill="none" stroke="black" d="M191.11,-333.02C191.87,-312.14 191.16,-275.97 180,-247.5 162.25,-202.21 125.31,-159.07 100.08,-133.06"/>
<polygon fill="black" stroke="black" points="102.61,-130.64 93.09,-126 97.64,-135.56 102.61,-130.64"/>
<text xml:space="preserve" text-anchor="middle" x="201.81" y="-219.05" font-family="Arial" font-size="11.00"> aggregates </text>
</g>
<!-- terminator -->
<g id="node7" class="node">
<title>terminator</title>
<g id="a_node7"><a xlink:href="../terms/terminator/" xlink:title="&lt;TABLE&gt;" target="_top">
<polygon fill="lightgray" stroke="none" points="61.38,-25.88 61.38,-42.12 116.62,-42.12 116.62,-25.88 61.38,-25.88"/>
<text xml:space="preserve" text-anchor="start" x="62.38" y="-29.88" font-family="Arial" font-size="12.00">terminator</text>
<polygon fill="none" stroke="black" points="60.38,-24.88 60.38,-43.12 117.62,-43.12 117.62,-24.88 60.38,-24.88"/>
</a>
</g>
</g>
<!-- functional view&#45;&gt;terminator -->
<g id="edge10" class="edge">
<title>functional view&#45;&gt;terminator</title>
<path fill="none" stroke="black" d="M221.22,-333.14C243.3,-318.7 269,-295.64 269,-266.5 269,-266.5 269,-266.5 269,-106 269,-76.03 181.58,-53.35 128.58,-42.35"/>
<polygon fill="black" stroke="black" points="129.5,-38.97 119.01,-40.42 128.12,-45.83 129.5,-38.97"/>
<text xml:space="preserve" text-anchor="middle" x="299" y="-176.3" font-family="Arial" font-size="11.00"> aggregates </text>
</g>
<!-- Invis&#45;&gt;dataFlow -->
<!-- dataFlow&#45;&gt;process -->
<!-- process&#45;&gt;processSpecification -->
<!-- processSpecification&#45;&gt;terminator -->
</g>
</svg>
