<?xml version="1.0" encoding="UTF-8" standalone="no"?>
<!DOCTYPE svg PUBLIC "-//W3C//DTD SVG 1.1//EN"
 "http://www.w3.org/Graphics/SVG/1.1/DTD/svg11.dtd">
<!-- Generated by graphviz version 14.1.3 (20260303.0454)
 -->
<!-- Pages: 1 -->
<svg width="186pt" height="162pt"
 viewBox="0.00 0.00 186.00 162.00" xmlns="http://www.w3.org/2000/svg" xmlns:xlink="http://www.w3.org/1999/xlink">
<g id="graph0" class="graph" transform="scale(1 1) rotate(0) translate(4 157.5)">
<polygon fill="white" stroke="none" points="-4,4 -4,-157.5 182,-157.5 182,4 -4,4"/>
<g id="clust2" class="cluster">
<title>cluster_associated</title>
</g>
<!-- gazetteer -->
<g id="node1" class="node">
<title>gazetteer</title>
<g id="a_node1"><a xlink:href="../terms/gazetteer/" xlink:title="&lt;TABLE&gt;">
<polygon fill="lightgray" stroke="none" points="1.25,-111.38 1.25,-127.62 52.75,-127.62 52.75,-111.38 1.25,-111.38"/>
<text xml:space="preserve" text-anchor="start" x="2.25" y="-115.38" font-family="Arial" font-size="12.00">gazetteer</text>
<polygon fill="none" stroke="black" points="0.25,-110.38 0.25,-128.62 53.75,-128.62 53.75,-110.38 0.25,-110.38"/>
</a>
</g>
</g>
<!-- Invis -->
<!-- gazetteer&#45;&gt;Invis -->
<!-- spatialReference -->
<g id="node3" class="node">
<title>spatialReference</title>
<g id="a_node3"><a xlink:href="../terms/spatial reference/" xlink:title="&lt;TABLE&gt;" target="_top">
<polygon fill="lightgray" stroke="none" points="70.75,-25.88 70.75,-42.12 161.25,-42.12 161.25,-25.88 70.75,-25.88"/>
<text xml:space="preserve" text-anchor="start" x="71.75" y="-29.88" font-family="Arial" font-size="12.00">spatial reference</text>
<polygon fill="none" stroke="black" points="69.75,-24.88 69.75,-43.12 162.25,-43.12 162.25,-24.88 69.75,-24.88"/>
</a>
</g>
</g>
<!-- gazetteer&#45;&gt;spatialReference -->
<g id="edge3" class="edge">
<title>gazetteer&#45;&gt;spatialReference</title>
<path fill="none" stroke="black" d="M32.77,-101.69C36.89,-91.56 43.27,-78.95 52,-70 56.31,-65.58 61.3,-61.58 66.56,-57.99"/>
<polygon fill="black" stroke="black" points="68.28,-61.03 74.92,-52.78 64.59,-55.09 68.28,-61.03"/>
<text xml:space="preserve" text-anchor="middle" x="82" y="-73.05" font-family="Arial" font-size="11.00"> aggregates </text>
</g>
<!-- Invis&#45;&gt;spatialReference -->
</g>
</svg>
