<?xml version="1.0" encoding="UTF-8" standalone="no"?>
<!DOCTYPE svg PUBLIC "-//W3C//DTD SVG 1.1//EN"
 "http://www.w3.org/Graphics/SVG/1.1/DTD/svg11.dtd">
<!-- Generated by graphviz version 14.1.3 (20260303.0454)
 -->
<!-- Pages: 1 -->
<svg width="244pt" height="162pt"
 viewBox="0.00 0.00 244.00 162.00" xmlns="http://www.w3.org/2000/svg" xmlns:xlink="http://www.w3.org/1999/xlink">
<g id="graph0" class="graph" transform="scale(1 1) rotate(0) translate(4 157.5)">
<polygon fill="white" stroke="none" points="-4,4 -4,-157.5 240.38,-157.5 240.38,4 -4,4"/>
<g id="clust2" class="cluster">
<title>cluster_associated</title>
</g>
<!-- geographic identifier -->
<g id="node1" class="node">
<title>geographic identifier</title>
<polygon fill="lightgray" stroke="none" points="1,-111.38 1,-127.62 111.75,-127.62 111.75,-111.38 1,-111.38"/>
<text xml:space="preserve" text-anchor="start" x="2" y="-115.38" font-family="Arial" font-size="12.00">geographic identifier</text>
<polygon fill="none" stroke="black" points="0,-110.38 0,-128.62 112.75,-128.62 112.75,-110.38 0,-110.38"/>
</g>
<!-- Invis -->
<!-- geographic identifier&#45;&gt;Invis -->
<!-- spatialReference -->
<g id="node3" class="node">
<title>spatialReference</title>
<g id="a_node3"><a xlink:href="../terms/spatial reference/" xlink:title="&lt;TABLE&gt;" target="_top">
<polygon fill="lightgray" stroke="none" points="129.12,-25.88 129.12,-42.12 219.62,-42.12 219.62,-25.88 129.12,-25.88"/>
<text xml:space="preserve" text-anchor="start" x="130.12" y="-29.88" font-family="Arial" font-size="12.00">spatial reference</text>
<polygon fill="none" stroke="black" points="128.12,-24.88 128.12,-43.12 220.62,-43.12 220.62,-24.88 128.12,-24.88"/>
</a>
</g>
</g>
<!-- geographic identifier&#45;&gt;spatialReference -->
<g id="edge3" class="edge">
<title>geographic identifier&#45;&gt;spatialReference</title>
<path fill="none" stroke="black" d="M60.32,-101.69C63.53,-91.31 69.07,-78.42 78.12,-70 89.12,-59.77 103.34,-52.49 117.46,-47.31"/>
<polygon fill="black" stroke="black" points="118.36,-50.7 126.75,-44.23 116.15,-44.06 118.36,-50.7"/>
<text xml:space="preserve" text-anchor="middle" x="124.25" y="-73.05" font-family="Arial" font-size="11.00"> reference used by </text>
</g>
<!-- Invis&#45;&gt;spatialReference -->
</g>
</svg>
