<?xml version="1.0" encoding="UTF-8" standalone="no"?>
<!DOCTYPE svg PUBLIC "-//W3C//DTD SVG 1.1//EN"
 "http://www.w3.org/Graphics/SVG/1.1/DTD/svg11.dtd">
<!-- Generated by graphviz version 14.1.3 (20260303.0454)
 -->
<!-- Pages: 1 -->
<svg width="300pt" height="162pt"
 viewBox="0.00 0.00 300.00 162.00" xmlns="http://www.w3.org/2000/svg" xmlns:xlink="http://www.w3.org/1999/xlink">
<g id="graph0" class="graph" transform="scale(1 1) rotate(0) translate(4 157.5)">
<polygon fill="white" stroke="none" points="-4,4 -4,-157.5 296.38,-157.5 296.38,4 -4,4"/>
<g id="clust2" class="cluster">
<title>cluster_associated</title>
</g>
<!-- hard shoulder for emergency use -->
<g id="node1" class="node">
<title>hard shoulder for emergency use</title>
<polygon fill="lightgray" stroke="none" points="1,-111.38 1,-127.62 177.75,-127.62 177.75,-111.38 1,-111.38"/>
<text xml:space="preserve" text-anchor="start" x="2" y="-115.38" font-family="Arial" font-size="12.00">hard shoulder for emergency use</text>
<polygon fill="none" stroke="black" points="0,-110.38 0,-128.62 178.75,-128.62 178.75,-110.38 0,-110.38"/>
</g>
<!-- Invis -->
<!-- hard shoulder for emergency use&#45;&gt;Invis -->
<!-- hardShoulder -->
<g id="node3" class="node">
<title>hardShoulder</title>
<g id="a_node3"><a xlink:href="../terms/hard shoulder/" xlink:title="&lt;TABLE&gt;" target="_top">
<polygon fill="lightgray" stroke="none" points="199.62,-25.88 199.62,-42.12 275.12,-42.12 275.12,-25.88 199.62,-25.88"/>
<text xml:space="preserve" text-anchor="start" x="200.62" y="-29.88" font-family="Arial" font-size="12.00">hard shoulder</text>
<polygon fill="none" stroke="black" points="198.62,-24.88 198.62,-43.12 276.12,-43.12 276.12,-24.88 198.62,-24.88"/>
</a>
</g>
</g>
<!-- hard shoulder for emergency use&#45;&gt;hardShoulder -->
<g id="edge3" class="edge">
<title>hard shoulder for emergency use&#45;&gt;hardShoulder</title>
<path fill="none" stroke="black" d="M104.29,-101.88C114.25,-91.57 128.1,-78.69 142.38,-70 156.39,-61.47 172.81,-54.5 188.03,-49.1"/>
<polygon fill="black" stroke="black" points="189.05,-52.44 197.41,-45.92 186.81,-45.81 189.05,-52.44"/>
<text xml:space="preserve" text-anchor="middle" x="188.88" y="-73.05" font-family="Arial" font-size="11.00"> operating mode of </text>
</g>
<!-- Invis&#45;&gt;hardShoulder -->
</g>
</svg>
