<?xml version="1.0" encoding="UTF-8" standalone="no"?>
<!DOCTYPE svg PUBLIC "-//W3C//DTD SVG 1.1//EN"
 "http://www.w3.org/Graphics/SVG/1.1/DTD/svg11.dtd">
<!-- Generated by graphviz version 14.1.3 (20260303.0454)
 -->
<!-- Pages: 1 -->
<svg width="257pt" height="162pt"
 viewBox="0.00 0.00 257.00 162.00" xmlns="http://www.w3.org/2000/svg" xmlns:xlink="http://www.w3.org/1999/xlink">
<g id="graph0" class="graph" transform="scale(1 1) rotate(0) translate(4 157.5)">
<polygon fill="white" stroke="none" points="-4,4 -4,-157.5 253.25,-157.5 253.25,4 -4,4"/>
<g id="clust2" class="cluster">
<title>cluster_associated</title>
</g>
<!-- infrastructure descriptor -->
<g id="node1" class="node">
<title>infrastructure descriptor</title>
<polygon fill="lightgray" stroke="none" points="1,-111.38 1,-127.62 127.5,-127.62 127.5,-111.38 1,-111.38"/>
<text xml:space="preserve" text-anchor="start" x="2" y="-115.38" font-family="Arial" font-size="12.00">infrastructure descriptor</text>
<polygon fill="none" stroke="black" points="0,-110.38 0,-128.62 128.5,-128.62 128.5,-110.38 0,-110.38"/>
</g>
<!-- Invis -->
<!-- infrastructure descriptor&#45;&gt;Invis -->
<!-- transportFacility -->
<g id="node3" class="node">
<title>transportFacility</title>
<g id="a_node3"><a xlink:href="../terms/transport facility/" xlink:title="&lt;TABLE&gt;" target="_top">
<polygon fill="lightgray" stroke="none" points="146.62,-25.88 146.62,-42.12 231.88,-42.12 231.88,-25.88 146.62,-25.88"/>
<text xml:space="preserve" text-anchor="start" x="147.62" y="-29.88" font-family="Arial" font-size="12.00">transport facility</text>
<polygon fill="none" stroke="black" points="145.62,-24.88 145.62,-43.12 232.88,-43.12 232.88,-24.88 145.62,-24.88"/>
</a>
</g>
</g>
<!-- infrastructure descriptor&#45;&gt;transportFacility -->
<g id="edge3" class="edge">
<title>infrastructure descriptor&#45;&gt;transportFacility</title>
<path fill="none" stroke="black" d="M80.2,-101.94C90.4,-91.91 104.26,-79.3 118,-70 124.82,-65.38 132.35,-61 139.88,-57.02"/>
<polygon fill="black" stroke="black" points="141.4,-60.17 148.72,-52.52 138.22,-53.93 141.4,-60.17"/>
<text xml:space="preserve" text-anchor="middle" x="152.12" y="-73.05" font-family="Arial" font-size="11.00"> helps identify </text>
</g>
<!-- Invis&#45;&gt;transportFacility -->
</g>
</svg>
