<?xml version="1.0" encoding="UTF-8" standalone="no"?>
<!DOCTYPE svg PUBLIC "-//W3C//DTD SVG 1.1//EN"
 "http://www.w3.org/Graphics/SVG/1.1/DTD/svg11.dtd">
<!-- Generated by graphviz version 14.1.3 (20260303.0454)
 -->
<!-- Pages: 1 -->
<svg width="213pt" height="219pt"
 viewBox="0.00 0.00 213.00 219.00" xmlns="http://www.w3.org/2000/svg" xmlns:xlink="http://www.w3.org/1999/xlink">
<g id="graph0" class="graph" transform="scale(1 1) rotate(0) translate(4 214.5)">
<polygon fill="white" stroke="none" points="-4,4 -4,-214.5 208.62,-214.5 208.62,4 -4,4"/>
<g id="clust2" class="cluster">
<title>cluster_associated</title>
</g>
<!-- interface dialogue -->
<g id="node1" class="node">
<title>interface dialogue</title>
<polygon fill="lightgray" stroke="none" points="106.38,-111.38 106.38,-127.62 203.62,-127.62 203.62,-111.38 106.38,-111.38"/>
<text xml:space="preserve" text-anchor="start" x="107.38" y="-115.38" font-family="Arial" font-size="12.00">interface dialogue</text>
<polygon fill="none" stroke="black" points="105.38,-110.38 105.38,-128.62 204.62,-128.62 204.62,-110.38 105.38,-110.38"/>
</g>
<!-- dataConcept -->
<g id="node2" class="node">
<title>dataConcept</title>
<g id="a_node2"><a xlink:href="../terms/data concept/" xlink:title="&lt;TABLE&gt;" target="_top">
<polygon fill="lightgray" stroke="none" points="119.88,-184.38 119.88,-200.62 190.12,-200.62 190.12,-184.38 119.88,-184.38"/>
<text xml:space="preserve" text-anchor="start" x="120.88" y="-188.38" font-family="Arial" font-size="12.00">data concept</text>
<polygon fill="none" stroke="black" points="118.88,-183.38 118.88,-201.62 191.12,-201.62 191.12,-183.38 118.88,-183.38"/>
</a>
</g>
</g>
<!-- interface dialogue&#45;&gt;dataConcept -->
<g id="edge1" class="edge">
<title>interface dialogue&#45;&gt;dataConcept</title>
<path fill="none" stroke="black" d="M155,-137.21C155,-144.97 155,-154.42 155,-163.24"/>
<polygon fill="none" stroke="black" points="151.5,-163.16 155,-173.16 158.5,-163.16 151.5,-163.16"/>
</g>
<!-- Invis -->
<!-- interface dialogue&#45;&gt;Invis -->
<!-- message -->
<g id="node4" class="node">
<title>message</title>
<g id="a_node4"><a xlink:href="../terms/message/" xlink:title="&lt;TABLE&gt;" target="_top">
<polygon fill="lightgray" stroke="none" points="17.62,-25.88 17.62,-42.12 68.38,-42.12 68.38,-25.88 17.62,-25.88"/>
<text xml:space="preserve" text-anchor="start" x="18.62" y="-29.88" font-family="Arial" font-size="12.00">message</text>
<polygon fill="none" stroke="black" points="16.62,-24.88 16.62,-43.12 69.38,-43.12 69.38,-24.88 16.62,-24.88"/>
</a>
</g>
</g>
<!-- interface dialogue&#45;&gt;message -->
<g id="edge4" class="edge">
<title>interface dialogue&#45;&gt;message</title>
<path fill="none" stroke="black" d="M132.34,-101.6C115.79,-89.27 93.14,-72.38 74.78,-58.69"/>
<polygon fill="black" stroke="black" points="76.95,-55.95 66.84,-52.78 72.77,-61.56 76.95,-55.95"/>
<text xml:space="preserve" text-anchor="middle" x="119.96" y="-73.05" font-family="Arial" font-size="11.00"> uses </text>
</g>
<!-- Invis&#45;&gt;message -->
</g>
</svg>
