<?xml version="1.0" encoding="UTF-8" standalone="no"?>
<!DOCTYPE svg PUBLIC "-//W3C//DTD SVG 1.1//EN"
 "http://www.w3.org/Graphics/SVG/1.1/DTD/svg11.dtd">
<!-- Generated by graphviz version 14.1.3 (20260303.0454)
 -->
<!-- Pages: 1 -->
<svg width="184pt" height="162pt"
 viewBox="0.00 0.00 184.00 162.00" xmlns="http://www.w3.org/2000/svg" xmlns:xlink="http://www.w3.org/1999/xlink">
<g id="graph0" class="graph" transform="scale(1 1) rotate(0) translate(4 157.5)">
<polygon fill="white" stroke="none" points="-4,4 -4,-157.5 179.75,-157.5 179.75,4 -4,4"/>
<g id="clust2" class="cluster">
<title>cluster_associated</title>
</g>
<!-- intersection -->
<g id="node1" class="node">
<title>intersection</title>
<g id="a_node1"><a xlink:href="../terms/intersection/" xlink:title="&lt;TABLE&gt;">
<polygon fill="lightgray" stroke="none" points="1,-111.38 1,-127.62 64.5,-127.62 64.5,-111.38 1,-111.38"/>
<text xml:space="preserve" text-anchor="start" x="2" y="-115.38" font-family="Arial" font-size="12.00">intersection</text>
<polygon fill="none" stroke="black" points="0,-110.38 0,-128.62 65.5,-128.62 65.5,-110.38 0,-110.38"/>
</a>
</g>
</g>
<!-- Invis -->
<!-- intersection&#45;&gt;Invis -->
<!-- road -->
<g id="node3" class="node">
<title>road</title>
<g id="a_node3"><a xlink:href="../terms/road/" xlink:title="&lt;TABLE&gt;" target="_top">
<polygon fill="lightgray" stroke="none" points="119.75,-25.88 119.75,-42.12 145.75,-42.12 145.75,-25.88 119.75,-25.88"/>
<text xml:space="preserve" text-anchor="start" x="120.75" y="-29.88" font-family="Arial" font-size="12.00">road</text>
<polygon fill="none" stroke="black" points="118.75,-24.88 118.75,-43.12 146.75,-43.12 146.75,-24.88 118.75,-24.88"/>
</a>
</g>
</g>
<!-- intersection&#45;&gt;road -->
<g id="edge3" class="edge">
<title>intersection&#45;&gt;road</title>
<path fill="none" stroke="black" d="M26.39,-101.76C23.7,-91.67 22.5,-79.06 29,-70 43.89,-49.26 71.71,-40.65 94.8,-37.15"/>
<polygon fill="black" stroke="black" points="95.01,-40.65 104.51,-35.96 94.16,-33.7 95.01,-40.65"/>
<text xml:space="preserve" text-anchor="middle" x="78.88" y="-73.05" font-family="Arial" font-size="11.00"> meeting or crossing </text>
</g>
<!-- Invis&#45;&gt;road -->
</g>
</svg>
