<?xml version="1.0" encoding="UTF-8" standalone="no"?>
<!DOCTYPE svg PUBLIC "-//W3C//DTD SVG 1.1//EN"
 "http://www.w3.org/Graphics/SVG/1.1/DTD/svg11.dtd">
<!-- Generated by graphviz version 14.1.3 (20260303.0454)
 -->
<!-- Pages: 1 -->
<svg width="242pt" height="235pt"
 viewBox="0.00 0.00 242.00 235.00" xmlns="http://www.w3.org/2000/svg" xmlns:xlink="http://www.w3.org/1999/xlink">
<g id="graph0" class="graph" transform="scale(1 1) rotate(0) translate(4 230.5)">
<polygon fill="white" stroke="none" points="-4,4 -4,-230.5 238.25,-230.5 238.25,4 -4,4"/>
<g id="clust2" class="cluster">
<title>cluster_associated</title>
</g>
<!-- intersection manoeuvre -->
<g id="node1" class="node">
<title>intersection manoeuvre</title>
<polygon fill="lightgray" stroke="none" points="1,-184.38 1,-200.62 127.5,-200.62 127.5,-184.38 1,-184.38"/>
<text xml:space="preserve" text-anchor="start" x="2" y="-188.38" font-family="Arial" font-size="12.00">intersection manoeuvre</text>
<polygon fill="none" stroke="black" points="0,-183.38 0,-201.62 128.5,-201.62 128.5,-183.38 0,-183.38"/>
</g>
<!-- Invis -->
<!-- intersection manoeuvre&#45;&gt;Invis -->
<!-- egressLane -->
<g id="node3" class="node">
<title>egressLane</title>
<g id="a_node3"><a xlink:href="../terms/egress lane/" xlink:title="&lt;TABLE&gt;" target="_top">
<polygon fill="lightgray" stroke="none" points="151.12,-98.88 151.12,-115.12 215.38,-115.12 215.38,-98.88 151.12,-98.88"/>
<text xml:space="preserve" text-anchor="start" x="152.12" y="-102.88" font-family="Arial" font-size="12.00">egress lane</text>
<polygon fill="none" stroke="black" points="150.12,-97.88 150.12,-116.12 216.38,-116.12 216.38,-97.88 150.12,-97.88"/>
</a>
</g>
</g>
<!-- intersection manoeuvre&#45;&gt;egressLane -->
<g id="edge4" class="edge">
<title>intersection manoeuvre&#45;&gt;egressLane</title>
<path fill="none" stroke="black" d="M88.33,-174.6C106.07,-162.15 130.42,-145.07 150.02,-131.32"/>
<polygon fill="black" stroke="black" points="151.79,-134.35 157.97,-125.74 147.77,-128.62 151.79,-134.35"/>
<text xml:space="preserve" text-anchor="middle" x="138.37" y="-146.05" font-family="Arial" font-size="11.00"> to </text>
</g>
<!-- ingressLane -->
<g id="node4" class="node">
<title>ingressLane</title>
<g id="a_node4"><a xlink:href="../terms/ingress lane/" xlink:title="&lt;TABLE&gt;" target="_top">
<polygon fill="lightgray" stroke="none" points="149.62,-25.88 149.62,-42.12 216.88,-42.12 216.88,-25.88 149.62,-25.88"/>
<text xml:space="preserve" text-anchor="start" x="150.62" y="-29.88" font-family="Arial" font-size="12.00">ingress lane</text>
<polygon fill="none" stroke="black" points="148.62,-24.88 148.62,-43.12 217.88,-43.12 217.88,-24.88 148.62,-24.88"/>
</a>
</g>
</g>
<!-- intersection manoeuvre&#45;&gt;ingressLane -->
<g id="edge5" class="edge">
<title>intersection manoeuvre&#45;&gt;ingressLane</title>
<path fill="none" stroke="black" d="M69.65,-174.54C77.08,-153.03 92.02,-115.56 113.5,-89 122.77,-77.54 134.93,-67.06 146.5,-58.45"/>
<polygon fill="black" stroke="black" points="148.25,-61.5 154.35,-52.84 144.18,-55.8 148.25,-61.5"/>
<text xml:space="preserve" text-anchor="middle" x="127.38" y="-103.3" font-family="Arial" font-size="11.00"> from </text>
</g>
<!-- Invis&#45;&gt;egressLane -->
<!-- egressLane&#45;&gt;ingressLane -->
</g>
</svg>
