<?xml version="1.0" encoding="UTF-8" standalone="no"?>
<!DOCTYPE svg PUBLIC "-//W3C//DTD SVG 1.1//EN"
 "http://www.w3.org/Graphics/SVG/1.1/DTD/svg11.dtd">
<!-- Generated by graphviz version 14.1.3 (20260303.0454)
 -->
<!-- Pages: 1 -->
<svg width="234pt" height="162pt"
 viewBox="0.00 0.00 234.00 162.00" xmlns="http://www.w3.org/2000/svg" xmlns:xlink="http://www.w3.org/1999/xlink">
<g id="graph0" class="graph" transform="scale(1 1) rotate(0) translate(4 157.5)">
<polygon fill="white" stroke="none" points="-4,4 -4,-157.5 229.75,-157.5 229.75,4 -4,4"/>
<g id="clust2" class="cluster">
<title>cluster_associated</title>
</g>
<!-- ITS implementation -->
<g id="node1" class="node">
<title>ITS implementation</title>
<polygon fill="lightgray" stroke="none" points="1,-111.38 1,-127.62 106.5,-127.62 106.5,-111.38 1,-111.38"/>
<text xml:space="preserve" text-anchor="start" x="2" y="-115.38" font-family="Arial" font-size="12.00">ITS implementation</text>
<polygon fill="none" stroke="black" points="0,-110.38 0,-128.62 107.5,-128.62 107.5,-110.38 0,-110.38"/>
</g>
<!-- Invis -->
<!-- ITS implementation&#45;&gt;Invis -->
<!-- itsApplication -->
<g id="node3" class="node">
<title>itsApplication</title>
<g id="a_node3"><a xlink:href="../terms/ITS application/" xlink:title="&lt;TABLE&gt;" target="_top">
<polygon fill="lightgray" stroke="none" points="126.62,-25.88 126.62,-42.12 208.88,-42.12 208.88,-25.88 126.62,-25.88"/>
<text xml:space="preserve" text-anchor="start" x="127.62" y="-29.88" font-family="Arial" font-size="12.00">ITS application</text>
<polygon fill="none" stroke="black" points="125.62,-24.88 125.62,-43.12 209.88,-43.12 209.88,-24.88 125.62,-24.88"/>
</a>
</g>
</g>
<!-- ITS implementation&#45;&gt;itsApplication -->
<g id="edge3" class="edge">
<title>ITS implementation&#45;&gt;itsApplication</title>
<path fill="none" stroke="black" d="M69.06,-101.61C78.55,-91.71 91.31,-79.35 104,-70 110.01,-65.57 116.65,-61.32 123.3,-57.41"/>
<polygon fill="black" stroke="black" points="124.68,-60.64 131.66,-52.67 121.23,-54.55 124.68,-60.64"/>
<text xml:space="preserve" text-anchor="middle" x="134.38" y="-73.05" font-family="Arial" font-size="11.00"> implements </text>
</g>
<!-- Invis&#45;&gt;itsApplication -->
</g>
</svg>
