<?xml version="1.0" encoding="UTF-8" standalone="no"?>
<!DOCTYPE svg PUBLIC "-//W3C//DTD SVG 1.1//EN"
 "http://www.w3.org/Graphics/SVG/1.1/DTD/svg11.dtd">
<!-- Generated by graphviz version 14.1.3 (20260303.0454)
 -->
<!-- Pages: 1 -->
<svg width="322pt" height="292pt"
 viewBox="0.00 0.00 322.00 292.00" xmlns="http://www.w3.org/2000/svg" xmlns:xlink="http://www.w3.org/1999/xlink">
<g id="graph0" class="graph" transform="scale(1 1) rotate(0) translate(4 287.5)">
<polygon fill="white" stroke="none" points="-4,4 -4,-287.5 317.5,-287.5 317.5,4 -4,4"/>
<g id="clust2" class="cluster">
<title>cluster_associated</title>
</g>
<!-- ITS station -->
<g id="node1" class="node">
<title>ITS station</title>
<polygon fill="lightgray" stroke="none" points="187.5,-184.38 187.5,-200.62 246.5,-200.62 246.5,-184.38 187.5,-184.38"/>
<text xml:space="preserve" text-anchor="start" x="188.5" y="-188.38" font-family="Arial" font-size="12.00">ITS station</text>
<polygon fill="none" stroke="black" points="186.5,-183.38 186.5,-201.62 247.5,-201.62 247.5,-183.38 186.5,-183.38"/>
</g>
<!-- boundedSecuredManagedDomain -->
<g id="node2" class="node">
<title>boundedSecuredManagedDomain</title>
<g id="a_node2"><a xlink:href="../terms/bounded secured managed domain/" xlink:title="&lt;TABLE&gt;" target="_top">
<polygon fill="lightgray" stroke="none" points="121.5,-257.38 121.5,-273.62 312.5,-273.62 312.5,-257.38 121.5,-257.38"/>
<text xml:space="preserve" text-anchor="start" x="122.5" y="-261.38" font-family="Arial" font-size="12.00">bounded secured managed domain</text>
<polygon fill="none" stroke="black" points="120.5,-256.38 120.5,-274.62 313.5,-274.62 313.5,-256.38 120.5,-256.38"/>
</a>
</g>
</g>
<!-- ITS station&#45;&gt;boundedSecuredManagedDomain -->
<g id="edge1" class="edge">
<title>ITS station&#45;&gt;boundedSecuredManagedDomain</title>
<path fill="none" stroke="black" d="M217,-210.21C217,-217.97 217,-227.42 217,-236.24"/>
<polygon fill="none" stroke="black" points="213.5,-236.16 217,-246.16 220.5,-236.16 213.5,-236.16"/>
</g>
<!-- Invis -->
<!-- ITS station&#45;&gt;Invis -->
<!-- its&#45;sReferenceArchitecture -->
<g id="node4" class="node">
<title>its&#45;sReferenceArchitecture</title>
<g id="a_node4"><a xlink:href="../terms/ITS-S reference architecture/" xlink:title="&lt;TABLE&gt;" target="_top">
<polygon fill="lightgray" stroke="none" points="17.38,-98.88 17.38,-115.12 168.62,-115.12 168.62,-98.88 17.38,-98.88"/>
<text xml:space="preserve" text-anchor="start" x="18.38" y="-102.88" font-family="Arial" font-size="12.00">ITS&#45;S reference architecture</text>
<polygon fill="none" stroke="black" points="16.38,-97.88 16.38,-116.12 169.62,-116.12 169.62,-97.88 16.38,-97.88"/>
</a>
</g>
</g>
<!-- ITS station&#45;&gt;its&#45;sReferenceArchitecture -->
<g id="edge6" class="edge">
<title>ITS station&#45;&gt;its&#45;sReferenceArchitecture</title>
<path fill="none" stroke="black" d="M186.55,-176.45C185.02,-175.78 183.5,-175.12 182,-174.5 159.51,-165.16 149.99,-170.75 130.25,-156.5 122.05,-150.58 114.79,-142.35 108.92,-134.35"/>
<polygon fill="black" stroke="black" points="111.83,-132.42 103.31,-126.12 106.05,-136.36 111.83,-132.42"/>
<text xml:space="preserve" text-anchor="middle" x="163.62" y="-146.05" font-family="Arial" font-size="11.00"> described by </text>
</g>
<!-- itsTrustDomain -->
<g id="node5" class="node">
<title>itsTrustDomain</title>
<g id="a_node5"><a xlink:href="../terms/ITS trust domain/" xlink:title="&lt;TABLE&gt;" target="_top">
<polygon fill="lightgray" stroke="none" points="64.5,-25.88 64.5,-42.12 153.5,-42.12 153.5,-25.88 64.5,-25.88"/>
<text xml:space="preserve" text-anchor="start" x="65.5" y="-29.88" font-family="Arial" font-size="12.00">ITS trust domain</text>
<polygon fill="none" stroke="black" points="63.5,-24.88 63.5,-43.12 154.5,-43.12 154.5,-24.88 63.5,-24.88"/>
</a>
</g>
</g>
<!-- ITS station&#45;&gt;itsTrustDomain -->
<g id="edge5" class="edge">
<title>ITS station&#45;&gt;itsTrustDomain</title>
<path fill="none" stroke="black" d="M213.74,-174.5C208.97,-152.96 198.46,-115.45 179,-89 170.47,-77.41 158.8,-67.07 147.44,-58.61"/>
<polygon fill="black" stroke="black" points="149.46,-55.75 139.27,-52.84 145.42,-61.47 149.46,-55.75"/>
<text xml:space="preserve" text-anchor="middle" x="254.68" y="-103.3" font-family="Arial" font-size="11.00"> meets requirements of </text>
</g>
<!-- Invis&#45;&gt;its&#45;sReferenceArchitecture -->
<!-- its&#45;sReferenceArchitecture&#45;&gt;itsTrustDomain -->
</g>
</svg>
