<?xml version="1.0" encoding="UTF-8" standalone="no"?>
<!DOCTYPE svg PUBLIC "-//W3C//DTD SVG 1.1//EN"
 "http://www.w3.org/Graphics/SVG/1.1/DTD/svg11.dtd">
<!-- Generated by graphviz version 14.1.3 (20260303.0454)
 -->
<!-- Pages: 1 -->
<svg width="228pt" height="219pt"
 viewBox="0.00 0.00 228.00 219.00" xmlns="http://www.w3.org/2000/svg" xmlns:xlink="http://www.w3.org/1999/xlink">
<g id="graph0" class="graph" transform="scale(1 1) rotate(0) translate(4 214.5)">
<polygon fill="white" stroke="none" points="-4,4 -4,-214.5 224,-214.5 224,4 -4,4"/>
<g id="clust2" class="cluster">
<title>cluster_associated</title>
</g>
<!-- ITS user -->
<g id="node1" class="node">
<title>ITS user</title>
<polygon fill="lightgray" stroke="none" points="169.5,-111.38 169.5,-127.62 216.5,-127.62 216.5,-111.38 169.5,-111.38"/>
<text xml:space="preserve" text-anchor="start" x="170.5" y="-115.38" font-family="Arial" font-size="12.00">ITS user</text>
<polygon fill="none" stroke="black" points="168.5,-110.38 168.5,-128.62 217.5,-128.62 217.5,-110.38 168.5,-110.38"/>
</g>
<!-- user -->
<g id="node2" class="node">
<title>user</title>
<g id="a_node2"><a xlink:href="../terms/user/" xlink:title="&lt;TABLE&gt;" target="_top">
<polygon fill="lightgray" stroke="none" points="180.38,-184.38 180.38,-200.62 205.62,-200.62 205.62,-184.38 180.38,-184.38"/>
<text xml:space="preserve" text-anchor="start" x="181.38" y="-188.38" font-family="Arial" font-size="12.00">user</text>
<polygon fill="none" stroke="black" points="179.38,-183.38 179.38,-201.62 206.62,-201.62 206.62,-183.38 179.38,-183.38"/>
</a>
</g>
</g>
<!-- ITS user&#45;&gt;user -->
<g id="edge1" class="edge">
<title>ITS user&#45;&gt;user</title>
<path fill="none" stroke="black" d="M193,-137.21C193,-144.97 193,-154.42 193,-163.24"/>
<polygon fill="none" stroke="black" points="189.5,-163.16 193,-173.16 196.5,-163.16 189.5,-163.16"/>
</g>
<!-- Invis -->
<!-- ITS user&#45;&gt;Invis -->
<!-- surfaceTransportSystem -->
<g id="node4" class="node">
<title>surfaceTransportSystem</title>
<g id="a_node4"><a xlink:href="../terms/surface transport system/" xlink:title="&lt;TABLE&gt;" target="_top">
<polygon fill="lightgray" stroke="none" points="17.5,-25.88 17.5,-42.12 148.5,-42.12 148.5,-25.88 17.5,-25.88"/>
<text xml:space="preserve" text-anchor="start" x="18.5" y="-29.88" font-family="Arial" font-size="12.00">surface transport system</text>
<polygon fill="none" stroke="black" points="16.5,-24.88 16.5,-43.12 149.5,-43.12 149.5,-24.88 16.5,-24.88"/>
</a>
</g>
</g>
<!-- ITS user&#45;&gt;surfaceTransportSystem -->
<g id="edge4" class="edge">
<title>ITS user&#45;&gt;surfaceTransportSystem</title>
<path fill="none" stroke="black" d="M170.74,-101.6C154.49,-89.27 132.24,-72.38 114.21,-58.69"/>
<polygon fill="black" stroke="black" points="116.51,-56.05 106.43,-52.79 112.28,-61.62 116.51,-56.05"/>
<text xml:space="preserve" text-anchor="middle" x="158.84" y="-73.05" font-family="Arial" font-size="11.00"> uses </text>
</g>
<!-- Invis&#45;&gt;surfaceTransportSystem -->
</g>
</svg>
