<?xml version="1.0" encoding="UTF-8" standalone="no"?>
<!DOCTYPE svg PUBLIC "-//W3C//DTD SVG 1.1//EN"
 "http://www.w3.org/Graphics/SVG/1.1/DTD/svg11.dtd">
<!-- Generated by graphviz version 14.1.3 (20260303.0454)
 -->
<!-- Pages: 1 -->
<svg width="184pt" height="292pt"
 viewBox="0.00 0.00 184.00 292.00" xmlns="http://www.w3.org/2000/svg" xmlns:xlink="http://www.w3.org/1999/xlink">
<g id="graph0" class="graph" transform="scale(1 1) rotate(0) translate(4 287.5)">
<polygon fill="white" stroke="none" points="-4,4 -4,-287.5 180,-287.5 180,4 -4,4"/>
<g id="clust2" class="cluster">
<title>cluster_associated</title>
</g>
<!-- ITS service -->
<g id="node1" class="node">
<title>ITS service</title>
<polygon fill="lightgray" stroke="none" points="113,-184.38 113,-200.62 175,-200.62 175,-184.38 113,-184.38"/>
<text xml:space="preserve" text-anchor="start" x="114" y="-188.38" font-family="Arial" font-size="12.00">ITS service</text>
<polygon fill="none" stroke="black" points="112,-183.38 112,-201.62 176,-201.62 176,-183.38 112,-183.38"/>
</g>
<!-- service -->
<g id="node2" class="node">
<title>service</title>
<g id="a_node2"><a xlink:href="../terms/service/" xlink:title="&lt;TABLE&gt;" target="_top">
<polygon fill="lightgray" stroke="none" points="123.88,-257.38 123.88,-273.62 164.12,-273.62 164.12,-257.38 123.88,-257.38"/>
<text xml:space="preserve" text-anchor="start" x="124.88" y="-261.38" font-family="Arial" font-size="12.00">service</text>
<polygon fill="none" stroke="black" points="122.88,-256.38 122.88,-274.62 165.12,-274.62 165.12,-256.38 122.88,-256.38"/>
</a>
</g>
</g>
<!-- ITS service&#45;&gt;service -->
<g id="edge1" class="edge">
<title>ITS service&#45;&gt;service</title>
<path fill="none" stroke="black" d="M144,-210.21C144,-217.97 144,-227.42 144,-236.24"/>
<polygon fill="none" stroke="black" points="140.5,-236.16 144,-246.16 147.5,-236.16 140.5,-236.16"/>
</g>
<!-- Invis -->
<!-- ITS service&#45;&gt;Invis -->
<!-- itsUser -->
<g id="node4" class="node">
<title>itsUser</title>
<g id="a_node4"><a xlink:href="../terms/ITS user/" xlink:title="&lt;TABLE&gt;" target="_top">
<polygon fill="lightgray" stroke="none" points="32.5,-98.88 32.5,-115.12 79.5,-115.12 79.5,-98.88 32.5,-98.88"/>
<text xml:space="preserve" text-anchor="start" x="33.5" y="-102.88" font-family="Arial" font-size="12.00">ITS user</text>
<polygon fill="none" stroke="black" points="31.5,-97.88 31.5,-116.12 80.5,-116.12 80.5,-97.88 31.5,-97.88"/>
</a>
</g>
</g>
<!-- ITS service&#45;&gt;itsUser -->
<g id="edge5" class="edge">
<title>ITS service&#45;&gt;itsUser</title>
<path fill="none" stroke="black" d="M119.99,-174.56C112.75,-169.09 104.96,-162.8 98.25,-156.5 90.76,-149.47 83.19,-141.23 76.58,-133.56"/>
<polygon fill="black" stroke="black" points="79.4,-131.47 70.28,-126.07 74.04,-135.98 79.4,-131.47"/>
<text xml:space="preserve" text-anchor="middle" x="107.62" y="-146.05" font-family="Arial" font-size="11.00"> for </text>
</g>
<!-- itsUserNeed -->
<g id="node5" class="node">
<title>itsUserNeed</title>
<g id="a_node5"><a xlink:href="../terms/ITS user need/" xlink:title="&lt;TABLE&gt;" target="_top">
<polygon fill="lightgray" stroke="none" points="17.5,-25.88 17.5,-42.12 94.5,-42.12 94.5,-25.88 17.5,-25.88"/>
<text xml:space="preserve" text-anchor="start" x="18.5" y="-29.88" font-family="Arial" font-size="12.00">ITS user need</text>
<polygon fill="none" stroke="black" points="16.5,-24.88 16.5,-43.12 95.5,-43.12 95.5,-24.88 16.5,-24.88"/>
</a>
</g>
</g>
<!-- ITS service&#45;&gt;itsUserNeed -->
<g id="edge6" class="edge">
<title>ITS service&#45;&gt;itsUserNeed</title>
<path fill="none" stroke="black" d="M136.3,-174.85C126.63,-154.3 109.21,-118.46 92,-89 86.55,-79.67 80.13,-69.75 74.23,-60.99"/>
<polygon fill="black" stroke="black" points="77.26,-59.23 68.73,-52.95 71.48,-63.18 77.26,-59.23"/>
<text xml:space="preserve" text-anchor="middle" x="126.4" y="-103.3" font-family="Arial" font-size="11.00"> fulfils </text>
</g>
<!-- Invis&#45;&gt;itsUser -->
<!-- itsUser&#45;&gt;itsUserNeed -->
</g>
</svg>
