<?xml version="1.0" encoding="UTF-8" standalone="no"?>
<!DOCTYPE svg PUBLIC "-//W3C//DTD SVG 1.1//EN"
 "http://www.w3.org/Graphics/SVG/1.1/DTD/svg11.dtd">
<!-- Generated by graphviz version 14.1.3 (20260303.0454)
 -->
<!-- Pages: 1 -->
<svg width="274pt" height="162pt"
 viewBox="0.00 0.00 274.00 162.00" xmlns="http://www.w3.org/2000/svg" xmlns:xlink="http://www.w3.org/1999/xlink">
<g id="graph0" class="graph" transform="scale(1 1) rotate(0) translate(4 157.5)">
<polygon fill="white" stroke="none" points="-4,4 -4,-157.5 269.62,-157.5 269.62,4 -4,4"/>
<g id="clust2" class="cluster">
<title>cluster_associated</title>
</g>
<!-- ITS&#45;S communication unit -->
<g id="node1" class="node">
<title>ITS&#45;S communication unit</title>
<polygon fill="lightgray" stroke="none" points="1,-111.38 1,-127.62 140.25,-127.62 140.25,-111.38 1,-111.38"/>
<text xml:space="preserve" text-anchor="start" x="2" y="-115.38" font-family="Arial" font-size="12.00">ITS&#45;S communication unit</text>
<polygon fill="none" stroke="black" points="0,-110.38 0,-128.62 141.25,-128.62 141.25,-110.38 0,-110.38"/>
</g>
<!-- Invis -->
<!-- ITS&#45;S communication unit&#45;&gt;Invis -->
<!-- functionalObject -->
<g id="node3" class="node">
<title>functionalObject</title>
<g id="a_node3"><a xlink:href="../terms/functional object/" xlink:title="&lt;TABLE&gt;" target="_top">
<polygon fill="lightgray" stroke="none" points="159.12,-25.88 159.12,-42.12 248.12,-42.12 248.12,-25.88 159.12,-25.88"/>
<text xml:space="preserve" text-anchor="start" x="160.12" y="-29.88" font-family="Arial" font-size="12.00">functional object</text>
<polygon fill="none" stroke="black" points="158.12,-24.88 158.12,-43.12 249.12,-43.12 249.12,-24.88 158.12,-24.88"/>
</a>
</g>
</g>
<!-- ITS&#45;S communication unit&#45;&gt;functionalObject -->
<g id="edge3" class="edge">
<title>ITS&#45;S communication unit&#45;&gt;functionalObject</title>
<path fill="none" stroke="black" d="M97.54,-101.6C117.55,-89.04 145.08,-71.76 167.08,-57.94"/>
<polygon fill="black" stroke="black" points="168.86,-60.96 175.47,-52.68 165.14,-55.03 168.86,-60.96"/>
<text xml:space="preserve" text-anchor="middle" x="167.96" y="-73.05" font-family="Arial" font-size="11.00"> contains </text>
</g>
<!-- Invis&#45;&gt;functionalObject -->
</g>
</svg>
