<?xml version="1.0" encoding="UTF-8" standalone="no"?>
<!DOCTYPE svg PUBLIC "-//W3C//DTD SVG 1.1//EN"
 "http://www.w3.org/Graphics/SVG/1.1/DTD/svg11.dtd">
<!-- Generated by graphviz version 14.1.3 (20260303.0454)
 -->
<!-- Pages: 1 -->
<svg width="242pt" height="162pt"
 viewBox="0.00 0.00 242.00 162.00" xmlns="http://www.w3.org/2000/svg" xmlns:xlink="http://www.w3.org/1999/xlink">
<g id="graph0" class="graph" transform="scale(1 1) rotate(0) translate(4 157.5)">
<polygon fill="white" stroke="none" points="-4,4 -4,-157.5 238.25,-157.5 238.25,4 -4,4"/>
<g id="clust2" class="cluster">
<title>cluster_associated</title>
</g>
<!-- jurisdictional area -->
<g id="node1" class="node">
<title>jurisdictional area</title>
<polygon fill="lightgray" stroke="none" points="1,-111.38 1,-127.62 97.5,-127.62 97.5,-111.38 1,-111.38"/>
<text xml:space="preserve" text-anchor="start" x="2" y="-115.38" font-family="Arial" font-size="12.00">jurisdictional area</text>
<polygon fill="none" stroke="black" points="0,-110.38 0,-128.62 98.5,-128.62 98.5,-110.38 0,-110.38"/>
</g>
<!-- Invis -->
<!-- jurisdictional area&#45;&gt;Invis -->
<!-- jurisdictionalEntity -->
<g id="node3" class="node">
<title>jurisdictionalEntity</title>
<g id="a_node3"><a xlink:href="../terms/jurisdictional entity/" xlink:title="&lt;TABLE&gt;" target="_top">
<polygon fill="lightgray" stroke="none" points="115.75,-25.88 115.75,-42.12 216.75,-42.12 216.75,-25.88 115.75,-25.88"/>
<text xml:space="preserve" text-anchor="start" x="116.75" y="-29.88" font-family="Arial" font-size="12.00">jurisdictional entity</text>
<polygon fill="none" stroke="black" points="114.75,-24.88 114.75,-43.12 217.75,-43.12 217.75,-24.88 114.75,-24.88"/>
</a>
</g>
</g>
<!-- jurisdictional area&#45;&gt;jurisdictionalEntity -->
<g id="edge3" class="edge">
<title>jurisdictional area&#45;&gt;jurisdictionalEntity</title>
<path fill="none" stroke="black" d="M56,-101.76C60.91,-91.42 68.45,-78.53 78.5,-70 86.13,-63.52 95.11,-58.14 104.36,-53.71"/>
<polygon fill="black" stroke="black" points="105.73,-56.93 113.48,-49.7 102.92,-50.52 105.73,-56.93"/>
<text xml:space="preserve" text-anchor="middle" x="119.38" y="-73.05" font-family="Arial" font-size="11.00"> rules defined by </text>
</g>
<!-- Invis&#45;&gt;jurisdictionalEntity -->
</g>
</svg>
