<?xml version="1.0" encoding="UTF-8" standalone="no"?>
<!DOCTYPE svg PUBLIC "-//W3C//DTD SVG 1.1//EN"
 "http://www.w3.org/Graphics/SVG/1.1/DTD/svg11.dtd">
<!-- Generated by graphviz version 14.1.3 (20260303.0454)
 -->
<!-- Pages: 1 -->
<svg width="184pt" height="162pt"
 viewBox="0.00 0.00 184.00 162.00" xmlns="http://www.w3.org/2000/svg" xmlns:xlink="http://www.w3.org/1999/xlink">
<g id="graph0" class="graph" transform="scale(1 1) rotate(0) translate(4 157.5)">
<polygon fill="white" stroke="none" points="-4,4 -4,-157.5 180.38,-157.5 180.38,4 -4,4"/>
<g id="clust2" class="cluster">
<title>cluster_associated</title>
</g>
<!-- loading area -->
<g id="node1" class="node">
<title>loading area</title>
<polygon fill="lightgray" stroke="none" points="1,-111.38 1,-127.62 69.75,-127.62 69.75,-111.38 1,-111.38"/>
<text xml:space="preserve" text-anchor="start" x="2" y="-115.38" font-family="Arial" font-size="12.00">loading area</text>
<polygon fill="none" stroke="black" points="0,-110.38 0,-128.62 70.75,-128.62 70.75,-110.38 0,-110.38"/>
</g>
<!-- Invis -->
<!-- loading area&#45;&gt;Invis -->
<!-- vehicles -->
<g id="node3" class="node">
<title>vehicles</title>
<polygon fill="lightgray" stroke="none" points="110.25,-25.88 110.25,-42.12 156.5,-42.12 156.5,-25.88 110.25,-25.88"/>
<text xml:space="preserve" text-anchor="start" x="111.25" y="-29.88" font-family="Arial" font-size="12.00">vehicles</text>
<polygon fill="none" stroke="black" points="109.25,-24.88 109.25,-43.12 157.5,-43.12 157.5,-24.88 109.25,-24.88"/>
</g>
<!-- loading area&#45;&gt;vehicles -->
<g id="edge3" class="edge">
<title>loading area&#45;&gt;vehicles</title>
<path fill="none" stroke="black" d="M38.79,-101.92C41.64,-91.64 46.66,-78.76 55.12,-70 66.17,-58.57 81.62,-50.59 95.87,-45.17"/>
<polygon fill="black" stroke="black" points="96.71,-48.58 105.01,-42 94.42,-41.96 96.71,-48.58"/>
<text xml:space="preserve" text-anchor="middle" x="92.25" y="-73.05" font-family="Arial" font-size="11.00"> for designated </text>
</g>
<!-- Invis&#45;&gt;vehicles -->
</g>
</svg>
