<?xml version="1.0" encoding="UTF-8" standalone="no"?>
<!DOCTYPE svg PUBLIC "-//W3C//DTD SVG 1.1//EN"
 "http://www.w3.org/Graphics/SVG/1.1/DTD/svg11.dtd">
<!-- Generated by graphviz version 14.1.3 (20260303.0454)
 -->
<!-- Pages: 1 -->
<svg width="234pt" height="162pt"
 viewBox="0.00 0.00 234.00 162.00" xmlns="http://www.w3.org/2000/svg" xmlns:xlink="http://www.w3.org/1999/xlink">
<g id="graph0" class="graph" transform="scale(1 1) rotate(0) translate(4 157.5)">
<polygon fill="white" stroke="none" points="-4,4 -4,-157.5 230.38,-157.5 230.38,4 -4,4"/>
<g id="clust2" class="cluster">
<title>cluster_associated</title>
</g>
<!-- membership&#45;based -->
<g id="node1" class="node">
<title>membership&#45;based</title>
<g id="a_node1"><a xlink:href="../terms/membership-based/" xlink:title="&lt;TABLE&gt;">
<polygon fill="lightgray" stroke="none" points="1,-111.38 1,-127.62 105.75,-127.62 105.75,-111.38 1,-111.38"/>
<text xml:space="preserve" text-anchor="start" x="2" y="-115.38" font-family="Arial" font-size="12.00">membership&#45;based</text>
<polygon fill="none" stroke="black" points="0,-110.38 0,-128.62 106.75,-128.62 106.75,-110.38 0,-110.38"/>
</a>
</g>
</g>
<!-- Invis -->
<!-- membership&#45;based&#45;&gt;Invis -->
<!-- financialModel -->
<g id="node3" class="node">
<title>financialModel</title>
<g id="a_node3"><a xlink:href="../terms/financial model/" xlink:title="&lt;TABLE&gt;" target="_top">
<polygon fill="lightgray" stroke="none" points="125.88,-25.88 125.88,-42.12 208.88,-42.12 208.88,-25.88 125.88,-25.88"/>
<text xml:space="preserve" text-anchor="start" x="126.88" y="-29.88" font-family="Arial" font-size="12.00">financial model</text>
<polygon fill="none" stroke="black" points="124.88,-24.88 124.88,-43.12 209.88,-43.12 209.88,-24.88 124.88,-24.88"/>
</a>
</g>
</g>
<!-- membership&#45;based&#45;&gt;financialModel -->
<g id="edge3" class="edge">
<title>membership&#45;based&#45;&gt;financialModel</title>
<path fill="none" stroke="black" d="M72.94,-101.52C84.27,-91.92 98.96,-79.91 112.62,-70 118.26,-65.91 124.36,-61.77 130.37,-57.82"/>
<polygon fill="black" stroke="black" points="131.88,-61.01 138.39,-52.65 128.09,-55.13 131.88,-61.01"/>
<text xml:space="preserve" text-anchor="middle" x="138.5" y="-73.05" font-family="Arial" font-size="11.00"> describes </text>
</g>
<!-- Invis&#45;&gt;financialModel -->
</g>
</svg>
