<?xml version="1.0" encoding="UTF-8" standalone="no"?>
<!DOCTYPE svg PUBLIC "-//W3C//DTD SVG 1.1//EN"
 "http://www.w3.org/Graphics/SVG/1.1/DTD/svg11.dtd">
<!-- Generated by graphviz version 14.1.3 (20260303.0454)
 -->
<!-- Pages: 1 -->
<svg width="216pt" height="204pt"
 viewBox="0.00 0.00 216.00 204.00" xmlns="http://www.w3.org/2000/svg" xmlns:xlink="http://www.w3.org/1999/xlink">
<g id="graph0" class="graph" transform="scale(1 1) rotate(0) translate(4 200)">
<polygon fill="white" stroke="none" points="-4,4 -4,-200 211.5,-200 211.5,4 -4,4"/>
<g id="clust2" class="cluster">
<title>cluster_associated</title>
</g>
<!-- nomadic device -->
<g id="node1" class="node">
<title>nomadic device</title>
<polygon fill="lightgray" stroke="none" points="32.5,-97.88 32.5,-114.12 118.5,-114.12 118.5,-97.88 32.5,-97.88"/>
<text xml:space="preserve" text-anchor="start" x="33.5" y="-101.88" font-family="Arial" font-size="12.00">nomadic device</text>
<polygon fill="none" stroke="black" points="31.5,-96.88 31.5,-115.12 119.5,-115.12 119.5,-96.88 31.5,-96.88"/>
</g>
<!-- personalInformationDevice -->
<g id="node2" class="node">
<title>personalInformationDevice</title>
<g id="a_node2"><a xlink:href="../terms/personal information device/" xlink:title="&lt;TABLE&gt;" target="_top">
<polygon fill="lightgray" stroke="none" points="1,-169.88 1,-186.12 150,-186.12 150,-169.88 1,-169.88"/>
<text xml:space="preserve" text-anchor="start" x="2" y="-173.88" font-family="Arial" font-size="12.00">personal information device</text>
<polygon fill="none" stroke="black" points="0,-168.88 0,-187.12 151,-187.12 151,-168.88 0,-168.88"/>
</a>
</g>
</g>
<!-- nomadic device&#45;&gt;personalInformationDevice -->
<g id="edge1" class="edge">
<title>nomadic device&#45;&gt;personalInformationDevice</title>
<path fill="none" stroke="black" d="M75.5,-123.79C75.5,-131.25 75.5,-140.24 75.5,-148.69"/>
<polygon fill="none" stroke="black" points="72,-148.54 75.5,-158.54 79,-148.54 72,-148.54"/>
</g>
<!-- Invis -->
<!-- nomadic device&#45;&gt;Invis -->
<!-- traveller -->
<g id="node4" class="node">
<title>traveller</title>
<g id="a_node4"><a xlink:href="../terms/traveller/" xlink:title="&lt;TABLE&gt;" target="_top">
<polygon fill="lightgray" stroke="none" points="142.12,-25.88 142.12,-42.12 186.88,-42.12 186.88,-25.88 142.12,-25.88"/>
<text xml:space="preserve" text-anchor="start" x="143.12" y="-29.88" font-family="Arial" font-size="12.00">traveller</text>
<polygon fill="none" stroke="black" points="141.12,-24.88 141.12,-43.12 187.88,-43.12 187.88,-24.88 141.12,-24.88"/>
</a>
</g>
</g>
<!-- Invis&#45;&gt;traveller -->
</g>
</svg>
