<?xml version="1.0" encoding="UTF-8" standalone="no"?>
<!DOCTYPE svg PUBLIC "-//W3C//DTD SVG 1.1//EN"
 "http://www.w3.org/Graphics/SVG/1.1/DTD/svg11.dtd">
<!-- Generated by graphviz version 14.0.2 (20251019.1705)
 -->
<!-- Pages: 1 -->
<svg width="177pt" height="132pt"
 viewBox="0.00 0.00 177.00 132.00" xmlns="http://www.w3.org/2000/svg" xmlns:xlink="http://www.w3.org/1999/xlink">
<g id="graph0" class="graph" transform="scale(1 1) rotate(0) translate(4 128)">
<polygon fill="white" stroke="none" points="-4,4 -4,-128 172.5,-128 172.5,4 -4,4"/>
<g id="clust2" class="cluster">
<title>cluster_associated</title>
</g>
<!-- organization -->
<g id="node1" class="node">
<title>organization</title>
<g id="a_node1"><a xlink:href="../classes/itsVocabulary__organization.md" xlink:title="&lt;TABLE&gt;">
<polygon fill="lightgray" stroke="none" points="11.5,-25.88 11.5,-42.12 79.5,-42.12 79.5,-25.88 11.5,-25.88"/>
<text xml:space="preserve" text-anchor="start" x="12.5" y="-29.73" font-family="Arial" font-size="12.00">organization</text>
<polygon fill="none" stroke="black" points="10.5,-24.88 10.5,-43.12 80.5,-43.12 80.5,-24.88 10.5,-24.88"/>
</a>
</g>
</g>
<!-- immaterialEntity -->
<g id="node2" class="node">
<title>immaterialEntity</title>
<g id="a_node2"><a xlink:href="../immaterial entity/" xlink:title="&lt;TABLE&gt;" target="_top">
<polygon fill="lightgray" stroke="none" points="1,-97.88 1,-114.12 90,-114.12 90,-97.88 1,-97.88"/>
<text xml:space="preserve" text-anchor="start" x="2" y="-101.72" font-family="Arial" font-size="12.00">immaterial entity</text>
<polygon fill="none" stroke="black" points="0,-96.88 0,-115.12 91,-115.12 91,-96.88 0,-96.88"/>
</a>
</g>
</g>
<!-- organization&#45;&gt;immaterialEntity -->
<g id="edge1" class="edge">
<title>organization&#45;&gt;immaterialEntity</title>
<path fill="none" stroke="black" d="M45.5,-51.79C45.5,-59.25 45.5,-68.24 45.5,-76.69"/>
<polygon fill="none" stroke="black" points="42,-76.54 45.5,-86.54 49,-76.54 42,-76.54"/>
</g>
<!-- Invis -->
</g>
</svg>
