<?xml version="1.0" encoding="UTF-8" standalone="no"?>
<!DOCTYPE svg PUBLIC "-//W3C//DTD SVG 1.1//EN"
 "http://www.w3.org/Graphics/SVG/1.1/DTD/svg11.dtd">
<!-- Generated by graphviz version 14.1.3 (20260303.0454)
 -->
<!-- Pages: 1 -->
<svg width="268pt" height="377pt"
 viewBox="0.00 0.00 268.00 377.00" xmlns="http://www.w3.org/2000/svg" xmlns:xlink="http://www.w3.org/1999/xlink">
<g id="graph0" class="graph" transform="scale(1 1) rotate(0) translate(4 373)">
<polygon fill="white" stroke="none" points="-4,4 -4,-373 263.72,-373 263.72,4 -4,4"/>
<g id="clust2" class="cluster">
<title>cluster_associated</title>
</g>
<!-- physical view -->
<g id="node1" class="node">
<title>physical view</title>
<polygon fill="lightgray" stroke="none" points="139,-269.88 139,-286.12 213,-286.12 213,-269.88 139,-269.88"/>
<text xml:space="preserve" text-anchor="start" x="140" y="-273.88" font-family="Arial" font-size="12.00">physical view</text>
<polygon fill="none" stroke="black" points="138,-268.88 138,-287.12 214,-287.12 214,-268.88 138,-268.88"/>
</g>
<!-- architectureView -->
<g id="node2" class="node">
<title>architectureView</title>
<g id="a_node2"><a xlink:href="../terms/architecture view/" xlink:title="&lt;TABLE&gt;" target="_top">
<polygon fill="lightgray" stroke="none" points="130,-342.88 130,-359.12 222,-359.12 222,-342.88 130,-342.88"/>
<text xml:space="preserve" text-anchor="start" x="131" y="-346.88" font-family="Arial" font-size="12.00">architecture view</text>
<polygon fill="none" stroke="black" points="129,-341.88 129,-360.12 223,-360.12 223,-341.88 129,-341.88"/>
</a>
</g>
</g>
<!-- physical view&#45;&gt;architectureView -->
<g id="edge1" class="edge">
<title>physical view&#45;&gt;architectureView</title>
<path fill="none" stroke="black" d="M176,-295.71C176,-303.47 176,-312.92 176,-321.74"/>
<polygon fill="none" stroke="black" points="172.5,-321.66 176,-331.66 179.5,-321.66 172.5,-321.66"/>
</g>
<!-- Invis -->
<!-- physical view&#45;&gt;Invis -->
<!-- functionalObject -->
<g id="node4" class="node">
<title>functionalObject</title>
<g id="a_node4"><a xlink:href="../terms/functional object/" xlink:title="&lt;TABLE&gt;" target="_top">
<polygon fill="lightgray" stroke="none" points="24.5,-184.38 24.5,-200.62 113.5,-200.62 113.5,-184.38 24.5,-184.38"/>
<text xml:space="preserve" text-anchor="start" x="25.5" y="-188.38" font-family="Arial" font-size="12.00">functional object</text>
<polygon fill="none" stroke="black" points="23.5,-183.38 23.5,-201.62 114.5,-201.62 114.5,-183.38 23.5,-183.38"/>
</a>
</g>
</g>
<!-- physical view&#45;&gt;functionalObject -->
<g id="edge8" class="edge">
<title>physical view&#45;&gt;functionalObject</title>
<path fill="none" stroke="black" d="M138.02,-261.56C136.66,-261.03 135.32,-260.51 134,-260 112.36,-251.65 101.13,-258.68 85,-242 79.51,-236.33 75.91,-228.74 73.54,-221.25"/>
<polygon fill="black" stroke="black" points="76.98,-220.56 71.17,-211.7 70.18,-222.24 76.98,-220.56"/>
<text xml:space="preserve" text-anchor="middle" x="115" y="-231.55" font-family="Arial" font-size="11.00"> aggregates </text>
</g>
<!-- informationTransfer -->
<g id="node5" class="node">
<title>informationTransfer</title>
<g id="a_node5"><a xlink:href="../terms/information transfer/" xlink:title="&lt;TABLE&gt;" target="_top">
<polygon fill="lightgray" stroke="none" points="17,-98.88 17,-115.12 121,-115.12 121,-98.88 17,-98.88"/>
<text xml:space="preserve" text-anchor="start" x="18" y="-102.88" font-family="Arial" font-size="12.00">information transfer</text>
<polygon fill="none" stroke="black" points="16,-97.88 16,-116.12 122,-116.12 122,-97.88 16,-97.88"/>
</a>
</g>
</g>
<!-- physical view&#45;&gt;informationTransfer -->
<g id="edge7" class="edge">
<title>physical view&#45;&gt;informationTransfer</title>
<path fill="none" stroke="black" d="M168.8,-260.04C159.62,-239.18 142.71,-203.04 124,-174.5 114.64,-160.22 102.72,-145.48 92.36,-133.51"/>
<polygon fill="black" stroke="black" points="95.06,-131.28 85.82,-126.09 89.81,-135.91 95.06,-131.28"/>
<text xml:space="preserve" text-anchor="middle" x="174.35" y="-188.8" font-family="Arial" font-size="11.00"> aggregates </text>
</g>
<!-- physicalObject -->
<g id="node6" class="node">
<title>physicalObject</title>
<g id="a_node6"><a xlink:href="../terms/physical object/" xlink:title="&lt;TABLE&gt;" target="_top">
<polygon fill="lightgray" stroke="none" points="34.25,-25.88 34.25,-42.12 115.75,-42.12 115.75,-25.88 34.25,-25.88"/>
<text xml:space="preserve" text-anchor="start" x="35.25" y="-29.88" font-family="Arial" font-size="12.00">physical object</text>
<polygon fill="none" stroke="black" points="33.25,-24.88 33.25,-43.12 116.75,-43.12 116.75,-24.88 33.25,-24.88"/>
</a>
</g>
</g>
<!-- physical view&#45;&gt;physicalObject -->
<g id="edge6" class="edge">
<title>physical view&#45;&gt;physicalObject</title>
<path fill="none" stroke="black" d="M188.25,-260.09C201.52,-239.58 219.36,-204.09 208,-174.5 188.95,-124.89 142.35,-83.14 109.71,-58.6"/>
<polygon fill="black" stroke="black" points="111.85,-55.82 101.71,-52.73 107.71,-61.47 111.85,-55.82"/>
<text xml:space="preserve" text-anchor="middle" x="229.72" y="-146.05" font-family="Arial" font-size="11.00"> aggregates </text>
</g>
<!-- Invis&#45;&gt;functionalObject -->
<!-- functionalObject&#45;&gt;informationTransfer -->
<!-- informationTransfer&#45;&gt;physicalObject -->
</g>
</svg>
