<?xml version="1.0" encoding="UTF-8" standalone="no"?>
<!DOCTYPE svg PUBLIC "-//W3C//DTD SVG 1.1//EN"
 "http://www.w3.org/Graphics/SVG/1.1/DTD/svg11.dtd">
<!-- Generated by graphviz version 14.1.3 (20260303.0454)
 -->
<!-- Pages: 1 -->
<svg width="248pt" height="132pt"
 viewBox="0.00 0.00 248.00 132.00" xmlns="http://www.w3.org/2000/svg" xmlns:xlink="http://www.w3.org/1999/xlink">
<g id="graph0" class="graph" transform="scale(1 1) rotate(0) translate(4 128)">
<polygon fill="white" stroke="none" points="-4,4 -4,-128 243.5,-128 243.5,4 -4,4"/>
<g id="clust2" class="cluster">
<title>cluster_associated</title>
</g>
<!-- shuttle service -->
<g id="node1" class="node">
<title>shuttle service</title>
<polygon fill="lightgray" stroke="none" points="1,-34 1,-50.25 150,-50.25 150,-34 1,-34"/>
<text xml:space="preserve" text-anchor="start" x="37.25" y="-38" font-family="Arial" font-size="12.00">shuttle service</text>
<text xml:space="preserve" text-anchor="start" x="2" y="-21.75" font-family="Arial" font-size="12.00">transport item = passengers</text>
<polygon fill="none" stroke="black" points="0,-16.75 0,-51.25 151,-51.25 151,-16.75 0,-16.75"/>
</g>
<!-- sharedTransportService -->
<g id="node2" class="node">
<title>sharedTransportService</title>
<g id="a_node2"><a xlink:href="../terms/shared transport service/" xlink:title="&lt;TABLE&gt;" target="_top">
<polygon fill="lightgray" stroke="none" points="10.75,-97.88 10.75,-114.12 140.25,-114.12 140.25,-97.88 10.75,-97.88"/>
<text xml:space="preserve" text-anchor="start" x="11.75" y="-101.88" font-family="Arial" font-size="12.00">shared transport service</text>
<polygon fill="none" stroke="black" points="9.75,-96.88 9.75,-115.12 141.25,-115.12 141.25,-96.88 9.75,-96.88"/>
</a>
</g>
</g>
<!-- shuttle service&#45;&gt;sharedTransportService -->
<g id="edge1" class="edge">
<title>shuttle service&#45;&gt;sharedTransportService</title>
<path fill="none" stroke="black" d="M75.5,-51.79C75.5,-59.25 75.5,-68.24 75.5,-76.69"/>
<polygon fill="none" stroke="black" points="72,-76.54 75.5,-86.54 79,-76.54 72,-76.54"/>
</g>
<!-- Invis -->
</g>
</svg>
