<?xml version="1.0" encoding="UTF-8" standalone="no"?>
<!DOCTYPE svg PUBLIC "-//W3C//DTD SVG 1.1//EN"
 "http://www.w3.org/Graphics/SVG/1.1/DTD/svg11.dtd">
<!-- Generated by graphviz version 14.1.3 (20260303.0454)
 -->
<!-- Pages: 1 -->
<svg width="218pt" height="162pt"
 viewBox="0.00 0.00 218.00 162.00" xmlns="http://www.w3.org/2000/svg" xmlns:xlink="http://www.w3.org/1999/xlink">
<g id="graph0" class="graph" transform="scale(1 1) rotate(0) translate(4 157.5)">
<polygon fill="white" stroke="none" points="-4,4 -4,-157.5 214.25,-157.5 214.25,4 -4,4"/>
<g id="clust2" class="cluster">
<title>cluster_associated</title>
</g>
<!-- spatial reference -->
<g id="node1" class="node">
<title>spatial reference</title>
<polygon fill="lightgray" stroke="none" points="1,-111.38 1,-127.62 91.5,-127.62 91.5,-111.38 1,-111.38"/>
<text xml:space="preserve" text-anchor="start" x="2" y="-115.38" font-family="Arial" font-size="12.00">spatial reference</text>
<polygon fill="none" stroke="black" points="0,-110.38 0,-128.62 92.5,-128.62 92.5,-110.38 0,-110.38"/>
</g>
<!-- Invis -->
<!-- spatial reference&#45;&gt;Invis -->
<!-- spatialLocation -->
<g id="node3" class="node">
<title>spatialLocation</title>
<g id="a_node3"><a xlink:href="../terms/spatial location/" xlink:title="&lt;TABLE&gt;" target="_top">
<polygon fill="lightgray" stroke="none" points="111.12,-25.88 111.12,-42.12 193.38,-42.12 193.38,-25.88 111.12,-25.88"/>
<text xml:space="preserve" text-anchor="start" x="112.12" y="-29.88" font-family="Arial" font-size="12.00">spatial location</text>
<polygon fill="none" stroke="black" points="110.12,-24.88 110.12,-43.12 194.38,-43.12 194.38,-24.88 110.12,-24.88"/>
</a>
</g>
</g>
<!-- spatial reference&#45;&gt;spatialLocation -->
<g id="edge3" class="edge">
<title>spatial reference&#45;&gt;spatialLocation</title>
<path fill="none" stroke="black" d="M52.12,-101.88C56.46,-91.58 63.28,-78.7 72.75,-70 80.66,-62.73 90.33,-56.8 100.16,-52.02"/>
<polygon fill="black" stroke="black" points="101.31,-55.34 109.02,-48.07 98.46,-48.95 101.31,-55.34"/>
<text xml:space="preserve" text-anchor="middle" x="111" y="-73.05" font-family="Arial" font-size="11.00"> specification of </text>
</g>
<!-- Invis&#45;&gt;spatialLocation -->
</g>
</svg>
