<?xml version="1.0" encoding="UTF-8" standalone="no"?>
<!DOCTYPE svg PUBLIC "-//W3C//DTD SVG 1.1//EN"
 "http://www.w3.org/Graphics/SVG/1.1/DTD/svg11.dtd">
<!-- Generated by graphviz version 14.1.3 (20260303.0454)
 -->
<!-- Pages: 1 -->
<svg width="238pt" height="377pt"
 viewBox="0.00 0.00 238.00 377.00" xmlns="http://www.w3.org/2000/svg" xmlns:xlink="http://www.w3.org/1999/xlink">
<g id="graph0" class="graph" transform="scale(1 1) rotate(0) translate(4 373)">
<polygon fill="white" stroke="none" points="-4,4 -4,-373 233.88,-373 233.88,4 -4,4"/>
<g id="clust2" class="cluster">
<title>cluster_associated</title>
</g>
<!-- transport service -->
<g id="node1" class="node">
<title>transport service</title>
<polygon fill="lightgray" stroke="none" points="139.12,-269.88 139.12,-286.12 228.88,-286.12 228.88,-269.88 139.12,-269.88"/>
<text xml:space="preserve" text-anchor="start" x="140.12" y="-273.88" font-family="Arial" font-size="12.00">transport service</text>
<polygon fill="none" stroke="black" points="138.12,-268.88 138.12,-287.12 229.88,-287.12 229.88,-268.88 138.12,-268.88"/>
</g>
<!-- service -->
<g id="node2" class="node">
<title>service</title>
<g id="a_node2"><a xlink:href="../terms/service/" xlink:title="&lt;TABLE&gt;" target="_top">
<polygon fill="lightgray" stroke="none" points="163.88,-342.88 163.88,-359.12 204.12,-359.12 204.12,-342.88 163.88,-342.88"/>
<text xml:space="preserve" text-anchor="start" x="164.88" y="-346.88" font-family="Arial" font-size="12.00">service</text>
<polygon fill="none" stroke="black" points="162.88,-341.88 162.88,-360.12 205.12,-360.12 205.12,-341.88 162.88,-341.88"/>
</a>
</g>
</g>
<!-- transport service&#45;&gt;service -->
<g id="edge1" class="edge">
<title>transport service&#45;&gt;service</title>
<path fill="none" stroke="black" d="M184,-295.71C184,-303.47 184,-312.92 184,-321.74"/>
<polygon fill="none" stroke="black" points="180.5,-321.66 184,-331.66 187.5,-321.66 180.5,-321.66"/>
</g>
<!-- Invis -->
<!-- transport service&#45;&gt;Invis -->
<!-- materialEntity -->
<g id="node4" class="node">
<title>materialEntity</title>
<g id="a_node4"><a xlink:href="../terms/material entity/" xlink:title="&lt;TABLE&gt;" target="_top">
<polygon fill="lightgray" stroke="none" points="35.88,-184.38 35.88,-200.62 112.12,-200.62 112.12,-184.38 35.88,-184.38"/>
<text xml:space="preserve" text-anchor="start" x="36.88" y="-188.38" font-family="Arial" font-size="12.00">material entity</text>
<polygon fill="none" stroke="black" points="34.88,-183.38 34.88,-201.62 113.12,-201.62 113.12,-183.38 34.88,-183.38"/>
</a>
</g>
</g>
<!-- transport service&#45;&gt;materialEntity -->
<g id="edge6" class="edge">
<title>transport service&#45;&gt;materialEntity</title>
<path fill="none" stroke="black" d="M138.2,-260.99C113.56,-252.29 88,-243.08 87,-242 81.81,-236.36 78.66,-228.87 76.75,-221.47"/>
<polygon fill="black" stroke="black" points="80.19,-220.87 74.93,-211.67 73.31,-222.14 80.19,-220.87"/>
<text xml:space="preserve" text-anchor="middle" x="114" y="-231.55" font-family="Arial" font-size="11.00"> transports </text>
</g>
<!-- transportUser -->
<g id="node5" class="node">
<title>transportUser</title>
<g id="a_node5"><a xlink:href="../terms/transport user/" xlink:title="&lt;TABLE&gt;" target="_top">
<polygon fill="lightgray" stroke="none" points="36.62,-98.88 36.62,-115.12 111.38,-115.12 111.38,-98.88 36.62,-98.88"/>
<text xml:space="preserve" text-anchor="start" x="37.62" y="-102.88" font-family="Arial" font-size="12.00">transport user</text>
<polygon fill="none" stroke="black" points="35.62,-97.88 35.62,-116.12 112.38,-116.12 112.38,-97.88 35.62,-97.88"/>
</a>
</g>
</g>
<!-- transport service&#45;&gt;transportUser -->
<g id="edge8" class="edge">
<title>transport service&#45;&gt;transportUser</title>
<path fill="none" stroke="black" d="M174.32,-260.05C162.45,-239.51 141.51,-203.98 122,-174.5 113.01,-160.91 102.47,-146.19 93.56,-134.06"/>
<polygon fill="black" stroke="black" points="96.48,-132.13 87.72,-126.17 90.86,-136.29 96.48,-132.13"/>
<text xml:space="preserve" text-anchor="middle" x="153.94" y="-188.8" font-family="Arial" font-size="11.00"> for </text>
</g>
<!-- transportUserNeed -->
<g id="node6" class="node">
<title>transportUserNeed</title>
<g id="a_node6"><a xlink:href="../terms/transport user need/" xlink:title="&lt;TABLE&gt;" target="_top">
<polygon fill="lightgray" stroke="none" points="16.62,-25.88 16.62,-42.12 121.38,-42.12 121.38,-25.88 16.62,-25.88"/>
<text xml:space="preserve" text-anchor="start" x="17.62" y="-29.88" font-family="Arial" font-size="12.00">transport user need</text>
<polygon fill="none" stroke="black" points="15.62,-24.88 15.62,-43.12 122.38,-43.12 122.38,-24.88 15.62,-24.88"/>
</a>
</g>
</g>
<!-- transport service&#45;&gt;transportUserNeed -->
<g id="edge7" class="edge">
<title>transport service&#45;&gt;transportUserNeed</title>
<path fill="none" stroke="black" d="M182.92,-260.26C181.2,-239.62 176.97,-203.69 167,-174.5 153.06,-133.66 146.42,-123.87 121,-89 113.56,-78.8 104.29,-68.58 95.65,-59.81"/>
<polygon fill="black" stroke="black" points="98.29,-57.5 88.72,-52.97 93.38,-62.48 98.29,-57.5"/>
<text xml:space="preserve" text-anchor="middle" x="175.42" y="-146.05" font-family="Arial" font-size="11.00"> fulfils </text>
</g>
<!-- Invis&#45;&gt;materialEntity -->
<!-- materialEntity&#45;&gt;transportUser -->
<!-- transportUser&#45;&gt;transportUserNeed -->
</g>
</svg>
