<?xml version="1.0" encoding="UTF-8" standalone="no"?>
<!DOCTYPE svg PUBLIC "-//W3C//DTD SVG 1.1//EN"
 "http://www.w3.org/Graphics/SVG/1.1/DTD/svg11.dtd">
<!-- Generated by graphviz version 14.0.2 (20251019.1705)
 -->
<!-- Pages: 1 -->
<svg width="238pt" height="232pt"
 viewBox="0.00 0.00 238.00 232.00" xmlns="http://www.w3.org/2000/svg" xmlns:xlink="http://www.w3.org/1999/xlink">
<g id="graph0" class="graph" transform="scale(1 1) rotate(0) translate(4 228)">
<polygon fill="white" stroke="none" points="-4,4 -4,-228 234.38,-228 234.38,4 -4,4"/>
<g id="clust2" class="cluster">
<title>cluster_associated</title>
</g>
<!-- ADS&#45;equipped vehicle -->
<g id="node1" class="node">
<title>ADS&#45;equipped vehicle</title>
<g id="a_node1"><a xlink:href="../classes/itsVocabulary__ADS-equipped vehicle.md" xlink:title="&lt;TABLE&gt;">
<polygon fill="lightgray" stroke="none" points="106.62,-124.88 106.62,-141.12 229.38,-141.12 229.38,-124.88 106.62,-124.88"/>
<text xml:space="preserve" text-anchor="start" x="107.62" y="-128.72" font-family="Arial" font-size="12.00">ADS&#45;equipped vehicle</text>
<polygon fill="none" stroke="black" points="105.62,-123.88 105.62,-142.12 230.38,-142.12 230.38,-123.88 105.62,-123.88"/>
</a>
</g>
</g>
<!-- vehicle -->
<g id="node2" class="node">
<title>vehicle</title>
<g id="a_node2"><a xlink:href="../vehicle/" xlink:title="&lt;TABLE&gt;" target="_top">
<polygon fill="lightgray" stroke="none" points="147.88,-197.88 147.88,-214.12 188.12,-214.12 188.12,-197.88 147.88,-197.88"/>
<text xml:space="preserve" text-anchor="start" x="148.88" y="-201.72" font-family="Arial" font-size="12.00">vehicle</text>
<polygon fill="none" stroke="black" points="146.88,-196.88 146.88,-215.12 189.12,-215.12 189.12,-196.88 146.88,-196.88"/>
</a>
</g>
</g>
<!-- ADS&#45;equipped vehicle&#45;&gt;vehicle -->
<g id="edge1" class="edge">
<title>ADS&#45;equipped vehicle&#45;&gt;vehicle</title>
<path fill="none" stroke="black" d="M168,-150.71C168,-158.47 168,-167.92 168,-176.74"/>
<polygon fill="none" stroke="black" points="164.5,-176.66 168,-186.66 171.5,-176.66 164.5,-176.66"/>
</g>
<!-- Invis -->
<!-- ADS&#45;equipped vehicle&#45;&gt;Invis -->
<!-- ads -->
<g id="node4" class="node">
<title>ads</title>
<g id="a_node4"><a xlink:href="../ADS/" xlink:title="&lt;TABLE&gt;" target="_top">
<polygon fill="lightgray" stroke="none" points="29.25,-25.88 29.25,-42.12 56.75,-42.12 56.75,-25.88 29.25,-25.88"/>
<text xml:space="preserve" text-anchor="start" x="30.25" y="-29.73" font-family="Arial" font-size="12.00">ADS</text>
<polygon fill="none" stroke="black" points="28.25,-24.88 28.25,-43.12 57.75,-43.12 57.75,-24.88 28.25,-24.88"/>
</a>
</g>
</g>
<!-- ADS&#45;equipped vehicle&#45;&gt;ads -->
<g id="edge4" class="edge">
<title>ADS&#45;equipped vehicle&#45;&gt;ads</title>
<path fill="none" stroke="black" d="M146.23,-115.1C126.06,-99.46 95.88,-76.03 73.35,-58.55"/>
<polygon fill="black" stroke="black" points="75.77,-56 65.72,-52.63 71.47,-61.53 75.77,-56"/>
<text xml:space="preserve" text-anchor="middle" x="147.75" y="-86.55" font-family="Arial" font-size="11.00"> comprises </text>
<text xml:space="preserve" text-anchor="middle" x="147.75" y="-73.05" font-family="Arial" font-size="11.00"> «some» &#160;</text>
</g>
<!-- Invis&#45;&gt;ads -->
</g>
</svg>
