<?xml version="1.0" encoding="UTF-8" standalone="no"?>
<!DOCTYPE svg PUBLIC "-//W3C//DTD SVG 1.1//EN"
 "http://www.w3.org/Graphics/SVG/1.1/DTD/svg11.dtd">
<!-- Generated by graphviz version 14.0.2 (20251019.1705)
 -->
<!-- Pages: 1 -->
<svg width="254pt" height="347pt"
 viewBox="0.00 0.00 254.00 347.00" xmlns="http://www.w3.org/2000/svg" xmlns:xlink="http://www.w3.org/1999/xlink">
<g id="graph0" class="graph" transform="scale(1 1) rotate(0) translate(4 343)">
<polygon fill="white" stroke="none" points="-4,4 -4,-343 250.12,-343 250.12,4 -4,4"/>
<g id="clust2" class="cluster">
<title>cluster_associated</title>
</g>
<!-- architecture viewpoint -->
<g id="node1" class="node">
<title>architecture viewpoint</title>
<g id="a_node1"><a xlink:href="../classes/itsVocabulary__architecture viewpoint.md" xlink:title="&lt;TABLE&gt;">
<polygon fill="lightgray" stroke="none" points="126.88,-296.88 126.88,-313.12 245.12,-313.12 245.12,-296.88 126.88,-296.88"/>
<text xml:space="preserve" text-anchor="start" x="127.88" y="-300.73" font-family="Arial" font-size="12.00">architecture viewpoint</text>
<polygon fill="none" stroke="black" points="125.88,-295.88 125.88,-314.12 246.12,-314.12 246.12,-295.88 125.88,-295.88"/>
</a>
</g>
</g>
<!-- Invis -->
<!-- architecture viewpoint&#45;&gt;Invis -->
<!-- architectureView -->
<g id="node3" class="node">
<title>architectureView</title>
<g id="a_node3"><a xlink:href="../architecture view/" xlink:title="&lt;TABLE&gt;" target="_top">
<polygon fill="lightgray" stroke="none" points="17,-197.88 17,-214.12 109,-214.12 109,-197.88 17,-197.88"/>
<text xml:space="preserve" text-anchor="start" x="18" y="-201.72" font-family="Arial" font-size="12.00">architecture view</text>
<polygon fill="none" stroke="black" points="16,-196.88 16,-215.12 110,-215.12 110,-196.88 16,-196.88"/>
</a>
</g>
</g>
<!-- architecture viewpoint&#45;&gt;architectureView -->
<g id="edge7" class="edge">
<title>architecture viewpoint&#45;&gt;architectureView</title>
<path fill="none" stroke="black" d="M125.93,-287.7C108.39,-281.95 92.19,-275.34 85.75,-269 76.56,-259.95 71.05,-246.88 67.77,-235.07"/>
<polygon fill="black" stroke="black" points="71.18,-234.3 65.51,-225.36 64.36,-235.89 71.18,-234.3"/>
<text xml:space="preserve" text-anchor="middle" x="109.38" y="-258.55" font-family="Arial" font-size="11.00"> governs </text>
<text xml:space="preserve" text-anchor="middle" x="109.38" y="-245.05" font-family="Arial" font-size="11.00"> «some» &#160;</text>
</g>
<!-- concern -->
<g id="node4" class="node">
<title>concern</title>
<g id="a_node4"><a xlink:href="../concern/" xlink:title="&lt;TABLE&gt;" target="_top">
<polygon fill="lightgray" stroke="none" points="56.62,-98.88 56.62,-115.12 101.38,-115.12 101.38,-98.88 56.62,-98.88"/>
<text xml:space="preserve" text-anchor="start" x="57.62" y="-102.72" font-family="Arial" font-size="12.00">concern</text>
<polygon fill="none" stroke="black" points="55.62,-97.88 55.62,-116.12 102.38,-116.12 102.38,-97.88 55.62,-97.88"/>
</a>
</g>
</g>
<!-- architecture viewpoint&#45;&gt;concern -->
<g id="edge6" class="edge">
<title>architecture viewpoint&#45;&gt;concern</title>
<path fill="none" stroke="black" d="M176.88,-287.29C158.33,-253.31 116.07,-175.91 93.63,-134.8"/>
<polygon fill="black" stroke="black" points="96.84,-133.38 88.98,-126.28 90.7,-136.73 96.84,-133.38"/>
<text xml:space="preserve" text-anchor="middle" x="165" y="-209.05" font-family="Arial" font-size="11.00"> frames </text>
<text xml:space="preserve" text-anchor="middle" x="165" y="-195.55" font-family="Arial" font-size="11.00"> «some» &#160;</text>
</g>
<!-- modelKind -->
<g id="node5" class="node">
<title>modelKind</title>
<g id="a_node5"><a xlink:href="../model kind/" xlink:title="&lt;TABLE&gt;" target="_top">
<polygon fill="lightgray" stroke="none" points="48.75,-25.88 48.75,-42.12 109.25,-42.12 109.25,-25.88 48.75,-25.88"/>
<text xml:space="preserve" text-anchor="start" x="49.75" y="-29.73" font-family="Arial" font-size="12.00">model kind</text>
<polygon fill="none" stroke="black" points="47.75,-24.88 47.75,-43.12 110.25,-43.12 110.25,-24.88 47.75,-24.88"/>
</a>
</g>
</g>
<!-- architecture viewpoint&#45;&gt;modelKind -->
<g id="edge5" class="edge">
<title>architecture viewpoint&#45;&gt;modelKind</title>
<path fill="none" stroke="black" d="M190.8,-287.36C196.59,-264.37 204.24,-221.9 193,-188 175.8,-136.14 133.44,-87.59 105.48,-59.62"/>
<polygon fill="black" stroke="black" points="107.99,-57.17 98.39,-52.68 103.09,-62.17 107.99,-57.17"/>
<text xml:space="preserve" text-anchor="middle" x="215.83" y="-159.55" font-family="Arial" font-size="11.00"> aggregates </text>
<text xml:space="preserve" text-anchor="middle" x="215.83" y="-146.05" font-family="Arial" font-size="11.00"> «some» &#160;</text>
</g>
<!-- Invis&#45;&gt;architectureView -->
<!-- architectureView&#45;&gt;concern -->
<!-- concern&#45;&gt;modelKind -->
</g>
</svg>
