<?xml version="1.0" encoding="UTF-8" standalone="no"?>
<!DOCTYPE svg PUBLIC "-//W3C//DTD SVG 1.1//EN"
 "http://www.w3.org/Graphics/SVG/1.1/DTD/svg11.dtd">
<!-- Generated by graphviz version 14.0.2 (20251019.1705)
 -->
<!-- Pages: 1 -->
<svg width="184pt" height="132pt"
 viewBox="0.00 0.00 184.00 132.00" xmlns="http://www.w3.org/2000/svg" xmlns:xlink="http://www.w3.org/1999/xlink">
<g id="graph0" class="graph" transform="scale(1 1) rotate(0) translate(4 128)">
<polygon fill="white" stroke="none" points="-4,4 -4,-128 179.62,-128 179.62,4 -4,4"/>
<g id="clust2" class="cluster">
<title>cluster_associated</title>
</g>
<!-- biological entity -->
<g id="node1" class="node">
<title>biological entity</title>
<g id="a_node1"><a xlink:href="../classes/itsVocabulary__biological entity.md" xlink:title="&lt;TABLE&gt;">
<polygon fill="lightgray" stroke="none" points="1,-25.88 1,-42.12 86.25,-42.12 86.25,-25.88 1,-25.88"/>
<text xml:space="preserve" text-anchor="start" x="2" y="-29.73" font-family="Arial" font-size="12.00">biological entity</text>
<polygon fill="none" stroke="black" points="0,-24.88 0,-43.12 87.25,-43.12 87.25,-24.88 0,-24.88"/>
</a>
</g>
</g>
<!-- materialEntity -->
<g id="node2" class="node">
<title>materialEntity</title>
<g id="a_node2"><a xlink:href="../material entity/" xlink:title="&lt;TABLE&gt;" target="_top">
<polygon fill="lightgray" stroke="none" points="5.5,-97.88 5.5,-114.12 81.75,-114.12 81.75,-97.88 5.5,-97.88"/>
<text xml:space="preserve" text-anchor="start" x="6.5" y="-101.72" font-family="Arial" font-size="12.00">material entity</text>
<polygon fill="none" stroke="black" points="4.5,-96.88 4.5,-115.12 82.75,-115.12 82.75,-96.88 4.5,-96.88"/>
</a>
</g>
</g>
<!-- biological entity&#45;&gt;materialEntity -->
<g id="edge1" class="edge">
<title>biological entity&#45;&gt;materialEntity</title>
<path fill="none" stroke="black" d="M43.62,-51.79C43.62,-59.25 43.62,-68.24 43.62,-76.69"/>
<polygon fill="none" stroke="black" points="40.13,-76.54 43.63,-86.54 47.13,-76.54 40.13,-76.54"/>
</g>
<!-- Invis -->
</g>
</svg>
