<?xml version="1.0" encoding="UTF-8" standalone="no"?>
<!DOCTYPE svg PUBLIC "-//W3C//DTD SVG 1.1//EN"
 "http://www.w3.org/Graphics/SVG/1.1/DTD/svg11.dtd">
<!-- Generated by graphviz version 14.0.2 (20251019.1705)
 -->
<!-- Pages: 1 -->
<svg width="167pt" height="132pt"
 viewBox="0.00 0.00 167.00 132.00" xmlns="http://www.w3.org/2000/svg" xmlns:xlink="http://www.w3.org/1999/xlink">
<g id="graph0" class="graph" transform="scale(1 1) rotate(0) translate(4 128)">
<polygon fill="white" stroke="none" points="-4,4 -4,-128 162.62,-128 162.62,4 -4,4"/>
<g id="clust2" class="cluster">
<title>cluster_associated</title>
</g>
<!-- bridge -->
<g id="node1" class="node">
<title>bridge</title>
<g id="a_node1"><a xlink:href="../classes/itsVocabulary__bridge.md" xlink:title="&lt;TABLE&gt;">
<polygon fill="lightgray" stroke="none" points="25.75,-25.88 25.75,-42.12 61.5,-42.12 61.5,-25.88 25.75,-25.88"/>
<text xml:space="preserve" text-anchor="start" x="26.75" y="-29.73" font-family="Arial" font-size="12.00">bridge</text>
<polygon fill="none" stroke="black" points="24.75,-24.88 24.75,-43.12 62.5,-43.12 62.5,-24.88 24.75,-24.88"/>
</a>
</g>
</g>
<!-- transportFacility -->
<g id="node2" class="node">
<title>transportFacility</title>
<g id="a_node2"><a xlink:href="../transport facility/" xlink:title="&lt;TABLE&gt;" target="_top">
<polygon fill="lightgray" stroke="none" points="1,-97.88 1,-114.12 86.25,-114.12 86.25,-97.88 1,-97.88"/>
<text xml:space="preserve" text-anchor="start" x="2" y="-101.72" font-family="Arial" font-size="12.00">transport facility</text>
<polygon fill="none" stroke="black" points="0,-96.88 0,-115.12 87.25,-115.12 87.25,-96.88 0,-96.88"/>
</a>
</g>
</g>
<!-- bridge&#45;&gt;transportFacility -->
<g id="edge1" class="edge">
<title>bridge&#45;&gt;transportFacility</title>
<path fill="none" stroke="black" d="M43.62,-51.79C43.62,-59.25 43.62,-68.24 43.62,-76.69"/>
<polygon fill="none" stroke="black" points="40.13,-76.54 43.63,-86.54 47.13,-76.54 40.13,-76.54"/>
</g>
<!-- Invis -->
</g>
</svg>
