<?xml version="1.0" encoding="UTF-8" standalone="no"?>
<!DOCTYPE svg PUBLIC "-//W3C//DTD SVG 1.1//EN"
 "http://www.w3.org/Graphics/SVG/1.1/DTD/svg11.dtd">
<!-- Generated by graphviz version 14.0.2 (20251019.1705)
 -->
<!-- Pages: 1 -->
<svg width="172pt" height="132pt"
 viewBox="0.00 0.00 172.00 132.00" xmlns="http://www.w3.org/2000/svg" xmlns:xlink="http://www.w3.org/1999/xlink">
<g id="graph0" class="graph" transform="scale(1 1) rotate(0) translate(4 128)">
<polygon fill="white" stroke="none" points="-4,4 -4,-128 168.25,-128 168.25,4 -4,4"/>
<g id="clust2" class="cluster">
<title>cluster_associated</title>
</g>
<!-- campus -->
<g id="node1" class="node">
<title>campus</title>
<g id="a_node1"><a xlink:href="../classes/itsVocabulary__campus.md" xlink:title="&lt;TABLE&gt;">
<polygon fill="lightgray" stroke="none" points="27.25,-25.88 27.25,-42.12 71.25,-42.12 71.25,-25.88 27.25,-25.88"/>
<text xml:space="preserve" text-anchor="start" x="28.25" y="-29.73" font-family="Arial" font-size="12.00">campus</text>
<polygon fill="none" stroke="black" points="26.25,-24.88 26.25,-43.12 72.25,-43.12 72.25,-24.88 26.25,-24.88"/>
</a>
</g>
</g>
<!-- jurisdictionalArea -->
<g id="node2" class="node">
<title>jurisdictionalArea</title>
<g id="a_node2"><a xlink:href="../jurisdictional area/" xlink:title="&lt;TABLE&gt;" target="_top">
<polygon fill="lightgray" stroke="none" points="1,-97.88 1,-114.12 97.5,-114.12 97.5,-97.88 1,-97.88"/>
<text xml:space="preserve" text-anchor="start" x="2" y="-101.72" font-family="Arial" font-size="12.00">jurisdictional area</text>
<polygon fill="none" stroke="black" points="0,-96.88 0,-115.12 98.5,-115.12 98.5,-96.88 0,-96.88"/>
</a>
</g>
</g>
<!-- campus&#45;&gt;jurisdictionalArea -->
<g id="edge1" class="edge">
<title>campus&#45;&gt;jurisdictionalArea</title>
<path fill="none" stroke="black" d="M49.25,-51.79C49.25,-59.25 49.25,-68.24 49.25,-76.69"/>
<polygon fill="none" stroke="black" points="45.75,-76.54 49.25,-86.54 52.75,-76.54 45.75,-76.54"/>
</g>
<!-- Invis -->
</g>
</svg>
