<?xml version="1.0" encoding="UTF-8" standalone="no"?>
<!DOCTYPE svg PUBLIC "-//W3C//DTD SVG 1.1//EN"
 "http://www.w3.org/Graphics/SVG/1.1/DTD/svg11.dtd">
<!-- Generated by graphviz version 14.0.2 (20251019.1705)
 -->
<!-- Pages: 1 -->
<svg width="179pt" height="132pt"
 viewBox="0.00 0.00 179.00 132.00" xmlns="http://www.w3.org/2000/svg" xmlns:xlink="http://www.w3.org/1999/xlink">
<g id="graph0" class="graph" transform="scale(1 1) rotate(0) translate(4 128)">
<polygon fill="white" stroke="none" points="-4,4 -4,-128 174.5,-128 174.5,4 -4,4"/>
<g id="clust2" class="cluster">
<title>cluster_associated</title>
</g>
<!-- central system -->
<g id="node1" class="node">
<title>central system</title>
<g id="a_node1"><a xlink:href="../classes/itsVocabulary__central system.md" xlink:title="&lt;TABLE&gt;">
<polygon fill="lightgray" stroke="none" points="3.25,-25.88 3.25,-42.12 81.75,-42.12 81.75,-25.88 3.25,-25.88"/>
<text xml:space="preserve" text-anchor="start" x="4.25" y="-29.73" font-family="Arial" font-size="12.00">central system</text>
<polygon fill="none" stroke="black" points="2.25,-24.88 2.25,-43.12 82.75,-43.12 82.75,-24.88 2.25,-24.88"/>
</a>
</g>
</g>
<!-- itsComponent -->
<g id="node2" class="node">
<title>itsComponent</title>
<g id="a_node2"><a xlink:href="../ITS component/" xlink:title="&lt;TABLE&gt;" target="_top">
<polygon fill="lightgray" stroke="none" points="1,-97.88 1,-114.12 84,-114.12 84,-97.88 1,-97.88"/>
<text xml:space="preserve" text-anchor="start" x="2" y="-101.72" font-family="Arial" font-size="12.00">ITS component</text>
<polygon fill="none" stroke="black" points="0,-96.88 0,-115.12 85,-115.12 85,-96.88 0,-96.88"/>
</a>
</g>
</g>
<!-- central system&#45;&gt;itsComponent -->
<g id="edge1" class="edge">
<title>central system&#45;&gt;itsComponent</title>
<path fill="none" stroke="black" d="M42.5,-51.79C42.5,-59.25 42.5,-68.24 42.5,-76.69"/>
<polygon fill="none" stroke="black" points="39,-76.54 42.5,-86.54 46,-76.54 39,-76.54"/>
</g>
<!-- Invis -->
</g>
</svg>
