<?xml version="1.0" encoding="UTF-8" standalone="no"?>
<!DOCTYPE svg PUBLIC "-//W3C//DTD SVG 1.1//EN"
 "http://www.w3.org/Graphics/SVG/1.1/DTD/svg11.dtd">
<!-- Generated by graphviz version 14.0.2 (20251019.1705)
 -->
<!-- Pages: 1 -->
<svg width="178pt" height="175pt"
 viewBox="0.00 0.00 178.00 175.00" xmlns="http://www.w3.org/2000/svg" xmlns:xlink="http://www.w3.org/1999/xlink">
<g id="graph0" class="graph" transform="scale(1 1) rotate(0) translate(4 171)">
<polygon fill="white" stroke="none" points="-4,4 -4,-171 173.75,-171 173.75,4 -4,4"/>
<g id="clust2" class="cluster">
<title>cluster_associated</title>
</g>
<!-- connected -->
<g id="node1" class="node">
<title>connected</title>
<g id="a_node1"><a xlink:href="../classes/itsVocabulary__connected.md" xlink:title="&lt;TABLE&gt;">
<polygon fill="lightgray" stroke="none" points="1,-124.88 1,-141.12 58.5,-141.12 58.5,-124.88 1,-124.88"/>
<text xml:space="preserve" text-anchor="start" x="2" y="-128.72" font-family="Arial" font-size="12.00">connected</text>
<polygon fill="none" stroke="black" points="0,-123.88 0,-142.12 59.5,-142.12 59.5,-123.88 0,-123.88"/>
</a>
</g>
</g>
<!-- Invis -->
<!-- connected&#45;&gt;Invis -->
<!-- materialEntity -->
<g id="node3" class="node">
<title>materialEntity</title>
<g id="a_node3"><a xlink:href="../material entity/" xlink:title="&lt;TABLE&gt;" target="_top">
<polygon fill="lightgray" stroke="none" points="76.62,-25.88 76.62,-42.12 152.88,-42.12 152.88,-25.88 76.62,-25.88"/>
<text xml:space="preserve" text-anchor="start" x="77.62" y="-29.73" font-family="Arial" font-size="12.00">material entity</text>
<polygon fill="none" stroke="black" points="75.62,-24.88 75.62,-43.12 153.88,-43.12 153.88,-24.88 75.62,-24.88"/>
</a>
</g>
</g>
<!-- connected&#45;&gt;materialEntity -->
<g id="edge3" class="edge">
<title>connected&#45;&gt;materialEntity</title>
<path fill="none" stroke="black" d="M26.29,-115.18C24.51,-101.74 24.33,-83.06 33.5,-70 41.15,-59.11 52.92,-51.58 65.15,-46.39"/>
<polygon fill="black" stroke="black" points="66.35,-49.68 74.51,-42.93 63.92,-43.12 66.35,-49.68"/>
<text xml:space="preserve" text-anchor="middle" x="73.62" y="-86.55" font-family="Arial" font-size="11.00"> characteristicOf </text>
<text xml:space="preserve" text-anchor="middle" x="73.62" y="-73.05" font-family="Arial" font-size="11.00"> «some» &#160;</text>
</g>
<!-- Invis&#45;&gt;materialEntity -->
</g>
</svg>
