<?xml version="1.0" encoding="UTF-8" standalone="no"?>
<!DOCTYPE svg PUBLIC "-//W3C//DTD SVG 1.1//EN"
 "http://www.w3.org/Graphics/SVG/1.1/DTD/svg11.dtd">
<!-- Generated by graphviz version 14.0.2 (20251019.1705)
 -->
<!-- Pages: 1 -->
<svg width="215pt" height="232pt"
 viewBox="0.00 0.00 215.00 232.00" xmlns="http://www.w3.org/2000/svg" xmlns:xlink="http://www.w3.org/1999/xlink">
<g id="graph0" class="graph" transform="scale(1 1) rotate(0) translate(4 228)">
<polygon fill="white" stroke="none" points="-4,4 -4,-228 211.38,-228 211.38,4 -4,4"/>
<g id="clust2" class="cluster">
<title>cluster_associated</title>
</g>
<!-- connected vehicle -->
<g id="node1" class="node">
<title>connected vehicle</title>
<g id="a_node1"><a xlink:href="../classes/itsVocabulary__connected vehicle.md" xlink:title="&lt;TABLE&gt;">
<polygon fill="lightgray" stroke="none" points="107.62,-124.88 107.62,-141.12 206.38,-141.12 206.38,-124.88 107.62,-124.88"/>
<text xml:space="preserve" text-anchor="start" x="108.62" y="-128.72" font-family="Arial" font-size="12.00">connected vehicle</text>
<polygon fill="none" stroke="black" points="106.62,-123.88 106.62,-142.12 207.38,-142.12 207.38,-123.88 106.62,-123.88"/>
</a>
</g>
</g>
<!-- vehicle -->
<g id="node2" class="node">
<title>vehicle</title>
<g id="a_node2"><a xlink:href="../vehicle/" xlink:title="&lt;TABLE&gt;" target="_top">
<polygon fill="lightgray" stroke="none" points="136.88,-197.88 136.88,-214.12 177.12,-214.12 177.12,-197.88 136.88,-197.88"/>
<text xml:space="preserve" text-anchor="start" x="137.88" y="-201.72" font-family="Arial" font-size="12.00">vehicle</text>
<polygon fill="none" stroke="black" points="135.88,-196.88 135.88,-215.12 178.12,-215.12 178.12,-196.88 135.88,-196.88"/>
</a>
</g>
</g>
<!-- connected vehicle&#45;&gt;vehicle -->
<g id="edge1" class="edge">
<title>connected vehicle&#45;&gt;vehicle</title>
<path fill="none" stroke="black" d="M157,-150.71C157,-158.47 157,-167.92 157,-176.74"/>
<polygon fill="none" stroke="black" points="153.5,-176.66 157,-186.66 160.5,-176.66 153.5,-176.66"/>
</g>
<!-- Invis -->
<!-- connected vehicle&#45;&gt;Invis -->
<!-- connected -->
<g id="node4" class="node">
<title>connected</title>
<g id="a_node4"><a xlink:href="../connected/" xlink:title="&lt;TABLE&gt;" target="_top">
<polygon fill="lightgray" stroke="none" points="17.25,-25.88 17.25,-42.12 74.75,-42.12 74.75,-25.88 17.25,-25.88"/>
<text xml:space="preserve" text-anchor="start" x="18.25" y="-29.73" font-family="Arial" font-size="12.00">connected</text>
<polygon fill="none" stroke="black" points="16.25,-24.88 16.25,-43.12 75.75,-43.12 75.75,-24.88 16.25,-24.88"/>
</a>
</g>
</g>
<!-- connected vehicle&#45;&gt;connected -->
<g id="edge4" class="edge">
<title>connected vehicle&#45;&gt;connected</title>
<path fill="none" stroke="black" d="M137.67,-115.1C120,-99.66 93.67,-76.66 73.76,-59.26"/>
<polygon fill="black" stroke="black" points="76.09,-56.64 66.25,-52.7 71.48,-61.91 76.09,-56.64"/>
<text xml:space="preserve" text-anchor="middle" x="138.33" y="-86.55" font-family="Arial" font-size="11.00"> is </text>
<text xml:space="preserve" text-anchor="middle" x="138.33" y="-73.05" font-family="Arial" font-size="11.00"> «some» &#160;</text>
</g>
<!-- Invis&#45;&gt;connected -->
</g>
</svg>
