<?xml version="1.0" encoding="UTF-8" standalone="no"?>
<!DOCTYPE svg PUBLIC "-//W3C//DTD SVG 1.1//EN"
 "http://www.w3.org/Graphics/SVG/1.1/DTD/svg11.dtd">
<!-- Generated by graphviz version 14.0.2 (20251019.1705)
 -->
<!-- Pages: 1 -->
<svg width="197pt" height="175pt"
 viewBox="0.00 0.00 197.00 175.00" xmlns="http://www.w3.org/2000/svg" xmlns:xlink="http://www.w3.org/1999/xlink">
<g id="graph0" class="graph" transform="scale(1 1) rotate(0) translate(4 171)">
<polygon fill="white" stroke="none" points="-4,4 -4,-171 193,-171 193,4 -4,4"/>
<g id="clust2" class="cluster">
<title>cluster_associated</title>
</g>
<!-- connected unit -->
<g id="node1" class="node">
<title>connected unit</title>
<g id="a_node1"><a xlink:href="../classes/itsVocabulary__connected unit.md" xlink:title="&lt;TABLE&gt;">
<polygon fill="lightgray" stroke="none" points="1,-124.88 1,-141.12 81,-141.12 81,-124.88 1,-124.88"/>
<text xml:space="preserve" text-anchor="start" x="2" y="-128.72" font-family="Arial" font-size="12.00">connected unit</text>
<polygon fill="none" stroke="black" points="0,-123.88 0,-142.12 82,-142.12 82,-123.88 0,-123.88"/>
</a>
</g>
</g>
<!-- Invis -->
<!-- connected unit&#45;&gt;Invis -->
<!-- connected -->
<g id="node3" class="node">
<title>connected</title>
<g id="a_node3"><a xlink:href="../connected/" xlink:title="&lt;TABLE&gt;" target="_top">
<polygon fill="lightgray" stroke="none" points="114.25,-25.88 114.25,-42.12 171.75,-42.12 171.75,-25.88 114.25,-25.88"/>
<text xml:space="preserve" text-anchor="start" x="115.25" y="-29.73" font-family="Arial" font-size="12.00">connected</text>
<polygon fill="none" stroke="black" points="113.25,-24.88 113.25,-43.12 172.75,-43.12 172.75,-24.88 113.25,-24.88"/>
</a>
</g>
</g>
<!-- connected unit&#45;&gt;connected -->
<g id="edge3" class="edge">
<title>connected unit&#45;&gt;connected</title>
<path fill="none" stroke="black" d="M53.09,-115.16C62.95,-102.05 77.66,-83.83 92.75,-70 97.05,-66.06 101.81,-62.2 106.64,-58.57"/>
<polygon fill="black" stroke="black" points="108.61,-61.47 114.68,-52.79 104.52,-55.79 108.61,-61.47"/>
<text xml:space="preserve" text-anchor="middle" x="116.38" y="-86.55" font-family="Arial" font-size="11.00"> is </text>
<text xml:space="preserve" text-anchor="middle" x="116.38" y="-73.05" font-family="Arial" font-size="11.00"> «some» &#160;</text>
</g>
<!-- Invis&#45;&gt;connected -->
</g>
</svg>
