<?xml version="1.0" encoding="UTF-8" standalone="no"?>
<!DOCTYPE svg PUBLIC "-//W3C//DTD SVG 1.1//EN"
 "http://www.w3.org/Graphics/SVG/1.1/DTD/svg11.dtd">
<!-- Generated by graphviz version 14.0.2 (20251019.1705)
 -->
<!-- Pages: 1 -->
<svg width="210pt" height="132pt"
 viewBox="0.00 0.00 210.00 132.00" xmlns="http://www.w3.org/2000/svg" xmlns:xlink="http://www.w3.org/1999/xlink">
<g id="graph0" class="graph" transform="scale(1 1) rotate(0) translate(4 128)">
<polygon fill="white" stroke="none" points="-4,4 -4,-128 205.75,-128 205.75,4 -4,4"/>
<g id="clust2" class="cluster">
<title>cluster_associated</title>
</g>
<!-- conventional vehicle -->
<g id="node1" class="node">
<title>conventional vehicle</title>
<g id="a_node1"><a xlink:href="../classes/itsVocabulary__conventional vehicle.md" xlink:title="&lt;TABLE&gt;">
<polygon fill="lightgray" stroke="none" points="1,-25.88 1,-42.12 112.5,-42.12 112.5,-25.88 1,-25.88"/>
<text xml:space="preserve" text-anchor="start" x="2" y="-29.73" font-family="Arial" font-size="12.00">conventional vehicle</text>
<polygon fill="none" stroke="black" points="0,-24.88 0,-43.12 113.5,-43.12 113.5,-24.88 0,-24.88"/>
</a>
</g>
</g>
<!-- vehicle -->
<g id="node2" class="node">
<title>vehicle</title>
<g id="a_node2"><a xlink:href="../vehicle/" xlink:title="&lt;TABLE&gt;" target="_top">
<polygon fill="lightgray" stroke="none" points="36.62,-97.88 36.62,-114.12 76.88,-114.12 76.88,-97.88 36.62,-97.88"/>
<text xml:space="preserve" text-anchor="start" x="37.62" y="-101.72" font-family="Arial" font-size="12.00">vehicle</text>
<polygon fill="none" stroke="black" points="35.62,-96.88 35.62,-115.12 77.88,-115.12 77.88,-96.88 35.62,-96.88"/>
</a>
</g>
</g>
<!-- conventional vehicle&#45;&gt;vehicle -->
<g id="edge1" class="edge">
<title>conventional vehicle&#45;&gt;vehicle</title>
<path fill="none" stroke="black" d="M56.75,-51.79C56.75,-59.25 56.75,-68.24 56.75,-76.69"/>
<polygon fill="none" stroke="black" points="53.25,-76.54 56.75,-86.54 60.25,-76.54 53.25,-76.54"/>
</g>
<!-- Invis -->
</g>
</svg>
