<?xml version="1.0" encoding="UTF-8" standalone="no"?>
<!DOCTYPE svg PUBLIC "-//W3C//DTD SVG 1.1//EN"
 "http://www.w3.org/Graphics/SVG/1.1/DTD/svg11.dtd">
<!-- Generated by graphviz version 14.0.2 (20251019.1705)
 -->
<!-- Pages: 1 -->
<svg width="358pt" height="132pt"
 viewBox="0.00 0.00 358.00 132.00" xmlns="http://www.w3.org/2000/svg" xmlns:xlink="http://www.w3.org/1999/xlink">
<g id="graph0" class="graph" transform="scale(1 1) rotate(0) translate(4 128)">
<polygon fill="white" stroke="none" points="-4,4 -4,-128 354.38,-128 354.38,4 -4,4"/>
<g id="clust2" class="cluster">
<title>cluster_associated</title>
</g>
<!-- cooperative ITS credentials management system -->
<g id="node1" class="node">
<title>cooperative ITS credentials management system</title>
<g id="a_node1"><a xlink:href="../classes/itsVocabulary__cooperative ITS credentials management system.md" xlink:title="&lt;TABLE&gt;">
<polygon fill="lightgray" stroke="none" points="1,-25.88 1,-42.12 261.75,-42.12 261.75,-25.88 1,-25.88"/>
<text xml:space="preserve" text-anchor="start" x="2" y="-29.73" font-family="Arial" font-size="12.00">cooperative ITS credentials management system</text>
<polygon fill="none" stroke="black" points="0,-24.88 0,-43.12 262.75,-43.12 262.75,-24.88 0,-24.88"/>
</a>
</g>
</g>
<!-- supportSystem -->
<g id="node2" class="node">
<title>supportSystem</title>
<g id="a_node2"><a xlink:href="../support system/" xlink:title="&lt;TABLE&gt;" target="_top">
<polygon fill="lightgray" stroke="none" points="90.25,-97.88 90.25,-114.12 172.5,-114.12 172.5,-97.88 90.25,-97.88"/>
<text xml:space="preserve" text-anchor="start" x="91.25" y="-101.72" font-family="Arial" font-size="12.00">support system</text>
<polygon fill="none" stroke="black" points="89.25,-96.88 89.25,-115.12 173.5,-115.12 173.5,-96.88 89.25,-96.88"/>
</a>
</g>
</g>
<!-- cooperative ITS credentials management system&#45;&gt;supportSystem -->
<g id="edge1" class="edge">
<title>cooperative ITS credentials management system&#45;&gt;supportSystem</title>
<path fill="none" stroke="black" d="M131.38,-51.79C131.38,-59.25 131.38,-68.24 131.38,-76.69"/>
<polygon fill="none" stroke="black" points="127.88,-76.54 131.38,-86.54 134.88,-76.54 127.88,-76.54"/>
</g>
<!-- Invis -->
</g>
</svg>
