<?xml version="1.0" encoding="UTF-8" standalone="no"?>
<!DOCTYPE svg PUBLIC "-//W3C//DTD SVG 1.1//EN"
 "http://www.w3.org/Graphics/SVG/1.1/DTD/svg11.dtd">
<!-- Generated by graphviz version 14.0.2 (20251019.1705)
 -->
<!-- Pages: 1 -->
<svg width="210pt" height="175pt"
 viewBox="0.00 0.00 210.00 175.00" xmlns="http://www.w3.org/2000/svg" xmlns:xlink="http://www.w3.org/1999/xlink">
<g id="graph0" class="graph" transform="scale(1 1) rotate(0) translate(4 171)">
<polygon fill="white" stroke="none" points="-4,4 -4,-171 205.75,-171 205.75,4 -4,4"/>
<g id="clust2" class="cluster">
<title>cluster_associated</title>
</g>
<!-- coordinate tuple -->
<g id="node1" class="node">
<title>coordinate tuple</title>
<g id="a_node1"><a xlink:href="../classes/itsVocabulary__coordinate tuple.md" xlink:title="&lt;TABLE&gt;">
<polygon fill="lightgray" stroke="none" points="1,-124.88 1,-141.12 88.5,-141.12 88.5,-124.88 1,-124.88"/>
<text xml:space="preserve" text-anchor="start" x="2" y="-128.72" font-family="Arial" font-size="12.00">coordinate tuple</text>
<polygon fill="none" stroke="black" points="0,-123.88 0,-142.12 89.5,-142.12 89.5,-123.88 0,-123.88"/>
</a>
</g>
</g>
<!-- Invis -->
<!-- coordinate tuple&#45;&gt;Invis -->
<!-- pointLocation -->
<g id="node3" class="node">
<title>pointLocation</title>
<g id="a_node3"><a xlink:href="../point location/" xlink:title="&lt;TABLE&gt;" target="_top">
<polygon fill="lightgray" stroke="none" points="111.12,-25.88 111.12,-42.12 184.38,-42.12 184.38,-25.88 111.12,-25.88"/>
<text xml:space="preserve" text-anchor="start" x="112.12" y="-29.73" font-family="Arial" font-size="12.00">point location</text>
<polygon fill="none" stroke="black" points="110.12,-24.88 110.12,-43.12 185.38,-43.12 185.38,-24.88 110.12,-24.88"/>
</a>
</g>
</g>
<!-- coordinate tuple&#45;&gt;pointLocation -->
<g id="edge3" class="edge">
<title>coordinate tuple&#45;&gt;pointLocation</title>
<path fill="none" stroke="black" d="M53.73,-115.24C61.51,-101.84 73.73,-83.18 88,-70 92.75,-65.61 98.15,-61.52 103.7,-57.8"/>
<polygon fill="black" stroke="black" points="105.23,-60.97 111.84,-52.69 101.51,-55.04 105.23,-60.97"/>
<text xml:space="preserve" text-anchor="middle" x="116.88" y="-86.55" font-family="Arial" font-size="11.00"> designates </text>
<text xml:space="preserve" text-anchor="middle" x="116.88" y="-73.05" font-family="Arial" font-size="11.00"> «some» &#160;</text>
</g>
<!-- Invis&#45;&gt;pointLocation -->
</g>
</svg>
