<?xml version="1.0" encoding="UTF-8" standalone="no"?>
<!DOCTYPE svg PUBLIC "-//W3C//DTD SVG 1.1//EN"
 "http://www.w3.org/Graphics/SVG/1.1/DTD/svg11.dtd">
<!-- Generated by graphviz version 14.0.2 (20251019.1705)
 -->
<!-- Pages: 1 -->
<svg width="238pt" height="132pt"
 viewBox="0.00 0.00 238.00 132.00" xmlns="http://www.w3.org/2000/svg" xmlns:xlink="http://www.w3.org/1999/xlink">
<g id="graph0" class="graph" transform="scale(1 1) rotate(0) translate(4 128)">
<polygon fill="white" stroke="none" points="-4,4 -4,-128 234,-128 234,4 -4,4"/>
<g id="clust2" class="cluster">
<title>cluster_associated</title>
</g>
<!-- corporate customer model -->
<g id="node1" class="node">
<title>corporate customer model</title>
<g id="a_node1"><a xlink:href="../classes/itsVocabulary__corporate customer model.md" xlink:title="&lt;TABLE&gt;">
<polygon fill="lightgray" stroke="none" points="1,-25.88 1,-42.12 141,-42.12 141,-25.88 1,-25.88"/>
<text xml:space="preserve" text-anchor="start" x="2" y="-29.73" font-family="Arial" font-size="12.00">corporate customer model</text>
<polygon fill="none" stroke="black" points="0,-24.88 0,-43.12 142,-43.12 142,-24.88 0,-24.88"/>
</a>
</g>
</g>
<!-- contractualModel -->
<g id="node2" class="node">
<title>contractualModel</title>
<g id="a_node2"><a xlink:href="../contractual model/" xlink:title="&lt;TABLE&gt;" target="_top">
<polygon fill="lightgray" stroke="none" points="22.75,-97.88 22.75,-114.12 119.25,-114.12 119.25,-97.88 22.75,-97.88"/>
<text xml:space="preserve" text-anchor="start" x="23.75" y="-101.72" font-family="Arial" font-size="12.00">contractual model</text>
<polygon fill="none" stroke="black" points="21.75,-96.88 21.75,-115.12 120.25,-115.12 120.25,-96.88 21.75,-96.88"/>
</a>
</g>
</g>
<!-- corporate customer model&#45;&gt;contractualModel -->
<g id="edge1" class="edge">
<title>corporate customer model&#45;&gt;contractualModel</title>
<path fill="none" stroke="black" d="M71,-51.79C71,-59.25 71,-68.24 71,-76.69"/>
<polygon fill="none" stroke="black" points="67.5,-76.54 71,-86.54 74.5,-76.54 67.5,-76.54"/>
</g>
<!-- Invis -->
</g>
</svg>
