<?xml version="1.0" encoding="UTF-8" standalone="no"?>
<!DOCTYPE svg PUBLIC "-//W3C//DTD SVG 1.1//EN"
 "http://www.w3.org/Graphics/SVG/1.1/DTD/svg11.dtd">
<!-- Generated by graphviz version 14.0.2 (20251019.1705)
 -->
<!-- Pages: 1 -->
<svg width="169pt" height="175pt"
 viewBox="0.00 0.00 169.00 175.00" xmlns="http://www.w3.org/2000/svg" xmlns:xlink="http://www.w3.org/1999/xlink">
<g id="graph0" class="graph" transform="scale(1 1) rotate(0) translate(4 171)">
<polygon fill="white" stroke="none" points="-4,4 -4,-171 165,-171 165,4 -4,4"/>
<g id="clust2" class="cluster">
<title>cluster_associated</title>
</g>
<!-- cycleway -->
<g id="node1" class="node">
<title>cycleway</title>
<g id="a_node1"><a xlink:href="../classes/itsVocabulary__cycleway.md" xlink:title="&lt;TABLE&gt;">
<polygon fill="lightgray" stroke="none" points="1.25,-124.88 1.25,-141.12 52.75,-141.12 52.75,-124.88 1.25,-124.88"/>
<text xml:space="preserve" text-anchor="start" x="2.25" y="-128.72" font-family="Arial" font-size="12.00">cycleway</text>
<polygon fill="none" stroke="black" points="0.25,-123.88 0.25,-142.12 53.75,-142.12 53.75,-123.88 0.25,-123.88"/>
</a>
</g>
</g>
<!-- Invis -->
<!-- cycleway&#45;&gt;Invis -->
<!-- cycleLane -->
<g id="node3" class="node">
<title>cycleLane</title>
<g id="a_node3"><a xlink:href="../cycle lane/" xlink:title="&lt;TABLE&gt;" target="_top">
<polygon fill="lightgray" stroke="none" points="88,-25.88 88,-42.12 144,-42.12 144,-25.88 88,-25.88"/>
<text xml:space="preserve" text-anchor="start" x="89" y="-29.73" font-family="Arial" font-size="12.00">cycle lane</text>
<polygon fill="none" stroke="black" points="87,-24.88 87,-43.12 145,-43.12 145,-24.88 87,-24.88"/>
</a>
</g>
</g>
<!-- cycleway&#45;&gt;cycleLane -->
<g id="edge3" class="edge">
<title>cycleway&#45;&gt;cycleLane</title>
<path fill="none" stroke="black" d="M32.2,-115.17C37.01,-101.73 45.25,-83.05 57.25,-70 62.94,-63.81 69.98,-58.37 77.18,-53.73"/>
<polygon fill="black" stroke="black" points="78.88,-56.8 85.7,-48.69 75.31,-50.78 78.88,-56.8"/>
<text xml:space="preserve" text-anchor="middle" x="84.62" y="-86.55" font-family="Arial" font-size="11.00"> comprises </text>
<text xml:space="preserve" text-anchor="middle" x="84.62" y="-73.05" font-family="Arial" font-size="11.00"> «some» &#160;</text>
</g>
<!-- Invis&#45;&gt;cycleLane -->
</g>
</svg>
