<?xml version="1.0" encoding="UTF-8" standalone="no"?>
<!DOCTYPE svg PUBLIC "-//W3C//DTD SVG 1.1//EN"
 "http://www.w3.org/Graphics/SVG/1.1/DTD/svg11.dtd">
<!-- Generated by graphviz version 14.0.2 (20251019.1705)
 -->
<!-- Pages: 1 -->
<svg width="162pt" height="132pt"
 viewBox="0.00 0.00 162.00 132.00" xmlns="http://www.w3.org/2000/svg" xmlns:xlink="http://www.w3.org/1999/xlink">
<g id="graph0" class="graph" transform="scale(1 1) rotate(0) translate(4 128)">
<polygon fill="white" stroke="none" points="-4,4 -4,-128 158.12,-128 158.12,4 -4,4"/>
<g id="clust2" class="cluster">
<title>cluster_associated</title>
</g>
<!-- data frame -->
<g id="node1" class="node">
<title>data frame</title>
<g id="a_node1"><a xlink:href="../classes/itsVocabulary__data frame.md" xlink:title="&lt;TABLE&gt;">
<polygon fill="lightgray" stroke="none" points="7,-25.88 7,-42.12 65.25,-42.12 65.25,-25.88 7,-25.88"/>
<text xml:space="preserve" text-anchor="start" x="8" y="-29.73" font-family="Arial" font-size="12.00">data frame</text>
<polygon fill="none" stroke="black" points="6,-24.88 6,-43.12 66.25,-43.12 66.25,-24.88 6,-24.88"/>
</a>
</g>
</g>
<!-- dataConcept -->
<g id="node2" class="node">
<title>dataConcept</title>
<g id="a_node2"><a xlink:href="../data concept/" xlink:title="&lt;TABLE&gt;" target="_top">
<polygon fill="lightgray" stroke="none" points="1,-97.88 1,-114.12 71.25,-114.12 71.25,-97.88 1,-97.88"/>
<text xml:space="preserve" text-anchor="start" x="2" y="-101.72" font-family="Arial" font-size="12.00">data concept</text>
<polygon fill="none" stroke="black" points="0,-96.88 0,-115.12 72.25,-115.12 72.25,-96.88 0,-96.88"/>
</a>
</g>
</g>
<!-- data frame&#45;&gt;dataConcept -->
<g id="edge1" class="edge">
<title>data frame&#45;&gt;dataConcept</title>
<path fill="none" stroke="black" d="M36.12,-51.79C36.12,-59.25 36.12,-68.24 36.12,-76.69"/>
<polygon fill="none" stroke="black" points="32.63,-76.54 36.13,-86.54 39.63,-76.54 32.63,-76.54"/>
</g>
<!-- Invis -->
</g>
</svg>
