<?xml version="1.0" encoding="UTF-8" standalone="no"?>
<!DOCTYPE svg PUBLIC "-//W3C//DTD SVG 1.1//EN"
 "http://www.w3.org/Graphics/SVG/1.1/DTD/svg11.dtd">
<!-- Generated by graphviz version 14.0.2 (20251019.1705)
 -->
<!-- Pages: 1 -->
<svg width="210pt" height="132pt"
 viewBox="0.00 0.00 210.00 132.00" xmlns="http://www.w3.org/2000/svg" xmlns:xlink="http://www.w3.org/1999/xlink">
<g id="graph0" class="graph" transform="scale(1 1) rotate(0) translate(4 128)">
<polygon fill="white" stroke="none" points="-4,4 -4,-128 206.12,-128 206.12,4 -4,4"/>
<g id="clust2" class="cluster">
<title>cluster_associated</title>
</g>
<!-- data concept registry -->
<g id="node1" class="node">
<title>data concept registry</title>
<g id="a_node1"><a xlink:href="../classes/itsVocabulary__data concept registry.md" xlink:title="&lt;TABLE&gt;">
<polygon fill="lightgray" stroke="none" points="1,-25.88 1,-42.12 113.25,-42.12 113.25,-25.88 1,-25.88"/>
<text xml:space="preserve" text-anchor="start" x="2" y="-29.73" font-family="Arial" font-size="12.00">data concept registry</text>
<polygon fill="none" stroke="black" points="0,-24.88 0,-43.12 114.25,-43.12 114.25,-24.88 0,-24.88"/>
</a>
</g>
</g>
<!-- dataDictionary -->
<g id="node2" class="node">
<title>dataDictionary</title>
<g id="a_node2"><a xlink:href="../data dictionary/" xlink:title="&lt;TABLE&gt;" target="_top">
<polygon fill="lightgray" stroke="none" points="17.12,-97.88 17.12,-114.12 97.12,-114.12 97.12,-97.88 17.12,-97.88"/>
<text xml:space="preserve" text-anchor="start" x="18.12" y="-101.72" font-family="Arial" font-size="12.00">data dictionary</text>
<polygon fill="none" stroke="black" points="16.12,-96.88 16.12,-115.12 98.12,-115.12 98.12,-96.88 16.12,-96.88"/>
</a>
</g>
</g>
<!-- data concept registry&#45;&gt;dataDictionary -->
<g id="edge1" class="edge">
<title>data concept registry&#45;&gt;dataDictionary</title>
<path fill="none" stroke="black" d="M57.12,-51.79C57.12,-59.25 57.12,-68.24 57.12,-76.69"/>
<polygon fill="none" stroke="black" points="53.63,-76.54 57.13,-86.54 60.63,-76.54 53.63,-76.54"/>
</g>
<!-- Invis -->
</g>
</svg>
