<?xml version="1.0" encoding="UTF-8" standalone="no"?>
<!DOCTYPE svg PUBLIC "-//W3C//DTD SVG 1.1//EN"
 "http://www.w3.org/Graphics/SVG/1.1/DTD/svg11.dtd">
<!-- Generated by graphviz version 14.0.2 (20251019.1705)
 -->
<!-- Pages: 1 -->
<svg width="200pt" height="248pt"
 viewBox="0.00 0.00 200.00 248.00" xmlns="http://www.w3.org/2000/svg" xmlns:xlink="http://www.w3.org/1999/xlink">
<g id="graph0" class="graph" transform="scale(1 1) rotate(0) translate(4 244)">
<polygon fill="white" stroke="none" points="-4,4 -4,-244 196.12,-244 196.12,4 -4,4"/>
<g id="clust2" class="cluster">
<title>cluster_associated</title>
</g>
<!-- data concept -->
<g id="node1" class="node">
<title>data concept</title>
<g id="a_node1"><a xlink:href="../classes/itsVocabulary__data concept.md" xlink:title="&lt;TABLE&gt;">
<polygon fill="lightgray" stroke="none" points="1,-197.88 1,-214.12 71.25,-214.12 71.25,-197.88 1,-197.88"/>
<text xml:space="preserve" text-anchor="start" x="2" y="-201.72" font-family="Arial" font-size="12.00">data concept</text>
<polygon fill="none" stroke="black" points="0,-196.88 0,-215.12 72.25,-215.12 72.25,-196.88 0,-196.88"/>
</a>
</g>
</g>
<!-- Invis -->
<!-- data concept&#45;&gt;Invis -->
<!-- dataDictionary -->
<g id="node3" class="node">
<title>dataDictionary</title>
<g id="a_node3"><a xlink:href="../data dictionary/" xlink:title="&lt;TABLE&gt;" target="_top">
<polygon fill="lightgray" stroke="none" points="95.12,-98.88 95.12,-115.12 175.12,-115.12 175.12,-98.88 95.12,-98.88"/>
<text xml:space="preserve" text-anchor="start" x="96.12" y="-102.72" font-family="Arial" font-size="12.00">data dictionary</text>
<polygon fill="none" stroke="black" points="94.12,-97.88 94.12,-116.12 176.12,-116.12 176.12,-97.88 94.12,-97.88"/>
</a>
</g>
</g>
<!-- data concept&#45;&gt;dataDictionary -->
<g id="edge5" class="edge">
<title>data concept&#45;&gt;dataDictionary</title>
<path fill="none" stroke="black" d="M47.01,-188.04C55.95,-174.87 69.45,-156.62 83.88,-143 88.12,-138.99 92.87,-135.1 97.72,-131.48"/>
<polygon fill="black" stroke="black" points="99.69,-134.37 105.82,-125.72 95.64,-128.66 99.69,-134.37"/>
<text xml:space="preserve" text-anchor="middle" x="107.5" y="-159.55" font-family="Arial" font-size="11.00"> storedIn </text>
<text xml:space="preserve" text-anchor="middle" x="107.5" y="-146.05" font-family="Arial" font-size="11.00"> «some» &#160;</text>
</g>
<!-- entity -->
<g id="node4" class="node">
<title>entity</title>
<g id="a_node4"><a xlink:href="../entity/" xlink:title="&lt;TABLE&gt;" target="_top">
<polygon fill="lightgray" stroke="none" points="112.88,-25.88 112.88,-42.12 143.38,-42.12 143.38,-25.88 112.88,-25.88"/>
<text xml:space="preserve" text-anchor="start" x="113.88" y="-29.73" font-family="Arial" font-size="12.00">entity</text>
<polygon fill="none" stroke="black" points="111.88,-24.88 111.88,-43.12 144.38,-43.12 144.38,-24.88 111.88,-24.88"/>
</a>
</g>
</g>
<!-- data concept&#45;&gt;entity -->
<g id="edge4" class="edge">
<title>data concept&#45;&gt;entity</title>
<path fill="none" stroke="black" d="M30.61,-188.29C23.82,-164.47 15.26,-120.18 33.38,-89 45.77,-67.67 70.09,-54.07 90.99,-45.85"/>
<polygon fill="black" stroke="black" points="91.89,-49.24 100.1,-42.54 89.5,-42.66 91.89,-49.24"/>
<text xml:space="preserve" text-anchor="middle" x="59.25" y="-110.05" font-family="Arial" font-size="11.00"> describes </text>
<text xml:space="preserve" text-anchor="middle" x="59.25" y="-96.55" font-family="Arial" font-size="11.00"> «some» &#160;</text>
</g>
<!-- Invis&#45;&gt;dataDictionary -->
<!-- dataDictionary&#45;&gt;entity -->
</g>
</svg>
