<?xml version="1.0" encoding="UTF-8" standalone="no"?>
<!DOCTYPE svg PUBLIC "-//W3C//DTD SVG 1.1//EN"
 "http://www.w3.org/Graphics/SVG/1.1/DTD/svg11.dtd">
<!-- Generated by graphviz version 14.0.2 (20251019.1705)
 -->
<!-- Pages: 1 -->
<svg width="172pt" height="132pt"
 viewBox="0.00 0.00 172.00 132.00" xmlns="http://www.w3.org/2000/svg" xmlns:xlink="http://www.w3.org/1999/xlink">
<g id="graph0" class="graph" transform="scale(1 1) rotate(0) translate(4 128)">
<polygon fill="white" stroke="none" points="-4,4 -4,-128 167.62,-128 167.62,4 -4,4"/>
<g id="clust2" class="cluster">
<title>cluster_associated</title>
</g>
<!-- disconnected -->
<g id="node1" class="node">
<title>disconnected</title>
<g id="a_node1"><a xlink:href="../classes/itsVocabulary__disconnected.md" xlink:title="&lt;TABLE&gt;">
<polygon fill="lightgray" stroke="none" points="1,-25.88 1,-42.12 74.25,-42.12 74.25,-25.88 1,-25.88"/>
<text xml:space="preserve" text-anchor="start" x="2" y="-29.73" font-family="Arial" font-size="12.00">disconnected</text>
<polygon fill="none" stroke="black" points="0,-24.88 0,-43.12 75.25,-43.12 75.25,-24.88 0,-24.88"/>
</a>
</g>
</g>
<!-- off&#45;grid -->
<g id="node2" class="node">
<title>off&#45;grid</title>
<g id="a_node2"><a xlink:href="../off-grid/" xlink:title="&lt;TABLE&gt;" target="_top">
<polygon fill="lightgray" stroke="none" points="18.25,-97.88 18.25,-114.12 57,-114.12 57,-97.88 18.25,-97.88"/>
<text xml:space="preserve" text-anchor="start" x="19.25" y="-101.72" font-family="Arial" font-size="12.00">off&#45;grid</text>
<polygon fill="none" stroke="black" points="17.25,-96.88 17.25,-115.12 58,-115.12 58,-96.88 17.25,-96.88"/>
</a>
</g>
</g>
<!-- disconnected&#45;&gt;off&#45;grid -->
<g id="edge1" class="edge">
<title>disconnected&#45;&gt;off&#45;grid</title>
<path fill="none" stroke="black" d="M37.62,-51.79C37.62,-59.25 37.62,-68.24 37.62,-76.69"/>
<polygon fill="none" stroke="black" points="34.13,-76.54 37.63,-86.54 41.13,-76.54 34.13,-76.54"/>
</g>
<!-- Invis -->
</g>
</svg>
