<?xml version="1.0" encoding="UTF-8" standalone="no"?>
<!DOCTYPE svg PUBLIC "-//W3C//DTD SVG 1.1//EN"
 "http://www.w3.org/Graphics/SVG/1.1/DTD/svg11.dtd">
<!-- Generated by graphviz version 14.0.2 (20251019.1705)
 -->
<!-- Pages: 1 -->
<svg width="150pt" height="132pt"
 viewBox="0.00 0.00 150.00 132.00" xmlns="http://www.w3.org/2000/svg" xmlns:xlink="http://www.w3.org/1999/xlink">
<g id="graph0" class="graph" transform="scale(1 1) rotate(0) translate(4 128)">
<polygon fill="white" stroke="none" points="-4,4 -4,-128 146,-128 146,4 -4,4"/>
<g id="clust2" class="cluster">
<title>cluster_associated</title>
</g>
<!-- escalator -->
<g id="node1" class="node">
<title>escalator</title>
<g id="a_node1"><a xlink:href="../classes/itsVocabulary__escalator.md" xlink:title="&lt;TABLE&gt;">
<polygon fill="lightgray" stroke="none" points="1.62,-25.88 1.62,-42.12 52.38,-42.12 52.38,-25.88 1.62,-25.88"/>
<text xml:space="preserve" text-anchor="start" x="2.62" y="-29.73" font-family="Arial" font-size="12.00">escalator</text>
<polygon fill="none" stroke="black" points="0.62,-24.88 0.62,-43.12 53.38,-43.12 53.38,-24.88 0.62,-24.88"/>
</a>
</g>
</g>
<!-- footpath -->
<g id="node2" class="node">
<title>footpath</title>
<g id="a_node2"><a xlink:href="../footpath/" xlink:title="&lt;TABLE&gt;" target="_top">
<polygon fill="lightgray" stroke="none" points="4.62,-97.88 4.62,-114.12 49.38,-114.12 49.38,-97.88 4.62,-97.88"/>
<text xml:space="preserve" text-anchor="start" x="5.62" y="-101.72" font-family="Arial" font-size="12.00">footpath</text>
<polygon fill="none" stroke="black" points="3.62,-96.88 3.62,-115.12 50.38,-115.12 50.38,-96.88 3.62,-96.88"/>
</a>
</g>
</g>
<!-- escalator&#45;&gt;footpath -->
<g id="edge1" class="edge">
<title>escalator&#45;&gt;footpath</title>
<path fill="none" stroke="black" d="M27,-51.79C27,-59.25 27,-68.24 27,-76.69"/>
<polygon fill="none" stroke="black" points="23.5,-76.54 27,-86.54 30.5,-76.54 23.5,-76.54"/>
</g>
<!-- Invis -->
</g>
</svg>
