<?xml version="1.0" encoding="UTF-8" standalone="no"?>
<!DOCTYPE svg PUBLIC "-//W3C//DTD SVG 1.1//EN"
 "http://www.w3.org/Graphics/SVG/1.1/DTD/svg11.dtd">
<!-- Generated by graphviz version 14.0.2 (20251019.1705)
 -->
<!-- Pages: 1 -->
<svg width="413pt" height="248pt"
 viewBox="0.00 0.00 413.00 248.00" xmlns="http://www.w3.org/2000/svg" xmlns:xlink="http://www.w3.org/1999/xlink">
<g id="graph0" class="graph" transform="scale(1 1) rotate(0) translate(4 244)">
<polygon fill="white" stroke="none" points="-4,4 -4,-244 408.88,-244 408.88,4 -4,4"/>
<g id="clust2" class="cluster">
<title>cluster_associated</title>
</g>
<!-- fallback -->
<g id="node1" class="node">
<title>fallback</title>
<g id="a_node1"><a xlink:href="../classes/itsVocabulary__fallback.md" xlink:title="&lt;TABLE&gt;">
<polygon fill="lightgray" stroke="none" points="102.26,-197.88 102.26,-214.12 145.51,-214.12 145.51,-197.88 102.26,-197.88"/>
<text xml:space="preserve" text-anchor="start" x="103.26" y="-201.72" font-family="Arial" font-size="12.00">fallback</text>
<polygon fill="none" stroke="black" points="101.26,-196.88 101.26,-215.12 146.51,-215.12 146.51,-196.88 101.26,-196.88"/>
</a>
</g>
</g>
<!-- Invis -->
<!-- fallback&#45;&gt;Invis -->
<!-- ddtPerformance&#45;relevantSystemFailure -->
<g id="node3" class="node">
<title>ddtPerformance&#45;relevantSystemFailure</title>
<g id="a_node3"><a xlink:href="../DDT performance-relevant system failure/" xlink:title="&lt;TABLE&gt;" target="_top">
<polygon fill="lightgray" stroke="none" points="168.13,-98.88 168.13,-115.12 387.63,-115.12 387.63,-98.88 168.13,-98.88"/>
<text xml:space="preserve" text-anchor="start" x="169.13" y="-102.72" font-family="Arial" font-size="12.00">DDT performance&#45;relevant system failure</text>
<polygon fill="none" stroke="black" points="167.13,-97.88 167.13,-116.12 388.63,-116.12 388.63,-97.88 167.13,-97.88"/>
</a>
</g>
</g>
<!-- fallback&#45;&gt;ddtPerformance&#45;relevantSystemFailure -->
<g id="edge4" class="edge">
<title>fallback&#45;&gt;ddtPerformance&#45;relevantSystemFailure</title>
<path fill="none" stroke="black" d="M128.19,-188.12C132.62,-174.08 140.89,-154.6 154.88,-143 161.11,-137.84 168.06,-133.43 175.39,-129.68"/>
<polygon fill="black" stroke="black" points="176.62,-132.97 184.23,-125.59 173.68,-126.61 176.62,-132.97"/>
<text xml:space="preserve" text-anchor="middle" x="199.88" y="-159.55" font-family="Arial" font-size="11.00"> mayBeCausedBy </text>
<text xml:space="preserve" text-anchor="middle" x="199.88" y="-146.05" font-family="Arial" font-size="11.00"> «some» &#160;</text>
</g>
<!-- operationalDesignDomain -->
<g id="node4" class="node">
<title>operationalDesignDomain</title>
<g id="a_node4"><a xlink:href="../operational design domain/" xlink:title="&lt;TABLE&gt;" target="_top">
<polygon fill="lightgray" stroke="none" points="187.01,-25.88 187.01,-42.12 330.76,-42.12 330.76,-25.88 187.01,-25.88"/>
<text xml:space="preserve" text-anchor="start" x="188.01" y="-29.73" font-family="Arial" font-size="12.00">operational design domain</text>
<polygon fill="none" stroke="black" points="186.01,-24.88 186.01,-43.12 331.76,-43.12 331.76,-24.88 186.01,-24.88"/>
</a>
</g>
</g>
<!-- fallback&#45;&gt;operationalDesignDomain -->
<g id="edge5" class="edge">
<title>fallback&#45;&gt;operationalDesignDomain</title>
<path fill="none" stroke="black" d="M97.06,-193.74C53.39,-173.85 -24.98,-130.64 8.63,-89 29.37,-63.31 110.33,-49.25 174.63,-41.97"/>
<polygon fill="black" stroke="black" points="174.94,-45.46 184.51,-40.9 174.19,-38.5 174.94,-45.46"/>
<text xml:space="preserve" text-anchor="middle" x="83.26" y="-110.05" font-family="Arial" font-size="11.00"> mayBeCausedByAViolationOf </text>
<text xml:space="preserve" text-anchor="middle" x="83.26" y="-96.55" font-family="Arial" font-size="11.00"> «some» &#160;</text>
</g>
<!-- Invis&#45;&gt;ddtPerformance&#45;relevantSystemFailure -->
<!-- ddtPerformance&#45;relevantSystemFailure&#45;&gt;operationalDesignDomain -->
</g>
</svg>
