<?xml version="1.0" encoding="UTF-8" standalone="no"?>
<!DOCTYPE svg PUBLIC "-//W3C//DTD SVG 1.1//EN"
 "http://www.w3.org/Graphics/SVG/1.1/DTD/svg11.dtd">
<!-- Generated by graphviz version 14.0.2 (20251019.1705)
 -->
<!-- Pages: 1 -->
<svg width="202pt" height="132pt"
 viewBox="0.00 0.00 202.00 132.00" xmlns="http://www.w3.org/2000/svg" xmlns:xlink="http://www.w3.org/1999/xlink">
<g id="graph0" class="graph" transform="scale(1 1) rotate(0) translate(4 128)">
<polygon fill="white" stroke="none" points="-4,4 -4,-128 198,-128 198,4 -4,4"/>
<g id="clust2" class="cluster">
<title>cluster_associated</title>
</g>
<!-- formal coordination -->
<g id="node1" class="node">
<title>formal coordination</title>
<g id="a_node1"><a xlink:href="../classes/itsVocabulary__formal coordination.md" xlink:title="&lt;TABLE&gt;">
<polygon fill="lightgray" stroke="none" points="1,-25.88 1,-42.12 105,-42.12 105,-25.88 1,-25.88"/>
<text xml:space="preserve" text-anchor="start" x="2" y="-29.73" font-family="Arial" font-size="12.00">formal coordination</text>
<polygon fill="none" stroke="black" points="0,-24.88 0,-43.12 106,-43.12 106,-24.88 0,-24.88"/>
</a>
</g>
</g>
<!-- interaction -->
<g id="node2" class="node">
<title>interaction</title>
<g id="a_node2"><a xlink:href="../interaction/" xlink:title="&lt;TABLE&gt;" target="_top">
<polygon fill="lightgray" stroke="none" points="24.25,-97.88 24.25,-114.12 81.75,-114.12 81.75,-97.88 24.25,-97.88"/>
<text xml:space="preserve" text-anchor="start" x="25.25" y="-101.72" font-family="Arial" font-size="12.00">interaction</text>
<polygon fill="none" stroke="black" points="23.25,-96.88 23.25,-115.12 82.75,-115.12 82.75,-96.88 23.25,-96.88"/>
</a>
</g>
</g>
<!-- formal coordination&#45;&gt;interaction -->
<g id="edge1" class="edge">
<title>formal coordination&#45;&gt;interaction</title>
<path fill="none" stroke="black" d="M53,-51.79C53,-59.25 53,-68.24 53,-76.69"/>
<polygon fill="none" stroke="black" points="49.5,-76.54 53,-86.54 56.5,-76.54 49.5,-76.54"/>
</g>
<!-- Invis -->
</g>
</svg>
