<?xml version="1.0" encoding="UTF-8" standalone="no"?>
<!DOCTYPE svg PUBLIC "-//W3C//DTD SVG 1.1//EN"
 "http://www.w3.org/Graphics/SVG/1.1/DTD/svg11.dtd">
<!-- Generated by graphviz version 14.0.2 (20251019.1705)
 -->
<!-- Pages: 1 -->
<svg width="241pt" height="232pt"
 viewBox="0.00 0.00 241.00 232.00" xmlns="http://www.w3.org/2000/svg" xmlns:xlink="http://www.w3.org/1999/xlink">
<g id="graph0" class="graph" transform="scale(1 1) rotate(0) translate(4 228)">
<polygon fill="white" stroke="none" points="-4,4 -4,-228 237.12,-228 237.12,4 -4,4"/>
<g id="clust2" class="cluster">
<title>cluster_associated</title>
</g>
<!-- functional viewpoint -->
<g id="node1" class="node">
<title>functional viewpoint</title>
<g id="a_node1"><a xlink:href="../classes/itsVocabulary__functional viewpoint.md" xlink:title="&lt;TABLE&gt;">
<polygon fill="lightgray" stroke="none" points="119.12,-124.88 119.12,-141.12 226.88,-141.12 226.88,-124.88 119.12,-124.88"/>
<text xml:space="preserve" text-anchor="start" x="120.12" y="-128.72" font-family="Arial" font-size="12.00">functional viewpoint</text>
<polygon fill="none" stroke="black" points="118.12,-123.88 118.12,-142.12 227.88,-142.12 227.88,-123.88 118.12,-123.88"/>
</a>
</g>
</g>
<!-- architectureViewpoint -->
<g id="node2" class="node">
<title>architectureViewpoint</title>
<g id="a_node2"><a xlink:href="../architecture viewpoint/" xlink:title="&lt;TABLE&gt;" target="_top">
<polygon fill="lightgray" stroke="none" points="113.88,-197.88 113.88,-214.12 232.12,-214.12 232.12,-197.88 113.88,-197.88"/>
<text xml:space="preserve" text-anchor="start" x="114.88" y="-201.72" font-family="Arial" font-size="12.00">architecture viewpoint</text>
<polygon fill="none" stroke="black" points="112.88,-196.88 112.88,-215.12 233.12,-215.12 233.12,-196.88 112.88,-196.88"/>
</a>
</g>
</g>
<!-- functional viewpoint&#45;&gt;architectureViewpoint -->
<g id="edge1" class="edge">
<title>functional viewpoint&#45;&gt;architectureViewpoint</title>
<path fill="none" stroke="black" d="M173,-150.71C173,-158.47 173,-167.92 173,-176.74"/>
<polygon fill="none" stroke="black" points="169.5,-176.66 173,-186.66 176.5,-176.66 169.5,-176.66"/>
</g>
<!-- Invis -->
<!-- functional viewpoint&#45;&gt;Invis -->
<!-- functionalView -->
<g id="node4" class="node">
<title>functionalView</title>
<g id="a_node4"><a xlink:href="../functional view/" xlink:title="&lt;TABLE&gt;" target="_top">
<polygon fill="lightgray" stroke="none" points="17.25,-25.88 17.25,-42.12 98.75,-42.12 98.75,-25.88 17.25,-25.88"/>
<text xml:space="preserve" text-anchor="start" x="18.25" y="-29.73" font-family="Arial" font-size="12.00">functional view</text>
<polygon fill="none" stroke="black" points="16.25,-24.88 16.25,-43.12 99.75,-43.12 99.75,-24.88 16.25,-24.88"/>
</a>
</g>
</g>
<!-- functional viewpoint&#45;&gt;functionalView -->
<g id="edge4" class="edge">
<title>functional viewpoint&#45;&gt;functionalView</title>
<path fill="none" stroke="black" d="M152.97,-115.1C134.58,-99.6 107.14,-76.45 86.48,-59.02"/>
<polygon fill="black" stroke="black" points="88.86,-56.45 78.96,-52.68 84.35,-61.8 88.86,-56.45"/>
<text xml:space="preserve" text-anchor="middle" x="152.81" y="-86.55" font-family="Arial" font-size="11.00"> governs </text>
<text xml:space="preserve" text-anchor="middle" x="152.81" y="-73.05" font-family="Arial" font-size="11.00"> «some» &#160;</text>
</g>
<!-- Invis&#45;&gt;functionalView -->
</g>
</svg>
