<?xml version="1.0" encoding="UTF-8" standalone="no"?>
<!DOCTYPE svg PUBLIC "-//W3C//DTD SVG 1.1//EN"
 "http://www.w3.org/Graphics/SVG/1.1/DTD/svg11.dtd">
<!-- Generated by graphviz version 14.0.2 (20251019.1705)
 -->
<!-- Pages: 1 -->
<svg width="234pt" height="132pt"
 viewBox="0.00 0.00 234.00 132.00" xmlns="http://www.w3.org/2000/svg" xmlns:xlink="http://www.w3.org/1999/xlink">
<g id="graph0" class="graph" transform="scale(1 1) rotate(0) translate(4 128)">
<polygon fill="white" stroke="none" points="-4,4 -4,-128 230.12,-128 230.12,4 -4,4"/>
<g id="clust2" class="cluster">
<title>cluster_associated</title>
</g>
<!-- geographic point location -->
<g id="node1" class="node">
<title>geographic point location</title>
<g id="a_node1"><a xlink:href="../classes/itsVocabulary__geographic point location.md" xlink:title="&lt;TABLE&gt;">
<polygon fill="lightgray" stroke="none" points="1,-25.88 1,-42.12 137.25,-42.12 137.25,-25.88 1,-25.88"/>
<text xml:space="preserve" text-anchor="start" x="2" y="-29.73" font-family="Arial" font-size="12.00">geographic point location</text>
<polygon fill="none" stroke="black" points="0,-24.88 0,-43.12 138.25,-43.12 138.25,-24.88 0,-24.88"/>
</a>
</g>
</g>
<!-- pointLocation -->
<g id="node2" class="node">
<title>pointLocation</title>
<g id="a_node2"><a xlink:href="../point location/" xlink:title="&lt;TABLE&gt;" target="_top">
<polygon fill="lightgray" stroke="none" points="32.5,-97.88 32.5,-114.12 105.75,-114.12 105.75,-97.88 32.5,-97.88"/>
<text xml:space="preserve" text-anchor="start" x="33.5" y="-101.72" font-family="Arial" font-size="12.00">point location</text>
<polygon fill="none" stroke="black" points="31.5,-96.88 31.5,-115.12 106.75,-115.12 106.75,-96.88 31.5,-96.88"/>
</a>
</g>
</g>
<!-- geographic point location&#45;&gt;pointLocation -->
<g id="edge1" class="edge">
<title>geographic point location&#45;&gt;pointLocation</title>
<path fill="none" stroke="black" d="M69.12,-51.79C69.12,-59.25 69.12,-68.24 69.12,-76.69"/>
<polygon fill="none" stroke="black" points="65.63,-76.54 69.13,-86.54 72.63,-76.54 65.63,-76.54"/>
</g>
<!-- Invis -->
</g>
</svg>
