<?xml version="1.0" encoding="UTF-8" standalone="no"?>
<!DOCTYPE svg PUBLIC "-//W3C//DTD SVG 1.1//EN"
 "http://www.w3.org/Graphics/SVG/1.1/DTD/svg11.dtd">
<!-- Generated by graphviz version 14.0.2 (20251019.1705)
 -->
<!-- Pages: 1 -->
<svg width="246pt" height="175pt"
 viewBox="0.00 0.00 246.00 175.00" xmlns="http://www.w3.org/2000/svg" xmlns:xlink="http://www.w3.org/1999/xlink">
<g id="graph0" class="graph" transform="scale(1 1) rotate(0) translate(4 171)">
<polygon fill="white" stroke="none" points="-4,4 -4,-171 241.75,-171 241.75,4 -4,4"/>
<g id="clust2" class="cluster">
<title>cluster_associated</title>
</g>
<!-- geographic descriptor -->
<g id="node1" class="node">
<title>geographic descriptor</title>
<g id="a_node1"><a xlink:href="../classes/itsVocabulary__geographic descriptor.md" xlink:title="&lt;TABLE&gt;">
<polygon fill="lightgray" stroke="none" points="1,-124.88 1,-141.12 118.5,-141.12 118.5,-124.88 1,-124.88"/>
<text xml:space="preserve" text-anchor="start" x="2" y="-128.72" font-family="Arial" font-size="12.00">geographic descriptor</text>
<polygon fill="none" stroke="black" points="0,-123.88 0,-142.12 119.5,-142.12 119.5,-123.88 0,-123.88"/>
</a>
</g>
</g>
<!-- Invis -->
<!-- geographic descriptor&#45;&gt;Invis -->
<!-- spatialLocation -->
<g id="node3" class="node">
<title>spatialLocation</title>
<g id="a_node3"><a xlink:href="../spatial location/" xlink:title="&lt;TABLE&gt;" target="_top">
<polygon fill="lightgray" stroke="none" points="138.62,-25.88 138.62,-42.12 220.88,-42.12 220.88,-25.88 138.62,-25.88"/>
<text xml:space="preserve" text-anchor="start" x="139.62" y="-29.73" font-family="Arial" font-size="12.00">spatial location</text>
<polygon fill="none" stroke="black" points="137.62,-24.88 137.62,-43.12 221.88,-43.12 221.88,-24.88 137.62,-24.88"/>
</a>
</g>
</g>
<!-- geographic descriptor&#45;&gt;spatialLocation -->
<g id="edge3" class="edge">
<title>geographic descriptor&#45;&gt;spatialLocation</title>
<path fill="none" stroke="black" d="M70.73,-115.1C80.13,-101.61 94.66,-82.91 110.75,-70 116.52,-65.37 123.01,-61.11 129.63,-57.28"/>
<polygon fill="black" stroke="black" points="130.93,-60.56 138.03,-52.7 127.58,-54.41 130.93,-60.56"/>
<text xml:space="preserve" text-anchor="middle" x="143.75" y="-86.55" font-family="Arial" font-size="11.00"> helpsIdentify </text>
<text xml:space="preserve" text-anchor="middle" x="143.75" y="-73.05" font-family="Arial" font-size="11.00"> «some» &#160;</text>
</g>
<!-- Invis&#45;&gt;spatialLocation -->
</g>
</svg>
