<?xml version="1.0" encoding="UTF-8" standalone="no"?>
<!DOCTYPE svg PUBLIC "-//W3C//DTD SVG 1.1//EN"
 "http://www.w3.org/Graphics/SVG/1.1/DTD/svg11.dtd">
<!-- Generated by graphviz version 14.0.2 (20251019.1705)
 -->
<!-- Pages: 1 -->
<svg width="243pt" height="175pt"
 viewBox="0.00 0.00 243.00 175.00" xmlns="http://www.w3.org/2000/svg" xmlns:xlink="http://www.w3.org/1999/xlink">
<g id="graph0" class="graph" transform="scale(1 1) rotate(0) translate(4 171)">
<polygon fill="white" stroke="none" points="-4,4 -4,-171 238.5,-171 238.5,4 -4,4"/>
<g id="clust2" class="cluster">
<title>cluster_associated</title>
</g>
<!-- hard shoulder running -->
<g id="node1" class="node">
<title>hard shoulder running</title>
<g id="a_node1"><a xlink:href="../classes/itsVocabulary__hard shoulder running.md" xlink:title="&lt;TABLE&gt;">
<polygon fill="lightgray" stroke="none" points="1,-124.88 1,-141.12 120,-141.12 120,-124.88 1,-124.88"/>
<text xml:space="preserve" text-anchor="start" x="2" y="-128.72" font-family="Arial" font-size="12.00">hard shoulder running</text>
<polygon fill="none" stroke="black" points="0,-123.88 0,-142.12 121,-142.12 121,-123.88 0,-123.88"/>
</a>
</g>
</g>
<!-- Invis -->
<!-- hard shoulder running&#45;&gt;Invis -->
<!-- hardShoulder -->
<g id="node3" class="node">
<title>hardShoulder</title>
<g id="a_node3"><a xlink:href="../hard shoulder/" xlink:title="&lt;TABLE&gt;" target="_top">
<polygon fill="lightgray" stroke="none" points="141.75,-25.88 141.75,-42.12 217.25,-42.12 217.25,-25.88 141.75,-25.88"/>
<text xml:space="preserve" text-anchor="start" x="142.75" y="-29.73" font-family="Arial" font-size="12.00">hard shoulder</text>
<polygon fill="none" stroke="black" points="140.75,-24.88 140.75,-43.12 218.25,-43.12 218.25,-24.88 140.75,-24.88"/>
</a>
</g>
</g>
<!-- hard shoulder running&#45;&gt;hardShoulder -->
<g id="edge3" class="edge">
<title>hard shoulder running&#45;&gt;hardShoulder</title>
<path fill="none" stroke="black" d="M64.23,-115.17C68.09,-101.36 75.41,-82.16 88.25,-70 99.85,-59.02 115.26,-51.38 130.11,-46.11"/>
<polygon fill="black" stroke="black" points="130.87,-49.54 139.32,-43.14 128.73,-42.88 130.87,-49.54"/>
<text xml:space="preserve" text-anchor="middle" x="132.88" y="-86.55" font-family="Arial" font-size="11.00"> operatingModeOf </text>
<text xml:space="preserve" text-anchor="middle" x="132.88" y="-73.05" font-family="Arial" font-size="11.00"> «some» &#160;</text>
</g>
<!-- Invis&#45;&gt;hardShoulder -->
</g>
</svg>
