<?xml version="1.0" encoding="UTF-8" standalone="no"?>
<!DOCTYPE svg PUBLIC "-//W3C//DTD SVG 1.1//EN"
 "http://www.w3.org/Graphics/SVG/1.1/DTD/svg11.dtd">
<!-- Generated by graphviz version 14.0.2 (20251019.1705)
 -->
<!-- Pages: 1 -->
<svg width="276pt" height="232pt"
 viewBox="0.00 0.00 276.00 232.00" xmlns="http://www.w3.org/2000/svg" xmlns:xlink="http://www.w3.org/1999/xlink">
<g id="graph0" class="graph" transform="scale(1 1) rotate(0) translate(4 228)">
<polygon fill="white" stroke="none" points="-4,4 -4,-228 272.38,-228 272.38,4 -4,4"/>
<g id="clust2" class="cluster">
<title>cluster_associated</title>
</g>
<!-- in&#45;vehicle driver -->
<g id="node1" class="node">
<title>in&#45;vehicle driver</title>
<g id="a_node1"><a xlink:href="../classes/itsVocabulary__in-vehicle driver.md" xlink:title="&lt;TABLE&gt;">
<polygon fill="lightgray" stroke="none" points="180.62,-124.88 180.62,-141.12 267.38,-141.12 267.38,-124.88 180.62,-124.88"/>
<text xml:space="preserve" text-anchor="start" x="181.62" y="-128.72" font-family="Arial" font-size="12.00">in&#45;vehicle driver</text>
<polygon fill="none" stroke="black" points="179.62,-123.88 179.62,-142.12 268.38,-142.12 268.38,-123.88 179.62,-123.88"/>
</a>
</g>
</g>
<!-- driver -->
<g id="node2" class="node">
<title>driver</title>
<g id="a_node2"><a xlink:href="../driver/" xlink:title="&lt;TABLE&gt;" target="_top">
<polygon fill="lightgray" stroke="none" points="208,-197.88 208,-214.12 240,-214.12 240,-197.88 208,-197.88"/>
<text xml:space="preserve" text-anchor="start" x="209" y="-201.72" font-family="Arial" font-size="12.00">driver</text>
<polygon fill="none" stroke="black" points="207,-196.88 207,-215.12 241,-215.12 241,-196.88 207,-196.88"/>
</a>
</g>
</g>
<!-- in&#45;vehicle driver&#45;&gt;driver -->
<g id="edge1" class="edge">
<title>in&#45;vehicle driver&#45;&gt;driver</title>
<path fill="none" stroke="black" d="M224,-150.71C224,-158.47 224,-167.92 224,-176.74"/>
<polygon fill="none" stroke="black" points="220.5,-176.66 224,-186.66 227.5,-176.66 220.5,-176.66"/>
</g>
<!-- Invis -->
<!-- in&#45;vehicle driver&#45;&gt;Invis -->
<!-- built&#45;inVehicleInputDevice -->
<g id="node4" class="node">
<title>built&#45;inVehicleInputDevice</title>
<g id="a_node4"><a xlink:href="../built-in vehicle input device/" xlink:title="&lt;TABLE&gt;" target="_top">
<polygon fill="lightgray" stroke="none" points="16.62,-25.88 16.62,-42.12 163.38,-42.12 163.38,-25.88 16.62,-25.88"/>
<text xml:space="preserve" text-anchor="start" x="17.62" y="-29.73" font-family="Arial" font-size="12.00">built&#45;in vehicle input device</text>
<polygon fill="none" stroke="black" points="15.62,-24.88 15.62,-43.12 164.38,-43.12 164.38,-24.88 15.62,-24.88"/>
</a>
</g>
</g>
<!-- in&#45;vehicle driver&#45;&gt;built&#45;inVehicleInputDevice -->
<g id="edge4" class="edge">
<title>in&#45;vehicle driver&#45;&gt;built&#45;inVehicleInputDevice</title>
<path fill="none" stroke="black" d="M200.66,-115.1C178.95,-99.39 146.4,-75.83 122.22,-58.32"/>
<polygon fill="black" stroke="black" points="124.45,-55.62 114.3,-52.59 120.35,-61.29 124.45,-55.62"/>
<text xml:space="preserve" text-anchor="middle" x="196.57" y="-86.55" font-family="Arial" font-size="11.00"> uses </text>
<text xml:space="preserve" text-anchor="middle" x="196.57" y="-73.05" font-family="Arial" font-size="11.00"> «some» &#160;</text>
</g>
<!-- Invis&#45;&gt;built&#45;inVehicleInputDevice -->
</g>
</svg>
