<?xml version="1.0" encoding="UTF-8" standalone="no"?>
<!DOCTYPE svg PUBLIC "-//W3C//DTD SVG 1.1//EN"
 "http://www.w3.org/Graphics/SVG/1.1/DTD/svg11.dtd">
<!-- Generated by graphviz version 14.0.2 (20251019.1705)
 -->
<!-- Pages: 1 -->
<svg width="257pt" height="175pt"
 viewBox="0.00 0.00 257.00 175.00" xmlns="http://www.w3.org/2000/svg" xmlns:xlink="http://www.w3.org/1999/xlink">
<g id="graph0" class="graph" transform="scale(1 1) rotate(0) translate(4 171)">
<polygon fill="white" stroke="none" points="-4,4 -4,-171 253.25,-171 253.25,4 -4,4"/>
<g id="clust2" class="cluster">
<title>cluster_associated</title>
</g>
<!-- infrastructure descriptor -->
<g id="node1" class="node">
<title>infrastructure descriptor</title>
<g id="a_node1"><a xlink:href="../classes/itsVocabulary__infrastructure descriptor.md" xlink:title="&lt;TABLE&gt;">
<polygon fill="lightgray" stroke="none" points="1,-124.88 1,-141.12 127.5,-141.12 127.5,-124.88 1,-124.88"/>
<text xml:space="preserve" text-anchor="start" x="2" y="-128.72" font-family="Arial" font-size="12.00">infrastructure descriptor</text>
<polygon fill="none" stroke="black" points="0,-123.88 0,-142.12 128.5,-142.12 128.5,-123.88 0,-123.88"/>
</a>
</g>
</g>
<!-- Invis -->
<!-- infrastructure descriptor&#45;&gt;Invis -->
<!-- transportFacility -->
<g id="node3" class="node">
<title>transportFacility</title>
<g id="a_node3"><a xlink:href="../transport facility/" xlink:title="&lt;TABLE&gt;" target="_top">
<polygon fill="lightgray" stroke="none" points="146.62,-25.88 146.62,-42.12 231.88,-42.12 231.88,-25.88 146.62,-25.88"/>
<text xml:space="preserve" text-anchor="start" x="147.62" y="-29.73" font-family="Arial" font-size="12.00">transport facility</text>
<polygon fill="none" stroke="black" points="145.62,-24.88 145.62,-43.12 232.88,-43.12 232.88,-24.88 145.62,-24.88"/>
</a>
</g>
</g>
<!-- infrastructure descriptor&#45;&gt;transportFacility -->
<g id="edge3" class="edge">
<title>infrastructure descriptor&#45;&gt;transportFacility</title>
<path fill="none" stroke="black" d="M76.64,-115.17C87.14,-101.72 103.2,-83.04 120.25,-70 126.27,-65.4 132.99,-61.12 139.81,-57.25"/>
<polygon fill="black" stroke="black" points="141.31,-60.42 148.47,-52.6 138,-54.25 141.31,-60.42"/>
<text xml:space="preserve" text-anchor="middle" x="153.25" y="-86.55" font-family="Arial" font-size="11.00"> helpsIdentify </text>
<text xml:space="preserve" text-anchor="middle" x="153.25" y="-73.05" font-family="Arial" font-size="11.00"> «some» &#160;</text>
</g>
<!-- Invis&#45;&gt;transportFacility -->
</g>
</svg>
