<?xml version="1.0" encoding="UTF-8" standalone="no"?>
<!DOCTYPE svg PUBLIC "-//W3C//DTD SVG 1.1//EN"
 "http://www.w3.org/Graphics/SVG/1.1/DTD/svg11.dtd">
<!-- Generated by graphviz version 14.0.2 (20251019.1705)
 -->
<!-- Pages: 1 -->
<svg width="183pt" height="175pt"
 viewBox="0.00 0.00 183.00 175.00" xmlns="http://www.w3.org/2000/svg" xmlns:xlink="http://www.w3.org/1999/xlink">
<g id="graph0" class="graph" transform="scale(1 1) rotate(0) translate(4 171)">
<polygon fill="white" stroke="none" points="-4,4 -4,-171 178.62,-171 178.62,4 -4,4"/>
<g id="clust2" class="cluster">
<title>cluster_associated</title>
</g>
<!-- ingress lane -->
<g id="node1" class="node">
<title>ingress lane</title>
<g id="a_node1"><a xlink:href="../classes/itsVocabulary__ingress lane.md" xlink:title="&lt;TABLE&gt;">
<polygon fill="lightgray" stroke="none" points="1,-124.88 1,-141.12 68.25,-141.12 68.25,-124.88 1,-124.88"/>
<text xml:space="preserve" text-anchor="start" x="2" y="-128.72" font-family="Arial" font-size="12.00">ingress lane</text>
<polygon fill="none" stroke="black" points="0,-123.88 0,-142.12 69.25,-142.12 69.25,-123.88 0,-123.88"/>
</a>
</g>
</g>
<!-- Invis -->
<!-- ingress lane&#45;&gt;Invis -->
<!-- junction -->
<g id="node3" class="node">
<title>junction</title>
<g id="a_node3"><a xlink:href="../junction/" xlink:title="&lt;TABLE&gt;" target="_top">
<polygon fill="lightgray" stroke="none" points="109.62,-25.88 109.62,-42.12 153.62,-42.12 153.62,-25.88 109.62,-25.88"/>
<text xml:space="preserve" text-anchor="start" x="110.62" y="-29.73" font-family="Arial" font-size="12.00">junction</text>
<polygon fill="none" stroke="black" points="108.62,-24.88 108.62,-43.12 154.62,-43.12 154.62,-24.88 108.62,-24.88"/>
</a>
</g>
</g>
<!-- ingress lane&#45;&gt;junction -->
<g id="edge3" class="edge">
<title>ingress lane&#45;&gt;junction</title>
<path fill="none" stroke="black" d="M44.92,-115C53.41,-101.82 66.31,-83.56 80.38,-70 85.05,-65.5 90.36,-61.18 95.74,-57.2"/>
<polygon fill="black" stroke="black" points="97.37,-60.34 103.55,-51.73 93.35,-54.6 97.37,-60.34"/>
<text xml:space="preserve" text-anchor="middle" x="104" y="-86.55" font-family="Arial" font-size="11.00"> entryFor </text>
<text xml:space="preserve" text-anchor="middle" x="104" y="-73.05" font-family="Arial" font-size="11.00"> «some» &#160;</text>
</g>
<!-- Invis&#45;&gt;junction -->
</g>
</svg>
