<?xml version="1.0" encoding="UTF-8" standalone="no"?>
<!DOCTYPE svg PUBLIC "-//W3C//DTD SVG 1.1//EN"
 "http://www.w3.org/Graphics/SVG/1.1/DTD/svg11.dtd">
<!-- Generated by graphviz version 14.0.2 (20251019.1705)
 -->
<!-- Pages: 1 -->
<svg width="182pt" height="175pt"
 viewBox="0.00 0.00 182.00 175.00" xmlns="http://www.w3.org/2000/svg" xmlns:xlink="http://www.w3.org/1999/xlink">
<g id="graph0" class="graph" transform="scale(1 1) rotate(0) translate(4 171)">
<polygon fill="white" stroke="none" points="-4,4 -4,-171 178.38,-171 178.38,4 -4,4"/>
<g id="clust2" class="cluster">
<title>cluster_associated</title>
</g>
<!-- ingress link -->
<g id="node1" class="node">
<title>ingress link</title>
<g id="a_node1"><a xlink:href="../classes/itsVocabulary__ingress link.md" xlink:title="&lt;TABLE&gt;">
<polygon fill="lightgray" stroke="none" points="1,-124.88 1,-141.12 63.75,-141.12 63.75,-124.88 1,-124.88"/>
<text xml:space="preserve" text-anchor="start" x="2" y="-128.72" font-family="Arial" font-size="12.00">ingress link</text>
<polygon fill="none" stroke="black" points="0,-123.88 0,-142.12 64.75,-142.12 64.75,-123.88 0,-123.88"/>
</a>
</g>
</g>
<!-- Invis -->
<!-- ingress link&#45;&gt;Invis -->
<!-- ingressLane -->
<g id="node3" class="node">
<title>ingressLane</title>
<g id="a_node3"><a xlink:href="../ingress lane/" xlink:title="&lt;TABLE&gt;" target="_top">
<polygon fill="lightgray" stroke="none" points="89.75,-25.88 89.75,-42.12 157,-42.12 157,-25.88 89.75,-25.88"/>
<text xml:space="preserve" text-anchor="start" x="90.75" y="-29.73" font-family="Arial" font-size="12.00">ingress lane</text>
<polygon fill="none" stroke="black" points="88.75,-24.88 88.75,-43.12 158,-43.12 158,-24.88 88.75,-24.88"/>
</a>
</g>
</g>
<!-- ingress link&#45;&gt;ingressLane -->
<g id="edge3" class="edge">
<title>ingress link&#45;&gt;ingressLane</title>
<path fill="none" stroke="black" d="M37.12,-115.1C41.6,-101.61 49.42,-82.9 61.38,-70 66.51,-64.46 72.73,-59.56 79.22,-55.33"/>
<polygon fill="black" stroke="black" points="80.74,-58.5 87.53,-50.37 77.15,-52.49 80.74,-58.5"/>
<text xml:space="preserve" text-anchor="middle" x="91.38" y="-86.55" font-family="Arial" font-size="11.00"> aggregates </text>
<text xml:space="preserve" text-anchor="middle" x="91.38" y="-73.05" font-family="Arial" font-size="11.00"> «some» &#160;</text>
</g>
<!-- Invis&#45;&gt;ingressLane -->
</g>
</svg>
