<?xml version="1.0" encoding="UTF-8" standalone="no"?>
<!DOCTYPE svg PUBLIC "-//W3C//DTD SVG 1.1//EN"
 "http://www.w3.org/Graphics/SVG/1.1/DTD/svg11.dtd">
<!-- Generated by graphviz version 14.0.2 (20251019.1705)
 -->
<!-- Pages: 1 -->
<svg width="262pt" height="232pt"
 viewBox="0.00 0.00 262.00 232.00" xmlns="http://www.w3.org/2000/svg" xmlns:xlink="http://www.w3.org/1999/xlink">
<g id="graph0" class="graph" transform="scale(1 1) rotate(0) translate(4 228)">
<polygon fill="white" stroke="none" points="-4,4 -4,-228 257.5,-228 257.5,4 -4,4"/>
<g id="clust2" class="cluster">
<title>cluster_associated</title>
</g>
<!-- interchange -->
<g id="node1" class="node">
<title>interchange</title>
<g id="a_node1"><a xlink:href="../classes/itsVocabulary__interchange.md" xlink:title="&lt;TABLE&gt;">
<polygon fill="lightgray" stroke="none" points="187.5,-124.88 187.5,-141.12 252.5,-141.12 252.5,-124.88 187.5,-124.88"/>
<text xml:space="preserve" text-anchor="start" x="188.5" y="-128.72" font-family="Arial" font-size="12.00">interchange</text>
<polygon fill="none" stroke="black" points="186.5,-123.88 186.5,-142.12 253.5,-142.12 253.5,-123.88 186.5,-123.88"/>
</a>
</g>
</g>
<!-- junction -->
<g id="node2" class="node">
<title>junction</title>
<g id="a_node2"><a xlink:href="../junction/" xlink:title="&lt;TABLE&gt;" target="_top">
<polygon fill="lightgray" stroke="none" points="198,-197.88 198,-214.12 242,-214.12 242,-197.88 198,-197.88"/>
<text xml:space="preserve" text-anchor="start" x="199" y="-201.72" font-family="Arial" font-size="12.00">junction</text>
<polygon fill="none" stroke="black" points="197,-196.88 197,-215.12 243,-215.12 243,-196.88 197,-196.88"/>
</a>
</g>
</g>
<!-- interchange&#45;&gt;junction -->
<g id="edge1" class="edge">
<title>interchange&#45;&gt;junction</title>
<path fill="none" stroke="black" d="M220,-150.71C220,-158.47 220,-167.92 220,-176.74"/>
<polygon fill="none" stroke="black" points="216.5,-176.66 220,-186.66 223.5,-176.66 216.5,-176.66"/>
</g>
<!-- Invis -->
<!-- interchange&#45;&gt;Invis -->
<!-- gradeSeparatedManoeuvre -->
<g id="node4" class="node">
<title>gradeSeparatedManoeuvre</title>
<g id="a_node4"><a xlink:href="../grade separated manoeuvre/" xlink:title="&lt;TABLE&gt;" target="_top">
<polygon fill="lightgray" stroke="none" points="17,-25.88 17,-42.12 169,-42.12 169,-25.88 17,-25.88"/>
<text xml:space="preserve" text-anchor="start" x="18" y="-29.73" font-family="Arial" font-size="12.00">grade separated manoeuvre</text>
<polygon fill="none" stroke="black" points="16,-24.88 16,-43.12 170,-43.12 170,-24.88 16,-24.88"/>
</a>
</g>
</g>
<!-- interchange&#45;&gt;gradeSeparatedManoeuvre -->
<g id="edge4" class="edge">
<title>interchange&#45;&gt;gradeSeparatedManoeuvre</title>
<path fill="none" stroke="black" d="M197.88,-115.1C177.39,-99.46 146.73,-76.03 123.84,-58.55"/>
<polygon fill="black" stroke="black" points="126.14,-55.91 116.07,-52.62 121.89,-61.47 126.14,-55.91"/>
<text xml:space="preserve" text-anchor="middle" x="201.61" y="-86.55" font-family="Arial" font-size="11.00"> aggregates </text>
<text xml:space="preserve" text-anchor="middle" x="201.61" y="-73.05" font-family="Arial" font-size="11.00"> «some» &#160;</text>
</g>
<!-- Invis&#45;&gt;gradeSeparatedManoeuvre -->
</g>
</svg>
