<?xml version="1.0" encoding="UTF-8" standalone="no"?>
<!DOCTYPE svg PUBLIC "-//W3C//DTD SVG 1.1//EN"
 "http://www.w3.org/Graphics/SVG/1.1/DTD/svg11.dtd">
<!-- Generated by graphviz version 14.0.2 (20251019.1705)
 -->
<!-- Pages: 1 -->
<svg width="320pt" height="232pt"
 viewBox="0.00 0.00 320.00 232.00" xmlns="http://www.w3.org/2000/svg" xmlns:xlink="http://www.w3.org/1999/xlink">
<g id="graph0" class="graph" transform="scale(1 1) rotate(0) translate(4 228)">
<polygon fill="white" stroke="none" points="-4,4 -4,-228 315.88,-228 315.88,4 -4,4"/>
<g id="clust2" class="cluster">
<title>cluster_associated</title>
</g>
<!-- intelligent transport system -->
<g id="node1" class="node">
<title>intelligent transport system</title>
<g id="a_node1"><a xlink:href="../classes/itsVocabulary__intelligent transport system.md" xlink:title="&lt;TABLE&gt;">
<polygon fill="lightgray" stroke="none" points="167.12,-124.88 167.12,-141.12 310.88,-141.12 310.88,-124.88 167.12,-124.88"/>
<text xml:space="preserve" text-anchor="start" x="168.12" y="-128.72" font-family="Arial" font-size="12.00">intelligent transport system</text>
<polygon fill="none" stroke="black" points="166.12,-123.88 166.12,-142.12 311.88,-142.12 311.88,-123.88 166.12,-123.88"/>
</a>
</g>
</g>
<!-- system -->
<g id="node2" class="node">
<title>system</title>
<g id="a_node2"><a xlink:href="../system/" xlink:title="&lt;TABLE&gt;" target="_top">
<polygon fill="lightgray" stroke="none" points="219.25,-197.88 219.25,-214.12 258.75,-214.12 258.75,-197.88 219.25,-197.88"/>
<text xml:space="preserve" text-anchor="start" x="220.25" y="-201.72" font-family="Arial" font-size="12.00">system</text>
<polygon fill="none" stroke="black" points="218.25,-196.88 218.25,-215.12 259.75,-215.12 259.75,-196.88 218.25,-196.88"/>
</a>
</g>
</g>
<!-- intelligent transport system&#45;&gt;system -->
<g id="edge1" class="edge">
<title>intelligent transport system&#45;&gt;system</title>
<path fill="none" stroke="black" d="M239,-150.71C239,-158.47 239,-167.92 239,-176.74"/>
<polygon fill="none" stroke="black" points="235.5,-176.66 239,-186.66 242.5,-176.66 235.5,-176.66"/>
</g>
<!-- Invis -->
<!-- intelligent transport system&#45;&gt;Invis -->
<!-- surfaceTransportSystem -->
<g id="node4" class="node">
<title>surfaceTransportSystem</title>
<g id="a_node4"><a xlink:href="../surface transport system/" xlink:title="&lt;TABLE&gt;" target="_top">
<polygon fill="lightgray" stroke="none" points="17.5,-25.88 17.5,-42.12 148.5,-42.12 148.5,-25.88 17.5,-25.88"/>
<text xml:space="preserve" text-anchor="start" x="18.5" y="-29.73" font-family="Arial" font-size="12.00">surface transport system</text>
<polygon fill="none" stroke="black" points="16.5,-24.88 16.5,-43.12 149.5,-43.12 149.5,-24.88 16.5,-24.88"/>
</a>
</g>
</g>
<!-- intelligent transport system&#45;&gt;surfaceTransportSystem -->
<g id="edge4" class="edge">
<title>intelligent transport system&#45;&gt;surfaceTransportSystem</title>
<path fill="none" stroke="black" d="M211.83,-115.1C186.29,-99.23 147.89,-75.35 119.65,-57.79"/>
<polygon fill="black" stroke="black" points="121.75,-54.97 111.41,-52.66 118.05,-60.92 121.75,-54.97"/>
<text xml:space="preserve" text-anchor="middle" x="226.81" y="-86.55" font-family="Arial" font-size="11.00"> designedToBenefit </text>
<text xml:space="preserve" text-anchor="middle" x="226.81" y="-73.05" font-family="Arial" font-size="11.00"> «some» &#160;</text>
</g>
<!-- Invis&#45;&gt;surfaceTransportSystem -->
</g>
</svg>
