<?xml version="1.0" encoding="UTF-8" standalone="no"?>
<!DOCTYPE svg PUBLIC "-//W3C//DTD SVG 1.1//EN"
 "http://www.w3.org/Graphics/SVG/1.1/DTD/svg11.dtd">
<!-- Generated by graphviz version 14.0.2 (20251019.1705)
 -->
<!-- Pages: 1 -->
<svg width="184pt" height="305pt"
 viewBox="0.00 0.00 184.00 305.00" xmlns="http://www.w3.org/2000/svg" xmlns:xlink="http://www.w3.org/1999/xlink">
<g id="graph0" class="graph" transform="scale(1 1) rotate(0) translate(4 301)">
<polygon fill="white" stroke="none" points="-4,4 -4,-301 180,-301 180,4 -4,4"/>
<g id="clust2" class="cluster">
<title>cluster_associated</title>
</g>
<!-- ITS service -->
<g id="node1" class="node">
<title>ITS service</title>
<g id="a_node1"><a xlink:href="../classes/itsVocabulary__ITS service.md" xlink:title="&lt;TABLE&gt;">
<polygon fill="lightgray" stroke="none" points="113,-197.88 113,-214.12 175,-214.12 175,-197.88 113,-197.88"/>
<text xml:space="preserve" text-anchor="start" x="114" y="-201.72" font-family="Arial" font-size="12.00">ITS service</text>
<polygon fill="none" stroke="black" points="112,-196.88 112,-215.12 176,-215.12 176,-196.88 112,-196.88"/>
</a>
</g>
</g>
<!-- service -->
<g id="node2" class="node">
<title>service</title>
<g id="a_node2"><a xlink:href="../service/" xlink:title="&lt;TABLE&gt;" target="_top">
<polygon fill="lightgray" stroke="none" points="123.88,-270.88 123.88,-287.12 164.12,-287.12 164.12,-270.88 123.88,-270.88"/>
<text xml:space="preserve" text-anchor="start" x="124.88" y="-274.73" font-family="Arial" font-size="12.00">service</text>
<polygon fill="none" stroke="black" points="122.88,-269.88 122.88,-288.12 165.12,-288.12 165.12,-269.88 122.88,-269.88"/>
</a>
</g>
</g>
<!-- ITS service&#45;&gt;service -->
<g id="edge1" class="edge">
<title>ITS service&#45;&gt;service</title>
<path fill="none" stroke="black" d="M144,-223.71C144,-231.47 144,-240.92 144,-249.74"/>
<polygon fill="none" stroke="black" points="140.5,-249.66 144,-259.66 147.5,-249.66 140.5,-249.66"/>
</g>
<!-- Invis -->
<!-- ITS service&#45;&gt;Invis -->
<!-- itsUser -->
<g id="node4" class="node">
<title>itsUser</title>
<g id="a_node4"><a xlink:href="../ITS user/" xlink:title="&lt;TABLE&gt;" target="_top">
<polygon fill="lightgray" stroke="none" points="32.5,-98.88 32.5,-115.12 79.5,-115.12 79.5,-98.88 32.5,-98.88"/>
<text xml:space="preserve" text-anchor="start" x="33.5" y="-102.72" font-family="Arial" font-size="12.00">ITS user</text>
<polygon fill="none" stroke="black" points="31.5,-97.88 31.5,-116.12 80.5,-116.12 80.5,-97.88 31.5,-97.88"/>
</a>
</g>
</g>
<!-- ITS service&#45;&gt;itsUser -->
<g id="edge6" class="edge">
<title>ITS service&#45;&gt;itsUser</title>
<path fill="none" stroke="black" d="M112.26,-189.95C99,-183.16 85.56,-175.46 80.75,-170 72.24,-160.35 66.46,-147.41 62.64,-135.85"/>
<polygon fill="black" stroke="black" points="66.03,-134.99 59.87,-126.38 59.31,-136.96 66.03,-134.99"/>
<text xml:space="preserve" text-anchor="middle" x="104.38" y="-159.55" font-family="Arial" font-size="11.00"> for </text>
<text xml:space="preserve" text-anchor="middle" x="104.38" y="-146.05" font-family="Arial" font-size="11.00"> «some» &#160;</text>
</g>
<!-- itsUserNeed -->
<g id="node5" class="node">
<title>itsUserNeed</title>
<g id="a_node5"><a xlink:href="../ITS user need/" xlink:title="&lt;TABLE&gt;" target="_top">
<polygon fill="lightgray" stroke="none" points="17.5,-25.88 17.5,-42.12 94.5,-42.12 94.5,-25.88 17.5,-25.88"/>
<text xml:space="preserve" text-anchor="start" x="18.5" y="-29.73" font-family="Arial" font-size="12.00">ITS user need</text>
<polygon fill="none" stroke="black" points="16.5,-24.88 16.5,-43.12 95.5,-43.12 95.5,-24.88 16.5,-24.88"/>
</a>
</g>
</g>
<!-- ITS service&#45;&gt;itsUserNeed -->
<g id="edge5" class="edge">
<title>ITS service&#45;&gt;itsUserNeed</title>
<path fill="none" stroke="black" d="M141.24,-188.17C138.78,-175.41 134.53,-157.61 128,-143 114.53,-112.85 92.88,-81.82 76.84,-60.81"/>
<polygon fill="black" stroke="black" points="79.74,-58.84 70.84,-53.09 74.21,-63.13 79.74,-58.84"/>
<text xml:space="preserve" text-anchor="middle" x="142.01" y="-110.05" font-family="Arial" font-size="11.00"> fulfils </text>
<text xml:space="preserve" text-anchor="middle" x="142.01" y="-96.55" font-family="Arial" font-size="11.00"> «some» &#160;</text>
</g>
<!-- Invis&#45;&gt;itsUser -->
<!-- itsUser&#45;&gt;itsUserNeed -->
</g>
</svg>
