<?xml version="1.0" encoding="UTF-8" standalone="no"?>
<!DOCTYPE svg PUBLIC "-//W3C//DTD SVG 1.1//EN"
 "http://www.w3.org/Graphics/SVG/1.1/DTD/svg11.dtd">
<!-- Generated by graphviz version 14.0.2 (20251019.1705)
 -->
<!-- Pages: 1 -->
<svg width="234pt" height="175pt"
 viewBox="0.00 0.00 234.00 175.00" xmlns="http://www.w3.org/2000/svg" xmlns:xlink="http://www.w3.org/1999/xlink">
<g id="graph0" class="graph" transform="scale(1 1) rotate(0) translate(4 171)">
<polygon fill="white" stroke="none" points="-4,4 -4,-171 229.75,-171 229.75,4 -4,4"/>
<g id="clust2" class="cluster">
<title>cluster_associated</title>
</g>
<!-- ITS implementation -->
<g id="node1" class="node">
<title>ITS implementation</title>
<g id="a_node1"><a xlink:href="../classes/itsVocabulary__ITS implementation.md" xlink:title="&lt;TABLE&gt;">
<polygon fill="lightgray" stroke="none" points="1,-124.88 1,-141.12 106.5,-141.12 106.5,-124.88 1,-124.88"/>
<text xml:space="preserve" text-anchor="start" x="2" y="-128.72" font-family="Arial" font-size="12.00">ITS implementation</text>
<polygon fill="none" stroke="black" points="0,-123.88 0,-142.12 107.5,-142.12 107.5,-123.88 0,-123.88"/>
</a>
</g>
</g>
<!-- Invis -->
<!-- ITS implementation&#45;&gt;Invis -->
<!-- itsApplication -->
<g id="node3" class="node">
<title>itsApplication</title>
<g id="a_node3"><a xlink:href="../ITS application/" xlink:title="&lt;TABLE&gt;" target="_top">
<polygon fill="lightgray" stroke="none" points="126.62,-25.88 126.62,-42.12 208.88,-42.12 208.88,-25.88 126.62,-25.88"/>
<text xml:space="preserve" text-anchor="start" x="127.62" y="-29.73" font-family="Arial" font-size="12.00">ITS application</text>
<polygon fill="none" stroke="black" points="125.62,-24.88 125.62,-43.12 209.88,-43.12 209.88,-24.88 125.62,-24.88"/>
</a>
</g>
</g>
<!-- ITS implementation&#45;&gt;itsApplication -->
<g id="edge3" class="edge">
<title>ITS implementation&#45;&gt;itsApplication</title>
<path fill="none" stroke="black" d="M64.63,-115.23C73.93,-101.81 88.26,-83.15 104,-70 109.34,-65.54 115.34,-61.37 121.46,-57.59"/>
<polygon fill="black" stroke="black" points="122.93,-60.78 129.8,-52.72 119.4,-54.74 122.93,-60.78"/>
<text xml:space="preserve" text-anchor="middle" x="134.38" y="-86.55" font-family="Arial" font-size="11.00"> implements </text>
<text xml:space="preserve" text-anchor="middle" x="134.38" y="-73.05" font-family="Arial" font-size="11.00"> «some» &#160;</text>
</g>
<!-- Invis&#45;&gt;itsApplication -->
</g>
</svg>
