<?xml version="1.0" encoding="UTF-8" standalone="no"?>
<!DOCTYPE svg PUBLIC "-//W3C//DTD SVG 1.1//EN"
 "http://www.w3.org/Graphics/SVG/1.1/DTD/svg11.dtd">
<!-- Generated by graphviz version 14.0.2 (20251019.1705)
 -->
<!-- Pages: 1 -->
<svg width="218pt" height="232pt"
 viewBox="0.00 0.00 218.00 232.00" xmlns="http://www.w3.org/2000/svg" xmlns:xlink="http://www.w3.org/1999/xlink">
<g id="graph0" class="graph" transform="scale(1 1) rotate(0) translate(4 228)">
<polygon fill="white" stroke="none" points="-4,4 -4,-228 213.5,-228 213.5,4 -4,4"/>
<g id="clust2" class="cluster">
<title>cluster_associated</title>
</g>
<!-- ITS component -->
<g id="node1" class="node">
<title>ITS component</title>
<g id="a_node1"><a xlink:href="../classes/itsVocabulary__ITS component.md" xlink:title="&lt;TABLE&gt;">
<polygon fill="lightgray" stroke="none" points="125.5,-124.88 125.5,-141.12 208.5,-141.12 208.5,-124.88 125.5,-124.88"/>
<text xml:space="preserve" text-anchor="start" x="126.5" y="-128.72" font-family="Arial" font-size="12.00">ITS component</text>
<polygon fill="none" stroke="black" points="124.5,-123.88 124.5,-142.12 209.5,-142.12 209.5,-123.88 124.5,-123.88"/>
</a>
</g>
</g>
<!-- physicalObject -->
<g id="node2" class="node">
<title>physicalObject</title>
<g id="a_node2"><a xlink:href="../physical object/" xlink:title="&lt;TABLE&gt;" target="_top">
<polygon fill="lightgray" stroke="none" points="126.25,-197.88 126.25,-214.12 207.75,-214.12 207.75,-197.88 126.25,-197.88"/>
<text xml:space="preserve" text-anchor="start" x="127.25" y="-201.72" font-family="Arial" font-size="12.00">physical object</text>
<polygon fill="none" stroke="black" points="125.25,-196.88 125.25,-215.12 208.75,-215.12 208.75,-196.88 125.25,-196.88"/>
</a>
</g>
</g>
<!-- ITS component&#45;&gt;physicalObject -->
<g id="edge1" class="edge">
<title>ITS component&#45;&gt;physicalObject</title>
<path fill="none" stroke="black" d="M167,-150.71C167,-158.47 167,-167.92 167,-176.74"/>
<polygon fill="none" stroke="black" points="163.5,-176.66 167,-186.66 170.5,-176.66 163.5,-176.66"/>
</g>
<!-- Invis -->
<!-- ITS component&#45;&gt;Invis -->
<!-- functionalObject -->
<g id="node4" class="node">
<title>functionalObject</title>
<g id="a_node4"><a xlink:href="../functional object/" xlink:title="&lt;TABLE&gt;" target="_top">
<polygon fill="lightgray" stroke="none" points="17.5,-25.88 17.5,-42.12 106.5,-42.12 106.5,-25.88 17.5,-25.88"/>
<text xml:space="preserve" text-anchor="start" x="18.5" y="-29.73" font-family="Arial" font-size="12.00">functional object</text>
<polygon fill="none" stroke="black" points="16.5,-24.88 16.5,-43.12 107.5,-43.12 107.5,-24.88 16.5,-24.88"/>
</a>
</g>
</g>
<!-- ITS component&#45;&gt;functionalObject -->
<g id="edge4" class="edge">
<title>ITS component&#45;&gt;functionalObject</title>
<path fill="none" stroke="black" d="M148.71,-115.1C132.07,-99.73 107.32,-76.86 88.51,-59.49"/>
<polygon fill="black" stroke="black" points="90.91,-56.94 81.19,-52.73 86.16,-62.09 90.91,-56.94"/>
<text xml:space="preserve" text-anchor="middle" x="156.99" y="-86.55" font-family="Arial" font-size="11.00"> aggregates </text>
<text xml:space="preserve" text-anchor="middle" x="156.99" y="-73.05" font-family="Arial" font-size="11.00"> «some» &#160;</text>
</g>
<!-- Invis&#45;&gt;functionalObject -->
</g>
</svg>
