<?xml version="1.0" encoding="UTF-8" standalone="no"?>
<!DOCTYPE svg PUBLIC "-//W3C//DTD SVG 1.1//EN"
 "http://www.w3.org/Graphics/SVG/1.1/DTD/svg11.dtd">
<!-- Generated by graphviz version 14.0.2 (20251019.1705)
 -->
<!-- Pages: 1 -->
<svg width="239pt" height="132pt"
 viewBox="0.00 0.00 239.00 132.00" xmlns="http://www.w3.org/2000/svg" xmlns:xlink="http://www.w3.org/1999/xlink">
<g id="graph0" class="graph" transform="scale(1 1) rotate(0) translate(4 128)">
<polygon fill="white" stroke="none" points="-4,4 -4,-128 234.5,-128 234.5,4 -4,4"/>
<g id="clust2" class="cluster">
<title>cluster_associated</title>
</g>
<!-- ITS trust domain -->
<g id="node1" class="node">
<title>ITS trust domain</title>
<g id="a_node1"><a xlink:href="../classes/itsVocabulary__ITS trust domain.md" xlink:title="&lt;TABLE&gt;">
<polygon fill="lightgray" stroke="none" points="52,-25.88 52,-42.12 141,-42.12 141,-25.88 52,-25.88"/>
<text xml:space="preserve" text-anchor="start" x="53" y="-29.73" font-family="Arial" font-size="12.00">ITS trust domain</text>
<polygon fill="none" stroke="black" points="51,-24.88 51,-43.12 142,-43.12 142,-24.88 51,-24.88"/>
</a>
</g>
</g>
<!-- boundedSecuredManagedDomain -->
<g id="node2" class="node">
<title>boundedSecuredManagedDomain</title>
<g id="a_node2"><a xlink:href="../bounded secured managed domain/" xlink:title="&lt;TABLE&gt;" target="_top">
<polygon fill="lightgray" stroke="none" points="1,-97.88 1,-114.12 192,-114.12 192,-97.88 1,-97.88"/>
<text xml:space="preserve" text-anchor="start" x="2" y="-101.72" font-family="Arial" font-size="12.00">bounded secured managed domain</text>
<polygon fill="none" stroke="black" points="0,-96.88 0,-115.12 193,-115.12 193,-96.88 0,-96.88"/>
</a>
</g>
</g>
<!-- ITS trust domain&#45;&gt;boundedSecuredManagedDomain -->
<g id="edge1" class="edge">
<title>ITS trust domain&#45;&gt;boundedSecuredManagedDomain</title>
<path fill="none" stroke="black" d="M96.5,-51.79C96.5,-59.25 96.5,-68.24 96.5,-76.69"/>
<polygon fill="none" stroke="black" points="93,-76.54 96.5,-86.54 100,-76.54 93,-76.54"/>
</g>
<!-- Invis -->
</g>
</svg>
