<?xml version="1.0" encoding="UTF-8" standalone="no"?>
<!DOCTYPE svg PUBLIC "-//W3C//DTD SVG 1.1//EN"
 "http://www.w3.org/Graphics/SVG/1.1/DTD/svg11.dtd">
<!-- Generated by graphviz version 14.0.2 (20251019.1705)
 -->
<!-- Pages: 1 -->
<svg width="322pt" height="305pt"
 viewBox="0.00 0.00 322.00 305.00" xmlns="http://www.w3.org/2000/svg" xmlns:xlink="http://www.w3.org/1999/xlink">
<g id="graph0" class="graph" transform="scale(1 1) rotate(0) translate(4 301)">
<polygon fill="white" stroke="none" points="-4,4 -4,-301 317.5,-301 317.5,4 -4,4"/>
<g id="clust2" class="cluster">
<title>cluster_associated</title>
</g>
<!-- ITS station -->
<g id="node1" class="node">
<title>ITS station</title>
<g id="a_node1"><a xlink:href="../classes/itsVocabulary__ITS station.md" xlink:title="&lt;TABLE&gt;">
<polygon fill="lightgray" stroke="none" points="187.5,-197.88 187.5,-214.12 246.5,-214.12 246.5,-197.88 187.5,-197.88"/>
<text xml:space="preserve" text-anchor="start" x="188.5" y="-201.72" font-family="Arial" font-size="12.00">ITS station</text>
<polygon fill="none" stroke="black" points="186.5,-196.88 186.5,-215.12 247.5,-215.12 247.5,-196.88 186.5,-196.88"/>
</a>
</g>
</g>
<!-- boundedSecuredManagedDomain -->
<g id="node2" class="node">
<title>boundedSecuredManagedDomain</title>
<g id="a_node2"><a xlink:href="../bounded secured managed domain/" xlink:title="&lt;TABLE&gt;" target="_top">
<polygon fill="lightgray" stroke="none" points="121.5,-270.88 121.5,-287.12 312.5,-287.12 312.5,-270.88 121.5,-270.88"/>
<text xml:space="preserve" text-anchor="start" x="122.5" y="-274.73" font-family="Arial" font-size="12.00">bounded secured managed domain</text>
<polygon fill="none" stroke="black" points="120.5,-269.88 120.5,-288.12 313.5,-288.12 313.5,-269.88 120.5,-269.88"/>
</a>
</g>
</g>
<!-- ITS station&#45;&gt;boundedSecuredManagedDomain -->
<g id="edge1" class="edge">
<title>ITS station&#45;&gt;boundedSecuredManagedDomain</title>
<path fill="none" stroke="black" d="M217,-223.71C217,-231.47 217,-240.92 217,-249.74"/>
<polygon fill="none" stroke="black" points="213.5,-249.66 217,-259.66 220.5,-249.66 213.5,-249.66"/>
</g>
<!-- Invis -->
<!-- ITS station&#45;&gt;Invis -->
<!-- its&#45;sReferenceArchitecture -->
<g id="node4" class="node">
<title>its&#45;sReferenceArchitecture</title>
<g id="a_node4"><a xlink:href="../ITS-S reference architecture/" xlink:title="&lt;TABLE&gt;" target="_top">
<polygon fill="lightgray" stroke="none" points="17.38,-98.88 17.38,-115.12 168.62,-115.12 168.62,-98.88 17.38,-98.88"/>
<text xml:space="preserve" text-anchor="start" x="18.38" y="-102.72" font-family="Arial" font-size="12.00">ITS&#45;S reference architecture</text>
<polygon fill="none" stroke="black" points="16.38,-97.88 16.38,-116.12 169.62,-116.12 169.62,-97.88 16.38,-97.88"/>
</a>
</g>
</g>
<!-- ITS station&#45;&gt;its&#45;sReferenceArchitecture -->
<g id="edge6" class="edge">
<title>ITS station&#45;&gt;its&#45;sReferenceArchitecture</title>
<path fill="none" stroke="black" d="M186.55,-189.97C185.02,-189.29 183.49,-188.63 182,-188 160.13,-178.8 150.22,-184.88 131.75,-170 120.28,-160.76 111.25,-147.16 104.8,-135.05"/>
<polygon fill="black" stroke="black" points="108.04,-133.71 100.47,-126.3 101.77,-136.82 108.04,-133.71"/>
<text xml:space="preserve" text-anchor="middle" x="164.38" y="-159.55" font-family="Arial" font-size="11.00"> describedBy </text>
<text xml:space="preserve" text-anchor="middle" x="164.38" y="-146.05" font-family="Arial" font-size="11.00"> «some» &#160;</text>
</g>
<!-- itsTrustDomain -->
<g id="node5" class="node">
<title>itsTrustDomain</title>
<g id="a_node5"><a xlink:href="../ITS trust domain/" xlink:title="&lt;TABLE&gt;" target="_top">
<polygon fill="lightgray" stroke="none" points="64.5,-25.88 64.5,-42.12 153.5,-42.12 153.5,-25.88 64.5,-25.88"/>
<text xml:space="preserve" text-anchor="start" x="65.5" y="-29.73" font-family="Arial" font-size="12.00">ITS trust domain</text>
<polygon fill="none" stroke="black" points="63.5,-24.88 63.5,-43.12 154.5,-43.12 154.5,-24.88 63.5,-24.88"/>
</a>
</g>
</g>
<!-- ITS station&#45;&gt;itsTrustDomain -->
<g id="edge5" class="edge">
<title>ITS station&#45;&gt;itsTrustDomain</title>
<path fill="none" stroke="black" d="M214.72,-188.22C210.8,-164.32 200.97,-119.92 179,-89 170.58,-77.15 158.82,-66.68 147.33,-58.19"/>
<polygon fill="black" stroke="black" points="149.68,-55.56 139.48,-52.68 145.66,-61.29 149.68,-55.56"/>
<text xml:space="preserve" text-anchor="middle" x="254.86" y="-110.05" font-family="Arial" font-size="11.00"> meetsRequirementsOf </text>
<text xml:space="preserve" text-anchor="middle" x="254.86" y="-96.55" font-family="Arial" font-size="11.00"> «some» &#160;</text>
</g>
<!-- Invis&#45;&gt;its&#45;sReferenceArchitecture -->
<!-- its&#45;sReferenceArchitecture&#45;&gt;itsTrustDomain -->
</g>
</svg>
