<?xml version="1.0" encoding="UTF-8" standalone="no"?>
<!DOCTYPE svg PUBLIC "-//W3C//DTD SVG 1.1//EN"
 "http://www.w3.org/Graphics/SVG/1.1/DTD/svg11.dtd">
<!-- Generated by graphviz version 14.0.2 (20251019.1705)
 -->
<!-- Pages: 1 -->
<svg width="274pt" height="175pt"
 viewBox="0.00 0.00 274.00 175.00" xmlns="http://www.w3.org/2000/svg" xmlns:xlink="http://www.w3.org/1999/xlink">
<g id="graph0" class="graph" transform="scale(1 1) rotate(0) translate(4 171)">
<polygon fill="white" stroke="none" points="-4,4 -4,-171 269.62,-171 269.62,4 -4,4"/>
<g id="clust2" class="cluster">
<title>cluster_associated</title>
</g>
<!-- ITS&#45;S communication unit -->
<g id="node1" class="node">
<title>ITS&#45;S communication unit</title>
<g id="a_node1"><a xlink:href="../classes/itsVocabulary__ITS-S communication unit.md" xlink:title="&lt;TABLE&gt;">
<polygon fill="lightgray" stroke="none" points="1,-124.88 1,-141.12 140.25,-141.12 140.25,-124.88 1,-124.88"/>
<text xml:space="preserve" text-anchor="start" x="2" y="-128.72" font-family="Arial" font-size="12.00">ITS&#45;S communication unit</text>
<polygon fill="none" stroke="black" points="0,-123.88 0,-142.12 141.25,-142.12 141.25,-123.88 0,-123.88"/>
</a>
</g>
</g>
<!-- Invis -->
<!-- ITS&#45;S communication unit&#45;&gt;Invis -->
<!-- functionalObject -->
<g id="node3" class="node">
<title>functionalObject</title>
<g id="a_node3"><a xlink:href="../functional object/" xlink:title="&lt;TABLE&gt;" target="_top">
<polygon fill="lightgray" stroke="none" points="159.12,-25.88 159.12,-42.12 248.12,-42.12 248.12,-25.88 159.12,-25.88"/>
<text xml:space="preserve" text-anchor="start" x="160.12" y="-29.73" font-family="Arial" font-size="12.00">functional object</text>
<polygon fill="none" stroke="black" points="158.12,-24.88 158.12,-43.12 249.12,-43.12 249.12,-24.88 158.12,-24.88"/>
</a>
</g>
</g>
<!-- ITS&#45;S communication unit&#45;&gt;functionalObject -->
<g id="edge3" class="edge">
<title>ITS&#45;S communication unit&#45;&gt;functionalObject</title>
<path fill="none" stroke="black" d="M92.26,-115.12C108.62,-102.48 131.7,-84.88 152.38,-70 157.75,-66.13 163.5,-62.1 169.14,-58.21"/>
<polygon fill="black" stroke="black" points="170.91,-61.24 177.18,-52.7 166.95,-55.46 170.91,-61.24"/>
<text xml:space="preserve" text-anchor="middle" x="176" y="-86.55" font-family="Arial" font-size="11.00"> contains </text>
<text xml:space="preserve" text-anchor="middle" x="176" y="-73.05" font-family="Arial" font-size="11.00"> «some» &#160;</text>
</g>
<!-- Invis&#45;&gt;functionalObject -->
</g>
</svg>
