<?xml version="1.0" encoding="UTF-8" standalone="no"?>
<!DOCTYPE svg PUBLIC "-//W3C//DTD SVG 1.1//EN"
 "http://www.w3.org/Graphics/SVG/1.1/DTD/svg11.dtd">
<!-- Generated by graphviz version 14.0.2 (20251019.1705)
 -->
<!-- Pages: 1 -->
<svg width="275pt" height="248pt"
 viewBox="0.00 0.00 275.00 248.00" xmlns="http://www.w3.org/2000/svg" xmlns:xlink="http://www.w3.org/1999/xlink">
<g id="graph0" class="graph" transform="scale(1 1) rotate(0) translate(4 244)">
<polygon fill="white" stroke="none" points="-4,4 -4,-244 270.62,-244 270.62,4 -4,4"/>
<g id="clust2" class="cluster">
<title>cluster_associated</title>
</g>
<!-- ITS&#45;S application process -->
<g id="node1" class="node">
<title>ITS&#45;S application process</title>
<g id="a_node1"><a xlink:href="../classes/itsVocabulary__ITS-S application process.md" xlink:title="&lt;TABLE&gt;">
<polygon fill="lightgray" stroke="none" points="1,-197.88 1,-214.12 140.25,-214.12 140.25,-197.88 1,-197.88"/>
<text xml:space="preserve" text-anchor="start" x="2" y="-201.72" font-family="Arial" font-size="12.00">ITS&#45;S application process</text>
<polygon fill="none" stroke="black" points="0,-196.88 0,-215.12 141.25,-215.12 141.25,-196.88 0,-196.88"/>
</a>
</g>
</g>
<!-- Invis -->
<!-- ITS&#45;S application process&#45;&gt;Invis -->
<!-- its&#45;sService -->
<g id="node3" class="node">
<title>its&#45;sService</title>
<g id="a_node3"><a xlink:href="../ITS-S service/" xlink:title="&lt;TABLE&gt;" target="_top">
<polygon fill="lightgray" stroke="none" points="175.62,-98.88 175.62,-115.12 249.62,-115.12 249.62,-98.88 175.62,-98.88"/>
<text xml:space="preserve" text-anchor="start" x="176.62" y="-102.72" font-family="Arial" font-size="12.00">ITS&#45;S service</text>
<polygon fill="none" stroke="black" points="174.62,-97.88 174.62,-116.12 250.62,-116.12 250.62,-97.88 174.62,-97.88"/>
</a>
</g>
</g>
<!-- ITS&#45;S application process&#45;&gt;its&#45;sService -->
<g id="edge4" class="edge">
<title>ITS&#45;S application process&#45;&gt;its&#45;sService</title>
<path fill="none" stroke="black" d="M64.48,-188.17C60.68,-174.55 58.2,-155.62 68.12,-143 79.95,-127.97 126.49,-118.61 163.61,-113.4"/>
<polygon fill="black" stroke="black" points="163.82,-116.9 173.27,-112.11 162.9,-109.96 163.82,-116.9"/>
<text xml:space="preserve" text-anchor="middle" x="154.38" y="-159.55" font-family="Arial" font-size="11.00"> performsInformationProcessingFor </text>
<text xml:space="preserve" text-anchor="middle" x="154.38" y="-146.05" font-family="Arial" font-size="11.00"> «some» &#160;</text>
</g>
<!-- itsStation -->
<g id="node4" class="node">
<title>itsStation</title>
<g id="a_node4"><a xlink:href="../ITS station/" xlink:title="&lt;TABLE&gt;" target="_top">
<polygon fill="lightgray" stroke="none" points="179.12,-25.88 179.12,-42.12 238.12,-42.12 238.12,-25.88 179.12,-25.88"/>
<text xml:space="preserve" text-anchor="start" x="180.12" y="-29.73" font-family="Arial" font-size="12.00">ITS station</text>
<polygon fill="none" stroke="black" points="178.12,-24.88 178.12,-43.12 239.12,-43.12 239.12,-24.88 178.12,-24.88"/>
</a>
</g>
</g>
<!-- ITS&#45;S application process&#45;&gt;itsStation -->
<g id="edge5" class="edge">
<title>ITS&#45;S application process&#45;&gt;itsStation</title>
<path fill="none" stroke="black" d="M61.83,-188.17C56.39,-175.4 51.51,-157.61 57.62,-143 77.35,-95.84 130.58,-65.67 168.24,-49.53"/>
<polygon fill="black" stroke="black" points="169.09,-52.96 177.01,-45.92 166.43,-46.49 169.09,-52.96"/>
<text xml:space="preserve" text-anchor="middle" x="126.57" y="-110.05" font-family="Arial" font-size="11.00"> elementIn </text>
<text xml:space="preserve" text-anchor="middle" x="126.57" y="-96.55" font-family="Arial" font-size="11.00"> «some» &#160;</text>
</g>
<!-- Invis&#45;&gt;its&#45;sService -->
<!-- its&#45;sService&#45;&gt;itsStation -->
</g>
</svg>
