<?xml version="1.0" encoding="UTF-8" standalone="no"?>
<!DOCTYPE svg PUBLIC "-//W3C//DTD SVG 1.1//EN"
 "http://www.w3.org/Graphics/SVG/1.1/DTD/svg11.dtd">
<!-- Generated by graphviz version 14.0.2 (20251019.1705)
 -->
<!-- Pages: 1 -->
<svg width="276pt" height="132pt"
 viewBox="0.00 0.00 276.00 132.00" xmlns="http://www.w3.org/2000/svg" xmlns:xlink="http://www.w3.org/1999/xlink">
<g id="graph0" class="graph" transform="scale(1 1) rotate(0) translate(4 128)">
<polygon fill="white" stroke="none" points="-4,4 -4,-128 272,-128 272,4 -4,4"/>
<g id="clust2" class="cluster">
<title>cluster_associated</title>
</g>
<!-- ITS&#45;S application installation -->
<g id="node1" class="node">
<title>ITS&#45;S application installation</title>
<g id="a_node1"><a xlink:href="../classes/itsVocabulary__ITS-S application installation.md" xlink:title="&lt;TABLE&gt;">
<polygon fill="lightgray" stroke="none" points="23.5,-25.88 23.5,-42.12 178.5,-42.12 178.5,-25.88 23.5,-25.88"/>
<text xml:space="preserve" text-anchor="start" x="24.5" y="-29.73" font-family="Arial" font-size="12.00">ITS&#45;S application installation</text>
<polygon fill="none" stroke="black" points="22.5,-24.88 22.5,-43.12 179.5,-43.12 179.5,-24.88 22.5,-24.88"/>
</a>
</g>
</g>
<!-- its&#45;sApplicationProcessInstallation -->
<g id="node2" class="node">
<title>its&#45;sApplicationProcessInstallation</title>
<g id="a_node2"><a xlink:href="../ITS-S application process installation/" xlink:title="&lt;TABLE&gt;" target="_top">
<polygon fill="lightgray" stroke="none" points="1,-97.88 1,-114.12 201,-114.12 201,-97.88 1,-97.88"/>
<text xml:space="preserve" text-anchor="start" x="2" y="-101.72" font-family="Arial" font-size="12.00">ITS&#45;S application process installation</text>
<polygon fill="none" stroke="black" points="0,-96.88 0,-115.12 202,-115.12 202,-96.88 0,-96.88"/>
</a>
</g>
</g>
<!-- ITS&#45;S application installation&#45;&gt;its&#45;sApplicationProcessInstallation -->
<g id="edge1" class="edge">
<title>ITS&#45;S application installation&#45;&gt;its&#45;sApplicationProcessInstallation</title>
<path fill="none" stroke="black" d="M101,-51.79C101,-59.25 101,-68.24 101,-76.69"/>
<polygon fill="none" stroke="black" points="97.5,-76.54 101,-86.54 104.5,-76.54 97.5,-76.54"/>
</g>
<!-- Invis -->
</g>
</svg>
