<?xml version="1.0" encoding="UTF-8" standalone="no"?>
<!DOCTYPE svg PUBLIC "-//W3C//DTD SVG 1.1//EN"
 "http://www.w3.org/Graphics/SVG/1.1/DTD/svg11.dtd">
<!-- Generated by graphviz version 14.0.2 (20251019.1705)
 -->
<!-- Pages: 1 -->
<svg width="340pt" height="232pt"
 viewBox="0.00 0.00 340.00 232.00" xmlns="http://www.w3.org/2000/svg" xmlns:xlink="http://www.w3.org/1999/xlink">
<g id="graph0" class="graph" transform="scale(1 1) rotate(0) translate(4 228)">
<polygon fill="white" stroke="none" points="-4,4 -4,-228 336.43,-228 336.43,4 -4,4"/>
<g id="clust2" class="cluster">
<title>cluster_associated</title>
</g>
<!-- ITS&#45;SU user need -->
<g id="node1" class="node">
<title>ITS&#45;SU user need</title>
<g id="a_node1"><a xlink:href="../classes/itsVocabulary__ITS-SU user need.md" xlink:title="&lt;TABLE&gt;">
<polygon fill="lightgray" stroke="none" points="215,-124.88 215,-141.12 313,-141.12 313,-124.88 215,-124.88"/>
<text xml:space="preserve" text-anchor="start" x="216" y="-128.72" font-family="Arial" font-size="12.00">ITS&#45;SU user need</text>
<polygon fill="none" stroke="black" points="214,-123.88 214,-142.12 314,-142.12 314,-123.88 214,-123.88"/>
</a>
</g>
</g>
<!-- userNeed -->
<g id="node2" class="node">
<title>userNeed</title>
<g id="a_node2"><a xlink:href="../user need/" xlink:title="&lt;TABLE&gt;" target="_top">
<polygon fill="lightgray" stroke="none" points="236.38,-197.88 236.38,-214.12 291.62,-214.12 291.62,-197.88 236.38,-197.88"/>
<text xml:space="preserve" text-anchor="start" x="237.38" y="-201.72" font-family="Arial" font-size="12.00">user need</text>
<polygon fill="none" stroke="black" points="235.38,-196.88 235.38,-215.12 292.62,-215.12 292.62,-196.88 235.38,-196.88"/>
</a>
</g>
</g>
<!-- ITS&#45;SU user need&#45;&gt;userNeed -->
<g id="edge1" class="edge">
<title>ITS&#45;SU user need&#45;&gt;userNeed</title>
<path fill="none" stroke="black" d="M264,-150.71C264,-158.47 264,-167.92 264,-176.74"/>
<polygon fill="none" stroke="black" points="260.5,-176.66 264,-186.66 267.5,-176.66 260.5,-176.66"/>
</g>
<!-- Invis -->
<!-- ITS&#45;SU user need&#45;&gt;Invis -->
<!-- boundedSecureManagedDomain -->
<g id="node4" class="node">
<title>boundedSecureManagedDomain</title>
<polygon fill="lightgray" stroke="none" points="17.12,-25.88 17.12,-42.12 196.88,-42.12 196.88,-25.88 17.12,-25.88"/>
<text xml:space="preserve" text-anchor="start" x="18.12" y="-29.73" font-family="Arial" font-size="12.00">boundedSecureManagedDomain</text>
<polygon fill="none" stroke="black" points="16.12,-24.88 16.12,-43.12 197.88,-43.12 197.88,-24.88 16.12,-24.88"/>
</g>
<!-- ITS&#45;SU user need&#45;&gt;boundedSecureManagedDomain -->
<g id="edge4" class="edge">
<title>ITS&#45;SU user need&#45;&gt;boundedSecureManagedDomain</title>
<path fill="none" stroke="black" d="M236.65,-115.1C210.95,-99.23 172.3,-75.35 143.88,-57.79"/>
<polygon fill="black" stroke="black" points="145.93,-54.94 135.58,-52.66 142.25,-60.89 145.93,-54.94"/>
<text xml:space="preserve" text-anchor="middle" x="268.3" y="-86.55" font-family="Arial" font-size="11.00"> requiresProcessingWithin </text>
<text xml:space="preserve" text-anchor="middle" x="268.3" y="-73.05" font-family="Arial" font-size="11.00"> «some» &#160;</text>
</g>
<!-- Invis&#45;&gt;boundedSecureManagedDomain -->
</g>
</svg>
