<?xml version="1.0" encoding="UTF-8" standalone="no"?>
<!DOCTYPE svg PUBLIC "-//W3C//DTD SVG 1.1//EN"
 "http://www.w3.org/Graphics/SVG/1.1/DTD/svg11.dtd">
<!-- Generated by graphviz version 14.0.2 (20251019.1705)
 -->
<!-- Pages: 1 -->
<svg width="210pt" height="232pt"
 viewBox="0.00 0.00 210.00 232.00" xmlns="http://www.w3.org/2000/svg" xmlns:xlink="http://www.w3.org/1999/xlink">
<g id="graph0" class="graph" transform="scale(1 1) rotate(0) translate(4 228)">
<polygon fill="white" stroke="none" points="-4,4 -4,-228 206,-228 206,4 -4,4"/>
<g id="clust2" class="cluster">
<title>cluster_associated</title>
</g>
<!-- ITS&#45;SU user -->
<g id="node1" class="node">
<title>ITS&#45;SU user</title>
<g id="a_node1"><a xlink:href="../classes/itsVocabulary__ITS-SU user.md" xlink:title="&lt;TABLE&gt;">
<polygon fill="lightgray" stroke="none" points="133,-124.88 133,-141.12 201,-141.12 201,-124.88 133,-124.88"/>
<text xml:space="preserve" text-anchor="start" x="134" y="-128.72" font-family="Arial" font-size="12.00">ITS&#45;SU user</text>
<polygon fill="none" stroke="black" points="132,-123.88 132,-142.12 202,-142.12 202,-123.88 132,-123.88"/>
</a>
</g>
</g>
<!-- user -->
<g id="node2" class="node">
<title>user</title>
<g id="a_node2"><a xlink:href="../user/" xlink:title="&lt;TABLE&gt;" target="_top">
<polygon fill="lightgray" stroke="none" points="154.38,-197.88 154.38,-214.12 179.62,-214.12 179.62,-197.88 154.38,-197.88"/>
<text xml:space="preserve" text-anchor="start" x="155.38" y="-201.72" font-family="Arial" font-size="12.00">user</text>
<polygon fill="none" stroke="black" points="153.38,-196.88 153.38,-215.12 180.62,-215.12 180.62,-196.88 153.38,-196.88"/>
</a>
</g>
</g>
<!-- ITS&#45;SU user&#45;&gt;user -->
<g id="edge1" class="edge">
<title>ITS&#45;SU user&#45;&gt;user</title>
<path fill="none" stroke="black" d="M167,-150.71C167,-158.47 167,-167.92 167,-176.74"/>
<polygon fill="none" stroke="black" points="163.5,-176.66 167,-186.66 170.5,-176.66 163.5,-176.66"/>
</g>
<!-- Invis -->
<!-- ITS&#45;SU user&#45;&gt;Invis -->
<!-- its&#45;suUserNeed -->
<g id="node4" class="node">
<title>its&#45;suUserNeed</title>
<g id="a_node4"><a xlink:href="../ITS-SU user need/" xlink:title="&lt;TABLE&gt;" target="_top">
<polygon fill="lightgray" stroke="none" points="17,-25.88 17,-42.12 115,-42.12 115,-25.88 17,-25.88"/>
<text xml:space="preserve" text-anchor="start" x="18" y="-29.73" font-family="Arial" font-size="12.00">ITS&#45;SU user need</text>
<polygon fill="none" stroke="black" points="16,-24.88 16,-43.12 116,-43.12 116,-24.88 16,-24.88"/>
</a>
</g>
</g>
<!-- ITS&#45;SU user&#45;&gt;its&#45;suUserNeed -->
<g id="edge4" class="edge">
<title>ITS&#45;SU user&#45;&gt;its&#45;suUserNeed</title>
<path fill="none" stroke="black" d="M149.41,-115.1C133.33,-99.66 109.38,-76.66 91.26,-59.26"/>
<polygon fill="black" stroke="black" points="94.12,-57.15 84.48,-52.75 89.27,-62.2 94.12,-57.15"/>
<text xml:space="preserve" text-anchor="middle" x="152.14" y="-86.55" font-family="Arial" font-size="11.00"> has </text>
<text xml:space="preserve" text-anchor="middle" x="152.14" y="-73.05" font-family="Arial" font-size="11.00"> «some» &#160;</text>
</g>
<!-- Invis&#45;&gt;its&#45;suUserNeed -->
</g>
</svg>
