<?xml version="1.0" encoding="UTF-8" standalone="no"?>
<!DOCTYPE svg PUBLIC "-//W3C//DTD SVG 1.1//EN"
 "http://www.w3.org/Graphics/SVG/1.1/DTD/svg11.dtd">
<!-- Generated by graphviz version 14.0.2 (20251019.1705)
 -->
<!-- Pages: 1 -->
<svg width="474pt" height="649pt"
 viewBox="0.00 0.00 474.00 649.00" xmlns="http://www.w3.org/2000/svg" xmlns:xlink="http://www.w3.org/1999/xlink">
<g id="graph0" class="graph" transform="scale(1 1) rotate(0) translate(4 645)">
<polygon fill="white" stroke="none" points="-4,4 -4,-645 470,-645 470,4 -4,4"/>
<g id="clust2" class="cluster">
<title>cluster_associated</title>
</g>
<!-- ITS&#45;S reference architecture -->
<g id="node1" class="node">
<title>ITS&#45;S reference architecture</title>
<g id="a_node1"><a xlink:href="../classes/itsVocabulary__ITS-S reference architecture.md" xlink:title="&lt;TABLE&gt;">
<polygon fill="lightgray" stroke="none" points="158.38,-541.88 158.38,-558.12 309.62,-558.12 309.62,-541.88 158.38,-541.88"/>
<text xml:space="preserve" text-anchor="start" x="159.38" y="-545.73" font-family="Arial" font-size="12.00">ITS&#45;S reference architecture</text>
<polygon fill="none" stroke="black" points="157.38,-540.88 157.38,-559.12 310.62,-559.12 310.62,-540.88 157.38,-540.88"/>
</a>
</g>
</g>
<!-- referenceArchitecture -->
<g id="node2" class="node">
<title>referenceArchitecture</title>
<g id="a_node2"><a xlink:href="../reference architecture/" xlink:title="&lt;TABLE&gt;" target="_top">
<polygon fill="lightgray" stroke="none" points="175.25,-614.88 175.25,-631.12 292.75,-631.12 292.75,-614.88 175.25,-614.88"/>
<text xml:space="preserve" text-anchor="start" x="176.25" y="-618.73" font-family="Arial" font-size="12.00">reference architecture</text>
<polygon fill="none" stroke="black" points="174.25,-613.88 174.25,-632.12 293.75,-632.12 293.75,-613.88 174.25,-613.88"/>
</a>
</g>
</g>
<!-- ITS&#45;S reference architecture&#45;&gt;referenceArchitecture -->
<g id="edge1" class="edge">
<title>ITS&#45;S reference architecture&#45;&gt;referenceArchitecture</title>
<path fill="none" stroke="black" d="M234,-567.71C234,-575.47 234,-584.92 234,-593.74"/>
<polygon fill="none" stroke="black" points="230.5,-593.66 234,-603.66 237.5,-593.66 230.5,-593.66"/>
</g>
<!-- Invis -->
<!-- ITS&#45;S reference architecture&#45;&gt;Invis -->
<!-- applicationEntity -->
<g id="node4" class="node">
<title>applicationEntity</title>
<g id="a_node4"><a xlink:href="../application entity/" xlink:title="&lt;TABLE&gt;" target="_top">
<polygon fill="lightgray" stroke="none" points="17,-442.88 17,-459.12 109,-459.12 109,-442.88 17,-442.88"/>
<text xml:space="preserve" text-anchor="start" x="18" y="-446.73" font-family="Arial" font-size="12.00">application entity</text>
<polygon fill="none" stroke="black" points="16,-441.88 16,-460.12 110,-460.12 110,-441.88 16,-441.88"/>
</a>
</g>
</g>
<!-- ITS&#45;S reference architecture&#45;&gt;applicationEntity -->
<g id="edge9" class="edge">
<title>ITS&#45;S reference architecture&#45;&gt;applicationEntity</title>
<path fill="none" stroke="black" d="M157.68,-534.49C117.24,-526.46 75.2,-517.43 72,-514 63.65,-505.06 60.9,-492 60.44,-480.17"/>
<polygon fill="black" stroke="black" points="63.94,-480.52 60.6,-470.47 56.94,-480.41 63.94,-480.52"/>
<text xml:space="preserve" text-anchor="middle" x="102" y="-503.55" font-family="Arial" font-size="11.00"> aggregates </text>
<text xml:space="preserve" text-anchor="middle" x="102" y="-490.05" font-family="Arial" font-size="11.00"> «some» &#160;</text>
</g>
<!-- facilitiesLayer -->
<g id="node5" class="node">
<title>facilitiesLayer</title>
<g id="a_node5"><a xlink:href="../facilities layer/" xlink:title="&lt;TABLE&gt;" target="_top">
<polygon fill="lightgray" stroke="none" points="32.62,-343.88 32.62,-360.12 107.38,-360.12 107.38,-343.88 32.62,-343.88"/>
<text xml:space="preserve" text-anchor="start" x="33.62" y="-347.73" font-family="Arial" font-size="12.00">facilities layer</text>
<polygon fill="none" stroke="black" points="31.62,-342.88 31.62,-361.12 108.38,-361.12 108.38,-342.88 31.62,-342.88"/>
</a>
</g>
</g>
<!-- ITS&#45;S reference architecture&#45;&gt;facilitiesLayer -->
<g id="edge12" class="edge">
<title>ITS&#45;S reference architecture&#45;&gt;facilitiesLayer</title>
<path fill="none" stroke="black" d="M217.68,-532.22C202.39,-516.3 179.08,-491.51 160,-469 134.5,-438.92 106.96,-402.84 89.15,-378.99"/>
<polygon fill="black" stroke="black" points="92.05,-377.03 83.28,-371.09 86.44,-381.21 92.05,-377.03"/>
<text xml:space="preserve" text-anchor="middle" x="190" y="-454.05" font-family="Arial" font-size="11.00"> aggregates </text>
<text xml:space="preserve" text-anchor="middle" x="190" y="-440.55" font-family="Arial" font-size="11.00"> «some» &#160;</text>
</g>
<!-- its&#45;sAccessLayer -->
<g id="node6" class="node">
<title>its&#45;sAccessLayer</title>
<g id="a_node6"><a xlink:href="../ITS-S access layer/" xlink:title="&lt;TABLE&gt;" target="_top">
<polygon fill="lightgray" stroke="none" points="18.75,-244.88 18.75,-261.12 121.25,-261.12 121.25,-244.88 18.75,-244.88"/>
<text xml:space="preserve" text-anchor="start" x="19.75" y="-248.72" font-family="Arial" font-size="12.00">ITS&#45;S access layer</text>
<polygon fill="none" stroke="black" points="17.75,-243.88 17.75,-262.12 122.25,-262.12 122.25,-243.88 17.75,-243.88"/>
</a>
</g>
</g>
<!-- ITS&#45;S reference architecture&#45;&gt;its&#45;sAccessLayer -->
<g id="edge10" class="edge">
<title>ITS&#45;S reference architecture&#45;&gt;its&#45;sAccessLayer</title>
<path fill="none" stroke="black" d="M235.74,-532.07C237.37,-508.36 237.39,-464.64 220,-433 213.91,-421.93 206.87,-424 198,-415 154.64,-371.03 111.45,-313 87.99,-279.97"/>
<polygon fill="black" stroke="black" points="91.13,-278.35 82.51,-272.19 85.41,-282.38 91.13,-278.35"/>
<text xml:space="preserve" text-anchor="middle" x="228" y="-404.55" font-family="Arial" font-size="11.00"> aggregates </text>
<text xml:space="preserve" text-anchor="middle" x="228" y="-391.05" font-family="Arial" font-size="11.00"> «some» &#160;</text>
</g>
<!-- managementEntity -->
<g id="node7" class="node">
<title>managementEntity</title>
<g id="a_node7"><a xlink:href="../management entity/" xlink:title="&lt;TABLE&gt;" target="_top">
<polygon fill="lightgray" stroke="none" points="17.38,-171.88 17.38,-188.12 120.62,-188.12 120.62,-171.88 17.38,-171.88"/>
<text xml:space="preserve" text-anchor="start" x="18.38" y="-175.72" font-family="Arial" font-size="12.00">management entity</text>
<polygon fill="none" stroke="black" points="16.38,-170.88 16.38,-189.12 121.62,-189.12 121.62,-170.88 16.38,-170.88"/>
</a>
</g>
</g>
<!-- ITS&#45;S reference architecture&#45;&gt;managementEntity -->
<g id="edge13" class="edge">
<title>ITS&#45;S reference architecture&#45;&gt;managementEntity</title>
<path fill="none" stroke="black" d="M243.04,-532.35C245.73,-526.68 248.38,-520.21 250,-514 264.14,-459.7 277.05,-440.78 258,-388 228.69,-306.81 149.26,-238.75 103.23,-204.6"/>
<polygon fill="black" stroke="black" points="105.32,-201.79 95.17,-198.73 101.19,-207.45 105.32,-201.79"/>
<text xml:space="preserve" text-anchor="middle" x="280.44" y="-355.05" font-family="Arial" font-size="11.00"> aggregates </text>
<text xml:space="preserve" text-anchor="middle" x="280.44" y="-341.55" font-family="Arial" font-size="11.00"> «some» &#160;</text>
</g>
<!-- securityEntity -->
<g id="node8" class="node">
<title>securityEntity</title>
<g id="a_node8"><a xlink:href="../security entity/" xlink:title="&lt;TABLE&gt;" target="_top">
<polygon fill="lightgray" stroke="none" points="46.62,-98.88 46.62,-115.12 121.38,-115.12 121.38,-98.88 46.62,-98.88"/>
<text xml:space="preserve" text-anchor="start" x="47.62" y="-102.72" font-family="Arial" font-size="12.00">security entity</text>
<polygon fill="none" stroke="black" points="45.62,-97.88 45.62,-116.12 122.38,-116.12 122.38,-97.88 45.62,-97.88"/>
</a>
</g>
</g>
<!-- ITS&#45;S reference architecture&#45;&gt;securityEntity -->
<g id="edge14" class="edge">
<title>ITS&#45;S reference architecture&#45;&gt;securityEntity</title>
<path fill="none" stroke="black" d="M268.75,-532.06C296.58,-515.79 331,-488.32 331,-452 331,-452 331,-452 331,-179 331,-138.29 205.49,-119.54 133.41,-112.13"/>
<polygon fill="black" stroke="black" points="134.12,-108.68 123.83,-111.19 133.44,-115.65 134.12,-108.68"/>
<text xml:space="preserve" text-anchor="middle" x="361" y="-305.55" font-family="Arial" font-size="11.00"> aggregates </text>
<text xml:space="preserve" text-anchor="middle" x="361" y="-292.05" font-family="Arial" font-size="11.00"> «some» &#160;</text>
</g>
<!-- transnetLayer -->
<g id="node9" class="node">
<title>transnetLayer</title>
<g id="a_node9"><a xlink:href="../transnet layer/" xlink:title="&lt;TABLE&gt;" target="_top">
<polygon fill="lightgray" stroke="none" points="47,-25.88 47,-42.12 121,-42.12 121,-25.88 47,-25.88"/>
<text xml:space="preserve" text-anchor="start" x="48" y="-29.73" font-family="Arial" font-size="12.00">transnet layer</text>
<polygon fill="none" stroke="black" points="46,-24.88 46,-43.12 122,-43.12 122,-24.88 46,-24.88"/>
</a>
</g>
</g>
<!-- ITS&#45;S reference architecture&#45;&gt;transnetLayer -->
<g id="edge11" class="edge">
<title>ITS&#45;S reference architecture&#45;&gt;transnetLayer</title>
<path fill="none" stroke="black" d="M310.44,-536.19C356.38,-523.62 406,-499.14 406,-452 406,-452 406,-452 406,-106 406,-50.82 223.36,-38.48 133.19,-35.76"/>
<polygon fill="black" stroke="black" points="133.49,-32.26 123.4,-35.49 133.3,-39.26 133.49,-32.26"/>
<text xml:space="preserve" text-anchor="middle" x="436" y="-256.05" font-family="Arial" font-size="11.00"> aggregates </text>
<text xml:space="preserve" text-anchor="middle" x="436" y="-242.55" font-family="Arial" font-size="11.00"> «some» &#160;</text>
</g>
<!-- Invis&#45;&gt;applicationEntity -->
<!-- applicationEntity&#45;&gt;facilitiesLayer -->
<!-- facilitiesLayer&#45;&gt;its&#45;sAccessLayer -->
<!-- its&#45;sAccessLayer&#45;&gt;managementEntity -->
<!-- managementEntity&#45;&gt;securityEntity -->
<!-- securityEntity&#45;&gt;transnetLayer -->
</g>
</svg>
