<?xml version="1.0" encoding="UTF-8" standalone="no"?>
<!DOCTYPE svg PUBLIC "-//W3C//DTD SVG 1.1//EN"
 "http://www.w3.org/Graphics/SVG/1.1/DTD/svg11.dtd">
<!-- Generated by graphviz version 14.0.2 (20251019.1705)
 -->
<!-- Pages: 1 -->
<svg width="226pt" height="305pt"
 viewBox="0.00 0.00 226.00 305.00" xmlns="http://www.w3.org/2000/svg" xmlns:xlink="http://www.w3.org/1999/xlink">
<g id="graph0" class="graph" transform="scale(1 1) rotate(0) translate(4 301)">
<polygon fill="white" stroke="none" points="-4,4 -4,-301 221.5,-301 221.5,4 -4,4"/>
<g id="clust2" class="cluster">
<title>cluster_associated</title>
</g>
<!-- ITS&#45;SU service -->
<g id="node1" class="node">
<title>ITS&#45;SU service</title>
<g id="a_node1"><a xlink:href="../classes/itsVocabulary__ITS-SU service.md" xlink:title="&lt;TABLE&gt;">
<polygon fill="lightgray" stroke="none" points="133.5,-197.88 133.5,-214.12 216.5,-214.12 216.5,-197.88 133.5,-197.88"/>
<text xml:space="preserve" text-anchor="start" x="134.5" y="-201.72" font-family="Arial" font-size="12.00">ITS&#45;SU service</text>
<polygon fill="none" stroke="black" points="132.5,-196.88 132.5,-215.12 217.5,-215.12 217.5,-196.88 132.5,-196.88"/>
</a>
</g>
</g>
<!-- service -->
<g id="node2" class="node">
<title>service</title>
<g id="a_node2"><a xlink:href="../service/" xlink:title="&lt;TABLE&gt;" target="_top">
<polygon fill="lightgray" stroke="none" points="154.88,-270.88 154.88,-287.12 195.12,-287.12 195.12,-270.88 154.88,-270.88"/>
<text xml:space="preserve" text-anchor="start" x="155.88" y="-274.73" font-family="Arial" font-size="12.00">service</text>
<polygon fill="none" stroke="black" points="153.88,-269.88 153.88,-288.12 196.12,-288.12 196.12,-269.88 153.88,-269.88"/>
</a>
</g>
</g>
<!-- ITS&#45;SU service&#45;&gt;service -->
<g id="edge1" class="edge">
<title>ITS&#45;SU service&#45;&gt;service</title>
<path fill="none" stroke="black" d="M175,-223.71C175,-231.47 175,-240.92 175,-249.74"/>
<polygon fill="none" stroke="black" points="171.5,-249.66 175,-259.66 178.5,-249.66 171.5,-249.66"/>
</g>
<!-- Invis -->
<!-- ITS&#45;SU service&#45;&gt;Invis -->
<!-- its&#45;suUser -->
<g id="node4" class="node">
<title>its&#45;suUser</title>
<g id="a_node4"><a xlink:href="../ITS-SU user/" xlink:title="&lt;TABLE&gt;" target="_top">
<polygon fill="lightgray" stroke="none" points="36,-98.88 36,-115.12 104,-115.12 104,-98.88 36,-98.88"/>
<text xml:space="preserve" text-anchor="start" x="37" y="-102.72" font-family="Arial" font-size="12.00">ITS&#45;SU user</text>
<polygon fill="none" stroke="black" points="35,-97.88 35,-116.12 105,-116.12 105,-97.88 35,-97.88"/>
</a>
</g>
</g>
<!-- ITS&#45;SU service&#45;&gt;its&#45;suUser -->
<g id="edge6" class="edge">
<title>ITS&#45;SU service&#45;&gt;its&#45;suUser</title>
<path fill="none" stroke="black" d="M134.92,-188.17C125.7,-183.16 116.37,-177.09 108.75,-170 98.11,-160.11 89.24,-146.66 82.68,-134.82"/>
<polygon fill="black" stroke="black" points="85.96,-133.55 78.23,-126.3 79.76,-136.79 85.96,-133.55"/>
<text xml:space="preserve" text-anchor="middle" x="132.38" y="-159.55" font-family="Arial" font-size="11.00"> for </text>
<text xml:space="preserve" text-anchor="middle" x="132.38" y="-146.05" font-family="Arial" font-size="11.00"> «some» &#160;</text>
</g>
<!-- its&#45;suUserNeed -->
<g id="node5" class="node">
<title>its&#45;suUserNeed</title>
<g id="a_node5"><a xlink:href="../ITS-SU user need/" xlink:title="&lt;TABLE&gt;" target="_top">
<polygon fill="lightgray" stroke="none" points="17,-25.88 17,-42.12 115,-42.12 115,-25.88 17,-25.88"/>
<text xml:space="preserve" text-anchor="start" x="18" y="-29.73" font-family="Arial" font-size="12.00">ITS&#45;SU user need</text>
<polygon fill="none" stroke="black" points="16,-24.88 16,-43.12 116,-43.12 116,-24.88 16,-24.88"/>
</a>
</g>
</g>
<!-- ITS&#45;SU service&#45;&gt;its&#45;suUserNeed -->
<g id="edge5" class="edge">
<title>ITS&#45;SU service&#45;&gt;its&#45;suUserNeed</title>
<path fill="none" stroke="black" d="M171.56,-188.04C168.55,-175.2 163.47,-157.39 156,-143 139.48,-111.21 112.32,-80.37 92.15,-59.84"/>
<polygon fill="black" stroke="black" points="94.88,-57.62 85.33,-53.04 89.94,-62.58 94.88,-57.62"/>
<text xml:space="preserve" text-anchor="middle" x="168.95" y="-110.05" font-family="Arial" font-size="11.00"> fulfils </text>
<text xml:space="preserve" text-anchor="middle" x="168.95" y="-96.55" font-family="Arial" font-size="11.00"> «some» &#160;</text>
</g>
<!-- Invis&#45;&gt;its&#45;suUser -->
<!-- its&#45;suUser&#45;&gt;its&#45;suUserNeed -->
</g>
</svg>
