<?xml version="1.0" encoding="UTF-8" standalone="no"?>
<!DOCTYPE svg PUBLIC "-//W3C//DTD SVG 1.1//EN"
 "http://www.w3.org/Graphics/SVG/1.1/DTD/svg11.dtd">
<!-- Generated by graphviz version 14.0.2 (20251019.1705)
 -->
<!-- Pages: 1 -->
<svg width="219pt" height="175pt"
 viewBox="0.00 0.00 219.00 175.00" xmlns="http://www.w3.org/2000/svg" xmlns:xlink="http://www.w3.org/1999/xlink">
<g id="graph0" class="graph" transform="scale(1 1) rotate(0) translate(4 171)">
<polygon fill="white" stroke="none" points="-4,4 -4,-171 214.5,-171 214.5,4 -4,4"/>
<g id="clust2" class="cluster">
<title>cluster_associated</title>
</g>
<!-- jurisdictional entity -->
<g id="node1" class="node">
<title>jurisdictional entity</title>
<g id="a_node1"><a xlink:href="../classes/itsVocabulary__jurisdictional entity.md" xlink:title="&lt;TABLE&gt;">
<polygon fill="lightgray" stroke="none" points="1,-124.88 1,-141.12 102,-141.12 102,-124.88 1,-124.88"/>
<text xml:space="preserve" text-anchor="start" x="2" y="-128.72" font-family="Arial" font-size="12.00">jurisdictional entity</text>
<polygon fill="none" stroke="black" points="0,-123.88 0,-142.12 103,-142.12 103,-123.88 0,-123.88"/>
</a>
</g>
</g>
<!-- Invis -->
<!-- jurisdictional entity&#45;&gt;Invis -->
<!-- jurisdiction -->
<g id="node3" class="node">
<title>jurisdiction</title>
<g id="a_node3"><a xlink:href="../jurisdiction/" xlink:title="&lt;TABLE&gt;" target="_top">
<polygon fill="lightgray" stroke="none" points="133.62,-25.88 133.62,-42.12 193.38,-42.12 193.38,-25.88 133.62,-25.88"/>
<text xml:space="preserve" text-anchor="start" x="134.62" y="-29.73" font-family="Arial" font-size="12.00">jurisdiction</text>
<polygon fill="none" stroke="black" points="132.62,-24.88 132.62,-43.12 194.38,-43.12 194.38,-24.88 132.62,-24.88"/>
</a>
</g>
</g>
<!-- jurisdictional entity&#45;&gt;jurisdiction -->
<g id="edge3" class="edge">
<title>jurisdictional entity&#45;&gt;jurisdiction</title>
<path fill="none" stroke="black" d="M66.74,-115.12C78.8,-102.17 96.37,-84.16 113.25,-70 117.93,-66.07 123.05,-62.14 128.16,-58.41"/>
<polygon fill="black" stroke="black" points="129.91,-61.46 136.05,-52.82 125.86,-55.75 129.91,-61.46"/>
<text xml:space="preserve" text-anchor="middle" x="136.88" y="-86.55" font-family="Arial" font-size="11.00"> has </text>
<text xml:space="preserve" text-anchor="middle" x="136.88" y="-73.05" font-family="Arial" font-size="11.00"> «some» &#160;</text>
</g>
<!-- Invis&#45;&gt;jurisdiction -->
</g>
</svg>
