<?xml version="1.0" encoding="UTF-8" standalone="no"?>
<!DOCTYPE svg PUBLIC "-//W3C//DTD SVG 1.1//EN"
 "http://www.w3.org/Graphics/SVG/1.1/DTD/svg11.dtd">
<!-- Generated by graphviz version 14.0.2 (20251019.1705)
 -->
<!-- Pages: 1 -->
<svg width="262pt" height="175pt"
 viewBox="0.00 0.00 262.00 175.00" xmlns="http://www.w3.org/2000/svg" xmlns:xlink="http://www.w3.org/1999/xlink">
<g id="graph0" class="graph" transform="scale(1 1) rotate(0) translate(4 171)">
<polygon fill="white" stroke="none" points="-4,4 -4,-171 258.38,-171 258.38,4 -4,4"/>
<g id="clust2" class="cluster">
<title>cluster_associated</title>
</g>
<!-- jurisdictional boundary -->
<g id="node1" class="node">
<title>jurisdictional boundary</title>
<g id="a_node1"><a xlink:href="../classes/itsVocabulary__jurisdictional boundary.md" xlink:title="&lt;TABLE&gt;">
<polygon fill="lightgray" stroke="none" points="1,-124.88 1,-141.12 123.75,-141.12 123.75,-124.88 1,-124.88"/>
<text xml:space="preserve" text-anchor="start" x="2" y="-128.72" font-family="Arial" font-size="12.00">jurisdictional boundary</text>
<polygon fill="none" stroke="black" points="0,-123.88 0,-142.12 124.75,-142.12 124.75,-123.88 0,-123.88"/>
</a>
</g>
</g>
<!-- Invis -->
<!-- jurisdictional boundary&#45;&gt;Invis -->
<!-- jurisdictionalArea -->
<g id="node3" class="node">
<title>jurisdictionalArea</title>
<g id="a_node3"><a xlink:href="../jurisdictional area/" xlink:title="&lt;TABLE&gt;" target="_top">
<polygon fill="lightgray" stroke="none" points="141.12,-25.88 141.12,-42.12 237.62,-42.12 237.62,-25.88 141.12,-25.88"/>
<text xml:space="preserve" text-anchor="start" x="142.12" y="-29.73" font-family="Arial" font-size="12.00">jurisdictional area</text>
<polygon fill="none" stroke="black" points="140.12,-24.88 140.12,-43.12 238.62,-43.12 238.62,-24.88 140.12,-24.88"/>
</a>
</g>
</g>
<!-- jurisdictional boundary&#45;&gt;jurisdictionalArea -->
<g id="edge3" class="edge">
<title>jurisdictional boundary&#45;&gt;jurisdictionalArea</title>
<path fill="none" stroke="black" d="M81.61,-115.12C96.45,-102.33 117.67,-84.53 137.12,-70 142.39,-66.07 148.07,-62.05 153.68,-58.2"/>
<polygon fill="black" stroke="black" points="155.38,-61.28 161.71,-52.78 151.46,-55.47 155.38,-61.28"/>
<text xml:space="preserve" text-anchor="middle" x="160.75" y="-86.55" font-family="Arial" font-size="11.00"> limitOf </text>
<text xml:space="preserve" text-anchor="middle" x="160.75" y="-73.05" font-family="Arial" font-size="11.00"> «some» &#160;</text>
</g>
<!-- Invis&#45;&gt;jurisdictionalArea -->
</g>
</svg>
