<?xml version="1.0" encoding="UTF-8" standalone="no"?>
<!DOCTYPE svg PUBLIC "-//W3C//DTD SVG 1.1//EN"
 "http://www.w3.org/Graphics/SVG/1.1/DTD/svg11.dtd">
<!-- Generated by graphviz version 14.0.2 (20251019.1705)
 -->
<!-- Pages: 1 -->
<svg width="174pt" height="232pt"
 viewBox="0.00 0.00 174.00 232.00" xmlns="http://www.w3.org/2000/svg" xmlns:xlink="http://www.w3.org/1999/xlink">
<g id="graph0" class="graph" transform="scale(1 1) rotate(0) translate(4 228)">
<polygon fill="white" stroke="none" points="-4,4 -4,-228 170,-228 170,4 -4,4"/>
<g id="clust2" class="cluster">
<title>cluster_associated</title>
</g>
<!-- lane link -->
<g id="node1" class="node">
<title>lane link</title>
<g id="a_node1"><a xlink:href="../classes/itsVocabulary__lane link.md" xlink:title="&lt;TABLE&gt;">
<polygon fill="lightgray" stroke="none" points="115.5,-124.88 115.5,-141.12 162.5,-141.12 162.5,-124.88 115.5,-124.88"/>
<text xml:space="preserve" text-anchor="start" x="116.5" y="-128.72" font-family="Arial" font-size="12.00">lane link</text>
<polygon fill="none" stroke="black" points="114.5,-123.88 114.5,-142.12 163.5,-142.12 163.5,-123.88 114.5,-123.88"/>
</a>
</g>
</g>
<!-- link -->
<g id="node2" class="node">
<title>link</title>
<g id="a_node2"><a xlink:href="../link/" xlink:title="&lt;TABLE&gt;" target="_top">
<polygon fill="lightgray" stroke="none" points="128.62,-197.88 128.62,-214.12 149.38,-214.12 149.38,-197.88 128.62,-197.88"/>
<text xml:space="preserve" text-anchor="start" x="129.62" y="-201.72" font-family="Arial" font-size="12.00">link</text>
<polygon fill="none" stroke="black" points="127.62,-196.88 127.62,-215.12 150.38,-215.12 150.38,-196.88 127.62,-196.88"/>
</a>
</g>
</g>
<!-- lane link&#45;&gt;link -->
<g id="edge1" class="edge">
<title>lane link&#45;&gt;link</title>
<path fill="none" stroke="black" d="M139,-150.71C139,-158.47 139,-167.92 139,-176.74"/>
<polygon fill="none" stroke="black" points="135.5,-176.66 139,-186.66 142.5,-176.66 135.5,-176.66"/>
</g>
<!-- Invis -->
<!-- lane link&#45;&gt;Invis -->
<!-- laneSegment -->
<g id="node4" class="node">
<title>laneSegment</title>
<g id="a_node4"><a xlink:href="../lane segment/" xlink:title="&lt;TABLE&gt;" target="_top">
<polygon fill="lightgray" stroke="none" points="17,-25.88 17,-42.12 91,-42.12 91,-25.88 17,-25.88"/>
<text xml:space="preserve" text-anchor="start" x="18" y="-29.73" font-family="Arial" font-size="12.00">lane segment</text>
<polygon fill="none" stroke="black" points="16,-24.88 16,-43.12 92,-43.12 92,-24.88 16,-24.88"/>
</a>
</g>
</g>
<!-- lane link&#45;&gt;laneSegment -->
<g id="edge4" class="edge">
<title>lane link&#45;&gt;laneSegment</title>
<path fill="none" stroke="black" d="M124.19,-115.1C110.91,-99.94 91.23,-77.48 76.08,-60.2"/>
<polygon fill="black" stroke="black" points="78.86,-58.06 69.63,-52.84 73.59,-62.67 78.86,-58.06"/>
<text xml:space="preserve" text-anchor="middle" x="135.11" y="-86.55" font-family="Arial" font-size="11.00"> constitutes </text>
<text xml:space="preserve" text-anchor="middle" x="135.11" y="-73.05" font-family="Arial" font-size="11.00"> «some» &#160;</text>
</g>
<!-- Invis&#45;&gt;laneSegment -->
</g>
</svg>
