<?xml version="1.0" encoding="UTF-8" standalone="no"?>
<!DOCTYPE svg PUBLIC "-//W3C//DTD SVG 1.1//EN"
 "http://www.w3.org/Graphics/SVG/1.1/DTD/svg11.dtd">
<!-- Generated by graphviz version 14.0.2 (20251019.1705)
 -->
<!-- Pages: 1 -->
<svg width="326pt" height="232pt"
 viewBox="0.00 0.00 326.00 232.00" xmlns="http://www.w3.org/2000/svg" xmlns:xlink="http://www.w3.org/1999/xlink">
<g id="graph0" class="graph" transform="scale(1 1) rotate(0) translate(4 228)">
<polygon fill="white" stroke="none" points="-4,4 -4,-228 322.25,-228 322.25,4 -4,4"/>
<g id="clust2" class="cluster">
<title>cluster_associated</title>
</g>
<!-- level 2 driving automation -->
<g id="node1" class="node">
<title>level 2 driving automation</title>
<g id="a_node1"><a xlink:href="../classes/itsVocabulary__level 2 driving automation.md" xlink:title="&lt;TABLE&gt;">
<polygon fill="lightgray" stroke="none" points="178.75,-124.88 178.75,-141.12 317.25,-141.12 317.25,-124.88 178.75,-124.88"/>
<text xml:space="preserve" text-anchor="start" x="179.75" y="-128.72" font-family="Arial" font-size="12.00">level 2 driving automation</text>
<polygon fill="none" stroke="black" points="177.75,-123.88 177.75,-142.12 318.25,-142.12 318.25,-123.88 177.75,-123.88"/>
</a>
</g>
</g>
<!-- driverSupportSystem -->
<g id="node2" class="node">
<title>driverSupportSystem</title>
<g id="a_node2"><a xlink:href="../driver support system/" xlink:title="&lt;TABLE&gt;" target="_top">
<polygon fill="lightgray" stroke="none" points="190.38,-197.88 190.38,-214.12 305.62,-214.12 305.62,-197.88 190.38,-197.88"/>
<text xml:space="preserve" text-anchor="start" x="191.38" y="-201.72" font-family="Arial" font-size="12.00">driver support system</text>
<polygon fill="none" stroke="black" points="189.38,-196.88 189.38,-215.12 306.62,-215.12 306.62,-196.88 189.38,-196.88"/>
</a>
</g>
</g>
<!-- level 2 driving automation&#45;&gt;driverSupportSystem -->
<g id="edge1" class="edge">
<title>level 2 driving automation&#45;&gt;driverSupportSystem</title>
<path fill="none" stroke="black" d="M248,-150.71C248,-158.47 248,-167.92 248,-176.74"/>
<polygon fill="none" stroke="black" points="244.5,-176.66 248,-186.66 251.5,-176.66 244.5,-176.66"/>
</g>
<!-- Invis -->
<!-- level 2 driving automation&#45;&gt;Invis -->
<!-- operationalDesignDomain -->
<g id="node4" class="node">
<title>operationalDesignDomain</title>
<g id="a_node4"><a xlink:href="../operational design domain/" xlink:title="&lt;TABLE&gt;" target="_top">
<polygon fill="lightgray" stroke="none" points="17.12,-25.88 17.12,-42.12 160.88,-42.12 160.88,-25.88 17.12,-25.88"/>
<text xml:space="preserve" text-anchor="start" x="18.12" y="-29.73" font-family="Arial" font-size="12.00">operational design domain</text>
<polygon fill="none" stroke="black" points="16.12,-24.88 16.12,-43.12 161.88,-43.12 161.88,-24.88 16.12,-24.88"/>
</a>
</g>
</g>
<!-- level 2 driving automation&#45;&gt;operationalDesignDomain -->
<g id="edge4" class="edge">
<title>level 2 driving automation&#45;&gt;operationalDesignDomain</title>
<path fill="none" stroke="black" d="M220.3,-115.1C194.28,-99.23 155.13,-75.35 126.35,-57.79"/>
<polygon fill="black" stroke="black" points="128.3,-54.87 117.94,-52.65 124.65,-60.85 128.3,-54.87"/>
<text xml:space="preserve" text-anchor="middle" x="229.79" y="-86.55" font-family="Arial" font-size="11.00"> operatesWithinA </text>
<text xml:space="preserve" text-anchor="middle" x="229.79" y="-73.05" font-family="Arial" font-size="11.00"> «some» &#160;</text>
</g>
<!-- Invis&#45;&gt;operationalDesignDomain -->
</g>
</svg>
