<?xml version="1.0" encoding="UTF-8" standalone="no"?>
<!DOCTYPE svg PUBLIC "-//W3C//DTD SVG 1.1//EN"
 "http://www.w3.org/Graphics/SVG/1.1/DTD/svg11.dtd">
<!-- Generated by graphviz version 14.0.2 (20251019.1705)
 -->
<!-- Pages: 1 -->
<svg width="234pt" height="175pt"
 viewBox="0.00 0.00 234.00 175.00" xmlns="http://www.w3.org/2000/svg" xmlns:xlink="http://www.w3.org/1999/xlink">
<g id="graph0" class="graph" transform="scale(1 1) rotate(0) translate(4 171)">
<polygon fill="white" stroke="none" points="-4,4 -4,-171 230.38,-171 230.38,4 -4,4"/>
<g id="clust2" class="cluster">
<title>cluster_associated</title>
</g>
<!-- membership&#45;based -->
<g id="node1" class="node">
<title>membership&#45;based</title>
<g id="a_node1"><a xlink:href="../classes/itsVocabulary__membership-based.md" xlink:title="&lt;TABLE&gt;">
<polygon fill="lightgray" stroke="none" points="1,-124.88 1,-141.12 105.75,-141.12 105.75,-124.88 1,-124.88"/>
<text xml:space="preserve" text-anchor="start" x="2" y="-128.72" font-family="Arial" font-size="12.00">membership&#45;based</text>
<polygon fill="none" stroke="black" points="0,-123.88 0,-142.12 106.75,-142.12 106.75,-123.88 0,-123.88"/>
</a>
</g>
</g>
<!-- Invis -->
<!-- membership&#45;based&#45;&gt;Invis -->
<!-- financialModel -->
<g id="node3" class="node">
<title>financialModel</title>
<g id="a_node3"><a xlink:href="../financial model/" xlink:title="&lt;TABLE&gt;" target="_top">
<polygon fill="lightgray" stroke="none" points="125.88,-25.88 125.88,-42.12 208.88,-42.12 208.88,-25.88 125.88,-25.88"/>
<text xml:space="preserve" text-anchor="start" x="126.88" y="-29.73" font-family="Arial" font-size="12.00">financial model</text>
<polygon fill="none" stroke="black" points="124.88,-24.88 124.88,-43.12 209.88,-43.12 209.88,-24.88 124.88,-24.88"/>
</a>
</g>
</g>
<!-- membership&#45;based&#45;&gt;financialModel -->
<g id="edge3" class="edge">
<title>membership&#45;based&#45;&gt;financialModel</title>
<path fill="none" stroke="black" d="M67.49,-115.15C78.93,-102.03 95.84,-83.81 112.62,-70 117.65,-65.87 123.19,-61.82 128.75,-58.03"/>
<polygon fill="black" stroke="black" points="130.35,-61.17 136.79,-52.76 126.51,-55.32 130.35,-61.17"/>
<text xml:space="preserve" text-anchor="middle" x="138.5" y="-86.55" font-family="Arial" font-size="11.00"> describes </text>
<text xml:space="preserve" text-anchor="middle" x="138.5" y="-73.05" font-family="Arial" font-size="11.00"> «some» &#160;</text>
</g>
<!-- Invis&#45;&gt;financialModel -->
</g>
</svg>
