<?xml version="1.0" encoding="UTF-8" standalone="no"?>
<!DOCTYPE svg PUBLIC "-//W3C//DTD SVG 1.1//EN"
 "http://www.w3.org/Graphics/SVG/1.1/DTD/svg11.dtd">
<!-- Generated by graphviz version 14.0.2 (20251019.1705)
 -->
<!-- Pages: 1 -->
<svg width="194pt" height="175pt"
 viewBox="0.00 0.00 194.00 175.00" xmlns="http://www.w3.org/2000/svg" xmlns:xlink="http://www.w3.org/1999/xlink">
<g id="graph0" class="graph" transform="scale(1 1) rotate(0) translate(4 171)">
<polygon fill="white" stroke="none" points="-4,4 -4,-171 190.38,-171 190.38,4 -4,4"/>
<g id="clust2" class="cluster">
<title>cluster_associated</title>
</g>
<!-- meta&#45;attribute -->
<g id="node1" class="node">
<title>meta&#45;attribute</title>
<g id="a_node1"><a xlink:href="../classes/itsVocabulary__meta-attribute.md" xlink:title="&lt;TABLE&gt;">
<polygon fill="lightgray" stroke="none" points="1,-124.88 1,-141.12 75.75,-141.12 75.75,-124.88 1,-124.88"/>
<text xml:space="preserve" text-anchor="start" x="2" y="-128.72" font-family="Arial" font-size="12.00">meta&#45;attribute</text>
<polygon fill="none" stroke="black" points="0,-123.88 0,-142.12 76.75,-142.12 76.75,-123.88 0,-123.88"/>
</a>
</g>
</g>
<!-- Invis -->
<!-- meta&#45;attribute&#45;&gt;Invis -->
<!-- dataConcept -->
<g id="node3" class="node">
<title>dataConcept</title>
<g id="a_node3"><a xlink:href="../data concept/" xlink:title="&lt;TABLE&gt;" target="_top">
<polygon fill="lightgray" stroke="none" points="99.25,-25.88 99.25,-42.12 169.5,-42.12 169.5,-25.88 99.25,-25.88"/>
<text xml:space="preserve" text-anchor="start" x="100.25" y="-29.73" font-family="Arial" font-size="12.00">data concept</text>
<polygon fill="none" stroke="black" points="98.25,-24.88 98.25,-43.12 170.5,-43.12 170.5,-24.88 98.25,-24.88"/>
</a>
</g>
</g>
<!-- meta&#45;attribute&#45;&gt;dataConcept -->
<g id="edge3" class="edge">
<title>meta&#45;attribute&#45;&gt;dataConcept</title>
<path fill="none" stroke="black" d="M38.07,-115.18C38.69,-101.56 41.63,-82.63 52.12,-70 61.36,-58.89 74.76,-51.23 88.07,-45.98"/>
<polygon fill="black" stroke="black" points="88.94,-49.38 97.22,-42.77 86.62,-42.78 88.94,-49.38"/>
<text xml:space="preserve" text-anchor="middle" x="92.25" y="-86.55" font-family="Arial" font-size="11.00"> characteristicOf </text>
<text xml:space="preserve" text-anchor="middle" x="92.25" y="-73.05" font-family="Arial" font-size="11.00"> «some» &#160;</text>
</g>
<!-- Invis&#45;&gt;dataConcept -->
</g>
</svg>
