<?xml version="1.0" encoding="UTF-8" standalone="no"?>
<!DOCTYPE svg PUBLIC "-//W3C//DTD SVG 1.1//EN"
 "http://www.w3.org/Graphics/SVG/1.1/DTD/svg11.dtd">
<!-- Generated by graphviz version 14.0.2 (20251019.1705)
 -->
<!-- Pages: 1 -->
<svg width="169pt" height="132pt"
 viewBox="0.00 0.00 169.00 132.00" xmlns="http://www.w3.org/2000/svg" xmlns:xlink="http://www.w3.org/1999/xlink">
<g id="graph0" class="graph" transform="scale(1 1) rotate(0) translate(4 128)">
<polygon fill="white" stroke="none" points="-4,4 -4,-128 164.5,-128 164.5,4 -4,4"/>
<g id="clust2" class="cluster">
<title>cluster_associated</title>
</g>
<!-- module -->
<g id="node1" class="node">
<title>module</title>
<g id="a_node1"><a xlink:href="../classes/itsVocabulary__module.md" xlink:title="&lt;TABLE&gt;">
<polygon fill="lightgray" stroke="none" points="24.62,-25.88 24.62,-42.12 66.38,-42.12 66.38,-25.88 24.62,-25.88"/>
<text xml:space="preserve" text-anchor="start" x="25.62" y="-29.73" font-family="Arial" font-size="12.00">module</text>
<polygon fill="none" stroke="black" points="23.62,-24.88 23.62,-43.12 67.38,-43.12 67.38,-24.88 23.62,-24.88"/>
</a>
</g>
</g>
<!-- functionalObject -->
<g id="node2" class="node">
<title>functionalObject</title>
<g id="a_node2"><a xlink:href="../functional object/" xlink:title="&lt;TABLE&gt;" target="_top">
<polygon fill="lightgray" stroke="none" points="1,-97.88 1,-114.12 90,-114.12 90,-97.88 1,-97.88"/>
<text xml:space="preserve" text-anchor="start" x="2" y="-101.72" font-family="Arial" font-size="12.00">functional object</text>
<polygon fill="none" stroke="black" points="0,-96.88 0,-115.12 91,-115.12 91,-96.88 0,-96.88"/>
</a>
</g>
</g>
<!-- module&#45;&gt;functionalObject -->
<g id="edge1" class="edge">
<title>module&#45;&gt;functionalObject</title>
<path fill="none" stroke="black" d="M45.5,-51.79C45.5,-59.25 45.5,-68.24 45.5,-76.69"/>
<polygon fill="none" stroke="black" points="42,-76.54 45.5,-86.54 49,-76.54 42,-76.54"/>
</g>
<!-- Invis -->
</g>
</svg>
