<?xml version="1.0" encoding="UTF-8" standalone="no"?>
<!DOCTYPE svg PUBLIC "-//W3C//DTD SVG 1.1//EN"
 "http://www.w3.org/Graphics/SVG/1.1/DTD/svg11.dtd">
<!-- Generated by graphviz version 14.0.2 (20251019.1705)
 -->
<!-- Pages: 1 -->
<svg width="234pt" height="132pt"
 viewBox="0.00 0.00 234.00 132.00" xmlns="http://www.w3.org/2000/svg" xmlns:xlink="http://www.w3.org/1999/xlink">
<g id="graph0" class="graph" transform="scale(1 1) rotate(0) translate(4 128)">
<polygon fill="white" stroke="none" points="-4,4 -4,-128 229.88,-128 229.88,4 -4,4"/>
<g id="clust2" class="cluster">
<title>cluster_associated</title>
</g>
<!-- motor vehicle -->
<g id="node1" class="node">
<title>motor vehicle</title>
<g id="a_node1"><a xlink:href="../classes/itsVocabulary__motor vehicle.md" xlink:title="&lt;TABLE&gt;">
<polygon fill="lightgray" stroke="none" points="63.25,-25.88 63.25,-42.12 136.5,-42.12 136.5,-25.88 63.25,-25.88"/>
<text xml:space="preserve" text-anchor="start" x="64.25" y="-29.73" font-family="Arial" font-size="12.00">motor vehicle</text>
<polygon fill="none" stroke="black" points="62.25,-24.88 62.25,-43.12 137.5,-43.12 137.5,-24.88 62.25,-24.88"/>
</a>
</g>
</g>
<!-- motorizedVehicle -->
<g id="node2" class="node">
<title>motorizedVehicle</title>
<g id="a_node2"><a xlink:href="../motorized vehicle/" xlink:title="&lt;TABLE&gt;" target="_top">
<polygon fill="lightgray" stroke="none" points="1,-97.88 1,-114.12 96.75,-114.12 96.75,-97.88 1,-97.88"/>
<text xml:space="preserve" text-anchor="start" x="2" y="-101.72" font-family="Arial" font-size="12.00">motorized vehicle</text>
<polygon fill="none" stroke="black" points="0,-96.88 0,-115.12 97.75,-115.12 97.75,-96.88 0,-96.88"/>
</a>
</g>
</g>
<!-- motor vehicle&#45;&gt;motorizedVehicle -->
<g id="edge1" class="edge">
<title>motor vehicle&#45;&gt;motorizedVehicle</title>
<path fill="none" stroke="black" d="M87.64,-51.79C81.71,-59.93 74.45,-69.9 67.82,-79"/>
<polygon fill="none" stroke="black" points="65.17,-76.69 62.11,-86.83 70.83,-80.81 65.17,-76.69"/>
</g>
<!-- roadVehicle -->
<g id="node3" class="node">
<title>roadVehicle</title>
<g id="a_node3"><a xlink:href="../road vehicle/" xlink:title="&lt;TABLE&gt;" target="_top">
<polygon fill="lightgray" stroke="none" points="117.25,-97.88 117.25,-114.12 184.5,-114.12 184.5,-97.88 117.25,-97.88"/>
<text xml:space="preserve" text-anchor="start" x="118.25" y="-101.72" font-family="Arial" font-size="12.00">road vehicle</text>
<polygon fill="none" stroke="black" points="116.25,-96.88 116.25,-115.12 185.5,-115.12 185.5,-96.88 116.25,-96.88"/>
</a>
</g>
</g>
<!-- motor vehicle&#45;&gt;roadVehicle -->
<g id="edge2" class="edge">
<title>motor vehicle&#45;&gt;roadVehicle</title>
<path fill="none" stroke="black" d="M112.11,-51.79C118.04,-59.93 125.3,-69.9 131.93,-79"/>
<polygon fill="none" stroke="black" points="128.92,-80.81 137.64,-86.83 134.58,-76.69 128.92,-80.81"/>
</g>
<!-- Invis -->
</g>
</svg>
