<?xml version="1.0" encoding="UTF-8" standalone="no"?>
<!DOCTYPE svg PUBLIC "-//W3C//DTD SVG 1.1//EN"
 "http://www.w3.org/Graphics/SVG/1.1/DTD/svg11.dtd">
<!-- Generated by graphviz version 14.0.2 (20251019.1705)
 -->
<!-- Pages: 1 -->
<svg width="194pt" height="132pt"
 viewBox="0.00 0.00 194.00 132.00" xmlns="http://www.w3.org/2000/svg" xmlns:xlink="http://www.w3.org/1999/xlink">
<g id="graph0" class="graph" transform="scale(1 1) rotate(0) translate(4 128)">
<polygon fill="white" stroke="none" points="-4,4 -4,-128 189.88,-128 189.88,4 -4,4"/>
<g id="clust2" class="cluster">
<title>cluster_associated</title>
</g>
<!-- motorized vehicle -->
<g id="node1" class="node">
<title>motorized vehicle</title>
<g id="a_node1"><a xlink:href="../classes/itsVocabulary__motorized vehicle.md" xlink:title="&lt;TABLE&gt;">
<polygon fill="lightgray" stroke="none" points="1,-25.88 1,-42.12 96.75,-42.12 96.75,-25.88 1,-25.88"/>
<text xml:space="preserve" text-anchor="start" x="2" y="-29.73" font-family="Arial" font-size="12.00">motorized vehicle</text>
<polygon fill="none" stroke="black" points="0,-24.88 0,-43.12 97.75,-43.12 97.75,-24.88 0,-24.88"/>
</a>
</g>
</g>
<!-- vehicle -->
<g id="node2" class="node">
<title>vehicle</title>
<g id="a_node2"><a xlink:href="../vehicle/" xlink:title="&lt;TABLE&gt;" target="_top">
<polygon fill="lightgray" stroke="none" points="28.75,-97.88 28.75,-114.12 69,-114.12 69,-97.88 28.75,-97.88"/>
<text xml:space="preserve" text-anchor="start" x="29.75" y="-101.72" font-family="Arial" font-size="12.00">vehicle</text>
<polygon fill="none" stroke="black" points="27.75,-96.88 27.75,-115.12 70,-115.12 70,-96.88 27.75,-96.88"/>
</a>
</g>
</g>
<!-- motorized vehicle&#45;&gt;vehicle -->
<g id="edge1" class="edge">
<title>motorized vehicle&#45;&gt;vehicle</title>
<path fill="none" stroke="black" d="M48.88,-51.79C48.88,-59.25 48.88,-68.24 48.88,-76.69"/>
<polygon fill="none" stroke="black" points="45.38,-76.54 48.88,-86.54 52.38,-76.54 45.38,-76.54"/>
</g>
<!-- Invis -->
</g>
</svg>
