<?xml version="1.0" encoding="UTF-8" standalone="no"?>
<!DOCTYPE svg PUBLIC "-//W3C//DTD SVG 1.1//EN"
 "http://www.w3.org/Graphics/SVG/1.1/DTD/svg11.dtd">
<!-- Generated by graphviz version 14.0.2 (20251019.1705)
 -->
<!-- Pages: 1 -->
<svg width="234pt" height="232pt"
 viewBox="0.00 0.00 234.00 232.00" xmlns="http://www.w3.org/2000/svg" xmlns:xlink="http://www.w3.org/1999/xlink">
<g id="graph0" class="graph" transform="scale(1 1) rotate(0) translate(4 228)">
<polygon fill="white" stroke="none" points="-4,4 -4,-228 229.5,-228 229.5,4 -4,4"/>
<g id="clust2" class="cluster">
<title>cluster_associated</title>
</g>
<!-- nomadic device -->
<g id="node1" class="node">
<title>nomadic device</title>
<g id="a_node1"><a xlink:href="../classes/itsVocabulary__nomadic device.md" xlink:title="&lt;TABLE&gt;">
<polygon fill="lightgray" stroke="none" points="107,-124.88 107,-141.12 193,-141.12 193,-124.88 107,-124.88"/>
<text xml:space="preserve" text-anchor="start" x="108" y="-128.72" font-family="Arial" font-size="12.00">nomadic device</text>
<polygon fill="none" stroke="black" points="106,-123.88 106,-142.12 194,-142.12 194,-123.88 106,-123.88"/>
</a>
</g>
</g>
<!-- personalInformationDevice -->
<g id="node2" class="node">
<title>personalInformationDevice</title>
<g id="a_node2"><a xlink:href="../personal information device/" xlink:title="&lt;TABLE&gt;" target="_top">
<polygon fill="lightgray" stroke="none" points="75.5,-197.88 75.5,-214.12 224.5,-214.12 224.5,-197.88 75.5,-197.88"/>
<text xml:space="preserve" text-anchor="start" x="76.5" y="-201.72" font-family="Arial" font-size="12.00">personal information device</text>
<polygon fill="none" stroke="black" points="74.5,-196.88 74.5,-215.12 225.5,-215.12 225.5,-196.88 74.5,-196.88"/>
</a>
</g>
</g>
<!-- nomadic device&#45;&gt;personalInformationDevice -->
<g id="edge1" class="edge">
<title>nomadic device&#45;&gt;personalInformationDevice</title>
<path fill="none" stroke="black" d="M150,-150.71C150,-158.47 150,-167.92 150,-176.74"/>
<polygon fill="none" stroke="black" points="146.5,-176.66 150,-186.66 153.5,-176.66 146.5,-176.66"/>
</g>
<!-- Invis -->
<!-- nomadic device&#45;&gt;Invis -->
<!-- traveller -->
<g id="node4" class="node">
<title>traveller</title>
<g id="a_node4"><a xlink:href="../traveller/" xlink:title="&lt;TABLE&gt;" target="_top">
<polygon fill="lightgray" stroke="none" points="20.62,-25.88 20.62,-42.12 65.38,-42.12 65.38,-25.88 20.62,-25.88"/>
<text xml:space="preserve" text-anchor="start" x="21.62" y="-29.73" font-family="Arial" font-size="12.00">traveller</text>
<polygon fill="none" stroke="black" points="19.62,-24.88 19.62,-43.12 66.38,-43.12 66.38,-24.88 19.62,-24.88"/>
</a>
</g>
</g>
<!-- nomadic device&#45;&gt;traveller -->
<g id="edge4" class="edge">
<title>nomadic device&#45;&gt;traveller</title>
<path fill="none" stroke="black" d="M131.36,-115.1C114.33,-99.66 88.95,-76.66 69.76,-59.26"/>
<polygon fill="black" stroke="black" points="72.31,-56.84 62.55,-52.72 67.6,-62.03 72.31,-56.84"/>
<text xml:space="preserve" text-anchor="middle" x="141.11" y="-86.55" font-family="Arial" font-size="11.00"> accessedBy </text>
<text xml:space="preserve" text-anchor="middle" x="141.11" y="-73.05" font-family="Arial" font-size="11.00"> «min 0» &#160;</text>
</g>
<!-- Invis&#45;&gt;traveller -->
</g>
</svg>
