<?xml version="1.0" encoding="UTF-8" standalone="no"?>
<!DOCTYPE svg PUBLIC "-//W3C//DTD SVG 1.1//EN"
 "http://www.w3.org/Graphics/SVG/1.1/DTD/svg11.dtd">
<!-- Generated by graphviz version 14.0.2 (20251019.1705)
 -->
<!-- Pages: 1 -->
<svg width="193pt" height="175pt"
 viewBox="0.00 0.00 193.00 175.00" xmlns="http://www.w3.org/2000/svg" xmlns:xlink="http://www.w3.org/1999/xlink">
<g id="graph0" class="graph" transform="scale(1 1) rotate(0) translate(4 171)">
<polygon fill="white" stroke="none" points="-4,4 -4,-171 188.5,-171 188.5,4 -4,4"/>
<g id="clust2" class="cluster">
<title>cluster_associated</title>
</g>
<!-- parking space -->
<g id="node1" class="node">
<title>parking space</title>
<g id="a_node1"><a xlink:href="../classes/itsVocabulary__parking space.md" xlink:title="&lt;TABLE&gt;">
<polygon fill="lightgray" stroke="none" points="1,-124.88 1,-141.12 78,-141.12 78,-124.88 1,-124.88"/>
<text xml:space="preserve" text-anchor="start" x="2" y="-128.72" font-family="Arial" font-size="12.00">parking space</text>
<polygon fill="none" stroke="black" points="0,-123.88 0,-142.12 79,-142.12 79,-123.88 0,-123.88"/>
</a>
</g>
</g>
<!-- Invis -->
<!-- parking space&#45;&gt;Invis -->
<!-- vehicle -->
<g id="node3" class="node">
<title>vehicle</title>
<g id="a_node3"><a xlink:href="../vehicle/" xlink:title="&lt;TABLE&gt;" target="_top">
<polygon fill="lightgray" stroke="none" points="121.38,-25.88 121.38,-42.12 161.62,-42.12 161.62,-25.88 121.38,-25.88"/>
<text xml:space="preserve" text-anchor="start" x="122.38" y="-29.73" font-family="Arial" font-size="12.00">vehicle</text>
<polygon fill="none" stroke="black" points="120.38,-24.88 120.38,-43.12 162.62,-43.12 162.62,-24.88 120.38,-24.88"/>
</a>
</g>
</g>
<!-- parking space&#45;&gt;vehicle -->
<g id="edge3" class="edge">
<title>parking space&#45;&gt;vehicle</title>
<path fill="none" stroke="black" d="M50.1,-115.21C58.99,-101.96 72.55,-83.52 87.25,-70 92.61,-65.07 98.74,-60.39 104.91,-56.15"/>
<polygon fill="black" stroke="black" points="106.8,-59.09 113.26,-50.7 102.97,-53.23 106.8,-59.09"/>
<text xml:space="preserve" text-anchor="middle" x="112.38" y="-86.55" font-family="Arial" font-size="11.00"> store </text>
<text xml:space="preserve" text-anchor="middle" x="112.38" y="-73.05" font-family="Arial" font-size="11.00"> «max 1» &#160;</text>
</g>
<!-- Invis&#45;&gt;vehicle -->
</g>
</svg>
