<?xml version="1.0" encoding="UTF-8" standalone="no"?>
<!DOCTYPE svg PUBLIC "-//W3C//DTD SVG 1.1//EN"
 "http://www.w3.org/Graphics/SVG/1.1/DTD/svg11.dtd">
<!-- Generated by graphviz version 14.0.2 (20251019.1705)
 -->
<!-- Pages: 1 -->
<svg width="304pt" height="132pt"
 viewBox="0.00 0.00 304.00 132.00" xmlns="http://www.w3.org/2000/svg" xmlns:xlink="http://www.w3.org/1999/xlink">
<g id="graph0" class="graph" transform="scale(1 1) rotate(0) translate(4 128)">
<polygon fill="white" stroke="none" points="-4,4 -4,-128 299.62,-128 299.62,4 -4,4"/>
<g id="clust2" class="cluster">
<title>cluster_associated</title>
</g>
<!-- payment administration central system -->
<g id="node1" class="node">
<title>payment administration central system</title>
<g id="a_node1"><a xlink:href="../classes/itsVocabulary__payment administration central system.md" xlink:title="&lt;TABLE&gt;">
<polygon fill="lightgray" stroke="none" points="1,-25.88 1,-42.12 206.25,-42.12 206.25,-25.88 1,-25.88"/>
<text xml:space="preserve" text-anchor="start" x="2" y="-29.73" font-family="Arial" font-size="12.00">payment administration central system</text>
<polygon fill="none" stroke="black" points="0,-24.88 0,-43.12 207.25,-43.12 207.25,-24.88 0,-24.88"/>
</a>
</g>
</g>
<!-- centralSystem -->
<g id="node2" class="node">
<title>centralSystem</title>
<g id="a_node2"><a xlink:href="../central system/" xlink:title="&lt;TABLE&gt;" target="_top">
<polygon fill="lightgray" stroke="none" points="64.38,-97.88 64.38,-114.12 142.88,-114.12 142.88,-97.88 64.38,-97.88"/>
<text xml:space="preserve" text-anchor="start" x="65.38" y="-101.72" font-family="Arial" font-size="12.00">central system</text>
<polygon fill="none" stroke="black" points="63.38,-96.88 63.38,-115.12 143.88,-115.12 143.88,-96.88 63.38,-96.88"/>
</a>
</g>
</g>
<!-- payment administration central system&#45;&gt;centralSystem -->
<g id="edge1" class="edge">
<title>payment administration central system&#45;&gt;centralSystem</title>
<path fill="none" stroke="black" d="M103.62,-51.79C103.62,-59.25 103.62,-68.24 103.62,-76.69"/>
<polygon fill="none" stroke="black" points="100.13,-76.54 103.63,-86.54 107.13,-76.54 100.13,-76.54"/>
</g>
<!-- Invis -->
</g>
</svg>
