<?xml version="1.0" encoding="UTF-8" standalone="no"?>
<!DOCTYPE svg PUBLIC "-//W3C//DTD SVG 1.1//EN"
 "http://www.w3.org/Graphics/SVG/1.1/DTD/svg11.dtd">
<!-- Generated by graphviz version 14.0.2 (20251019.1705)
 -->
<!-- Pages: 1 -->
<svg width="156pt" height="132pt"
 viewBox="0.00 0.00 156.00 132.00" xmlns="http://www.w3.org/2000/svg" xmlns:xlink="http://www.w3.org/1999/xlink">
<g id="graph0" class="graph" transform="scale(1 1) rotate(0) translate(4 128)">
<polygon fill="white" stroke="none" points="-4,4 -4,-128 152.12,-128 152.12,4 -4,4"/>
<g id="clust2" class="cluster">
<title>cluster_associated</title>
</g>
<!-- pedestrian -->
<g id="node1" class="node">
<title>pedestrian</title>
<g id="a_node1"><a xlink:href="../classes/itsVocabulary__pedestrian.md" xlink:title="&lt;TABLE&gt;">
<polygon fill="lightgray" stroke="none" points="1,-25.88 1,-42.12 59.25,-42.12 59.25,-25.88 1,-25.88"/>
<text xml:space="preserve" text-anchor="start" x="2" y="-29.73" font-family="Arial" font-size="12.00">pedestrian</text>
<polygon fill="none" stroke="black" points="0,-24.88 0,-43.12 60.25,-43.12 60.25,-24.88 0,-24.88"/>
</a>
</g>
</g>
<!-- traveller -->
<g id="node2" class="node">
<title>traveller</title>
<g id="a_node2"><a xlink:href="../traveller/" xlink:title="&lt;TABLE&gt;" target="_top">
<polygon fill="lightgray" stroke="none" points="7.75,-97.88 7.75,-114.12 52.5,-114.12 52.5,-97.88 7.75,-97.88"/>
<text xml:space="preserve" text-anchor="start" x="8.75" y="-101.72" font-family="Arial" font-size="12.00">traveller</text>
<polygon fill="none" stroke="black" points="6.75,-96.88 6.75,-115.12 53.5,-115.12 53.5,-96.88 6.75,-96.88"/>
</a>
</g>
</g>
<!-- pedestrian&#45;&gt;traveller -->
<g id="edge1" class="edge">
<title>pedestrian&#45;&gt;traveller</title>
<path fill="none" stroke="black" d="M30.12,-51.79C30.12,-59.25 30.12,-68.24 30.12,-76.69"/>
<polygon fill="none" stroke="black" points="26.63,-76.54 30.13,-86.54 33.63,-76.54 26.63,-76.54"/>
</g>
<!-- Invis -->
</g>
</svg>
