<?xml version="1.0" encoding="UTF-8" standalone="no"?>
<!DOCTYPE svg PUBLIC "-//W3C//DTD SVG 1.1//EN"
 "http://www.w3.org/Graphics/SVG/1.1/DTD/svg11.dtd">
<!-- Generated by graphviz version 14.0.2 (20251019.1705)
 -->
<!-- Pages: 1 -->
<svg width="248pt" height="132pt"
 viewBox="0.00 0.00 248.00 132.00" xmlns="http://www.w3.org/2000/svg" xmlns:xlink="http://www.w3.org/1999/xlink">
<g id="graph0" class="graph" transform="scale(1 1) rotate(0) translate(4 128)">
<polygon fill="white" stroke="none" points="-4,4 -4,-128 243.5,-128 243.5,4 -4,4"/>
<g id="clust2" class="cluster">
<title>cluster_associated</title>
</g>
<!-- personal information device -->
<g id="node1" class="node">
<title>personal information device</title>
<g id="a_node1"><a xlink:href="../classes/itsVocabulary__personal information device.md" xlink:title="&lt;TABLE&gt;">
<polygon fill="lightgray" stroke="none" points="1,-25.88 1,-42.12 150,-42.12 150,-25.88 1,-25.88"/>
<text xml:space="preserve" text-anchor="start" x="2" y="-29.73" font-family="Arial" font-size="12.00">personal information device</text>
<polygon fill="none" stroke="black" points="0,-24.88 0,-43.12 151,-43.12 151,-24.88 0,-24.88"/>
</a>
</g>
</g>
<!-- personalSystem -->
<g id="node2" class="node">
<title>personalSystem</title>
<g id="a_node2"><a xlink:href="../personal system/" xlink:title="&lt;TABLE&gt;" target="_top">
<polygon fill="lightgray" stroke="none" points="31,-97.88 31,-114.12 120,-114.12 120,-97.88 31,-97.88"/>
<text xml:space="preserve" text-anchor="start" x="32" y="-101.72" font-family="Arial" font-size="12.00">personal system</text>
<polygon fill="none" stroke="black" points="30,-96.88 30,-115.12 121,-115.12 121,-96.88 30,-96.88"/>
</a>
</g>
</g>
<!-- personal information device&#45;&gt;personalSystem -->
<g id="edge1" class="edge">
<title>personal information device&#45;&gt;personalSystem</title>
<path fill="none" stroke="black" d="M75.5,-51.79C75.5,-59.25 75.5,-68.24 75.5,-76.69"/>
<polygon fill="none" stroke="black" points="72,-76.54 75.5,-86.54 79,-76.54 72,-76.54"/>
</g>
<!-- Invis -->
</g>
</svg>
