<?xml version="1.0" encoding="UTF-8" standalone="no"?>
<!DOCTYPE svg PUBLIC "-//W3C//DTD SVG 1.1//EN"
 "http://www.w3.org/Graphics/SVG/1.1/DTD/svg11.dtd">
<!-- Generated by graphviz version 14.0.2 (20251019.1705)
 -->
<!-- Pages: 1 -->
<svg width="168pt" height="175pt"
 viewBox="0.00 0.00 168.00 175.00" xmlns="http://www.w3.org/2000/svg" xmlns:xlink="http://www.w3.org/1999/xlink">
<g id="graph0" class="graph" transform="scale(1 1) rotate(0) translate(4 171)">
<polygon fill="white" stroke="none" points="-4,4 -4,-171 164,-171 164,4 -4,4"/>
<g id="clust2" class="cluster">
<title>cluster_associated</title>
</g>
<!-- process -->
<g id="node1" class="node">
<title>process</title>
<g id="a_node1"><a xlink:href="../classes/itsVocabulary__process.md" xlink:title="&lt;TABLE&gt;">
<polygon fill="lightgray" stroke="none" points="5,-124.88 5,-141.12 49,-141.12 49,-124.88 5,-124.88"/>
<text xml:space="preserve" text-anchor="start" x="6" y="-128.72" font-family="Arial" font-size="12.00">process</text>
<polygon fill="none" stroke="black" points="4,-123.88 4,-142.12 50,-142.12 50,-123.88 4,-123.88"/>
</a>
</g>
</g>
<!-- Invis -->
<!-- process&#45;&gt;Invis -->
<!-- function -->
<g id="node3" class="node">
<title>function</title>
<g id="a_node3"><a xlink:href="../function/" xlink:title="&lt;TABLE&gt;" target="_top">
<polygon fill="lightgray" stroke="none" points="95,-25.88 95,-42.12 139,-42.12 139,-25.88 95,-25.88"/>
<text xml:space="preserve" text-anchor="start" x="96" y="-29.73" font-family="Arial" font-size="12.00">function</text>
<polygon fill="none" stroke="black" points="94,-24.88 94,-43.12 140,-43.12 140,-24.88 94,-24.88"/>
</a>
</g>
</g>
<!-- process&#45;&gt;function -->
<g id="edge3" class="edge">
<title>process&#45;&gt;function</title>
<path fill="none" stroke="black" d="M30.8,-115.06C34.55,-101.55 41.43,-82.83 53,-70 60.49,-61.69 70.43,-54.95 80.24,-49.69"/>
<polygon fill="black" stroke="black" points="81.52,-52.95 88.94,-45.4 78.43,-46.68 81.52,-52.95"/>
<text xml:space="preserve" text-anchor="middle" x="83" y="-86.55" font-family="Arial" font-size="11.00"> aggregates </text>
<text xml:space="preserve" text-anchor="middle" x="83" y="-73.05" font-family="Arial" font-size="11.00"> «some» &#160;</text>
</g>
<!-- Invis&#45;&gt;function -->
</g>
</svg>
