<?xml version="1.0" encoding="UTF-8" standalone="no"?>
<!DOCTYPE svg PUBLIC "-//W3C//DTD SVG 1.1//EN"
 "http://www.w3.org/Graphics/SVG/1.1/DTD/svg11.dtd">
<!-- Generated by graphviz version 14.0.2 (20251019.1705)
 -->
<!-- Pages: 1 -->
<svg width="316pt" height="318pt"
 viewBox="0.00 0.00 316.00 318.00" xmlns="http://www.w3.org/2000/svg" xmlns:xlink="http://www.w3.org/1999/xlink">
<g id="graph0" class="graph" transform="scale(1 1) rotate(0) translate(4 313.5)">
<polygon fill="white" stroke="none" points="-4,4 -4,-313.5 311.8,-313.5 311.8,4 -4,4"/>
<g id="clust2" class="cluster">
<title>cluster_associated</title>
</g>
<!-- remote driver -->
<g id="node1" class="node">
<title>remote driver</title>
<g id="a_node1"><a xlink:href="../classes/itsVocabulary__remote driver.md" xlink:title="&lt;TABLE&gt;">
<polygon fill="lightgray" stroke="none" points="1,-184.38 1,-200.62 72.75,-200.62 72.75,-184.38 1,-184.38"/>
<text xml:space="preserve" text-anchor="start" x="2" y="-188.22" font-family="Arial" font-size="12.00">remote driver</text>
<polygon fill="none" stroke="black" points="0,-183.38 0,-201.62 73.75,-201.62 73.75,-183.38 0,-183.38"/>
</a>
</g>
</g>
<!-- driver -->
<g id="node2" class="node">
<title>driver</title>
<g id="a_node2"><a xlink:href="../driver/" xlink:title="&lt;TABLE&gt;" target="_top">
<polygon fill="lightgray" stroke="none" points="20.88,-283.38 20.88,-299.62 52.88,-299.62 52.88,-283.38 20.88,-283.38"/>
<text xml:space="preserve" text-anchor="start" x="21.88" y="-287.23" font-family="Arial" font-size="12.00">driver</text>
<polygon fill="none" stroke="black" points="19.88,-282.38 19.88,-300.62 53.88,-300.62 53.88,-282.38 19.88,-282.38"/>
</a>
</g>
</g>
<!-- remote driver&#45;&gt;driver -->
<g id="edge1" class="edge">
<title>remote driver&#45;&gt;driver</title>
<path fill="none" stroke="black" d="M36.88,-210.2C36.88,-224.47 36.88,-245.3 36.88,-262.17"/>
<polygon fill="none" stroke="black" points="33.38,-262.09 36.88,-272.09 40.38,-262.09 33.38,-262.09"/>
</g>
<!-- Invis -->
<!-- remote driver&#45;&gt;Invis -->
<!-- Ned24b37c5c794f679f58c55ab77ec8da -->
<g id="node6" class="node">
<title>Ned24b37c5c794f679f58c55ab77ec8da</title>
<polygon fill="lightyellow" stroke="none" points="169.12,-282.38 169.12,-300.62 228.62,-300.62 228.62,-282.38 169.12,-282.38"/>
<text xml:space="preserve" text-anchor="start" x="171.12" y="-287.23" font-family="Arial" font-size="12.00">«unionOf»</text>
<polygon fill="none" stroke="black" points="169.12,-282.38 169.12,-300.62 228.62,-300.62 228.62,-282.38 169.12,-282.38"/>
</g>
<!-- remote driver&#45;&gt;Ned24b37c5c794f679f58c55ab77ec8da -->
<g id="edge7" class="edge">
<title>remote driver&#45;&gt;Ned24b37c5c794f679f58c55ab77ec8da</title>
<path fill="none" stroke="black" d="M63.67,-210.32C83.89,-222.93 112.37,-240.52 137.62,-255.5 144.65,-259.67 152.17,-264.04 159.45,-268.22"/>
<polygon fill="black" stroke="black" points="157.43,-271.1 167.85,-273.03 160.91,-265.03 157.43,-271.1"/>
<text xml:space="preserve" text-anchor="middle" x="161.25" y="-245.05" font-family="Arial" font-size="11.00"> uses </text>
<text xml:space="preserve" text-anchor="middle" x="161.25" y="-231.55" font-family="Arial" font-size="11.00"> «min 1» &#160;</text>
</g>
<!-- nomadicVehicleInputDevice -->
<g id="node4" class="node">
<title>nomadicVehicleInputDevice</title>
<g id="a_node4"><a xlink:href="../nomadic vehicle input device/" xlink:title="&lt;TABLE&gt;" target="_top">
<polygon fill="lightgray" stroke="none" points="90.62,-98.88 90.62,-115.12 247.12,-115.12 247.12,-98.88 90.62,-98.88"/>
<text xml:space="preserve" text-anchor="start" x="91.62" y="-102.72" font-family="Arial" font-size="12.00">nomadic vehicle input device</text>
<polygon fill="none" stroke="black" points="89.62,-97.88 89.62,-116.12 248.12,-116.12 248.12,-97.88 89.62,-97.88"/>
</a>
</g>
</g>
<!-- Invis&#45;&gt;nomadicVehicleInputDevice -->
<!-- remoteVehicleInputDevice -->
<g id="node5" class="node">
<title>remoteVehicleInputDevice</title>
<g id="a_node5"><a xlink:href="../remote vehicle input device/" xlink:title="&lt;TABLE&gt;" target="_top">
<polygon fill="lightgray" stroke="none" points="97.12,-25.88 97.12,-42.12 244.62,-42.12 244.62,-25.88 97.12,-25.88"/>
<text xml:space="preserve" text-anchor="start" x="98.12" y="-29.73" font-family="Arial" font-size="12.00">remote vehicle input device</text>
<polygon fill="none" stroke="black" points="96.12,-24.88 96.12,-43.12 245.62,-43.12 245.62,-24.88 96.12,-24.88"/>
</a>
</g>
</g>
<!-- nomadicVehicleInputDevice&#45;&gt;remoteVehicleInputDevice -->
<!-- Ned24b37c5c794f679f58c55ab77ec8da&#45;&gt;nomadicVehicleInputDevice -->
<g id="edge5" class="edge">
<title>Ned24b37c5c794f679f58c55ab77ec8da&#45;&gt;nomadicVehicleInputDevice</title>
<path fill="none" stroke="black" stroke-dasharray="1,5" d="M196.11,-273.66C190.94,-242.22 179.78,-174.31 173.46,-135.92"/>
<polygon fill="black" stroke="black" points="176.96,-135.59 171.88,-126.29 170.05,-136.73 176.96,-135.59"/>
<text xml:space="preserve" text-anchor="middle" x="206.73" y="-188.8" font-family="Arial" font-size="11.00">member</text>
</g>
<!-- Ned24b37c5c794f679f58c55ab77ec8da&#45;&gt;remoteVehicleInputDevice -->
<g id="edge6" class="edge">
<title>Ned24b37c5c794f679f58c55ab77ec8da&#45;&gt;remoteVehicleInputDevice</title>
<path fill="none" stroke="black" stroke-dasharray="1,5" d="M212.03,-273.6C238.25,-237.69 291.66,-151.92 256.88,-89 249.6,-75.84 237.63,-65.46 224.9,-57.46"/>
<polygon fill="black" stroke="black" points="226.81,-54.52 216.4,-52.56 223.31,-60.59 226.81,-54.52"/>
<text xml:space="preserve" text-anchor="middle" x="287.92" y="-146.05" font-family="Arial" font-size="11.00">member</text>
</g>
</g>
</svg>
