<?xml version="1.0" encoding="UTF-8" standalone="no"?>
<!DOCTYPE svg PUBLIC "-//W3C//DTD SVG 1.1//EN"
 "http://www.w3.org/Graphics/SVG/1.1/DTD/svg11.dtd">
<!-- Generated by graphviz version 14.0.2 (20251019.1705)
 -->
<!-- Pages: 1 -->
<svg width="168pt" height="175pt"
 viewBox="0.00 0.00 168.00 175.00" xmlns="http://www.w3.org/2000/svg" xmlns:xlink="http://www.w3.org/1999/xlink">
<g id="graph0" class="graph" transform="scale(1 1) rotate(0) translate(4 171)">
<polygon fill="white" stroke="none" points="-4,4 -4,-171 164,-171 164,4 -4,4"/>
<g id="clust2" class="cluster">
<title>cluster_associated</title>
</g>
<!-- roadside -->
<g id="node1" class="node">
<title>roadside</title>
<g id="a_node1"><a xlink:href="../classes/itsVocabulary__roadside.md" xlink:title="&lt;TABLE&gt;">
<polygon fill="lightgray" stroke="none" points="2.75,-124.88 2.75,-141.12 51.25,-141.12 51.25,-124.88 2.75,-124.88"/>
<text xml:space="preserve" text-anchor="start" x="3.75" y="-128.72" font-family="Arial" font-size="12.00">roadside</text>
<polygon fill="none" stroke="black" points="1.75,-123.88 1.75,-142.12 52.25,-142.12 52.25,-123.88 1.75,-123.88"/>
</a>
</g>
</g>
<!-- Invis -->
<!-- roadside&#45;&gt;Invis -->
<!-- verge -->
<g id="node3" class="node">
<title>verge</title>
<g id="a_node3"><a xlink:href="../verge/" xlink:title="&lt;TABLE&gt;" target="_top">
<polygon fill="lightgray" stroke="none" points="101,-25.88 101,-42.12 133,-42.12 133,-25.88 101,-25.88"/>
<text xml:space="preserve" text-anchor="start" x="102" y="-29.73" font-family="Arial" font-size="12.00">verge</text>
<polygon fill="none" stroke="black" points="100,-24.88 100,-43.12 134,-43.12 134,-24.88 100,-24.88"/>
</a>
</g>
</g>
<!-- roadside&#45;&gt;verge -->
<g id="edge3" class="edge">
<title>roadside&#45;&gt;verge</title>
<path fill="none" stroke="black" d="M32.5,-115.17C37.54,-101.73 46.09,-83.05 58.25,-70 64.51,-63.28 72.35,-57.43 80.24,-52.53"/>
<polygon fill="black" stroke="black" points="81.91,-55.61 88.84,-47.6 78.43,-49.54 81.91,-55.61"/>
<text xml:space="preserve" text-anchor="middle" x="85.62" y="-86.55" font-family="Arial" font-size="11.00"> comprises </text>
<text xml:space="preserve" text-anchor="middle" x="85.62" y="-73.05" font-family="Arial" font-size="11.00"> «some» &#160;</text>
</g>
<!-- Invis&#45;&gt;verge -->
</g>
</svg>
