<?xml version="1.0" encoding="UTF-8" standalone="no"?>
<!DOCTYPE svg PUBLIC "-//W3C//DTD SVG 1.1//EN"
 "http://www.w3.org/Graphics/SVG/1.1/DTD/svg11.dtd">
<!-- Generated by graphviz version 14.0.2 (20251019.1705)
 -->
<!-- Pages: 1 -->
<svg width="166pt" height="132pt"
 viewBox="0.00 0.00 166.00 132.00" xmlns="http://www.w3.org/2000/svg" xmlns:xlink="http://www.w3.org/1999/xlink">
<g id="graph0" class="graph" transform="scale(1 1) rotate(0) translate(4 128)">
<polygon fill="white" stroke="none" points="-4,4 -4,-128 161.62,-128 161.62,4 -4,4"/>
<g id="clust2" class="cluster">
<title>cluster_associated</title>
</g>
<!-- road vehicle -->
<g id="node1" class="node">
<title>road vehicle</title>
<g id="a_node1"><a xlink:href="../classes/itsVocabulary__road vehicle.md" xlink:title="&lt;TABLE&gt;">
<polygon fill="lightgray" stroke="none" points="1,-25.88 1,-42.12 68.25,-42.12 68.25,-25.88 1,-25.88"/>
<text xml:space="preserve" text-anchor="start" x="2" y="-29.73" font-family="Arial" font-size="12.00">road vehicle</text>
<polygon fill="none" stroke="black" points="0,-24.88 0,-43.12 69.25,-43.12 69.25,-24.88 0,-24.88"/>
</a>
</g>
</g>
<!-- vehicle -->
<g id="node2" class="node">
<title>vehicle</title>
<g id="a_node2"><a xlink:href="../vehicle/" xlink:title="&lt;TABLE&gt;" target="_top">
<polygon fill="lightgray" stroke="none" points="14.5,-97.88 14.5,-114.12 54.75,-114.12 54.75,-97.88 14.5,-97.88"/>
<text xml:space="preserve" text-anchor="start" x="15.5" y="-101.72" font-family="Arial" font-size="12.00">vehicle</text>
<polygon fill="none" stroke="black" points="13.5,-96.88 13.5,-115.12 55.75,-115.12 55.75,-96.88 13.5,-96.88"/>
</a>
</g>
</g>
<!-- road vehicle&#45;&gt;vehicle -->
<g id="edge1" class="edge">
<title>road vehicle&#45;&gt;vehicle</title>
<path fill="none" stroke="black" d="M34.62,-51.79C34.62,-59.25 34.62,-68.24 34.62,-76.69"/>
<polygon fill="none" stroke="black" points="31.13,-76.54 34.63,-86.54 38.13,-76.54 31.13,-76.54"/>
</g>
<!-- Invis -->
</g>
</svg>
