<?xml version="1.0" encoding="UTF-8" standalone="no"?>
<!DOCTYPE svg PUBLIC "-//W3C//DTD SVG 1.1//EN"
 "http://www.w3.org/Graphics/SVG/1.1/DTD/svg11.dtd">
<!-- Generated by graphviz version 14.0.2 (20251019.1705)
 -->
<!-- Pages: 1 -->
<svg width="202pt" height="232pt"
 viewBox="0.00 0.00 202.00 232.00" xmlns="http://www.w3.org/2000/svg" xmlns:xlink="http://www.w3.org/1999/xlink">
<g id="graph0" class="graph" transform="scale(1 1) rotate(0) translate(4 228)">
<polygon fill="white" stroke="none" points="-4,4 -4,-228 198.38,-228 198.38,4 -4,4"/>
<g id="clust2" class="cluster">
<title>cluster_associated</title>
</g>
<!-- service provider -->
<g id="node1" class="node">
<title>service provider</title>
<g id="a_node1"><a xlink:href="../classes/itsVocabulary__service provider.md" xlink:title="&lt;TABLE&gt;">
<polygon fill="lightgray" stroke="none" points="106.62,-124.88 106.62,-141.12 193.38,-141.12 193.38,-124.88 106.62,-124.88"/>
<text xml:space="preserve" text-anchor="start" x="107.62" y="-128.72" font-family="Arial" font-size="12.00">service provider</text>
<polygon fill="none" stroke="black" points="105.62,-123.88 105.62,-142.12 194.38,-142.12 194.38,-123.88 105.62,-123.88"/>
</a>
</g>
</g>
<!-- entity -->
<g id="node2" class="node">
<title>entity</title>
<g id="a_node2"><a xlink:href="../entity/" xlink:title="&lt;TABLE&gt;" target="_top">
<polygon fill="lightgray" stroke="none" points="134.75,-197.88 134.75,-214.12 165.25,-214.12 165.25,-197.88 134.75,-197.88"/>
<text xml:space="preserve" text-anchor="start" x="135.75" y="-201.72" font-family="Arial" font-size="12.00">entity</text>
<polygon fill="none" stroke="black" points="133.75,-196.88 133.75,-215.12 166.25,-215.12 166.25,-196.88 133.75,-196.88"/>
</a>
</g>
</g>
<!-- service provider&#45;&gt;entity -->
<g id="edge1" class="edge">
<title>service provider&#45;&gt;entity</title>
<path fill="none" stroke="black" d="M150,-150.71C150,-158.47 150,-167.92 150,-176.74"/>
<polygon fill="none" stroke="black" points="146.5,-176.66 150,-186.66 153.5,-176.66 146.5,-176.66"/>
</g>
<!-- Invis -->
<!-- service provider&#45;&gt;Invis -->
<!-- service -->
<g id="node4" class="node">
<title>service</title>
<g id="a_node4"><a xlink:href="../service/" xlink:title="&lt;TABLE&gt;" target="_top">
<polygon fill="lightgray" stroke="none" points="22.88,-25.88 22.88,-42.12 63.12,-42.12 63.12,-25.88 22.88,-25.88"/>
<text xml:space="preserve" text-anchor="start" x="23.88" y="-29.73" font-family="Arial" font-size="12.00">service</text>
<polygon fill="none" stroke="black" points="21.88,-24.88 21.88,-43.12 64.12,-43.12 64.12,-24.88 21.88,-24.88"/>
</a>
</g>
</g>
<!-- service provider&#45;&gt;service -->
<g id="edge4" class="edge">
<title>service provider&#45;&gt;service</title>
<path fill="none" stroke="black" d="M131.36,-115.1C114.33,-99.66 88.95,-76.66 69.76,-59.26"/>
<polygon fill="black" stroke="black" points="72.31,-56.84 62.55,-52.72 67.6,-62.03 72.31,-56.84"/>
<text xml:space="preserve" text-anchor="middle" x="132.86" y="-86.55" font-family="Arial" font-size="11.00"> delivers </text>
<text xml:space="preserve" text-anchor="middle" x="132.86" y="-73.05" font-family="Arial" font-size="11.00"> «some» &#160;</text>
</g>
<!-- Invis&#45;&gt;service -->
</g>
</svg>
