<?xml version="1.0" encoding="UTF-8" standalone="no"?>
<!DOCTYPE svg PUBLIC "-//W3C//DTD SVG 1.1//EN"
 "http://www.w3.org/Graphics/SVG/1.1/DTD/svg11.dtd">
<!-- Generated by graphviz version 14.0.2 (20251019.1705)
 -->
<!-- Pages: 1 -->
<svg width="166pt" height="132pt"
 viewBox="0.00 0.00 166.00 132.00" xmlns="http://www.w3.org/2000/svg" xmlns:xlink="http://www.w3.org/1999/xlink">
<g id="graph0" class="graph" transform="scale(1 1) rotate(0) translate(4 128)">
<polygon fill="white" stroke="none" points="-4,4 -4,-128 162.38,-128 162.38,4 -4,4"/>
<g id="clust2" class="cluster">
<title>cluster_associated</title>
</g>
<!-- service alley -->
<g id="node1" class="node">
<title>service alley</title>
<g id="a_node1"><a xlink:href="../classes/itsVocabulary__service alley.md" xlink:title="&lt;TABLE&gt;">
<polygon fill="lightgray" stroke="none" points="1,-25.88 1,-42.12 69.75,-42.12 69.75,-25.88 1,-25.88"/>
<text xml:space="preserve" text-anchor="start" x="2" y="-29.73" font-family="Arial" font-size="12.00">service alley</text>
<polygon fill="none" stroke="black" points="0,-24.88 0,-43.12 70.75,-43.12 70.75,-24.88 0,-24.88"/>
</a>
</g>
</g>
<!-- alley -->
<g id="node2" class="node">
<title>alley</title>
<g id="a_node2"><a xlink:href="../alley/" xlink:title="&lt;TABLE&gt;" target="_top">
<polygon fill="lightgray" stroke="none" points="21.62,-97.88 21.62,-114.12 49.12,-114.12 49.12,-97.88 21.62,-97.88"/>
<text xml:space="preserve" text-anchor="start" x="22.62" y="-101.72" font-family="Arial" font-size="12.00">alley</text>
<polygon fill="none" stroke="black" points="20.62,-96.88 20.62,-115.12 50.12,-115.12 50.12,-96.88 20.62,-96.88"/>
</a>
</g>
</g>
<!-- service alley&#45;&gt;alley -->
<g id="edge1" class="edge">
<title>service alley&#45;&gt;alley</title>
<path fill="none" stroke="black" d="M35.38,-51.79C35.38,-59.25 35.38,-68.24 35.38,-76.69"/>
<polygon fill="none" stroke="black" points="31.88,-76.54 35.38,-86.54 38.88,-76.54 31.88,-76.54"/>
</g>
<!-- Invis -->
</g>
</svg>
