<?xml version="1.0" encoding="UTF-8" standalone="no"?>
<!DOCTYPE svg PUBLIC "-//W3C//DTD SVG 1.1//EN"
 "http://www.w3.org/Graphics/SVG/1.1/DTD/svg11.dtd">
<!-- Generated by graphviz version 14.0.2 (20251019.1705)
 -->
<!-- Pages: 1 -->
<svg width="169pt" height="248pt"
 viewBox="0.00 0.00 169.00 248.00" xmlns="http://www.w3.org/2000/svg" xmlns:xlink="http://www.w3.org/1999/xlink">
<g id="graph0" class="graph" transform="scale(1 1) rotate(0) translate(4 244)">
<polygon fill="white" stroke="none" points="-4,4 -4,-244 165,-244 165,4 -4,4"/>
<g id="clust2" class="cluster">
<title>cluster_associated</title>
</g>
<!-- service -->
<g id="node1" class="node">
<title>service</title>
<g id="a_node1"><a xlink:href="../classes/itsVocabulary__service.md" xlink:title="&lt;TABLE&gt;">
<polygon fill="lightgray" stroke="none" points="6.88,-197.88 6.88,-214.12 47.12,-214.12 47.12,-197.88 6.88,-197.88"/>
<text xml:space="preserve" text-anchor="start" x="7.88" y="-201.72" font-family="Arial" font-size="12.00">service</text>
<polygon fill="none" stroke="black" points="5.88,-196.88 5.88,-215.12 48.12,-215.12 48.12,-196.88 5.88,-196.88"/>
</a>
</g>
</g>
<!-- Invis -->
<!-- service&#45;&gt;Invis -->
<!-- user -->
<g id="node3" class="node">
<title>user</title>
<g id="a_node3"><a xlink:href="../user/" xlink:title="&lt;TABLE&gt;" target="_top">
<polygon fill="lightgray" stroke="none" points="104.38,-98.88 104.38,-115.12 129.62,-115.12 129.62,-98.88 104.38,-98.88"/>
<text xml:space="preserve" text-anchor="start" x="105.38" y="-102.72" font-family="Arial" font-size="12.00">user</text>
<polygon fill="none" stroke="black" points="103.38,-97.88 103.38,-116.12 130.62,-116.12 130.62,-97.88 103.38,-97.88"/>
</a>
</g>
</g>
<!-- service&#45;&gt;user -->
<g id="edge5" class="edge">
<title>service&#45;&gt;user</title>
<path fill="none" stroke="black" d="M35.06,-188.17C41.97,-174.9 52.83,-156.46 65.75,-143 70.29,-138.27 75.57,-133.81 80.98,-129.76"/>
<polygon fill="black" stroke="black" points="82.69,-132.84 88.86,-124.23 78.66,-127.11 82.69,-132.84"/>
<text xml:space="preserve" text-anchor="middle" x="89.38" y="-159.55" font-family="Arial" font-size="11.00"> for </text>
<text xml:space="preserve" text-anchor="middle" x="89.38" y="-146.05" font-family="Arial" font-size="11.00"> «some» &#160;</text>
</g>
<!-- userNeed -->
<g id="node4" class="node">
<title>userNeed</title>
<g id="a_node4"><a xlink:href="../user need/" xlink:title="&lt;TABLE&gt;" target="_top">
<polygon fill="lightgray" stroke="none" points="88.38,-25.88 88.38,-42.12 143.62,-42.12 143.62,-25.88 88.38,-25.88"/>
<text xml:space="preserve" text-anchor="start" x="89.38" y="-29.73" font-family="Arial" font-size="12.00">user need</text>
<polygon fill="none" stroke="black" points="87.38,-24.88 87.38,-43.12 144.62,-43.12 144.62,-24.88 87.38,-24.88"/>
</a>
</g>
</g>
<!-- service&#45;&gt;userNeed -->
<g id="edge4" class="edge">
<title>service&#45;&gt;userNeed</title>
<path fill="none" stroke="black" d="M23.56,-188.32C19.58,-164.52 15.68,-120.26 33.75,-89 43.59,-71.98 61.21,-59.34 77.62,-50.59"/>
<polygon fill="black" stroke="black" points="78.85,-53.9 86.25,-46.32 75.74,-47.62 78.85,-53.9"/>
<text xml:space="preserve" text-anchor="middle" x="57.38" y="-110.05" font-family="Arial" font-size="11.00"> fulfils </text>
<text xml:space="preserve" text-anchor="middle" x="57.38" y="-96.55" font-family="Arial" font-size="11.00"> «some» &#160;</text>
</g>
<!-- Invis&#45;&gt;user -->
<!-- user&#45;&gt;userNeed -->
</g>
</svg>
