<?xml version="1.0" encoding="UTF-8" standalone="no"?>
<!DOCTYPE svg PUBLIC "-//W3C//DTD SVG 1.1//EN"
 "http://www.w3.org/Graphics/SVG/1.1/DTD/svg11.dtd">
<!-- Generated by graphviz version 14.0.2 (20251019.1705)
 -->
<!-- Pages: 1 -->
<svg width="242pt" height="232pt"
 viewBox="0.00 0.00 242.00 232.00" xmlns="http://www.w3.org/2000/svg" xmlns:xlink="http://www.w3.org/1999/xlink">
<g id="graph0" class="graph" transform="scale(1 1) rotate(0) translate(4 228)">
<polygon fill="white" stroke="none" points="-4,4 -4,-228 237.71,-228 237.71,4 -4,4"/>
<g id="clust2" class="cluster">
<title>cluster_associated</title>
</g>
<!-- single carriageway -->
<g id="node1" class="node">
<title>single carriageway</title>
<g id="a_node1"><a xlink:href="../classes/itsVocabulary__single carriageway.md" xlink:title="&lt;TABLE&gt;">
<polygon fill="lightgray" stroke="none" points="110.75,-124.88 110.75,-141.12 213.25,-141.12 213.25,-124.88 110.75,-124.88"/>
<text xml:space="preserve" text-anchor="start" x="111.75" y="-128.72" font-family="Arial" font-size="12.00">single carriageway</text>
<polygon fill="none" stroke="black" points="109.75,-123.88 109.75,-142.12 214.25,-142.12 214.25,-123.88 109.75,-123.88"/>
</a>
</g>
</g>
<!-- roadway -->
<g id="node2" class="node">
<title>roadway</title>
<g id="a_node2"><a xlink:href="../roadway/" xlink:title="&lt;TABLE&gt;" target="_top">
<polygon fill="lightgray" stroke="none" points="138.12,-197.88 138.12,-214.12 185.88,-214.12 185.88,-197.88 138.12,-197.88"/>
<text xml:space="preserve" text-anchor="start" x="139.12" y="-201.72" font-family="Arial" font-size="12.00">roadway</text>
<polygon fill="none" stroke="black" points="137.12,-196.88 137.12,-215.12 186.88,-215.12 186.88,-196.88 137.12,-196.88"/>
</a>
</g>
</g>
<!-- single carriageway&#45;&gt;roadway -->
<g id="edge1" class="edge">
<title>single carriageway&#45;&gt;roadway</title>
<path fill="none" stroke="black" d="M162,-150.71C162,-158.47 162,-167.92 162,-176.74"/>
<polygon fill="none" stroke="black" points="158.5,-176.66 162,-186.66 165.5,-176.66 158.5,-176.66"/>
</g>
<!-- Invis -->
<!-- single carriageway&#45;&gt;Invis -->
<!-- carriageway -->
<g id="node4" class="node">
<title>carriageway</title>
<g id="a_node4"><a xlink:href="../carriageway/" xlink:title="&lt;TABLE&gt;" target="_top">
<polygon fill="lightgray" stroke="none" points="17.38,-25.88 17.38,-42.12 84.62,-42.12 84.62,-25.88 17.38,-25.88"/>
<text xml:space="preserve" text-anchor="start" x="18.38" y="-29.73" font-family="Arial" font-size="12.00">carriageway</text>
<polygon fill="none" stroke="black" points="16.38,-24.88 16.38,-43.12 85.62,-43.12 85.62,-24.88 16.38,-24.88"/>
</a>
</g>
</g>
<!-- single carriageway&#45;&gt;carriageway -->
<g id="edge4" class="edge">
<title>single carriageway&#45;&gt;carriageway</title>
<path fill="none" stroke="black" stroke-dasharray="5,2" d="M142.67,-115.1C125,-99.66 98.67,-76.66 78.76,-59.26"/>
<polygon fill="black" stroke="black" points="81.09,-56.64 71.25,-52.7 76.48,-61.91 81.09,-56.64"/>
<text xml:space="preserve" text-anchor="middle" x="176.71" y="-86.55" font-family="Arial" font-size="11.00"> onProperty: comprises </text>
<text xml:space="preserve" text-anchor="middle" x="176.71" y="-73.05" font-family="Arial" font-size="11.00"> «exactly 1» &#160;</text>
</g>
<!-- Invis&#45;&gt;carriageway -->
</g>
</svg>
