<?xml version="1.0" encoding="UTF-8" standalone="no"?>
<!DOCTYPE svg PUBLIC "-//W3C//DTD SVG 1.1//EN"
 "http://www.w3.org/Graphics/SVG/1.1/DTD/svg11.dtd">
<!-- Generated by graphviz version 14.0.2 (20251019.1705)
 -->
<!-- Pages: 1 -->
<svg width="218pt" height="175pt"
 viewBox="0.00 0.00 218.00 175.00" xmlns="http://www.w3.org/2000/svg" xmlns:xlink="http://www.w3.org/1999/xlink">
<g id="graph0" class="graph" transform="scale(1 1) rotate(0) translate(4 171)">
<polygon fill="white" stroke="none" points="-4,4 -4,-171 214.25,-171 214.25,4 -4,4"/>
<g id="clust2" class="cluster">
<title>cluster_associated</title>
</g>
<!-- spatial reference -->
<g id="node1" class="node">
<title>spatial reference</title>
<g id="a_node1"><a xlink:href="../classes/itsVocabulary__spatial reference.md" xlink:title="&lt;TABLE&gt;">
<polygon fill="lightgray" stroke="none" points="1,-124.88 1,-141.12 91.5,-141.12 91.5,-124.88 1,-124.88"/>
<text xml:space="preserve" text-anchor="start" x="2" y="-128.72" font-family="Arial" font-size="12.00">spatial reference</text>
<polygon fill="none" stroke="black" points="0,-123.88 0,-142.12 92.5,-142.12 92.5,-123.88 0,-123.88"/>
</a>
</g>
</g>
<!-- Invis -->
<!-- spatial reference&#45;&gt;Invis -->
<!-- spatialLocation -->
<g id="node3" class="node">
<title>spatialLocation</title>
<g id="a_node3"><a xlink:href="../spatial location/" xlink:title="&lt;TABLE&gt;" target="_top">
<polygon fill="lightgray" stroke="none" points="111.12,-25.88 111.12,-42.12 193.38,-42.12 193.38,-25.88 111.12,-25.88"/>
<text xml:space="preserve" text-anchor="start" x="112.12" y="-29.73" font-family="Arial" font-size="12.00">spatial location</text>
<polygon fill="none" stroke="black" points="110.12,-24.88 110.12,-43.12 194.38,-43.12 194.38,-24.88 110.12,-24.88"/>
</a>
</g>
</g>
<!-- spatial reference&#45;&gt;spatialLocation -->
<g id="edge3" class="edge">
<title>spatial reference&#45;&gt;spatialLocation</title>
<path fill="none" stroke="black" d="M50.07,-115.07C53.93,-101.38 61.14,-82.41 73.5,-70 80.94,-62.53 90.26,-56.51 99.85,-51.73"/>
<polygon fill="black" stroke="black" points="101.25,-54.94 108.92,-47.62 98.36,-48.56 101.25,-54.94"/>
<text xml:space="preserve" text-anchor="middle" x="111.38" y="-86.55" font-family="Arial" font-size="11.00"> specificationOf </text>
<text xml:space="preserve" text-anchor="middle" x="111.38" y="-73.05" font-family="Arial" font-size="11.00"> «some» &#160;</text>
</g>
<!-- Invis&#45;&gt;spatialLocation -->
</g>
</svg>
