<?xml version="1.0" encoding="UTF-8" standalone="no"?>
<!DOCTYPE svg PUBLIC "-//W3C//DTD SVG 1.1//EN"
 "http://www.w3.org/Graphics/SVG/1.1/DTD/svg11.dtd">
<!-- Generated by graphviz version 14.0.2 (20251019.1705)
 -->
<!-- Pages: 1 -->
<svg width="222pt" height="132pt"
 viewBox="0.00 0.00 222.00 132.00" xmlns="http://www.w3.org/2000/svg" xmlns:xlink="http://www.w3.org/1999/xlink">
<g id="graph0" class="graph" transform="scale(1 1) rotate(0) translate(4 128)">
<polygon fill="white" stroke="none" points="-4,4 -4,-128 218.12,-128 218.12,4 -4,4"/>
<g id="clust2" class="cluster">
<title>cluster_associated</title>
</g>
<!-- station&#45;based roundtrip -->
<g id="node1" class="node">
<title>station&#45;based roundtrip</title>
<g id="a_node1"><a xlink:href="../classes/itsVocabulary__station-based roundtrip.md" xlink:title="&lt;TABLE&gt;">
<polygon fill="lightgray" stroke="none" points="1,-25.88 1,-42.12 125.25,-42.12 125.25,-25.88 1,-25.88"/>
<text xml:space="preserve" text-anchor="start" x="2" y="-29.73" font-family="Arial" font-size="12.00">station&#45;based roundtrip</text>
<polygon fill="none" stroke="black" points="0,-24.88 0,-43.12 126.25,-43.12 126.25,-24.88 0,-24.88"/>
</a>
</g>
</g>
<!-- networkModel -->
<g id="node2" class="node">
<title>networkModel</title>
<g id="a_node2"><a xlink:href="../network model/" xlink:title="&lt;TABLE&gt;" target="_top">
<polygon fill="lightgray" stroke="none" points="23.12,-97.88 23.12,-114.12 103.12,-114.12 103.12,-97.88 23.12,-97.88"/>
<text xml:space="preserve" text-anchor="start" x="24.12" y="-101.72" font-family="Arial" font-size="12.00">network model</text>
<polygon fill="none" stroke="black" points="22.12,-96.88 22.12,-115.12 104.12,-115.12 104.12,-96.88 22.12,-96.88"/>
</a>
</g>
</g>
<!-- station&#45;based roundtrip&#45;&gt;networkModel -->
<g id="edge1" class="edge">
<title>station&#45;based roundtrip&#45;&gt;networkModel</title>
<path fill="none" stroke="black" d="M63.12,-51.79C63.12,-59.25 63.12,-68.24 63.12,-76.69"/>
<polygon fill="none" stroke="black" points="59.63,-76.54 63.13,-86.54 66.63,-76.54 59.63,-76.54"/>
</g>
<!-- Invis -->
</g>
</svg>
