<?xml version="1.0" encoding="UTF-8" standalone="no"?>
<!DOCTYPE svg PUBLIC "-//W3C//DTD SVG 1.1//EN"
 "http://www.w3.org/Graphics/SVG/1.1/DTD/svg11.dtd">
<!-- Generated by graphviz version 14.0.2 (20251019.1705)
 -->
<!-- Pages: 1 -->
<svg width="167pt" height="132pt"
 viewBox="0.00 0.00 167.00 132.00" xmlns="http://www.w3.org/2000/svg" xmlns:xlink="http://www.w3.org/1999/xlink">
<g id="graph0" class="graph" transform="scale(1 1) rotate(0) translate(4 128)">
<polygon fill="white" stroke="none" points="-4,4 -4,-128 162.75,-128 162.75,4 -4,4"/>
<g id="clust2" class="cluster">
<title>cluster_associated</title>
</g>
<!-- terminator -->
<g id="node1" class="node">
<title>terminator</title>
<g id="a_node1"><a xlink:href="../classes/itsVocabulary__terminator.md" xlink:title="&lt;TABLE&gt;">
<polygon fill="lightgray" stroke="none" points="14.12,-25.88 14.12,-42.12 69.38,-42.12 69.38,-25.88 14.12,-25.88"/>
<text xml:space="preserve" text-anchor="start" x="15.12" y="-29.73" font-family="Arial" font-size="12.00">terminator</text>
<polygon fill="none" stroke="black" points="13.12,-24.88 13.12,-43.12 70.38,-43.12 70.38,-24.88 13.12,-24.88"/>
</a>
</g>
</g>
<!-- physicalObject -->
<g id="node2" class="node">
<title>physicalObject</title>
<g id="a_node2"><a xlink:href="../physical object/" xlink:title="&lt;TABLE&gt;" target="_top">
<polygon fill="lightgray" stroke="none" points="1,-97.88 1,-114.12 82.5,-114.12 82.5,-97.88 1,-97.88"/>
<text xml:space="preserve" text-anchor="start" x="2" y="-101.72" font-family="Arial" font-size="12.00">physical object</text>
<polygon fill="none" stroke="black" points="0,-96.88 0,-115.12 83.5,-115.12 83.5,-96.88 0,-96.88"/>
</a>
</g>
</g>
<!-- terminator&#45;&gt;physicalObject -->
<g id="edge1" class="edge">
<title>terminator&#45;&gt;physicalObject</title>
<path fill="none" stroke="black" d="M41.75,-51.79C41.75,-59.25 41.75,-68.24 41.75,-76.69"/>
<polygon fill="none" stroke="black" points="38.25,-76.54 41.75,-86.54 45.25,-76.54 38.25,-76.54"/>
</g>
<!-- Invis -->
</g>
</svg>
