<?xml version="1.0" encoding="UTF-8" standalone="no"?>
<!DOCTYPE svg PUBLIC "-//W3C//DTD SVG 1.1//EN"
 "http://www.w3.org/Graphics/SVG/1.1/DTD/svg11.dtd">
<!-- Generated by graphviz version 14.0.2 (20251019.1705)
 -->
<!-- Pages: 1 -->
<svg width="206pt" height="132pt"
 viewBox="0.00 0.00 206.00 132.00" xmlns="http://www.w3.org/2000/svg" xmlns:xlink="http://www.w3.org/1999/xlink">
<g id="graph0" class="graph" transform="scale(1 1) rotate(0) translate(4 128)">
<polygon fill="white" stroke="none" points="-4,4 -4,-128 201.88,-128 201.88,4 -4,4"/>
<g id="clust2" class="cluster">
<title>cluster_associated</title>
</g>
<!-- traffic control device -->
<g id="node1" class="node">
<title>traffic control device</title>
<g id="a_node1"><a xlink:href="../classes/itsVocabulary__traffic control device.md" xlink:title="&lt;TABLE&gt;">
<polygon fill="lightgray" stroke="none" points="1,-25.88 1,-42.12 108.75,-42.12 108.75,-25.88 1,-25.88"/>
<text xml:space="preserve" text-anchor="start" x="2" y="-29.73" font-family="Arial" font-size="12.00">traffic control device</text>
<polygon fill="none" stroke="black" points="0,-24.88 0,-43.12 109.75,-43.12 109.75,-24.88 0,-24.88"/>
</a>
</g>
</g>
<!-- roadEquipment -->
<g id="node2" class="node">
<title>roadEquipment</title>
<g id="a_node2"><a xlink:href="../road equipment/" xlink:title="&lt;TABLE&gt;" target="_top">
<polygon fill="lightgray" stroke="none" points="12.25,-97.88 12.25,-114.12 97.5,-114.12 97.5,-97.88 12.25,-97.88"/>
<text xml:space="preserve" text-anchor="start" x="13.25" y="-101.72" font-family="Arial" font-size="12.00">road equipment</text>
<polygon fill="none" stroke="black" points="11.25,-96.88 11.25,-115.12 98.5,-115.12 98.5,-96.88 11.25,-96.88"/>
</a>
</g>
</g>
<!-- traffic control device&#45;&gt;roadEquipment -->
<g id="edge1" class="edge">
<title>traffic control device&#45;&gt;roadEquipment</title>
<path fill="none" stroke="black" d="M54.88,-51.79C54.88,-59.25 54.88,-68.24 54.88,-76.69"/>
<polygon fill="none" stroke="black" points="51.38,-76.54 54.88,-86.54 58.38,-76.54 51.38,-76.54"/>
</g>
<!-- Invis -->
</g>
</svg>
