<?xml version="1.0" encoding="UTF-8" standalone="no"?>
<!DOCTYPE svg PUBLIC "-//W3C//DTD SVG 1.1//EN"
 "http://www.w3.org/Graphics/SVG/1.1/DTD/svg11.dtd">
<!-- Generated by graphviz version 14.0.2 (20251019.1705)
 -->
<!-- Pages: 1 -->
<svg width="230pt" height="232pt"
 viewBox="0.00 0.00 230.00 232.00" xmlns="http://www.w3.org/2000/svg" xmlns:xlink="http://www.w3.org/1999/xlink">
<g id="graph0" class="graph" transform="scale(1 1) rotate(0) translate(4 228)">
<polygon fill="white" stroke="none" points="-4,4 -4,-228 225.5,-228 225.5,4 -4,4"/>
<g id="clust2" class="cluster">
<title>cluster_associated</title>
</g>
<!-- transport provider -->
<g id="node1" class="node">
<title>transport provider</title>
<g id="a_node1"><a xlink:href="../classes/itsVocabulary__transport provider.md" xlink:title="&lt;TABLE&gt;">
<polygon fill="lightgray" stroke="none" points="125.5,-124.88 125.5,-141.12 220.5,-141.12 220.5,-124.88 125.5,-124.88"/>
<text xml:space="preserve" text-anchor="start" x="126.5" y="-128.72" font-family="Arial" font-size="12.00">transport provider</text>
<polygon fill="none" stroke="black" points="124.5,-123.88 124.5,-142.12 221.5,-142.12 221.5,-123.88 124.5,-123.88"/>
</a>
</g>
</g>
<!-- serviceProvider -->
<g id="node2" class="node">
<title>serviceProvider</title>
<g id="a_node2"><a xlink:href="../service provider/" xlink:title="&lt;TABLE&gt;" target="_top">
<polygon fill="lightgray" stroke="none" points="129.62,-197.88 129.62,-214.12 216.38,-214.12 216.38,-197.88 129.62,-197.88"/>
<text xml:space="preserve" text-anchor="start" x="130.62" y="-201.72" font-family="Arial" font-size="12.00">service provider</text>
<polygon fill="none" stroke="black" points="128.62,-196.88 128.62,-215.12 217.38,-215.12 217.38,-196.88 128.62,-196.88"/>
</a>
</g>
</g>
<!-- transport provider&#45;&gt;serviceProvider -->
<g id="edge1" class="edge">
<title>transport provider&#45;&gt;serviceProvider</title>
<path fill="none" stroke="black" d="M173,-150.71C173,-158.47 173,-167.92 173,-176.74"/>
<polygon fill="none" stroke="black" points="169.5,-176.66 173,-186.66 176.5,-176.66 169.5,-176.66"/>
</g>
<!-- Invis -->
<!-- transport provider&#45;&gt;Invis -->
<!-- transportService -->
<g id="node4" class="node">
<title>transportService</title>
<g id="a_node4"><a xlink:href="../transport service/" xlink:title="&lt;TABLE&gt;" target="_top">
<polygon fill="lightgray" stroke="none" points="17.12,-25.88 17.12,-42.12 106.88,-42.12 106.88,-25.88 17.12,-25.88"/>
<text xml:space="preserve" text-anchor="start" x="18.12" y="-29.73" font-family="Arial" font-size="12.00">transport service</text>
<polygon fill="none" stroke="black" points="16.12,-24.88 16.12,-43.12 107.88,-43.12 107.88,-24.88 16.12,-24.88"/>
</a>
</g>
</g>
<!-- transport provider&#45;&gt;transportService -->
<g id="edge4" class="edge">
<title>transport provider&#45;&gt;transportService</title>
<path fill="none" stroke="black" d="M153.67,-115.1C136,-99.66 109.67,-76.66 89.76,-59.26"/>
<polygon fill="black" stroke="black" points="92.09,-56.64 82.25,-52.7 87.48,-61.91 92.09,-56.64"/>
<text xml:space="preserve" text-anchor="middle" x="154.33" y="-86.55" font-family="Arial" font-size="11.00"> delivers </text>
<text xml:space="preserve" text-anchor="middle" x="154.33" y="-73.05" font-family="Arial" font-size="11.00"> «some» &#160;</text>
</g>
<!-- Invis&#45;&gt;transportService -->
</g>
</svg>
