<?xml version="1.0" encoding="UTF-8" standalone="no"?>
<!DOCTYPE svg PUBLIC "-//W3C//DTD SVG 1.1//EN"
 "http://www.w3.org/Graphics/SVG/1.1/DTD/svg11.dtd">
<!-- Generated by graphviz version 14.0.2 (20251019.1705)
 -->
<!-- Pages: 1 -->
<svg width="288pt" height="132pt"
 viewBox="0.00 0.00 288.00 132.00" xmlns="http://www.w3.org/2000/svg" xmlns:xlink="http://www.w3.org/1999/xlink">
<g id="graph0" class="graph" transform="scale(1 1) rotate(0) translate(4 128)">
<polygon fill="white" stroke="none" points="-4,4 -4,-128 284.12,-128 284.12,4 -4,4"/>
<g id="clust2" class="cluster">
<title>cluster_associated</title>
</g>
<!-- transport information central system -->
<g id="node1" class="node">
<title>transport information central system</title>
<g id="a_node1"><a xlink:href="../classes/itsVocabulary__transport information central system.md" xlink:title="&lt;TABLE&gt;">
<polygon fill="lightgray" stroke="none" points="1,-25.88 1,-42.12 191.25,-42.12 191.25,-25.88 1,-25.88"/>
<text xml:space="preserve" text-anchor="start" x="2" y="-29.73" font-family="Arial" font-size="12.00">transport information central system</text>
<polygon fill="none" stroke="black" points="0,-24.88 0,-43.12 192.25,-43.12 192.25,-24.88 0,-24.88"/>
</a>
</g>
</g>
<!-- centralSystem -->
<g id="node2" class="node">
<title>centralSystem</title>
<g id="a_node2"><a xlink:href="../central system/" xlink:title="&lt;TABLE&gt;" target="_top">
<polygon fill="lightgray" stroke="none" points="56.88,-97.88 56.88,-114.12 135.38,-114.12 135.38,-97.88 56.88,-97.88"/>
<text xml:space="preserve" text-anchor="start" x="57.88" y="-101.72" font-family="Arial" font-size="12.00">central system</text>
<polygon fill="none" stroke="black" points="55.88,-96.88 55.88,-115.12 136.38,-115.12 136.38,-96.88 55.88,-96.88"/>
</a>
</g>
</g>
<!-- transport information central system&#45;&gt;centralSystem -->
<g id="edge1" class="edge">
<title>transport information central system&#45;&gt;centralSystem</title>
<path fill="none" stroke="black" d="M96.12,-51.79C96.12,-59.25 96.12,-68.24 96.12,-76.69"/>
<polygon fill="none" stroke="black" points="92.63,-76.54 96.13,-86.54 99.63,-76.54 92.63,-76.54"/>
</g>
<!-- Invis -->
</g>
</svg>
