<?xml version="1.0" encoding="UTF-8" standalone="no"?>
<!DOCTYPE svg PUBLIC "-//W3C//DTD SVG 1.1//EN"
 "http://www.w3.org/Graphics/SVG/1.1/DTD/svg11.dtd">
<!-- Generated by graphviz version 14.0.2 (20251019.1705)
 -->
<!-- Pages: 1 -->
<svg width="266pt" height="175pt"
 viewBox="0.00 0.00 266.00 175.00" xmlns="http://www.w3.org/2000/svg" xmlns:xlink="http://www.w3.org/1999/xlink">
<g id="graph0" class="graph" transform="scale(1 1) rotate(0) translate(4 171)">
<polygon fill="white" stroke="none" points="-4,4 -4,-171 261.62,-171 261.62,4 -4,4"/>
<g id="clust2" class="cluster">
<title>cluster_associated</title>
</g>
<!-- transport sharing -->
<g id="node1" class="node">
<title>transport sharing</title>
<g id="a_node1"><a xlink:href="../classes/itsVocabulary__transport sharing.md" xlink:title="&lt;TABLE&gt;">
<polygon fill="lightgray" stroke="none" points="1,-124.88 1,-141.12 92.25,-141.12 92.25,-124.88 1,-124.88"/>
<text xml:space="preserve" text-anchor="start" x="2" y="-128.72" font-family="Arial" font-size="12.00">transport sharing</text>
<polygon fill="none" stroke="black" points="0,-123.88 0,-142.12 93.25,-142.12 93.25,-123.88 0,-123.88"/>
</a>
</g>
</g>
<!-- Invis -->
<!-- transport sharing&#45;&gt;Invis -->
<!-- sharedTransportService -->
<g id="node3" class="node">
<title>sharedTransportService</title>
<g id="a_node3"><a xlink:href="../shared transport service/" xlink:title="&lt;TABLE&gt;" target="_top">
<polygon fill="lightgray" stroke="none" points="110.88,-25.88 110.88,-42.12 240.38,-42.12 240.38,-25.88 110.88,-25.88"/>
<text xml:space="preserve" text-anchor="start" x="111.88" y="-29.73" font-family="Arial" font-size="12.00">shared transport service</text>
<polygon fill="none" stroke="black" points="109.88,-24.88 109.88,-43.12 241.38,-43.12 241.38,-24.88 109.88,-24.88"/>
</a>
</g>
</g>
<!-- transport sharing&#45;&gt;sharedTransportService -->
<g id="edge3" class="edge">
<title>transport sharing&#45;&gt;sharedTransportService</title>
<path fill="none" stroke="black" d="M64.52,-115.08C78.64,-102.1 99.1,-84.08 118.38,-70 124.06,-65.85 130.24,-61.71 136.38,-57.81"/>
<polygon fill="black" stroke="black" points="137.96,-60.95 144.61,-52.7 134.27,-55 137.96,-60.95"/>
<text xml:space="preserve" text-anchor="middle" x="142" y="-86.55" font-family="Arial" font-size="11.00"> using </text>
<text xml:space="preserve" text-anchor="middle" x="142" y="-73.05" font-family="Arial" font-size="11.00"> «some» &#160;</text>
</g>
<!-- Invis&#45;&gt;sharedTransportService -->
</g>
</svg>
