<?xml version="1.0" encoding="UTF-8" standalone="no"?>
<!DOCTYPE svg PUBLIC "-//W3C//DTD SVG 1.1//EN"
 "http://www.w3.org/Graphics/SVG/1.1/DTD/svg11.dtd">
<!-- Generated by graphviz version 14.0.2 (20251019.1705)
 -->
<!-- Pages: 1 -->
<svg width="224pt" height="132pt"
 viewBox="0.00 0.00 224.00 132.00" xmlns="http://www.w3.org/2000/svg" xmlns:xlink="http://www.w3.org/1999/xlink">
<g id="graph0" class="graph" transform="scale(1 1) rotate(0) translate(4 128)">
<polygon fill="white" stroke="none" points="-4,4 -4,-128 219.5,-128 219.5,4 -4,4"/>
<g id="clust2" class="cluster">
<title>cluster_associated</title>
</g>
<!-- ultra&#45;low vehicle speed -->
<g id="node1" class="node">
<title>ultra&#45;low vehicle speed</title>
<g id="a_node1"><a xlink:href="../classes/itsVocabulary__ultra-low vehicle speed.md" xlink:title="&lt;TABLE&gt;">
<polygon fill="lightgray" stroke="none" points="1,-25.88 1,-42.12 126,-42.12 126,-25.88 1,-25.88"/>
<text xml:space="preserve" text-anchor="start" x="2" y="-29.73" font-family="Arial" font-size="12.00">ultra&#45;low vehicle speed</text>
<polygon fill="none" stroke="black" points="0,-24.88 0,-43.12 127,-43.12 127,-24.88 0,-24.88"/>
</a>
</g>
</g>
<!-- speed -->
<g id="node2" class="node">
<title>speed</title>
<g id="a_node2"><a xlink:href="../speed/" xlink:title="&lt;TABLE&gt;" target="_top">
<polygon fill="lightgray" stroke="none" points="46,-97.88 46,-114.12 81,-114.12 81,-97.88 46,-97.88"/>
<text xml:space="preserve" text-anchor="start" x="47" y="-101.72" font-family="Arial" font-size="12.00">speed</text>
<polygon fill="none" stroke="black" points="45,-96.88 45,-115.12 82,-115.12 82,-96.88 45,-96.88"/>
</a>
</g>
</g>
<!-- ultra&#45;low vehicle speed&#45;&gt;speed -->
<g id="edge1" class="edge">
<title>ultra&#45;low vehicle speed&#45;&gt;speed</title>
<path fill="none" stroke="black" d="M63.5,-51.79C63.5,-59.25 63.5,-68.24 63.5,-76.69"/>
<polygon fill="none" stroke="black" points="60,-76.54 63.5,-86.54 67,-76.54 60,-76.54"/>
</g>
<!-- Invis -->
</g>
</svg>
