<?xml version="1.0" encoding="UTF-8" standalone="no"?>
<!DOCTYPE svg PUBLIC "-//W3C//DTD SVG 1.1//EN"
 "http://www.w3.org/Graphics/SVG/1.1/DTD/svg11.dtd">
<!-- Generated by graphviz version 14.0.2 (20251019.1705)
 -->
<!-- Pages: 1 -->
<svg width="208pt" height="248pt"
 viewBox="0.00 0.00 208.00 248.00" xmlns="http://www.w3.org/2000/svg" xmlns:xlink="http://www.w3.org/1999/xlink">
<g id="graph0" class="graph" transform="scale(1 1) rotate(0) translate(4 244)">
<polygon fill="white" stroke="none" points="-4,4 -4,-244 204,-244 204,4 -4,4"/>
<g id="clust2" class="cluster">
<title>cluster_associated</title>
</g>
<!-- vehicle occupant -->
<g id="node1" class="node">
<title>vehicle occupant</title>
<g id="a_node1"><a xlink:href="../classes/itsVocabulary__vehicle occupant.md" xlink:title="&lt;TABLE&gt;">
<polygon fill="lightgray" stroke="none" points="1,-197.88 1,-214.12 93,-214.12 93,-197.88 1,-197.88"/>
<text xml:space="preserve" text-anchor="start" x="2" y="-201.72" font-family="Arial" font-size="12.00">vehicle occupant</text>
<polygon fill="none" stroke="black" points="0,-196.88 0,-215.12 94,-215.12 94,-196.88 0,-196.88"/>
</a>
</g>
</g>
<!-- Invis -->
<!-- vehicle occupant&#45;&gt;Invis -->
<!-- person -->
<g id="node3" class="node">
<title>person</title>
<g id="a_node3"><a xlink:href="../person/" xlink:title="&lt;TABLE&gt;" target="_top">
<polygon fill="lightgray" stroke="none" points="137.62,-98.88 137.62,-115.12 176.38,-115.12 176.38,-98.88 137.62,-98.88"/>
<text xml:space="preserve" text-anchor="start" x="138.62" y="-102.72" font-family="Arial" font-size="12.00">person</text>
<polygon fill="none" stroke="black" points="136.62,-97.88 136.62,-116.12 177.38,-116.12 177.38,-97.88 136.62,-97.88"/>
</a>
</g>
</g>
<!-- vehicle occupant&#45;&gt;person -->
<g id="edge4" class="edge">
<title>vehicle occupant&#45;&gt;person</title>
<path fill="none" stroke="black" d="M61.33,-188.01C72.71,-174.98 89.38,-156.95 105.75,-143 110.47,-138.98 115.65,-135 120.85,-131.25"/>
<polygon fill="black" stroke="black" points="122.7,-134.23 128.9,-125.64 118.69,-128.49 122.7,-134.23"/>
<text xml:space="preserve" text-anchor="middle" x="129.38" y="-159.55" font-family="Arial" font-size="11.00"> isA </text>
<text xml:space="preserve" text-anchor="middle" x="129.38" y="-146.05" font-family="Arial" font-size="11.00"> «some» &#160;</text>
</g>
<!-- vehicle -->
<g id="node4" class="node">
<title>vehicle</title>
<g id="a_node4"><a xlink:href="../vehicle/" xlink:title="&lt;TABLE&gt;" target="_top">
<polygon fill="lightgray" stroke="none" points="136.88,-25.88 136.88,-42.12 177.12,-42.12 177.12,-25.88 136.88,-25.88"/>
<text xml:space="preserve" text-anchor="start" x="137.88" y="-29.73" font-family="Arial" font-size="12.00">vehicle</text>
<polygon fill="none" stroke="black" points="135.88,-24.88 135.88,-43.12 178.12,-43.12 178.12,-24.88 135.88,-24.88"/>
</a>
</g>
</g>
<!-- vehicle occupant&#45;&gt;vehicle -->
<g id="edge5" class="edge">
<title>vehicle occupant&#45;&gt;vehicle</title>
<path fill="none" stroke="black" d="M47.04,-188.05C47.9,-163.94 52.53,-119.3 73.75,-89 85.29,-72.52 103.62,-59.84 120.15,-50.92"/>
<polygon fill="black" stroke="black" points="121.45,-54.19 128.78,-46.54 118.28,-47.95 121.45,-54.19"/>
<text xml:space="preserve" text-anchor="middle" x="97.38" y="-110.05" font-family="Arial" font-size="11.00"> isIn </text>
<text xml:space="preserve" text-anchor="middle" x="97.38" y="-96.55" font-family="Arial" font-size="11.00"> «some» &#160;</text>
</g>
<!-- Invis&#45;&gt;person -->
<!-- person&#45;&gt;vehicle -->
</g>
</svg>
