<?xml version="1.0" encoding="UTF-8" standalone="no"?>
<!DOCTYPE svg PUBLIC "-//W3C//DTD SVG 1.1//EN"
 "http://www.w3.org/Graphics/SVG/1.1/DTD/svg11.dtd">
<!-- Generated by graphviz version 14.0.2 (20251019.1705)
 -->
<!-- Pages: 1 -->
<svg width="303pt" height="175pt"
 viewBox="0.00 0.00 303.00 175.00" xmlns="http://www.w3.org/2000/svg" xmlns:xlink="http://www.w3.org/1999/xlink">
<g id="graph0" class="graph" transform="scale(1 1) rotate(0) translate(4 171)">
<polygon fill="white" stroke="none" points="-4,4 -4,-171 299.25,-171 299.25,4 -4,4"/>
<g id="clust2" class="cluster">
<title>cluster_associated</title>
</g>
<!-- vehicle registration plate identifier -->
<g id="node1" class="node">
<title>vehicle registration plate identifier</title>
<g id="a_node1"><a xlink:href="../classes/itsVocabulary__vehicle registration plate identifier.md" xlink:title="&lt;TABLE&gt;">
<polygon fill="lightgray" stroke="none" points="1,-124.88 1,-141.12 181.5,-141.12 181.5,-124.88 1,-124.88"/>
<text xml:space="preserve" text-anchor="start" x="2" y="-128.72" font-family="Arial" font-size="12.00">vehicle registration plate identifier</text>
<polygon fill="none" stroke="black" points="0,-123.88 0,-142.12 182.5,-142.12 182.5,-123.88 0,-123.88"/>
</a>
</g>
</g>
<!-- Invis -->
<!-- vehicle registration plate identifier&#45;&gt;Invis -->
<!-- vehicle -->
<g id="node3" class="node">
<title>vehicle</title>
<g id="a_node3"><a xlink:href="../vehicle/" xlink:title="&lt;TABLE&gt;" target="_top">
<polygon fill="lightgray" stroke="none" points="232.12,-25.88 232.12,-42.12 272.38,-42.12 272.38,-25.88 232.12,-25.88"/>
<text xml:space="preserve" text-anchor="start" x="233.12" y="-29.73" font-family="Arial" font-size="12.00">vehicle</text>
<polygon fill="none" stroke="black" points="231.12,-24.88 231.12,-43.12 273.38,-43.12 273.38,-24.88 231.12,-24.88"/>
</a>
</g>
</g>
<!-- vehicle registration plate identifier&#45;&gt;vehicle -->
<g id="edge3" class="edge">
<title>vehicle registration plate identifier&#45;&gt;vehicle</title>
<path fill="none" stroke="black" d="M84.05,-115.11C79.47,-101.45 76.11,-82.5 86.25,-70 102.01,-50.57 169.99,-41.51 213.91,-37.62"/>
<polygon fill="black" stroke="black" points="214.15,-41.11 223.82,-36.8 213.57,-34.14 214.15,-41.11"/>
<text xml:space="preserve" text-anchor="middle" x="167.25" y="-86.55" font-family="Arial" font-size="11.00"> identifierUniqueWithinRegionFor </text>
<text xml:space="preserve" text-anchor="middle" x="167.25" y="-73.05" font-family="Arial" font-size="11.00"> «exactly 1» &#160;</text>
</g>
<!-- Invis&#45;&gt;vehicle -->
</g>
</svg>
