<?xml version="1.0" encoding="UTF-8" standalone="no"?>
<!DOCTYPE svg PUBLIC "-//W3C//DTD SVG 1.1//EN"
 "http://www.w3.org/Graphics/SVG/1.1/DTD/svg11.dtd">
<!-- Generated by graphviz version 14.0.2 (20251019.1705)
 -->
<!-- Pages: 1 -->
<svg width="206pt" height="132pt"
 viewBox="0.00 0.00 206.00 132.00" xmlns="http://www.w3.org/2000/svg" xmlns:xlink="http://www.w3.org/1999/xlink">
<g id="graph0" class="graph" transform="scale(1 1) rotate(0) translate(4 128)">
<polygon fill="white" stroke="none" points="-4,4 -4,-128 201.88,-128 201.88,4 -4,4"/>
<g id="clust2" class="cluster">
<title>cluster_associated</title>
</g>
<!-- vehicle input device -->
<g id="node1" class="node">
<title>vehicle input device</title>
<g id="a_node1"><a xlink:href="../classes/itsVocabulary__vehicle input device.md" xlink:title="&lt;TABLE&gt;">
<polygon fill="lightgray" stroke="none" points="1,-25.88 1,-42.12 108.75,-42.12 108.75,-25.88 1,-25.88"/>
<text xml:space="preserve" text-anchor="start" x="2" y="-29.73" font-family="Arial" font-size="12.00">vehicle input device</text>
<polygon fill="none" stroke="black" points="0,-24.88 0,-43.12 109.75,-43.12 109.75,-24.88 0,-24.88"/>
</a>
</g>
</g>
<!-- materialEntity -->
<g id="node2" class="node">
<title>materialEntity</title>
<g id="a_node2"><a xlink:href="../material entity/" xlink:title="&lt;TABLE&gt;" target="_top">
<polygon fill="lightgray" stroke="none" points="16.75,-97.88 16.75,-114.12 93,-114.12 93,-97.88 16.75,-97.88"/>
<text xml:space="preserve" text-anchor="start" x="17.75" y="-101.72" font-family="Arial" font-size="12.00">material entity</text>
<polygon fill="none" stroke="black" points="15.75,-96.88 15.75,-115.12 94,-115.12 94,-96.88 15.75,-96.88"/>
</a>
</g>
</g>
<!-- vehicle input device&#45;&gt;materialEntity -->
<g id="edge1" class="edge">
<title>vehicle input device&#45;&gt;materialEntity</title>
<path fill="none" stroke="black" d="M54.88,-51.79C54.88,-59.25 54.88,-68.24 54.88,-76.69"/>
<polygon fill="none" stroke="black" points="51.38,-76.54 54.88,-86.54 58.38,-76.54 51.38,-76.54"/>
</g>
<!-- Invis -->
</g>
</svg>
