<?xml version="1.0" encoding="UTF-8" standalone="no"?>
<!DOCTYPE svg PUBLIC "-//W3C//DTD SVG 1.1//EN"
 "http://www.w3.org/Graphics/SVG/1.1/DTD/svg11.dtd">
<!-- Generated by graphviz version 14.0.2 (20251019.1705)
 -->
<!-- Pages: 1 -->
<svg width="162pt" height="132pt"
 viewBox="0.00 0.00 162.00 132.00" xmlns="http://www.w3.org/2000/svg" xmlns:xlink="http://www.w3.org/1999/xlink">
<g id="graph0" class="graph" transform="scale(1 1) rotate(0) translate(4 128)">
<polygon fill="white" stroke="none" points="-4,4 -4,-128 158.12,-128 158.12,4 -4,4"/>
<g id="clust2" class="cluster">
<title>cluster_associated</title>
</g>
<!-- wheel -->
<g id="node1" class="node">
<title>wheel</title>
<g id="a_node1"><a xlink:href="../classes/itsVocabulary__wheel.md" xlink:title="&lt;TABLE&gt;">
<polygon fill="lightgray" stroke="none" points="22,-25.88 22,-42.12 56.25,-42.12 56.25,-25.88 22,-25.88"/>
<text xml:space="preserve" text-anchor="start" x="23" y="-29.73" font-family="Arial" font-size="12.00">wheel</text>
<polygon fill="none" stroke="black" points="21,-24.88 21,-43.12 57.25,-43.12 57.25,-24.88 21,-24.88"/>
</a>
</g>
</g>
<!-- materialEntity -->
<g id="node2" class="node">
<title>materialEntity</title>
<g id="a_node2"><a xlink:href="../material entity/" xlink:title="&lt;TABLE&gt;" target="_top">
<polygon fill="lightgray" stroke="none" points="1,-97.88 1,-114.12 77.25,-114.12 77.25,-97.88 1,-97.88"/>
<text xml:space="preserve" text-anchor="start" x="2" y="-101.72" font-family="Arial" font-size="12.00">material entity</text>
<polygon fill="none" stroke="black" points="0,-96.88 0,-115.12 78.25,-115.12 78.25,-96.88 0,-96.88"/>
</a>
</g>
</g>
<!-- wheel&#45;&gt;materialEntity -->
<g id="edge1" class="edge">
<title>wheel&#45;&gt;materialEntity</title>
<path fill="none" stroke="black" d="M39.12,-51.79C39.12,-59.25 39.12,-68.24 39.12,-76.69"/>
<polygon fill="none" stroke="black" points="35.63,-76.54 39.13,-86.54 42.63,-76.54 35.63,-76.54"/>
</g>
<!-- Invis -->
</g>
</svg>
