<?xml version="1.0" encoding="UTF-8" standalone="no"?>
<!DOCTYPE svg PUBLIC "-//W3C//DTD SVG 1.1//EN"
 "http://www.w3.org/Graphics/SVG/1.1/DTD/svg11.dtd">
<!-- Generated by graphviz version 14.1.3 (20260303.0454)
 -->
<!-- Pages: 1 -->
<svg width="238pt" height="219pt"
 viewBox="0.00 0.00 238.00 219.00" xmlns="http://www.w3.org/2000/svg" xmlns:xlink="http://www.w3.org/1999/xlink">
<g id="graph0" class="graph" transform="scale(1 1) rotate(0) translate(4 214.5)">
<polygon fill="white" stroke="none" points="-4,4 -4,-214.5 234.38,-214.5 234.38,4 -4,4"/>
<g id="clust2" class="cluster">
<title>cluster_associated</title>
</g>
<!-- ADS&#45;equipped vehicle -->
<g id="node1" class="node">
<title>ADS&#45;equipped vehicle</title>
<polygon fill="lightgray" stroke="none" points="106.62,-111.38 106.62,-127.62 229.38,-127.62 229.38,-111.38 106.62,-111.38"/>
<text xml:space="preserve" text-anchor="start" x="107.62" y="-115.38" font-family="Arial" font-size="12.00">ADS&#45;equipped vehicle</text>
<polygon fill="none" stroke="black" points="105.62,-110.38 105.62,-128.62 230.38,-128.62 230.38,-110.38 105.62,-110.38"/>
</g>
<!-- vehicle -->
<g id="node2" class="node">
<title>vehicle</title>
<g id="a_node2"><a xlink:href="../terms/vehicle.md" xlink:title="&lt;TABLE&gt;" target="_top">
<polygon fill="lightgray" stroke="none" points="147.88,-184.38 147.88,-200.62 188.12,-200.62 188.12,-184.38 147.88,-184.38"/>
<text xml:space="preserve" text-anchor="start" x="148.88" y="-188.38" font-family="Arial" font-size="12.00">vehicle</text>
<polygon fill="none" stroke="black" points="146.88,-183.38 146.88,-201.62 189.12,-201.62 189.12,-183.38 146.88,-183.38"/>
</a>
</g>
</g>
<!-- ADS&#45;equipped vehicle&#45;&gt;vehicle -->
<g id="edge1" class="edge">
<title>ADS&#45;equipped vehicle&#45;&gt;vehicle</title>
<path fill="none" stroke="black" d="M168,-137.21C168,-144.97 168,-154.42 168,-163.24"/>
<polygon fill="none" stroke="black" points="164.5,-163.16 168,-173.16 171.5,-163.16 164.5,-163.16"/>
</g>
<!-- Invis -->
<!-- ADS&#45;equipped vehicle&#45;&gt;Invis -->
<!-- ads -->
<g id="node4" class="node">
<title>ads</title>
<g id="a_node4"><a xlink:href="../terms/ADS.md" xlink:title="&lt;TABLE&gt;" target="_top">
<polygon fill="lightgray" stroke="none" points="29.25,-25.88 29.25,-42.12 56.75,-42.12 56.75,-25.88 29.25,-25.88"/>
<text xml:space="preserve" text-anchor="start" x="30.25" y="-29.88" font-family="Arial" font-size="12.00">ADS</text>
<polygon fill="none" stroke="black" points="28.25,-24.88 28.25,-43.12 57.75,-43.12 57.75,-24.88 28.25,-24.88"/>
</a>
</g>
</g>
<!-- ADS&#45;equipped vehicle&#45;&gt;ads -->
<g id="edge4" class="edge">
<title>ADS&#45;equipped vehicle&#45;&gt;ads</title>
<path fill="none" stroke="black" d="M142.7,-101.6C123.98,-89.1 98.26,-71.91 77.63,-58.13"/>
<polygon fill="black" stroke="black" points="79.78,-55.36 69.52,-52.71 75.89,-61.18 79.78,-55.36"/>
<text xml:space="preserve" text-anchor="middle" x="140.36" y="-73.05" font-family="Arial" font-size="11.00"> comprises </text>
</g>
<!-- Invis&#45;&gt;ads -->
</g>
</svg>
