<?xml version="1.0" encoding="UTF-8" standalone="no"?>
<!DOCTYPE svg PUBLIC "-//W3C//DTD SVG 1.1//EN"
 "http://www.w3.org/Graphics/SVG/1.1/DTD/svg11.dtd">
<!-- Generated by graphviz version 14.1.3 (20260303.0454)
 -->
<!-- Pages: 1 -->
<svg width="262pt" height="292pt"
 viewBox="0.00 0.00 262.00 292.00" xmlns="http://www.w3.org/2000/svg" xmlns:xlink="http://www.w3.org/1999/xlink">
<g id="graph0" class="graph" transform="scale(1 1) rotate(0) translate(4 287.5)">
<polygon fill="white" stroke="none" points="-4,4 -4,-287.5 258.38,-287.5 258.38,4 -4,4"/>
<g id="clust2" class="cluster">
<title>cluster_associated</title>
</g>
<!-- ADS -->
<g id="node1" class="node">
<title>ADS</title>
<polygon fill="lightgray" stroke="none" points="169.25,-184.38 169.25,-200.62 196.75,-200.62 196.75,-184.38 169.25,-184.38"/>
<text xml:space="preserve" text-anchor="start" x="170.25" y="-188.38" font-family="Arial" font-size="12.00">ADS</text>
<polygon fill="none" stroke="black" points="168.25,-183.38 168.25,-201.62 197.75,-201.62 197.75,-183.38 168.25,-183.38"/>
</g>
<!-- drivingAutomationSystem -->
<g id="node2" class="node">
<title>drivingAutomationSystem</title>
<g id="a_node2"><a xlink:href="../terms/driving automation system.md" xlink:title="&lt;TABLE&gt;" target="_top">
<polygon fill="lightgray" stroke="none" points="112.62,-257.38 112.62,-273.62 253.38,-273.62 253.38,-257.38 112.62,-257.38"/>
<text xml:space="preserve" text-anchor="start" x="113.62" y="-261.38" font-family="Arial" font-size="12.00">driving automation system</text>
<polygon fill="none" stroke="black" points="111.62,-256.38 111.62,-274.62 254.38,-274.62 254.38,-256.38 111.62,-256.38"/>
</a>
</g>
</g>
<!-- ADS&#45;&gt;drivingAutomationSystem -->
<g id="edge1" class="edge">
<title>ADS&#45;&gt;drivingAutomationSystem</title>
<path fill="none" stroke="black" d="M183,-210.21C183,-217.97 183,-227.42 183,-236.24"/>
<polygon fill="none" stroke="black" points="179.5,-236.16 183,-246.16 186.5,-236.16 179.5,-236.16"/>
</g>
<!-- Invis -->
<!-- ADS&#45;&gt;Invis -->
<!-- ads&#45;equippedVehicle -->
<g id="node4" class="node">
<title>ads&#45;equippedVehicle</title>
<g id="a_node4"><a xlink:href="../terms/ADS-equipped vehicle.md" xlink:title="&lt;TABLE&gt;" target="_top">
<polygon fill="lightgray" stroke="none" points="16.62,-98.88 16.62,-115.12 139.38,-115.12 139.38,-98.88 16.62,-98.88"/>
<text xml:space="preserve" text-anchor="start" x="17.62" y="-102.88" font-family="Arial" font-size="12.00">ADS&#45;equipped vehicle</text>
<polygon fill="none" stroke="black" points="15.62,-97.88 15.62,-116.12 140.38,-116.12 140.38,-97.88 15.62,-97.88"/>
</a>
</g>
</g>
<!-- ADS&#45;&gt;ads&#45;equippedVehicle -->
<g id="edge5" class="edge">
<title>ADS&#45;&gt;ads&#45;equippedVehicle</title>
<path fill="none" stroke="black" d="M156.05,-176.46C154.69,-175.78 153.33,-175.13 152,-174.5 132.32,-165.25 123.02,-170.64 106.5,-156.5 99.67,-150.65 94.06,-142.73 89.68,-134.98"/>
<polygon fill="black" stroke="black" points="92.82,-133.42 85.16,-126.1 86.58,-136.6 92.82,-133.42"/>
<text xml:space="preserve" text-anchor="middle" x="135.75" y="-146.05" font-family="Arial" font-size="11.00"> can control </text>
</g>
<!-- dynamicDrivingTask -->
<g id="node5" class="node">
<title>dynamicDrivingTask</title>
<g id="a_node5"><a xlink:href="../terms/dynamic driving task.md" xlink:title="&lt;TABLE&gt;" target="_top">
<polygon fill="lightgray" stroke="none" points="25.62,-25.88 25.62,-42.12 136.38,-42.12 136.38,-25.88 25.62,-25.88"/>
<text xml:space="preserve" text-anchor="start" x="26.62" y="-29.88" font-family="Arial" font-size="12.00">dynamic driving task</text>
<polygon fill="none" stroke="black" points="24.62,-24.88 24.62,-43.12 137.38,-43.12 137.38,-24.88 24.62,-24.88"/>
</a>
</g>
</g>
<!-- ADS&#45;&gt;dynamicDrivingTask -->
<g id="edge6" class="edge">
<title>ADS&#45;&gt;dynamicDrivingTask</title>
<path fill="none" stroke="black" d="M180.45,-174.55C176.58,-153.05 167.58,-115.59 149,-89 140.9,-77.42 129.62,-67.07 118.56,-58.62"/>
<polygon fill="black" stroke="black" points="120.78,-55.9 110.63,-52.86 116.67,-61.57 120.78,-55.9"/>
<text xml:space="preserve" text-anchor="middle" x="203.92" y="-103.3" font-family="Arial" font-size="11.00"> performs all of </text>
</g>
<!-- Invis&#45;&gt;ads&#45;equippedVehicle -->
<!-- ads&#45;equippedVehicle&#45;&gt;dynamicDrivingTask -->
</g>
</svg>
