<?xml version="1.0" encoding="UTF-8" standalone="no"?>
<!DOCTYPE svg PUBLIC "-//W3C//DTD SVG 1.1//EN"
 "http://www.w3.org/Graphics/SVG/1.1/DTD/svg11.dtd">
<!-- Generated by graphviz version 14.1.3 (20260303.0454)
 -->
<!-- Pages: 1 -->
<svg width="277pt" height="162pt"
 viewBox="0.00 0.00 277.00 162.00" xmlns="http://www.w3.org/2000/svg" xmlns:xlink="http://www.w3.org/1999/xlink">
<g id="graph0" class="graph" transform="scale(1 1) rotate(0) translate(4 157.5)">
<polygon fill="white" stroke="none" points="-4,4 -4,-157.5 272.88,-157.5 272.88,4 -4,4"/>
<g id="clust2" class="cluster">
<title>cluster_associated</title>
</g>
<!-- anonymized vehicle reference -->
<g id="node1" class="node">
<title>anonymized vehicle reference</title>
<polygon fill="lightgray" stroke="none" points="1,-111.38 1,-127.62 162.75,-127.62 162.75,-111.38 1,-111.38"/>
<text xml:space="preserve" text-anchor="start" x="2" y="-115.38" font-family="Arial" font-size="12.00">anonymized vehicle reference</text>
<polygon fill="none" stroke="black" points="0,-110.38 0,-128.62 163.75,-128.62 163.75,-110.38 0,-110.38"/>
</g>
<!-- Invis -->
<!-- anonymized vehicle reference&#45;&gt;Invis -->
<!-- vehicle -->
<g id="node3" class="node">
<title>vehicle</title>
<g id="a_node3"><a xlink:href="../terms/vehicle.md" xlink:title="&lt;TABLE&gt;" target="_top">
<polygon fill="lightgray" stroke="none" points="205.75,-25.88 205.75,-42.12 246,-42.12 246,-25.88 205.75,-25.88"/>
<text xml:space="preserve" text-anchor="start" x="206.75" y="-29.88" font-family="Arial" font-size="12.00">vehicle</text>
<polygon fill="none" stroke="black" points="204.75,-24.88 204.75,-43.12 247,-43.12 247,-24.88 204.75,-24.88"/>
</a>
</g>
</g>
<!-- anonymized vehicle reference&#45;&gt;vehicle -->
<g id="edge3" class="edge">
<title>anonymized vehicle reference&#45;&gt;vehicle</title>
<path fill="none" stroke="black" d="M87.82,-101.93C92.4,-91.39 99.73,-78.21 110.12,-70 132.35,-52.44 163.3,-43.67 187.61,-39.3"/>
<polygon fill="black" stroke="black" points="188.12,-42.76 197.44,-37.73 187.02,-35.85 188.12,-42.76"/>
<text xml:space="preserve" text-anchor="middle" x="166" y="-73.05" font-family="Arial" font-size="11.00"> encoded reference for </text>
</g>
<!-- Invis&#45;&gt;vehicle -->
</g>
</svg>
