<?xml version="1.0" encoding="UTF-8" standalone="no"?>
<!DOCTYPE svg PUBLIC "-//W3C//DTD SVG 1.1//EN"
 "http://www.w3.org/Graphics/SVG/1.1/DTD/svg11.dtd">
<!-- Generated by graphviz version 14.1.3 (20260303.0454)
 -->
<!-- Pages: 1 -->
<svg width="254pt" height="320pt"
 viewBox="0.00 0.00 254.00 320.00" xmlns="http://www.w3.org/2000/svg" xmlns:xlink="http://www.w3.org/1999/xlink">
<g id="graph0" class="graph" transform="scale(1 1) rotate(0) translate(4 316)">
<polygon fill="white" stroke="none" points="-4,4 -4,-316 250.12,-316 250.12,4 -4,4"/>
<g id="clust2" class="cluster">
<title>cluster_associated</title>
</g>
<!-- architecture viewpoint -->
<g id="node1" class="node">
<title>architecture viewpoint</title>
<polygon fill="lightgray" stroke="none" points="126.88,-269.88 126.88,-286.12 245.12,-286.12 245.12,-269.88 126.88,-269.88"/>
<text xml:space="preserve" text-anchor="start" x="127.88" y="-273.88" font-family="Arial" font-size="12.00">architecture viewpoint</text>
<polygon fill="none" stroke="black" points="125.88,-268.88 125.88,-287.12 246.12,-287.12 246.12,-268.88 125.88,-268.88"/>
</g>
<!-- Invis -->
<!-- architecture viewpoint&#45;&gt;Invis -->
<!-- architectureView -->
<g id="node3" class="node">
<title>architectureView</title>
<g id="a_node3"><a xlink:href="../terms/architecture view.md" xlink:title="&lt;TABLE&gt;" target="_top">
<polygon fill="lightgray" stroke="none" points="17,-184.38 17,-200.62 109,-200.62 109,-184.38 17,-184.38"/>
<text xml:space="preserve" text-anchor="start" x="18" y="-188.38" font-family="Arial" font-size="12.00">architecture view</text>
<polygon fill="none" stroke="black" points="16,-183.38 16,-201.62 110,-201.62 110,-183.38 16,-183.38"/>
</a>
</g>
</g>
<!-- architecture viewpoint&#45;&gt;architectureView -->
<g id="edge6" class="edge">
<title>architecture viewpoint&#45;&gt;architectureView</title>
<path fill="none" stroke="black" d="M127.28,-260.06C110.22,-254.29 94.38,-247.82 87.75,-242 81.28,-236.32 76.28,-228.54 72.53,-220.88"/>
<polygon fill="black" stroke="black" points="75.77,-219.56 68.62,-211.74 69.33,-222.31 75.77,-219.56"/>
<text xml:space="preserve" text-anchor="middle" x="109.88" y="-231.55" font-family="Arial" font-size="11.00"> governs </text>
</g>
<!-- concern -->
<g id="node4" class="node">
<title>concern</title>
<g id="a_node4"><a xlink:href="../terms/concern.md" xlink:title="&lt;TABLE&gt;" target="_top">
<polygon fill="lightgray" stroke="none" points="56.62,-98.88 56.62,-115.12 101.38,-115.12 101.38,-98.88 56.62,-98.88"/>
<text xml:space="preserve" text-anchor="start" x="57.62" y="-102.88" font-family="Arial" font-size="12.00">concern</text>
<polygon fill="none" stroke="black" points="55.62,-97.88 55.62,-116.12 102.38,-116.12 102.38,-97.88 55.62,-97.88"/>
</a>
</g>
</g>
<!-- architecture viewpoint&#45;&gt;concern -->
<g id="edge7" class="edge">
<title>architecture viewpoint&#45;&gt;concern</title>
<path fill="none" stroke="black" d="M175.35,-260.18C156.68,-230.69 117.93,-169.49 95.68,-134.34"/>
<polygon fill="black" stroke="black" points="98.72,-132.61 90.42,-126.03 92.81,-136.35 98.72,-132.61"/>
<text xml:space="preserve" text-anchor="middle" x="162.64" y="-188.8" font-family="Arial" font-size="11.00"> frames </text>
</g>
<!-- modelKind -->
<g id="node5" class="node">
<title>modelKind</title>
<g id="a_node5"><a xlink:href="../terms/model kind.md" xlink:title="&lt;TABLE&gt;" target="_top">
<polygon fill="lightgray" stroke="none" points="48.75,-25.88 48.75,-42.12 109.25,-42.12 109.25,-25.88 48.75,-25.88"/>
<text xml:space="preserve" text-anchor="start" x="49.75" y="-29.88" font-family="Arial" font-size="12.00">model kind</text>
<polygon fill="none" stroke="black" points="47.75,-24.88 47.75,-43.12 110.25,-43.12 110.25,-24.88 47.75,-24.88"/>
</a>
</g>
</g>
<!-- architecture viewpoint&#45;&gt;modelKind -->
<g id="edge5" class="edge">
<title>architecture viewpoint&#45;&gt;modelKind</title>
<path fill="none" stroke="black" d="M189.23,-260.13C192.49,-239.37 195.78,-203.32 186,-174.5 170.25,-128.08 132.14,-84.99 105.93,-59.33"/>
<polygon fill="black" stroke="black" points="108.62,-57.06 98.98,-52.68 103.78,-62.12 108.62,-57.06"/>
<text xml:space="preserve" text-anchor="middle" x="208.49" y="-146.05" font-family="Arial" font-size="11.00"> aggregates </text>
</g>
<!-- Invis&#45;&gt;architectureView -->
<!-- architectureView&#45;&gt;concern -->
<!-- concern&#45;&gt;modelKind -->
</g>
</svg>
