<?xml version="1.0" encoding="UTF-8" standalone="no"?>
<!DOCTYPE svg PUBLIC "-//W3C//DTD SVG 1.1//EN"
 "http://www.w3.org/Graphics/SVG/1.1/DTD/svg11.dtd">
<!-- Generated by graphviz version 14.1.3 (20260303.0454)
 -->
<!-- Pages: 1 -->
<svg width="308pt" height="162pt"
 viewBox="0.00 0.00 308.00 162.00" xmlns="http://www.w3.org/2000/svg" xmlns:xlink="http://www.w3.org/1999/xlink">
<g id="graph0" class="graph" transform="scale(1 1) rotate(0) translate(4 157.5)">
<polygon fill="white" stroke="none" points="-4,4 -4,-157.5 304.38,-157.5 304.38,4 -4,4"/>
<g id="clust2" class="cluster">
<title>cluster_associated</title>
</g>
<!-- architecture framework -->
<g id="node1" class="node">
<title>architecture framework</title>
<polygon fill="lightgray" stroke="none" points="1,-111.38 1,-127.62 123.75,-127.62 123.75,-111.38 1,-111.38"/>
<text xml:space="preserve" text-anchor="start" x="2" y="-115.38" font-family="Arial" font-size="12.00">architecture framework</text>
<polygon fill="none" stroke="black" points="0,-110.38 0,-128.62 124.75,-128.62 124.75,-110.38 0,-110.38"/>
</g>
<!-- Invis -->
<!-- architecture framework&#45;&gt;Invis -->
<!-- architectureDescription -->
<g id="node3" class="node">
<title>architectureDescription</title>
<g id="a_node3"><a xlink:href="../terms/architecture description.md" xlink:title="&lt;TABLE&gt;" target="_top">
<polygon fill="lightgray" stroke="none" points="157.5,-25.88 157.5,-42.12 283.25,-42.12 283.25,-25.88 157.5,-25.88"/>
<text xml:space="preserve" text-anchor="start" x="158.5" y="-29.88" font-family="Arial" font-size="12.00">architecture description</text>
<polygon fill="none" stroke="black" points="156.5,-24.88 156.5,-43.12 284.25,-43.12 284.25,-24.88 156.5,-24.88"/>
</a>
</g>
</g>
<!-- architecture framework&#45;&gt;architectureDescription -->
<g id="edge3" class="edge">
<title>architecture framework&#45;&gt;architectureDescription</title>
<path fill="none" stroke="black" d="M48.24,-101.86C41.48,-91.8 36.33,-79.19 43.88,-70 56.95,-54.08 103.41,-45.27 145.38,-40.47"/>
<polygon fill="black" stroke="black" points="145.71,-43.96 155.28,-39.42 144.96,-37 145.71,-43.96"/>
<text xml:space="preserve" text-anchor="middle" x="143.62" y="-73.05" font-family="Arial" font-size="11.00"> conventions, principles, and practices for </text>
</g>
<!-- Invis&#45;&gt;architectureDescription -->
</g>
</svg>
