<?xml version="1.0" encoding="UTF-8" standalone="no"?>
<!DOCTYPE svg PUBLIC "-//W3C//DTD SVG 1.1//EN"
 "http://www.w3.org/Graphics/SVG/1.1/DTD/svg11.dtd">
<!-- Generated by graphviz version 14.1.3 (20260303.0454)
 -->
<!-- Pages: 1 -->
<svg width="311pt" height="219pt"
 viewBox="0.00 0.00 311.00 219.00" xmlns="http://www.w3.org/2000/svg" xmlns:xlink="http://www.w3.org/1999/xlink">
<g id="graph0" class="graph" transform="scale(1 1) rotate(0) translate(4 214.5)">
<polygon fill="white" stroke="none" points="-4,4 -4,-214.5 306.5,-214.5 306.5,4 -4,4"/>
<g id="clust2" class="cluster">
<title>cluster_associated</title>
</g>
<!-- bounded secured managed domain -->
<g id="node1" class="node">
<title>bounded secured managed domain</title>
<polygon fill="lightgray" stroke="none" points="110.5,-111.38 110.5,-127.62 301.5,-127.62 301.5,-111.38 110.5,-111.38"/>
<text xml:space="preserve" text-anchor="start" x="111.5" y="-115.38" font-family="Arial" font-size="12.00">bounded secured managed domain</text>
<polygon fill="none" stroke="black" points="109.5,-110.38 109.5,-128.62 302.5,-128.62 302.5,-110.38 109.5,-110.38"/>
</g>
<!-- entity -->
<g id="node2" class="node">
<title>entity</title>
<g id="a_node2"><a xlink:href="../terms/entity.md" xlink:title="&lt;TABLE&gt;" target="_top">
<polygon fill="lightgray" stroke="none" points="190.75,-184.38 190.75,-200.62 221.25,-200.62 221.25,-184.38 190.75,-184.38"/>
<text xml:space="preserve" text-anchor="start" x="191.75" y="-188.38" font-family="Arial" font-size="12.00">entity</text>
<polygon fill="none" stroke="black" points="189.75,-183.38 189.75,-201.62 222.25,-201.62 222.25,-183.38 189.75,-183.38"/>
</a>
</g>
</g>
<!-- bounded secured managed domain&#45;&gt;entity -->
<g id="edge1" class="edge">
<title>bounded secured managed domain&#45;&gt;entity</title>
<path fill="none" stroke="black" d="M206,-137.21C206,-144.97 206,-154.42 206,-163.24"/>
<polygon fill="none" stroke="black" points="202.5,-163.16 206,-173.16 209.5,-163.16 202.5,-163.16"/>
</g>
<!-- Invis -->
<!-- bounded secured managed domain&#45;&gt;Invis -->
<!-- environment -->
<g id="node4" class="node">
<title>environment</title>
<g id="a_node4"><a xlink:href="../terms/environment.md" xlink:title="&lt;TABLE&gt;" target="_top">
<polygon fill="lightgray" stroke="none" points="17,-25.88 17,-42.12 85,-42.12 85,-25.88 17,-25.88"/>
<text xml:space="preserve" text-anchor="start" x="18" y="-29.88" font-family="Arial" font-size="12.00">environment</text>
<polygon fill="none" stroke="black" points="16,-24.88 16,-43.12 86,-43.12 86,-24.88 16,-24.88"/>
</a>
</g>
</g>
<!-- bounded secured managed domain&#45;&gt;environment -->
<g id="edge4" class="edge">
<title>bounded secured managed domain&#45;&gt;environment</title>
<path fill="none" stroke="black" d="M174.63,-101.6C150.89,-88.81 118.07,-71.13 92.21,-57.2"/>
<polygon fill="black" stroke="black" points="94.12,-54.25 83.65,-52.59 90.8,-60.41 94.12,-54.25"/>
<text xml:space="preserve" text-anchor="middle" x="166.28" y="-73.05" font-family="Arial" font-size="11.00"> represents </text>
</g>
<!-- Invis&#45;&gt;environment -->
</g>
</svg>
