<?xml version="1.0" encoding="UTF-8" standalone="no"?>
<!DOCTYPE svg PUBLIC "-//W3C//DTD SVG 1.1//EN"
 "http://www.w3.org/Graphics/SVG/1.1/DTD/svg11.dtd">
<!-- Generated by graphviz version 14.1.3 (20260303.0454)
 -->
<!-- Pages: 1 -->
<svg width="215pt" height="219pt"
 viewBox="0.00 0.00 215.00 219.00" xmlns="http://www.w3.org/2000/svg" xmlns:xlink="http://www.w3.org/1999/xlink">
<g id="graph0" class="graph" transform="scale(1 1) rotate(0) translate(4 214.5)">
<polygon fill="white" stroke="none" points="-4,4 -4,-214.5 211.38,-214.5 211.38,4 -4,4"/>
<g id="clust2" class="cluster">
<title>cluster_associated</title>
</g>
<!-- connected vehicle -->
<g id="node1" class="node">
<title>connected vehicle</title>
<polygon fill="lightgray" stroke="none" points="107.62,-111.38 107.62,-127.62 206.38,-127.62 206.38,-111.38 107.62,-111.38"/>
<text xml:space="preserve" text-anchor="start" x="108.62" y="-115.38" font-family="Arial" font-size="12.00">connected vehicle</text>
<polygon fill="none" stroke="black" points="106.62,-110.38 106.62,-128.62 207.38,-128.62 207.38,-110.38 106.62,-110.38"/>
</g>
<!-- vehicle -->
<g id="node2" class="node">
<title>vehicle</title>
<g id="a_node2"><a xlink:href="../terms/vehicle.md" xlink:title="&lt;TABLE&gt;" target="_top">
<polygon fill="lightgray" stroke="none" points="136.88,-184.38 136.88,-200.62 177.12,-200.62 177.12,-184.38 136.88,-184.38"/>
<text xml:space="preserve" text-anchor="start" x="137.88" y="-188.38" font-family="Arial" font-size="12.00">vehicle</text>
<polygon fill="none" stroke="black" points="135.88,-183.38 135.88,-201.62 178.12,-201.62 178.12,-183.38 135.88,-183.38"/>
</a>
</g>
</g>
<!-- connected vehicle&#45;&gt;vehicle -->
<g id="edge1" class="edge">
<title>connected vehicle&#45;&gt;vehicle</title>
<path fill="none" stroke="black" d="M157,-137.21C157,-144.97 157,-154.42 157,-163.24"/>
<polygon fill="none" stroke="black" points="153.5,-163.16 157,-173.16 160.5,-163.16 153.5,-163.16"/>
</g>
<!-- Invis -->
<!-- connected vehicle&#45;&gt;Invis -->
<!-- connected -->
<g id="node4" class="node">
<title>connected</title>
<g id="a_node4"><a xlink:href="../terms/connected.md" xlink:title="&lt;TABLE&gt;" target="_top">
<polygon fill="lightgray" stroke="none" points="17.25,-25.88 17.25,-42.12 74.75,-42.12 74.75,-25.88 17.25,-25.88"/>
<text xml:space="preserve" text-anchor="start" x="18.25" y="-29.88" font-family="Arial" font-size="12.00">connected</text>
<polygon fill="none" stroke="black" points="16.25,-24.88 16.25,-43.12 75.75,-43.12 75.75,-24.88 16.25,-24.88"/>
</a>
</g>
</g>
<!-- connected vehicle&#45;&gt;connected -->
<g id="edge4" class="edge">
<title>connected vehicle&#45;&gt;connected</title>
<path fill="none" stroke="black" d="M134.54,-101.6C118.14,-89.27 95.69,-72.38 77.5,-58.69"/>
<polygon fill="black" stroke="black" points="79.73,-56 69.64,-52.78 75.53,-61.59 79.73,-56"/>
<text xml:space="preserve" text-anchor="middle" x="114.9" y="-73.05" font-family="Arial" font-size="11.00"> is </text>
</g>
<!-- Invis&#45;&gt;connected -->
</g>
</svg>
