<?xml version="1.0" encoding="UTF-8" standalone="no"?>
<!DOCTYPE svg PUBLIC "-//W3C//DTD SVG 1.1//EN"
 "http://www.w3.org/Graphics/SVG/1.1/DTD/svg11.dtd">
<!-- Generated by graphviz version 14.1.3 (20260303.0454)
 -->
<!-- Pages: 1 -->
<svg width="324pt" height="204pt"
 viewBox="0.00 0.00 324.00 204.00" xmlns="http://www.w3.org/2000/svg" xmlns:xlink="http://www.w3.org/1999/xlink">
<g id="graph0" class="graph" transform="scale(1 1) rotate(0) translate(4 200)">
<polygon fill="white" stroke="none" points="-4,4 -4,-200 319.75,-200 319.75,4 -4,4"/>
<g id="clust2" class="cluster">
<title>cluster_associated</title>
</g>
<!-- connected vehicle roadside equipment -->
<g id="node1" class="node">
<title>connected vehicle roadside equipment</title>
<polygon fill="lightgray" stroke="none" points="1,-97.88 1,-114.12 208.5,-114.12 208.5,-97.88 1,-97.88"/>
<text xml:space="preserve" text-anchor="start" x="2" y="-101.88" font-family="Arial" font-size="12.00">connected vehicle roadside equipment</text>
<polygon fill="none" stroke="black" points="0,-96.88 0,-115.12 209.5,-115.12 209.5,-96.88 0,-96.88"/>
</g>
<!-- itsRoadsideEquipment -->
<g id="node2" class="node">
<title>itsRoadsideEquipment</title>
<g id="a_node2"><a xlink:href="../terms/ITS roadside equipment.md" xlink:title="&lt;TABLE&gt;" target="_top">
<polygon fill="lightgray" stroke="none" points="40,-169.88 40,-186.12 169.5,-186.12 169.5,-169.88 40,-169.88"/>
<text xml:space="preserve" text-anchor="start" x="41" y="-173.88" font-family="Arial" font-size="12.00">ITS roadside equipment</text>
<polygon fill="none" stroke="black" points="39,-168.88 39,-187.12 170.5,-187.12 170.5,-168.88 39,-168.88"/>
</a>
</g>
</g>
<!-- connected vehicle roadside equipment&#45;&gt;itsRoadsideEquipment -->
<g id="edge1" class="edge">
<title>connected vehicle roadside equipment&#45;&gt;itsRoadsideEquipment</title>
<path fill="none" stroke="black" d="M104.75,-123.79C104.75,-131.25 104.75,-140.24 104.75,-148.69"/>
<polygon fill="none" stroke="black" points="101.25,-148.54 104.75,-158.54 108.25,-148.54 101.25,-148.54"/>
</g>
<!-- Invis -->
<!-- connected vehicle roadside equipment&#45;&gt;Invis -->
<!-- roadsideUnit -->
<g id="node4" class="node">
<title>roadsideUnit</title>
<g id="a_node4"><a xlink:href="../terms/roadside unit.md" xlink:title="&lt;TABLE&gt;" target="_top">
<polygon fill="lightgray" stroke="none" points="227.25,-25.88 227.25,-42.12 298.25,-42.12 298.25,-25.88 227.25,-25.88"/>
<text xml:space="preserve" text-anchor="start" x="228.25" y="-29.88" font-family="Arial" font-size="12.00">roadside unit</text>
<polygon fill="none" stroke="black" points="226.25,-24.88 226.25,-43.12 299.25,-43.12 299.25,-24.88 226.25,-24.88"/>
</a>
</g>
</g>
<!-- Invis&#45;&gt;roadsideUnit -->
</g>
</svg>
