<?xml version="1.0" encoding="UTF-8" standalone="no"?>
<!DOCTYPE svg PUBLIC "-//W3C//DTD SVG 1.1//EN"
 "http://www.w3.org/Graphics/SVG/1.1/DTD/svg11.dtd">
<!-- Generated by graphviz version 14.1.3 (20260303.0454)
 -->
<!-- Pages: 1 -->
<svg width="197pt" height="162pt"
 viewBox="0.00 0.00 197.00 162.00" xmlns="http://www.w3.org/2000/svg" xmlns:xlink="http://www.w3.org/1999/xlink">
<g id="graph0" class="graph" transform="scale(1 1) rotate(0) translate(4 157.5)">
<polygon fill="white" stroke="none" points="-4,4 -4,-157.5 193,-157.5 193,4 -4,4"/>
<g id="clust2" class="cluster">
<title>cluster_associated</title>
</g>
<!-- connected unit -->
<g id="node1" class="node">
<title>connected unit</title>
<polygon fill="lightgray" stroke="none" points="1,-111.38 1,-127.62 81,-127.62 81,-111.38 1,-111.38"/>
<text xml:space="preserve" text-anchor="start" x="2" y="-115.38" font-family="Arial" font-size="12.00">connected unit</text>
<polygon fill="none" stroke="black" points="0,-110.38 0,-128.62 82,-128.62 82,-110.38 0,-110.38"/>
</g>
<!-- Invis -->
<!-- connected unit&#45;&gt;Invis -->
<!-- connected -->
<g id="node3" class="node">
<title>connected</title>
<g id="a_node3"><a xlink:href="../terms/connected.md" xlink:title="&lt;TABLE&gt;" target="_top">
<polygon fill="lightgray" stroke="none" points="114.25,-25.88 114.25,-42.12 171.75,-42.12 171.75,-25.88 114.25,-25.88"/>
<text xml:space="preserve" text-anchor="start" x="115.25" y="-29.88" font-family="Arial" font-size="12.00">connected</text>
<polygon fill="none" stroke="black" points="113.25,-24.88 113.25,-43.12 172.75,-43.12 172.75,-24.88 113.25,-24.88"/>
</a>
</g>
</g>
<!-- connected unit&#45;&gt;connected -->
<g id="edge3" class="edge">
<title>connected unit&#45;&gt;connected</title>
<path fill="none" stroke="black" d="M61.64,-101.6C76.57,-89.38 96.96,-72.69 113.59,-59.07"/>
<polygon fill="black" stroke="black" points="115.7,-61.87 121.22,-52.83 111.26,-56.46 115.7,-61.87"/>
<text xml:space="preserve" text-anchor="middle" x="104.86" y="-73.05" font-family="Arial" font-size="11.00"> is </text>
</g>
<!-- Invis&#45;&gt;connected -->
</g>
</svg>
