<?xml version="1.0" encoding="UTF-8" standalone="no"?>
<!DOCTYPE svg PUBLIC "-//W3C//DTD SVG 1.1//EN"
 "http://www.w3.org/Graphics/SVG/1.1/DTD/svg11.dtd">
<!-- Generated by graphviz version 14.1.3 (20260303.0454)
 -->
<!-- Pages: 1 -->
<svg width="210pt" height="162pt"
 viewBox="0.00 0.00 210.00 162.00" xmlns="http://www.w3.org/2000/svg" xmlns:xlink="http://www.w3.org/1999/xlink">
<g id="graph0" class="graph" transform="scale(1 1) rotate(0) translate(4 157.5)">
<polygon fill="white" stroke="none" points="-4,4 -4,-157.5 205.75,-157.5 205.75,4 -4,4"/>
<g id="clust2" class="cluster">
<title>cluster_associated</title>
</g>
<!-- coordinate tuple -->
<g id="node1" class="node">
<title>coordinate tuple</title>
<polygon fill="lightgray" stroke="none" points="1,-111.38 1,-127.62 88.5,-127.62 88.5,-111.38 1,-111.38"/>
<text xml:space="preserve" text-anchor="start" x="2" y="-115.38" font-family="Arial" font-size="12.00">coordinate tuple</text>
<polygon fill="none" stroke="black" points="0,-110.38 0,-128.62 89.5,-128.62 89.5,-110.38 0,-110.38"/>
</g>
<!-- Invis -->
<!-- coordinate tuple&#45;&gt;Invis -->
<!-- pointLocation -->
<g id="node3" class="node">
<title>pointLocation</title>
<g id="a_node3"><a xlink:href="../terms/point location.md" xlink:title="&lt;TABLE&gt;" target="_top">
<polygon fill="lightgray" stroke="none" points="111.12,-25.88 111.12,-42.12 184.38,-42.12 184.38,-25.88 111.12,-25.88"/>
<text xml:space="preserve" text-anchor="start" x="112.12" y="-29.88" font-family="Arial" font-size="12.00">point location</text>
<polygon fill="none" stroke="black" points="110.12,-24.88 110.12,-43.12 185.38,-43.12 185.38,-24.88 110.12,-24.88"/>
</a>
</g>
</g>
<!-- coordinate tuple&#45;&gt;pointLocation -->
<g id="edge3" class="edge">
<title>coordinate tuple&#45;&gt;pointLocation</title>
<path fill="none" stroke="black" d="M57.62,-101.57C65.68,-91.65 76.65,-79.29 88,-70 93.18,-65.75 98.94,-61.7 104.78,-57.95"/>
<polygon fill="black" stroke="black" points="106.59,-60.95 113.3,-52.75 102.94,-54.97 106.59,-60.95"/>
<text xml:space="preserve" text-anchor="middle" x="116.88" y="-73.05" font-family="Arial" font-size="11.00"> designates </text>
</g>
<!-- Invis&#45;&gt;pointLocation -->
</g>
</svg>
