<?xml version="1.0" encoding="UTF-8" standalone="no"?>
<!DOCTYPE svg PUBLIC "-//W3C//DTD SVG 1.1//EN"
 "http://www.w3.org/Graphics/SVG/1.1/DTD/svg11.dtd">
<!-- Generated by graphviz version 14.1.3 (20260303.0454)
 -->
<!-- Pages: 1 -->
<svg width="169pt" height="162pt"
 viewBox="0.00 0.00 169.00 162.00" xmlns="http://www.w3.org/2000/svg" xmlns:xlink="http://www.w3.org/1999/xlink">
<g id="graph0" class="graph" transform="scale(1 1) rotate(0) translate(4 157.5)">
<polygon fill="white" stroke="none" points="-4,4 -4,-157.5 165,-157.5 165,4 -4,4"/>
<g id="clust2" class="cluster">
<title>cluster_associated</title>
</g>
<!-- cycleway -->
<g id="node1" class="node">
<title>cycleway</title>
<g id="a_node1"><a xlink:href="../terms/cycleway.md" xlink:title="&lt;TABLE&gt;">
<polygon fill="lightgray" stroke="none" points="1.25,-111.38 1.25,-127.62 52.75,-127.62 52.75,-111.38 1.25,-111.38"/>
<text xml:space="preserve" text-anchor="start" x="2.25" y="-115.38" font-family="Arial" font-size="12.00">cycleway</text>
<polygon fill="none" stroke="black" points="0.25,-110.38 0.25,-128.62 53.75,-128.62 53.75,-110.38 0.25,-110.38"/>
</a>
</g>
</g>
<!-- Invis -->
<!-- cycleway&#45;&gt;Invis -->
<!-- cycleLane -->
<g id="node3" class="node">
<title>cycleLane</title>
<g id="a_node3"><a xlink:href="../terms/cycle lane.md" xlink:title="&lt;TABLE&gt;" target="_top">
<polygon fill="lightgray" stroke="none" points="88,-25.88 88,-42.12 144,-42.12 144,-25.88 88,-25.88"/>
<text xml:space="preserve" text-anchor="start" x="89" y="-29.88" font-family="Arial" font-size="12.00">cycle lane</text>
<polygon fill="none" stroke="black" points="87,-24.88 87,-43.12 145,-43.12 145,-24.88 87,-24.88"/>
</a>
</g>
</g>
<!-- cycleway&#45;&gt;cycleLane -->
<g id="edge3" class="edge">
<title>cycleway&#45;&gt;cycleLane</title>
<path fill="none" stroke="black" d="M34.83,-101.84C40.14,-91.78 47.89,-79.17 57.25,-70 63.2,-64.17 70.29,-58.91 77.46,-54.34"/>
<polygon fill="black" stroke="black" points="79.08,-57.45 85.89,-49.33 75.5,-51.44 79.08,-57.45"/>
<text xml:space="preserve" text-anchor="middle" x="84.62" y="-73.05" font-family="Arial" font-size="11.00"> comprises </text>
</g>
<!-- Invis&#45;&gt;cycleLane -->
</g>
</svg>
