<?xml version="1.0" encoding="UTF-8" standalone="no"?>
<!DOCTYPE svg PUBLIC "-//W3C//DTD SVG 1.1//EN"
 "http://www.w3.org/Graphics/SVG/1.1/DTD/svg11.dtd">
<!-- Generated by graphviz version 14.1.3 (20260303.0454)
 -->
<!-- Pages: 1 -->
<svg width="200pt" height="235pt"
 viewBox="0.00 0.00 200.00 235.00" xmlns="http://www.w3.org/2000/svg" xmlns:xlink="http://www.w3.org/1999/xlink">
<g id="graph0" class="graph" transform="scale(1 1) rotate(0) translate(4 230.5)">
<polygon fill="white" stroke="none" points="-4,4 -4,-230.5 196.12,-230.5 196.12,4 -4,4"/>
<g id="clust2" class="cluster">
<title>cluster_associated</title>
</g>
<!-- data concept -->
<g id="node1" class="node">
<title>data concept</title>
<polygon fill="lightgray" stroke="none" points="1,-184.38 1,-200.62 71.25,-200.62 71.25,-184.38 1,-184.38"/>
<text xml:space="preserve" text-anchor="start" x="2" y="-188.38" font-family="Arial" font-size="12.00">data concept</text>
<polygon fill="none" stroke="black" points="0,-183.38 0,-201.62 72.25,-201.62 72.25,-183.38 0,-183.38"/>
</g>
<!-- Invis -->
<!-- data concept&#45;&gt;Invis -->
<!-- dataDictionary -->
<g id="node3" class="node">
<title>dataDictionary</title>
<g id="a_node3"><a xlink:href="../terms/data dictionary.md" xlink:title="&lt;TABLE&gt;" target="_top">
<polygon fill="lightgray" stroke="none" points="95.12,-98.88 95.12,-115.12 175.12,-115.12 175.12,-98.88 95.12,-98.88"/>
<text xml:space="preserve" text-anchor="start" x="96.12" y="-102.88" font-family="Arial" font-size="12.00">data dictionary</text>
<polygon fill="none" stroke="black" points="94.12,-97.88 94.12,-116.12 176.12,-116.12 176.12,-97.88 94.12,-97.88"/>
</a>
</g>
</g>
<!-- data concept&#45;&gt;dataDictionary -->
<g id="edge4" class="edge">
<title>data concept&#45;&gt;dataDictionary</title>
<path fill="none" stroke="black" d="M51.3,-174.52C60.33,-164.82 72.27,-152.7 83.88,-143 88.63,-139.03 93.83,-135.07 99.04,-131.33"/>
<polygon fill="black" stroke="black" points="100.89,-134.31 107.1,-125.73 96.89,-128.57 100.89,-134.31"/>
<text xml:space="preserve" text-anchor="middle" x="107.5" y="-146.05" font-family="Arial" font-size="11.00"> stored in </text>
</g>
<!-- entity -->
<g id="node4" class="node">
<title>entity</title>
<g id="a_node4"><a xlink:href="../terms/entity.md" xlink:title="&lt;TABLE&gt;" target="_top">
<polygon fill="lightgray" stroke="none" points="112.88,-25.88 112.88,-42.12 143.38,-42.12 143.38,-25.88 112.88,-25.88"/>
<text xml:space="preserve" text-anchor="start" x="113.88" y="-29.88" font-family="Arial" font-size="12.00">entity</text>
<polygon fill="none" stroke="black" points="111.88,-24.88 111.88,-43.12 144.38,-43.12 144.38,-24.88 111.88,-24.88"/>
</a>
</g>
</g>
<!-- data concept&#45;&gt;entity -->
<g id="edge5" class="edge">
<title>data concept&#45;&gt;entity</title>
<path fill="none" stroke="black" d="M30.57,-174.56C24.6,-153.08 17.9,-115.63 33.38,-89 45.77,-67.67 70.09,-54.07 90.99,-45.85"/>
<polygon fill="black" stroke="black" points="91.89,-49.24 100.1,-42.54 89.5,-42.66 91.89,-49.24"/>
<text xml:space="preserve" text-anchor="middle" x="59.25" y="-103.3" font-family="Arial" font-size="11.00"> describes </text>
</g>
<!-- Invis&#45;&gt;dataDictionary -->
<!-- dataDictionary&#45;&gt;entity -->
</g>
</svg>
