<?xml version="1.0" encoding="UTF-8" standalone="no"?>
<!DOCTYPE svg PUBLIC "-//W3C//DTD SVG 1.1//EN"
 "http://www.w3.org/Graphics/SVG/1.1/DTD/svg11.dtd">
<!-- Generated by graphviz version 14.1.3 (20260303.0454)
 -->
<!-- Pages: 1 -->
<svg width="189pt" height="235pt"
 viewBox="0.00 0.00 189.00 235.00" xmlns="http://www.w3.org/2000/svg" xmlns:xlink="http://www.w3.org/1999/xlink">
<g id="graph0" class="graph" transform="scale(1 1) rotate(0) translate(4 230.5)">
<polygon fill="white" stroke="none" points="-4,4 -4,-230.5 184.62,-230.5 184.62,4 -4,4"/>
<g id="clust2" class="cluster">
<title>cluster_associated</title>
</g>
<!-- driving space -->
<g id="node1" class="node">
<title>driving space</title>
<polygon fill="lightgray" stroke="none" points="1,-184.38 1,-200.62 74.25,-200.62 74.25,-184.38 1,-184.38"/>
<text xml:space="preserve" text-anchor="start" x="2" y="-188.38" font-family="Arial" font-size="12.00">driving space</text>
<polygon fill="none" stroke="black" points="0,-183.38 0,-201.62 75.25,-201.62 75.25,-183.38 0,-183.38"/>
</g>
<!-- Invis -->
<!-- driving space&#45;&gt;Invis -->
<!-- roadway -->
<g id="node3" class="node">
<title>roadway</title>
<g id="a_node3"><a xlink:href="../terms/roadway.md" xlink:title="&lt;TABLE&gt;" target="_top">
<polygon fill="lightgray" stroke="none" points="113.75,-98.88 113.75,-115.12 161.5,-115.12 161.5,-98.88 113.75,-98.88"/>
<text xml:space="preserve" text-anchor="start" x="114.75" y="-102.88" font-family="Arial" font-size="12.00">roadway</text>
<polygon fill="none" stroke="black" points="112.75,-97.88 112.75,-116.12 162.5,-116.12 162.5,-97.88 112.75,-97.88"/>
</a>
</g>
</g>
<!-- driving space&#45;&gt;roadway -->
<g id="edge5" class="edge">
<title>driving space&#45;&gt;roadway</title>
<path fill="none" stroke="black" d="M47.43,-174.78C53.94,-164.7 63.19,-152.09 73.62,-143 81.69,-135.98 91.4,-129.78 100.79,-124.63"/>
<polygon fill="black" stroke="black" points="102.15,-127.86 109.42,-120.15 98.93,-121.65 102.15,-127.86"/>
<text xml:space="preserve" text-anchor="middle" x="103.62" y="-146.05" font-family="Arial" font-size="11.00"> area above </text>
</g>
<!-- vehicle -->
<g id="node4" class="node">
<title>vehicle</title>
<g id="a_node4"><a xlink:href="../terms/vehicle.md" xlink:title="&lt;TABLE&gt;" target="_top">
<polygon fill="lightgray" stroke="none" points="117.5,-25.88 117.5,-42.12 157.75,-42.12 157.75,-25.88 117.5,-25.88"/>
<text xml:space="preserve" text-anchor="start" x="118.5" y="-29.88" font-family="Arial" font-size="12.00">vehicle</text>
<polygon fill="none" stroke="black" points="116.5,-24.88 116.5,-43.12 158.75,-43.12 158.75,-24.88 116.5,-24.88"/>
</a>
</g>
</g>
<!-- driving space&#45;&gt;vehicle -->
<g id="edge4" class="edge">
<title>driving space&#45;&gt;vehicle</title>
<path fill="none" stroke="black" d="M27.51,-174.84C15.89,-153.32 0.5,-115.49 17.62,-89 35.61,-61.18 71.73,-47.55 99.66,-40.96"/>
<polygon fill="black" stroke="black" points="100.14,-44.44 109.19,-38.93 98.68,-37.59 100.14,-44.44"/>
<text xml:space="preserve" text-anchor="middle" x="59.62" y="-103.3" font-family="Arial" font-size="11.00"> for movement of </text>
</g>
<!-- Invis&#45;&gt;roadway -->
<!-- roadway&#45;&gt;vehicle -->
</g>
</svg>
