<?xml version="1.0" encoding="UTF-8" standalone="no"?>
<!DOCTYPE svg PUBLIC "-//W3C//DTD SVG 1.1//EN"
 "http://www.w3.org/Graphics/SVG/1.1/DTD/svg11.dtd">
<!-- Generated by graphviz version 14.1.3 (20260303.0454)
 -->
<!-- Pages: 1 -->
<svg width="168pt" height="162pt"
 viewBox="0.00 0.00 168.00 162.00" xmlns="http://www.w3.org/2000/svg" xmlns:xlink="http://www.w3.org/1999/xlink">
<g id="graph0" class="graph" transform="scale(1 1) rotate(0) translate(4 157.5)">
<polygon fill="white" stroke="none" points="-4,4 -4,-157.5 164,-157.5 164,4 -4,4"/>
<g id="clust2" class="cluster">
<title>cluster_associated</title>
</g>
<!-- duration -->
<g id="node1" class="node">
<title>duration</title>
<g id="a_node1"><a xlink:href="../terms/duration.md" xlink:title="&lt;TABLE&gt;">
<polygon fill="lightgray" stroke="none" points="4.25,-111.38 4.25,-127.62 49.75,-127.62 49.75,-111.38 4.25,-111.38"/>
<text xml:space="preserve" text-anchor="start" x="5.25" y="-115.38" font-family="Arial" font-size="12.00">duration</text>
<polygon fill="none" stroke="black" points="3.25,-110.38 3.25,-128.62 50.75,-128.62 50.75,-110.38 3.25,-110.38"/>
</a>
</g>
</g>
<!-- Invis -->
<!-- duration&#45;&gt;Invis -->
<!-- instant -->
<g id="node3" class="node">
<title>instant</title>
<g id="a_node3"><a xlink:href="../terms/instant.md" xlink:title="&lt;TABLE&gt;" target="_top">
<polygon fill="lightgray" stroke="none" points="98.38,-25.88 98.38,-42.12 135.62,-42.12 135.62,-25.88 98.38,-25.88"/>
<text xml:space="preserve" text-anchor="start" x="99.38" y="-29.88" font-family="Arial" font-size="12.00">instant</text>
<polygon fill="none" stroke="black" points="97.38,-24.88 97.38,-43.12 136.62,-43.12 136.62,-24.88 97.38,-24.88"/>
</a>
</g>
</g>
<!-- duration&#45;&gt;instant -->
<g id="edge3" class="edge">
<title>duration&#45;&gt;instant</title>
<path fill="none" stroke="black" d="M16.98,-101.93C12.33,-91.9 9.13,-79.29 15.75,-70 30.09,-49.88 56.81,-41.21 79.2,-37.54"/>
<polygon fill="black" stroke="black" points="79.48,-41.03 88.93,-36.23 78.55,-34.09 79.48,-41.03"/>
<text xml:space="preserve" text-anchor="middle" x="36.38" y="-73.05" font-family="Arial" font-size="11.00"> ends at </text>
</g>
<!-- duration&#45;&gt;instant -->
<g id="edge4" class="edge">
<title>duration&#45;&gt;instant</title>
<path fill="none" stroke="black" d="M43.38,-101.56C52.69,-92.09 64.67,-80.18 75.75,-70 79.69,-66.38 83.92,-62.63 88.12,-59"/>
<polygon fill="black" stroke="black" points="90.1,-61.91 95.43,-52.76 85.55,-56.59 90.1,-61.91"/>
<text xml:space="preserve" text-anchor="middle" x="97.88" y="-73.05" font-family="Arial" font-size="11.00"> starts at </text>
</g>
<!-- Invis&#45;&gt;instant -->
</g>
</svg>
