<?xml version="1.0" encoding="UTF-8" standalone="no"?>
<!DOCTYPE svg PUBLIC "-//W3C//DTD SVG 1.1//EN"
 "http://www.w3.org/Graphics/SVG/1.1/DTD/svg11.dtd">
<!-- Generated by graphviz version 14.1.3 (20260303.0454)
 -->
<!-- Pages: 1 -->
<svg width="226pt" height="162pt"
 viewBox="0.00 0.00 226.00 162.00" xmlns="http://www.w3.org/2000/svg" xmlns:xlink="http://www.w3.org/1999/xlink">
<g id="graph0" class="graph" transform="scale(1 1) rotate(0) translate(4 157.5)">
<polygon fill="white" stroke="none" points="-4,4 -4,-157.5 222.38,-157.5 222.38,4 -4,4"/>
<g id="clust2" class="cluster">
<title>cluster_associated</title>
</g>
<!-- dynamic driving task -->
<g id="node1" class="node">
<title>dynamic driving task</title>
<polygon fill="lightgray" stroke="none" points="1,-111.38 1,-127.62 111.75,-127.62 111.75,-111.38 1,-111.38"/>
<text xml:space="preserve" text-anchor="start" x="2" y="-115.38" font-family="Arial" font-size="12.00">dynamic driving task</text>
<polygon fill="none" stroke="black" points="0,-110.38 0,-128.62 112.75,-128.62 112.75,-110.38 0,-110.38"/>
</g>
<!-- Invis -->
<!-- dynamic driving task&#45;&gt;Invis -->
<!-- vehicle -->
<g id="node3" class="node">
<title>vehicle</title>
<g id="a_node3"><a xlink:href="../terms/vehicle.md" xlink:title="&lt;TABLE&gt;" target="_top">
<polygon fill="lightgray" stroke="none" points="155.25,-25.88 155.25,-42.12 195.5,-42.12 195.5,-25.88 155.25,-25.88"/>
<text xml:space="preserve" text-anchor="start" x="156.25" y="-29.88" font-family="Arial" font-size="12.00">vehicle</text>
<polygon fill="none" stroke="black" points="154.25,-24.88 154.25,-43.12 196.5,-43.12 196.5,-24.88 154.25,-24.88"/>
</a>
</g>
</g>
<!-- dynamic driving task&#45;&gt;vehicle -->
<g id="edge3" class="edge">
<title>dynamic driving task&#45;&gt;vehicle</title>
<path fill="none" stroke="black" d="M54.59,-101.87C54.41,-91.56 55.98,-78.68 63.38,-70 81.62,-48.58 112.78,-40.09 137.61,-36.8"/>
<polygon fill="black" stroke="black" points="137.78,-40.31 147.35,-35.77 137.04,-33.35 137.78,-40.31"/>
<text xml:space="preserve" text-anchor="middle" x="117.38" y="-73.05" font-family="Arial" font-size="11.00"> is required to operate </text>
</g>
<!-- Invis&#45;&gt;vehicle -->
</g>
</svg>
