<?xml version="1.0" encoding="UTF-8" standalone="no"?>
<!DOCTYPE svg PUBLIC "-//W3C//DTD SVG 1.1//EN"
 "http://www.w3.org/Graphics/SVG/1.1/DTD/svg11.dtd">
<!-- Generated by graphviz version 14.1.3 (20260303.0454)
 -->
<!-- Pages: 1 -->
<svg width="178pt" height="162pt"
 viewBox="0.00 0.00 178.00 162.00" xmlns="http://www.w3.org/2000/svg" xmlns:xlink="http://www.w3.org/1999/xlink">
<g id="graph0" class="graph" transform="scale(1 1) rotate(0) translate(4 157.5)">
<polygon fill="white" stroke="none" points="-4,4 -4,-157.5 173.88,-157.5 173.88,4 -4,4"/>
<g id="clust2" class="cluster">
<title>cluster_associated</title>
</g>
<!-- egress link -->
<g id="node1" class="node">
<title>egress link</title>
<polygon fill="lightgray" stroke="none" points="1,-111.38 1,-127.62 60.75,-127.62 60.75,-111.38 1,-111.38"/>
<text xml:space="preserve" text-anchor="start" x="2" y="-115.38" font-family="Arial" font-size="12.00">egress link</text>
<polygon fill="none" stroke="black" points="0,-110.38 0,-128.62 61.75,-128.62 61.75,-110.38 0,-110.38"/>
</g>
<!-- Invis -->
<!-- egress link&#45;&gt;Invis -->
<!-- egressLane -->
<g id="node3" class="node">
<title>egressLane</title>
<g id="a_node3"><a xlink:href="../terms/egress lane.md" xlink:title="&lt;TABLE&gt;" target="_top">
<polygon fill="lightgray" stroke="none" points="88.75,-25.88 88.75,-42.12 153,-42.12 153,-25.88 88.75,-25.88"/>
<text xml:space="preserve" text-anchor="start" x="89.75" y="-29.88" font-family="Arial" font-size="12.00">egress lane</text>
<polygon fill="none" stroke="black" points="87.75,-24.88 87.75,-43.12 154,-43.12 154,-24.88 87.75,-24.88"/>
</a>
</g>
</g>
<!-- egress link&#45;&gt;egressLane -->
<g id="edge3" class="edge">
<title>egress link&#45;&gt;egressLane</title>
<path fill="none" stroke="black" d="M37.41,-101.71C41.98,-91.6 48.88,-78.99 57.88,-70 63.72,-64.16 70.73,-59.01 77.93,-54.58"/>
<polygon fill="black" stroke="black" points="79.49,-57.71 86.45,-49.73 76.03,-51.63 79.49,-57.71"/>
<text xml:space="preserve" text-anchor="middle" x="87.88" y="-73.05" font-family="Arial" font-size="11.00"> aggregates </text>
</g>
<!-- Invis&#45;&gt;egressLane -->
</g>
</svg>
