<?xml version="1.0" encoding="UTF-8" standalone="no"?>
<!DOCTYPE svg PUBLIC "-//W3C//DTD SVG 1.1//EN"
 "http://www.w3.org/Graphics/SVG/1.1/DTD/svg11.dtd">
<!-- Generated by graphviz version 14.1.3 (20260303.0454)
 -->
<!-- Pages: 1 -->
<svg width="180pt" height="162pt"
 viewBox="0.00 0.00 180.00 162.00" xmlns="http://www.w3.org/2000/svg" xmlns:xlink="http://www.w3.org/1999/xlink">
<g id="graph0" class="graph" transform="scale(1 1) rotate(0) translate(4 157.5)">
<polygon fill="white" stroke="none" points="-4,4 -4,-157.5 176.12,-157.5 176.12,4 -4,4"/>
<g id="clust2" class="cluster">
<title>cluster_associated</title>
</g>
<!-- egress lane -->
<g id="node1" class="node">
<title>egress lane</title>
<polygon fill="lightgray" stroke="none" points="1,-111.38 1,-127.62 65.25,-127.62 65.25,-111.38 1,-111.38"/>
<text xml:space="preserve" text-anchor="start" x="2" y="-115.38" font-family="Arial" font-size="12.00">egress lane</text>
<polygon fill="none" stroke="black" points="0,-110.38 0,-128.62 66.25,-128.62 66.25,-110.38 0,-110.38"/>
</g>
<!-- Invis -->
<!-- egress lane&#45;&gt;Invis -->
<!-- junction -->
<g id="node3" class="node">
<title>junction</title>
<g id="a_node3"><a xlink:href="../terms/junction.md" xlink:title="&lt;TABLE&gt;" target="_top">
<polygon fill="lightgray" stroke="none" points="107.12,-25.88 107.12,-42.12 151.12,-42.12 151.12,-25.88 107.12,-25.88"/>
<text xml:space="preserve" text-anchor="start" x="108.12" y="-29.88" font-family="Arial" font-size="12.00">junction</text>
<polygon fill="none" stroke="black" points="106.12,-24.88 106.12,-43.12 152.12,-43.12 152.12,-24.88 106.12,-24.88"/>
</a>
</g>
</g>
<!-- egress lane&#45;&gt;junction -->
<g id="edge3" class="edge">
<title>egress lane&#45;&gt;junction</title>
<path fill="none" stroke="black" d="M51.36,-101.7C61.69,-92.27 74.9,-80.36 86.88,-70 90.98,-66.45 95.35,-62.74 99.67,-59.13"/>
<polygon fill="black" stroke="black" points="101.73,-61.97 107.18,-52.88 97.26,-56.58 101.73,-61.97"/>
<text xml:space="preserve" text-anchor="middle" x="106" y="-73.05" font-family="Arial" font-size="11.00"> exit for </text>
</g>
<!-- Invis&#45;&gt;junction -->
</g>
</svg>
