<?xml version="1.0" encoding="UTF-8" standalone="no"?>
<!DOCTYPE svg PUBLIC "-//W3C//DTD SVG 1.1//EN"
 "http://www.w3.org/Graphics/SVG/1.1/DTD/svg11.dtd">
<!-- Generated by graphviz version 14.1.3 (20260303.0454)
 -->
<!-- Pages: 1 -->
<svg width="243pt" height="219pt"
 viewBox="0.00 0.00 243.00 219.00" xmlns="http://www.w3.org/2000/svg" xmlns:xlink="http://www.w3.org/1999/xlink">
<g id="graph0" class="graph" transform="scale(1 1) rotate(0) translate(4 214.5)">
<polygon fill="white" stroke="none" points="-4,4 -4,-214.5 239.12,-214.5 239.12,4 -4,4"/>
<g id="clust2" class="cluster">
<title>cluster_associated</title>
</g>
<!-- enterprise viewpoint -->
<g id="node1" class="node">
<title>enterprise viewpoint</title>
<polygon fill="lightgray" stroke="none" points="120.38,-111.38 120.38,-127.62 229.62,-127.62 229.62,-111.38 120.38,-111.38"/>
<text xml:space="preserve" text-anchor="start" x="121.38" y="-115.38" font-family="Arial" font-size="12.00">enterprise viewpoint</text>
<polygon fill="none" stroke="black" points="119.38,-110.38 119.38,-128.62 230.62,-128.62 230.62,-110.38 119.38,-110.38"/>
</g>
<!-- architectureViewpoint -->
<g id="node2" class="node">
<title>architectureViewpoint</title>
<g id="a_node2"><a xlink:href="../terms/architecture viewpoint.md" xlink:title="&lt;TABLE&gt;" target="_top">
<polygon fill="lightgray" stroke="none" points="115.88,-184.38 115.88,-200.62 234.12,-200.62 234.12,-184.38 115.88,-184.38"/>
<text xml:space="preserve" text-anchor="start" x="116.88" y="-188.38" font-family="Arial" font-size="12.00">architecture viewpoint</text>
<polygon fill="none" stroke="black" points="114.88,-183.38 114.88,-201.62 235.12,-201.62 235.12,-183.38 114.88,-183.38"/>
</a>
</g>
</g>
<!-- enterprise viewpoint&#45;&gt;architectureViewpoint -->
<g id="edge1" class="edge">
<title>enterprise viewpoint&#45;&gt;architectureViewpoint</title>
<path fill="none" stroke="black" d="M175,-137.21C175,-144.97 175,-154.42 175,-163.24"/>
<polygon fill="none" stroke="black" points="171.5,-163.16 175,-173.16 178.5,-163.16 171.5,-163.16"/>
</g>
<!-- Invis -->
<!-- enterprise viewpoint&#45;&gt;Invis -->
<!-- enterpriseView -->
<g id="node4" class="node">
<title>enterpriseView</title>
<g id="a_node4"><a xlink:href="../terms/enterprise view.md" xlink:title="&lt;TABLE&gt;" target="_top">
<polygon fill="lightgray" stroke="none" points="17.5,-25.88 17.5,-42.12 100.5,-42.12 100.5,-25.88 17.5,-25.88"/>
<text xml:space="preserve" text-anchor="start" x="18.5" y="-29.88" font-family="Arial" font-size="12.00">enterprise view</text>
<polygon fill="none" stroke="black" points="16.5,-24.88 16.5,-43.12 101.5,-43.12 101.5,-24.88 16.5,-24.88"/>
</a>
</g>
</g>
<!-- enterprise viewpoint&#45;&gt;enterpriseView -->
<g id="edge4" class="edge">
<title>enterprise viewpoint&#45;&gt;enterpriseView</title>
<path fill="none" stroke="black" d="M151.53,-101.6C134.31,-89.21 110.71,-72.22 91.66,-58.51"/>
<polygon fill="black" stroke="black" points="93.83,-55.76 83.67,-52.76 89.74,-61.44 93.83,-55.76"/>
<text xml:space="preserve" text-anchor="middle" x="146.07" y="-73.05" font-family="Arial" font-size="11.00"> governs </text>
</g>
<!-- Invis&#45;&gt;enterpriseView -->
</g>
</svg>
