<?xml version="1.0" encoding="UTF-8" standalone="no"?>
<!DOCTYPE svg PUBLIC "-//W3C//DTD SVG 1.1//EN"
 "http://www.w3.org/Graphics/SVG/1.1/DTD/svg11.dtd">
<!-- Generated by graphviz version 14.1.3 (20260303.0454)
 -->
<!-- Pages: 1 -->
<svg width="258pt" height="162pt"
 viewBox="0.00 0.00 258.00 162.00" xmlns="http://www.w3.org/2000/svg" xmlns:xlink="http://www.w3.org/1999/xlink">
<g id="graph0" class="graph" transform="scale(1 1) rotate(0) translate(4 157.5)">
<polygon fill="white" stroke="none" points="-4,4 -4,-157.5 253.62,-157.5 253.62,4 -4,4"/>
<g id="clust2" class="cluster">
<title>cluster_associated</title>
</g>
<!-- fallback&#45;ready user -->
<g id="node1" class="node">
<title>fallback&#45;ready user</title>
<polygon fill="lightgray" stroke="none" points="1,-111.38 1,-127.62 104.25,-127.62 104.25,-111.38 1,-111.38"/>
<text xml:space="preserve" text-anchor="start" x="2" y="-115.38" font-family="Arial" font-size="12.00">fallback&#45;ready user</text>
<polygon fill="none" stroke="black" points="0,-110.38 0,-128.62 105.25,-128.62 105.25,-110.38 0,-110.38"/>
</g>
<!-- Invis -->
<!-- fallback&#45;ready user&#45;&gt;Invis -->
<!-- dynamicDrivingTask -->
<g id="node3" class="node">
<title>dynamicDrivingTask</title>
<g id="a_node3"><a xlink:href="../terms/dynamic driving task.md" xlink:title="&lt;TABLE&gt;" target="_top">
<polygon fill="lightgray" stroke="none" points="122.25,-25.88 122.25,-42.12 233,-42.12 233,-25.88 122.25,-25.88"/>
<text xml:space="preserve" text-anchor="start" x="123.25" y="-29.88" font-family="Arial" font-size="12.00">dynamic driving task</text>
<polygon fill="none" stroke="black" points="121.25,-24.88 121.25,-43.12 234,-43.12 234,-24.88 121.25,-24.88"/>
</a>
</g>
</g>
<!-- fallback&#45;ready user&#45;&gt;dynamicDrivingTask -->
<g id="edge3" class="edge">
<title>fallback&#45;ready user&#45;&gt;dynamicDrivingTask</title>
<path fill="none" stroke="black" d="M60.49,-101.71C66.08,-91.34 74.49,-78.45 85.12,-70 92.84,-63.87 101.75,-58.73 110.93,-54.45"/>
<polygon fill="black" stroke="black" points="112.16,-57.73 119.96,-50.56 109.39,-51.3 112.16,-57.73"/>
<text xml:space="preserve" text-anchor="middle" x="127.88" y="-73.05" font-family="Arial" font-size="11.00"> ready to perform </text>
</g>
<!-- Invis&#45;&gt;dynamicDrivingTask -->
</g>
</svg>
