<?xml version="1.0" encoding="UTF-8" standalone="no"?>
<!DOCTYPE svg PUBLIC "-//W3C//DTD SVG 1.1//EN"
 "http://www.w3.org/Graphics/SVG/1.1/DTD/svg11.dtd">
<!-- Generated by graphviz version 14.1.3 (20260303.0454)
 -->
<!-- Pages: 1 -->
<svg width="419pt" height="235pt"
 viewBox="0.00 0.00 419.00 235.00" xmlns="http://www.w3.org/2000/svg" xmlns:xlink="http://www.w3.org/1999/xlink">
<g id="graph0" class="graph" transform="scale(1 1) rotate(0) translate(4 230.5)">
<polygon fill="white" stroke="none" points="-4,4 -4,-230.5 415.07,-230.5 415.07,4 -4,4"/>
<g id="clust2" class="cluster">
<title>cluster_associated</title>
</g>
<!-- fallback -->
<g id="node1" class="node">
<title>fallback</title>
<g id="a_node1"><a xlink:href="../terms/fallback.md" xlink:title="&lt;TABLE&gt;">
<polygon fill="lightgray" stroke="none" points="108.45,-184.38 108.45,-200.62 151.7,-200.62 151.7,-184.38 108.45,-184.38"/>
<text xml:space="preserve" text-anchor="start" x="109.45" y="-188.38" font-family="Arial" font-size="12.00">fallback</text>
<polygon fill="none" stroke="black" points="107.45,-183.38 107.45,-201.62 152.7,-201.62 152.7,-183.38 107.45,-183.38"/>
</a>
</g>
</g>
<!-- Invis -->
<!-- fallback&#45;&gt;Invis -->
<!-- ddtPerformance&#45;relevantSystemFailure -->
<g id="node3" class="node">
<title>ddtPerformance&#45;relevantSystemFailure</title>
<g id="a_node3"><a xlink:href="../terms/DDT performance-relevant system failure.md" xlink:title="&lt;TABLE&gt;" target="_top">
<polygon fill="lightgray" stroke="none" points="174.32,-98.88 174.32,-115.12 393.82,-115.12 393.82,-98.88 174.32,-98.88"/>
<text xml:space="preserve" text-anchor="start" x="175.32" y="-102.88" font-family="Arial" font-size="12.00">DDT performance&#45;relevant system failure</text>
<polygon fill="none" stroke="black" points="173.32,-97.88 173.32,-116.12 394.82,-116.12 394.82,-97.88 173.32,-97.88"/>
</a>
</g>
</g>
<!-- fallback&#45;&gt;ddtPerformance&#45;relevantSystemFailure -->
<g id="edge5" class="edge">
<title>fallback&#45;&gt;ddtPerformance&#45;relevantSystemFailure</title>
<path fill="none" stroke="black" d="M136.94,-174.87C142.1,-164.29 150.17,-151.11 161.07,-143 168.15,-137.74 175.99,-133.26 184.19,-129.46"/>
<polygon fill="black" stroke="black" points="185.5,-132.71 193.35,-125.59 182.77,-126.26 185.5,-132.71"/>
<text xml:space="preserve" text-anchor="middle" x="207.57" y="-146.05" font-family="Arial" font-size="11.00"> may be caused by </text>
</g>
<!-- operationalDesignDomain -->
<g id="node4" class="node">
<title>operationalDesignDomain</title>
<g id="a_node4"><a xlink:href="../terms/operational design domain.md" xlink:title="&lt;TABLE&gt;" target="_top">
<polygon fill="lightgray" stroke="none" points="193.2,-25.88 193.2,-42.12 336.95,-42.12 336.95,-25.88 193.2,-25.88"/>
<text xml:space="preserve" text-anchor="start" x="194.2" y="-29.88" font-family="Arial" font-size="12.00">operational design domain</text>
<polygon fill="none" stroke="black" points="192.2,-24.88 192.2,-43.12 337.95,-43.12 337.95,-24.88 192.2,-24.88"/>
</a>
</g>
</g>
<!-- fallback&#45;&gt;operationalDesignDomain -->
<g id="edge4" class="edge">
<title>fallback&#45;&gt;operationalDesignDomain</title>
<path fill="none" stroke="black" d="M103.32,-182.71C58.2,-166.5 -25.05,-129.81 8.07,-89 29.7,-62.36 114.77,-48.37 181.18,-41.38"/>
<polygon fill="black" stroke="black" points="181.4,-44.87 191,-40.38 180.69,-37.91 181.4,-44.87"/>
<text xml:space="preserve" text-anchor="middle" x="86.07" y="-103.3" font-family="Arial" font-size="11.00"> may be caused by a violation of </text>
</g>
<!-- Invis&#45;&gt;ddtPerformance&#45;relevantSystemFailure -->
<!-- ddtPerformance&#45;relevantSystemFailure&#45;&gt;operationalDesignDomain -->
</g>
</svg>
