<?xml version="1.0" encoding="UTF-8" standalone="no"?>
<!DOCTYPE svg PUBLIC "-//W3C//DTD SVG 1.1//EN"
 "http://www.w3.org/Graphics/SVG/1.1/DTD/svg11.dtd">
<!-- Generated by graphviz version 14.1.3 (20260303.0454)
 -->
<!-- Pages: 1 -->
<svg width="205pt" height="219pt"
 viewBox="0.00 0.00 205.00 219.00" xmlns="http://www.w3.org/2000/svg" xmlns:xlink="http://www.w3.org/1999/xlink">
<g id="graph0" class="graph" transform="scale(1 1) rotate(0) translate(4 214.5)">
<polygon fill="white" stroke="none" points="-4,4 -4,-214.5 200.5,-214.5 200.5,4 -4,4"/>
<g id="clust2" class="cluster">
<title>cluster_associated</title>
</g>
<!-- functional object -->
<g id="node1" class="node">
<title>functional object</title>
<polygon fill="lightgray" stroke="none" points="106.5,-111.38 106.5,-127.62 195.5,-127.62 195.5,-111.38 106.5,-111.38"/>
<text xml:space="preserve" text-anchor="start" x="107.5" y="-115.38" font-family="Arial" font-size="12.00">functional object</text>
<polygon fill="none" stroke="black" points="105.5,-110.38 105.5,-128.62 196.5,-128.62 196.5,-110.38 105.5,-110.38"/>
</g>
<!-- resource -->
<g id="node2" class="node">
<title>resource</title>
<g id="a_node2"><a xlink:href="../terms/resource.md" xlink:title="&lt;TABLE&gt;" target="_top">
<polygon fill="lightgray" stroke="none" points="126.75,-184.38 126.75,-200.62 175.25,-200.62 175.25,-184.38 126.75,-184.38"/>
<text xml:space="preserve" text-anchor="start" x="127.75" y="-188.38" font-family="Arial" font-size="12.00">resource</text>
<polygon fill="none" stroke="black" points="125.75,-183.38 125.75,-201.62 176.25,-201.62 176.25,-183.38 125.75,-183.38"/>
</a>
</g>
</g>
<!-- functional object&#45;&gt;resource -->
<g id="edge1" class="edge">
<title>functional object&#45;&gt;resource</title>
<path fill="none" stroke="black" d="M151,-137.21C151,-144.97 151,-154.42 151,-163.24"/>
<polygon fill="none" stroke="black" points="147.5,-163.16 151,-173.16 154.5,-163.16 147.5,-163.16"/>
</g>
<!-- Invis -->
<!-- functional object&#45;&gt;Invis -->
<!-- process -->
<g id="node4" class="node">
<title>process</title>
<g id="a_node4"><a xlink:href="../terms/process.md" xlink:title="&lt;TABLE&gt;" target="_top">
<polygon fill="lightgray" stroke="none" points="21,-25.88 21,-42.12 65,-42.12 65,-25.88 21,-25.88"/>
<text xml:space="preserve" text-anchor="start" x="22" y="-29.88" font-family="Arial" font-size="12.00">process</text>
<polygon fill="none" stroke="black" points="20,-24.88 20,-43.12 66,-43.12 66,-24.88 20,-24.88"/>
</a>
</g>
</g>
<!-- functional object&#45;&gt;process -->
<g id="edge4" class="edge">
<title>functional object&#45;&gt;process</title>
<path fill="none" stroke="black" d="M129.14,-101.6C113.19,-89.27 91.35,-72.38 73.65,-58.69"/>
<polygon fill="black" stroke="black" points="76.07,-56.15 66.02,-52.8 71.79,-61.68 76.07,-56.15"/>
<text xml:space="preserve" text-anchor="middle" x="122.97" y="-73.05" font-family="Arial" font-size="11.00"> groups </text>
</g>
<!-- Invis&#45;&gt;process -->
</g>
</svg>
