<?xml version="1.0" encoding="UTF-8" standalone="no"?>
<!DOCTYPE svg PUBLIC "-//W3C//DTD SVG 1.1//EN"
 "http://www.w3.org/Graphics/SVG/1.1/DTD/svg11.dtd">
<!-- Generated by graphviz version 14.1.3 (20260303.0454)
 -->
<!-- Pages: 1 -->
<svg width="246pt" height="162pt"
 viewBox="0.00 0.00 246.00 162.00" xmlns="http://www.w3.org/2000/svg" xmlns:xlink="http://www.w3.org/1999/xlink">
<g id="graph0" class="graph" transform="scale(1 1) rotate(0) translate(4 157.5)">
<polygon fill="white" stroke="none" points="-4,4 -4,-157.5 241.75,-157.5 241.75,4 -4,4"/>
<g id="clust2" class="cluster">
<title>cluster_associated</title>
</g>
<!-- geographic descriptor -->
<g id="node1" class="node">
<title>geographic descriptor</title>
<polygon fill="lightgray" stroke="none" points="1,-111.38 1,-127.62 118.5,-127.62 118.5,-111.38 1,-111.38"/>
<text xml:space="preserve" text-anchor="start" x="2" y="-115.38" font-family="Arial" font-size="12.00">geographic descriptor</text>
<polygon fill="none" stroke="black" points="0,-110.38 0,-128.62 119.5,-128.62 119.5,-110.38 0,-110.38"/>
</g>
<!-- Invis -->
<!-- geographic descriptor&#45;&gt;Invis -->
<!-- spatialLocation -->
<g id="node3" class="node">
<title>spatialLocation</title>
<g id="a_node3"><a xlink:href="../terms/spatial location.md" xlink:title="&lt;TABLE&gt;" target="_top">
<polygon fill="lightgray" stroke="none" points="138.62,-25.88 138.62,-42.12 220.88,-42.12 220.88,-25.88 138.62,-25.88"/>
<text xml:space="preserve" text-anchor="start" x="139.62" y="-29.88" font-family="Arial" font-size="12.00">spatial location</text>
<polygon fill="none" stroke="black" points="137.62,-24.88 137.62,-43.12 221.88,-43.12 221.88,-24.88 137.62,-24.88"/>
</a>
</g>
</g>
<!-- geographic descriptor&#45;&gt;spatialLocation -->
<g id="edge3" class="edge">
<title>geographic descriptor&#45;&gt;spatialLocation</title>
<path fill="none" stroke="black" d="M73.95,-101.83C83.11,-91.76 95.67,-79.15 108.5,-70 115.06,-65.32 122.33,-60.96 129.66,-57"/>
<polygon fill="black" stroke="black" points="130.98,-60.26 138.27,-52.57 127.77,-54.04 130.98,-60.26"/>
<text xml:space="preserve" text-anchor="middle" x="142.62" y="-73.05" font-family="Arial" font-size="11.00"> helps identify </text>
</g>
<!-- Invis&#45;&gt;spatialLocation -->
</g>
</svg>
