<?xml version="1.0" encoding="UTF-8" standalone="no"?>
<!DOCTYPE svg PUBLIC "-//W3C//DTD SVG 1.1//EN"
 "http://www.w3.org/Graphics/SVG/1.1/DTD/svg11.dtd">
<!-- Generated by graphviz version 14.1.3 (20260303.0454)
 -->
<!-- Pages: 1 -->
<svg width="253pt" height="162pt"
 viewBox="0.00 0.00 253.00 162.00" xmlns="http://www.w3.org/2000/svg" xmlns:xlink="http://www.w3.org/1999/xlink">
<g id="graph0" class="graph" transform="scale(1 1) rotate(0) translate(4 157.5)">
<polygon fill="white" stroke="none" points="-4,4 -4,-157.5 248.5,-157.5 248.5,4 -4,4"/>
<g id="clust2" class="cluster">
<title>cluster_associated</title>
</g>
<!-- gross vehicle mass rating -->
<g id="node1" class="node">
<title>gross vehicle mass rating</title>
<polygon fill="lightgray" stroke="none" points="1,-111.38 1,-127.62 138,-127.62 138,-111.38 1,-111.38"/>
<text xml:space="preserve" text-anchor="start" x="2" y="-115.38" font-family="Arial" font-size="12.00">gross vehicle mass rating</text>
<polygon fill="none" stroke="black" points="0,-110.38 0,-128.62 139,-128.62 139,-110.38 0,-110.38"/>
</g>
<!-- Invis -->
<!-- gross vehicle mass rating&#45;&gt;Invis -->
<!-- vehicle -->
<g id="node3" class="node">
<title>vehicle</title>
<g id="a_node3"><a xlink:href="../terms/vehicle.md" xlink:title="&lt;TABLE&gt;" target="_top">
<polygon fill="lightgray" stroke="none" points="181.38,-25.88 181.38,-42.12 221.62,-42.12 221.62,-25.88 181.38,-25.88"/>
<text xml:space="preserve" text-anchor="start" x="182.38" y="-29.88" font-family="Arial" font-size="12.00">vehicle</text>
<polygon fill="none" stroke="black" points="180.38,-24.88 180.38,-43.12 222.62,-43.12 222.62,-24.88 180.38,-24.88"/>
</a>
</g>
</g>
<!-- gross vehicle mass rating&#45;&gt;vehicle -->
<g id="edge3" class="edge">
<title>gross vehicle mass rating&#45;&gt;vehicle</title>
<path fill="none" stroke="black" d="M66.23,-101.91C65.19,-91.61 65.81,-78.74 73,-70 84.47,-56.06 129.72,-46.11 163.3,-40.46"/>
<polygon fill="black" stroke="black" points="163.81,-43.93 173.12,-38.89 162.7,-37.02 163.81,-43.93"/>
<text xml:space="preserve" text-anchor="middle" x="135.25" y="-73.05" font-family="Arial" font-size="11.00"> max operating weight for </text>
</g>
<!-- Invis&#45;&gt;vehicle -->
</g>
</svg>
