<?xml version="1.0" encoding="UTF-8" standalone="no"?>
<!DOCTYPE svg PUBLIC "-//W3C//DTD SVG 1.1//EN"
 "http://www.w3.org/Graphics/SVG/1.1/DTD/svg11.dtd">
<!-- Generated by graphviz version 14.1.3 (20260303.0454)
 -->
<!-- Pages: 1 -->
<svg width="276pt" height="219pt"
 viewBox="0.00 0.00 276.00 219.00" xmlns="http://www.w3.org/2000/svg" xmlns:xlink="http://www.w3.org/1999/xlink">
<g id="graph0" class="graph" transform="scale(1 1) rotate(0) translate(4 214.5)">
<polygon fill="white" stroke="none" points="-4,4 -4,-214.5 272.38,-214.5 272.38,4 -4,4"/>
<g id="clust2" class="cluster">
<title>cluster_associated</title>
</g>
<!-- in&#45;vehicle driver -->
<g id="node1" class="node">
<title>in&#45;vehicle driver</title>
<polygon fill="lightgray" stroke="none" points="180.62,-111.38 180.62,-127.62 267.38,-127.62 267.38,-111.38 180.62,-111.38"/>
<text xml:space="preserve" text-anchor="start" x="181.62" y="-115.38" font-family="Arial" font-size="12.00">in&#45;vehicle driver</text>
<polygon fill="none" stroke="black" points="179.62,-110.38 179.62,-128.62 268.38,-128.62 268.38,-110.38 179.62,-110.38"/>
</g>
<!-- driver -->
<g id="node2" class="node">
<title>driver</title>
<g id="a_node2"><a xlink:href="../terms/driver.md" xlink:title="&lt;TABLE&gt;" target="_top">
<polygon fill="lightgray" stroke="none" points="208,-184.38 208,-200.62 240,-200.62 240,-184.38 208,-184.38"/>
<text xml:space="preserve" text-anchor="start" x="209" y="-188.38" font-family="Arial" font-size="12.00">driver</text>
<polygon fill="none" stroke="black" points="207,-183.38 207,-201.62 241,-201.62 241,-183.38 207,-183.38"/>
</a>
</g>
</g>
<!-- in&#45;vehicle driver&#45;&gt;driver -->
<g id="edge1" class="edge">
<title>in&#45;vehicle driver&#45;&gt;driver</title>
<path fill="none" stroke="black" d="M224,-137.21C224,-144.97 224,-154.42 224,-163.24"/>
<polygon fill="none" stroke="black" points="220.5,-163.16 224,-173.16 227.5,-163.16 220.5,-163.16"/>
</g>
<!-- Invis -->
<!-- in&#45;vehicle driver&#45;&gt;Invis -->
<!-- built&#45;inVehicleInputDevice -->
<g id="node4" class="node">
<title>built&#45;inVehicleInputDevice</title>
<g id="a_node4"><a xlink:href="../terms/built-in vehicle input device.md" xlink:title="&lt;TABLE&gt;" target="_top">
<polygon fill="lightgray" stroke="none" points="16.62,-25.88 16.62,-42.12 163.38,-42.12 163.38,-25.88 16.62,-25.88"/>
<text xml:space="preserve" text-anchor="start" x="17.62" y="-29.88" font-family="Arial" font-size="12.00">built&#45;in vehicle input device</text>
<polygon fill="none" stroke="black" points="15.62,-24.88 15.62,-43.12 164.38,-43.12 164.38,-24.88 15.62,-24.88"/>
</a>
</g>
</g>
<!-- in&#45;vehicle driver&#45;&gt;built&#45;inVehicleInputDevice -->
<g id="edge4" class="edge">
<title>in&#45;vehicle driver&#45;&gt;built&#45;inVehicleInputDevice</title>
<path fill="none" stroke="black" d="M196.88,-101.6C176.72,-89.04 148.99,-71.76 126.82,-57.94"/>
<polygon fill="black" stroke="black" points="128.7,-54.99 118.36,-52.67 125,-60.93 128.7,-54.99"/>
<text xml:space="preserve" text-anchor="middle" x="179.27" y="-73.05" font-family="Arial" font-size="11.00"> uses </text>
</g>
<!-- Invis&#45;&gt;built&#45;inVehicleInputDevice -->
</g>
</svg>
