<?xml version="1.0" encoding="UTF-8" standalone="no"?>
<!DOCTYPE svg PUBLIC "-//W3C//DTD SVG 1.1//EN"
 "http://www.w3.org/Graphics/SVG/1.1/DTD/svg11.dtd">
<!-- Generated by graphviz version 14.1.3 (20260303.0454)
 -->
<!-- Pages: 1 -->
<svg width="182pt" height="162pt"
 viewBox="0.00 0.00 182.00 162.00" xmlns="http://www.w3.org/2000/svg" xmlns:xlink="http://www.w3.org/1999/xlink">
<g id="graph0" class="graph" transform="scale(1 1) rotate(0) translate(4 157.5)">
<polygon fill="white" stroke="none" points="-4,4 -4,-157.5 178.38,-157.5 178.38,4 -4,4"/>
<g id="clust2" class="cluster">
<title>cluster_associated</title>
</g>
<!-- ingress link -->
<g id="node1" class="node">
<title>ingress link</title>
<polygon fill="lightgray" stroke="none" points="1,-111.38 1,-127.62 63.75,-127.62 63.75,-111.38 1,-111.38"/>
<text xml:space="preserve" text-anchor="start" x="2" y="-115.38" font-family="Arial" font-size="12.00">ingress link</text>
<polygon fill="none" stroke="black" points="0,-110.38 0,-128.62 64.75,-128.62 64.75,-110.38 0,-110.38"/>
</g>
<!-- Invis -->
<!-- ingress link&#45;&gt;Invis -->
<!-- ingressLane -->
<g id="node3" class="node">
<title>ingressLane</title>
<g id="a_node3"><a xlink:href="../terms/ingress lane.md" xlink:title="&lt;TABLE&gt;" target="_top">
<polygon fill="lightgray" stroke="none" points="89.75,-25.88 89.75,-42.12 157,-42.12 157,-25.88 89.75,-25.88"/>
<text xml:space="preserve" text-anchor="start" x="90.75" y="-29.88" font-family="Arial" font-size="12.00">ingress lane</text>
<polygon fill="none" stroke="black" points="88.75,-24.88 88.75,-43.12 158,-43.12 158,-24.88 88.75,-24.88"/>
</a>
</g>
</g>
<!-- ingress link&#45;&gt;ingressLane -->
<g id="edge3" class="edge">
<title>ingress link&#45;&gt;ingressLane</title>
<path fill="none" stroke="black" d="M39.67,-101.75C44.68,-91.65 52.1,-79.04 61.38,-70 66.73,-64.78 73.01,-60.08 79.48,-55.93"/>
<polygon fill="black" stroke="black" points="80.91,-59.15 87.72,-51.04 77.33,-53.14 80.91,-59.15"/>
<text xml:space="preserve" text-anchor="middle" x="91.38" y="-73.05" font-family="Arial" font-size="11.00"> aggregates </text>
</g>
<!-- Invis&#45;&gt;ingressLane -->
</g>
</svg>
