<?xml version="1.0" encoding="UTF-8" standalone="no"?>
<!DOCTYPE svg PUBLIC "-//W3C//DTD SVG 1.1//EN"
 "http://www.w3.org/Graphics/SVG/1.1/DTD/svg11.dtd">
<!-- Generated by graphviz version 14.1.3 (20260303.0454)
 -->
<!-- Pages: 1 -->
<svg width="183pt" height="162pt"
 viewBox="0.00 0.00 183.00 162.00" xmlns="http://www.w3.org/2000/svg" xmlns:xlink="http://www.w3.org/1999/xlink">
<g id="graph0" class="graph" transform="scale(1 1) rotate(0) translate(4 157.5)">
<polygon fill="white" stroke="none" points="-4,4 -4,-157.5 178.62,-157.5 178.62,4 -4,4"/>
<g id="clust2" class="cluster">
<title>cluster_associated</title>
</g>
<!-- ingress lane -->
<g id="node1" class="node">
<title>ingress lane</title>
<polygon fill="lightgray" stroke="none" points="1,-111.38 1,-127.62 68.25,-127.62 68.25,-111.38 1,-111.38"/>
<text xml:space="preserve" text-anchor="start" x="2" y="-115.38" font-family="Arial" font-size="12.00">ingress lane</text>
<polygon fill="none" stroke="black" points="0,-110.38 0,-128.62 69.25,-128.62 69.25,-110.38 0,-110.38"/>
</g>
<!-- Invis -->
<!-- ingress lane&#45;&gt;Invis -->
<!-- junction -->
<g id="node3" class="node">
<title>junction</title>
<g id="a_node3"><a xlink:href="../terms/junction.md" xlink:title="&lt;TABLE&gt;" target="_top">
<polygon fill="lightgray" stroke="none" points="109.62,-25.88 109.62,-42.12 153.62,-42.12 153.62,-25.88 109.62,-25.88"/>
<text xml:space="preserve" text-anchor="start" x="110.62" y="-29.88" font-family="Arial" font-size="12.00">junction</text>
<polygon fill="none" stroke="black" points="108.62,-24.88 108.62,-43.12 154.62,-43.12 154.62,-24.88 108.62,-24.88"/>
</a>
</g>
</g>
<!-- ingress lane&#45;&gt;junction -->
<g id="edge3" class="edge">
<title>ingress lane&#45;&gt;junction</title>
<path fill="none" stroke="black" d="M49.66,-101.57C58.61,-91.88 70.42,-79.76 81.88,-70 86.5,-66.06 91.55,-62.13 96.61,-58.39"/>
<polygon fill="black" stroke="black" points="98.31,-61.48 104.41,-52.81 94.24,-55.79 98.31,-61.48"/>
<text xml:space="preserve" text-anchor="middle" x="104.75" y="-73.05" font-family="Arial" font-size="11.00"> entry for </text>
</g>
<!-- Invis&#45;&gt;junction -->
</g>
</svg>
