<?xml version="1.0" encoding="UTF-8" standalone="no"?>
<!DOCTYPE svg PUBLIC "-//W3C//DTD SVG 1.1//EN"
 "http://www.w3.org/Graphics/SVG/1.1/DTD/svg11.dtd">
<!-- Generated by graphviz version 14.1.3 (20260303.0454)
 -->
<!-- Pages: 1 -->
<svg width="320pt" height="219pt"
 viewBox="0.00 0.00 320.00 219.00" xmlns="http://www.w3.org/2000/svg" xmlns:xlink="http://www.w3.org/1999/xlink">
<g id="graph0" class="graph" transform="scale(1 1) rotate(0) translate(4 214.5)">
<polygon fill="white" stroke="none" points="-4,4 -4,-214.5 315.88,-214.5 315.88,4 -4,4"/>
<g id="clust2" class="cluster">
<title>cluster_associated</title>
</g>
<!-- intelligent transport system -->
<g id="node1" class="node">
<title>intelligent transport system</title>
<polygon fill="lightgray" stroke="none" points="167.12,-111.38 167.12,-127.62 310.88,-127.62 310.88,-111.38 167.12,-111.38"/>
<text xml:space="preserve" text-anchor="start" x="168.12" y="-115.38" font-family="Arial" font-size="12.00">intelligent transport system</text>
<polygon fill="none" stroke="black" points="166.12,-110.38 166.12,-128.62 311.88,-128.62 311.88,-110.38 166.12,-110.38"/>
</g>
<!-- system -->
<g id="node2" class="node">
<title>system</title>
<g id="a_node2"><a xlink:href="../terms/system.md" xlink:title="&lt;TABLE&gt;" target="_top">
<polygon fill="lightgray" stroke="none" points="219.25,-184.38 219.25,-200.62 258.75,-200.62 258.75,-184.38 219.25,-184.38"/>
<text xml:space="preserve" text-anchor="start" x="220.25" y="-188.38" font-family="Arial" font-size="12.00">system</text>
<polygon fill="none" stroke="black" points="218.25,-183.38 218.25,-201.62 259.75,-201.62 259.75,-183.38 218.25,-183.38"/>
</a>
</g>
</g>
<!-- intelligent transport system&#45;&gt;system -->
<g id="edge1" class="edge">
<title>intelligent transport system&#45;&gt;system</title>
<path fill="none" stroke="black" d="M239,-137.21C239,-144.97 239,-154.42 239,-163.24"/>
<polygon fill="none" stroke="black" points="235.5,-163.16 239,-173.16 242.5,-163.16 235.5,-163.16"/>
</g>
<!-- Invis -->
<!-- intelligent transport system&#45;&gt;Invis -->
<!-- surfaceTransportSystem -->
<g id="node4" class="node">
<title>surfaceTransportSystem</title>
<g id="a_node4"><a xlink:href="../terms/surface transport system.md" xlink:title="&lt;TABLE&gt;" target="_top">
<polygon fill="lightgray" stroke="none" points="17.5,-25.88 17.5,-42.12 148.5,-42.12 148.5,-25.88 17.5,-25.88"/>
<text xml:space="preserve" text-anchor="start" x="18.5" y="-29.88" font-family="Arial" font-size="12.00">surface transport system</text>
<polygon fill="none" stroke="black" points="16.5,-24.88 16.5,-43.12 149.5,-43.12 149.5,-24.88 16.5,-24.88"/>
</a>
</g>
</g>
<!-- intelligent transport system&#45;&gt;surfaceTransportSystem -->
<g id="edge4" class="edge">
<title>intelligent transport system&#45;&gt;surfaceTransportSystem</title>
<path fill="none" stroke="black" d="M207.43,-101.6C183.54,-88.81 150.5,-71.13 124.48,-57.2"/>
<polygon fill="black" stroke="black" points="126.32,-54.22 115.86,-52.59 123.02,-60.39 126.32,-54.22"/>
<text xml:space="preserve" text-anchor="middle" x="218.72" y="-73.05" font-family="Arial" font-size="11.00"> designed to benefit </text>
</g>
<!-- Invis&#45;&gt;surfaceTransportSystem -->
</g>
</svg>
