<?xml version="1.0" encoding="UTF-8" standalone="no"?>
<!DOCTYPE svg PUBLIC "-//W3C//DTD SVG 1.1//EN"
 "http://www.w3.org/Graphics/SVG/1.1/DTD/svg11.dtd">
<!-- Generated by graphviz version 14.1.3 (20260303.0454)
 -->
<!-- Pages: 1 -->
<svg width="250pt" height="235pt"
 viewBox="0.00 0.00 250.00 235.00" xmlns="http://www.w3.org/2000/svg" xmlns:xlink="http://www.w3.org/1999/xlink">
<g id="graph0" class="graph" transform="scale(1 1) rotate(0) translate(4 230.5)">
<polygon fill="white" stroke="none" points="-4,4 -4,-230.5 245.88,-230.5 245.88,4 -4,4"/>
<g id="clust2" class="cluster">
<title>cluster_associated</title>
</g>
<!-- interoperability design -->
<g id="node1" class="node">
<title>interoperability design</title>
<polygon fill="lightgray" stroke="none" points="1,-184.38 1,-200.62 120.75,-200.62 120.75,-184.38 1,-184.38"/>
<text xml:space="preserve" text-anchor="start" x="2" y="-188.38" font-family="Arial" font-size="12.00">interoperability design</text>
<polygon fill="none" stroke="black" points="0,-183.38 0,-201.62 121.75,-201.62 121.75,-183.38 0,-183.38"/>
</g>
<!-- Invis -->
<!-- interoperability design&#45;&gt;Invis -->
<!-- physicalObject -->
<g id="node3" class="node">
<title>physicalObject</title>
<g id="a_node3"><a xlink:href="../terms/physical object.md" xlink:title="&lt;TABLE&gt;" target="_top">
<polygon fill="lightgray" stroke="none" points="143.12,-98.88 143.12,-115.12 224.62,-115.12 224.62,-98.88 143.12,-98.88"/>
<text xml:space="preserve" text-anchor="start" x="144.12" y="-102.88" font-family="Arial" font-size="12.00">physical object</text>
<polygon fill="none" stroke="black" points="142.12,-97.88 142.12,-116.12 225.62,-116.12 225.62,-97.88 142.12,-97.88"/>
</a>
</g>
</g>
<!-- interoperability design&#45;&gt;physicalObject -->
<g id="edge5" class="edge">
<title>interoperability design&#45;&gt;physicalObject</title>
<path fill="none" stroke="black" d="M85.77,-174.6C104.1,-162.15 129.27,-145.07 149.53,-131.32"/>
<polygon fill="black" stroke="black" points="151.46,-134.23 157.77,-125.72 147.53,-128.44 151.46,-134.23"/>
<text xml:space="preserve" text-anchor="middle" x="145.49" y="-146.05" font-family="Arial" font-size="11.00"> using </text>
</g>
<!-- service -->
<g id="node4" class="node">
<title>service</title>
<g id="a_node4"><a xlink:href="../terms/service.md" xlink:title="&lt;TABLE&gt;" target="_top">
<polygon fill="lightgray" stroke="none" points="155.75,-25.88 155.75,-42.12 196,-42.12 196,-25.88 155.75,-25.88"/>
<text xml:space="preserve" text-anchor="start" x="156.75" y="-29.88" font-family="Arial" font-size="12.00">service</text>
<polygon fill="none" stroke="black" points="154.75,-24.88 154.75,-43.12 197,-43.12 197,-24.88 154.75,-24.88"/>
</a>
</g>
</g>
<!-- interoperability design&#45;&gt;service -->
<g id="edge4" class="edge">
<title>interoperability design&#45;&gt;service</title>
<path fill="none" stroke="black" d="M44.4,-174.7C25.52,-153.37 -0.45,-116.08 18.88,-89 45.69,-51.42 100.41,-39.73 137.62,-36.24"/>
<polygon fill="black" stroke="black" points="137.81,-39.73 147.51,-35.49 137.28,-32.75 137.81,-39.73"/>
<text xml:space="preserve" text-anchor="middle" x="75.88" y="-103.3" font-family="Arial" font-size="11.00"> defines how to provide </text>
</g>
<!-- Invis&#45;&gt;physicalObject -->
<!-- physicalObject&#45;&gt;service -->
</g>
</svg>
