<?xml version="1.0" encoding="UTF-8" standalone="no"?>
<!DOCTYPE svg PUBLIC "-//W3C//DTD SVG 1.1//EN"
 "http://www.w3.org/Graphics/SVG/1.1/DTD/svg11.dtd">
<!-- Generated by graphviz version 14.1.3 (20260303.0454)
 -->
<!-- Pages: 1 -->
<svg width="262pt" height="219pt"
 viewBox="0.00 0.00 262.00 219.00" xmlns="http://www.w3.org/2000/svg" xmlns:xlink="http://www.w3.org/1999/xlink">
<g id="graph0" class="graph" transform="scale(1 1) rotate(0) translate(4 214.5)">
<polygon fill="white" stroke="none" points="-4,4 -4,-214.5 257.5,-214.5 257.5,4 -4,4"/>
<g id="clust2" class="cluster">
<title>cluster_associated</title>
</g>
<!-- interchange -->
<g id="node1" class="node">
<title>interchange</title>
<g id="a_node1"><a xlink:href="../terms/interchange.md" xlink:title="&lt;TABLE&gt;">
<polygon fill="lightgray" stroke="none" points="187.5,-111.38 187.5,-127.62 252.5,-127.62 252.5,-111.38 187.5,-111.38"/>
<text xml:space="preserve" text-anchor="start" x="188.5" y="-115.38" font-family="Arial" font-size="12.00">interchange</text>
<polygon fill="none" stroke="black" points="186.5,-110.38 186.5,-128.62 253.5,-128.62 253.5,-110.38 186.5,-110.38"/>
</a>
</g>
</g>
<!-- junction -->
<g id="node2" class="node">
<title>junction</title>
<g id="a_node2"><a xlink:href="../terms/junction.md" xlink:title="&lt;TABLE&gt;" target="_top">
<polygon fill="lightgray" stroke="none" points="198,-184.38 198,-200.62 242,-200.62 242,-184.38 198,-184.38"/>
<text xml:space="preserve" text-anchor="start" x="199" y="-188.38" font-family="Arial" font-size="12.00">junction</text>
<polygon fill="none" stroke="black" points="197,-183.38 197,-201.62 243,-201.62 243,-183.38 197,-183.38"/>
</a>
</g>
</g>
<!-- interchange&#45;&gt;junction -->
<g id="edge1" class="edge">
<title>interchange&#45;&gt;junction</title>
<path fill="none" stroke="black" d="M220,-137.21C220,-144.97 220,-154.42 220,-163.24"/>
<polygon fill="none" stroke="black" points="216.5,-163.16 220,-173.16 223.5,-163.16 216.5,-163.16"/>
</g>
<!-- Invis -->
<!-- interchange&#45;&gt;Invis -->
<!-- gradeSeparatedManoeuvre -->
<g id="node4" class="node">
<title>gradeSeparatedManoeuvre</title>
<g id="a_node4"><a xlink:href="../terms/grade separated manoeuvre.md" xlink:title="&lt;TABLE&gt;" target="_top">
<polygon fill="lightgray" stroke="none" points="17,-25.88 17,-42.12 169,-42.12 169,-25.88 17,-25.88"/>
<text xml:space="preserve" text-anchor="start" x="18" y="-29.88" font-family="Arial" font-size="12.00">grade separated manoeuvre</text>
<polygon fill="none" stroke="black" points="16,-24.88 16,-43.12 170,-43.12 170,-24.88 16,-24.88"/>
</a>
</g>
</g>
<!-- interchange&#45;&gt;gradeSeparatedManoeuvre -->
<g id="edge4" class="edge">
<title>interchange&#45;&gt;gradeSeparatedManoeuvre</title>
<path fill="none" stroke="black" d="M194.3,-101.6C175.28,-89.1 149.14,-71.91 128.18,-58.13"/>
<polygon fill="black" stroke="black" points="130.21,-55.27 119.93,-52.7 126.36,-61.12 130.21,-55.27"/>
<text xml:space="preserve" text-anchor="middle" x="194.1" y="-73.05" font-family="Arial" font-size="11.00"> aggregates </text>
</g>
<!-- Invis&#45;&gt;gradeSeparatedManoeuvre -->
</g>
</svg>
