<?xml version="1.0" encoding="UTF-8" standalone="no"?>
<!DOCTYPE svg PUBLIC "-//W3C//DTD SVG 1.1//EN"
 "http://www.w3.org/Graphics/SVG/1.1/DTD/svg11.dtd">
<!-- Generated by graphviz version 14.1.3 (20260303.0454)
 -->
<!-- Pages: 1 -->
<svg width="196pt" height="219pt"
 viewBox="0.00 0.00 196.00 219.00" xmlns="http://www.w3.org/2000/svg" xmlns:xlink="http://www.w3.org/1999/xlink">
<g id="graph0" class="graph" transform="scale(1 1) rotate(0) translate(4 214.5)">
<polygon fill="white" stroke="none" points="-4,4 -4,-214.5 191.86,-214.5 191.86,4 -4,4"/>
<g id="clust2" class="cluster">
<title>cluster_associated</title>
</g>
<!-- ITS user need -->
<g id="node1" class="node">
<title>ITS user need</title>
<polygon fill="lightgray" stroke="none" points="106.5,-111.38 106.5,-127.62 183.5,-127.62 183.5,-111.38 106.5,-111.38"/>
<text xml:space="preserve" text-anchor="start" x="107.5" y="-115.38" font-family="Arial" font-size="12.00">ITS user need</text>
<polygon fill="none" stroke="black" points="105.5,-110.38 105.5,-128.62 184.5,-128.62 184.5,-110.38 105.5,-110.38"/>
</g>
<!-- userNeed -->
<g id="node2" class="node">
<title>userNeed</title>
<g id="a_node2"><a xlink:href="../terms/user need.md" xlink:title="&lt;TABLE&gt;" target="_top">
<polygon fill="lightgray" stroke="none" points="117.38,-184.38 117.38,-200.62 172.62,-200.62 172.62,-184.38 117.38,-184.38"/>
<text xml:space="preserve" text-anchor="start" x="118.38" y="-188.38" font-family="Arial" font-size="12.00">user need</text>
<polygon fill="none" stroke="black" points="116.38,-183.38 116.38,-201.62 173.62,-201.62 173.62,-183.38 116.38,-183.38"/>
</a>
</g>
</g>
<!-- ITS user need&#45;&gt;userNeed -->
<g id="edge1" class="edge">
<title>ITS user need&#45;&gt;userNeed</title>
<path fill="none" stroke="black" d="M145,-137.21C145,-144.97 145,-154.42 145,-163.24"/>
<polygon fill="none" stroke="black" points="141.5,-163.16 145,-173.16 148.5,-163.16 141.5,-163.16"/>
</g>
<!-- Invis -->
<!-- ITS user need&#45;&gt;Invis -->
<!-- itsUser -->
<g id="node4" class="node">
<title>itsUser</title>
<g id="a_node4"><a xlink:href="../terms/ITS user.md" xlink:title="&lt;TABLE&gt;" target="_top">
<polygon fill="lightgray" stroke="none" points="19.5,-25.88 19.5,-42.12 66.5,-42.12 66.5,-25.88 19.5,-25.88"/>
<text xml:space="preserve" text-anchor="start" x="20.5" y="-29.88" font-family="Arial" font-size="12.00">ITS user</text>
<polygon fill="none" stroke="black" points="18.5,-24.88 18.5,-43.12 67.5,-43.12 67.5,-24.88 18.5,-24.88"/>
</a>
</g>
</g>
<!-- ITS user need&#45;&gt;itsUser -->
<g id="edge4" class="edge">
<title>ITS user need&#45;&gt;itsUser</title>
<path fill="none" stroke="black" d="M124.36,-101.6C109.43,-89.38 89.04,-72.69 72.41,-59.07"/>
<polygon fill="black" stroke="black" points="74.74,-56.46 64.78,-52.83 70.3,-61.87 74.74,-56.46"/>
<text xml:space="preserve" text-anchor="middle" x="143.98" y="-73.05" font-family="Arial" font-size="11.00"> desired results of </text>
</g>
<!-- Invis&#45;&gt;itsUser -->
</g>
</svg>
