<?xml version="1.0" encoding="UTF-8" standalone="no"?>
<!DOCTYPE svg PUBLIC "-//W3C//DTD SVG 1.1//EN"
 "http://www.w3.org/Graphics/SVG/1.1/DTD/svg11.dtd">
<!-- Generated by graphviz version 14.1.3 (20260303.0454)
 -->
<!-- Pages: 1 -->
<svg width="226pt" height="219pt"
 viewBox="0.00 0.00 226.00 219.00" xmlns="http://www.w3.org/2000/svg" xmlns:xlink="http://www.w3.org/1999/xlink">
<g id="graph0" class="graph" transform="scale(1 1) rotate(0) translate(4 214.5)">
<polygon fill="white" stroke="none" points="-4,4 -4,-214.5 222.25,-214.5 222.25,4 -4,4"/>
<g id="clust2" class="cluster">
<title>cluster_associated</title>
</g>
<!-- ITS service provider -->
<g id="node1" class="node">
<title>ITS service provider</title>
<polygon fill="lightgray" stroke="none" points="108.75,-111.38 108.75,-127.62 217.25,-127.62 217.25,-111.38 108.75,-111.38"/>
<text xml:space="preserve" text-anchor="start" x="109.75" y="-115.38" font-family="Arial" font-size="12.00">ITS service provider</text>
<polygon fill="none" stroke="black" points="107.75,-110.38 107.75,-128.62 218.25,-128.62 218.25,-110.38 107.75,-110.38"/>
</g>
<!-- serviceProvider -->
<g id="node2" class="node">
<title>serviceProvider</title>
<g id="a_node2"><a xlink:href="../terms/service provider.md" xlink:title="&lt;TABLE&gt;" target="_top">
<polygon fill="lightgray" stroke="none" points="119.62,-184.38 119.62,-200.62 206.38,-200.62 206.38,-184.38 119.62,-184.38"/>
<text xml:space="preserve" text-anchor="start" x="120.62" y="-188.38" font-family="Arial" font-size="12.00">service provider</text>
<polygon fill="none" stroke="black" points="118.62,-183.38 118.62,-201.62 207.38,-201.62 207.38,-183.38 118.62,-183.38"/>
</a>
</g>
</g>
<!-- ITS service provider&#45;&gt;serviceProvider -->
<g id="edge1" class="edge">
<title>ITS service provider&#45;&gt;serviceProvider</title>
<path fill="none" stroke="black" d="M163,-137.21C163,-144.97 163,-154.42 163,-163.24"/>
<polygon fill="none" stroke="black" points="159.5,-163.16 163,-173.16 166.5,-163.16 159.5,-163.16"/>
</g>
<!-- Invis -->
<!-- ITS service provider&#45;&gt;Invis -->
<!-- itsService -->
<g id="node4" class="node">
<title>itsService</title>
<g id="a_node4"><a xlink:href="../terms/ITS service.md" xlink:title="&lt;TABLE&gt;" target="_top">
<polygon fill="lightgray" stroke="none" points="17,-25.88 17,-42.12 79,-42.12 79,-25.88 17,-25.88"/>
<text xml:space="preserve" text-anchor="start" x="18" y="-29.88" font-family="Arial" font-size="12.00">ITS service</text>
<polygon fill="none" stroke="black" points="16,-24.88 16,-43.12 80,-43.12 80,-24.88 16,-24.88"/>
</a>
</g>
</g>
<!-- ITS service provider&#45;&gt;itsService -->
<g id="edge4" class="edge">
<title>ITS service provider&#45;&gt;itsService</title>
<path fill="none" stroke="black" d="M139.73,-101.6C122.66,-89.21 99.26,-72.22 80.37,-58.51"/>
<polygon fill="black" stroke="black" points="82.61,-55.8 72.46,-52.76 78.5,-61.47 82.61,-55.8"/>
<text xml:space="preserve" text-anchor="middle" x="133.76" y="-73.05" font-family="Arial" font-size="11.00"> delivers </text>
</g>
<!-- Invis&#45;&gt;itsService -->
</g>
</svg>
