<?xml version="1.0" encoding="UTF-8" standalone="no"?>
<!DOCTYPE svg PUBLIC "-//W3C//DTD SVG 1.1//EN"
 "http://www.w3.org/Graphics/SVG/1.1/DTD/svg11.dtd">
<!-- Generated by graphviz version 14.1.3 (20260303.0454)
 -->
<!-- Pages: 1 -->
<svg width="236pt" height="162pt"
 viewBox="0.00 0.00 236.00 162.00" xmlns="http://www.w3.org/2000/svg" xmlns:xlink="http://www.w3.org/1999/xlink">
<g id="graph0" class="graph" transform="scale(1 1) rotate(0) translate(4 157.5)">
<polygon fill="white" stroke="none" points="-4,4 -4,-157.5 232,-157.5 232,4 -4,4"/>
<g id="clust2" class="cluster">
<title>cluster_associated</title>
</g>
<!-- ITS deployment -->
<g id="node1" class="node">
<title>ITS deployment</title>
<polygon fill="lightgray" stroke="none" points="1,-111.38 1,-127.62 87,-127.62 87,-111.38 1,-111.38"/>
<text xml:space="preserve" text-anchor="start" x="2" y="-115.38" font-family="Arial" font-size="12.00">ITS deployment</text>
<polygon fill="none" stroke="black" points="0,-110.38 0,-128.62 88,-128.62 88,-110.38 0,-110.38"/>
</g>
<!-- Invis -->
<!-- ITS deployment&#45;&gt;Invis -->
<!-- itsImplementation -->
<g id="node3" class="node">
<title>itsImplementation</title>
<g id="a_node3"><a xlink:href="../terms/ITS implementation.md" xlink:title="&lt;TABLE&gt;" target="_top">
<polygon fill="lightgray" stroke="none" points="105.25,-25.88 105.25,-42.12 210.75,-42.12 210.75,-25.88 105.25,-25.88"/>
<text xml:space="preserve" text-anchor="start" x="106.25" y="-29.88" font-family="Arial" font-size="12.00">ITS implementation</text>
<polygon fill="none" stroke="black" points="104.25,-24.88 104.25,-43.12 211.75,-43.12 211.75,-24.88 104.25,-24.88"/>
</a>
</g>
</g>
<!-- ITS deployment&#45;&gt;itsImplementation -->
<g id="edge3" class="edge">
<title>ITS deployment&#45;&gt;itsImplementation</title>
<path fill="none" stroke="black" d="M54.97,-101.61C62.2,-91.46 72.42,-78.84 83.75,-70 89.79,-65.29 96.57,-61.01 103.51,-57.2"/>
<polygon fill="black" stroke="black" points="105.08,-60.32 112.37,-52.63 101.88,-54.1 105.08,-60.32"/>
<text xml:space="preserve" text-anchor="middle" x="117.88" y="-73.05" font-family="Arial" font-size="11.00"> installation of </text>
</g>
<!-- Invis&#45;&gt;itsImplementation -->
</g>
</svg>
