<?xml version="1.0" encoding="UTF-8" standalone="no"?>
<!DOCTYPE svg PUBLIC "-//W3C//DTD SVG 1.1//EN"
 "http://www.w3.org/Graphics/SVG/1.1/DTD/svg11.dtd">
<!-- Generated by graphviz version 14.1.3 (20260303.0454)
 -->
<!-- Pages: 1 -->
<svg width="266pt" height="235pt"
 viewBox="0.00 0.00 266.00 235.00" xmlns="http://www.w3.org/2000/svg" xmlns:xlink="http://www.w3.org/1999/xlink">
<g id="graph0" class="graph" transform="scale(1 1) rotate(0) translate(4 230.5)">
<polygon fill="white" stroke="none" points="-4,4 -4,-230.5 262.12,-230.5 262.12,4 -4,4"/>
<g id="clust2" class="cluster">
<title>cluster_associated</title>
</g>
<!-- ITS application -->
<g id="node1" class="node">
<title>ITS application</title>
<polygon fill="lightgray" stroke="none" points="1,-184.38 1,-200.62 83.25,-200.62 83.25,-184.38 1,-184.38"/>
<text xml:space="preserve" text-anchor="start" x="2" y="-188.38" font-family="Arial" font-size="12.00">ITS application</text>
<polygon fill="none" stroke="black" points="0,-183.38 0,-201.62 84.25,-201.62 84.25,-183.38 0,-183.38"/>
</g>
<!-- Invis -->
<!-- ITS application&#45;&gt;Invis -->
<!-- its&#45;sApplicationProcess -->
<g id="node3" class="node">
<title>its&#45;sApplicationProcess</title>
<g id="a_node3"><a xlink:href="../terms/ITS-S application process.md" xlink:title="&lt;TABLE&gt;" target="_top">
<polygon fill="lightgray" stroke="none" points="101.5,-98.88 101.5,-115.12 240.75,-115.12 240.75,-98.88 101.5,-98.88"/>
<text xml:space="preserve" text-anchor="start" x="102.5" y="-102.88" font-family="Arial" font-size="12.00">ITS&#45;S application process</text>
<polygon fill="none" stroke="black" points="100.5,-97.88 100.5,-116.12 241.75,-116.12 241.75,-97.88 100.5,-97.88"/>
</a>
</g>
</g>
<!-- ITS application&#45;&gt;its&#45;sApplicationProcess -->
<g id="edge5" class="edge">
<title>ITS application&#45;&gt;its&#45;sApplicationProcess</title>
<path fill="none" stroke="black" d="M67.65,-174.56C81.82,-165.2 99.78,-153.39 115.88,-143 121.89,-139.12 128.28,-135.03 134.51,-131.07"/>
<polygon fill="black" stroke="black" points="136.24,-134.12 142.81,-125.81 132.49,-128.21 136.24,-134.12"/>
<text xml:space="preserve" text-anchor="middle" x="138" y="-146.05" font-family="Arial" font-size="11.00"> involves </text>
</g>
<!-- itsService -->
<g id="node4" class="node">
<title>itsService</title>
<g id="a_node4"><a xlink:href="../terms/ITS service.md" xlink:title="&lt;TABLE&gt;" target="_top">
<polygon fill="lightgray" stroke="none" points="120.12,-25.88 120.12,-42.12 182.12,-42.12 182.12,-25.88 120.12,-25.88"/>
<text xml:space="preserve" text-anchor="start" x="121.12" y="-29.88" font-family="Arial" font-size="12.00">ITS service</text>
<polygon fill="none" stroke="black" points="119.12,-24.88 119.12,-43.12 183.12,-43.12 183.12,-24.88 119.12,-24.88"/>
</a>
</g>
</g>
<!-- ITS application&#45;&gt;itsService -->
<g id="edge4" class="edge">
<title>ITS application&#45;&gt;itsService</title>
<path fill="none" stroke="black" d="M32.49,-174.76C21.47,-153.15 7.05,-115.22 24.38,-89 42.89,-60.99 79.21,-47.46 108.24,-40.96"/>
<polygon fill="black" stroke="black" points="108.76,-44.42 117.87,-39.02 107.38,-37.56 108.76,-44.42"/>
<text xml:space="preserve" text-anchor="middle" x="57.75" y="-103.3" font-family="Arial" font-size="11.00"> realization of </text>
</g>
<!-- Invis&#45;&gt;its&#45;sApplicationProcess -->
<!-- its&#45;sApplicationProcess&#45;&gt;itsService -->
</g>
</svg>
