<?xml version="1.0" encoding="UTF-8" standalone="no"?>
<!DOCTYPE svg PUBLIC "-//W3C//DTD SVG 1.1//EN"
 "http://www.w3.org/Graphics/SVG/1.1/DTD/svg11.dtd">
<!-- Generated by graphviz version 14.1.3 (20260303.0454)
 -->
<!-- Pages: 1 -->
<svg width="316pt" height="235pt"
 viewBox="0.00 0.00 316.00 235.00" xmlns="http://www.w3.org/2000/svg" xmlns:xlink="http://www.w3.org/1999/xlink">
<g id="graph0" class="graph" transform="scale(1 1) rotate(0) translate(4 230.5)">
<polygon fill="white" stroke="none" points="-4,4 -4,-230.5 312,-230.5 312,4 -4,4"/>
<g id="clust2" class="cluster">
<title>cluster_associated</title>
</g>
<!-- ITS application specification -->
<g id="node1" class="node">
<title>ITS application specification</title>
<polygon fill="lightgray" stroke="none" points="1,-184.38 1,-200.62 153,-200.62 153,-184.38 1,-184.38"/>
<text xml:space="preserve" text-anchor="start" x="2" y="-188.38" font-family="Arial" font-size="12.00">ITS application specification</text>
<polygon fill="none" stroke="black" points="0,-183.38 0,-201.62 154,-201.62 154,-183.38 0,-183.38"/>
</g>
<!-- Invis -->
<!-- ITS application specification&#45;&gt;Invis -->
<!-- interoperabilityDesign -->
<g id="node3" class="node">
<title>interoperabilityDesign</title>
<g id="a_node3"><a xlink:href="../terms/interoperability design.md" xlink:title="&lt;TABLE&gt;" target="_top">
<polygon fill="lightgray" stroke="none" points="171.12,-98.88 171.12,-115.12 290.88,-115.12 290.88,-98.88 171.12,-98.88"/>
<text xml:space="preserve" text-anchor="start" x="172.12" y="-102.88" font-family="Arial" font-size="12.00">interoperability design</text>
<polygon fill="none" stroke="black" points="170.12,-97.88 170.12,-116.12 291.88,-116.12 291.88,-97.88 170.12,-97.88"/>
</a>
</g>
</g>
<!-- ITS application specification&#45;&gt;interoperabilityDesign -->
<g id="edge4" class="edge">
<title>ITS application specification&#45;&gt;interoperabilityDesign</title>
<path fill="none" stroke="black" d="M108.16,-174.6C131.75,-161.81 164.36,-144.13 190.05,-130.2"/>
<polygon fill="black" stroke="black" points="191.43,-133.44 198.55,-125.59 188.09,-127.28 191.43,-133.44"/>
<text xml:space="preserve" text-anchor="middle" x="181.6" y="-146.05" font-family="Arial" font-size="11.00"> details </text>
</g>
<!-- itsApplication -->
<g id="node4" class="node">
<title>itsApplication</title>
<g id="a_node4"><a xlink:href="../terms/ITS application.md" xlink:title="&lt;TABLE&gt;" target="_top">
<polygon fill="lightgray" stroke="none" points="179.88,-25.88 179.88,-42.12 262.12,-42.12 262.12,-25.88 179.88,-25.88"/>
<text xml:space="preserve" text-anchor="start" x="180.88" y="-29.88" font-family="Arial" font-size="12.00">ITS application</text>
<polygon fill="none" stroke="black" points="178.88,-24.88 178.88,-43.12 263.12,-43.12 263.12,-24.88 178.88,-24.88"/>
</a>
</g>
</g>
<!-- ITS application specification&#45;&gt;itsApplication -->
<g id="edge5" class="edge">
<title>ITS application specification&#45;&gt;itsApplication</title>
<path fill="none" stroke="black" d="M84.94,-174.81C95.77,-153.26 116.74,-115.39 142.25,-89 153.56,-77.3 167.78,-66.63 181.01,-57.92"/>
<polygon fill="black" stroke="black" points="182.57,-61.07 189.13,-52.76 178.82,-55.17 182.57,-61.07"/>
<text xml:space="preserve" text-anchor="middle" x="151.62" y="-103.3" font-family="Arial" font-size="11.00"> for </text>
</g>
<!-- Invis&#45;&gt;interoperabilityDesign -->
<!-- interoperabilityDesign&#45;&gt;itsApplication -->
</g>
</svg>
