<?xml version="1.0" encoding="UTF-8" standalone="no"?>
<!DOCTYPE svg PUBLIC "-//W3C//DTD SVG 1.1//EN"
 "http://www.w3.org/Graphics/SVG/1.1/DTD/svg11.dtd">
<!-- Generated by graphviz version 14.1.3 (20260303.0454)
 -->
<!-- Pages: 1 -->
<svg width="253pt" height="219pt"
 viewBox="0.00 0.00 253.00 219.00" xmlns="http://www.w3.org/2000/svg" xmlns:xlink="http://www.w3.org/1999/xlink">
<g id="graph0" class="graph" transform="scale(1 1) rotate(0) translate(4 214.5)">
<polygon fill="white" stroke="none" points="-4,4 -4,-214.5 248.62,-214.5 248.62,4 -4,4"/>
<g id="clust2" class="cluster">
<title>cluster_associated</title>
</g>
<!-- ITS&#45;S application -->
<g id="node1" class="node">
<title>ITS&#45;S application</title>
<polygon fill="lightgray" stroke="none" points="126.88,-111.38 126.88,-127.62 221.12,-127.62 221.12,-111.38 126.88,-111.38"/>
<text xml:space="preserve" text-anchor="start" x="127.88" y="-115.38" font-family="Arial" font-size="12.00">ITS&#45;S application</text>
<polygon fill="none" stroke="black" points="125.88,-110.38 125.88,-128.62 222.12,-128.62 222.12,-110.38 125.88,-110.38"/>
</g>
<!-- its&#45;sApplicationProcess -->
<g id="node2" class="node">
<title>its&#45;sApplicationProcess</title>
<g id="a_node2"><a xlink:href="../terms/ITS-S application process.md" xlink:title="&lt;TABLE&gt;" target="_top">
<polygon fill="lightgray" stroke="none" points="104.38,-184.38 104.38,-200.62 243.62,-200.62 243.62,-184.38 104.38,-184.38"/>
<text xml:space="preserve" text-anchor="start" x="105.38" y="-188.38" font-family="Arial" font-size="12.00">ITS&#45;S application process</text>
<polygon fill="none" stroke="black" points="103.38,-183.38 103.38,-201.62 244.62,-201.62 244.62,-183.38 103.38,-183.38"/>
</a>
</g>
</g>
<!-- ITS&#45;S application&#45;&gt;its&#45;sApplicationProcess -->
<g id="edge1" class="edge">
<title>ITS&#45;S application&#45;&gt;its&#45;sApplicationProcess</title>
<path fill="none" stroke="black" d="M174,-137.21C174,-144.97 174,-154.42 174,-163.24"/>
<polygon fill="none" stroke="black" points="170.5,-163.16 174,-173.16 177.5,-163.16 170.5,-163.16"/>
</g>
<!-- Invis -->
<!-- ITS&#45;S application&#45;&gt;Invis -->
<!-- applicationEntity -->
<g id="node4" class="node">
<title>applicationEntity</title>
<g id="a_node4"><a xlink:href="../terms/application entity.md" xlink:title="&lt;TABLE&gt;" target="_top">
<polygon fill="lightgray" stroke="none" points="17,-25.88 17,-42.12 109,-42.12 109,-25.88 17,-25.88"/>
<text xml:space="preserve" text-anchor="start" x="18" y="-29.88" font-family="Arial" font-size="12.00">application entity</text>
<polygon fill="none" stroke="black" points="16,-24.88 16,-43.12 110,-43.12 110,-24.88 16,-24.88"/>
</a>
</g>
</g>
<!-- ITS&#45;S application&#45;&gt;applicationEntity -->
<g id="edge4" class="edge">
<title>ITS&#45;S application&#45;&gt;applicationEntity</title>
<path fill="none" stroke="black" d="M151.54,-101.6C135.14,-89.27 112.69,-72.38 94.5,-58.69"/>
<polygon fill="black" stroke="black" points="96.73,-56 86.64,-52.78 92.53,-61.59 96.73,-56"/>
<text xml:space="preserve" text-anchor="middle" x="151.02" y="-73.05" font-family="Arial" font-size="11.00"> resides in </text>
</g>
<!-- Invis&#45;&gt;applicationEntity -->
</g>
</svg>
