<?xml version="1.0" encoding="UTF-8" standalone="no"?>
<!DOCTYPE svg PUBLIC "-//W3C//DTD SVG 1.1//EN"
 "http://www.w3.org/Graphics/SVG/1.1/DTD/svg11.dtd">
<!-- Generated by graphviz version 14.1.3 (20260303.0454)
 -->
<!-- Pages: 1 -->
<svg width="343pt" height="219pt"
 viewBox="0.00 0.00 343.00 219.00" xmlns="http://www.w3.org/2000/svg" xmlns:xlink="http://www.w3.org/1999/xlink">
<g id="graph0" class="graph" transform="scale(1 1) rotate(0) translate(4 214.5)">
<polygon fill="white" stroke="none" points="-4,4 -4,-214.5 338.76,-214.5 338.76,4 -4,4"/>
<g id="clust2" class="cluster">
<title>cluster_associated</title>
</g>
<!-- ITS&#45;SU user need -->
<g id="node1" class="node">
<title>ITS&#45;SU user need</title>
<polygon fill="lightgray" stroke="none" points="227,-111.38 227,-127.62 325,-127.62 325,-111.38 227,-111.38"/>
<text xml:space="preserve" text-anchor="start" x="228" y="-115.38" font-family="Arial" font-size="12.00">ITS&#45;SU user need</text>
<polygon fill="none" stroke="black" points="226,-110.38 226,-128.62 326,-128.62 326,-110.38 226,-110.38"/>
</g>
<!-- userNeed -->
<g id="node2" class="node">
<title>userNeed</title>
<g id="a_node2"><a xlink:href="../terms/user need.md" xlink:title="&lt;TABLE&gt;" target="_top">
<polygon fill="lightgray" stroke="none" points="248.38,-184.38 248.38,-200.62 303.62,-200.62 303.62,-184.38 248.38,-184.38"/>
<text xml:space="preserve" text-anchor="start" x="249.38" y="-188.38" font-family="Arial" font-size="12.00">user need</text>
<polygon fill="none" stroke="black" points="247.38,-183.38 247.38,-201.62 304.62,-201.62 304.62,-183.38 247.38,-183.38"/>
</a>
</g>
</g>
<!-- ITS&#45;SU user need&#45;&gt;userNeed -->
<g id="edge1" class="edge">
<title>ITS&#45;SU user need&#45;&gt;userNeed</title>
<path fill="none" stroke="black" d="M276,-137.21C276,-144.97 276,-154.42 276,-163.24"/>
<polygon fill="none" stroke="black" points="272.5,-163.16 276,-173.16 279.5,-163.16 272.5,-163.16"/>
</g>
<!-- Invis -->
<!-- ITS&#45;SU user need&#45;&gt;Invis -->
<!-- boundedSecuredManagedDomain -->
<g id="node4" class="node">
<title>boundedSecuredManagedDomain</title>
<g id="a_node4"><a xlink:href="../terms/bounded secured managed domain.md" xlink:title="&lt;TABLE&gt;" target="_top">
<polygon fill="lightgray" stroke="none" points="17.5,-25.88 17.5,-42.12 208.5,-42.12 208.5,-25.88 17.5,-25.88"/>
<text xml:space="preserve" text-anchor="start" x="18.5" y="-29.88" font-family="Arial" font-size="12.00">bounded secured managed domain</text>
<polygon fill="none" stroke="black" points="16.5,-24.88 16.5,-43.12 209.5,-43.12 209.5,-24.88 16.5,-24.88"/>
</a>
</g>
</g>
<!-- ITS&#45;SU user need&#45;&gt;boundedSecuredManagedDomain -->
<g id="edge4" class="edge">
<title>ITS&#45;SU user need&#45;&gt;boundedSecuredManagedDomain</title>
<path fill="none" stroke="black" d="M243.01,-101.6C217.94,-88.76 183.23,-70.98 155.98,-57.02"/>
<polygon fill="black" stroke="black" points="157.78,-54.01 147.28,-52.56 154.59,-60.24 157.78,-54.01"/>
<text xml:space="preserve" text-anchor="middle" x="269.51" y="-73.05" font-family="Arial" font-size="11.00"> requires processing within </text>
</g>
<!-- Invis&#45;&gt;boundedSecuredManagedDomain -->
</g>
</svg>
