<?xml version="1.0" encoding="UTF-8" standalone="no"?>
<!DOCTYPE svg PUBLIC "-//W3C//DTD SVG 1.1//EN"
 "http://www.w3.org/Graphics/SVG/1.1/DTD/svg11.dtd">
<!-- Generated by graphviz version 14.1.3 (20260303.0454)
 -->
<!-- Pages: 1 -->
<svg width="257pt" height="235pt"
 viewBox="0.00 0.00 257.00 235.00" xmlns="http://www.w3.org/2000/svg" xmlns:xlink="http://www.w3.org/1999/xlink">
<g id="graph0" class="graph" transform="scale(1 1) rotate(0) translate(4 230.5)">
<polygon fill="white" stroke="none" points="-4,4 -4,-230.5 252.64,-230.5 252.64,4 -4,4"/>
<g id="clust2" class="cluster">
<title>cluster_associated</title>
</g>
<!-- ITS&#45;S unit -->
<g id="node1" class="node">
<title>ITS&#45;S unit</title>
<polygon fill="lightgray" stroke="none" points="18.02,-184.38 18.02,-200.62 73.27,-200.62 73.27,-184.38 18.02,-184.38"/>
<text xml:space="preserve" text-anchor="start" x="19.02" y="-188.38" font-family="Arial" font-size="12.00">ITS&#45;S unit</text>
<polygon fill="none" stroke="black" points="17.02,-183.38 17.02,-201.62 74.27,-201.62 74.27,-183.38 17.02,-183.38"/>
</g>
<!-- Invis -->
<!-- ITS&#45;S unit&#45;&gt;Invis -->
<!-- its&#45;sCommunicationUnit -->
<g id="node3" class="node">
<title>its&#45;sCommunicationUnit</title>
<g id="a_node3"><a xlink:href="../terms/ITS-S communication unit.md" xlink:title="&lt;TABLE&gt;" target="_top">
<polygon fill="lightgray" stroke="none" points="92.02,-98.88 92.02,-115.12 231.27,-115.12 231.27,-98.88 92.02,-98.88"/>
<text xml:space="preserve" text-anchor="start" x="93.02" y="-102.88" font-family="Arial" font-size="12.00">ITS&#45;S communication unit</text>
<polygon fill="none" stroke="black" points="91.02,-97.88 91.02,-116.12 232.27,-116.12 232.27,-97.88 91.02,-97.88"/>
</a>
</g>
</g>
<!-- ITS&#45;S unit&#45;&gt;its&#45;sCommunicationUnit -->
<g id="edge4" class="edge">
<title>ITS&#45;S unit&#45;&gt;its&#45;sCommunicationUnit</title>
<path fill="none" stroke="black" d="M59,-174.82C67.64,-164.75 79.55,-152.14 91.89,-143 98.04,-138.45 104.87,-134.21 111.77,-130.35"/>
<polygon fill="black" stroke="black" points="113.35,-133.48 120.55,-125.71 110.07,-127.3 113.35,-133.48"/>
<text xml:space="preserve" text-anchor="middle" x="119.27" y="-146.05" font-family="Arial" font-size="11.00"> comprises </text>
</g>
<!-- itsStation -->
<g id="node4" class="node">
<title>itsStation</title>
<g id="a_node4"><a xlink:href="../terms/ITS station.md" xlink:title="&lt;TABLE&gt;" target="_top">
<polygon fill="lightgray" stroke="none" points="112.14,-25.88 112.14,-42.12 171.14,-42.12 171.14,-25.88 112.14,-25.88"/>
<text xml:space="preserve" text-anchor="start" x="113.14" y="-29.88" font-family="Arial" font-size="12.00">ITS station</text>
<polygon fill="none" stroke="black" points="111.14,-24.88 111.14,-43.12 172.14,-43.12 172.14,-24.88 111.14,-24.88"/>
</a>
</g>
</g>
<!-- ITS&#45;S unit&#45;&gt;itsStation -->
<g id="edge5" class="edge">
<title>ITS&#45;S unit&#45;&gt;itsStation</title>
<path fill="none" stroke="black" d="M30.18,-174.76C12.48,-153.5 -11.82,-116.28 6.64,-89 27.38,-58.38 68.6,-45.12 100.06,-39.38"/>
<polygon fill="black" stroke="black" points="100.35,-42.88 109.66,-37.83 99.23,-35.97 100.35,-42.88"/>
<text xml:space="preserve" text-anchor="middle" x="44.14" y="-103.3" font-family="Arial" font-size="11.00"> instantiation of </text>
</g>
<!-- Invis&#45;&gt;its&#45;sCommunicationUnit -->
<!-- its&#45;sCommunicationUnit&#45;&gt;itsStation -->
</g>
</svg>
