<?xml version="1.0" encoding="UTF-8" standalone="no"?>
<!DOCTYPE svg PUBLIC "-//W3C//DTD SVG 1.1//EN"
 "http://www.w3.org/Graphics/SVG/1.1/DTD/svg11.dtd">
<!-- Generated by graphviz version 14.1.3 (20260303.0454)
 -->
<!-- Pages: 1 -->
<svg width="384pt" height="162pt"
 viewBox="0.00 0.00 384.00 162.00" xmlns="http://www.w3.org/2000/svg" xmlns:xlink="http://www.w3.org/1999/xlink">
<g id="graph0" class="graph" transform="scale(1 1) rotate(0) translate(4 157.5)">
<polygon fill="white" stroke="none" points="-4,4 -4,-157.5 380,-157.5 380,4 -4,4"/>
<g id="clust2" class="cluster">
<title>cluster_associated</title>
</g>
<!-- ITS&#45;S application process installation -->
<g id="node1" class="node">
<title>ITS&#45;S application process installation</title>
<polygon fill="lightgray" stroke="none" points="1,-111.38 1,-127.62 201,-127.62 201,-111.38 1,-111.38"/>
<text xml:space="preserve" text-anchor="start" x="2" y="-115.38" font-family="Arial" font-size="12.00">ITS&#45;S application process installation</text>
<polygon fill="none" stroke="black" points="0,-110.38 0,-128.62 202,-128.62 202,-110.38 0,-110.38"/>
</g>
<!-- Invis -->
<!-- ITS&#45;S application process installation&#45;&gt;Invis -->
<!-- its&#45;sApplicationProcess -->
<g id="node3" class="node">
<title>its&#45;sApplicationProcess</title>
<g id="a_node3"><a xlink:href="../terms/ITS-S application process.md" xlink:title="&lt;TABLE&gt;" target="_top">
<polygon fill="lightgray" stroke="none" points="219.38,-25.88 219.38,-42.12 358.62,-42.12 358.62,-25.88 219.38,-25.88"/>
<text xml:space="preserve" text-anchor="start" x="220.38" y="-29.88" font-family="Arial" font-size="12.00">ITS&#45;S application process</text>
<polygon fill="none" stroke="black" points="218.38,-24.88 218.38,-43.12 359.62,-43.12 359.62,-24.88 218.38,-24.88"/>
</a>
</g>
</g>
<!-- ITS&#45;S application process installation&#45;&gt;its&#45;sApplicationProcess -->
<g id="edge3" class="edge">
<title>ITS&#45;S application process installation&#45;&gt;its&#45;sApplicationProcess</title>
<path fill="none" stroke="black" d="M138.98,-101.52C159.86,-92.2 186.23,-80.44 209.75,-70 219.65,-65.61 230.25,-60.92 240.37,-56.44"/>
<polygon fill="black" stroke="black" points="241.58,-59.74 249.31,-52.5 238.75,-53.33 241.58,-59.74"/>
<text xml:space="preserve" text-anchor="middle" x="243.88" y="-73.05" font-family="Arial" font-size="11.00"> installation of </text>
</g>
<!-- Invis&#45;&gt;its&#45;sApplicationProcess -->
</g>
</svg>
