<?xml version="1.0" encoding="UTF-8" standalone="no"?>
<!DOCTYPE svg PUBLIC "-//W3C//DTD SVG 1.1//EN"
 "http://www.w3.org/Graphics/SVG/1.1/DTD/svg11.dtd">
<!-- Generated by graphviz version 14.1.3 (20260303.0454)
 -->
<!-- Pages: 1 -->
<svg width="210pt" height="219pt"
 viewBox="0.00 0.00 210.00 219.00" xmlns="http://www.w3.org/2000/svg" xmlns:xlink="http://www.w3.org/1999/xlink">
<g id="graph0" class="graph" transform="scale(1 1) rotate(0) translate(4 214.5)">
<polygon fill="white" stroke="none" points="-4,4 -4,-214.5 206,-214.5 206,4 -4,4"/>
<g id="clust2" class="cluster">
<title>cluster_associated</title>
</g>
<!-- ITS&#45;SU user -->
<g id="node1" class="node">
<title>ITS&#45;SU user</title>
<polygon fill="lightgray" stroke="none" points="133,-111.38 133,-127.62 201,-127.62 201,-111.38 133,-111.38"/>
<text xml:space="preserve" text-anchor="start" x="134" y="-115.38" font-family="Arial" font-size="12.00">ITS&#45;SU user</text>
<polygon fill="none" stroke="black" points="132,-110.38 132,-128.62 202,-128.62 202,-110.38 132,-110.38"/>
</g>
<!-- user -->
<g id="node2" class="node">
<title>user</title>
<g id="a_node2"><a xlink:href="../terms/user.md" xlink:title="&lt;TABLE&gt;" target="_top">
<polygon fill="lightgray" stroke="none" points="154.38,-184.38 154.38,-200.62 179.62,-200.62 179.62,-184.38 154.38,-184.38"/>
<text xml:space="preserve" text-anchor="start" x="155.38" y="-188.38" font-family="Arial" font-size="12.00">user</text>
<polygon fill="none" stroke="black" points="153.38,-183.38 153.38,-201.62 180.62,-201.62 180.62,-183.38 153.38,-183.38"/>
</a>
</g>
</g>
<!-- ITS&#45;SU user&#45;&gt;user -->
<g id="edge1" class="edge">
<title>ITS&#45;SU user&#45;&gt;user</title>
<path fill="none" stroke="black" d="M167,-137.21C167,-144.97 167,-154.42 167,-163.24"/>
<polygon fill="none" stroke="black" points="163.5,-163.16 167,-173.16 170.5,-163.16 163.5,-163.16"/>
</g>
<!-- Invis -->
<!-- ITS&#45;SU user&#45;&gt;Invis -->
<!-- its&#45;suUserNeed -->
<g id="node4" class="node">
<title>its&#45;suUserNeed</title>
<g id="a_node4"><a xlink:href="../terms/ITS-SU user need.md" xlink:title="&lt;TABLE&gt;" target="_top">
<polygon fill="lightgray" stroke="none" points="17,-25.88 17,-42.12 115,-42.12 115,-25.88 17,-25.88"/>
<text xml:space="preserve" text-anchor="start" x="18" y="-29.88" font-family="Arial" font-size="12.00">ITS&#45;SU user need</text>
<polygon fill="none" stroke="black" points="16,-24.88 16,-43.12 116,-43.12 116,-24.88 16,-24.88"/>
</a>
</g>
</g>
<!-- ITS&#45;SU user&#45;&gt;its&#45;suUserNeed -->
<g id="edge4" class="edge">
<title>ITS&#45;SU user&#45;&gt;its&#45;suUserNeed</title>
<path fill="none" stroke="black" d="M146.56,-101.6C131.78,-89.38 111.59,-72.69 95.12,-59.07"/>
<polygon fill="black" stroke="black" points="97.51,-56.51 87.57,-52.84 93.05,-61.91 97.51,-56.51"/>
<text xml:space="preserve" text-anchor="middle" x="134.17" y="-73.05" font-family="Arial" font-size="11.00"> has </text>
</g>
<!-- Invis&#45;&gt;its&#45;suUserNeed -->
</g>
</svg>
