<?xml version="1.0" encoding="UTF-8" standalone="no"?>
<!DOCTYPE svg PUBLIC "-//W3C//DTD SVG 1.1//EN"
 "http://www.w3.org/Graphics/SVG/1.1/DTD/svg11.dtd">
<!-- Generated by graphviz version 14.1.3 (20260303.0454)
 -->
<!-- Pages: 1 -->
<svg width="185pt" height="235pt"
 viewBox="0.00 0.00 185.00 235.00" xmlns="http://www.w3.org/2000/svg" xmlns:xlink="http://www.w3.org/1999/xlink">
<g id="graph0" class="graph" transform="scale(1 1) rotate(0) translate(4 230.5)">
<polygon fill="white" stroke="none" points="-4,4 -4,-230.5 181.38,-230.5 181.38,4 -4,4"/>
<g id="clust2" class="cluster">
<title>cluster_associated</title>
</g>
<!-- ITS&#45;S node -->
<g id="node1" class="node">
<title>ITS&#45;S node</title>
<polygon fill="lightgray" stroke="none" points="1,-184.38 1,-200.62 63.75,-200.62 63.75,-184.38 1,-184.38"/>
<text xml:space="preserve" text-anchor="start" x="2" y="-188.38" font-family="Arial" font-size="12.00">ITS&#45;S node</text>
<polygon fill="none" stroke="black" points="0,-183.38 0,-201.62 64.75,-201.62 64.75,-183.38 0,-183.38"/>
</g>
<!-- Invis -->
<!-- ITS&#45;S node&#45;&gt;Invis -->
<!-- functionality -->
<g id="node3" class="node">
<title>functionality</title>
<polygon fill="lightgray" stroke="none" points="94.5,-98.88 94.5,-115.12 160.25,-115.12 160.25,-98.88 94.5,-98.88"/>
<text xml:space="preserve" text-anchor="start" x="95.5" y="-102.88" font-family="Arial" font-size="12.00">functionality</text>
<polygon fill="none" stroke="black" points="93.5,-97.88 93.5,-116.12 161.25,-116.12 161.25,-97.88 93.5,-97.88"/>
</g>
<!-- ITS&#45;S node&#45;&gt;functionality -->
<g id="edge4" class="edge">
<title>ITS&#45;S node&#45;&gt;functionality</title>
<path fill="none" stroke="black" d="M42.39,-174.92C49,-164.89 58.31,-152.29 68.62,-143 73.43,-138.67 78.85,-134.6 84.4,-130.88"/>
<polygon fill="black" stroke="black" points="85.93,-134.05 92.51,-125.76 82.19,-128.14 85.93,-134.05"/>
<text xml:space="preserve" text-anchor="middle" x="96" y="-146.05" font-family="Arial" font-size="11.00"> comprises </text>
</g>
<!-- its&#45;sUnit -->
<g id="node4" class="node">
<title>its&#45;sUnit</title>
<g id="a_node4"><a xlink:href="../terms/ITS-S unit.md" xlink:title="&lt;TABLE&gt;" target="_top">
<polygon fill="lightgray" stroke="none" points="96.75,-25.88 96.75,-42.12 152,-42.12 152,-25.88 96.75,-25.88"/>
<text xml:space="preserve" text-anchor="start" x="97.75" y="-29.88" font-family="Arial" font-size="12.00">ITS&#45;S unit</text>
<polygon fill="none" stroke="black" points="95.75,-24.88 95.75,-43.12 153,-43.12 153,-24.88 95.75,-24.88"/>
</a>
</g>
</g>
<!-- ITS&#45;S node&#45;&gt;its&#45;sUnit -->
<g id="edge5" class="edge">
<title>ITS&#45;S node&#45;&gt;its&#45;sUnit</title>
<path fill="none" stroke="black" d="M24.4,-174.52C15.57,-152.99 4.55,-115.49 20.62,-89 34.57,-66.03 61.82,-52.37 84.9,-44.55"/>
<polygon fill="black" stroke="black" points="85.86,-47.91 94.37,-41.6 83.78,-41.23 85.86,-47.91"/>
<text xml:space="preserve" text-anchor="middle" x="52.5" y="-103.3" font-family="Arial" font-size="11.00"> contained in </text>
</g>
<!-- Invis&#45;&gt;functionality -->
<!-- functionality&#45;&gt;its&#45;sUnit -->
</g>
</svg>
