<?xml version="1.0" encoding="UTF-8" standalone="no"?>
<!DOCTYPE svg PUBLIC "-//W3C//DTD SVG 1.1//EN"
 "http://www.w3.org/Graphics/SVG/1.1/DTD/svg11.dtd">
<!-- Generated by graphviz version 14.1.3 (20260303.0454)
 -->
<!-- Pages: 1 -->
<svg width="278pt" height="235pt"
 viewBox="0.00 0.00 278.00 235.00" xmlns="http://www.w3.org/2000/svg" xmlns:xlink="http://www.w3.org/1999/xlink">
<g id="graph0" class="graph" transform="scale(1 1) rotate(0) translate(4 230.5)">
<polygon fill="white" stroke="none" points="-4,4 -4,-230.5 273.62,-230.5 273.62,4 -4,4"/>
<g id="clust2" class="cluster">
<title>cluster_associated</title>
</g>
<!-- ITS&#45;S application process -->
<g id="node1" class="node">
<title>ITS&#45;S application process</title>
<polygon fill="lightgray" stroke="none" points="1,-184.38 1,-200.62 140.25,-200.62 140.25,-184.38 1,-184.38"/>
<text xml:space="preserve" text-anchor="start" x="2" y="-188.38" font-family="Arial" font-size="12.00">ITS&#45;S application process</text>
<polygon fill="none" stroke="black" points="0,-183.38 0,-201.62 141.25,-201.62 141.25,-183.38 0,-183.38"/>
</g>
<!-- Invis -->
<!-- ITS&#45;S application process&#45;&gt;Invis -->
<!-- its&#45;sService -->
<g id="node3" class="node">
<title>its&#45;sService</title>
<g id="a_node3"><a xlink:href="../terms/ITS-S service.md" xlink:title="&lt;TABLE&gt;" target="_top">
<polygon fill="lightgray" stroke="none" points="178.62,-98.88 178.62,-115.12 252.62,-115.12 252.62,-98.88 178.62,-98.88"/>
<text xml:space="preserve" text-anchor="start" x="179.62" y="-102.88" font-family="Arial" font-size="12.00">ITS&#45;S service</text>
<polygon fill="none" stroke="black" points="177.62,-97.88 177.62,-116.12 253.62,-116.12 253.62,-97.88 177.62,-97.88"/>
</a>
</g>
</g>
<!-- ITS&#45;S application process&#45;&gt;its&#45;sService -->
<g id="edge4" class="edge">
<title>ITS&#45;S application process&#45;&gt;its&#45;sService</title>
<path fill="none" stroke="black" d="M64.58,-174.53C62.1,-164.35 61.22,-151.73 68.12,-143 80.29,-127.61 128.31,-118.28 166.29,-113.16"/>
<polygon fill="black" stroke="black" points="166.73,-116.64 176.21,-111.9 165.85,-109.69 166.73,-116.64"/>
<text xml:space="preserve" text-anchor="middle" x="155.88" y="-146.05" font-family="Arial" font-size="11.00"> performs information processing for </text>
</g>
<!-- itsStation -->
<g id="node4" class="node">
<title>itsStation</title>
<g id="a_node4"><a xlink:href="../terms/ITS station.md" xlink:title="&lt;TABLE&gt;" target="_top">
<polygon fill="lightgray" stroke="none" points="182.12,-25.88 182.12,-42.12 241.12,-42.12 241.12,-25.88 182.12,-25.88"/>
<text xml:space="preserve" text-anchor="start" x="183.12" y="-29.88" font-family="Arial" font-size="12.00">ITS station</text>
<polygon fill="none" stroke="black" points="181.12,-24.88 181.12,-43.12 242.12,-43.12 242.12,-24.88 181.12,-24.88"/>
</a>
</g>
</g>
<!-- ITS&#45;S application process&#45;&gt;itsStation -->
<g id="edge5" class="edge">
<title>ITS&#45;S application process&#45;&gt;itsStation</title>
<path fill="none" stroke="black" d="M61.42,-174.94C57.35,-165.37 54.35,-153.25 58.62,-143 78.52,-95.27 132.75,-65.16 170.97,-49.2"/>
<polygon fill="black" stroke="black" points="171.9,-52.6 179.88,-45.63 169.3,-46.1 171.9,-52.6"/>
<text xml:space="preserve" text-anchor="middle" x="129.16" y="-103.3" font-family="Arial" font-size="11.00"> element in </text>
</g>
<!-- Invis&#45;&gt;its&#45;sService -->
<!-- its&#45;sService&#45;&gt;itsStation -->
</g>
</svg>
