<?xml version="1.0" encoding="UTF-8" standalone="no"?>
<!DOCTYPE svg PUBLIC "-//W3C//DTD SVG 1.1//EN"
 "http://www.w3.org/Graphics/SVG/1.1/DTD/svg11.dtd">
<!-- Generated by graphviz version 14.1.3 (20260303.0454)
 -->
<!-- Pages: 1 -->
<svg width="182pt" height="292pt"
 viewBox="0.00 0.00 182.00 292.00" xmlns="http://www.w3.org/2000/svg" xmlns:xlink="http://www.w3.org/1999/xlink">
<g id="graph0" class="graph" transform="scale(1 1) rotate(0) translate(4 287.5)">
<polygon fill="white" stroke="none" points="-4,4 -4,-287.5 178.37,-287.5 178.37,4 -4,4"/>
<g id="clust2" class="cluster">
<title>cluster_associated</title>
</g>
<!-- junction -->
<g id="node1" class="node">
<title>junction</title>
<g id="a_node1"><a xlink:href="../terms/junction.md" xlink:title="&lt;TABLE&gt;">
<polygon fill="lightgray" stroke="none" points="111,-184.38 111,-200.62 155,-200.62 155,-184.38 111,-184.38"/>
<text xml:space="preserve" text-anchor="start" x="112" y="-188.38" font-family="Arial" font-size="12.00">junction</text>
<polygon fill="none" stroke="black" points="110,-183.38 110,-201.62 156,-201.62 156,-183.38 110,-183.38"/>
</a>
</g>
</g>
<!-- intersection -->
<g id="node2" class="node">
<title>intersection</title>
<g id="a_node2"><a xlink:href="../terms/intersection.md" xlink:title="&lt;TABLE&gt;" target="_top">
<polygon fill="lightgray" stroke="none" points="101.25,-257.38 101.25,-273.62 164.75,-273.62 164.75,-257.38 101.25,-257.38"/>
<text xml:space="preserve" text-anchor="start" x="102.25" y="-261.38" font-family="Arial" font-size="12.00">intersection</text>
<polygon fill="none" stroke="black" points="100.25,-256.38 100.25,-274.62 165.75,-274.62 165.75,-256.38 100.25,-256.38"/>
</a>
</g>
</g>
<!-- junction&#45;&gt;intersection -->
<g id="edge1" class="edge">
<title>junction&#45;&gt;intersection</title>
<path fill="none" stroke="black" d="M133,-210.21C133,-217.97 133,-227.42 133,-236.24"/>
<polygon fill="none" stroke="black" points="129.5,-236.16 133,-246.16 136.5,-236.16 129.5,-236.16"/>
</g>
<!-- Invis -->
<!-- junction&#45;&gt;Invis -->
<!-- egressLane -->
<g id="node4" class="node">
<title>egressLane</title>
<g id="a_node4"><a xlink:href="../terms/egress lane.md" xlink:title="&lt;TABLE&gt;" target="_top">
<polygon fill="lightgray" stroke="none" points="18.88,-98.88 18.88,-115.12 83.12,-115.12 83.12,-98.88 18.88,-98.88"/>
<text xml:space="preserve" text-anchor="start" x="19.88" y="-102.88" font-family="Arial" font-size="12.00">egress lane</text>
<polygon fill="none" stroke="black" points="17.88,-97.88 17.88,-116.12 84.12,-116.12 84.12,-97.88 17.88,-97.88"/>
</a>
</g>
</g>
<!-- junction&#45;&gt;egressLane -->
<g id="edge5" class="edge">
<title>junction&#45;&gt;egressLane</title>
<path fill="none" stroke="black" d="M106.16,-178.4C86.75,-168.87 63.78,-157.47 63,-156.5 58.36,-150.7 55.48,-143.36 53.71,-136.15"/>
<polygon fill="black" stroke="black" points="57.15,-135.54 51.95,-126.31 50.26,-136.77 57.15,-135.54"/>
<text xml:space="preserve" text-anchor="middle" x="93" y="-146.05" font-family="Arial" font-size="11.00"> aggregates </text>
</g>
<!-- ingressLane -->
<g id="node5" class="node">
<title>ingressLane</title>
<g id="a_node5"><a xlink:href="../terms/ingress lane.md" xlink:title="&lt;TABLE&gt;" target="_top">
<polygon fill="lightgray" stroke="none" points="17.38,-25.88 17.38,-42.12 84.62,-42.12 84.62,-25.88 17.38,-25.88"/>
<text xml:space="preserve" text-anchor="start" x="18.38" y="-29.88" font-family="Arial" font-size="12.00">ingress lane</text>
<polygon fill="none" stroke="black" points="16.38,-24.88 16.38,-43.12 85.62,-43.12 85.62,-24.88 16.38,-24.88"/>
</a>
</g>
</g>
<!-- junction&#45;&gt;ingressLane -->
<g id="edge6" class="edge">
<title>junction&#45;&gt;ingressLane</title>
<path fill="none" stroke="black" d="M130.8,-174.54C129.25,-165.06 126.77,-153.16 123,-143 111.58,-112.22 89.84,-81.5 73.23,-60.73"/>
<polygon fill="black" stroke="black" points="76.01,-58.61 66.97,-53.1 70.6,-63.05 76.01,-58.61"/>
<text xml:space="preserve" text-anchor="middle" x="144.37" y="-103.3" font-family="Arial" font-size="11.00"> aggregates </text>
</g>
<!-- Invis&#45;&gt;egressLane -->
<!-- egressLane&#45;&gt;ingressLane -->
</g>
</svg>
