<?xml version="1.0" encoding="UTF-8" standalone="no"?>
<!DOCTYPE svg PUBLIC "-//W3C//DTD SVG 1.1//EN"
 "http://www.w3.org/Graphics/SVG/1.1/DTD/svg11.dtd">
<!-- Generated by graphviz version 14.1.3 (20260303.0454)
 -->
<!-- Pages: 1 -->
<svg width="219pt" height="162pt"
 viewBox="0.00 0.00 219.00 162.00" xmlns="http://www.w3.org/2000/svg" xmlns:xlink="http://www.w3.org/1999/xlink">
<g id="graph0" class="graph" transform="scale(1 1) rotate(0) translate(4 157.5)">
<polygon fill="white" stroke="none" points="-4,4 -4,-157.5 214.5,-157.5 214.5,4 -4,4"/>
<g id="clust2" class="cluster">
<title>cluster_associated</title>
</g>
<!-- jurisdictional entity -->
<g id="node1" class="node">
<title>jurisdictional entity</title>
<polygon fill="lightgray" stroke="none" points="1,-111.38 1,-127.62 102,-127.62 102,-111.38 1,-111.38"/>
<text xml:space="preserve" text-anchor="start" x="2" y="-115.38" font-family="Arial" font-size="12.00">jurisdictional entity</text>
<polygon fill="none" stroke="black" points="0,-110.38 0,-128.62 103,-128.62 103,-110.38 0,-110.38"/>
</g>
<!-- Invis -->
<!-- jurisdictional entity&#45;&gt;Invis -->
<!-- jurisdiction -->
<g id="node3" class="node">
<title>jurisdiction</title>
<g id="a_node3"><a xlink:href="../terms/jurisdiction.md" xlink:title="&lt;TABLE&gt;" target="_top">
<polygon fill="lightgray" stroke="none" points="133.62,-25.88 133.62,-42.12 193.38,-42.12 193.38,-25.88 133.62,-25.88"/>
<text xml:space="preserve" text-anchor="start" x="134.62" y="-29.88" font-family="Arial" font-size="12.00">jurisdiction</text>
<polygon fill="none" stroke="black" points="132.62,-24.88 132.62,-43.12 194.38,-43.12 194.38,-24.88 132.62,-24.88"/>
</a>
</g>
</g>
<!-- jurisdictional entity&#45;&gt;jurisdiction -->
<g id="edge3" class="edge">
<title>jurisdictional entity&#45;&gt;jurisdiction</title>
<path fill="none" stroke="black" d="M74.16,-101.6C90.71,-89.27 113.36,-72.38 131.72,-58.69"/>
<polygon fill="black" stroke="black" points="133.73,-61.56 139.66,-52.78 129.55,-55.95 133.73,-61.56"/>
<text xml:space="preserve" text-anchor="middle" x="125.83" y="-73.05" font-family="Arial" font-size="11.00"> has </text>
</g>
<!-- Invis&#45;&gt;jurisdiction -->
</g>
</svg>
