<?xml version="1.0" encoding="UTF-8" standalone="no"?>
<!DOCTYPE svg PUBLIC "-//W3C//DTD SVG 1.1//EN"
 "http://www.w3.org/Graphics/SVG/1.1/DTD/svg11.dtd">
<!-- Generated by graphviz version 14.1.3 (20260303.0454)
 -->
<!-- Pages: 1 -->
<svg width="242pt" height="162pt"
 viewBox="0.00 0.00 242.00 162.00" xmlns="http://www.w3.org/2000/svg" xmlns:xlink="http://www.w3.org/1999/xlink">
<g id="graph0" class="graph" transform="scale(1 1) rotate(0) translate(4 157.5)">
<polygon fill="white" stroke="none" points="-4,4 -4,-157.5 237.5,-157.5 237.5,4 -4,4"/>
<g id="clust2" class="cluster">
<title>cluster_associated</title>
</g>
<!-- location referencing -->
<g id="node1" class="node">
<title>location referencing</title>
<polygon fill="lightgray" stroke="none" points="1,-111.38 1,-127.62 108,-127.62 108,-111.38 1,-111.38"/>
<text xml:space="preserve" text-anchor="start" x="2" y="-115.38" font-family="Arial" font-size="12.00">location referencing</text>
<polygon fill="none" stroke="black" points="0,-110.38 0,-128.62 109,-128.62 109,-110.38 0,-110.38"/>
</g>
<!-- Invis -->
<!-- location referencing&#45;&gt;Invis -->
<!-- spatialReference -->
<g id="node3" class="node">
<title>spatialReference</title>
<g id="a_node3"><a xlink:href="../terms/spatial reference.md" xlink:title="&lt;TABLE&gt;" target="_top">
<polygon fill="lightgray" stroke="none" points="126.25,-25.88 126.25,-42.12 216.75,-42.12 216.75,-25.88 126.25,-25.88"/>
<text xml:space="preserve" text-anchor="start" x="127.25" y="-29.88" font-family="Arial" font-size="12.00">spatial reference</text>
<polygon fill="none" stroke="black" points="125.25,-24.88 125.25,-43.12 217.75,-43.12 217.75,-24.88 125.25,-24.88"/>
</a>
</g>
</g>
<!-- location referencing&#45;&gt;spatialReference -->
<g id="edge3" class="edge">
<title>location referencing&#45;&gt;spatialReference</title>
<path fill="none" stroke="black" d="M56.64,-101.71C58.78,-91.34 63.04,-78.45 71.5,-70 83.23,-58.27 99.11,-50.46 114.76,-45.27"/>
<polygon fill="black" stroke="black" points="115.46,-48.71 124.05,-42.51 113.46,-42 115.46,-48.71"/>
<text xml:space="preserve" text-anchor="middle" x="119.5" y="-73.05" font-family="Arial" font-size="11.00"> process to develop </text>
</g>
<!-- Invis&#45;&gt;spatialReference -->
</g>
</svg>
