<?xml version="1.0" encoding="UTF-8" standalone="no"?>
<!DOCTYPE svg PUBLIC "-//W3C//DTD SVG 1.1//EN"
 "http://www.w3.org/Graphics/SVG/1.1/DTD/svg11.dtd">
<!-- Generated by graphviz version 14.1.3 (20260303.0454)
 -->
<!-- Pages: 1 -->
<svg width="177pt" height="276pt"
 viewBox="0.00 0.00 177.00 276.00" xmlns="http://www.w3.org/2000/svg" xmlns:xlink="http://www.w3.org/1999/xlink">
<g id="graph0" class="graph" transform="scale(1 1) rotate(0) translate(4 272)">
<polygon fill="white" stroke="none" points="-4,4 -4,-272 173.12,-272 173.12,4 -4,4"/>
<g id="clust2" class="cluster">
<title>cluster_associated</title>
</g>
<!-- message -->
<g id="node1" class="node">
<title>message</title>
<g id="a_node1"><a xlink:href="../terms/message.md" xlink:title="&lt;TABLE&gt;">
<polygon fill="lightgray" stroke="none" points="10.75,-169.88 10.75,-186.12 61.5,-186.12 61.5,-169.88 10.75,-169.88"/>
<text xml:space="preserve" text-anchor="start" x="11.75" y="-173.88" font-family="Arial" font-size="12.00">message</text>
<polygon fill="none" stroke="black" points="9.75,-168.88 9.75,-187.12 62.5,-187.12 62.5,-168.88 9.75,-168.88"/>
</a>
</g>
</g>
<!-- dataConcept -->
<g id="node2" class="node">
<title>dataConcept</title>
<g id="a_node2"><a xlink:href="../terms/data concept.md" xlink:title="&lt;TABLE&gt;" target="_top">
<polygon fill="lightgray" stroke="none" points="1,-241.88 1,-258.12 71.25,-258.12 71.25,-241.88 1,-241.88"/>
<text xml:space="preserve" text-anchor="start" x="2" y="-245.88" font-family="Arial" font-size="12.00">data concept</text>
<polygon fill="none" stroke="black" points="0,-240.88 0,-259.12 72.25,-259.12 72.25,-240.88 0,-240.88"/>
</a>
</g>
</g>
<!-- message&#45;&gt;dataConcept -->
<g id="edge1" class="edge">
<title>message&#45;&gt;dataConcept</title>
<path fill="none" stroke="black" d="M36.12,-195.79C36.12,-203.25 36.12,-212.24 36.12,-220.69"/>
<polygon fill="none" stroke="black" points="32.63,-220.54 36.13,-230.54 39.63,-220.54 32.63,-220.54"/>
</g>
<!-- Invis -->
<!-- message&#45;&gt;Invis -->
<!-- dataElement -->
<g id="node4" class="node">
<title>dataElement</title>
<g id="a_node4"><a xlink:href="../terms/data element.md" xlink:title="&lt;TABLE&gt;" target="_top">
<polygon fill="lightgray" stroke="none" points="80.62,-97.88 80.62,-114.12 151.62,-114.12 151.62,-97.88 80.62,-97.88"/>
<text xml:space="preserve" text-anchor="start" x="81.62" y="-101.88" font-family="Arial" font-size="12.00">data element</text>
<polygon fill="none" stroke="black" points="79.62,-96.88 79.62,-115.12 152.62,-115.12 152.62,-96.88 79.62,-96.88"/>
</a>
</g>
</g>
<!-- Invis&#45;&gt;dataElement -->
<!-- dataFrame -->
<g id="node5" class="node">
<title>dataFrame</title>
<g id="a_node5"><a xlink:href="../terms/data frame.md" xlink:title="&lt;TABLE&gt;" target="_top">
<polygon fill="lightgray" stroke="none" points="87,-25.88 87,-42.12 145.25,-42.12 145.25,-25.88 87,-25.88"/>
<text xml:space="preserve" text-anchor="start" x="88" y="-29.88" font-family="Arial" font-size="12.00">data frame</text>
<polygon fill="none" stroke="black" points="86,-24.88 86,-43.12 146.25,-43.12 146.25,-24.88 86,-24.88"/>
</a>
</g>
</g>
<!-- dataElement&#45;&gt;dataFrame -->
</g>
</svg>
