<?xml version="1.0" encoding="UTF-8" standalone="no"?>
<!DOCTYPE svg PUBLIC "-//W3C//DTD SVG 1.1//EN"
 "http://www.w3.org/Graphics/SVG/1.1/DTD/svg11.dtd">
<!-- Generated by graphviz version 14.1.3 (20260303.0454)
 -->
<!-- Pages: 1 -->
<svg width="204pt" height="162pt"
 viewBox="0.00 0.00 204.00 162.00" xmlns="http://www.w3.org/2000/svg" xmlns:xlink="http://www.w3.org/1999/xlink">
<g id="graph0" class="graph" transform="scale(1 1) rotate(0) translate(4 157.5)">
<polygon fill="white" stroke="none" points="-4,4 -4,-157.5 200.25,-157.5 200.25,4 -4,4"/>
<g id="clust2" class="cluster">
<title>cluster_associated</title>
</g>
<!-- model kind -->
<g id="node1" class="node">
<title>model kind</title>
<polygon fill="lightgray" stroke="none" points="1,-111.38 1,-127.62 61.5,-127.62 61.5,-111.38 1,-111.38"/>
<text xml:space="preserve" text-anchor="start" x="2" y="-115.38" font-family="Arial" font-size="12.00">model kind</text>
<polygon fill="none" stroke="black" points="0,-110.38 0,-128.62 62.5,-128.62 62.5,-110.38 0,-110.38"/>
</g>
<!-- Invis -->
<!-- model kind&#45;&gt;Invis -->
<!-- architectureModel -->
<g id="node3" class="node">
<title>architectureModel</title>
<g id="a_node3"><a xlink:href="../terms/architecture model.md" xlink:title="&lt;TABLE&gt;" target="_top">
<polygon fill="lightgray" stroke="none" points="79.12,-25.88 79.12,-42.12 179.38,-42.12 179.38,-25.88 79.12,-25.88"/>
<text xml:space="preserve" text-anchor="start" x="80.12" y="-29.88" font-family="Arial" font-size="12.00">architecture model</text>
<polygon fill="none" stroke="black" points="78.12,-24.88 78.12,-43.12 180.38,-43.12 180.38,-24.88 78.12,-24.88"/>
</a>
</g>
</g>
<!-- model kind&#45;&gt;architectureModel -->
<g id="edge3" class="edge">
<title>model kind&#45;&gt;architectureModel</title>
<path fill="none" stroke="black" d="M46.86,-101.64C56.13,-91.97 68.32,-79.85 80,-70 84.66,-66.07 89.75,-62.12 94.82,-58.36"/>
<polygon fill="black" stroke="black" points="96.56,-61.43 102.62,-52.74 92.46,-55.75 96.56,-61.43"/>
<text xml:space="preserve" text-anchor="middle" x="102.12" y="-73.05" font-family="Arial" font-size="11.00"> governs </text>
</g>
<!-- Invis&#45;&gt;architectureModel -->
</g>
</svg>
