<?xml version="1.0" encoding="UTF-8" standalone="no"?>
<!DOCTYPE svg PUBLIC "-//W3C//DTD SVG 1.1//EN"
 "http://www.w3.org/Graphics/SVG/1.1/DTD/svg11.dtd">
<!-- Generated by graphviz version 14.1.3 (20260303.0454)
 -->
<!-- Pages: 1 -->
<svg width="174pt" height="162pt"
 viewBox="0.00 0.00 174.00 162.00" xmlns="http://www.w3.org/2000/svg" xmlns:xlink="http://www.w3.org/1999/xlink">
<g id="graph0" class="graph" transform="scale(1 1) rotate(0) translate(4 157.5)">
<polygon fill="white" stroke="none" points="-4,4 -4,-157.5 170,-157.5 170,4 -4,4"/>
<g id="clust2" class="cluster">
<title>cluster_associated</title>
</g>
<!-- off&#45;grid -->
<g id="node1" class="node">
<title>off&#45;grid</title>
<g id="a_node1"><a xlink:href="../terms/off-grid.md" xlink:title="&lt;TABLE&gt;">
<polygon fill="lightgray" stroke="none" points="7.62,-111.38 7.62,-127.62 46.38,-127.62 46.38,-111.38 7.62,-111.38"/>
<text xml:space="preserve" text-anchor="start" x="8.62" y="-115.38" font-family="Arial" font-size="12.00">off&#45;grid</text>
<polygon fill="none" stroke="black" points="6.62,-110.38 6.62,-128.62 47.38,-128.62 47.38,-110.38 6.62,-110.38"/>
</a>
</g>
</g>
<!-- Invis -->
<!-- off&#45;grid&#45;&gt;Invis -->
<!-- materialEntity -->
<g id="node3" class="node">
<title>materialEntity</title>
<g id="a_node3"><a xlink:href="../terms/material entity.md" xlink:title="&lt;TABLE&gt;" target="_top">
<polygon fill="lightgray" stroke="none" points="72.88,-25.88 72.88,-42.12 149.12,-42.12 149.12,-25.88 72.88,-25.88"/>
<text xml:space="preserve" text-anchor="start" x="73.88" y="-29.88" font-family="Arial" font-size="12.00">material entity</text>
<polygon fill="none" stroke="black" points="71.88,-24.88 71.88,-43.12 150.12,-43.12 150.12,-24.88 71.88,-24.88"/>
</a>
</g>
</g>
<!-- off&#45;grid&#45;&gt;materialEntity -->
<g id="edge3" class="edge">
<title>off&#45;grid&#45;&gt;materialEntity</title>
<path fill="none" stroke="black" d="M23.5,-101.83C22.35,-91.76 22.68,-79.15 29,-70 36.76,-58.76 48.92,-51.1 61.53,-45.9"/>
<polygon fill="black" stroke="black" points="62.48,-49.28 70.7,-42.6 60.11,-42.69 62.48,-49.28"/>
<text xml:space="preserve" text-anchor="middle" x="69.5" y="-73.05" font-family="Arial" font-size="11.00"> characteristic of </text>
</g>
<!-- Invis&#45;&gt;materialEntity -->
</g>
</svg>
