<?xml version="1.0" encoding="UTF-8" standalone="no"?>
<!DOCTYPE svg PUBLIC "-//W3C//DTD SVG 1.1//EN"
 "http://www.w3.org/Graphics/SVG/1.1/DTD/svg11.dtd">
<!-- Generated by graphviz version 14.1.3 (20260303.0454)
 -->
<!-- Pages: 1 -->
<svg width="200pt" height="162pt"
 viewBox="0.00 0.00 200.00 162.00" xmlns="http://www.w3.org/2000/svg" xmlns:xlink="http://www.w3.org/1999/xlink">
<g id="graph0" class="graph" transform="scale(1 1) rotate(0) translate(4 157.5)">
<polygon fill="white" stroke="none" points="-4,4 -4,-157.5 196.12,-157.5 196.12,4 -4,4"/>
<g id="clust2" class="cluster">
<title>cluster_associated</title>
</g>
<!-- open&#45;access -->
<g id="node1" class="node">
<title>open&#45;access</title>
<g id="a_node1"><a xlink:href="../terms/open-access.md" xlink:title="&lt;TABLE&gt;">
<polygon fill="lightgray" stroke="none" points="1,-111.38 1,-127.62 71.25,-127.62 71.25,-111.38 1,-111.38"/>
<text xml:space="preserve" text-anchor="start" x="2" y="-115.38" font-family="Arial" font-size="12.00">open&#45;access</text>
<polygon fill="none" stroke="black" points="0,-110.38 0,-128.62 72.25,-128.62 72.25,-110.38 0,-110.38"/>
</a>
</g>
</g>
<!-- Invis -->
<!-- open&#45;access&#45;&gt;Invis -->
<!-- financialModel -->
<g id="node3" class="node">
<title>financialModel</title>
<g id="a_node3"><a xlink:href="../terms/financial model.md" xlink:title="&lt;TABLE&gt;" target="_top">
<polygon fill="lightgray" stroke="none" points="91.62,-25.88 91.62,-42.12 174.62,-42.12 174.62,-25.88 91.62,-25.88"/>
<text xml:space="preserve" text-anchor="start" x="92.62" y="-29.88" font-family="Arial" font-size="12.00">financial model</text>
<polygon fill="none" stroke="black" points="90.62,-24.88 90.62,-43.12 175.62,-43.12 175.62,-24.88 90.62,-24.88"/>
</a>
</g>
</g>
<!-- open&#45;access&#45;&gt;financialModel -->
<g id="edge3" class="edge">
<title>open&#45;access&#45;&gt;financialModel</title>
<path fill="none" stroke="black" d="M48.76,-101.71C56.66,-91.84 67.38,-79.48 78.38,-70 83.13,-65.9 88.4,-61.93 93.74,-58.23"/>
<polygon fill="black" stroke="black" points="95.67,-61.15 102.07,-52.72 91.8,-55.32 95.67,-61.15"/>
<text xml:space="preserve" text-anchor="middle" x="104.25" y="-73.05" font-family="Arial" font-size="11.00"> describes </text>
</g>
<!-- Invis&#45;&gt;financialModel -->
</g>
</svg>
