<?xml version="1.0" encoding="UTF-8" standalone="no"?>
<!DOCTYPE svg PUBLIC "-//W3C//DTD SVG 1.1//EN"
 "http://www.w3.org/Graphics/SVG/1.1/DTD/svg11.dtd">
<!-- Generated by graphviz version 14.1.3 (20260303.0454)
 -->
<!-- Pages: 1 -->
<svg width="328pt" height="162pt"
 viewBox="0.00 0.00 328.00 162.00" xmlns="http://www.w3.org/2000/svg" xmlns:xlink="http://www.w3.org/1999/xlink">
<g id="graph0" class="graph" transform="scale(1 1) rotate(0) translate(4 157.5)">
<polygon fill="white" stroke="none" points="-4,4 -4,-157.5 323.88,-157.5 323.88,4 -4,4"/>
<g id="clust2" class="cluster">
<title>cluster_associated</title>
</g>
<!-- operational design domain -->
<g id="node1" class="node">
<title>operational design domain</title>
<polygon fill="lightgray" stroke="none" points="1,-111.38 1,-127.62 144.75,-127.62 144.75,-111.38 1,-111.38"/>
<text xml:space="preserve" text-anchor="start" x="2" y="-115.38" font-family="Arial" font-size="12.00">operational design domain</text>
<polygon fill="none" stroke="black" points="0,-110.38 0,-128.62 145.75,-128.62 145.75,-110.38 0,-110.38"/>
</g>
<!-- Invis -->
<!-- operational design domain&#45;&gt;Invis -->
<!-- drivingAutomationSystem -->
<g id="node3" class="node">
<title>drivingAutomationSystem</title>
<g id="a_node3"><a xlink:href="../terms/driving automation system.md" xlink:title="&lt;TABLE&gt;" target="_top">
<polygon fill="lightgray" stroke="none" points="162.5,-25.88 162.5,-42.12 303.25,-42.12 303.25,-25.88 162.5,-25.88"/>
<text xml:space="preserve" text-anchor="start" x="163.5" y="-29.88" font-family="Arial" font-size="12.00">driving automation system</text>
<polygon fill="none" stroke="black" points="161.5,-24.88 161.5,-43.12 304.25,-43.12 304.25,-24.88 161.5,-24.88"/>
</a>
</g>
</g>
<!-- operational design domain&#45;&gt;drivingAutomationSystem -->
<g id="edge3" class="edge">
<title>operational design domain&#45;&gt;drivingAutomationSystem</title>
<path fill="none" stroke="black" d="M105.06,-101.65C122.9,-92.32 145.49,-80.51 165.62,-70 173.58,-65.85 182.08,-61.42 190.25,-57.17"/>
<polygon fill="black" stroke="black" points="191.78,-60.32 199.03,-52.6 188.54,-54.11 191.78,-60.32"/>
<text xml:space="preserve" text-anchor="middle" x="193.75" y="-73.05" font-family="Arial" font-size="11.00"> for a given </text>
</g>
<!-- Invis&#45;&gt;drivingAutomationSystem -->
</g>
</svg>
