<?xml version="1.0" encoding="UTF-8" standalone="no"?>
<!DOCTYPE svg PUBLIC "-//W3C//DTD SVG 1.1//EN"
 "http://www.w3.org/Graphics/SVG/1.1/DTD/svg11.dtd">
<!-- Generated by graphviz version 14.1.3 (20260303.0454)
 -->
<!-- Pages: 1 -->
<svg width="193pt" height="162pt"
 viewBox="0.00 0.00 193.00 162.00" xmlns="http://www.w3.org/2000/svg" xmlns:xlink="http://www.w3.org/1999/xlink">
<g id="graph0" class="graph" transform="scale(1 1) rotate(0) translate(4 157.5)">
<polygon fill="white" stroke="none" points="-4,4 -4,-157.5 188.5,-157.5 188.5,4 -4,4"/>
<g id="clust2" class="cluster">
<title>cluster_associated</title>
</g>
<!-- parking space -->
<g id="node1" class="node">
<title>parking space</title>
<polygon fill="lightgray" stroke="none" points="1,-111.38 1,-127.62 78,-127.62 78,-111.38 1,-111.38"/>
<text xml:space="preserve" text-anchor="start" x="2" y="-115.38" font-family="Arial" font-size="12.00">parking space</text>
<polygon fill="none" stroke="black" points="0,-110.38 0,-128.62 79,-128.62 79,-110.38 0,-110.38"/>
</g>
<!-- Invis -->
<!-- parking space&#45;&gt;Invis -->
<!-- vehicle -->
<g id="node3" class="node">
<title>vehicle</title>
<g id="a_node3"><a xlink:href="../terms/vehicle.md" xlink:title="&lt;TABLE&gt;" target="_top">
<polygon fill="lightgray" stroke="none" points="121.38,-25.88 121.38,-42.12 161.62,-42.12 161.62,-25.88 121.38,-25.88"/>
<text xml:space="preserve" text-anchor="start" x="122.38" y="-29.88" font-family="Arial" font-size="12.00">vehicle</text>
<polygon fill="none" stroke="black" points="120.38,-24.88 120.38,-43.12 162.62,-43.12 162.62,-24.88 120.38,-24.88"/>
</a>
</g>
</g>
<!-- parking space&#45;&gt;vehicle -->
<g id="edge3" class="edge">
<title>parking space&#45;&gt;vehicle</title>
<path fill="none" stroke="black" d="M60.14,-101.6C75.07,-89.38 95.46,-72.69 112.09,-59.07"/>
<polygon fill="black" stroke="black" points="114.2,-61.87 119.72,-52.83 109.76,-56.46 114.2,-61.87"/>
<text xml:space="preserve" text-anchor="middle" x="111.61" y="-73.05" font-family="Arial" font-size="11.00"> store </text>
</g>
<!-- Invis&#45;&gt;vehicle -->
</g>
</svg>
