<?xml version="1.0" encoding="UTF-8" standalone="no"?>
<!DOCTYPE svg PUBLIC "-//W3C//DTD SVG 1.1//EN"
 "http://www.w3.org/Graphics/SVG/1.1/DTD/svg11.dtd">
<!-- Generated by graphviz version 14.1.3 (20260303.0454)
 -->
<!-- Pages: 1 -->
<svg width="244pt" height="162pt"
 viewBox="0.00 0.00 244.00 162.00" xmlns="http://www.w3.org/2000/svg" xmlns:xlink="http://www.w3.org/1999/xlink">
<g id="graph0" class="graph" transform="scale(1 1) rotate(0) translate(4 157.5)">
<polygon fill="white" stroke="none" points="-4,4 -4,-157.5 239.69,-157.5 239.69,4 -4,4"/>
<g id="clust2" class="cluster">
<title>cluster_associated</title>
</g>
<!-- payment mode -->
<g id="node1" class="node">
<title>payment mode</title>
<polygon fill="lightgray" stroke="none" points="21.32,-111.38 21.32,-127.62 102.07,-127.62 102.07,-111.38 21.32,-111.38"/>
<text xml:space="preserve" text-anchor="start" x="22.32" y="-115.38" font-family="Arial" font-size="12.00">payment mode</text>
<polygon fill="none" stroke="black" points="20.32,-110.38 20.32,-128.62 103.07,-128.62 103.07,-110.38 20.32,-110.38"/>
</g>
<!-- Invis -->
<!-- payment mode&#45;&gt;Invis -->
<!-- serviceProvider -->
<g id="node3" class="node">
<title>serviceProvider</title>
<g id="a_node3"><a xlink:href="../terms/service provider.md" xlink:title="&lt;TABLE&gt;" target="_top">
<polygon fill="lightgray" stroke="none" points="132.32,-25.88 132.32,-42.12 219.07,-42.12 219.07,-25.88 132.32,-25.88"/>
<text xml:space="preserve" text-anchor="start" x="133.32" y="-29.88" font-family="Arial" font-size="12.00">service provider</text>
<polygon fill="none" stroke="black" points="131.32,-24.88 131.32,-43.12 220.07,-43.12 220.07,-24.88 131.32,-24.88"/>
</a>
</g>
</g>
<!-- payment mode&#45;&gt;serviceProvider -->
<g id="edge3" class="edge">
<title>payment mode&#45;&gt;serviceProvider</title>
<path fill="none" stroke="black" d="M20.37,-101.65C5.25,-93.05 -6.03,-81.89 3.69,-70 18.28,-52.14 75.72,-43.17 120.26,-38.81"/>
<polygon fill="black" stroke="black" points="120.41,-42.31 130.05,-37.92 119.77,-35.34 120.41,-42.31"/>
<text xml:space="preserve" text-anchor="middle" x="96.69" y="-73.05" font-family="Arial" font-size="11.00"> timing and location of remuneration to </text>
</g>
<!-- Invis&#45;&gt;serviceProvider -->
</g>
</svg>
