<?xml version="1.0" encoding="UTF-8" standalone="no"?>
<!DOCTYPE svg PUBLIC "-//W3C//DTD SVG 1.1//EN"
 "http://www.w3.org/Graphics/SVG/1.1/DTD/svg11.dtd">
<!-- Generated by graphviz version 14.1.3 (20260303.0454)
 -->
<!-- Pages: 1 -->
<svg width="231pt" height="219pt"
 viewBox="0.00 0.00 231.00 219.00" xmlns="http://www.w3.org/2000/svg" xmlns:xlink="http://www.w3.org/1999/xlink">
<g id="graph0" class="graph" transform="scale(1 1) rotate(0) translate(4 214.5)">
<polygon fill="white" stroke="none" points="-4,4 -4,-214.5 227.12,-214.5 227.12,4 -4,4"/>
<g id="clust2" class="cluster">
<title>cluster_associated</title>
</g>
<!-- physical viewpoint -->
<g id="node1" class="node">
<title>physical viewpoint</title>
<polygon fill="lightgray" stroke="none" points="112.88,-111.38 112.88,-127.62 213.12,-127.62 213.12,-111.38 112.88,-111.38"/>
<text xml:space="preserve" text-anchor="start" x="113.88" y="-115.38" font-family="Arial" font-size="12.00">physical viewpoint</text>
<polygon fill="none" stroke="black" points="111.88,-110.38 111.88,-128.62 214.12,-128.62 214.12,-110.38 111.88,-110.38"/>
</g>
<!-- architectureViewpoint -->
<g id="node2" class="node">
<title>architectureViewpoint</title>
<g id="a_node2"><a xlink:href="../terms/architecture viewpoint.md" xlink:title="&lt;TABLE&gt;" target="_top">
<polygon fill="lightgray" stroke="none" points="103.88,-184.38 103.88,-200.62 222.12,-200.62 222.12,-184.38 103.88,-184.38"/>
<text xml:space="preserve" text-anchor="start" x="104.88" y="-188.38" font-family="Arial" font-size="12.00">architecture viewpoint</text>
<polygon fill="none" stroke="black" points="102.88,-183.38 102.88,-201.62 223.12,-201.62 223.12,-183.38 102.88,-183.38"/>
</a>
</g>
</g>
<!-- physical viewpoint&#45;&gt;architectureViewpoint -->
<g id="edge1" class="edge">
<title>physical viewpoint&#45;&gt;architectureViewpoint</title>
<path fill="none" stroke="black" d="M163,-137.21C163,-144.97 163,-154.42 163,-163.24"/>
<polygon fill="none" stroke="black" points="159.5,-163.16 163,-173.16 166.5,-163.16 159.5,-163.16"/>
</g>
<!-- Invis -->
<!-- physical viewpoint&#45;&gt;Invis -->
<!-- physicalView -->
<g id="node4" class="node">
<title>physicalView</title>
<g id="a_node4"><a xlink:href="../terms/physical view.md" xlink:title="&lt;TABLE&gt;" target="_top">
<polygon fill="lightgray" stroke="none" points="17,-25.88 17,-42.12 91,-42.12 91,-25.88 17,-25.88"/>
<text xml:space="preserve" text-anchor="start" x="18" y="-29.88" font-family="Arial" font-size="12.00">physical view</text>
<polygon fill="none" stroke="black" points="16,-24.88 16,-43.12 92,-43.12 92,-24.88 16,-24.88"/>
</a>
</g>
</g>
<!-- physical viewpoint&#45;&gt;physicalView -->
<g id="edge4" class="edge">
<title>physical viewpoint&#45;&gt;physicalView</title>
<path fill="none" stroke="black" d="M140.94,-101.6C124.84,-89.27 102.79,-72.38 84.93,-58.69"/>
<polygon fill="black" stroke="black" points="87.29,-56.1 77.23,-52.79 83.04,-61.65 87.29,-56.1"/>
<text xml:space="preserve" text-anchor="middle" x="137.15" y="-73.05" font-family="Arial" font-size="11.00"> governs </text>
</g>
<!-- Invis&#45;&gt;physicalView -->
</g>
</svg>
