<?xml version="1.0" encoding="UTF-8" standalone="no"?>
<!DOCTYPE svg PUBLIC "-//W3C//DTD SVG 1.1//EN"
 "http://www.w3.org/Graphics/SVG/1.1/DTD/svg11.dtd">
<!-- Generated by graphviz version 14.1.3 (20260303.0454)
 -->
<!-- Pages: 1 -->
<svg width="168pt" height="162pt"
 viewBox="0.00 0.00 168.00 162.00" xmlns="http://www.w3.org/2000/svg" xmlns:xlink="http://www.w3.org/1999/xlink">
<g id="graph0" class="graph" transform="scale(1 1) rotate(0) translate(4 157.5)">
<polygon fill="white" stroke="none" points="-4,4 -4,-157.5 164,-157.5 164,4 -4,4"/>
<g id="clust2" class="cluster">
<title>cluster_associated</title>
</g>
<!-- process -->
<g id="node1" class="node">
<title>process</title>
<g id="a_node1"><a xlink:href="../terms/process.md" xlink:title="&lt;TABLE&gt;">
<polygon fill="lightgray" stroke="none" points="5,-111.38 5,-127.62 49,-127.62 49,-111.38 5,-111.38"/>
<text xml:space="preserve" text-anchor="start" x="6" y="-115.38" font-family="Arial" font-size="12.00">process</text>
<polygon fill="none" stroke="black" points="4,-110.38 4,-128.62 50,-128.62 50,-110.38 4,-110.38"/>
</a>
</g>
</g>
<!-- Invis -->
<!-- process&#45;&gt;Invis -->
<!-- function -->
<g id="node3" class="node">
<title>function</title>
<g id="a_node3"><a xlink:href="../terms/function.md" xlink:title="&lt;TABLE&gt;" target="_top">
<polygon fill="lightgray" stroke="none" points="95,-25.88 95,-42.12 139,-42.12 139,-25.88 95,-25.88"/>
<text xml:space="preserve" text-anchor="start" x="96" y="-29.88" font-family="Arial" font-size="12.00">function</text>
<polygon fill="none" stroke="black" points="94,-24.88 94,-43.12 140,-43.12 140,-24.88 94,-24.88"/>
</a>
</g>
</g>
<!-- process&#45;&gt;function -->
<g id="edge3" class="edge">
<title>process&#45;&gt;function</title>
<path fill="none" stroke="black" d="M33.14,-101.69C37.48,-91.57 44.12,-78.95 53,-70 60.66,-62.27 70.39,-55.79 79.93,-50.59"/>
<polygon fill="black" stroke="black" points="81.41,-53.76 88.76,-46.13 78.26,-47.51 81.41,-53.76"/>
<text xml:space="preserve" text-anchor="middle" x="83" y="-73.05" font-family="Arial" font-size="11.00"> aggregates </text>
</g>
<!-- Invis&#45;&gt;function -->
</g>
</svg>
