<?xml version="1.0" encoding="UTF-8" standalone="no"?>
<!DOCTYPE svg PUBLIC "-//W3C//DTD SVG 1.1//EN"
 "http://www.w3.org/Graphics/SVG/1.1/DTD/svg11.dtd">
<!-- Generated by graphviz version 14.1.3 (20260303.0454)
 -->
<!-- Pages: 1 -->
<svg width="248pt" height="139pt"
 viewBox="0.00 0.00 248.00 139.00" xmlns="http://www.w3.org/2000/svg" xmlns:xlink="http://www.w3.org/1999/xlink">
<g id="graph0" class="graph" transform="scale(1 1) rotate(0) translate(4 135.38)">
<polygon fill="white" stroke="none" points="-4,4 -4,-135.38 243.5,-135.38 243.5,4 -4,4"/>
<g id="clust2" class="cluster">
<title>cluster_associated</title>
</g>
<!-- public transport -->
<g id="node1" class="node">
<title>public transport</title>
<polygon fill="lightgray" stroke="none" points="1,-42.12 1,-58.38 150,-58.38 150,-42.12 1,-42.12"/>
<text xml:space="preserve" text-anchor="start" x="34.62" y="-46.12" font-family="Arial" font-size="12.00">public transport</text>
<text xml:space="preserve" text-anchor="start" x="2" y="-29.88" font-family="Arial" font-size="12.00">accessibility = public</text>
<text xml:space="preserve" text-anchor="start" x="2" y="-13.62" font-family="Arial" font-size="12.00">transport item = passengers</text>
<polygon fill="none" stroke="black" points="0,-8.62 0,-59.38 151,-59.38 151,-8.62 0,-8.62"/>
</g>
<!-- transportService -->
<g id="node2" class="node">
<title>transportService</title>
<g id="a_node2"><a xlink:href="../terms/transport service.md" xlink:title="&lt;TABLE&gt;" target="_top">
<polygon fill="lightgray" stroke="none" points="30.62,-105.25 30.62,-121.5 120.38,-121.5 120.38,-105.25 30.62,-105.25"/>
<text xml:space="preserve" text-anchor="start" x="31.62" y="-109.25" font-family="Arial" font-size="12.00">transport service</text>
<polygon fill="none" stroke="black" points="29.62,-104.25 29.62,-122.5 121.38,-122.5 121.38,-104.25 29.62,-104.25"/>
</a>
</g>
</g>
<!-- public transport&#45;&gt;transportService -->
<g id="edge1" class="edge">
<title>public transport&#45;&gt;transportService</title>
<path fill="none" stroke="black" d="M75.5,-59.1C75.5,-67.05 75.5,-75.97 75.5,-84.21"/>
<polygon fill="none" stroke="black" points="72,-84.07 75.5,-94.07 79,-84.07 72,-84.07"/>
</g>
<!-- Invis -->
</g>
</svg>
