<?xml version="1.0" encoding="UTF-8" standalone="no"?>
<!DOCTYPE svg PUBLIC "-//W3C//DTD SVG 1.1//EN"
 "http://www.w3.org/Graphics/SVG/1.1/DTD/svg11.dtd">
<!-- Generated by graphviz version 14.1.3 (20260303.0454)
 -->
<!-- Pages: 1 -->
<svg width="272pt" height="148pt"
 viewBox="0.00 0.00 272.00 148.00" xmlns="http://www.w3.org/2000/svg" xmlns:xlink="http://www.w3.org/1999/xlink">
<g id="graph0" class="graph" transform="scale(1 1) rotate(0) translate(4 143.5)">
<polygon fill="white" stroke="none" points="-4,4 -4,-143.5 268.25,-143.5 268.25,4 -4,4"/>
<g id="clust2" class="cluster">
<title>cluster_associated</title>
</g>
<!-- ridesourced service -->
<g id="node1" class="node">
<title>ridesourced service</title>
<polygon fill="lightgray" stroke="none" points="1,-50.25 1,-66.5 175.5,-66.5 175.5,-50.25 1,-50.25"/>
<text xml:space="preserve" text-anchor="start" x="36.12" y="-54.25" font-family="Arial" font-size="12.00">ridesourced service</text>
<text xml:space="preserve" text-anchor="start" x="2" y="-38" font-family="Arial" font-size="12.00">contractual model = peer&#45;to&#45;peer</text>
<text xml:space="preserve" text-anchor="start" x="2" y="-21.75" font-family="Arial" font-size="12.00">financial model = commercial</text>
<text xml:space="preserve" text-anchor="start" x="2" y="-5.5" font-family="Arial" font-size="12.00">transport item = passengers</text>
<polygon fill="none" stroke="black" points="0,-0.5 0,-67.5 176.5,-67.5 176.5,-0.5 0,-0.5"/>
</g>
<!-- sharedTransportService -->
<g id="node2" class="node">
<title>sharedTransportService</title>
<g id="a_node2"><a xlink:href="../terms/shared transport service.md" xlink:title="&lt;TABLE&gt;" target="_top">
<polygon fill="lightgray" stroke="none" points="23.5,-113.38 23.5,-129.62 153,-129.62 153,-113.38 23.5,-113.38"/>
<text xml:space="preserve" text-anchor="start" x="24.5" y="-117.38" font-family="Arial" font-size="12.00">shared transport service</text>
<polygon fill="none" stroke="black" points="22.5,-112.38 22.5,-130.62 154,-130.62 154,-112.38 22.5,-112.38"/>
</a>
</g>
</g>
<!-- ridesourced service&#45;&gt;sharedTransportService -->
<g id="edge1" class="edge">
<title>ridesourced service&#45;&gt;sharedTransportService</title>
<path fill="none" stroke="black" d="M88.25,-67.43C88.25,-75.62 88.25,-84.33 88.25,-92.29"/>
<polygon fill="none" stroke="black" points="84.75,-92.09 88.25,-102.09 91.75,-92.09 84.75,-92.09"/>
</g>
<!-- Invis -->
</g>
</svg>
