<?xml version="1.0" encoding="UTF-8" standalone="no"?>
<!DOCTYPE svg PUBLIC "-//W3C//DTD SVG 1.1//EN"
 "http://www.w3.org/Graphics/SVG/1.1/DTD/svg11.dtd">
<!-- Generated by graphviz version 14.1.3 (20260303.0454)
 -->
<!-- Pages: 1 -->
<svg width="266pt" height="132pt"
 viewBox="0.00 0.00 266.00 132.00" xmlns="http://www.w3.org/2000/svg" xmlns:xlink="http://www.w3.org/1999/xlink">
<g id="graph0" class="graph" transform="scale(1 1) rotate(0) translate(4 128)">
<polygon fill="white" stroke="none" points="-4,4 -4,-128 261.5,-128 261.5,4 -4,4"/>
<g id="clust2" class="cluster">
<title>cluster_associated</title>
</g>
<!-- ridesplit service -->
<g id="node1" class="node">
<title>ridesplit service</title>
<polygon fill="lightgray" stroke="none" points="1,-34 1,-50.25 168,-50.25 168,-34 1,-34"/>
<text xml:space="preserve" text-anchor="start" x="42.88" y="-38" font-family="Arial" font-size="12.00">ridesplit service</text>
<text xml:space="preserve" text-anchor="start" x="2" y="-21.75" font-family="Arial" font-size="12.00">operational model = concurrent</text>
<polygon fill="none" stroke="black" points="0,-16.75 0,-51.25 169,-51.25 169,-16.75 0,-16.75"/>
</g>
<!-- ridesourcedService -->
<g id="node2" class="node">
<title>ridesourcedService</title>
<g id="a_node2"><a xlink:href="../terms/ridesourced service.md" xlink:title="&lt;TABLE&gt;" target="_top">
<polygon fill="lightgray" stroke="none" points="31.38,-97.88 31.38,-114.12 137.62,-114.12 137.62,-97.88 31.38,-97.88"/>
<text xml:space="preserve" text-anchor="start" x="32.38" y="-101.88" font-family="Arial" font-size="12.00">ridesourced service</text>
<polygon fill="none" stroke="black" points="30.38,-96.88 30.38,-115.12 138.62,-115.12 138.62,-96.88 30.38,-96.88"/>
</a>
</g>
</g>
<!-- ridesplit service&#45;&gt;ridesourcedService -->
<g id="edge1" class="edge">
<title>ridesplit service&#45;&gt;ridesourcedService</title>
<path fill="none" stroke="black" d="M84.5,-51.79C84.5,-59.25 84.5,-68.24 84.5,-76.69"/>
<polygon fill="none" stroke="black" points="81,-76.54 84.5,-86.54 88,-76.54 81,-76.54"/>
</g>
<!-- Invis -->
</g>
</svg>
