<?xml version="1.0" encoding="UTF-8" standalone="no"?>
<!DOCTYPE svg PUBLIC "-//W3C//DTD SVG 1.1//EN"
 "http://www.w3.org/Graphics/SVG/1.1/DTD/svg11.dtd">
<!-- Generated by graphviz version 14.1.3 (20260303.0454)
 -->
<!-- Pages: 1 -->
<svg width="187pt" height="162pt"
 viewBox="0.00 0.00 187.00 162.00" xmlns="http://www.w3.org/2000/svg" xmlns:xlink="http://www.w3.org/1999/xlink">
<g id="graph0" class="graph" transform="scale(1 1) rotate(0) translate(4 157.5)">
<polygon fill="white" stroke="none" points="-4,4 -4,-157.5 182.5,-157.5 182.5,4 -4,4"/>
<g id="clust2" class="cluster">
<title>cluster_associated</title>
</g>
<!-- road network -->
<g id="node1" class="node">
<title>road network</title>
<polygon fill="lightgray" stroke="none" points="1,-111.38 1,-127.62 72,-127.62 72,-111.38 1,-111.38"/>
<text xml:space="preserve" text-anchor="start" x="2" y="-115.38" font-family="Arial" font-size="12.00">road network</text>
<polygon fill="none" stroke="black" points="0,-110.38 0,-128.62 73,-128.62 73,-110.38 0,-110.38"/>
</g>
<!-- Invis -->
<!-- road network&#45;&gt;Invis -->
<!-- road -->
<g id="node3" class="node">
<title>road</title>
<g id="a_node3"><a xlink:href="../terms/road.md" xlink:title="&lt;TABLE&gt;" target="_top">
<polygon fill="lightgray" stroke="none" points="122.5,-25.88 122.5,-42.12 148.5,-42.12 148.5,-25.88 122.5,-25.88"/>
<text xml:space="preserve" text-anchor="start" x="123.5" y="-29.88" font-family="Arial" font-size="12.00">road</text>
<polygon fill="none" stroke="black" points="121.5,-24.88 121.5,-43.12 149.5,-43.12 149.5,-24.88 121.5,-24.88"/>
</a>
</g>
</g>
<!-- road network&#45;&gt;road -->
<g id="edge3" class="edge">
<title>road network&#45;&gt;road</title>
<path fill="none" stroke="black" d="M45.95,-101.77C52.24,-91.68 61.22,-79.07 71.5,-70 79.52,-62.92 89.21,-56.71 98.6,-51.55"/>
<polygon fill="black" stroke="black" points="99.96,-54.79 107.24,-47.08 96.75,-48.57 99.96,-54.79"/>
<text xml:space="preserve" text-anchor="middle" x="101.5" y="-73.05" font-family="Arial" font-size="11.00"> aggregates </text>
</g>
<!-- Invis&#45;&gt;road -->
</g>
</svg>
