<?xml version="1.0" encoding="UTF-8" standalone="no"?>
<!DOCTYPE svg PUBLIC "-//W3C//DTD SVG 1.1//EN"
 "http://www.w3.org/Graphics/SVG/1.1/DTD/svg11.dtd">
<!-- Generated by graphviz version 14.1.3 (20260303.0454)
 -->
<!-- Pages: 1 -->
<svg width="173pt" height="162pt"
 viewBox="0.00 0.00 173.00 162.00" xmlns="http://www.w3.org/2000/svg" xmlns:xlink="http://www.w3.org/1999/xlink">
<g id="graph0" class="graph" transform="scale(1 1) rotate(0) translate(4 157.5)">
<polygon fill="white" stroke="none" points="-4,4 -4,-157.5 169,-157.5 169,4 -4,4"/>
<g id="clust2" class="cluster">
<title>cluster_associated</title>
</g>
<!-- roadway -->
<g id="node1" class="node">
<title>roadway</title>
<g id="a_node1"><a xlink:href="../terms/roadway.md" xlink:title="&lt;TABLE&gt;">
<polygon fill="lightgray" stroke="none" points="3.12,-111.38 3.12,-127.62 50.88,-127.62 50.88,-111.38 3.12,-111.38"/>
<text xml:space="preserve" text-anchor="start" x="4.12" y="-115.38" font-family="Arial" font-size="12.00">roadway</text>
<polygon fill="none" stroke="black" points="2.12,-110.38 2.12,-128.62 51.88,-128.62 51.88,-110.38 2.12,-110.38"/>
</a>
</g>
</g>
<!-- Invis -->
<!-- roadway&#45;&gt;Invis -->
<!-- travelledWay -->
<g id="node3" class="node">
<title>travelledWay</title>
<g id="a_node3"><a xlink:href="../terms/travelled way.md" xlink:title="&lt;TABLE&gt;" target="_top">
<polygon fill="lightgray" stroke="none" points="75.75,-25.88 75.75,-42.12 148.25,-42.12 148.25,-25.88 75.75,-25.88"/>
<text xml:space="preserve" text-anchor="start" x="76.75" y="-29.88" font-family="Arial" font-size="12.00">travelled way</text>
<polygon fill="none" stroke="black" points="74.75,-24.88 74.75,-43.12 149.25,-43.12 149.25,-24.88 74.75,-24.88"/>
</a>
</g>
</g>
<!-- roadway&#45;&gt;travelledWay -->
<g id="edge3" class="edge">
<title>roadway&#45;&gt;travelledWay</title>
<path fill="none" stroke="black" d="M34.14,-101.87C39.04,-91.82 46.27,-79.21 55.25,-70 59.34,-65.81 64.02,-61.91 68.92,-58.34"/>
<polygon fill="black" stroke="black" points="70.86,-61.25 77.21,-52.77 66.96,-55.44 70.86,-61.25"/>
<text xml:space="preserve" text-anchor="middle" x="82.62" y="-73.05" font-family="Arial" font-size="11.00"> comprises </text>
</g>
<!-- Invis&#45;&gt;travelledWay -->
</g>
</svg>
