<?xml version="1.0" encoding="UTF-8" standalone="no"?>
<!DOCTYPE svg PUBLIC "-//W3C//DTD SVG 1.1//EN"
 "http://www.w3.org/Graphics/SVG/1.1/DTD/svg11.dtd">
<!-- Generated by graphviz version 14.1.3 (20260303.0454)
 -->
<!-- Pages: 1 -->
<svg width="190pt" height="162pt"
 viewBox="0.00 0.00 190.00 162.00" xmlns="http://www.w3.org/2000/svg" xmlns:xlink="http://www.w3.org/1999/xlink">
<g id="graph0" class="graph" transform="scale(1 1) rotate(0) translate(4 157.5)">
<polygon fill="white" stroke="none" points="-4,4 -4,-157.5 186.38,-157.5 186.38,4 -4,4"/>
<g id="clust2" class="cluster">
<title>cluster_associated</title>
</g>
<!-- road identifier -->
<g id="node1" class="node">
<title>road identifier</title>
<polygon fill="lightgray" stroke="none" points="1,-111.38 1,-127.62 75.75,-127.62 75.75,-111.38 1,-111.38"/>
<text xml:space="preserve" text-anchor="start" x="2" y="-115.38" font-family="Arial" font-size="12.00">road identifier</text>
<polygon fill="none" stroke="black" points="0,-110.38 0,-128.62 76.75,-128.62 76.75,-110.38 0,-110.38"/>
</g>
<!-- Invis -->
<!-- road identifier&#45;&gt;Invis -->
<!-- road -->
<g id="node3" class="node">
<title>road</title>
<g id="a_node3"><a xlink:href="../terms/road.md" xlink:title="&lt;TABLE&gt;" target="_top">
<polygon fill="lightgray" stroke="none" points="126.38,-25.88 126.38,-42.12 152.38,-42.12 152.38,-25.88 126.38,-25.88"/>
<text xml:space="preserve" text-anchor="start" x="127.38" y="-29.88" font-family="Arial" font-size="12.00">road</text>
<polygon fill="none" stroke="black" points="125.38,-24.88 125.38,-43.12 153.38,-43.12 153.38,-24.88 125.38,-24.88"/>
</a>
</g>
</g>
<!-- road identifier&#45;&gt;road -->
<g id="edge3" class="edge">
<title>road identifier&#45;&gt;road</title>
<path fill="none" stroke="black" d="M53.99,-101.53C63.27,-91.83 75.52,-79.71 87.38,-70 92.39,-65.89 97.89,-61.8 103.37,-57.94"/>
<polygon fill="black" stroke="black" points="104.97,-61.09 111.25,-52.55 101.02,-55.31 104.97,-61.09"/>
<text xml:space="preserve" text-anchor="middle" x="111.38" y="-73.05" font-family="Arial" font-size="11.00"> identifies </text>
</g>
<!-- Invis&#45;&gt;road -->
</g>
</svg>
