<?xml version="1.0" encoding="UTF-8" standalone="no"?>
<!DOCTYPE svg PUBLIC "-//W3C//DTD SVG 1.1//EN"
 "http://www.w3.org/Graphics/SVG/1.1/DTD/svg11.dtd">
<!-- Generated by graphviz version 14.1.3 (20260303.0454)
 -->
<!-- Pages: 1 -->
<svg width="181pt" height="292pt"
 viewBox="0.00 0.00 181.00 292.00" xmlns="http://www.w3.org/2000/svg" xmlns:xlink="http://www.w3.org/1999/xlink">
<g id="graph0" class="graph" transform="scale(1 1) rotate(0) translate(4 287.5)">
<polygon fill="white" stroke="none" points="-4,4 -4,-287.5 176.92,-287.5 176.92,4 -4,4"/>
<g id="clust2" class="cluster">
<title>cluster_associated</title>
</g>
<!-- road link -->
<g id="node1" class="node">
<title>road link</title>
<polygon fill="lightgray" stroke="none" points="111.12,-184.38 111.12,-200.62 158.88,-200.62 158.88,-184.38 111.12,-184.38"/>
<text xml:space="preserve" text-anchor="start" x="112.12" y="-188.38" font-family="Arial" font-size="12.00">road link</text>
<polygon fill="none" stroke="black" points="110.12,-183.38 110.12,-201.62 159.88,-201.62 159.88,-183.38 110.12,-183.38"/>
</g>
<!-- link -->
<g id="node2" class="node">
<title>link</title>
<g id="a_node2"><a xlink:href="../terms/link.md" xlink:title="&lt;TABLE&gt;" target="_top">
<polygon fill="lightgray" stroke="none" points="124.62,-257.38 124.62,-273.62 145.38,-273.62 145.38,-257.38 124.62,-257.38"/>
<text xml:space="preserve" text-anchor="start" x="125.62" y="-261.38" font-family="Arial" font-size="12.00">link</text>
<polygon fill="none" stroke="black" points="123.62,-256.38 123.62,-274.62 146.38,-274.62 146.38,-256.38 123.62,-256.38"/>
</a>
</g>
</g>
<!-- road link&#45;&gt;link -->
<g id="edge1" class="edge">
<title>road link&#45;&gt;link</title>
<path fill="none" stroke="black" d="M135,-210.21C135,-217.97 135,-227.42 135,-236.24"/>
<polygon fill="none" stroke="black" points="131.5,-236.16 135,-246.16 138.5,-236.16 131.5,-236.16"/>
</g>
<!-- Invis -->
<!-- road link&#45;&gt;Invis -->
<!-- laneLink -->
<g id="node4" class="node">
<title>laneLink</title>
<g id="a_node4"><a xlink:href="../terms/lane link.md" xlink:title="&lt;TABLE&gt;" target="_top">
<polygon fill="lightgray" stroke="none" points="30.5,-98.88 30.5,-115.12 77.5,-115.12 77.5,-98.88 30.5,-98.88"/>
<text xml:space="preserve" text-anchor="start" x="31.5" y="-102.88" font-family="Arial" font-size="12.00">lane link</text>
<polygon fill="none" stroke="black" points="29.5,-97.88 29.5,-116.12 78.5,-116.12 78.5,-97.88 29.5,-97.88"/>
</a>
</g>
</g>
<!-- road link&#45;&gt;laneLink -->
<g id="edge6" class="edge">
<title>road link&#45;&gt;laneLink</title>
<path fill="none" stroke="black" d="M108.01,-176.55C106.66,-175.85 105.32,-175.16 104,-174.5 86.95,-165.91 77.01,-171.34 65,-156.5 60.35,-150.76 57.58,-143.43 55.95,-136.23"/>
<polygon fill="black" stroke="black" points="59.41,-135.72 54.43,-126.38 52.5,-136.79 59.41,-135.72"/>
<text xml:space="preserve" text-anchor="middle" x="95" y="-146.05" font-family="Arial" font-size="11.00"> aggregates </text>
</g>
<!-- roadSegment -->
<g id="node5" class="node">
<title>roadSegment</title>
<g id="a_node5"><a xlink:href="../terms/road segment.md" xlink:title="&lt;TABLE&gt;" target="_top">
<polygon fill="lightgray" stroke="none" points="16.62,-25.88 16.62,-42.12 91.38,-42.12 91.38,-25.88 16.62,-25.88"/>
<text xml:space="preserve" text-anchor="start" x="17.62" y="-29.88" font-family="Arial" font-size="12.00">road segment</text>
<polygon fill="none" stroke="black" points="15.62,-24.88 15.62,-43.12 92.38,-43.12 92.38,-24.88 15.62,-24.88"/>
</a>
</g>
</g>
<!-- road link&#45;&gt;roadSegment -->
<g id="edge5" class="edge">
<title>road link&#45;&gt;roadSegment</title>
<path fill="none" stroke="black" d="M133.13,-174.89C131.68,-165.31 129.18,-153.18 125,-143 112.52,-112.57 91.06,-81.59 74.99,-60.66"/>
<polygon fill="black" stroke="black" points="77.9,-58.69 68.97,-52.98 72.39,-63.01 77.9,-58.69"/>
<text xml:space="preserve" text-anchor="middle" x="144.42" y="-103.3" font-family="Arial" font-size="11.00"> constitutes </text>
</g>
<!-- Invis&#45;&gt;laneLink -->
<!-- laneLink&#45;&gt;roadSegment -->
</g>
</svg>
