<?xml version="1.0" encoding="UTF-8" standalone="no"?>
<!DOCTYPE svg PUBLIC "-//W3C//DTD SVG 1.1//EN"
 "http://www.w3.org/Graphics/SVG/1.1/DTD/svg11.dtd">
<!-- Generated by graphviz version 14.1.3 (20260303.0454)
 -->
<!-- Pages: 1 -->
<svg width="230pt" height="320pt"
 viewBox="0.00 0.00 230.00 320.00" xmlns="http://www.w3.org/2000/svg" xmlns:xlink="http://www.w3.org/1999/xlink">
<g id="graph0" class="graph" transform="scale(1 1) rotate(0) translate(4 316)">
<polygon fill="white" stroke="none" points="-4,4 -4,-316 225.52,-316 225.52,4 -4,4"/>
<g id="clust2" class="cluster">
<title>cluster_associated</title>
</g>
<!-- road model -->
<g id="node1" class="node">
<title>road model</title>
<polygon fill="lightgray" stroke="none" points="107,-269.88 107,-286.12 169,-286.12 169,-269.88 107,-269.88"/>
<text xml:space="preserve" text-anchor="start" x="108" y="-273.88" font-family="Arial" font-size="12.00">road model</text>
<polygon fill="none" stroke="black" points="106,-268.88 106,-287.12 170,-287.12 170,-268.88 106,-268.88"/>
</g>
<!-- Invis -->
<!-- road model&#45;&gt;Invis -->
<!-- link -->
<g id="node3" class="node">
<title>link</title>
<g id="a_node3"><a xlink:href="../terms/link.md" xlink:title="&lt;TABLE&gt;" target="_top">
<polygon fill="lightgray" stroke="none" points="47.62,-184.38 47.62,-200.62 68.38,-200.62 68.38,-184.38 47.62,-184.38"/>
<text xml:space="preserve" text-anchor="start" x="48.62" y="-188.38" font-family="Arial" font-size="12.00">link</text>
<polygon fill="none" stroke="black" points="46.62,-183.38 46.62,-201.62 69.38,-201.62 69.38,-183.38 46.62,-183.38"/>
</a>
</g>
</g>
<!-- road model&#45;&gt;link -->
<g id="edge5" class="edge">
<title>road model&#45;&gt;link</title>
<path fill="none" stroke="black" d="M106.21,-261.97C104.78,-261.3 103.38,-260.64 102,-260 84.7,-251.92 74.1,-257.53 63,-242 58.79,-236.11 56.83,-228.73 56.1,-221.52"/>
<polygon fill="black" stroke="black" points="59.6,-221.64 55.85,-211.73 52.6,-221.81 59.6,-221.64"/>
<text xml:space="preserve" text-anchor="middle" x="91.5" y="-231.55" font-family="Arial" font-size="11.00"> constitutes </text>
</g>
<!-- node -->
<g id="node4" class="node">
<title>node</title>
<g id="a_node4"><a xlink:href="../terms/node.md" xlink:title="&lt;TABLE&gt;" target="_top">
<polygon fill="lightgray" stroke="none" points="43.5,-98.88 43.5,-115.12 72.5,-115.12 72.5,-98.88 43.5,-98.88"/>
<text xml:space="preserve" text-anchor="start" x="44.5" y="-102.88" font-family="Arial" font-size="12.00">node</text>
<polygon fill="none" stroke="black" points="42.5,-97.88 42.5,-116.12 73.5,-116.12 73.5,-97.88 42.5,-97.88"/>
</a>
</g>
</g>
<!-- road model&#45;&gt;node -->
<g id="edge6" class="edge">
<title>road model&#45;&gt;node</title>
<path fill="none" stroke="black" d="M132.21,-260.24C128.86,-250.83 124.43,-238.91 120,-228.5 105.89,-195.31 86.44,-158.65 73.11,-134.59"/>
<polygon fill="black" stroke="black" points="76.3,-133.13 68.37,-126.11 70.19,-136.54 76.3,-133.13"/>
<text xml:space="preserve" text-anchor="middle" x="140.17" y="-188.8" font-family="Arial" font-size="11.00"> constitutes </text>
</g>
<!-- roadNetwork -->
<g id="node5" class="node">
<title>roadNetwork</title>
<g id="a_node5"><a xlink:href="../terms/road network.md" xlink:title="&lt;TABLE&gt;" target="_top">
<polygon fill="lightgray" stroke="none" points="17.5,-25.88 17.5,-42.12 88.5,-42.12 88.5,-25.88 17.5,-25.88"/>
<text xml:space="preserve" text-anchor="start" x="18.5" y="-29.88" font-family="Arial" font-size="12.00">road network</text>
<polygon fill="none" stroke="black" points="16.5,-24.88 16.5,-43.12 89.5,-43.12 89.5,-24.88 16.5,-24.88"/>
</a>
</g>
</g>
<!-- road model&#45;&gt;roadNetwork -->
<g id="edge7" class="edge">
<title>road model&#45;&gt;roadNetwork</title>
<path fill="none" stroke="black" d="M150.96,-260.22C165.04,-239.84 184.12,-204.47 173,-174.5 155.28,-126.73 113.06,-84.33 83.74,-59.16"/>
<polygon fill="black" stroke="black" points="86.17,-56.63 76.26,-52.88 81.68,-61.99 86.17,-56.63"/>
<text xml:space="preserve" text-anchor="middle" x="193.02" y="-146.05" font-family="Arial" font-size="11.00"> represents </text>
</g>
<!-- Invis&#45;&gt;link -->
<!-- link&#45;&gt;node -->
<!-- node&#45;&gt;roadNetwork -->
</g>
</svg>
