<?xml version="1.0" encoding="UTF-8" standalone="no"?>
<!DOCTYPE svg PUBLIC "-//W3C//DTD SVG 1.1//EN"
 "http://www.w3.org/Graphics/SVG/1.1/DTD/svg11.dtd">
<!-- Generated by graphviz version 14.1.3 (20260303.0454)
 -->
<!-- Pages: 1 -->
<svg width="183pt" height="162pt"
 viewBox="0.00 0.00 183.00 162.00" xmlns="http://www.w3.org/2000/svg" xmlns:xlink="http://www.w3.org/1999/xlink">
<g id="graph0" class="graph" transform="scale(1 1) rotate(0) translate(4 157.5)">
<polygon fill="white" stroke="none" points="-4,4 -4,-157.5 178.62,-157.5 178.62,4 -4,4"/>
<g id="clust2" class="cluster">
<title>cluster_associated</title>
</g>
<!-- road section -->
<g id="node1" class="node">
<title>road section</title>
<polygon fill="lightgray" stroke="none" points="1,-111.38 1,-127.62 68.25,-127.62 68.25,-111.38 1,-111.38"/>
<text xml:space="preserve" text-anchor="start" x="2" y="-115.38" font-family="Arial" font-size="12.00">road section</text>
<polygon fill="none" stroke="black" points="0,-110.38 0,-128.62 69.25,-128.62 69.25,-110.38 0,-110.38"/>
</g>
<!-- Invis -->
<!-- road section&#45;&gt;Invis -->
<!-- roadLink -->
<g id="node3" class="node">
<title>roadLink</title>
<g id="a_node3"><a xlink:href="../terms/road link.md" xlink:title="&lt;TABLE&gt;" target="_top">
<polygon fill="lightgray" stroke="none" points="107.75,-25.88 107.75,-42.12 155.5,-42.12 155.5,-25.88 107.75,-25.88"/>
<text xml:space="preserve" text-anchor="start" x="108.75" y="-29.88" font-family="Arial" font-size="12.00">road link</text>
<polygon fill="none" stroke="black" points="106.75,-24.88 106.75,-43.12 156.5,-43.12 156.5,-24.88 106.75,-24.88"/>
</a>
</g>
</g>
<!-- road section&#45;&gt;roadLink -->
<g id="edge3" class="edge">
<title>road section&#45;&gt;roadLink</title>
<path fill="none" stroke="black" d="M43.34,-101.74C49.21,-91.65 57.67,-79.03 67.62,-70 75.61,-62.75 85.37,-56.45 94.84,-51.27"/>
<polygon fill="black" stroke="black" points="96.26,-54.47 103.55,-46.79 93.06,-48.25 96.26,-54.47"/>
<text xml:space="preserve" text-anchor="middle" x="97.62" y="-73.05" font-family="Arial" font-size="11.00"> aggregates </text>
</g>
<!-- Invis&#45;&gt;roadLink -->
</g>
</svg>
