<?xml version="1.0" encoding="UTF-8" standalone="no"?>
<!DOCTYPE svg PUBLIC "-//W3C//DTD SVG 1.1//EN"
 "http://www.w3.org/Graphics/SVG/1.1/DTD/svg11.dtd">
<!-- Generated by graphviz version 14.1.3 (20260303.0454)
 -->
<!-- Pages: 1 -->
<svg width="182pt" height="162pt"
 viewBox="0.00 0.00 182.00 162.00" xmlns="http://www.w3.org/2000/svg" xmlns:xlink="http://www.w3.org/1999/xlink">
<g id="graph0" class="graph" transform="scale(1 1) rotate(0) translate(4 157.5)">
<polygon fill="white" stroke="none" points="-4,4 -4,-157.5 178,-157.5 178,4 -4,4"/>
<g id="clust2" class="cluster">
<title>cluster_associated</title>
</g>
<!-- sensor -->
<g id="node1" class="node">
<title>sensor</title>
<g id="a_node1"><a xlink:href="../terms/sensor.md" xlink:title="&lt;TABLE&gt;">
<polygon fill="lightgray" stroke="none" points="8,-111.38 8,-127.62 46,-127.62 46,-111.38 8,-111.38"/>
<text xml:space="preserve" text-anchor="start" x="9" y="-115.38" font-family="Arial" font-size="12.00">sensor</text>
<polygon fill="none" stroke="black" points="7,-110.38 7,-128.62 47,-128.62 47,-110.38 7,-110.38"/>
</a>
</g>
</g>
<!-- Invis -->
<!-- sensor&#45;&gt;Invis -->
<!-- materialEntity -->
<g id="node3" class="node">
<title>materialEntity</title>
<g id="a_node3"><a xlink:href="../terms/material entity.md" xlink:title="&lt;TABLE&gt;" target="_top">
<polygon fill="lightgray" stroke="none" points="80.88,-25.88 80.88,-42.12 157.12,-42.12 157.12,-25.88 80.88,-25.88"/>
<text xml:space="preserve" text-anchor="start" x="81.88" y="-29.88" font-family="Arial" font-size="12.00">material entity</text>
<polygon fill="none" stroke="black" points="79.88,-24.88 79.88,-43.12 158.12,-43.12 158.12,-24.88 79.88,-24.88"/>
</a>
</g>
</g>
<!-- sensor&#45;&gt;materialEntity -->
<g id="edge3" class="edge">
<title>sensor&#45;&gt;materialEntity</title>
<path fill="none" stroke="black" d="M16.45,-101.94C11.52,-91.91 8.06,-79.31 14.75,-70 27.21,-52.67 48.67,-43.8 68.89,-39.31"/>
<polygon fill="black" stroke="black" points="69.26,-42.8 78.45,-37.52 67.97,-35.92 69.26,-42.8"/>
<text xml:space="preserve" text-anchor="middle" x="66.88" y="-73.05" font-family="Arial" font-size="11.00"> observes property of </text>
</g>
<!-- Invis&#45;&gt;materialEntity -->
</g>
</svg>
