<?xml version="1.0" encoding="UTF-8" standalone="no"?>
<!DOCTYPE svg PUBLIC "-//W3C//DTD SVG 1.1//EN"
 "http://www.w3.org/Graphics/SVG/1.1/DTD/svg11.dtd">
<!-- Generated by graphviz version 14.1.3 (20260303.0454)
 -->
<!-- Pages: 1 -->
<svg width="292pt" height="132pt"
 viewBox="0.00 0.00 292.00 132.00" xmlns="http://www.w3.org/2000/svg" xmlns:xlink="http://www.w3.org/1999/xlink">
<g id="graph0" class="graph" transform="scale(1 1) rotate(0) translate(4 128)">
<polygon fill="white" stroke="none" points="-4,4 -4,-128 287.62,-128 287.62,4 -4,4"/>
<g id="clust2" class="cluster">
<title>cluster_associated</title>
</g>
<!-- shared transport service -->
<g id="node1" class="node">
<title>shared transport service</title>
<polygon fill="lightgray" stroke="none" points="1,-34 1,-50.25 194.25,-50.25 194.25,-34 1,-34"/>
<text xml:space="preserve" text-anchor="start" x="33.88" y="-38" font-family="Arial" font-size="12.00">shared transport service</text>
<text xml:space="preserve" text-anchor="start" x="2" y="-21.75" font-family="Arial" font-size="12.00">vehicle operator = transport provider</text>
<polygon fill="none" stroke="black" points="0,-16.75 0,-51.25 195.25,-51.25 195.25,-16.75 0,-16.75"/>
</g>
<!-- transportService -->
<g id="node2" class="node">
<title>transportService</title>
<g id="a_node2"><a xlink:href="../terms/transport service.md" xlink:title="&lt;TABLE&gt;" target="_top">
<polygon fill="lightgray" stroke="none" points="52.75,-97.88 52.75,-114.12 142.5,-114.12 142.5,-97.88 52.75,-97.88"/>
<text xml:space="preserve" text-anchor="start" x="53.75" y="-101.88" font-family="Arial" font-size="12.00">transport service</text>
<polygon fill="none" stroke="black" points="51.75,-96.88 51.75,-115.12 143.5,-115.12 143.5,-96.88 51.75,-96.88"/>
</a>
</g>
</g>
<!-- shared transport service&#45;&gt;transportService -->
<g id="edge1" class="edge">
<title>shared transport service&#45;&gt;transportService</title>
<path fill="none" stroke="black" d="M97.62,-51.79C97.62,-59.25 97.62,-68.24 97.62,-76.69"/>
<polygon fill="none" stroke="black" points="94.13,-76.54 97.63,-86.54 101.13,-76.54 94.13,-76.54"/>
</g>
<!-- Invis -->
</g>
</svg>
