<?xml version="1.0" encoding="UTF-8" standalone="no"?>
<!DOCTYPE svg PUBLIC "-//W3C//DTD SVG 1.1//EN"
 "http://www.w3.org/Graphics/SVG/1.1/DTD/svg11.dtd">
<!-- Generated by graphviz version 14.1.3 (20260303.0454)
 -->
<!-- Pages: 1 -->
<svg width="300pt" height="139pt"
 viewBox="0.00 0.00 300.00 139.00" xmlns="http://www.w3.org/2000/svg" xmlns:xlink="http://www.w3.org/1999/xlink">
<g id="graph0" class="graph" transform="scale(1 1) rotate(0) translate(4 135.38)">
<polygon fill="white" stroke="none" points="-4,4 -4,-135.38 296.12,-135.38 296.12,4 -4,4"/>
<g id="clust2" class="cluster">
<title>cluster_associated</title>
</g>
<!-- shared vehicle service -->
<g id="node1" class="node">
<title>shared vehicle service</title>
<polygon fill="lightgray" stroke="none" points="1,-42.12 1,-58.38 203.25,-58.38 203.25,-42.12 1,-42.12"/>
<text xml:space="preserve" text-anchor="start" x="42.5" y="-46.12" font-family="Arial" font-size="12.00">shared vehicle service</text>
<text xml:space="preserve" text-anchor="start" x="2" y="-29.88" font-family="Arial" font-size="12.00">operational model = sequential</text>
<text xml:space="preserve" text-anchor="start" x="2" y="-13.62" font-family="Arial" font-size="12.00">vehicle operator = transport consumer</text>
<polygon fill="none" stroke="black" points="0,-8.62 0,-59.38 204.25,-59.38 204.25,-8.62 0,-8.62"/>
</g>
<!-- transportService -->
<g id="node2" class="node">
<title>transportService</title>
<g id="a_node2"><a xlink:href="../terms/transport service.md" xlink:title="&lt;TABLE&gt;" target="_top">
<polygon fill="lightgray" stroke="none" points="57.25,-105.25 57.25,-121.5 147,-121.5 147,-105.25 57.25,-105.25"/>
<text xml:space="preserve" text-anchor="start" x="58.25" y="-109.25" font-family="Arial" font-size="12.00">transport service</text>
<polygon fill="none" stroke="black" points="56.25,-104.25 56.25,-122.5 148,-122.5 148,-104.25 56.25,-104.25"/>
</a>
</g>
</g>
<!-- shared vehicle service&#45;&gt;transportService -->
<g id="edge1" class="edge">
<title>shared vehicle service&#45;&gt;transportService</title>
<path fill="none" stroke="black" d="M102.12,-59.1C102.12,-67.05 102.12,-75.97 102.12,-84.21"/>
<polygon fill="none" stroke="black" points="98.63,-84.07 102.13,-94.07 105.63,-84.07 98.63,-84.07"/>
</g>
<!-- Invis -->
</g>
</svg>
