<?xml version="1.0" encoding="UTF-8" standalone="no"?>
<!DOCTYPE svg PUBLIC "-//W3C//DTD SVG 1.1//EN"
 "http://www.w3.org/Graphics/SVG/1.1/DTD/svg11.dtd">
<!-- Generated by graphviz version 14.1.3 (20260303.0454)
 -->
<!-- Pages: 1 -->
<svg width="233pt" height="320pt"
 viewBox="0.00 0.00 233.00 320.00" xmlns="http://www.w3.org/2000/svg" xmlns:xlink="http://www.w3.org/1999/xlink">
<g id="graph0" class="graph" transform="scale(1 1) rotate(0) translate(4 316)">
<polygon fill="white" stroke="none" points="-4,4 -4,-316 229.29,-316 229.29,4 -4,4"/>
<g id="clust2" class="cluster">
<title>cluster_associated</title>
</g>
<!-- system -->
<g id="node1" class="node">
<title>system</title>
<g id="a_node1"><a xlink:href="../terms/system.md" xlink:title="&lt;TABLE&gt;">
<polygon fill="lightgray" stroke="none" points="113.25,-269.88 113.25,-286.12 152.75,-286.12 152.75,-269.88 113.25,-269.88"/>
<text xml:space="preserve" text-anchor="start" x="114.25" y="-273.88" font-family="Arial" font-size="12.00">system</text>
<polygon fill="none" stroke="black" points="112.25,-268.88 112.25,-287.12 153.75,-287.12 153.75,-268.88 112.25,-268.88"/>
</a>
</g>
</g>
<!-- Invis -->
<!-- system&#45;&gt;Invis -->
<!-- architecture -->
<g id="node3" class="node">
<title>architecture</title>
<g id="a_node3"><a xlink:href="../terms/architecture.md" xlink:title="&lt;TABLE&gt;" target="_top">
<polygon fill="lightgray" stroke="none" points="18.88,-184.38 18.88,-200.62 83.12,-200.62 83.12,-184.38 18.88,-184.38"/>
<text xml:space="preserve" text-anchor="start" x="19.88" y="-188.38" font-family="Arial" font-size="12.00">architecture</text>
<polygon fill="none" stroke="black" points="17.88,-183.38 17.88,-201.62 84.12,-201.62 84.12,-183.38 17.88,-183.38"/>
</a>
</g>
</g>
<!-- system&#45;&gt;architecture -->
<g id="edge7" class="edge">
<title>system&#45;&gt;architecture</title>
<path fill="none" stroke="black" d="M106.24,-263.62C88.23,-254.51 67.5,-243.8 66,-242 61.11,-236.13 57.82,-228.69 55.59,-221.4"/>
<polygon fill="black" stroke="black" points="59.02,-220.69 53.26,-211.79 52.22,-222.34 59.02,-220.69"/>
<text xml:space="preserve" text-anchor="middle" x="87" y="-231.55" font-family="Arial" font-size="11.00"> exhibits </text>
</g>
<!-- environment -->
<g id="node4" class="node">
<title>environment</title>
<g id="a_node4"><a xlink:href="../terms/environment.md" xlink:title="&lt;TABLE&gt;" target="_top">
<polygon fill="lightgray" stroke="none" points="17,-98.88 17,-115.12 85,-115.12 85,-98.88 17,-98.88"/>
<text xml:space="preserve" text-anchor="start" x="18" y="-102.88" font-family="Arial" font-size="12.00">environment</text>
<polygon fill="none" stroke="black" points="16,-97.88 16,-116.12 86,-116.12 86,-97.88 16,-97.88"/>
</a>
</g>
</g>
<!-- system&#45;&gt;environment -->
<g id="edge5" class="edge">
<title>system&#45;&gt;environment</title>
<path fill="none" stroke="black" d="M127.57,-260.25C120.63,-239.6 107.73,-203.66 93,-174.5 86.07,-160.79 77.12,-146.28 69.27,-134.33"/>
<polygon fill="black" stroke="black" points="72.31,-132.59 63.84,-126.23 66.49,-136.48 72.31,-132.59"/>
<text xml:space="preserve" text-anchor="middle" x="136.24" y="-188.8" font-family="Arial" font-size="11.00"> situated in </text>
</g>
<!-- user -->
<g id="node5" class="node">
<title>user</title>
<g id="a_node5"><a xlink:href="../terms/user.md" xlink:title="&lt;TABLE&gt;" target="_top">
<polygon fill="lightgray" stroke="none" points="42.38,-25.88 42.38,-42.12 67.62,-42.12 67.62,-25.88 42.38,-25.88"/>
<text xml:space="preserve" text-anchor="start" x="43.38" y="-29.88" font-family="Arial" font-size="12.00">user</text>
<polygon fill="none" stroke="black" points="41.38,-24.88 41.38,-43.12 68.62,-43.12 68.62,-24.88 41.38,-24.88"/>
</a>
</g>
</g>
<!-- system&#45;&gt;user -->
<g id="edge6" class="edge">
<title>system&#45;&gt;user</title>
<path fill="none" stroke="black" d="M145.81,-260.27C159.74,-239.95 178.67,-204.63 168,-174.5 151.38,-127.58 111.51,-84.91 83.88,-59.44"/>
<polygon fill="black" stroke="black" points="86.28,-56.9 76.5,-52.81 81.6,-62.1 86.28,-56.9"/>
<text xml:space="preserve" text-anchor="middle" x="192.67" y="-146.05" font-family="Arial" font-size="11.00"> designed for </text>
</g>
<!-- Invis&#45;&gt;architecture -->
<!-- architecture&#45;&gt;environment -->
<!-- environment&#45;&gt;user -->
</g>
</svg>
