<?xml version="1.0" encoding="UTF-8" standalone="no"?>
<!DOCTYPE svg PUBLIC "-//W3C//DTD SVG 1.1//EN"
 "http://www.w3.org/Graphics/SVG/1.1/DTD/svg11.dtd">
<!-- Generated by graphviz version 14.1.3 (20260303.0454)
 -->
<!-- Pages: 1 -->
<svg width="266pt" height="148pt"
 viewBox="0.00 0.00 266.00 148.00" xmlns="http://www.w3.org/2000/svg" xmlns:xlink="http://www.w3.org/1999/xlink">
<g id="graph0" class="graph" transform="scale(1 1) rotate(0) translate(4 143.5)">
<polygon fill="white" stroke="none" points="-4,4 -4,-143.5 261.5,-143.5 261.5,4 -4,4"/>
<g id="clust2" class="cluster">
<title>cluster_associated</title>
</g>
<!-- taxi&#45;share service -->
<g id="node1" class="node">
<title>taxi&#45;share service</title>
<polygon fill="lightgray" stroke="none" points="1,-50.25 1,-66.5 168,-66.5 168,-50.25 1,-50.25"/>
<text xml:space="preserve" text-anchor="start" x="37.62" y="-54.25" font-family="Arial" font-size="12.00">taxi&#45;share service</text>
<text xml:space="preserve" text-anchor="start" x="2" y="-38" font-family="Arial" font-size="12.00">financial model = commercial</text>
<text xml:space="preserve" text-anchor="start" x="2" y="-21.75" font-family="Arial" font-size="12.00">operational model = concurrent</text>
<text xml:space="preserve" text-anchor="start" x="2" y="-5.5" font-family="Arial" font-size="12.00">transport item = passengers</text>
<polygon fill="none" stroke="black" points="0,-0.5 0,-67.5 169,-67.5 169,-0.5 0,-0.5"/>
</g>
<!-- sharedTransportService -->
<g id="node2" class="node">
<title>sharedTransportService</title>
<g id="a_node2"><a xlink:href="../terms/shared transport service.md" xlink:title="&lt;TABLE&gt;" target="_top">
<polygon fill="lightgray" stroke="none" points="19.75,-113.38 19.75,-129.62 149.25,-129.62 149.25,-113.38 19.75,-113.38"/>
<text xml:space="preserve" text-anchor="start" x="20.75" y="-117.38" font-family="Arial" font-size="12.00">shared transport service</text>
<polygon fill="none" stroke="black" points="18.75,-112.38 18.75,-130.62 150.25,-130.62 150.25,-112.38 18.75,-112.38"/>
</a>
</g>
</g>
<!-- taxi&#45;share service&#45;&gt;sharedTransportService -->
<g id="edge1" class="edge">
<title>taxi&#45;share service&#45;&gt;sharedTransportService</title>
<path fill="none" stroke="black" d="M84.5,-67.43C84.5,-75.62 84.5,-84.33 84.5,-92.29"/>
<polygon fill="none" stroke="black" points="81,-92.09 84.5,-102.09 88,-92.09 81,-92.09"/>
</g>
<!-- Invis -->
</g>
</svg>
