<?xml version="1.0" encoding="UTF-8" standalone="no"?>
<!DOCTYPE svg PUBLIC "-//W3C//DTD SVG 1.1//EN"
 "http://www.w3.org/Graphics/SVG/1.1/DTD/svg11.dtd">
<!-- Generated by graphviz version 14.1.3 (20260303.0454)
 -->
<!-- Pages: 1 -->
<svg width="230pt" height="219pt"
 viewBox="0.00 0.00 230.00 219.00" xmlns="http://www.w3.org/2000/svg" xmlns:xlink="http://www.w3.org/1999/xlink">
<g id="graph0" class="graph" transform="scale(1 1) rotate(0) translate(4 214.5)">
<polygon fill="white" stroke="none" points="-4,4 -4,-214.5 225.5,-214.5 225.5,4 -4,4"/>
<g id="clust2" class="cluster">
<title>cluster_associated</title>
</g>
<!-- transport provider -->
<g id="node1" class="node">
<title>transport provider</title>
<polygon fill="lightgray" stroke="none" points="125.5,-111.38 125.5,-127.62 220.5,-127.62 220.5,-111.38 125.5,-111.38"/>
<text xml:space="preserve" text-anchor="start" x="126.5" y="-115.38" font-family="Arial" font-size="12.00">transport provider</text>
<polygon fill="none" stroke="black" points="124.5,-110.38 124.5,-128.62 221.5,-128.62 221.5,-110.38 124.5,-110.38"/>
</g>
<!-- serviceProvider -->
<g id="node2" class="node">
<title>serviceProvider</title>
<g id="a_node2"><a xlink:href="../terms/service provider.md" xlink:title="&lt;TABLE&gt;" target="_top">
<polygon fill="lightgray" stroke="none" points="129.62,-184.38 129.62,-200.62 216.38,-200.62 216.38,-184.38 129.62,-184.38"/>
<text xml:space="preserve" text-anchor="start" x="130.62" y="-188.38" font-family="Arial" font-size="12.00">service provider</text>
<polygon fill="none" stroke="black" points="128.62,-183.38 128.62,-201.62 217.38,-201.62 217.38,-183.38 128.62,-183.38"/>
</a>
</g>
</g>
<!-- transport provider&#45;&gt;serviceProvider -->
<g id="edge1" class="edge">
<title>transport provider&#45;&gt;serviceProvider</title>
<path fill="none" stroke="black" d="M173,-137.21C173,-144.97 173,-154.42 173,-163.24"/>
<polygon fill="none" stroke="black" points="169.5,-163.16 173,-173.16 176.5,-163.16 169.5,-163.16"/>
</g>
<!-- Invis -->
<!-- transport provider&#45;&gt;Invis -->
<!-- transportService -->
<g id="node4" class="node">
<title>transportService</title>
<g id="a_node4"><a xlink:href="../terms/transport service.md" xlink:title="&lt;TABLE&gt;" target="_top">
<polygon fill="lightgray" stroke="none" points="17.12,-25.88 17.12,-42.12 106.88,-42.12 106.88,-25.88 17.12,-25.88"/>
<text xml:space="preserve" text-anchor="start" x="18.12" y="-29.88" font-family="Arial" font-size="12.00">transport service</text>
<polygon fill="none" stroke="black" points="16.12,-24.88 16.12,-43.12 107.88,-43.12 107.88,-24.88 16.12,-24.88"/>
</a>
</g>
</g>
<!-- transport provider&#45;&gt;transportService -->
<g id="edge4" class="edge">
<title>transport provider&#45;&gt;transportService</title>
<path fill="none" stroke="black" d="M150.54,-101.6C134.14,-89.27 111.69,-72.38 93.5,-58.69"/>
<polygon fill="black" stroke="black" points="95.73,-56 85.64,-52.78 91.53,-61.59 95.73,-56"/>
<text xml:space="preserve" text-anchor="middle" x="145.52" y="-73.05" font-family="Arial" font-size="11.00"> delivers </text>
</g>
<!-- Invis&#45;&gt;transportService -->
</g>
</svg>
