<?xml version="1.0" encoding="UTF-8" standalone="no"?>
<!DOCTYPE svg PUBLIC "-//W3C//DTD SVG 1.1//EN"
 "http://www.w3.org/Graphics/SVG/1.1/DTD/svg11.dtd">
<!-- Generated by graphviz version 14.1.3 (20260303.0454)
 -->
<!-- Pages: 1 -->
<svg width="251pt" height="219pt"
 viewBox="0.00 0.00 251.00 219.00" xmlns="http://www.w3.org/2000/svg" xmlns:xlink="http://www.w3.org/1999/xlink">
<g id="graph0" class="graph" transform="scale(1 1) rotate(0) translate(4 214.5)">
<polygon fill="white" stroke="none" points="-4,4 -4,-214.5 247.25,-214.5 247.25,4 -4,4"/>
<g id="clust2" class="cluster">
<title>cluster_associated</title>
</g>
<!-- transport infrastructure -->
<g id="node1" class="node">
<title>transport infrastructure</title>
<polygon fill="lightgray" stroke="none" points="121.75,-111.38 121.75,-127.62 242.25,-127.62 242.25,-111.38 121.75,-111.38"/>
<text xml:space="preserve" text-anchor="start" x="122.75" y="-115.38" font-family="Arial" font-size="12.00">transport infrastructure</text>
<polygon fill="none" stroke="black" points="120.75,-110.38 120.75,-128.62 243.25,-128.62 243.25,-110.38 120.75,-110.38"/>
</g>
<!-- system -->
<g id="node2" class="node">
<title>system</title>
<g id="a_node2"><a xlink:href="../terms/system.md" xlink:title="&lt;TABLE&gt;" target="_top">
<polygon fill="lightgray" stroke="none" points="162.25,-184.38 162.25,-200.62 201.75,-200.62 201.75,-184.38 162.25,-184.38"/>
<text xml:space="preserve" text-anchor="start" x="163.25" y="-188.38" font-family="Arial" font-size="12.00">system</text>
<polygon fill="none" stroke="black" points="161.25,-183.38 161.25,-201.62 202.75,-201.62 202.75,-183.38 161.25,-183.38"/>
</a>
</g>
</g>
<!-- transport infrastructure&#45;&gt;system -->
<g id="edge1" class="edge">
<title>transport infrastructure&#45;&gt;system</title>
<path fill="none" stroke="black" d="M182,-137.21C182,-144.97 182,-154.42 182,-163.24"/>
<polygon fill="none" stroke="black" points="178.5,-163.16 182,-173.16 185.5,-163.16 178.5,-163.16"/>
</g>
<!-- Invis -->
<!-- transport infrastructure&#45;&gt;Invis -->
<!-- transportFacility -->
<g id="node4" class="node">
<title>transportFacility</title>
<g id="a_node4"><a xlink:href="../terms/transport facility.md" xlink:title="&lt;TABLE&gt;" target="_top">
<polygon fill="lightgray" stroke="none" points="17.38,-25.88 17.38,-42.12 102.62,-42.12 102.62,-25.88 17.38,-25.88"/>
<text xml:space="preserve" text-anchor="start" x="18.38" y="-29.88" font-family="Arial" font-size="12.00">transport facility</text>
<polygon fill="none" stroke="black" points="16.38,-24.88 16.38,-43.12 103.62,-43.12 103.62,-24.88 16.38,-24.88"/>
</a>
</g>
</g>
<!-- transport infrastructure&#45;&gt;transportFacility -->
<g id="edge4" class="edge">
<title>transport infrastructure&#45;&gt;transportFacility</title>
<path fill="none" stroke="black" d="M157.31,-101.6C139.12,-89.15 114.16,-72.07 94.07,-58.32"/>
<polygon fill="black" stroke="black" points="96.13,-55.49 85.9,-52.73 92.18,-61.26 96.13,-55.49"/>
<text xml:space="preserve" text-anchor="middle" x="154.18" y="-73.05" font-family="Arial" font-size="11.00"> system of </text>
</g>
<!-- Invis&#45;&gt;transportFacility -->
</g>
</svg>
