<?xml version="1.0" encoding="UTF-8" standalone="no"?>
<!DOCTYPE svg PUBLIC "-//W3C//DTD SVG 1.1//EN"
 "http://www.w3.org/Graphics/SVG/1.1/DTD/svg11.dtd">
<!-- Generated by graphviz version 14.1.3 (20260303.0454)
 -->
<!-- Pages: 1 -->
<svg width="241pt" height="292pt"
 viewBox="0.00 0.00 241.00 292.00" xmlns="http://www.w3.org/2000/svg" xmlns:xlink="http://www.w3.org/1999/xlink">
<g id="graph0" class="graph" transform="scale(1 1) rotate(0) translate(4 287.5)">
<polygon fill="white" stroke="none" points="-4,4 -4,-287.5 236.9,-287.5 236.9,4 -4,4"/>
<g id="clust2" class="cluster">
<title>cluster_associated</title>
</g>
<!-- transport user need -->
<g id="node1" class="node">
<title>transport user need</title>
<polygon fill="lightgray" stroke="none" points="110.62,-184.38 110.62,-200.62 215.38,-200.62 215.38,-184.38 110.62,-184.38"/>
<text xml:space="preserve" text-anchor="start" x="111.62" y="-188.38" font-family="Arial" font-size="12.00">transport user need</text>
<polygon fill="none" stroke="black" points="109.62,-183.38 109.62,-201.62 216.38,-201.62 216.38,-183.38 109.62,-183.38"/>
</g>
<!-- userNeed -->
<g id="node2" class="node">
<title>userNeed</title>
<g id="a_node2"><a xlink:href="../terms/user need.md" xlink:title="&lt;TABLE&gt;" target="_top">
<polygon fill="lightgray" stroke="none" points="135.38,-257.38 135.38,-273.62 190.62,-273.62 190.62,-257.38 135.38,-257.38"/>
<text xml:space="preserve" text-anchor="start" x="136.38" y="-261.38" font-family="Arial" font-size="12.00">user need</text>
<polygon fill="none" stroke="black" points="134.38,-256.38 134.38,-274.62 191.62,-274.62 191.62,-256.38 134.38,-256.38"/>
</a>
</g>
</g>
<!-- transport user need&#45;&gt;userNeed -->
<g id="edge1" class="edge">
<title>transport user need&#45;&gt;userNeed</title>
<path fill="none" stroke="black" d="M163,-210.21C163,-217.97 163,-227.42 163,-236.24"/>
<polygon fill="none" stroke="black" points="159.5,-236.16 163,-246.16 166.5,-236.16 159.5,-236.16"/>
</g>
<!-- Invis -->
<!-- transport user need&#45;&gt;Invis -->
<!-- materialEntity -->
<g id="node4" class="node">
<title>materialEntity</title>
<g id="a_node4"><a xlink:href="../terms/material entity.md" xlink:title="&lt;TABLE&gt;" target="_top">
<polygon fill="lightgray" stroke="none" points="16.88,-98.88 16.88,-115.12 93.12,-115.12 93.12,-98.88 16.88,-98.88"/>
<text xml:space="preserve" text-anchor="start" x="17.88" y="-102.88" font-family="Arial" font-size="12.00">material entity</text>
<polygon fill="none" stroke="black" points="15.88,-97.88 15.88,-116.12 94.12,-116.12 94.12,-97.88 15.88,-97.88"/>
</a>
</g>
</g>
<!-- transport user need&#45;&gt;materialEntity -->
<g id="edge5" class="edge">
<title>transport user need&#45;&gt;materialEntity</title>
<path fill="none" stroke="black" d="M109.63,-175.39C87.65,-168.28 66.46,-160.62 63,-156.5 58.17,-150.75 55.72,-143.23 54.57,-135.83"/>
<polygon fill="black" stroke="black" points="58.08,-135.79 53.82,-126.09 51.1,-136.33 58.08,-135.79"/>
<text xml:space="preserve" text-anchor="middle" x="109.5" y="-146.05" font-family="Arial" font-size="11.00"> desire to transport </text>
</g>
<!-- transportUser -->
<g id="node5" class="node">
<title>transportUser</title>
<g id="a_node5"><a xlink:href="../terms/transport user.md" xlink:title="&lt;TABLE&gt;" target="_top">
<polygon fill="lightgray" stroke="none" points="18.62,-25.88 18.62,-42.12 93.38,-42.12 93.38,-25.88 18.62,-25.88"/>
<text xml:space="preserve" text-anchor="start" x="19.62" y="-29.88" font-family="Arial" font-size="12.00">transport user</text>
<polygon fill="none" stroke="black" points="17.62,-24.88 17.62,-43.12 94.38,-43.12 94.38,-24.88 17.62,-24.88"/>
</a>
</g>
</g>
<!-- transport user need&#45;&gt;transportUser -->
<g id="edge6" class="edge">
<title>transport user need&#45;&gt;transportUser</title>
<path fill="none" stroke="black" d="M163.02,-174.62C162.44,-164.95 160.69,-152.83 156,-143 139.97,-109.41 109.81,-79.08 86.78,-59.17"/>
<polygon fill="black" stroke="black" points="89.1,-56.55 79.2,-52.79 84.6,-61.9 89.1,-56.55"/>
<text xml:space="preserve" text-anchor="middle" x="189.03" y="-103.3" font-family="Arial" font-size="11.00"> desired results of </text>
</g>
<!-- Invis&#45;&gt;materialEntity -->
<!-- materialEntity&#45;&gt;transportUser -->
</g>
</svg>
