<?xml version="1.0" encoding="UTF-8" standalone="no"?>
<!DOCTYPE svg PUBLIC "-//W3C//DTD SVG 1.1//EN"
 "http://www.w3.org/Graphics/SVG/1.1/DTD/svg11.dtd">
<!-- Generated by graphviz version 14.1.3 (20260303.0454)
 -->
<!-- Pages: 1 -->
<svg width="266pt" height="162pt"
 viewBox="0.00 0.00 266.00 162.00" xmlns="http://www.w3.org/2000/svg" xmlns:xlink="http://www.w3.org/1999/xlink">
<g id="graph0" class="graph" transform="scale(1 1) rotate(0) translate(4 157.5)">
<polygon fill="white" stroke="none" points="-4,4 -4,-157.5 261.62,-157.5 261.62,4 -4,4"/>
<g id="clust2" class="cluster">
<title>cluster_associated</title>
</g>
<!-- transport sharing -->
<g id="node1" class="node">
<title>transport sharing</title>
<polygon fill="lightgray" stroke="none" points="1,-111.38 1,-127.62 92.25,-127.62 92.25,-111.38 1,-111.38"/>
<text xml:space="preserve" text-anchor="start" x="2" y="-115.38" font-family="Arial" font-size="12.00">transport sharing</text>
<polygon fill="none" stroke="black" points="0,-110.38 0,-128.62 93.25,-128.62 93.25,-110.38 0,-110.38"/>
</g>
<!-- Invis -->
<!-- transport sharing&#45;&gt;Invis -->
<!-- sharedTransportService -->
<g id="node3" class="node">
<title>sharedTransportService</title>
<g id="a_node3"><a xlink:href="../terms/shared transport service.md" xlink:title="&lt;TABLE&gt;" target="_top">
<polygon fill="lightgray" stroke="none" points="110.88,-25.88 110.88,-42.12 240.38,-42.12 240.38,-25.88 110.88,-25.88"/>
<text xml:space="preserve" text-anchor="start" x="111.88" y="-29.88" font-family="Arial" font-size="12.00">shared transport service</text>
<polygon fill="none" stroke="black" points="109.88,-24.88 109.88,-43.12 241.38,-43.12 241.38,-24.88 109.88,-24.88"/>
</a>
</g>
</g>
<!-- transport sharing&#45;&gt;sharedTransportService -->
<g id="edge3" class="edge">
<title>transport sharing&#45;&gt;sharedTransportService</title>
<path fill="none" stroke="black" d="M72.73,-101.6C92.14,-89.04 118.84,-71.76 140.18,-57.94"/>
<polygon fill="black" stroke="black" points="141.8,-61.07 148.29,-52.69 137.99,-55.19 141.8,-61.07"/>
<text xml:space="preserve" text-anchor="middle" x="134.6" y="-73.05" font-family="Arial" font-size="11.00"> using </text>
</g>
<!-- Invis&#45;&gt;sharedTransportService -->
</g>
</svg>
