<?xml version="1.0" encoding="UTF-8" standalone="no"?>
<!DOCTYPE svg PUBLIC "-//W3C//DTD SVG 1.1//EN"
 "http://www.w3.org/Graphics/SVG/1.1/DTD/svg11.dtd">
<!-- Generated by graphviz version 14.1.3 (20260303.0454)
 -->
<!-- Pages: 1 -->
<svg width="168pt" height="162pt"
 viewBox="0.00 0.00 168.00 162.00" xmlns="http://www.w3.org/2000/svg" xmlns:xlink="http://www.w3.org/1999/xlink">
<g id="graph0" class="graph" transform="scale(1 1) rotate(0) translate(4 157.5)">
<polygon fill="white" stroke="none" points="-4,4 -4,-157.5 164,-157.5 164,4 -4,4"/>
<g id="clust2" class="cluster">
<title>cluster_associated</title>
</g>
<!-- traveller -->
<g id="node1" class="node">
<title>traveller</title>
<g id="a_node1"><a xlink:href="../terms/traveller.md" xlink:title="&lt;TABLE&gt;">
<polygon fill="lightgray" stroke="none" points="4.62,-111.38 4.62,-127.62 49.38,-127.62 49.38,-111.38 4.62,-111.38"/>
<text xml:space="preserve" text-anchor="start" x="5.62" y="-115.38" font-family="Arial" font-size="12.00">traveller</text>
<polygon fill="none" stroke="black" points="3.62,-110.38 3.62,-128.62 50.38,-128.62 50.38,-110.38 3.62,-110.38"/>
</a>
</g>
</g>
<!-- Invis -->
<!-- traveller&#45;&gt;Invis -->
<!-- person -->
<g id="node3" class="node">
<title>person</title>
<g id="a_node3"><a xlink:href="../terms/person.md" xlink:title="&lt;TABLE&gt;" target="_top">
<polygon fill="lightgray" stroke="none" points="97.62,-25.88 97.62,-42.12 136.38,-42.12 136.38,-25.88 97.62,-25.88"/>
<text xml:space="preserve" text-anchor="start" x="98.62" y="-29.88" font-family="Arial" font-size="12.00">person</text>
<polygon fill="none" stroke="black" points="96.62,-24.88 96.62,-43.12 137.38,-43.12 137.38,-24.88 96.62,-24.88"/>
</a>
</g>
</g>
<!-- traveller&#45;&gt;person -->
<g id="edge3" class="edge">
<title>traveller&#45;&gt;person</title>
<path fill="none" stroke="black" d="M45.21,-101.6C58.27,-89.49 76.05,-73 90.65,-59.45"/>
<polygon fill="black" stroke="black" points="92.75,-62.27 97.7,-52.9 87.99,-57.14 92.75,-62.27"/>
<text xml:space="preserve" text-anchor="middle" x="88.64" y="-73.05" font-family="Arial" font-size="11.00"> is a </text>
</g>
<!-- Invis&#45;&gt;person -->
</g>
</svg>
