<?xml version="1.0" encoding="UTF-8" standalone="no"?>
<!DOCTYPE svg PUBLIC "-//W3C//DTD SVG 1.1//EN"
 "http://www.w3.org/Graphics/SVG/1.1/DTD/svg11.dtd">
<!-- Generated by graphviz version 14.1.3 (20260303.0454)
 -->
<!-- Pages: 1 -->
<svg width="186pt" height="162pt"
 viewBox="0.00 0.00 186.00 162.00" xmlns="http://www.w3.org/2000/svg" xmlns:xlink="http://www.w3.org/1999/xlink">
<g id="graph0" class="graph" transform="scale(1 1) rotate(0) translate(4 157.5)">
<polygon fill="white" stroke="none" points="-4,4 -4,-157.5 181.75,-157.5 181.75,4 -4,4"/>
<g id="clust2" class="cluster">
<title>cluster_associated</title>
</g>
<!-- usable width -->
<g id="node1" class="node">
<title>usable width</title>
<polygon fill="lightgray" stroke="none" points="1,-111.38 1,-127.62 70.5,-127.62 70.5,-111.38 1,-111.38"/>
<text xml:space="preserve" text-anchor="start" x="2" y="-115.38" font-family="Arial" font-size="12.00">usable width</text>
<polygon fill="none" stroke="black" points="0,-110.38 0,-128.62 71.5,-128.62 71.5,-110.38 0,-110.38"/>
</g>
<!-- Invis -->
<!-- usable width&#45;&gt;Invis -->
<!-- trafficLane -->
<g id="node3" class="node">
<title>trafficLane</title>
<g id="a_node3"><a xlink:href="../terms/traffic lane.md" xlink:title="&lt;TABLE&gt;" target="_top">
<polygon fill="lightgray" stroke="none" points="104.38,-25.88 104.38,-42.12 161.12,-42.12 161.12,-25.88 104.38,-25.88"/>
<text xml:space="preserve" text-anchor="start" x="105.38" y="-29.88" font-family="Arial" font-size="12.00">traffic lane</text>
<polygon fill="none" stroke="black" points="103.38,-24.88 103.38,-43.12 162.12,-43.12 162.12,-24.88 103.38,-24.88"/>
</a>
</g>
</g>
<!-- usable width&#45;&gt;trafficLane -->
<g id="edge3" class="edge">
<title>usable width&#45;&gt;trafficLane</title>
<path fill="none" stroke="black" d="M46.49,-101.96C53.52,-91.94 63.36,-79.34 74,-70 80.07,-64.67 87.07,-59.7 94.07,-55.28"/>
<polygon fill="black" stroke="black" points="95.46,-58.52 102.23,-50.38 91.86,-52.52 95.46,-58.52"/>
<text xml:space="preserve" text-anchor="middle" x="101.38" y="-73.05" font-family="Arial" font-size="11.00"> comprises </text>
</g>
<!-- Invis&#45;&gt;trafficLane -->
</g>
</svg>
