<?xml version="1.0" encoding="UTF-8" standalone="no"?>
<!DOCTYPE svg PUBLIC "-//W3C//DTD SVG 1.1//EN"
 "http://www.w3.org/Graphics/SVG/1.1/DTD/svg11.dtd">
<!-- Generated by graphviz version 14.1.3 (20260303.0454)
 -->
<!-- Pages: 1 -->
<svg width="168pt" height="162pt"
 viewBox="0.00 0.00 168.00 162.00" xmlns="http://www.w3.org/2000/svg" xmlns:xlink="http://www.w3.org/1999/xlink">
<g id="graph0" class="graph" transform="scale(1 1) rotate(0) translate(4 157.5)">
<polygon fill="white" stroke="none" points="-4,4 -4,-157.5 164,-157.5 164,4 -4,4"/>
<g id="clust2" class="cluster">
<title>cluster_associated</title>
</g>
<!-- use case -->
<g id="node1" class="node">
<title>use case</title>
<polygon fill="lightgray" stroke="none" points="2,-111.38 2,-127.62 52,-127.62 52,-111.38 2,-111.38"/>
<text xml:space="preserve" text-anchor="start" x="3" y="-115.38" font-family="Arial" font-size="12.00">use case</text>
<polygon fill="none" stroke="black" points="1,-110.38 1,-128.62 53,-128.62 53,-110.38 1,-110.38"/>
</g>
<!-- Invis -->
<!-- use case&#45;&gt;Invis -->
<!-- scenario -->
<g id="node3" class="node">
<title>scenario</title>
<g id="a_node3"><a xlink:href="../terms/scenario.md" xlink:title="&lt;TABLE&gt;" target="_top">
<polygon fill="lightgray" stroke="none" points="93.12,-25.88 93.12,-42.12 140.88,-42.12 140.88,-25.88 93.12,-25.88"/>
<text xml:space="preserve" text-anchor="start" x="94.12" y="-29.88" font-family="Arial" font-size="12.00">scenario</text>
<polygon fill="none" stroke="black" points="92.12,-24.88 92.12,-43.12 141.88,-43.12 141.88,-24.88 92.12,-24.88"/>
</a>
</g>
</g>
<!-- use case&#45;&gt;scenario -->
<g id="edge3" class="edge">
<title>use case&#45;&gt;scenario</title>
<path fill="none" stroke="black" d="M33.14,-101.69C37.48,-91.57 44.12,-78.95 53,-70 60.66,-62.27 70.39,-55.79 79.93,-50.59"/>
<polygon fill="black" stroke="black" points="81.41,-53.76 88.76,-46.13 78.26,-47.51 81.41,-53.76"/>
<text xml:space="preserve" text-anchor="middle" x="83" y="-73.05" font-family="Arial" font-size="11.00"> aggregates </text>
</g>
<!-- Invis&#45;&gt;scenario -->
</g>
</svg>
