<?xml version="1.0" encoding="UTF-8" standalone="no"?>
<!DOCTYPE svg PUBLIC "-//W3C//DTD SVG 1.1//EN"
 "http://www.w3.org/Graphics/SVG/1.1/DTD/svg11.dtd">
<!-- Generated by graphviz version 14.1.3 (20260303.0454)
 -->
<!-- Pages: 1 -->
<svg width="172pt" height="162pt"
 viewBox="0.00 0.00 172.00 162.00" xmlns="http://www.w3.org/2000/svg" xmlns:xlink="http://www.w3.org/1999/xlink">
<g id="graph0" class="graph" transform="scale(1 1) rotate(0) translate(4 157.5)">
<polygon fill="white" stroke="none" points="-4,4 -4,-157.5 167.62,-157.5 167.62,4 -4,4"/>
<g id="clust2" class="cluster">
<title>cluster_associated</title>
</g>
<!-- user need -->
<g id="node1" class="node">
<title>user need</title>
<polygon fill="lightgray" stroke="none" points="1,-111.38 1,-127.62 56.25,-127.62 56.25,-111.38 1,-111.38"/>
<text xml:space="preserve" text-anchor="start" x="2" y="-115.38" font-family="Arial" font-size="12.00">user need</text>
<polygon fill="none" stroke="black" points="0,-110.38 0,-128.62 57.25,-128.62 57.25,-110.38 0,-110.38"/>
</g>
<!-- Invis -->
<!-- user need&#45;&gt;Invis -->
<!-- user -->
<g id="node3" class="node">
<title>user</title>
<g id="a_node3"><a xlink:href="../terms/user.md" xlink:title="&lt;TABLE&gt;" target="_top">
<polygon fill="lightgray" stroke="none" points="108,-25.88 108,-42.12 133.25,-42.12 133.25,-25.88 108,-25.88"/>
<text xml:space="preserve" text-anchor="start" x="109" y="-29.88" font-family="Arial" font-size="12.00">user</text>
<polygon fill="none" stroke="black" points="107,-24.88 107,-43.12 134.25,-43.12 134.25,-24.88 107,-24.88"/>
</a>
</g>
</g>
<!-- user need&#45;&gt;user -->
<g id="edge3" class="edge">
<title>user need&#45;&gt;user</title>
<path fill="none" stroke="black" d="M24.29,-101.82C22.68,-91.75 22.55,-79.14 28.88,-70 41.05,-52.43 63.31,-43.67 82.85,-39.31"/>
<polygon fill="black" stroke="black" points="83.28,-42.79 92.46,-37.5 81.99,-35.91 83.28,-42.79"/>
<text xml:space="preserve" text-anchor="middle" x="72.75" y="-73.05" font-family="Arial" font-size="11.00"> desired results of </text>
</g>
<!-- Invis&#45;&gt;user -->
</g>
</svg>
