<?xml version="1.0" encoding="UTF-8" standalone="no"?>
<!DOCTYPE svg PUBLIC "-//W3C//DTD SVG 1.1//EN"
 "http://www.w3.org/Graphics/SVG/1.1/DTD/svg11.dtd">
<!-- Generated by graphviz version 14.1.3 (20260303.0454)
 -->
<!-- Pages: 1 -->
<svg width="474pt" height="669pt"
 viewBox="0.00 0.00 474.00 669.00" xmlns="http://www.w3.org/2000/svg" xmlns:xlink="http://www.w3.org/1999/xlink">
<g id="graph0" class="graph" transform="scale(1 1) rotate(0) translate(4 665)">
<polygon fill="white" stroke="none" points="-4,4 -4,-665 469.89,-665 469.89,4 -4,4"/>
<g id="clust2" class="cluster">
<title>cluster_associated</title>
</g>
<!-- vehicle -->
<g id="node1" class="node">
<title>vehicle</title>
<g id="a_node1"><a xlink:href="../terms/vehicle.md" xlink:title="&lt;TABLE&gt;">
<polygon fill="lightgray" stroke="none" points="304.64,-557.5 304.64,-573.75 464.89,-573.75 464.89,-557.5 304.64,-557.5"/>
<text xml:space="preserve" text-anchor="start" x="365.64" y="-561.5" font-family="Arial" font-size="12.00">vehicle</text>
<text xml:space="preserve" text-anchor="start" x="305.64" y="-545.25" font-family="Arial" font-size="12.00">purpose = transport ppl/goods</text>
<polygon fill="none" stroke="black" points="303.64,-540.25 303.64,-574.75 465.89,-574.75 465.89,-540.25 303.64,-540.25"/>
</a>
</g>
</g>
<!-- materialEntity -->
<g id="node2" class="node">
<title>materialEntity</title>
<g id="a_node2"><a xlink:href="../terms/material entity.md" xlink:title="&lt;TABLE&gt;" target="_top">
<polygon fill="lightgray" stroke="none" points="372.64,-634.88 372.64,-651.12 448.89,-651.12 448.89,-634.88 372.64,-634.88"/>
<text xml:space="preserve" text-anchor="start" x="373.64" y="-638.88" font-family="Arial" font-size="12.00">material entity</text>
<polygon fill="none" stroke="black" points="371.64,-633.88 371.64,-652.12 449.89,-652.12 449.89,-633.88 371.64,-633.88"/>
</a>
</g>
</g>
<!-- vehicle&#45;&gt;materialEntity -->
<g id="edge1" class="edge">
<title>vehicle&#45;&gt;materialEntity</title>
<path fill="none" stroke="black" d="M390.67,-575.18C392.67,-580.96 394.87,-587.5 396.77,-593.5 398.9,-600.25 401.07,-607.56 403.06,-614.41"/>
<polygon fill="none" stroke="black" points="399.65,-615.22 405.76,-623.87 406.38,-613.3 399.65,-615.22"/>
</g>
<!-- Invis -->
<!-- vehicle&#45;&gt;Invis -->
<!-- vehicleInputDevice -->
<g id="node9" class="node">
<title>vehicleInputDevice</title>
<g id="a_node9"><a xlink:href="../terms/vehicle input device.md" xlink:title="&lt;TABLE&gt;" target="_top">
<polygon fill="lightgray" stroke="none" points="48.89,-98.88 48.89,-115.12 156.64,-115.12 156.64,-98.88 48.89,-98.88"/>
<text xml:space="preserve" text-anchor="start" x="49.89" y="-102.88" font-family="Arial" font-size="12.00">vehicle input device</text>
<polygon fill="none" stroke="black" points="47.89,-97.88 47.89,-116.12 157.64,-116.12 157.64,-97.88 47.89,-97.88"/>
</a>
</g>
</g>
<!-- vehicle&#45;&gt;vehicleInputDevice -->
<g id="edge13" class="edge">
<title>vehicle&#45;&gt;vehicleInputDevice</title>
<path fill="none" stroke="black" d="M377.89,-539.54C371.77,-522.89 363.77,-496.62 363.77,-473 363.77,-473 363.77,-473 363.77,-179 363.77,-138.61 245.89,-120.44 168.58,-112.87"/>
<polygon fill="black" stroke="black" points="169.27,-109.42 158.99,-111.97 168.62,-116.39 169.27,-109.42"/>
<text xml:space="preserve" text-anchor="middle" x="375.39" y="-322.3" font-family="Arial" font-size="11.00"> has </text>
</g>
<!-- n2ae3f3e0a8a548ebaaa6f1c67d7699a2b2 -->
<g id="node11" class="node">
<title>n2ae3f3e0a8a548ebaaa6f1c67d7699a2b2</title>
<polygon fill="lightyellow" stroke="none" points="108.02,-633.88 108.02,-652.12 167.52,-652.12 167.52,-633.88 108.02,-633.88"/>
<text xml:space="preserve" text-anchor="start" x="110.02" y="-638.88" font-family="Arial" font-size="12.00">«unionOf»</text>
<polygon fill="none" stroke="black" points="108.02,-633.88 108.02,-652.12 167.52,-652.12 167.52,-633.88 108.02,-633.88"/>
</g>
<!-- vehicle&#45;&gt;n2ae3f3e0a8a548ebaaa6f1c67d7699a2b2 -->
<g id="edge12" class="edge">
<title>vehicle&#45;&gt;n2ae3f3e0a8a548ebaaa6f1c67d7699a2b2</title>
<path fill="none" stroke="black" d="M310.02,-575.45C289.94,-580.62 268.36,-586.75 248.77,-593.5 224.73,-601.79 198.63,-613.07 177.79,-622.66"/>
<polygon fill="black" stroke="black" points="176.36,-619.46 168.77,-626.86 179.32,-625.81 176.36,-619.46"/>
<text xml:space="preserve" text-anchor="middle" x="295.27" y="-596.55" font-family="Arial" font-size="11.00"> DDT controlled by </text>
</g>
<!-- n2ae3f3e0a8a548ebaaa6f1c67d7699a2b8 -->
<g id="node12" class="node">
<title>n2ae3f3e0a8a548ebaaa6f1c67d7699a2b8</title>
<polygon fill="lightyellow" stroke="none" points="294.02,-633.88 294.02,-652.12 353.52,-652.12 353.52,-633.88 294.02,-633.88"/>
<text xml:space="preserve" text-anchor="start" x="296.02" y="-638.88" font-family="Arial" font-size="12.00">«unionOf»</text>
<polygon fill="none" stroke="black" points="294.02,-633.88 294.02,-652.12 353.52,-652.12 353.52,-633.88 294.02,-633.88"/>
</g>
<!-- vehicle&#45;&gt;n2ae3f3e0a8a548ebaaa6f1c67d7699a2b8 -->
<g id="edge16" class="edge">
<title>vehicle&#45;&gt;n2ae3f3e0a8a548ebaaa6f1c67d7699a2b8</title>
<path fill="none" stroke="black" d="M369.48,-575.17C364.52,-580.84 359.12,-587.31 354.52,-593.5 349.29,-600.54 344.02,-608.47 339.36,-615.85"/>
<polygon fill="black" stroke="black" points="336.51,-613.8 334.23,-624.15 342.47,-617.48 336.51,-613.8"/>
<text xml:space="preserve" text-anchor="middle" x="373.64" y="-596.55" font-family="Arial" font-size="11.00"> can be </text>
</g>
<!-- ads -->
<g id="node4" class="node">
<title>ads</title>
<g id="a_node4"><a xlink:href="../terms/ADS.md" xlink:title="&lt;TABLE&gt;" target="_top">
<polygon fill="lightgray" stroke="none" points="61.02,-463.88 61.02,-480.12 88.52,-480.12 88.52,-463.88 61.02,-463.88"/>
<text xml:space="preserve" text-anchor="start" x="62.02" y="-467.88" font-family="Arial" font-size="12.00">ADS</text>
<polygon fill="none" stroke="black" points="60.02,-462.88 60.02,-481.12 89.52,-481.12 89.52,-462.88 60.02,-462.88"/>
</a>
</g>
</g>
<!-- Invis&#45;&gt;ads -->
<!-- connected -->
<g id="node5" class="node">
<title>connected</title>
<g id="a_node5"><a xlink:href="../terms/connected.md" xlink:title="&lt;TABLE&gt;" target="_top">
<polygon fill="lightgray" stroke="none" points="51.02,-390.88 51.02,-407.12 108.52,-407.12 108.52,-390.88 51.02,-390.88"/>
<text xml:space="preserve" text-anchor="start" x="52.02" y="-394.88" font-family="Arial" font-size="12.00">connected</text>
<polygon fill="none" stroke="black" points="50.02,-389.88 50.02,-408.12 109.52,-408.12 109.52,-389.88 50.02,-389.88"/>
</a>
</g>
</g>
<!-- ads&#45;&gt;connected -->
<!-- driver -->
<g id="node6" class="node">
<title>driver</title>
<g id="a_node6"><a xlink:href="../terms/driver.md" xlink:title="&lt;TABLE&gt;" target="_top">
<polygon fill="lightgray" stroke="none" points="100.77,-317.88 100.77,-334.12 132.77,-334.12 132.77,-317.88 100.77,-317.88"/>
<text xml:space="preserve" text-anchor="start" x="101.77" y="-321.88" font-family="Arial" font-size="12.00">driver</text>
<polygon fill="none" stroke="black" points="99.77,-316.88 99.77,-335.12 133.77,-335.12 133.77,-316.88 99.77,-316.88"/>
</a>
</g>
</g>
<!-- connected&#45;&gt;driver -->
<!-- motor -->
<g id="node7" class="node">
<title>motor</title>
<g id="a_node7"><a xlink:href="../terms/motor.md" xlink:title="&lt;TABLE&gt;" target="_top">
<polygon fill="lightgray" stroke="none" points="100.77,-244.88 100.77,-261.12 132.77,-261.12 132.77,-244.88 100.77,-244.88"/>
<text xml:space="preserve" text-anchor="start" x="101.77" y="-248.88" font-family="Arial" font-size="12.00">motor</text>
<polygon fill="none" stroke="black" points="99.77,-243.88 99.77,-262.12 133.77,-262.12 133.77,-243.88 99.77,-243.88"/>
</a>
</g>
</g>
<!-- driver&#45;&gt;motor -->
<!-- off&#45;grid -->
<g id="node8" class="node">
<title>off&#45;grid</title>
<g id="a_node8"><a xlink:href="../terms/off-grid.md" xlink:title="&lt;TABLE&gt;" target="_top">
<polygon fill="lightgray" stroke="none" points="97.39,-171.88 97.39,-188.12 136.14,-188.12 136.14,-171.88 97.39,-171.88"/>
<text xml:space="preserve" text-anchor="start" x="98.39" y="-175.88" font-family="Arial" font-size="12.00">off&#45;grid</text>
<polygon fill="none" stroke="black" points="96.39,-170.88 96.39,-189.12 137.14,-189.12 137.14,-170.88 96.39,-170.88"/>
</a>
</g>
</g>
<!-- motor&#45;&gt;off&#45;grid -->
<!-- off&#45;grid&#45;&gt;vehicleInputDevice -->
<!-- wheel -->
<g id="node10" class="node">
<title>wheel</title>
<g id="a_node10"><a xlink:href="../terms/wheel.md" xlink:title="&lt;TABLE&gt;" target="_top">
<polygon fill="lightgray" stroke="none" points="85.64,-25.88 85.64,-42.12 119.89,-42.12 119.89,-25.88 85.64,-25.88"/>
<text xml:space="preserve" text-anchor="start" x="86.64" y="-29.88" font-family="Arial" font-size="12.00">wheel</text>
<polygon fill="none" stroke="black" points="84.64,-24.88 84.64,-43.12 120.89,-43.12 120.89,-24.88 84.64,-24.88"/>
</a>
</g>
</g>
<!-- vehicleInputDevice&#45;&gt;wheel -->
<!-- n2ae3f3e0a8a548ebaaa6f1c67d7699a2b2&#45;&gt;ads -->
<g id="edge10" class="edge">
<title>n2ae3f3e0a8a548ebaaa6f1c67d7699a2b2&#45;&gt;ads</title>
<path fill="none" stroke="black" stroke-dasharray="1,5" d="M108.13,-638.08C76.91,-632.19 29.27,-617.83 7.02,-583.5 -3.62,-567.09 -0.55,-557.53 7.02,-539.5 14.01,-522.83 27.45,-508.24 40.53,-497"/>
<polygon fill="black" stroke="black" points="42.7,-499.75 48.26,-490.73 38.29,-494.31 42.7,-499.75"/>
<text xml:space="preserve" text-anchor="middle" x="26.89" y="-553.8" font-family="Arial" font-size="11.00">member</text>
</g>
<!-- n2ae3f3e0a8a548ebaaa6f1c67d7699a2b2&#45;&gt;driver -->
<g id="edge11" class="edge">
<title>n2ae3f3e0a8a548ebaaa6f1c67d7699a2b2&#45;&gt;driver</title>
<path fill="none" stroke="black" stroke-dasharray="1,5" d="M137.77,-625.05C137.77,-608.18 137.77,-581.55 137.77,-558.5 137.77,-558.5 137.77,-558.5 137.77,-398 137.77,-383.19 133.51,-367.32 128.83,-354.35"/>
<polygon fill="black" stroke="black" points="132.16,-353.25 125.26,-345.21 125.64,-355.8 132.16,-353.25"/>
<text xml:space="preserve" text-anchor="middle" x="157.64" y="-468.3" font-family="Arial" font-size="11.00">member</text>
</g>
<!-- n2ae3f3e0a8a548ebaaa6f1c67d7699a2b8&#45;&gt;connected -->
<g id="edge14" class="edge">
<title>n2ae3f3e0a8a548ebaaa6f1c67d7699a2b8&#45;&gt;connected</title>
<path fill="none" stroke="black" stroke-dasharray="1,5" d="M294.03,-640.97C268.21,-638.41 231.76,-630.52 210.77,-607 164.67,-555.37 222.86,-509.69 181.77,-454 166.71,-433.59 141.59,-420.16 120.06,-411.79"/>
<polygon fill="black" stroke="black" points="121.53,-408.61 110.94,-408.5 119.15,-415.19 121.53,-408.61"/>
<text xml:space="preserve" text-anchor="middle" x="217.07" y="-511.05" font-family="Arial" font-size="11.00">member</text>
</g>
<!-- n2ae3f3e0a8a548ebaaa6f1c67d7699a2b8&#45;&gt;off&#45;grid -->
<g id="edge15" class="edge">
<title>n2ae3f3e0a8a548ebaaa6f1c67d7699a2b8&#45;&gt;off&#45;grid</title>
<path fill="none" stroke="black" stroke-dasharray="1,5" d="M322.39,-625.4C320.85,-615.36 317.61,-602.75 310.77,-593.5 305.78,-586.76 299.79,-590.21 294.77,-583.5 276.02,-558.47 275.77,-547.02 275.77,-515.75 275.77,-515.75 275.77,-515.75 275.77,-252 275.77,-199.33 202.12,-185.46 155.07,-181.98"/>
<polygon fill="black" stroke="black" points="155.44,-178.5 145.25,-181.39 155.02,-185.49 155.44,-178.5"/>
<text xml:space="preserve" text-anchor="middle" x="295.64" y="-395.3" font-family="Arial" font-size="11.00">member</text>
</g>
</g>
</svg>
