<?xml version="1.0" encoding="UTF-8" standalone="no"?>
<!DOCTYPE svg PUBLIC "-//W3C//DTD SVG 1.1//EN"
 "http://www.w3.org/Graphics/SVG/1.1/DTD/svg11.dtd">
<!-- Generated by graphviz version 14.1.3 (20260303.0454)
 -->
<!-- Pages: 1 -->
<svg width="204pt" height="162pt"
 viewBox="0.00 0.00 204.00 162.00" xmlns="http://www.w3.org/2000/svg" xmlns:xlink="http://www.w3.org/1999/xlink">
<g id="graph0" class="graph" transform="scale(1 1) rotate(0) translate(4 157.5)">
<polygon fill="white" stroke="none" points="-4,4 -4,-157.5 200.12,-157.5 200.12,4 -4,4"/>
<g id="clust2" class="cluster">
<title>cluster_associated</title>
</g>
<!-- vehicle fuel type -->
<g id="node1" class="node">
<title>vehicle fuel type</title>
<polygon fill="lightgray" stroke="none" points="1,-111.38 1,-127.62 89.25,-127.62 89.25,-111.38 1,-111.38"/>
<text xml:space="preserve" text-anchor="start" x="2" y="-115.38" font-family="Arial" font-size="12.00">vehicle fuel type</text>
<polygon fill="none" stroke="black" points="0,-110.38 0,-128.62 90.25,-128.62 90.25,-110.38 0,-110.38"/>
</g>
<!-- Invis -->
<!-- vehicle fuel type&#45;&gt;Invis -->
<!-- vehicle -->
<g id="node3" class="node">
<title>vehicle</title>
<g id="a_node3"><a xlink:href="../terms/vehicle.md" xlink:title="&lt;TABLE&gt;" target="_top">
<polygon fill="lightgray" stroke="none" points="133,-25.88 133,-42.12 173.25,-42.12 173.25,-25.88 133,-25.88"/>
<text xml:space="preserve" text-anchor="start" x="134" y="-29.88" font-family="Arial" font-size="12.00">vehicle</text>
<polygon fill="none" stroke="black" points="132,-24.88 132,-43.12 174.25,-43.12 174.25,-24.88 132,-24.88"/>
</a>
</g>
</g>
<!-- vehicle fuel type&#45;&gt;vehicle -->
<g id="edge3" class="edge">
<title>vehicle fuel type&#45;&gt;vehicle</title>
<path fill="none" stroke="black" d="M56.39,-101.76C63.77,-91.67 74.12,-79.05 85.38,-70 94.58,-62.59 105.6,-56.1 116.06,-50.78"/>
<polygon fill="black" stroke="black" points="117.39,-54.02 124.87,-46.52 114.34,-47.72 117.39,-54.02"/>
<text xml:space="preserve" text-anchor="middle" x="117.25" y="-73.05" font-family="Arial" font-size="11.00"> fuel used by </text>
</g>
<!-- Invis&#45;&gt;vehicle -->
</g>
</svg>
