<?xml version="1.0" encoding="UTF-8" standalone="no"?>
<!DOCTYPE svg PUBLIC "-//W3C//DTD SVG 1.1//EN"
 "http://www.w3.org/Graphics/SVG/1.1/DTD/svg11.dtd">
<!-- Generated by graphviz version 14.1.3 (20260303.0454)
 -->
<!-- Pages: 1 -->
<svg width="208pt" height="235pt"
 viewBox="0.00 0.00 208.00 235.00" xmlns="http://www.w3.org/2000/svg" xmlns:xlink="http://www.w3.org/1999/xlink">
<g id="graph0" class="graph" transform="scale(1 1) rotate(0) translate(4 230.5)">
<polygon fill="white" stroke="none" points="-4,4 -4,-230.5 204,-230.5 204,4 -4,4"/>
<g id="clust2" class="cluster">
<title>cluster_associated</title>
</g>
<!-- vehicle occupant -->
<g id="node1" class="node">
<title>vehicle occupant</title>
<polygon fill="lightgray" stroke="none" points="1,-184.38 1,-200.62 93,-200.62 93,-184.38 1,-184.38"/>
<text xml:space="preserve" text-anchor="start" x="2" y="-188.38" font-family="Arial" font-size="12.00">vehicle occupant</text>
<polygon fill="none" stroke="black" points="0,-183.38 0,-201.62 94,-201.62 94,-183.38 0,-183.38"/>
</g>
<!-- Invis -->
<!-- vehicle occupant&#45;&gt;Invis -->
<!-- person -->
<g id="node3" class="node">
<title>person</title>
<g id="a_node3"><a xlink:href="../terms/person.md" xlink:title="&lt;TABLE&gt;" target="_top">
<polygon fill="lightgray" stroke="none" points="137.62,-98.88 137.62,-115.12 176.38,-115.12 176.38,-98.88 137.62,-98.88"/>
<text xml:space="preserve" text-anchor="start" x="138.62" y="-102.88" font-family="Arial" font-size="12.00">person</text>
<polygon fill="none" stroke="black" points="136.62,-97.88 136.62,-116.12 177.38,-116.12 177.38,-97.88 136.62,-97.88"/>
</a>
</g>
</g>
<!-- vehicle occupant&#45;&gt;person -->
<g id="edge4" class="edge">
<title>vehicle occupant&#45;&gt;person</title>
<path fill="none" stroke="black" d="M69.26,-174.6C85.51,-162.27 107.76,-145.38 125.79,-131.69"/>
<polygon fill="black" stroke="black" points="127.72,-134.62 133.57,-125.79 123.49,-129.05 127.72,-134.62"/>
<text xml:space="preserve" text-anchor="middle" x="119.84" y="-146.05" font-family="Arial" font-size="11.00"> is a </text>
</g>
<!-- vehicle -->
<g id="node4" class="node">
<title>vehicle</title>
<g id="a_node4"><a xlink:href="../terms/vehicle.md" xlink:title="&lt;TABLE&gt;" target="_top">
<polygon fill="lightgray" stroke="none" points="136.88,-25.88 136.88,-42.12 177.12,-42.12 177.12,-25.88 136.88,-25.88"/>
<text xml:space="preserve" text-anchor="start" x="137.88" y="-29.88" font-family="Arial" font-size="12.00">vehicle</text>
<polygon fill="none" stroke="black" points="135.88,-24.88 135.88,-43.12 178.12,-43.12 178.12,-24.88 135.88,-24.88"/>
</a>
</g>
</g>
<!-- vehicle occupant&#45;&gt;vehicle -->
<g id="edge5" class="edge">
<title>vehicle occupant&#45;&gt;vehicle</title>
<path fill="none" stroke="black" d="M52.69,-174.76C60.43,-153.49 75.69,-116.27 96.25,-89 104.46,-78.11 115.14,-67.74 125.24,-59.05"/>
<polygon fill="black" stroke="black" points="127.26,-61.92 132.73,-52.85 122.8,-56.53 127.26,-61.92"/>
<text xml:space="preserve" text-anchor="middle" x="108.62" y="-103.3" font-family="Arial" font-size="11.00"> is in </text>
</g>
<!-- Invis&#45;&gt;person -->
<!-- person&#45;&gt;vehicle -->
</g>
</svg>
