<?xml version="1.0" encoding="UTF-8" standalone="no"?>
<!DOCTYPE svg PUBLIC "-//W3C//DTD SVG 1.1//EN"
 "http://www.w3.org/Graphics/SVG/1.1/DTD/svg11.dtd">
<!-- Generated by graphviz version 14.1.3 (20260303.0454)
 -->
<!-- Pages: 1 -->
<svg width="302pt" height="162pt"
 viewBox="0.00 0.00 302.00 162.00" xmlns="http://www.w3.org/2000/svg" xmlns:xlink="http://www.w3.org/1999/xlink">
<g id="graph0" class="graph" transform="scale(1 1) rotate(0) translate(4 157.5)">
<polygon fill="white" stroke="none" points="-4,4 -4,-157.5 298.25,-157.5 298.25,4 -4,4"/>
<g id="clust2" class="cluster">
<title>cluster_associated</title>
</g>
<!-- vehicle registration plate identifier -->
<g id="node1" class="node">
<title>vehicle registration plate identifier</title>
<polygon fill="lightgray" stroke="none" points="1,-111.38 1,-127.62 181.5,-127.62 181.5,-111.38 1,-111.38"/>
<text xml:space="preserve" text-anchor="start" x="2" y="-115.38" font-family="Arial" font-size="12.00">vehicle registration plate identifier</text>
<polygon fill="none" stroke="black" points="0,-110.38 0,-128.62 182.5,-128.62 182.5,-110.38 0,-110.38"/>
</g>
<!-- Invis -->
<!-- vehicle registration plate identifier&#45;&gt;Invis -->
<!-- vehicle -->
<g id="node3" class="node">
<title>vehicle</title>
<g id="a_node3"><a xlink:href="../terms/vehicle.md" xlink:title="&lt;TABLE&gt;" target="_top">
<polygon fill="lightgray" stroke="none" points="231.12,-25.88 231.12,-42.12 271.38,-42.12 271.38,-25.88 231.12,-25.88"/>
<text xml:space="preserve" text-anchor="start" x="232.12" y="-29.88" font-family="Arial" font-size="12.00">vehicle</text>
<polygon fill="none" stroke="black" points="230.12,-24.88 230.12,-43.12 272.38,-43.12 272.38,-24.88 230.12,-24.88"/>
</a>
</g>
</g>
<!-- vehicle registration plate identifier&#45;&gt;vehicle -->
<g id="edge3" class="edge">
<title>vehicle registration plate identifier&#45;&gt;vehicle</title>
<path fill="none" stroke="black" d="M83.94,-101.96C80.63,-91.69 78.85,-78.82 86,-70 101.69,-50.64 169.35,-41.56 213.08,-37.64"/>
<polygon fill="black" stroke="black" points="213.27,-41.14 222.94,-36.82 212.69,-34.17 213.27,-41.14"/>
<text xml:space="preserve" text-anchor="middle" x="166.62" y="-73.05" font-family="Arial" font-size="11.00"> identifier unique within region for </text>
</g>
<!-- Invis&#45;&gt;vehicle -->
</g>
</svg>
