<?xml version="1.0" encoding="UTF-8" standalone="no"?>
<!DOCTYPE svg PUBLIC "-//W3C//DTD SVG 1.1//EN"
 "http://www.w3.org/Graphics/SVG/1.1/DTD/svg11.dtd">
<!-- Generated by graphviz version 14.1.3 (20260303.0454)
 -->
<!-- Pages: 1 -->
<svg width="216pt" height="162pt"
 viewBox="0.00 0.00 216.00 162.00" xmlns="http://www.w3.org/2000/svg" xmlns:xlink="http://www.w3.org/1999/xlink">
<g id="graph0" class="graph" transform="scale(1 1) rotate(0) translate(4 157.5)">
<polygon fill="white" stroke="none" points="-4,4 -4,-157.5 211.5,-157.5 211.5,4 -4,4"/>
<g id="clust2" class="cluster">
<title>cluster_associated</title>
</g>
<!-- vehicle identifier -->
<g id="node1" class="node">
<title>vehicle identifier</title>
<polygon fill="lightgray" stroke="none" points="1,-111.38 1,-127.62 90,-127.62 90,-111.38 1,-111.38"/>
<text xml:space="preserve" text-anchor="start" x="2" y="-115.38" font-family="Arial" font-size="12.00">vehicle identifier</text>
<polygon fill="none" stroke="black" points="0,-110.38 0,-128.62 91,-128.62 91,-110.38 0,-110.38"/>
</g>
<!-- Invis -->
<!-- vehicle identifier&#45;&gt;Invis -->
<!-- vehicle -->
<g id="node3" class="node">
<title>vehicle</title>
<g id="a_node3"><a xlink:href="../terms/vehicle.md" xlink:title="&lt;TABLE&gt;" target="_top">
<polygon fill="lightgray" stroke="none" points="144.38,-25.88 144.38,-42.12 184.62,-42.12 184.62,-25.88 144.38,-25.88"/>
<text xml:space="preserve" text-anchor="start" x="145.38" y="-29.88" font-family="Arial" font-size="12.00">vehicle</text>
<polygon fill="none" stroke="black" points="143.38,-24.88 143.38,-43.12 185.62,-43.12 185.62,-24.88 143.38,-24.88"/>
</a>
</g>
</g>
<!-- vehicle identifier&#45;&gt;vehicle -->
<g id="edge3" class="edge">
<title>vehicle identifier&#45;&gt;vehicle</title>
<path fill="none" stroke="black" d="M34.11,-101.82C28.77,-91.75 24.96,-79.14 32,-70 43.48,-55.1 91.33,-45.25 126.24,-39.9"/>
<polygon fill="black" stroke="black" points="126.62,-43.38 136.01,-38.48 125.61,-36.46 126.62,-43.38"/>
<text xml:space="preserve" text-anchor="middle" x="100.25" y="-73.05" font-family="Arial" font-size="11.00"> globally unique identifier for </text>
</g>
<!-- Invis&#45;&gt;vehicle -->
</g>
</svg>
