<?xml version="1.0" encoding="UTF-8" standalone="no"?>
<!DOCTYPE svg PUBLIC "-//W3C//DTD SVG 1.1//EN"
 "http://www.w3.org/Graphics/SVG/1.1/DTD/svg11.dtd">
<!-- Generated by graphviz version 14.1.3 (20260303.0454)
 -->
<!-- Pages: 1 -->
<svg width="230pt" height="235pt"
 viewBox="0.00 0.00 230.00 235.00" xmlns="http://www.w3.org/2000/svg" xmlns:xlink="http://www.w3.org/1999/xlink">
<g id="graph0" class="graph" transform="scale(1 1) rotate(0) translate(4 230.5)">
<polygon fill="white" stroke="none" points="-4,4 -4,-230.5 225.75,-230.5 225.75,4 -4,4"/>
<g id="clust2" class="cluster">
<title>cluster_associated</title>
</g>
<!-- pick&#45;up/drop&#45;off area -->
<g id="node1" class="node">
<title>pick&#45;up/drop&#45;off area</title>
<polygon fill="lightgray" stroke="none" points="1,-184.38 1,-200.62 112.5,-200.62 112.5,-184.38 1,-184.38"/>
<text xml:space="preserve" text-anchor="start" x="2" y="-188.38" font-family="Arial" font-size="12.00">pick&#45;up/drop&#45;off area</text>
<polygon fill="none" stroke="black" points="0,-183.38 0,-201.62 113.5,-201.62 113.5,-183.38 0,-183.38"/>
</g>
<!-- Invis -->
<!-- pick&#45;up/drop&#45;off area&#45;&gt;Invis -->
<!-- passenger -->
<g id="node3" class="node">
<title>passenger</title>
<g id="a_node3"><a xlink:href="../terms/passenger.md" xlink:title="&lt;TABLE&gt;" target="_top">
<polygon fill="lightgray" stroke="none" points="146.62,-98.88 146.62,-115.12 204.88,-115.12 204.88,-98.88 146.62,-98.88"/>
<text xml:space="preserve" text-anchor="start" x="147.62" y="-102.88" font-family="Arial" font-size="12.00">passenger</text>
<polygon fill="none" stroke="black" points="145.62,-97.88 145.62,-116.12 205.88,-116.12 205.88,-97.88 145.62,-97.88"/>
</a>
</g>
</g>
<!-- pick&#45;up/drop&#45;off area&#45;&gt;passenger -->
<g id="edge5" class="edge">
<title>pick&#45;up/drop&#45;off area&#45;&gt;passenger</title>
<path fill="none" stroke="black" d="M80.83,-174.6C98.57,-162.15 122.92,-145.07 142.52,-131.32"/>
<polygon fill="black" stroke="black" points="144.29,-134.35 150.47,-125.74 140.27,-128.62 144.29,-134.35"/>
<text xml:space="preserve" text-anchor="middle" x="132.75" y="-146.05" font-family="Arial" font-size="11.00"> for </text>
</g>
<!-- vehicle -->
<g id="node4" class="node">
<title>vehicle</title>
<g id="a_node4"><a xlink:href="../terms/vehicle.md" xlink:title="&lt;TABLE&gt;" target="_top">
<polygon fill="lightgray" stroke="none" points="153.62,-25.88 153.62,-42.12 193.88,-42.12 193.88,-25.88 153.62,-25.88"/>
<text xml:space="preserve" text-anchor="start" x="154.62" y="-29.88" font-family="Arial" font-size="12.00">vehicle</text>
<polygon fill="none" stroke="black" points="152.62,-24.88 152.62,-43.12 194.88,-43.12 194.88,-24.88 152.62,-24.88"/>
</a>
</g>
</g>
<!-- pick&#45;up/drop&#45;off area&#45;&gt;vehicle -->
<g id="edge4" class="edge">
<title>pick&#45;up/drop&#45;off area&#45;&gt;vehicle</title>
<path fill="none" stroke="black" d="M43.34,-174.86C27.75,-153.36 6.4,-115.55 25,-89 49.79,-53.63 100.24,-41.33 135.48,-37.12"/>
<polygon fill="black" stroke="black" points="135.68,-40.61 145.28,-36.12 134.98,-33.65 135.68,-40.61"/>
<text xml:space="preserve" text-anchor="middle" x="80.88" y="-103.3" font-family="Arial" font-size="11.00"> to board or alight from </text>
</g>
<!-- Invis&#45;&gt;passenger -->
<!-- passenger&#45;&gt;vehicle -->
</g>
</svg>
