<?xml version="1.0" encoding="UTF-8" standalone="no"?>
<!DOCTYPE svg PUBLIC "-//W3C//DTD SVG 1.1//EN"
 "http://www.w3.org/Graphics/SVG/1.1/DTD/svg11.dtd">
<!-- Generated by graphviz version 14.0.2 (20251019.1705)
 -->
<!-- Pages: 1 -->
<svg width="224pt" height="132pt"
 viewBox="0.00 0.00 224.00 132.00" xmlns="http://www.w3.org/2000/svg" xmlns:xlink="http://www.w3.org/1999/xlink">
<g id="graph0" class="graph" transform="scale(1 1) rotate(0) translate(4 128)">
<polygon fill="white" stroke="none" points="-4,4 -4,-128 219.5,-128 219.5,4 -4,4"/>
<g id="clust2" class="cluster">
<title>cluster_associated</title>
</g>
<!-- ADS&#45;dedicated vehicle -->
<g id="node1" class="node">
<title>ADS&#45;dedicated vehicle</title>
<g id="a_node1"><a xlink:href="../classes/itsVocabulary__ADS-dedicated vehicle.md" xlink:title="&lt;TABLE&gt;">
<polygon fill="lightgray" stroke="none" points="1,-25.88 1,-42.12 126,-42.12 126,-25.88 1,-25.88"/>
<text xml:space="preserve" text-anchor="start" x="2" y="-29.73" font-family="Arial" font-size="12.00">ADS&#45;dedicated vehicle</text>
<polygon fill="none" stroke="black" points="0,-24.88 0,-43.12 127,-43.12 127,-24.88 0,-24.88"/>
</a>
</g>
</g>
<!-- ads&#45;equippedVehicle -->
<g id="node2" class="node">
<title>ads&#45;equippedVehicle</title>
<g id="a_node2"><a xlink:href="../ADS-equipped vehicle/" xlink:title="&lt;TABLE&gt;" target="_top">
<polygon fill="lightgray" stroke="none" points="2.12,-97.88 2.12,-114.12 124.88,-114.12 124.88,-97.88 2.12,-97.88"/>
<text xml:space="preserve" text-anchor="start" x="3.12" y="-101.72" font-family="Arial" font-size="12.00">ADS&#45;equipped vehicle</text>
<polygon fill="none" stroke="black" points="1.12,-96.88 1.12,-115.12 125.88,-115.12 125.88,-96.88 1.12,-96.88"/>
</a>
</g>
</g>
<!-- ADS&#45;dedicated vehicle&#45;&gt;ads&#45;equippedVehicle -->
<g id="edge1" class="edge">
<title>ADS&#45;dedicated vehicle&#45;&gt;ads&#45;equippedVehicle</title>
<path fill="none" stroke="black" d="M63.5,-51.79C63.5,-59.25 63.5,-68.24 63.5,-76.69"/>
<polygon fill="none" stroke="black" points="60,-76.54 63.5,-86.54 67,-76.54 60,-76.54"/>
</g>
<!-- Invis -->
</g>
</svg>
