<?xml version="1.0" encoding="UTF-8" standalone="no"?>
<!DOCTYPE svg PUBLIC "-//W3C//DTD SVG 1.1//EN"
 "http://www.w3.org/Graphics/SVG/1.1/DTD/svg11.dtd">
<!-- Generated by graphviz version 14.0.2 (20251019.1705)
 -->
<!-- Pages: 1 -->
<svg width="306pt" height="175pt"
 viewBox="0.00 0.00 306.00 175.00" xmlns="http://www.w3.org/2000/svg" xmlns:xlink="http://www.w3.org/1999/xlink">
<g id="graph0" class="graph" transform="scale(1 1) rotate(0) translate(4 171)">
<polygon fill="white" stroke="none" points="-4,4 -4,-171 301.62,-171 301.62,4 -4,4"/>
<g id="clust2" class="cluster">
<title>cluster_associated</title>
</g>
<!-- application template -->
<g id="node1" class="node">
<title>application template</title>
<g id="a_node1"><a xlink:href="../classes/itsVocabulary__application template.md" xlink:title="&lt;TABLE&gt;">
<polygon fill="lightgray" stroke="none" points="1,-124.88 1,-141.12 110.25,-141.12 110.25,-124.88 1,-124.88"/>
<text xml:space="preserve" text-anchor="start" x="2" y="-128.72" font-family="Arial" font-size="12.00">application template</text>
<polygon fill="none" stroke="black" points="0,-123.88 0,-142.12 111.25,-142.12 111.25,-123.88 0,-123.88"/>
</a>
</g>
</g>
<!-- Invis -->
<!-- application template&#45;&gt;Invis -->
<!-- itsApplicationSpecification -->
<g id="node3" class="node">
<title>itsApplicationSpecification</title>
<g id="a_node3"><a xlink:href="../ITS application specification/" xlink:title="&lt;TABLE&gt;" target="_top">
<polygon fill="lightgray" stroke="none" points="128.62,-25.88 128.62,-42.12 280.62,-42.12 280.62,-25.88 128.62,-25.88"/>
<text xml:space="preserve" text-anchor="start" x="129.62" y="-29.73" font-family="Arial" font-size="12.00">ITS application specification</text>
<polygon fill="none" stroke="black" points="127.62,-24.88 127.62,-43.12 281.62,-43.12 281.62,-24.88 127.62,-24.88"/>
</a>
</g>
</g>
<!-- application template&#45;&gt;itsApplicationSpecification -->
<g id="edge3" class="edge">
<title>application template&#45;&gt;itsApplicationSpecification</title>
<path fill="none" stroke="black" d="M59.89,-115.16C64.28,-101.15 72.49,-81.68 86.38,-70 95.38,-62.43 105.96,-56.5 117.04,-51.85"/>
<polygon fill="black" stroke="black" points="118.25,-55.13 126.35,-48.31 115.76,-48.59 118.25,-55.13"/>
<text xml:space="preserve" text-anchor="middle" x="138.5" y="-86.55" font-family="Arial" font-size="11.00"> annotatedOutlineFor </text>
<text xml:space="preserve" text-anchor="middle" x="138.5" y="-73.05" font-family="Arial" font-size="11.00"> «some» &#160;</text>
</g>
<!-- Invis&#45;&gt;itsApplicationSpecification -->
</g>
</svg>
