<?xml version="1.0" encoding="UTF-8" standalone="no"?>
<!DOCTYPE svg PUBLIC "-//W3C//DTD SVG 1.1//EN"
 "http://www.w3.org/Graphics/SVG/1.1/DTD/svg11.dtd">
<!-- Generated by graphviz version 14.0.2 (20251019.1705)
 -->
<!-- Pages: 1 -->
<svg width="180pt" height="175pt"
 viewBox="0.00 0.00 180.00 175.00" xmlns="http://www.w3.org/2000/svg" xmlns:xlink="http://www.w3.org/1999/xlink">
<g id="graph0" class="graph" transform="scale(1 1) rotate(0) translate(4 171)">
<polygon fill="white" stroke="none" points="-4,4 -4,-171 176.12,-171 176.12,4 -4,4"/>
<g id="clust2" class="cluster">
<title>cluster_associated</title>
</g>
<!-- architecture -->
<g id="node1" class="node">
<title>architecture</title>
<g id="a_node1"><a xlink:href="../classes/itsVocabulary__architecture.md" xlink:title="&lt;TABLE&gt;">
<polygon fill="lightgray" stroke="none" points="1,-124.88 1,-141.12 65.25,-141.12 65.25,-124.88 1,-124.88"/>
<text xml:space="preserve" text-anchor="start" x="2" y="-128.72" font-family="Arial" font-size="12.00">architecture</text>
<polygon fill="none" stroke="black" points="0,-123.88 0,-142.12 66.25,-142.12 66.25,-123.88 0,-123.88"/>
</a>
</g>
</g>
<!-- Invis -->
<!-- architecture&#45;&gt;Invis -->
<!-- element -->
<g id="node3" class="node">
<title>element</title>
<g id="a_node3"><a xlink:href="../element/" xlink:title="&lt;TABLE&gt;" target="_top">
<polygon fill="lightgray" stroke="none" points="106.75,-25.88 106.75,-42.12 151.5,-42.12 151.5,-25.88 106.75,-25.88"/>
<text xml:space="preserve" text-anchor="start" x="107.75" y="-29.73" font-family="Arial" font-size="12.00">element</text>
<polygon fill="none" stroke="black" points="105.75,-24.88 105.75,-43.12 152.5,-43.12 152.5,-24.88 105.75,-24.88"/>
</a>
</g>
</g>
<!-- architecture&#45;&gt;element -->
<g id="edge3" class="edge">
<title>architecture&#45;&gt;element</title>
<path fill="none" stroke="black" d="M38.72,-115.06C43.86,-101.55 52.6,-82.83 65.12,-70 72.73,-62.21 82.43,-55.71 91.98,-50.51"/>
<polygon fill="black" stroke="black" points="93.46,-53.68 100.81,-46.05 90.31,-47.43 93.46,-53.68"/>
<text xml:space="preserve" text-anchor="middle" x="95.12" y="-86.55" font-family="Arial" font-size="11.00"> aggregates </text>
<text xml:space="preserve" text-anchor="middle" x="95.12" y="-73.05" font-family="Arial" font-size="11.00"> «some» &#160;</text>
</g>
<!-- Invis&#45;&gt;element -->
</g>
</svg>
