<?xml version="1.0" encoding="UTF-8" standalone="no"?>
<!DOCTYPE svg PUBLIC "-//W3C//DTD SVG 1.1//EN"
 "http://www.w3.org/Graphics/SVG/1.1/DTD/svg11.dtd">
<!-- Generated by graphviz version 14.1.3 (20260303.0454)
 -->
<!-- Pages: 1 -->
<svg width="410pt" height="552pt"
 viewBox="0.00 0.00 410.00 552.00" xmlns="http://www.w3.org/2000/svg" xmlns:xlink="http://www.w3.org/1999/xlink">
<g id="graph0" class="graph" transform="scale(1 1) rotate(0) translate(4 547.5)">
<polygon fill="white" stroke="none" points="-4,4 -4,-547.5 406,-547.5 406,4 -4,4"/>
<g id="clust2" class="cluster">
<title>cluster_associated</title>
</g>
<!-- architecture description -->
<g id="node1" class="node">
<title>architecture description</title>
<polygon fill="lightgray" stroke="none" points="153.12,-501.38 153.12,-517.62 278.88,-517.62 278.88,-501.38 153.12,-501.38"/>
<text xml:space="preserve" text-anchor="start" x="154.12" y="-505.38" font-family="Arial" font-size="12.00">architecture description</text>
<polygon fill="none" stroke="black" points="152.12,-500.38 152.12,-518.62 279.88,-518.62 279.88,-500.38 152.12,-500.38"/>
</g>
<!-- Invis -->
<!-- architecture description&#45;&gt;Invis -->
<!-- architecture -->
<g id="node3" class="node">
<title>architecture</title>
<g id="a_node3"><a xlink:href="../terms/architecture/" xlink:title="&lt;TABLE&gt;" target="_top">
<polygon fill="lightgray" stroke="none" points="16.88,-415.88 16.88,-432.12 81.12,-432.12 81.12,-415.88 16.88,-415.88"/>
<text xml:space="preserve" text-anchor="start" x="17.88" y="-419.88" font-family="Arial" font-size="12.00">architecture</text>
<polygon fill="none" stroke="black" points="15.88,-414.88 15.88,-433.12 82.12,-433.12 82.12,-414.88 15.88,-414.88"/>
</a>
</g>
</g>
<!-- architecture description&#45;&gt;architecture -->
<g id="edge13" class="edge">
<title>architecture description&#45;&gt;architecture</title>
<path fill="none" stroke="black" d="M152.32,-492.45C150.87,-492.13 149.43,-491.81 148,-491.5 126.41,-486.82 64.6,-490.29 50.25,-473.5 45.44,-467.87 43.78,-460.38 43.69,-452.98"/>
<polygon fill="black" stroke="black" points="47.16,-453.46 44.46,-443.21 40.18,-452.9 47.16,-453.46"/>
<text xml:space="preserve" text-anchor="middle" x="77.62" y="-463.05" font-family="Arial" font-size="11.00"> expresses </text>
</g>
<!-- architectureView -->
<g id="node4" class="node">
<title>architectureView</title>
<g id="a_node4"><a xlink:href="../terms/architecture view/" xlink:title="&lt;TABLE&gt;" target="_top">
<polygon fill="lightgray" stroke="none" points="30,-330.38 30,-346.62 122,-346.62 122,-330.38 30,-330.38"/>
<text xml:space="preserve" text-anchor="start" x="31" y="-334.38" font-family="Arial" font-size="12.00">architecture view</text>
<polygon fill="none" stroke="black" points="29,-329.38 29,-347.62 123,-347.62 123,-329.38 29,-329.38"/>
</a>
</g>
</g>
<!-- architecture description&#45;&gt;architectureView -->
<g id="edge11" class="edge">
<title>architecture description&#45;&gt;architectureView</title>
<path fill="none" stroke="black" d="M189.46,-491.65C171.66,-479.41 148.55,-461.62 132,-442 112.74,-419.16 97.1,-388.67 87.3,-366.89"/>
<polygon fill="black" stroke="black" points="90.52,-365.53 83.32,-357.77 84.11,-368.33 90.52,-365.53"/>
<text xml:space="preserve" text-anchor="middle" x="162" y="-420.3" font-family="Arial" font-size="11.00"> aggregates </text>
</g>
<!-- architectureViewpoint -->
<g id="node5" class="node">
<title>architectureViewpoint</title>
<g id="a_node5"><a xlink:href="../terms/architecture viewpoint/" xlink:title="&lt;TABLE&gt;" target="_top">
<polygon fill="lightgray" stroke="none" points="16.88,-244.88 16.88,-261.12 135.12,-261.12 135.12,-244.88 16.88,-244.88"/>
<text xml:space="preserve" text-anchor="start" x="17.88" y="-248.88" font-family="Arial" font-size="12.00">architecture viewpoint</text>
<polygon fill="none" stroke="black" points="15.88,-243.88 15.88,-262.12 136.12,-262.12 136.12,-243.88 15.88,-243.88"/>
</a>
</g>
</g>
<!-- architecture description&#45;&gt;architectureViewpoint -->
<g id="edge8" class="edge">
<title>architecture description&#45;&gt;architectureViewpoint</title>
<path fill="none" stroke="black" d="M215.34,-491.62C213.81,-470.21 208.73,-432.83 192,-406 185.32,-395.28 178.13,-397.67 170,-388 147.85,-361.64 151.62,-348.79 132,-320.5 122.03,-306.13 109.62,-291.14 99.01,-279.04"/>
<polygon fill="black" stroke="black" points="101.93,-277.07 92.67,-271.92 96.71,-281.72 101.93,-277.07"/>
<text xml:space="preserve" text-anchor="middle" x="200" y="-377.55" font-family="Arial" font-size="11.00"> aggregates </text>
</g>
<!-- concern -->
<g id="node6" class="node">
<title>concern</title>
<g id="a_node6"><a xlink:href="../terms/concern/" xlink:title="&lt;TABLE&gt;" target="_top">
<polygon fill="lightgray" stroke="none" points="80.62,-171.88 80.62,-188.12 125.38,-188.12 125.38,-171.88 80.62,-171.88"/>
<text xml:space="preserve" text-anchor="start" x="81.62" y="-175.88" font-family="Arial" font-size="12.00">concern</text>
<polygon fill="none" stroke="black" points="79.62,-170.88 79.62,-189.12 126.38,-189.12 126.38,-170.88 79.62,-170.88"/>
</a>
</g>
</g>
<!-- architecture description&#45;&gt;concern -->
<g id="edge10" class="edge">
<title>architecture description&#45;&gt;concern</title>
<path fill="none" stroke="black" d="M221.72,-491.66C229.57,-465.92 241.5,-415.49 230,-374.5 210.88,-306.38 157.98,-240.43 126.82,-205.88"/>
<polygon fill="black" stroke="black" points="129.76,-203.91 120.42,-198.91 124.6,-208.65 129.76,-203.91"/>
<text xml:space="preserve" text-anchor="middle" x="247.75" y="-334.8" font-family="Arial" font-size="11.00"> identifies </text>
</g>
<!-- stakeholder -->
<g id="node7" class="node">
<title>stakeholder</title>
<g id="a_node7"><a xlink:href="../terms/stakeholder/" xlink:title="&lt;TABLE&gt;" target="_top">
<polygon fill="lightgray" stroke="none" points="70.88,-98.88 70.88,-115.12 135.12,-115.12 135.12,-98.88 70.88,-98.88"/>
<text xml:space="preserve" text-anchor="start" x="71.88" y="-102.88" font-family="Arial" font-size="12.00">stakeholder</text>
<polygon fill="none" stroke="black" points="69.88,-97.88 69.88,-116.12 136.12,-116.12 136.12,-97.88 69.88,-97.88"/>
</a>
</g>
</g>
<!-- architecture description&#45;&gt;stakeholder -->
<g id="edge9" class="edge">
<title>architecture description&#45;&gt;stakeholder</title>
<path fill="none" stroke="black" d="M245.21,-491.56C266.27,-476.92 291,-453.64 291,-425 291,-425 291,-425 291,-179 291,-148.32 202.26,-126.28 146.71,-115.49"/>
<polygon fill="black" stroke="black" points="147.71,-112.12 137.23,-113.71 146.41,-119 147.71,-112.12"/>
<text xml:space="preserve" text-anchor="middle" x="315" y="-292.05" font-family="Arial" font-size="11.00"> identifies </text>
</g>
<!-- system -->
<g id="node8" class="node">
<title>system</title>
<g id="a_node8"><a xlink:href="../terms/system/" xlink:title="&lt;TABLE&gt;" target="_top">
<polygon fill="lightgray" stroke="none" points="86.25,-25.88 86.25,-42.12 125.75,-42.12 125.75,-25.88 86.25,-25.88"/>
<text xml:space="preserve" text-anchor="start" x="87.25" y="-29.88" font-family="Arial" font-size="12.00">system</text>
<polygon fill="none" stroke="black" points="85.25,-24.88 85.25,-43.12 126.75,-43.12 126.75,-24.88 85.25,-24.88"/>
</a>
</g>
</g>
<!-- architecture description&#45;&gt;system -->
<g id="edge12" class="edge">
<title>architecture description&#45;&gt;system</title>
<path fill="none" stroke="black" d="M279.75,-495.38C315.91,-483.8 354,-462.66 354,-425 354,-425 354,-425 354,-106 354,-62.82 213.27,-44.4 143.83,-37.95"/>
<polygon fill="black" stroke="black" points="144.32,-34.48 134.05,-37.08 143.7,-41.45 144.32,-34.48"/>
<text xml:space="preserve" text-anchor="middle" x="378" y="-249.3" font-family="Arial" font-size="11.00"> identifies </text>
</g>
<!-- Invis&#45;&gt;architecture -->
<!-- architecture&#45;&gt;architectureView -->
<!-- architectureView&#45;&gt;architectureViewpoint -->
<!-- architectureViewpoint&#45;&gt;concern -->
<!-- concern&#45;&gt;stakeholder -->
<!-- stakeholder&#45;&gt;system -->
</g>
</svg>
