<?xml version="1.0" encoding="UTF-8" standalone="no"?>
<!DOCTYPE svg PUBLIC "-//W3C//DTD SVG 1.1//EN"
 "http://www.w3.org/Graphics/SVG/1.1/DTD/svg11.dtd">
<!-- Generated by graphviz version 14.0.2 (20251019.1705)
 -->
<!-- Pages: 1 -->
<svg width="410pt" height="592pt"
 viewBox="0.00 0.00 410.00 592.00" xmlns="http://www.w3.org/2000/svg" xmlns:xlink="http://www.w3.org/1999/xlink">
<g id="graph0" class="graph" transform="scale(1 1) rotate(0) translate(4 588)">
<polygon fill="white" stroke="none" points="-4,4 -4,-588 406,-588 406,4 -4,4"/>
<g id="clust2" class="cluster">
<title>cluster_associated</title>
</g>
<!-- architecture description -->
<g id="node1" class="node">
<title>architecture description</title>
<g id="a_node1"><a xlink:href="../classes/itsVocabulary__architecture description.md" xlink:title="&lt;TABLE&gt;">
<polygon fill="lightgray" stroke="none" points="153.12,-541.88 153.12,-558.12 278.88,-558.12 278.88,-541.88 153.12,-541.88"/>
<text xml:space="preserve" text-anchor="start" x="154.12" y="-545.73" font-family="Arial" font-size="12.00">architecture description</text>
<polygon fill="none" stroke="black" points="152.12,-540.88 152.12,-559.12 279.88,-559.12 279.88,-540.88 152.12,-540.88"/>
</a>
</g>
</g>
<!-- Invis -->
<!-- architecture description&#45;&gt;Invis -->
<!-- architecture -->
<g id="node3" class="node">
<title>architecture</title>
<g id="a_node3"><a xlink:href="../architecture/" xlink:title="&lt;TABLE&gt;" target="_top">
<polygon fill="lightgray" stroke="none" points="16.88,-442.88 16.88,-459.12 81.12,-459.12 81.12,-442.88 16.88,-442.88"/>
<text xml:space="preserve" text-anchor="start" x="17.88" y="-446.73" font-family="Arial" font-size="12.00">architecture</text>
<polygon fill="none" stroke="black" points="15.88,-441.88 15.88,-460.12 82.12,-460.12 82.12,-441.88 15.88,-441.88"/>
</a>
</g>
</g>
<!-- architecture description&#45;&gt;architecture -->
<g id="edge8" class="edge">
<title>architecture description&#45;&gt;architecture</title>
<path fill="none" stroke="black" d="M152.32,-532.95C150.87,-532.63 149.43,-532.31 148,-532 126.41,-527.32 64.55,-530.83 50.25,-514 42.41,-504.77 41.22,-491.68 42.34,-479.9"/>
<polygon fill="black" stroke="black" points="45.77,-480.67 43.85,-470.25 38.85,-479.59 45.77,-480.67"/>
<text xml:space="preserve" text-anchor="middle" x="77.62" y="-503.55" font-family="Arial" font-size="11.00"> expresses </text>
<text xml:space="preserve" text-anchor="middle" x="77.62" y="-490.05" font-family="Arial" font-size="11.00"> «some» &#160;</text>
</g>
<!-- architectureView -->
<g id="node4" class="node">
<title>architectureView</title>
<g id="a_node4"><a xlink:href="../architecture view/" xlink:title="&lt;TABLE&gt;" target="_top">
<polygon fill="lightgray" stroke="none" points="30,-343.88 30,-360.12 122,-360.12 122,-343.88 30,-343.88"/>
<text xml:space="preserve" text-anchor="start" x="31" y="-347.73" font-family="Arial" font-size="12.00">architecture view</text>
<polygon fill="none" stroke="black" points="29,-342.88 29,-361.12 123,-361.12 123,-342.88 29,-342.88"/>
</a>
</g>
</g>
<!-- architecture description&#45;&gt;architectureView -->
<g id="edge12" class="edge">
<title>architecture description&#45;&gt;architectureView</title>
<path fill="none" stroke="black" d="M194.24,-532.07C175.92,-516.99 149.91,-493.58 132,-469 111.76,-441.23 95.64,-405 85.99,-380.48"/>
<polygon fill="black" stroke="black" points="89.28,-379.29 82.44,-371.2 82.74,-381.79 89.28,-379.29"/>
<text xml:space="preserve" text-anchor="middle" x="162" y="-454.05" font-family="Arial" font-size="11.00"> aggregates </text>
<text xml:space="preserve" text-anchor="middle" x="162" y="-440.55" font-family="Arial" font-size="11.00"> «some» &#160;</text>
</g>
<!-- architectureViewpoint -->
<g id="node5" class="node">
<title>architectureViewpoint</title>
<g id="a_node5"><a xlink:href="../architecture viewpoint/" xlink:title="&lt;TABLE&gt;" target="_top">
<polygon fill="lightgray" stroke="none" points="16.88,-244.88 16.88,-261.12 135.12,-261.12 135.12,-244.88 16.88,-244.88"/>
<text xml:space="preserve" text-anchor="start" x="17.88" y="-248.72" font-family="Arial" font-size="12.00">architecture viewpoint</text>
<polygon fill="none" stroke="black" points="15.88,-243.88 15.88,-262.12 136.12,-262.12 136.12,-243.88 15.88,-243.88"/>
</a>
</g>
</g>
<!-- architecture description&#45;&gt;architectureViewpoint -->
<g id="edge13" class="edge">
<title>architecture description&#45;&gt;architectureViewpoint</title>
<path fill="none" stroke="black" d="M215.97,-532.38C215.21,-508.66 211.07,-464.49 192,-433 185.46,-422.19 177.76,-424.97 170,-415 145.56,-383.63 151.92,-368.42 132,-334 121.1,-315.17 107.05,-295.11 95.75,-279.79"/>
<polygon fill="black" stroke="black" points="98.82,-278.04 90.03,-272.12 93.21,-282.23 98.82,-278.04"/>
<text xml:space="preserve" text-anchor="middle" x="200" y="-404.55" font-family="Arial" font-size="11.00"> aggregates </text>
<text xml:space="preserve" text-anchor="middle" x="200" y="-391.05" font-family="Arial" font-size="11.00"> «some» &#160;</text>
</g>
<!-- concern -->
<g id="node6" class="node">
<title>concern</title>
<g id="a_node6"><a xlink:href="../concern/" xlink:title="&lt;TABLE&gt;" target="_top">
<polygon fill="lightgray" stroke="none" points="80.62,-171.88 80.62,-188.12 125.38,-188.12 125.38,-171.88 80.62,-171.88"/>
<text xml:space="preserve" text-anchor="start" x="81.62" y="-175.72" font-family="Arial" font-size="12.00">concern</text>
<polygon fill="none" stroke="black" points="79.62,-170.88 79.62,-189.12 126.38,-189.12 126.38,-170.88 79.62,-170.88"/>
</a>
</g>
</g>
<!-- architecture description&#45;&gt;concern -->
<g id="edge11" class="edge">
<title>architecture description&#45;&gt;concern</title>
<path fill="none" stroke="black" d="M222.33,-532.14C224.18,-526.46 225.98,-520.03 227,-514 236.33,-458.77 244.05,-442.22 230,-388 211.13,-315.19 156.9,-243.34 125.74,-206.47"/>
<polygon fill="black" stroke="black" points="128.51,-204.32 119.34,-199.02 123.2,-208.88 128.51,-204.32"/>
<text xml:space="preserve" text-anchor="middle" x="248.5" y="-355.05" font-family="Arial" font-size="11.00"> identifies </text>
<text xml:space="preserve" text-anchor="middle" x="248.5" y="-341.55" font-family="Arial" font-size="11.00"> «some» &#160;</text>
</g>
<!-- stakeholder -->
<g id="node7" class="node">
<title>stakeholder</title>
<g id="a_node7"><a xlink:href="../stakeholder/" xlink:title="&lt;TABLE&gt;" target="_top">
<polygon fill="lightgray" stroke="none" points="70.88,-98.88 70.88,-115.12 135.12,-115.12 135.12,-98.88 70.88,-98.88"/>
<text xml:space="preserve" text-anchor="start" x="71.88" y="-102.72" font-family="Arial" font-size="12.00">stakeholder</text>
<polygon fill="none" stroke="black" points="69.88,-97.88 69.88,-116.12 136.12,-116.12 136.12,-97.88 69.88,-97.88"/>
</a>
</g>
</g>
<!-- architecture description&#45;&gt;stakeholder -->
<g id="edge10" class="edge">
<title>architecture description&#45;&gt;stakeholder</title>
<path fill="none" stroke="black" d="M240.56,-532.03C262.43,-514.7 291,-485.63 291,-452 291,-452 291,-452 291,-179 291,-148.32 202.26,-126.28 146.71,-115.49"/>
<polygon fill="black" stroke="black" points="147.71,-112.12 137.23,-113.71 146.41,-119 147.71,-112.12"/>
<text xml:space="preserve" text-anchor="middle" x="315" y="-305.55" font-family="Arial" font-size="11.00"> identifies </text>
<text xml:space="preserve" text-anchor="middle" x="315" y="-292.05" font-family="Arial" font-size="11.00"> «some» &#160;</text>
</g>
<!-- system -->
<g id="node8" class="node">
<title>system</title>
<g id="a_node8"><a xlink:href="../system/" xlink:title="&lt;TABLE&gt;" target="_top">
<polygon fill="lightgray" stroke="none" points="86.25,-25.88 86.25,-42.12 125.75,-42.12 125.75,-25.88 86.25,-25.88"/>
<text xml:space="preserve" text-anchor="start" x="87.25" y="-29.73" font-family="Arial" font-size="12.00">system</text>
<polygon fill="none" stroke="black" points="85.25,-24.88 85.25,-43.12 126.75,-43.12 126.75,-24.88 85.25,-24.88"/>
</a>
</g>
</g>
<!-- architecture description&#45;&gt;system -->
<g id="edge9" class="edge">
<title>architecture description&#45;&gt;system</title>
<path fill="none" stroke="black" d="M276.53,-532.09C313.61,-517.62 354,-492.56 354,-452 354,-452 354,-452 354,-106 354,-62.82 213.27,-44.4 143.83,-37.95"/>
<polygon fill="black" stroke="black" points="144.32,-34.48 134.05,-37.08 143.7,-41.45 144.32,-34.48"/>
<text xml:space="preserve" text-anchor="middle" x="378" y="-256.05" font-family="Arial" font-size="11.00"> identifies </text>
<text xml:space="preserve" text-anchor="middle" x="378" y="-242.55" font-family="Arial" font-size="11.00"> «some» &#160;</text>
</g>
<!-- Invis&#45;&gt;architecture -->
<!-- architecture&#45;&gt;architectureView -->
<!-- architectureView&#45;&gt;architectureViewpoint -->
<!-- architectureViewpoint&#45;&gt;concern -->
<!-- concern&#45;&gt;stakeholder -->
<!-- stakeholder&#45;&gt;system -->
</g>
</svg>
