<?xml version="1.0" encoding="UTF-8" standalone="no"?>
<!DOCTYPE svg PUBLIC "-//W3C//DTD SVG 1.1//EN"
 "http://www.w3.org/Graphics/SVG/1.1/DTD/svg11.dtd">
<!-- Generated by graphviz version 14.0.2 (20251019.1705)
 -->
<!-- Pages: 1 -->
<svg width="236pt" height="175pt"
 viewBox="0.00 0.00 236.00 175.00" xmlns="http://www.w3.org/2000/svg" xmlns:xlink="http://www.w3.org/1999/xlink">
<g id="graph0" class="graph" transform="scale(1 1) rotate(0) translate(4 171)">
<polygon fill="white" stroke="none" points="-4,4 -4,-171 232,-171 232,4 -4,4"/>
<g id="clust2" class="cluster">
<title>cluster_associated</title>
</g>
<!-- architecture view -->
<g id="node1" class="node">
<title>architecture view</title>
<g id="a_node1"><a xlink:href="../classes/itsVocabulary__architecture view.md" xlink:title="&lt;TABLE&gt;">
<polygon fill="lightgray" stroke="none" points="1,-124.88 1,-141.12 93,-141.12 93,-124.88 1,-124.88"/>
<text xml:space="preserve" text-anchor="start" x="2" y="-128.72" font-family="Arial" font-size="12.00">architecture view</text>
<polygon fill="none" stroke="black" points="0,-123.88 0,-142.12 94,-142.12 94,-123.88 0,-123.88"/>
</a>
</g>
</g>
<!-- Invis -->
<!-- architecture view&#45;&gt;Invis -->
<!-- architectureModel -->
<g id="node3" class="node">
<title>architectureModel</title>
<g id="a_node3"><a xlink:href="../architecture model/" xlink:title="&lt;TABLE&gt;" target="_top">
<polygon fill="lightgray" stroke="none" points="110.88,-25.88 110.88,-42.12 211.12,-42.12 211.12,-25.88 110.88,-25.88"/>
<text xml:space="preserve" text-anchor="start" x="111.88" y="-29.73" font-family="Arial" font-size="12.00">architecture model</text>
<polygon fill="none" stroke="black" points="109.88,-24.88 109.88,-43.12 212.12,-43.12 212.12,-24.88 109.88,-24.88"/>
</a>
</g>
</g>
<!-- architecture view&#45;&gt;architectureModel -->
<g id="edge3" class="edge">
<title>architecture view&#45;&gt;architectureModel</title>
<path fill="none" stroke="black" d="M57.5,-115.17C66.5,-101.73 80.44,-83.05 96,-70 101.35,-65.51 107.36,-61.35 113.52,-57.58"/>
<polygon fill="black" stroke="black" points="115.01,-60.76 121.92,-52.74 111.51,-54.7 115.01,-60.76"/>
<text xml:space="preserve" text-anchor="middle" x="126" y="-86.55" font-family="Arial" font-size="11.00"> aggregates </text>
<text xml:space="preserve" text-anchor="middle" x="126" y="-73.05" font-family="Arial" font-size="11.00"> «some» &#160;</text>
</g>
<!-- Invis&#45;&gt;architectureModel -->
</g>
</svg>
