<?xml version="1.0" encoding="UTF-8" standalone="no"?>
<!DOCTYPE svg PUBLIC "-//W3C//DTD SVG 1.1//EN"
 "http://www.w3.org/Graphics/SVG/1.1/DTD/svg11.dtd">
<!-- Generated by graphviz version 14.0.2 (20251019.1705)
 -->
<!-- Pages: 1 -->
<svg width="175pt" height="248pt"
 viewBox="0.00 0.00 175.00 248.00" xmlns="http://www.w3.org/2000/svg" xmlns:xlink="http://www.w3.org/1999/xlink">
<g id="graph0" class="graph" transform="scale(1 1) rotate(0) translate(4 244)">
<polygon fill="white" stroke="none" points="-4,4 -4,-244 171.38,-244 171.38,4 -4,4"/>
<g id="clust2" class="cluster">
<title>cluster_associated</title>
</g>
<!-- block&#45;face -->
<g id="node1" class="node">
<title>block&#45;face</title>
<g id="a_node1"><a xlink:href="../classes/itsVocabulary__block-face.md" xlink:title="&lt;TABLE&gt;">
<polygon fill="lightgray" stroke="none" points="1,-197.88 1,-214.12 57.75,-214.12 57.75,-197.88 1,-197.88"/>
<text xml:space="preserve" text-anchor="start" x="2" y="-201.72" font-family="Arial" font-size="12.00">block&#45;face</text>
<polygon fill="none" stroke="black" points="0,-196.88 0,-215.12 58.75,-215.12 58.75,-196.88 0,-196.88"/>
</a>
</g>
</g>
<!-- Invis -->
<!-- block&#45;face&#45;&gt;Invis -->
<!-- intersection -->
<g id="node3" class="node">
<title>intersection</title>
<g id="a_node3"><a xlink:href="../intersection/" xlink:title="&lt;TABLE&gt;" target="_top">
<polygon fill="lightgray" stroke="none" points="86.62,-98.88 86.62,-115.12 150.12,-115.12 150.12,-98.88 86.62,-98.88"/>
<text xml:space="preserve" text-anchor="start" x="87.62" y="-102.72" font-family="Arial" font-size="12.00">intersection</text>
<polygon fill="none" stroke="black" points="85.62,-97.88 85.62,-116.12 151.12,-116.12 151.12,-97.88 85.62,-97.88"/>
</a>
</g>
</g>
<!-- block&#45;face&#45;&gt;intersection -->
<g id="edge5" class="edge">
<title>block&#45;face&#45;&gt;intersection</title>
<path fill="none" stroke="black" d="M54.44,-188.17C61.59,-182.79 69.13,-176.53 75.38,-170 75.58,-169.79 88.74,-150.8 100.45,-133.9"/>
<polygon fill="black" stroke="black" points="103.03,-136.31 105.85,-126.1 97.28,-132.33 103.03,-136.31"/>
<text xml:space="preserve" text-anchor="middle" x="116.8" y="-159.55" font-family="Arial" font-size="11.00"> startsAt </text>
<text xml:space="preserve" text-anchor="middle" x="116.8" y="-146.05" font-family="Arial" font-size="11.00"> «some» &#160;</text>
</g>
<!-- block&#45;face&#45;&gt;intersection -->
<g id="edge6" class="edge">
<title>block&#45;face&#45;&gt;intersection</title>
<path fill="none" stroke="black" d="M22.49,-188.21C18.18,-174.8 15,-156.13 24.12,-143 30.36,-134.03 53.04,-125.46 74.58,-119.05"/>
<polygon fill="black" stroke="black" points="75.53,-122.42 84.19,-116.32 73.62,-115.69 75.53,-122.42"/>
<text xml:space="preserve" text-anchor="middle" x="47.75" y="-159.55" font-family="Arial" font-size="11.00"> endsAt </text>
<text xml:space="preserve" text-anchor="middle" x="47.75" y="-146.05" font-family="Arial" font-size="11.00"> «some» &#160;</text>
</g>
<!-- sidewalk -->
<g id="node4" class="node">
<title>sidewalk</title>
<g id="a_node4"><a xlink:href="../sidewalk/" xlink:title="&lt;TABLE&gt;" target="_top">
<polygon fill="lightgray" stroke="none" points="90.75,-25.88 90.75,-42.12 140,-42.12 140,-25.88 90.75,-25.88"/>
<text xml:space="preserve" text-anchor="start" x="91.75" y="-29.73" font-family="Arial" font-size="12.00">sidewalk</text>
<polygon fill="none" stroke="black" points="89.75,-24.88 89.75,-43.12 141,-43.12 141,-24.88 89.75,-24.88"/>
</a>
</g>
</g>
<!-- block&#45;face&#45;&gt;sidewalk -->
<g id="edge4" class="edge">
<title>block&#45;face&#45;&gt;sidewalk</title>
<path fill="none" stroke="black" d="M20.46,-188C17.98,-182.42 15.62,-176.09 14.38,-170 7.02,-134.16 7.3,-118.37 29.12,-89 41.72,-72.05 61.36,-59.15 78.72,-50.22"/>
<polygon fill="black" stroke="black" points="79.78,-53.6 87.24,-46.08 76.72,-47.3 79.78,-53.6"/>
<text xml:space="preserve" text-anchor="middle" x="52.75" y="-110.05" font-family="Arial" font-size="11.00"> extentOf </text>
<text xml:space="preserve" text-anchor="middle" x="52.75" y="-96.55" font-family="Arial" font-size="11.00"> «some» &#160;</text>
</g>
<!-- Invis&#45;&gt;intersection -->
<!-- intersection&#45;&gt;sidewalk -->
</g>
</svg>
