<?xml version="1.0" encoding="UTF-8" standalone="no"?>
<!DOCTYPE svg PUBLIC "-//W3C//DTD SVG 1.1//EN"
 "http://www.w3.org/Graphics/SVG/1.1/DTD/svg11.dtd">
<!-- Generated by graphviz version 14.1.3 (20260303.0454)
 -->
<!-- Pages: 1 -->
<svg width="172pt" height="235pt"
 viewBox="0.00 0.00 172.00 235.00" xmlns="http://www.w3.org/2000/svg" xmlns:xlink="http://www.w3.org/1999/xlink">
<g id="graph0" class="graph" transform="scale(1 1) rotate(0) translate(4 230.5)">
<polygon fill="white" stroke="none" points="-4,4 -4,-230.5 168.38,-230.5 168.38,4 -4,4"/>
<g id="clust2" class="cluster">
<title>cluster_associated</title>
</g>
<!-- block&#45;face -->
<g id="node1" class="node">
<title>block&#45;face</title>
<g id="a_node1"><a xlink:href="../terms/block-face/" xlink:title="&lt;TABLE&gt;">
<polygon fill="lightgray" stroke="none" points="1,-184.38 1,-200.62 57.75,-200.62 57.75,-184.38 1,-184.38"/>
<text xml:space="preserve" text-anchor="start" x="2" y="-188.38" font-family="Arial" font-size="12.00">block&#45;face</text>
<polygon fill="none" stroke="black" points="0,-183.38 0,-201.62 58.75,-201.62 58.75,-183.38 0,-183.38"/>
</a>
</g>
</g>
<!-- Invis -->
<!-- block&#45;face&#45;&gt;Invis -->
<!-- intersection -->
<g id="node3" class="node">
<title>intersection</title>
<g id="a_node3"><a xlink:href="../terms/intersection/" xlink:title="&lt;TABLE&gt;" target="_top">
<polygon fill="lightgray" stroke="none" points="83.62,-98.88 83.62,-115.12 147.12,-115.12 147.12,-98.88 83.62,-98.88"/>
<text xml:space="preserve" text-anchor="start" x="84.62" y="-102.88" font-family="Arial" font-size="12.00">intersection</text>
<polygon fill="none" stroke="black" points="82.62,-97.88 82.62,-116.12 148.12,-116.12 148.12,-97.88 82.62,-97.88"/>
</a>
</g>
</g>
<!-- block&#45;face&#45;&gt;intersection -->
<g id="edge4" class="edge">
<title>block&#45;face&#45;&gt;intersection</title>
<path fill="none" stroke="black" d="M51.98,-174.82C59.06,-169.26 66.75,-162.85 73.38,-156.5 80.77,-149.41 88.28,-141.15 94.85,-133.48"/>
<polygon fill="black" stroke="black" points="97.38,-135.92 101.12,-126.01 92.01,-131.42 97.38,-135.92"/>
<text xml:space="preserve" text-anchor="middle" x="107.77" y="-146.05" font-family="Arial" font-size="11.00"> starts at </text>
</g>
<!-- block&#45;face&#45;&gt;intersection -->
<g id="edge5" class="edge">
<title>block&#45;face&#45;&gt;intersection</title>
<path fill="none" stroke="black" d="M24.4,-174.87C22.42,-164.82 21.9,-152.21 28.12,-143 33.58,-134.94 52.88,-126.79 71.95,-120.39"/>
<polygon fill="black" stroke="black" points="72.85,-123.78 81.3,-117.39 70.71,-117.11 72.85,-123.78"/>
<text xml:space="preserve" text-anchor="middle" x="48.75" y="-146.05" font-family="Arial" font-size="11.00"> ends at </text>
</g>
<!-- sidewalk -->
<g id="node4" class="node">
<title>sidewalk</title>
<g id="a_node4"><a xlink:href="../terms/sidewalk/" xlink:title="&lt;TABLE&gt;" target="_top">
<polygon fill="lightgray" stroke="none" points="87.75,-25.88 87.75,-42.12 137,-42.12 137,-25.88 87.75,-25.88"/>
<text xml:space="preserve" text-anchor="start" x="88.75" y="-29.88" font-family="Arial" font-size="12.00">sidewalk</text>
<polygon fill="none" stroke="black" points="86.75,-24.88 86.75,-43.12 138,-43.12 138,-24.88 86.75,-24.88"/>
</a>
</g>
</g>
<!-- block&#45;face&#45;&gt;sidewalk -->
<g id="edge6" class="edge">
<title>block&#45;face&#45;&gt;sidewalk</title>
<path fill="none" stroke="black" d="M23.46,-174.73C16.95,-153.08 9.46,-115.12 26.12,-89 37.64,-70.95 57.59,-57.88 75.4,-49.13"/>
<polygon fill="black" stroke="black" points="76.56,-52.45 84.19,-45.1 73.64,-46.09 76.56,-52.45"/>
<text xml:space="preserve" text-anchor="middle" x="49.75" y="-103.3" font-family="Arial" font-size="11.00"> extent of </text>
</g>
<!-- Invis&#45;&gt;intersection -->
<!-- intersection&#45;&gt;sidewalk -->
</g>
</svg>
