<?xml version="1.0" encoding="UTF-8" standalone="no"?>
<!DOCTYPE svg PUBLIC "-//W3C//DTD SVG 1.1//EN"
 "http://www.w3.org/Graphics/SVG/1.1/DTD/svg11.dtd">
<!-- Generated by graphviz version 14.0.2 (20251019.1705)
 -->
<!-- Pages: 1 -->
<svg width="311pt" height="232pt"
 viewBox="0.00 0.00 311.00 232.00" xmlns="http://www.w3.org/2000/svg" xmlns:xlink="http://www.w3.org/1999/xlink">
<g id="graph0" class="graph" transform="scale(1 1) rotate(0) translate(4 228)">
<polygon fill="white" stroke="none" points="-4,4 -4,-228 306.5,-228 306.5,4 -4,4"/>
<g id="clust2" class="cluster">
<title>cluster_associated</title>
</g>
<!-- bounded secured managed domain -->
<g id="node1" class="node">
<title>bounded secured managed domain</title>
<g id="a_node1"><a xlink:href="../classes/itsVocabulary__bounded secured managed domain.md" xlink:title="&lt;TABLE&gt;">
<polygon fill="lightgray" stroke="none" points="110.5,-124.88 110.5,-141.12 301.5,-141.12 301.5,-124.88 110.5,-124.88"/>
<text xml:space="preserve" text-anchor="start" x="111.5" y="-128.72" font-family="Arial" font-size="12.00">bounded secured managed domain</text>
<polygon fill="none" stroke="black" points="109.5,-123.88 109.5,-142.12 302.5,-142.12 302.5,-123.88 109.5,-123.88"/>
</a>
</g>
</g>
<!-- entity -->
<g id="node2" class="node">
<title>entity</title>
<g id="a_node2"><a xlink:href="../entity/" xlink:title="&lt;TABLE&gt;" target="_top">
<polygon fill="lightgray" stroke="none" points="190.75,-197.88 190.75,-214.12 221.25,-214.12 221.25,-197.88 190.75,-197.88"/>
<text xml:space="preserve" text-anchor="start" x="191.75" y="-201.72" font-family="Arial" font-size="12.00">entity</text>
<polygon fill="none" stroke="black" points="189.75,-196.88 189.75,-215.12 222.25,-215.12 222.25,-196.88 189.75,-196.88"/>
</a>
</g>
</g>
<!-- bounded secured managed domain&#45;&gt;entity -->
<g id="edge1" class="edge">
<title>bounded secured managed domain&#45;&gt;entity</title>
<path fill="none" stroke="black" d="M206,-150.71C206,-158.47 206,-167.92 206,-176.74"/>
<polygon fill="none" stroke="black" points="202.5,-176.66 206,-186.66 209.5,-176.66 202.5,-176.66"/>
</g>
<!-- Invis -->
<!-- bounded secured managed domain&#45;&gt;Invis -->
<!-- environment -->
<g id="node4" class="node">
<title>environment</title>
<g id="a_node4"><a xlink:href="../environment/" xlink:title="&lt;TABLE&gt;" target="_top">
<polygon fill="lightgray" stroke="none" points="17,-25.88 17,-42.12 85,-42.12 85,-25.88 17,-25.88"/>
<text xml:space="preserve" text-anchor="start" x="18" y="-29.73" font-family="Arial" font-size="12.00">environment</text>
<polygon fill="none" stroke="black" points="16,-24.88 16,-43.12 86,-43.12 86,-24.88 16,-24.88"/>
</a>
</g>
</g>
<!-- bounded secured managed domain&#45;&gt;environment -->
<g id="edge4" class="edge">
<title>bounded secured managed domain&#45;&gt;environment</title>
<path fill="none" stroke="black" d="M179,-115.1C153.63,-99.23 115.47,-75.35 87.41,-57.79"/>
<polygon fill="black" stroke="black" points="89.57,-55.01 79.23,-52.67 85.85,-60.94 89.57,-55.01"/>
<text xml:space="preserve" text-anchor="middle" x="175.44" y="-86.55" font-family="Arial" font-size="11.00"> represents </text>
<text xml:space="preserve" text-anchor="middle" x="175.44" y="-73.05" font-family="Arial" font-size="11.00"> «some» &#160;</text>
</g>
<!-- Invis&#45;&gt;environment -->
</g>
</svg>
