<?xml version="1.0" encoding="UTF-8" standalone="no"?>
<!DOCTYPE svg PUBLIC "-//W3C//DTD SVG 1.1//EN"
 "http://www.w3.org/Graphics/SVG/1.1/DTD/svg11.dtd">
<!-- Generated by graphviz version 14.0.2 (20251019.1705)
 -->
<!-- Pages: 1 -->
<svg width="342pt" height="420pt"
 viewBox="0.00 0.00 342.00 420.00" xmlns="http://www.w3.org/2000/svg" xmlns:xlink="http://www.w3.org/1999/xlink">
<g id="graph0" class="graph" transform="scale(1 1) rotate(0) translate(4 416)">
<polygon fill="white" stroke="none" points="-4,4 -4,-416 337.75,-416 337.75,4 -4,4"/>
<g id="clust2" class="cluster">
<title>cluster_associated</title>
</g>
<!-- carriageway -->
<g id="node1" class="node">
<title>carriageway</title>
<g id="a_node1"><a xlink:href="../classes/itsVocabulary__carriageway.md" xlink:title="&lt;TABLE&gt;">
<polygon fill="lightgray" stroke="none" points="107.38,-369.88 107.38,-386.12 174.62,-386.12 174.62,-369.88 107.38,-369.88"/>
<text xml:space="preserve" text-anchor="start" x="108.38" y="-373.73" font-family="Arial" font-size="12.00">carriageway</text>
<polygon fill="none" stroke="black" points="106.38,-368.88 106.38,-387.12 175.62,-387.12 175.62,-368.88 106.38,-368.88"/>
</a>
</g>
</g>
<!-- Invis -->
<!-- carriageway&#45;&gt;Invis -->
<!-- hardshoulder -->
<g id="node3" class="node">
<title>hardshoulder</title>
<polygon fill="lightgray" stroke="none" points="16.75,-270.88 16.75,-287.12 89.25,-287.12 89.25,-270.88 16.75,-270.88"/>
<text xml:space="preserve" text-anchor="start" x="17.75" y="-274.73" font-family="Arial" font-size="12.00">hardshoulder</text>
<polygon fill="none" stroke="black" points="15.75,-269.88 15.75,-288.12 90.25,-288.12 90.25,-269.88 15.75,-269.88"/>
</g>
<!-- carriageway&#45;&gt;hardshoulder -->
<g id="edge8" class="edge">
<title>carriageway&#45;&gt;hardshoulder</title>
<path fill="none" stroke="black" d="M106.57,-361.93C105.03,-361.27 103.5,-360.63 102,-360 82.23,-351.72 69.85,-359.34 57.25,-342 50.28,-332.41 48.51,-319.64 48.76,-308.18"/>
<polygon fill="black" stroke="black" points="52.24,-308.64 49.5,-298.41 45.26,-308.11 52.24,-308.64"/>
<text xml:space="preserve" text-anchor="middle" x="84.62" y="-331.55" font-family="Arial" font-size="11.00"> comprises </text>
<text xml:space="preserve" text-anchor="middle" x="84.62" y="-318.05" font-family="Arial" font-size="11.00"> «min 0» &#160;</text>
</g>
<!-- hardstanding -->
<g id="node4" class="node">
<title>hardstanding</title>
<g id="a_node4"><a xlink:href="../hardstanding/" xlink:title="&lt;TABLE&gt;" target="_top">
<polygon fill="lightgray" stroke="none" points="17.12,-171.88 17.12,-188.12 88.88,-188.12 88.88,-171.88 17.12,-171.88"/>
<text xml:space="preserve" text-anchor="start" x="18.12" y="-175.72" font-family="Arial" font-size="12.00">hardstanding</text>
<polygon fill="none" stroke="black" points="16.12,-170.88 16.12,-189.12 89.88,-189.12 89.88,-170.88 16.12,-170.88"/>
</a>
</g>
</g>
<!-- carriageway&#45;&gt;hardstanding -->
<g id="edge7" class="edge">
<title>carriageway&#45;&gt;hardstanding</title>
<path fill="none" stroke="black" d="M135.91,-360.11C128.77,-337.2 114.87,-295.19 99,-261 90.45,-242.58 79.09,-222.79 69.8,-207.5"/>
<polygon fill="black" stroke="black" points="72.78,-205.67 64.55,-199 66.82,-209.34 72.78,-205.67"/>
<text xml:space="preserve" text-anchor="middle" x="140.99" y="-282.05" font-family="Arial" font-size="11.00"> comprises </text>
<text xml:space="preserve" text-anchor="middle" x="140.99" y="-268.55" font-family="Arial" font-size="11.00"> «min 0» &#160;</text>
</g>
<!-- lay&#45;by -->
<g id="node5" class="node">
<title>lay&#45;by</title>
<g id="a_node5"><a xlink:href="../lay-by/" xlink:title="&lt;TABLE&gt;" target="_top">
<polygon fill="lightgray" stroke="none" points="36.88,-98.88 36.88,-115.12 71.12,-115.12 71.12,-98.88 36.88,-98.88"/>
<text xml:space="preserve" text-anchor="start" x="37.88" y="-102.72" font-family="Arial" font-size="12.00">lay&#45;by</text>
<polygon fill="none" stroke="black" points="35.88,-97.88 35.88,-116.12 72.12,-116.12 72.12,-97.88 35.88,-97.88"/>
</a>
</g>
</g>
<!-- carriageway&#45;&gt;lay&#45;by -->
<g id="edge6" class="edge">
<title>carriageway&#45;&gt;lay&#45;by</title>
<path fill="none" stroke="black" d="M151.55,-360.31C164.51,-337.61 183.46,-295.85 172,-261 154.74,-208.5 110.83,-160.21 81.72,-132.45"/>
<polygon fill="black" stroke="black" points="84.37,-130.15 74.67,-125.88 79.6,-135.26 84.37,-130.15"/>
<text xml:space="preserve" text-anchor="middle" x="192.11" y="-232.55" font-family="Arial" font-size="11.00"> comprises </text>
<text xml:space="preserve" text-anchor="middle" x="192.11" y="-219.05" font-family="Arial" font-size="11.00"> «min 0» &#160;</text>
</g>
<!-- usableWidth -->
<g id="node6" class="node">
<title>usableWidth</title>
<g id="a_node6"><a xlink:href="../usable width/" xlink:title="&lt;TABLE&gt;" target="_top">
<polygon fill="lightgray" stroke="none" points="19.25,-25.88 19.25,-42.12 88.75,-42.12 88.75,-25.88 19.25,-25.88"/>
<text xml:space="preserve" text-anchor="start" x="20.25" y="-29.73" font-family="Arial" font-size="12.00">usable width</text>
<polygon fill="none" stroke="black" points="18.25,-24.88 18.25,-43.12 89.75,-43.12 89.75,-24.88 18.25,-24.88"/>
</a>
</g>
</g>
<!-- carriageway&#45;&gt;usableWidth -->
<g id="edge9" class="edge">
<title>carriageway&#45;&gt;usableWidth</title>
<path fill="none" stroke="black" d="M175.47,-368.9C216.34,-357 279,-330.52 279,-280 279,-280 279,-280 279,-106 279,-69 166.95,-48.86 101,-40.22"/>
<polygon fill="black" stroke="black" points="101.51,-36.75 91.15,-38.97 100.64,-43.7 101.51,-36.75"/>
<text xml:space="preserve" text-anchor="middle" x="306.38" y="-183.05" font-family="Arial" font-size="11.00"> comprises </text>
<text xml:space="preserve" text-anchor="middle" x="306.38" y="-169.55" font-family="Arial" font-size="11.00"> «some» &#160;</text>
</g>
<!-- Invis&#45;&gt;hardshoulder -->
<!-- hardshoulder&#45;&gt;hardstanding -->
<!-- hardstanding&#45;&gt;lay&#45;by -->
<!-- lay&#45;by&#45;&gt;usableWidth -->
</g>
</svg>
