<?xml version="1.0" encoding="UTF-8" standalone="no"?>
<!DOCTYPE svg PUBLIC "-//W3C//DTD SVG 1.1//EN"
 "http://www.w3.org/Graphics/SVG/1.1/DTD/svg11.dtd">
<!-- Generated by graphviz version 14.0.2 (20251019.1705)
 -->
<!-- Pages: 1 -->
<svg width="214pt" height="132pt"
 viewBox="0.00 0.00 214.00 132.00" xmlns="http://www.w3.org/2000/svg" xmlns:xlink="http://www.w3.org/1999/xlink">
<g id="graph0" class="graph" transform="scale(1 1) rotate(0) translate(4 128)">
<polygon fill="white" stroke="none" points="-4,4 -4,-128 209.5,-128 209.5,4 -4,4"/>
<g id="clust2" class="cluster">
<title>cluster_associated</title>
</g>
<!-- central reservation -->
<g id="node1" class="node">
<title>central reservation</title>
<g id="a_node1"><a xlink:href="../classes/itsVocabulary__central reservation.md" xlink:title="&lt;TABLE&gt;">
<polygon fill="lightgray" stroke="none" points="16.38,-25.88 16.38,-42.12 116.62,-42.12 116.62,-25.88 16.38,-25.88"/>
<text xml:space="preserve" text-anchor="start" x="17.38" y="-29.73" font-family="Arial" font-size="12.00">central reservation</text>
<polygon fill="none" stroke="black" points="15.38,-24.88 15.38,-43.12 117.62,-43.12 117.62,-24.88 15.38,-24.88"/>
</a>
</g>
</g>
<!-- physicalTrafficSeparator -->
<g id="node2" class="node">
<title>physicalTrafficSeparator</title>
<g id="a_node2"><a xlink:href="../physical traffic separator/" xlink:title="&lt;TABLE&gt;" target="_top">
<polygon fill="lightgray" stroke="none" points="1,-97.88 1,-114.12 132,-114.12 132,-97.88 1,-97.88"/>
<text xml:space="preserve" text-anchor="start" x="2" y="-101.72" font-family="Arial" font-size="12.00">physical traffic separator</text>
<polygon fill="none" stroke="black" points="0,-96.88 0,-115.12 133,-115.12 133,-96.88 0,-96.88"/>
</a>
</g>
</g>
<!-- central reservation&#45;&gt;physicalTrafficSeparator -->
<g id="edge1" class="edge">
<title>central reservation&#45;&gt;physicalTrafficSeparator</title>
<path fill="none" stroke="black" d="M66.5,-51.79C66.5,-59.25 66.5,-68.24 66.5,-76.69"/>
<polygon fill="none" stroke="black" points="63,-76.54 66.5,-86.54 70,-76.54 63,-76.54"/>
</g>
<!-- Invis -->
</g>
</svg>
