<?xml version="1.0" encoding="UTF-8" standalone="no"?>
<!DOCTYPE svg PUBLIC "-//W3C//DTD SVG 1.1//EN"
 "http://www.w3.org/Graphics/SVG/1.1/DTD/svg11.dtd">
<!-- Generated by graphviz version 14.0.2 (20251019.1705)
 -->
<!-- Pages: 1 -->
<svg width="312pt" height="232pt"
 viewBox="0.00 0.00 312.00 232.00" xmlns="http://www.w3.org/2000/svg" xmlns:xlink="http://www.w3.org/1999/xlink">
<g id="graph0" class="graph" transform="scale(1 1) rotate(0) translate(4 228)">
<polygon fill="white" stroke="none" points="-4,4 -4,-228 308.38,-228 308.38,4 -4,4"/>
<g id="clust2" class="cluster">
<title>cluster_associated</title>
</g>
<!-- communications view -->
<g id="node1" class="node">
<title>communications view</title>
<g id="a_node1"><a xlink:href="../classes/itsVocabulary__communications view.md" xlink:title="&lt;TABLE&gt;">
<polygon fill="lightgray" stroke="none" points="186.62,-124.88 186.62,-141.12 303.38,-141.12 303.38,-124.88 186.62,-124.88"/>
<text xml:space="preserve" text-anchor="start" x="187.62" y="-128.72" font-family="Arial" font-size="12.00">communications view</text>
<polygon fill="none" stroke="black" points="185.62,-123.88 185.62,-142.12 304.38,-142.12 304.38,-123.88 185.62,-123.88"/>
</a>
</g>
</g>
<!-- architectureView -->
<g id="node2" class="node">
<title>architectureView</title>
<g id="a_node2"><a xlink:href="../architecture view/" xlink:title="&lt;TABLE&gt;" target="_top">
<polygon fill="lightgray" stroke="none" points="199,-197.88 199,-214.12 291,-214.12 291,-197.88 199,-197.88"/>
<text xml:space="preserve" text-anchor="start" x="200" y="-201.72" font-family="Arial" font-size="12.00">architecture view</text>
<polygon fill="none" stroke="black" points="198,-196.88 198,-215.12 292,-215.12 292,-196.88 198,-196.88"/>
</a>
</g>
</g>
<!-- communications view&#45;&gt;architectureView -->
<g id="edge1" class="edge">
<title>communications view&#45;&gt;architectureView</title>
<path fill="none" stroke="black" d="M245,-150.71C245,-158.47 245,-167.92 245,-176.74"/>
<polygon fill="none" stroke="black" points="241.5,-176.66 245,-186.66 248.5,-176.66 241.5,-176.66"/>
</g>
<!-- Invis -->
<!-- communications view&#45;&gt;Invis -->
<!-- its&#45;sReferenceArchitecture -->
<g id="node4" class="node">
<title>its&#45;sReferenceArchitecture</title>
<g id="a_node4"><a xlink:href="../ITS-S reference architecture/" xlink:title="&lt;TABLE&gt;" target="_top">
<polygon fill="lightgray" stroke="none" points="17.38,-25.88 17.38,-42.12 168.62,-42.12 168.62,-25.88 17.38,-25.88"/>
<text xml:space="preserve" text-anchor="start" x="18.38" y="-29.73" font-family="Arial" font-size="12.00">ITS&#45;S reference architecture</text>
<polygon fill="none" stroke="black" points="16.38,-24.88 16.38,-43.12 169.62,-43.12 169.62,-24.88 16.38,-24.88"/>
</a>
</g>
</g>
<!-- communications view&#45;&gt;its&#45;sReferenceArchitecture -->
<g id="edge4" class="edge">
<title>communications view&#45;&gt;its&#45;sReferenceArchitecture</title>
<path fill="none" stroke="black" d="M218.52,-115.1C193.75,-99.3 156.55,-75.55 129.07,-58.02"/>
<polygon fill="black" stroke="black" points="131.02,-55.11 120.7,-52.68 127.25,-61.01 131.02,-55.11"/>
<text xml:space="preserve" text-anchor="middle" x="211.83" y="-86.55" font-family="Arial" font-size="11.00"> basedOn </text>
<text xml:space="preserve" text-anchor="middle" x="211.83" y="-73.05" font-family="Arial" font-size="11.00"> «some» &#160;</text>
</g>
<!-- Invis&#45;&gt;its&#45;sReferenceArchitecture -->
</g>
</svg>
