<?xml version="1.0" encoding="UTF-8" standalone="no"?>
<!DOCTYPE svg PUBLIC "-//W3C//DTD SVG 1.1//EN"
 "http://www.w3.org/Graphics/SVG/1.1/DTD/svg11.dtd">
<!-- Generated by graphviz version 14.1.3 (20260303.0454)
 -->
<!-- Pages: 1 -->
<svg width="304pt" height="219pt"
 viewBox="0.00 0.00 304.00 219.00" xmlns="http://www.w3.org/2000/svg" xmlns:xlink="http://www.w3.org/1999/xlink">
<g id="graph0" class="graph" transform="scale(1 1) rotate(0) translate(4 214.5)">
<polygon fill="white" stroke="none" points="-4,4 -4,-214.5 299.5,-214.5 299.5,4 -4,4"/>
<g id="clust2" class="cluster">
<title>cluster_associated</title>
</g>
<!-- communications viewpoint -->
<g id="node1" class="node">
<title>communications viewpoint</title>
<polygon fill="lightgray" stroke="none" points="151.5,-111.38 151.5,-127.62 294.5,-127.62 294.5,-111.38 151.5,-111.38"/>
<text xml:space="preserve" text-anchor="start" x="152.5" y="-115.38" font-family="Arial" font-size="12.00">communications viewpoint</text>
<polygon fill="none" stroke="black" points="150.5,-110.38 150.5,-128.62 295.5,-128.62 295.5,-110.38 150.5,-110.38"/>
</g>
<!-- architectureViewpoint -->
<g id="node2" class="node">
<title>architectureViewpoint</title>
<g id="a_node2"><a xlink:href="../terms/architecture viewpoint/" xlink:title="&lt;TABLE&gt;" target="_top">
<polygon fill="lightgray" stroke="none" points="163.88,-184.38 163.88,-200.62 282.12,-200.62 282.12,-184.38 163.88,-184.38"/>
<text xml:space="preserve" text-anchor="start" x="164.88" y="-188.38" font-family="Arial" font-size="12.00">architecture viewpoint</text>
<polygon fill="none" stroke="black" points="162.88,-183.38 162.88,-201.62 283.12,-201.62 283.12,-183.38 162.88,-183.38"/>
</a>
</g>
</g>
<!-- communications viewpoint&#45;&gt;architectureViewpoint -->
<g id="edge1" class="edge">
<title>communications viewpoint&#45;&gt;architectureViewpoint</title>
<path fill="none" stroke="black" d="M223,-137.21C223,-144.97 223,-154.42 223,-163.24"/>
<polygon fill="none" stroke="black" points="219.5,-163.16 223,-173.16 226.5,-163.16 219.5,-163.16"/>
</g>
<!-- Invis -->
<!-- communications viewpoint&#45;&gt;Invis -->
<!-- communicationsView -->
<g id="node4" class="node">
<title>communicationsView</title>
<g id="a_node4"><a xlink:href="../terms/communications view/" xlink:title="&lt;TABLE&gt;" target="_top">
<polygon fill="lightgray" stroke="none" points="16.62,-25.88 16.62,-42.12 133.38,-42.12 133.38,-25.88 16.62,-25.88"/>
<text xml:space="preserve" text-anchor="start" x="17.62" y="-29.88" font-family="Arial" font-size="12.00">communications view</text>
<polygon fill="none" stroke="black" points="15.62,-24.88 15.62,-43.12 134.38,-43.12 134.38,-24.88 15.62,-24.88"/>
</a>
</g>
</g>
<!-- communications viewpoint&#45;&gt;communicationsView -->
<g id="edge4" class="edge">
<title>communications viewpoint&#45;&gt;communicationsView</title>
<path fill="none" stroke="black" d="M193.05,-101.6C170.48,-88.87 139.32,-71.29 114.68,-57.39"/>
<polygon fill="black" stroke="black" points="116.65,-54.48 106.22,-52.62 113.21,-60.58 116.65,-54.48"/>
<text xml:space="preserve" text-anchor="middle" x="179.99" y="-73.05" font-family="Arial" font-size="11.00"> governs </text>
</g>
<!-- Invis&#45;&gt;communicationsView -->
</g>
</svg>
