<?xml version="1.0" encoding="UTF-8" standalone="no"?>
<!DOCTYPE svg PUBLIC "-//W3C//DTD SVG 1.1//EN"
 "http://www.w3.org/Graphics/SVG/1.1/DTD/svg11.dtd">
<!-- Generated by graphviz version 14.0.2 (20251019.1705)
 -->
<!-- Pages: 1 -->
<svg width="328pt" height="232pt"
 viewBox="0.00 0.00 328.00 232.00" xmlns="http://www.w3.org/2000/svg" xmlns:xlink="http://www.w3.org/1999/xlink">
<g id="graph0" class="graph" transform="scale(1 1) rotate(0) translate(4 228)">
<polygon fill="white" stroke="none" points="-4,4 -4,-228 323.75,-228 323.75,4 -4,4"/>
<g id="clust2" class="cluster">
<title>cluster_associated</title>
</g>
<!-- connected vehicle roadside equipment -->
<g id="node1" class="node">
<title>connected vehicle roadside equipment</title>
<g id="a_node1"><a xlink:href="../classes/itsVocabulary__connected vehicle roadside equipment.md" xlink:title="&lt;TABLE&gt;">
<polygon fill="lightgray" stroke="none" points="111.25,-124.88 111.25,-141.12 318.75,-141.12 318.75,-124.88 111.25,-124.88"/>
<text xml:space="preserve" text-anchor="start" x="112.25" y="-128.72" font-family="Arial" font-size="12.00">connected vehicle roadside equipment</text>
<polygon fill="none" stroke="black" points="110.25,-123.88 110.25,-142.12 319.75,-142.12 319.75,-123.88 110.25,-123.88"/>
</a>
</g>
</g>
<!-- itsRoadsideEquipment -->
<g id="node2" class="node">
<title>itsRoadsideEquipment</title>
<g id="a_node2"><a xlink:href="../ITS roadside equipment/" xlink:title="&lt;TABLE&gt;" target="_top">
<polygon fill="lightgray" stroke="none" points="150.25,-197.88 150.25,-214.12 279.75,-214.12 279.75,-197.88 150.25,-197.88"/>
<text xml:space="preserve" text-anchor="start" x="151.25" y="-201.72" font-family="Arial" font-size="12.00">ITS roadside equipment</text>
<polygon fill="none" stroke="black" points="149.25,-196.88 149.25,-215.12 280.75,-215.12 280.75,-196.88 149.25,-196.88"/>
</a>
</g>
</g>
<!-- connected vehicle roadside equipment&#45;&gt;itsRoadsideEquipment -->
<g id="edge1" class="edge">
<title>connected vehicle roadside equipment&#45;&gt;itsRoadsideEquipment</title>
<path fill="none" stroke="black" d="M215,-150.71C215,-158.47 215,-167.92 215,-176.74"/>
<polygon fill="none" stroke="black" points="211.5,-176.66 215,-186.66 218.5,-176.66 211.5,-176.66"/>
</g>
<!-- Invis -->
<!-- connected vehicle roadside equipment&#45;&gt;Invis -->
<!-- roadsideUnit -->
<g id="node4" class="node">
<title>roadsideUnit</title>
<g id="a_node4"><a xlink:href="../roadside unit/" xlink:title="&lt;TABLE&gt;" target="_top">
<polygon fill="lightgray" stroke="none" points="17.5,-25.88 17.5,-42.12 88.5,-42.12 88.5,-25.88 17.5,-25.88"/>
<text xml:space="preserve" text-anchor="start" x="18.5" y="-29.73" font-family="Arial" font-size="12.00">roadside unit</text>
<polygon fill="none" stroke="black" points="16.5,-24.88 16.5,-43.12 89.5,-43.12 89.5,-24.88 16.5,-24.88"/>
</a>
</g>
</g>
<!-- connected vehicle roadside equipment&#45;&gt;roadsideUnit -->
<g id="edge4" class="edge">
<title>connected vehicle roadside equipment&#45;&gt;roadsideUnit</title>
<path fill="none" stroke="black" stroke-dasharray="5,2" d="M186.78,-115.1C160.15,-99.16 120.03,-75.14 90.67,-57.56"/>
<polygon fill="black" stroke="black" points="92.84,-54.78 82.46,-52.64 89.25,-60.78 92.84,-54.78"/>
<text xml:space="preserve" text-anchor="middle" x="212.9" y="-86.55" font-family="Arial" font-size="11.00"> onProperty: aggregates </text>
<text xml:space="preserve" text-anchor="middle" x="212.9" y="-73.05" font-family="Arial" font-size="11.00"> «min 0» &#160;</text>
</g>
<!-- Invis&#45;&gt;roadsideUnit -->
</g>
</svg>
