<?xml version="1.0" encoding="UTF-8" standalone="no"?>
<!DOCTYPE svg PUBLIC "-//W3C//DTD SVG 1.1//EN"
 "http://www.w3.org/Graphics/SVG/1.1/DTD/svg11.dtd">
<!-- Generated by graphviz version 14.1.3 (20260303.0454)
 -->
<!-- Pages: 1 -->
<svg width="179pt" height="162pt"
 viewBox="0.00 0.00 179.00 162.00" xmlns="http://www.w3.org/2000/svg" xmlns:xlink="http://www.w3.org/1999/xlink">
<g id="graph0" class="graph" transform="scale(1 1) rotate(0) translate(4 157.5)">
<polygon fill="white" stroke="none" points="-4,4 -4,-157.5 174.75,-157.5 174.75,4 -4,4"/>
<g id="clust2" class="cluster">
<title>cluster_associated</title>
</g>
<!-- connected -->
<g id="node1" class="node">
<title>connected</title>
<g id="a_node1"><a xlink:href="../terms/connected/" xlink:title="&lt;TABLE&gt;">
<polygon fill="lightgray" stroke="none" points="1,-111.38 1,-127.62 58.5,-127.62 58.5,-111.38 1,-111.38"/>
<text xml:space="preserve" text-anchor="start" x="2" y="-115.38" font-family="Arial" font-size="12.00">connected</text>
<polygon fill="none" stroke="black" points="0,-110.38 0,-128.62 59.5,-128.62 59.5,-110.38 0,-110.38"/>
</a>
</g>
</g>
<!-- Invis -->
<!-- connected&#45;&gt;Invis -->
<!-- materialEntity -->
<g id="node3" class="node">
<title>materialEntity</title>
<g id="a_node3"><a xlink:href="../terms/material entity/" xlink:title="&lt;TABLE&gt;" target="_top">
<polygon fill="lightgray" stroke="none" points="77.62,-25.88 77.62,-42.12 153.88,-42.12 153.88,-25.88 77.62,-25.88"/>
<text xml:space="preserve" text-anchor="start" x="78.62" y="-29.88" font-family="Arial" font-size="12.00">material entity</text>
<polygon fill="none" stroke="black" points="76.62,-24.88 76.62,-43.12 154.88,-43.12 154.88,-24.88 76.62,-24.88"/>
</a>
</g>
</g>
<!-- connected&#45;&gt;materialEntity -->
<g id="edge3" class="edge">
<title>connected&#45;&gt;materialEntity</title>
<path fill="none" stroke="black" d="M27.06,-101.75C26.37,-91.66 27.23,-79.05 33.75,-70 41.67,-59.02 53.76,-51.45 66.24,-46.25"/>
<polygon fill="black" stroke="black" points="67.12,-49.66 75.31,-42.94 64.71,-43.08 67.12,-49.66"/>
<text xml:space="preserve" text-anchor="middle" x="74.25" y="-73.05" font-family="Arial" font-size="11.00"> characteristic of </text>
</g>
<!-- Invis&#45;&gt;materialEntity -->
</g>
</svg>
