<?xml version="1.0" encoding="UTF-8" standalone="no"?>
<!DOCTYPE svg PUBLIC "-//W3C//DTD SVG 1.1//EN"
 "http://www.w3.org/Graphics/SVG/1.1/DTD/svg11.dtd">
<!-- Generated by graphviz version 14.0.2 (20251019.1705)
 -->
<!-- Pages: 1 -->
<svg width="213pt" height="132pt"
 viewBox="0.00 0.00 213.00 132.00" xmlns="http://www.w3.org/2000/svg" xmlns:xlink="http://www.w3.org/1999/xlink">
<g id="graph0" class="graph" transform="scale(1 1) rotate(0) translate(4 128)">
<polygon fill="white" stroke="none" points="-4,4 -4,-128 208.88,-128 208.88,4 -4,4"/>
<g id="clust2" class="cluster">
<title>cluster_associated</title>
</g>
<!-- cooperative ITS -->
<g id="node1" class="node">
<title>cooperative ITS</title>
<g id="a_node1"><a xlink:href="../classes/itsVocabulary__cooperative ITS.md" xlink:title="&lt;TABLE&gt;">
<polygon fill="lightgray" stroke="none" points="29.88,-25.88 29.88,-42.12 115.88,-42.12 115.88,-25.88 29.88,-25.88"/>
<text xml:space="preserve" text-anchor="start" x="30.88" y="-29.73" font-family="Arial" font-size="12.00">cooperative ITS</text>
<polygon fill="none" stroke="black" points="28.88,-24.88 28.88,-43.12 116.88,-43.12 116.88,-24.88 28.88,-24.88"/>
</a>
</g>
</g>
<!-- intelligentTransportSystem -->
<g id="node2" class="node">
<title>intelligentTransportSystem</title>
<g id="a_node2"><a xlink:href="../intelligent transport system/" xlink:title="&lt;TABLE&gt;" target="_top">
<polygon fill="lightgray" stroke="none" points="1,-97.88 1,-114.12 144.75,-114.12 144.75,-97.88 1,-97.88"/>
<text xml:space="preserve" text-anchor="start" x="2" y="-101.72" font-family="Arial" font-size="12.00">intelligent transport system</text>
<polygon fill="none" stroke="black" points="0,-96.88 0,-115.12 145.75,-115.12 145.75,-96.88 0,-96.88"/>
</a>
</g>
</g>
<!-- cooperative ITS&#45;&gt;intelligentTransportSystem -->
<g id="edge1" class="edge">
<title>cooperative ITS&#45;&gt;intelligentTransportSystem</title>
<path fill="none" stroke="black" d="M72.88,-51.79C72.88,-59.25 72.88,-68.24 72.88,-76.69"/>
<polygon fill="none" stroke="black" points="69.38,-76.54 72.88,-86.54 76.38,-76.54 69.38,-76.54"/>
</g>
<!-- Invis -->
</g>
</svg>
