<?xml version="1.0" encoding="UTF-8" standalone="no"?>
<!DOCTYPE svg PUBLIC "-//W3C//DTD SVG 1.1//EN"
 "http://www.w3.org/Graphics/SVG/1.1/DTD/svg11.dtd">
<!-- Generated by graphviz version 14.0.2 (20251019.1705)
 -->
<!-- Pages: 1 -->
<svg width="226pt" height="132pt"
 viewBox="0.00 0.00 226.00 132.00" xmlns="http://www.w3.org/2000/svg" xmlns:xlink="http://www.w3.org/1999/xlink">
<g id="graph0" class="graph" transform="scale(1 1) rotate(0) translate(4 128)">
<polygon fill="white" stroke="none" points="-4,4 -4,-128 221.75,-128 221.75,4 -4,4"/>
<g id="clust2" class="cluster">
<title>cluster_associated</title>
</g>
<!-- courier network service -->
<g id="node1" class="node">
<title>courier network service</title>
<g id="a_node1"><a xlink:href="../classes/itsVocabulary__courier network service.md" xlink:title="&lt;TABLE&gt;">
<polygon fill="lightgray" stroke="none" points="3.25,-25.88 3.25,-42.12 128.25,-42.12 128.25,-25.88 3.25,-25.88"/>
<text xml:space="preserve" text-anchor="start" x="4.25" y="-29.73" font-family="Arial" font-size="12.00">courier network service</text>
<polygon fill="none" stroke="black" points="2.25,-24.88 2.25,-43.12 129.25,-43.12 129.25,-24.88 2.25,-24.88"/>
</a>
</g>
</g>
<!-- sharedTransportService -->
<g id="node2" class="node">
<title>sharedTransportService</title>
<g id="a_node2"><a xlink:href="../shared transport service/" xlink:title="&lt;TABLE&gt;" target="_top">
<polygon fill="lightgray" stroke="none" points="1,-97.88 1,-114.12 130.5,-114.12 130.5,-97.88 1,-97.88"/>
<text xml:space="preserve" text-anchor="start" x="2" y="-101.72" font-family="Arial" font-size="12.00">shared transport service</text>
<polygon fill="none" stroke="black" points="0,-96.88 0,-115.12 131.5,-115.12 131.5,-96.88 0,-96.88"/>
</a>
</g>
</g>
<!-- courier network service&#45;&gt;sharedTransportService -->
<g id="edge1" class="edge">
<title>courier network service&#45;&gt;sharedTransportService</title>
<path fill="none" stroke="black" d="M65.75,-51.79C65.75,-59.25 65.75,-68.24 65.75,-76.69"/>
<polygon fill="none" stroke="black" points="62.25,-76.54 65.75,-86.54 69.25,-76.54 62.25,-76.54"/>
</g>
<!-- Invis -->
</g>
</svg>
