<?xml version="1.0" encoding="UTF-8" standalone="no"?>
<!DOCTYPE svg PUBLIC "-//W3C//DTD SVG 1.1//EN"
 "http://www.w3.org/Graphics/SVG/1.1/DTD/svg11.dtd">
<!-- Generated by graphviz version 14.1.3 (20260303.0454)
 -->
<!-- Pages: 1 -->
<svg width="205pt" height="162pt"
 viewBox="0.00 0.00 205.00 162.00" xmlns="http://www.w3.org/2000/svg" xmlns:xlink="http://www.w3.org/1999/xlink">
<g id="graph0" class="graph" transform="scale(1 1) rotate(0) translate(4 157.5)">
<polygon fill="white" stroke="none" points="-4,4 -4,-157.5 201.25,-157.5 201.25,4 -4,4"/>
<g id="clust2" class="cluster">
<title>cluster_associated</title>
</g>
<!-- cross&#45;section -->
<g id="node1" class="node">
<title>cross&#45;section</title>
<g id="a_node1"><a xlink:href="../terms/cross-section/" xlink:title="&lt;TABLE&gt;">
<polygon fill="lightgray" stroke="none" points="1,-111.38 1,-127.62 73.5,-127.62 73.5,-111.38 1,-111.38"/>
<text xml:space="preserve" text-anchor="start" x="2" y="-115.38" font-family="Arial" font-size="12.00">cross&#45;section</text>
<polygon fill="none" stroke="black" points="0,-110.38 0,-128.62 74.5,-128.62 74.5,-110.38 0,-110.38"/>
</a>
</g>
</g>
<!-- Invis -->
<!-- cross&#45;section&#45;&gt;Invis -->
<!-- roadReservation -->
<g id="node3" class="node">
<title>roadReservation</title>
<g id="a_node3"><a xlink:href="../terms/road reservation/" xlink:title="&lt;TABLE&gt;" target="_top">
<polygon fill="lightgray" stroke="none" points="92.12,-25.88 92.12,-42.12 180.38,-42.12 180.38,-25.88 92.12,-25.88"/>
<text xml:space="preserve" text-anchor="start" x="93.12" y="-29.88" font-family="Arial" font-size="12.00">road reservation</text>
<polygon fill="none" stroke="black" points="91.12,-24.88 91.12,-43.12 181.38,-43.12 181.38,-24.88 91.12,-24.88"/>
</a>
</g>
</g>
<!-- cross&#45;section&#45;&gt;roadReservation -->
<g id="edge3" class="edge">
<title>cross&#45;section&#45;&gt;roadReservation</title>
<path fill="none" stroke="black" d="M49.05,-101.54C56.48,-91.61 66.69,-79.25 77.5,-70 82.53,-65.7 88.15,-61.61 93.87,-57.85"/>
<polygon fill="black" stroke="black" points="95.59,-60.9 102.22,-52.64 91.88,-54.96 95.59,-60.9"/>
<text xml:space="preserve" text-anchor="middle" x="104.88" y="-73.05" font-family="Arial" font-size="11.00"> comprises </text>
</g>
<!-- Invis&#45;&gt;roadReservation -->
</g>
</svg>
