<?xml version="1.0" encoding="UTF-8" standalone="no"?>
<!DOCTYPE svg PUBLIC "-//W3C//DTD SVG 1.1//EN"
 "http://www.w3.org/Graphics/SVG/1.1/DTD/svg11.dtd">
<!-- Generated by graphviz version 14.0.2 (20251019.1705)
 -->
<!-- Pages: 1 -->
<svg width="247pt" height="305pt"
 viewBox="0.00 0.00 247.00 305.00" xmlns="http://www.w3.org/2000/svg" xmlns:xlink="http://www.w3.org/1999/xlink">
<g id="graph0" class="graph" transform="scale(1 1) rotate(0) translate(4 301)">
<polygon fill="white" stroke="none" points="-4,4 -4,-301 243.14,-301 243.14,4 -4,4"/>
<g id="clust2" class="cluster">
<title>cluster_associated</title>
</g>
<!-- data element -->
<g id="node1" class="node">
<title>data element</title>
<g id="a_node1"><a xlink:href="../classes/itsVocabulary__data element.md" xlink:title="&lt;TABLE&gt;">
<polygon fill="lightgray" stroke="none" points="109.5,-197.88 109.5,-214.12 180.5,-214.12 180.5,-197.88 109.5,-197.88"/>
<text xml:space="preserve" text-anchor="start" x="110.5" y="-201.72" font-family="Arial" font-size="12.00">data element</text>
<polygon fill="none" stroke="black" points="108.5,-196.88 108.5,-215.12 181.5,-215.12 181.5,-196.88 108.5,-196.88"/>
</a>
</g>
</g>
<!-- dataConcept -->
<g id="node2" class="node">
<title>dataConcept</title>
<g id="a_node2"><a xlink:href="../data concept/" xlink:title="&lt;TABLE&gt;" target="_top">
<polygon fill="lightgray" stroke="none" points="109.88,-270.88 109.88,-287.12 180.12,-287.12 180.12,-270.88 109.88,-270.88"/>
<text xml:space="preserve" text-anchor="start" x="110.88" y="-274.73" font-family="Arial" font-size="12.00">data concept</text>
<polygon fill="none" stroke="black" points="108.88,-269.88 108.88,-288.12 181.12,-288.12 181.12,-269.88 108.88,-269.88"/>
</a>
</g>
</g>
<!-- data element&#45;&gt;dataConcept -->
<g id="edge1" class="edge">
<title>data element&#45;&gt;dataConcept</title>
<path fill="none" stroke="black" d="M145,-223.71C145,-231.47 145,-240.92 145,-249.74"/>
<polygon fill="none" stroke="black" points="141.5,-249.66 145,-259.66 148.5,-249.66 141.5,-249.66"/>
</g>
<!-- Invis -->
<!-- data element&#45;&gt;Invis -->
<!-- class -->
<g id="node4" class="node">
<title>class</title>
<g id="a_node4"><a xlink:href="../class/" xlink:title="&lt;TABLE&gt;" target="_top">
<polygon fill="lightgray" stroke="none" points="39.12,-98.88 39.12,-115.12 68.88,-115.12 68.88,-98.88 39.12,-98.88"/>
<text xml:space="preserve" text-anchor="start" x="40.12" y="-102.72" font-family="Arial" font-size="12.00">class</text>
<polygon fill="none" stroke="black" points="38.12,-97.88 38.12,-116.12 69.88,-116.12 69.88,-97.88 38.12,-97.88"/>
</a>
</g>
</g>
<!-- data element&#45;&gt;class -->
<g id="edge5" class="edge">
<title>data element&#45;&gt;class</title>
<path fill="none" stroke="black" stroke-dasharray="5,2" d="M108.61,-189.89C86.5,-180.67 62.41,-170.54 62,-170 54.79,-160.51 52.29,-147.75 51.79,-136.27"/>
<polygon fill="black" stroke="black" points="55.29,-136.51 51.87,-126.48 48.29,-136.45 55.29,-136.51"/>
<text xml:space="preserve" text-anchor="middle" x="117.5" y="-159.55" font-family="Arial" font-size="11.00"> onProperty: describes </text>
<text xml:space="preserve" text-anchor="middle" x="117.5" y="-146.05" font-family="Arial" font-size="11.00"> «exactly 1» &#160;</text>
</g>
<!-- valueDomain -->
<g id="node5" class="node">
<title>valueDomain</title>
<g id="a_node5"><a xlink:href="../value domain/" xlink:title="&lt;TABLE&gt;" target="_top">
<polygon fill="lightgray" stroke="none" points="17,-25.88 17,-42.12 91,-42.12 91,-25.88 17,-25.88"/>
<text xml:space="preserve" text-anchor="start" x="18" y="-29.73" font-family="Arial" font-size="12.00">value domain</text>
<polygon fill="none" stroke="black" points="16,-24.88 16,-43.12 92,-43.12 92,-24.88 16,-24.88"/>
</a>
</g>
</g>
<!-- data element&#45;&gt;valueDomain -->
<g id="edge6" class="edge">
<title>data element&#45;&gt;valueDomain</title>
<path fill="none" stroke="black" d="M162.13,-188.27C166.53,-182.9 170.68,-176.61 173,-170 176.97,-158.68 177.86,-153.97 173,-143 156.83,-106.49 121.54,-77.05 93.57,-58.18"/>
<polygon fill="black" stroke="black" points="95.58,-55.31 85.29,-52.78 91.76,-61.17 95.58,-55.31"/>
<text xml:space="preserve" text-anchor="middle" x="200.89" y="-110.05" font-family="Arial" font-size="11.00"> representedBy </text>
<text xml:space="preserve" text-anchor="middle" x="200.89" y="-96.55" font-family="Arial" font-size="11.00"> «exactly 1» &#160;</text>
</g>
<!-- Invis&#45;&gt;class -->
<!-- class&#45;&gt;valueDomain -->
</g>
</svg>
