<?xml version="1.0" encoding="UTF-8" standalone="no"?>
<!DOCTYPE svg PUBLIC "-//W3C//DTD SVG 1.1//EN"
 "http://www.w3.org/Graphics/SVG/1.1/DTD/svg11.dtd">
<!-- Generated by graphviz version 14.0.2 (20251019.1705)
 -->
<!-- Pages: 1 -->
<svg width="152pt" height="132pt"
 viewBox="0.00 0.00 152.00 132.00" xmlns="http://www.w3.org/2000/svg" xmlns:xlink="http://www.w3.org/1999/xlink">
<g id="graph0" class="graph" transform="scale(1 1) rotate(0) translate(4 128)">
<polygon fill="white" stroke="none" points="-4,4 -4,-128 148.25,-128 148.25,4 -4,4"/>
<g id="clust2" class="cluster">
<title>cluster_associated</title>
</g>
<!-- document -->
<g id="node1" class="node">
<title>document</title>
<g id="a_node1"><a xlink:href="../classes/itsVocabulary__document.md" xlink:title="&lt;TABLE&gt;">
<polygon fill="lightgray" stroke="none" points="1,-25.88 1,-42.12 55.5,-42.12 55.5,-25.88 1,-25.88"/>
<text xml:space="preserve" text-anchor="start" x="2" y="-29.73" font-family="Arial" font-size="12.00">document</text>
<polygon fill="none" stroke="black" points="0,-24.88 0,-43.12 56.5,-43.12 56.5,-24.88 0,-24.88"/>
</a>
</g>
</g>
<!-- resource -->
<g id="node2" class="node">
<title>resource</title>
<g id="a_node2"><a xlink:href="../resource/" xlink:title="&lt;TABLE&gt;" target="_top">
<polygon fill="lightgray" stroke="none" points="4,-97.88 4,-114.12 52.5,-114.12 52.5,-97.88 4,-97.88"/>
<text xml:space="preserve" text-anchor="start" x="5" y="-101.72" font-family="Arial" font-size="12.00">resource</text>
<polygon fill="none" stroke="black" points="3,-96.88 3,-115.12 53.5,-115.12 53.5,-96.88 3,-96.88"/>
</a>
</g>
</g>
<!-- document&#45;&gt;resource -->
<g id="edge1" class="edge">
<title>document&#45;&gt;resource</title>
<path fill="none" stroke="black" d="M28.25,-51.79C28.25,-59.25 28.25,-68.24 28.25,-76.69"/>
<polygon fill="none" stroke="black" points="24.75,-76.54 28.25,-86.54 31.75,-76.54 24.75,-76.54"/>
</g>
<!-- Invis -->
</g>
</svg>
