<?xml version="1.0" encoding="UTF-8" standalone="no"?>
<!DOCTYPE svg PUBLIC "-//W3C//DTD SVG 1.1//EN"
 "http://www.w3.org/Graphics/SVG/1.1/DTD/svg11.dtd">
<!-- Generated by graphviz version 14.1.3 (20260303.0454)
 -->
<!-- Pages: 1 -->
<svg width="282pt" height="219pt"
 viewBox="0.00 0.00 282.00 219.00" xmlns="http://www.w3.org/2000/svg" xmlns:xlink="http://www.w3.org/1999/xlink">
<g id="graph0" class="graph" transform="scale(1 1) rotate(0) translate(4 214.5)">
<polygon fill="white" stroke="none" points="-4,4 -4,-214.5 278.38,-214.5 278.38,4 -4,4"/>
<g id="clust2" class="cluster">
<title>cluster_associated</title>
</g>
<!-- driver support system -->
<g id="node1" class="node">
<title>driver support system</title>
<polygon fill="lightgray" stroke="none" points="145.38,-111.38 145.38,-127.62 260.62,-127.62 260.62,-111.38 145.38,-111.38"/>
<text xml:space="preserve" text-anchor="start" x="146.38" y="-115.38" font-family="Arial" font-size="12.00">driver support system</text>
<polygon fill="none" stroke="black" points="144.38,-110.38 144.38,-128.62 261.62,-128.62 261.62,-110.38 144.38,-110.38"/>
</g>
<!-- drivingAutomationSystem -->
<g id="node2" class="node">
<title>drivingAutomationSystem</title>
<g id="a_node2"><a xlink:href="../terms/driving automation system/" xlink:title="&lt;TABLE&gt;" target="_top">
<polygon fill="lightgray" stroke="none" points="132.62,-184.38 132.62,-200.62 273.38,-200.62 273.38,-184.38 132.62,-184.38"/>
<text xml:space="preserve" text-anchor="start" x="133.62" y="-188.38" font-family="Arial" font-size="12.00">driving automation system</text>
<polygon fill="none" stroke="black" points="131.62,-183.38 131.62,-201.62 274.38,-201.62 274.38,-183.38 131.62,-183.38"/>
</a>
</g>
</g>
<!-- driver support system&#45;&gt;drivingAutomationSystem -->
<g id="edge1" class="edge">
<title>driver support system&#45;&gt;drivingAutomationSystem</title>
<path fill="none" stroke="black" d="M203,-137.21C203,-144.97 203,-154.42 203,-163.24"/>
<polygon fill="none" stroke="black" points="199.5,-163.16 203,-173.16 206.5,-163.16 199.5,-163.16"/>
</g>
<!-- Invis -->
<!-- driver support system&#45;&gt;Invis -->
<!-- dynamicDrivingTask -->
<g id="node4" class="node">
<title>dynamicDrivingTask</title>
<g id="a_node4"><a xlink:href="../terms/dynamic driving task/" xlink:title="&lt;TABLE&gt;" target="_top">
<polygon fill="lightgray" stroke="none" points="16.62,-25.88 16.62,-42.12 127.38,-42.12 127.38,-25.88 16.62,-25.88"/>
<text xml:space="preserve" text-anchor="start" x="17.62" y="-29.88" font-family="Arial" font-size="12.00">dynamic driving task</text>
<polygon fill="none" stroke="black" points="15.62,-24.88 15.62,-43.12 128.38,-43.12 128.38,-24.88 15.62,-24.88"/>
</a>
</g>
</g>
<!-- driver support system&#45;&gt;dynamicDrivingTask -->
<g id="edge4" class="edge">
<title>driver support system&#45;&gt;dynamicDrivingTask</title>
<path fill="none" stroke="black" d="M176.49,-101.6C156.78,-89.04 129.67,-71.76 108,-57.94"/>
<polygon fill="black" stroke="black" points="110.06,-55.11 99.75,-52.69 106.3,-61.01 110.06,-55.11"/>
<text xml:space="preserve" text-anchor="middle" x="186.59" y="-73.05" font-family="Arial" font-size="11.00"> performs part of </text>
</g>
<!-- Invis&#45;&gt;dynamicDrivingTask -->
</g>
</svg>
