<?xml version="1.0" encoding="UTF-8" standalone="no"?>
<!DOCTYPE svg PUBLIC "-//W3C//DTD SVG 1.1//EN"
 "http://www.w3.org/Graphics/SVG/1.1/DTD/svg11.dtd">
<!-- Generated by graphviz version 14.0.2 (20251019.1705)
 -->
<!-- Pages: 1 -->
<svg width="294pt" height="175pt"
 viewBox="0.00 0.00 294.00 175.00" xmlns="http://www.w3.org/2000/svg" xmlns:xlink="http://www.w3.org/1999/xlink">
<g id="graph0" class="graph" transform="scale(1 1) rotate(0) translate(4 171)">
<polygon fill="white" stroke="none" points="-4,4 -4,-171 290.38,-171 290.38,4 -4,4"/>
<g id="clust2" class="cluster">
<title>cluster_associated</title>
</g>
<!-- driving automation system -->
<g id="node1" class="node">
<title>driving automation system</title>
<g id="a_node1"><a xlink:href="../classes/itsVocabulary__driving automation system.md" xlink:title="&lt;TABLE&gt;">
<polygon fill="lightgray" stroke="none" points="1,-124.88 1,-141.12 141.75,-141.12 141.75,-124.88 1,-124.88"/>
<text xml:space="preserve" text-anchor="start" x="2" y="-128.72" font-family="Arial" font-size="12.00">driving automation system</text>
<polygon fill="none" stroke="black" points="0,-123.88 0,-142.12 142.75,-142.12 142.75,-123.88 0,-123.88"/>
</a>
</g>
</g>
<!-- Invis -->
<!-- driving automation system&#45;&gt;Invis -->
<!-- dynamicDrivingTask -->
<g id="node3" class="node">
<title>dynamicDrivingTask</title>
<g id="a_node3"><a xlink:href="../dynamic driving task/" xlink:title="&lt;TABLE&gt;" target="_top">
<polygon fill="lightgray" stroke="none" points="159,-25.88 159,-42.12 269.75,-42.12 269.75,-25.88 159,-25.88"/>
<text xml:space="preserve" text-anchor="start" x="160" y="-29.73" font-family="Arial" font-size="12.00">dynamic driving task</text>
<polygon fill="none" stroke="black" points="158,-24.88 158,-43.12 270.75,-43.12 270.75,-24.88 158,-24.88"/>
</a>
</g>
</g>
<!-- driving automation system&#45;&gt;dynamicDrivingTask -->
<g id="edge3" class="edge">
<title>driving automation system&#45;&gt;dynamicDrivingTask</title>
<path fill="none" stroke="black" d="M75.98,-115.21C80.63,-101.23 89.17,-81.78 103.12,-70 115.7,-59.39 131.49,-51.99 147.2,-46.83"/>
<polygon fill="black" stroke="black" points="147.99,-50.24 156.57,-44.03 145.99,-43.53 147.99,-50.24"/>
<text xml:space="preserve" text-anchor="middle" x="155.25" y="-86.55" font-family="Arial" font-size="11.00"> performsPartOrAllOf </text>
<text xml:space="preserve" text-anchor="middle" x="155.25" y="-73.05" font-family="Arial" font-size="11.00"> «some» &#160;</text>
</g>
<!-- Invis&#45;&gt;dynamicDrivingTask -->
</g>
</svg>
