<?xml version="1.0" encoding="UTF-8" standalone="no"?>
<!DOCTYPE svg PUBLIC "-//W3C//DTD SVG 1.1//EN"
 "http://www.w3.org/Graphics/SVG/1.1/DTD/svg11.dtd">
<!-- Generated by graphviz version 14.0.2 (20251019.1705)
 -->
<!-- Pages: 1 -->
<svg width="226pt" height="175pt"
 viewBox="0.00 0.00 226.00 175.00" xmlns="http://www.w3.org/2000/svg" xmlns:xlink="http://www.w3.org/1999/xlink">
<g id="graph0" class="graph" transform="scale(1 1) rotate(0) translate(4 171)">
<polygon fill="white" stroke="none" points="-4,4 -4,-171 222.38,-171 222.38,4 -4,4"/>
<g id="clust2" class="cluster">
<title>cluster_associated</title>
</g>
<!-- dynamic driving task -->
<g id="node1" class="node">
<title>dynamic driving task</title>
<g id="a_node1"><a xlink:href="../classes/itsVocabulary__dynamic driving task.md" xlink:title="&lt;TABLE&gt;">
<polygon fill="lightgray" stroke="none" points="1,-124.88 1,-141.12 111.75,-141.12 111.75,-124.88 1,-124.88"/>
<text xml:space="preserve" text-anchor="start" x="2" y="-128.72" font-family="Arial" font-size="12.00">dynamic driving task</text>
<polygon fill="none" stroke="black" points="0,-123.88 0,-142.12 112.75,-142.12 112.75,-123.88 0,-123.88"/>
</a>
</g>
</g>
<!-- Invis -->
<!-- dynamic driving task&#45;&gt;Invis -->
<!-- vehicle -->
<g id="node3" class="node">
<title>vehicle</title>
<g id="a_node3"><a xlink:href="../vehicle/" xlink:title="&lt;TABLE&gt;" target="_top">
<polygon fill="lightgray" stroke="none" points="155.25,-25.88 155.25,-42.12 195.5,-42.12 195.5,-25.88 155.25,-25.88"/>
<text xml:space="preserve" text-anchor="start" x="156.25" y="-29.73" font-family="Arial" font-size="12.00">vehicle</text>
<polygon fill="none" stroke="black" points="154.25,-24.88 154.25,-43.12 196.5,-43.12 196.5,-24.88 154.25,-24.88"/>
</a>
</g>
</g>
<!-- dynamic driving task&#45;&gt;vehicle -->
<g id="edge3" class="edge">
<title>dynamic driving task&#45;&gt;vehicle</title>
<path fill="none" stroke="black" d="M53.64,-115.08C52.41,-101.41 53.1,-82.45 63.38,-70 81.29,-48.3 112.48,-39.83 137.4,-36.63"/>
<polygon fill="black" stroke="black" points="137.6,-40.13 147.19,-35.62 136.88,-33.16 137.6,-40.13"/>
<text xml:space="preserve" text-anchor="middle" x="117.38" y="-86.55" font-family="Arial" font-size="11.00"> isRequiredToOperate </text>
<text xml:space="preserve" text-anchor="middle" x="117.38" y="-73.05" font-family="Arial" font-size="11.00"> «some» &#160;</text>
</g>
<!-- Invis&#45;&gt;vehicle -->
</g>
</svg>
