<?xml version="1.0" encoding="UTF-8" standalone="no"?>
<!DOCTYPE svg PUBLIC "-//W3C//DTD SVG 1.1//EN"
 "http://www.w3.org/Graphics/SVG/1.1/DTD/svg11.dtd">
<!-- Generated by graphviz version 14.0.2 (20251019.1705)
 -->
<!-- Pages: 1 -->
<svg width="178pt" height="175pt"
 viewBox="0.00 0.00 178.00 175.00" xmlns="http://www.w3.org/2000/svg" xmlns:xlink="http://www.w3.org/1999/xlink">
<g id="graph0" class="graph" transform="scale(1 1) rotate(0) translate(4 171)">
<polygon fill="white" stroke="none" points="-4,4 -4,-171 173.88,-171 173.88,4 -4,4"/>
<g id="clust2" class="cluster">
<title>cluster_associated</title>
</g>
<!-- egress link -->
<g id="node1" class="node">
<title>egress link</title>
<g id="a_node1"><a xlink:href="../classes/itsVocabulary__egress link.md" xlink:title="&lt;TABLE&gt;">
<polygon fill="lightgray" stroke="none" points="1,-124.88 1,-141.12 60.75,-141.12 60.75,-124.88 1,-124.88"/>
<text xml:space="preserve" text-anchor="start" x="2" y="-128.72" font-family="Arial" font-size="12.00">egress link</text>
<polygon fill="none" stroke="black" points="0,-123.88 0,-142.12 61.75,-142.12 61.75,-123.88 0,-123.88"/>
</a>
</g>
</g>
<!-- Invis -->
<!-- egress link&#45;&gt;Invis -->
<!-- egressLane -->
<g id="node3" class="node">
<title>egressLane</title>
<g id="a_node3"><a xlink:href="../egress lane/" xlink:title="&lt;TABLE&gt;" target="_top">
<polygon fill="lightgray" stroke="none" points="88.75,-25.88 88.75,-42.12 153,-42.12 153,-25.88 88.75,-25.88"/>
<text xml:space="preserve" text-anchor="start" x="89.75" y="-29.73" font-family="Arial" font-size="12.00">egress lane</text>
<polygon fill="none" stroke="black" points="87.75,-24.88 87.75,-43.12 154,-43.12 154,-24.88 87.75,-24.88"/>
</a>
</g>
</g>
<!-- egress link&#45;&gt;egressLane -->
<g id="edge3" class="edge">
<title>egress link&#45;&gt;egressLane</title>
<path fill="none" stroke="black" d="M35,-115.08C39,-101.58 46.19,-82.86 57.88,-70 63.67,-63.62 70.91,-58.13 78.4,-53.53"/>
<polygon fill="black" stroke="black" points="79.61,-56.87 86.6,-48.91 76.17,-50.77 79.61,-56.87"/>
<text xml:space="preserve" text-anchor="middle" x="87.88" y="-86.55" font-family="Arial" font-size="11.00"> aggregates </text>
<text xml:space="preserve" text-anchor="middle" x="87.88" y="-73.05" font-family="Arial" font-size="11.00"> «some» &#160;</text>
</g>
<!-- Invis&#45;&gt;egressLane -->
</g>
</svg>
