<?xml version="1.0" encoding="UTF-8" standalone="no"?>
<!DOCTYPE svg PUBLIC "-//W3C//DTD SVG 1.1//EN"
 "http://www.w3.org/Graphics/SVG/1.1/DTD/svg11.dtd">
<!-- Generated by graphviz version 14.0.2 (20251019.1705)
 -->
<!-- Pages: 1 -->
<svg width="180pt" height="175pt"
 viewBox="0.00 0.00 180.00 175.00" xmlns="http://www.w3.org/2000/svg" xmlns:xlink="http://www.w3.org/1999/xlink">
<g id="graph0" class="graph" transform="scale(1 1) rotate(0) translate(4 171)">
<polygon fill="white" stroke="none" points="-4,4 -4,-171 176.12,-171 176.12,4 -4,4"/>
<g id="clust2" class="cluster">
<title>cluster_associated</title>
</g>
<!-- egress lane -->
<g id="node1" class="node">
<title>egress lane</title>
<g id="a_node1"><a xlink:href="../classes/itsVocabulary__egress lane.md" xlink:title="&lt;TABLE&gt;">
<polygon fill="lightgray" stroke="none" points="1,-124.88 1,-141.12 65.25,-141.12 65.25,-124.88 1,-124.88"/>
<text xml:space="preserve" text-anchor="start" x="2" y="-128.72" font-family="Arial" font-size="12.00">egress lane</text>
<polygon fill="none" stroke="black" points="0,-123.88 0,-142.12 66.25,-142.12 66.25,-123.88 0,-123.88"/>
</a>
</g>
</g>
<!-- Invis -->
<!-- egress lane&#45;&gt;Invis -->
<!-- junction -->
<g id="node3" class="node">
<title>junction</title>
<g id="a_node3"><a xlink:href="../junction/" xlink:title="&lt;TABLE&gt;" target="_top">
<polygon fill="lightgray" stroke="none" points="107.12,-25.88 107.12,-42.12 151.12,-42.12 151.12,-25.88 107.12,-25.88"/>
<text xml:space="preserve" text-anchor="start" x="108.12" y="-29.73" font-family="Arial" font-size="12.00">junction</text>
<polygon fill="none" stroke="black" points="106.12,-24.88 106.12,-43.12 152.12,-43.12 152.12,-24.88 106.12,-24.88"/>
</a>
</g>
</g>
<!-- egress lane&#45;&gt;junction -->
<g id="edge3" class="edge">
<title>egress lane&#45;&gt;junction</title>
<path fill="none" stroke="black" d="M42.95,-115.26C51.22,-102.04 63.9,-83.62 77.88,-70 82.52,-65.47 87.82,-61.14 93.2,-57.16"/>
<polygon fill="black" stroke="black" points="94.83,-60.29 101.01,-51.69 90.81,-54.56 94.83,-60.29"/>
<text xml:space="preserve" text-anchor="middle" x="101.5" y="-86.55" font-family="Arial" font-size="11.00"> exitFor </text>
<text xml:space="preserve" text-anchor="middle" x="101.5" y="-73.05" font-family="Arial" font-size="11.00"> «some» &#160;</text>
</g>
<!-- Invis&#45;&gt;junction -->
</g>
</svg>
