<?xml version="1.0" encoding="UTF-8" standalone="no"?>
<!DOCTYPE svg PUBLIC "-//W3C//DTD SVG 1.1//EN"
 "http://www.w3.org/Graphics/SVG/1.1/DTD/svg11.dtd">
<!-- Generated by graphviz version 14.0.2 (20251019.1705)
 -->
<!-- Pages: 1 -->
<svg width="472pt" height="649pt"
 viewBox="0.00 0.00 472.00 649.00" xmlns="http://www.w3.org/2000/svg" xmlns:xlink="http://www.w3.org/1999/xlink">
<g id="graph0" class="graph" transform="scale(1 1) rotate(0) translate(4 645)">
<polygon fill="white" stroke="none" points="-4,4 -4,-645 468,-645 468,4 -4,4"/>
<g id="clust2" class="cluster">
<title>cluster_associated</title>
</g>
<!-- enterprise view -->
<g id="node1" class="node">
<title>enterprise view</title>
<g id="a_node1"><a xlink:href="../classes/itsVocabulary__enterprise view.md" xlink:title="&lt;TABLE&gt;">
<polygon fill="lightgray" stroke="none" points="190.5,-541.88 190.5,-558.12 273.5,-558.12 273.5,-541.88 190.5,-541.88"/>
<text xml:space="preserve" text-anchor="start" x="191.5" y="-545.73" font-family="Arial" font-size="12.00">enterprise view</text>
<polygon fill="none" stroke="black" points="189.5,-540.88 189.5,-559.12 274.5,-559.12 274.5,-540.88 189.5,-540.88"/>
</a>
</g>
</g>
<!-- architectureView -->
<g id="node2" class="node">
<title>architectureView</title>
<g id="a_node2"><a xlink:href="../architecture view/" xlink:title="&lt;TABLE&gt;" target="_top">
<polygon fill="lightgray" stroke="none" points="186,-614.88 186,-631.12 278,-631.12 278,-614.88 186,-614.88"/>
<text xml:space="preserve" text-anchor="start" x="187" y="-618.73" font-family="Arial" font-size="12.00">architecture view</text>
<polygon fill="none" stroke="black" points="185,-613.88 185,-632.12 279,-632.12 279,-613.88 185,-613.88"/>
</a>
</g>
</g>
<!-- enterprise view&#45;&gt;architectureView -->
<g id="edge1" class="edge">
<title>enterprise view&#45;&gt;architectureView</title>
<path fill="none" stroke="black" d="M232,-567.71C232,-575.47 232,-584.92 232,-593.74"/>
<polygon fill="none" stroke="black" points="228.5,-593.66 232,-603.66 235.5,-593.66 228.5,-593.66"/>
</g>
<!-- Invis -->
<!-- enterprise view&#45;&gt;Invis -->
<!-- enterpriseObject -->
<g id="node4" class="node">
<title>enterpriseObject</title>
<g id="a_node4"><a xlink:href="../enterprise object/" xlink:title="&lt;TABLE&gt;" target="_top">
<polygon fill="lightgray" stroke="none" points="16.75,-442.88 16.75,-459.12 107.25,-459.12 107.25,-442.88 16.75,-442.88"/>
<text xml:space="preserve" text-anchor="start" x="17.75" y="-446.73" font-family="Arial" font-size="12.00">enterprise object</text>
<polygon fill="none" stroke="black" points="15.75,-441.88 15.75,-460.12 108.25,-460.12 108.25,-441.88 15.75,-441.88"/>
</a>
</g>
</g>
<!-- enterprise view&#45;&gt;enterpriseObject -->
<g id="edge9" class="edge">
<title>enterprise view&#45;&gt;enterpriseObject</title>
<path fill="none" stroke="black" d="M189.82,-542.46C144.59,-535.04 78.13,-522.85 70,-514 61.74,-505.01 59.19,-491.95 58.94,-480.13"/>
<polygon fill="black" stroke="black" points="62.42,-480.55 59.26,-470.43 55.43,-480.31 62.42,-480.55"/>
<text xml:space="preserve" text-anchor="middle" x="100" y="-503.55" font-family="Arial" font-size="11.00"> aggregates </text>
<text xml:space="preserve" text-anchor="middle" x="100" y="-490.05" font-family="Arial" font-size="11.00"> «some» &#160;</text>
</g>
<!-- informationFlow -->
<g id="node5" class="node">
<title>informationFlow</title>
<g id="a_node5"><a xlink:href="../information flow/" xlink:title="&lt;TABLE&gt;" target="_top">
<polygon fill="lightgray" stroke="none" points="21,-343.88 21,-360.12 107,-360.12 107,-343.88 21,-343.88"/>
<text xml:space="preserve" text-anchor="start" x="22" y="-347.73" font-family="Arial" font-size="12.00">information flow</text>
<polygon fill="none" stroke="black" points="20,-342.88 20,-361.12 108,-361.12 108,-342.88 20,-342.88"/>
</a>
</g>
</g>
<!-- enterprise view&#45;&gt;informationFlow -->
<g id="edge11" class="edge">
<title>enterprise view&#45;&gt;informationFlow</title>
<path fill="none" stroke="black" d="M215.79,-532.13C200.57,-516.14 177.32,-491.31 158,-469 131.63,-438.56 102.65,-402.34 83.93,-378.57"/>
<polygon fill="black" stroke="black" points="86.91,-376.7 77.99,-370.99 81.41,-381.02 86.91,-376.7"/>
<text xml:space="preserve" text-anchor="middle" x="188" y="-454.05" font-family="Arial" font-size="11.00"> aggregates </text>
<text xml:space="preserve" text-anchor="middle" x="188" y="-440.55" font-family="Arial" font-size="11.00"> «some» &#160;</text>
</g>
<!-- interaction -->
<g id="node6" class="node">
<title>interaction</title>
<g id="a_node6"><a xlink:href="../interaction/" xlink:title="&lt;TABLE&gt;" target="_top">
<polygon fill="lightgray" stroke="none" points="46.25,-244.88 46.25,-261.12 103.75,-261.12 103.75,-244.88 46.25,-244.88"/>
<text xml:space="preserve" text-anchor="start" x="47.25" y="-248.72" font-family="Arial" font-size="12.00">interaction</text>
<polygon fill="none" stroke="black" points="45.25,-243.88 45.25,-262.12 104.75,-262.12 104.75,-243.88 45.25,-243.88"/>
</a>
</g>
</g>
<!-- enterprise view&#45;&gt;interaction -->
<g id="edge12" class="edge">
<title>enterprise view&#45;&gt;interaction</title>
<path fill="none" stroke="black" d="M233.74,-532.07C235.37,-508.36 235.39,-464.64 218,-433 211.91,-421.93 204.75,-424.12 196,-415 154.1,-371.33 113.54,-313.11 91.67,-279.98"/>
<polygon fill="black" stroke="black" points="94.73,-278.27 86.33,-271.81 88.87,-282.1 94.73,-278.27"/>
<text xml:space="preserve" text-anchor="middle" x="226" y="-404.55" font-family="Arial" font-size="11.00"> aggregates </text>
<text xml:space="preserve" text-anchor="middle" x="226" y="-391.05" font-family="Arial" font-size="11.00"> «some» &#160;</text>
</g>
<!-- relationship -->
<g id="node7" class="node">
<title>relationship</title>
<g id="a_node7"><a xlink:href="../relationship/" xlink:title="&lt;TABLE&gt;" target="_top">
<polygon fill="lightgray" stroke="none" points="42.88,-171.88 42.88,-188.12 107.12,-188.12 107.12,-171.88 42.88,-171.88"/>
<text xml:space="preserve" text-anchor="start" x="43.88" y="-175.72" font-family="Arial" font-size="12.00">relationship</text>
<polygon fill="none" stroke="black" points="41.88,-170.88 41.88,-189.12 108.12,-189.12 108.12,-170.88 41.88,-170.88"/>
</a>
</g>
</g>
<!-- enterprise view&#45;&gt;relationship -->
<g id="edge14" class="edge">
<title>enterprise view&#45;&gt;relationship</title>
<path fill="none" stroke="black" d="M241.04,-532.35C243.73,-526.68 246.38,-520.21 248,-514 262.14,-459.7 275.73,-440.53 256,-388 226.21,-308.68 150.73,-239.85 107.23,-205.09"/>
<polygon fill="black" stroke="black" points="109.42,-202.36 99.39,-198.93 105.1,-207.86 109.42,-202.36"/>
<text xml:space="preserve" text-anchor="middle" x="277.48" y="-355.05" font-family="Arial" font-size="11.00"> aggregates </text>
<text xml:space="preserve" text-anchor="middle" x="277.48" y="-341.55" font-family="Arial" font-size="11.00"> «some» &#160;</text>
</g>
<!-- resource -->
<g id="node8" class="node">
<title>resource</title>
<g id="a_node8"><a xlink:href="../resource/" xlink:title="&lt;TABLE&gt;" target="_top">
<polygon fill="lightgray" stroke="none" points="56.75,-98.88 56.75,-115.12 105.25,-115.12 105.25,-98.88 56.75,-98.88"/>
<text xml:space="preserve" text-anchor="start" x="57.75" y="-102.72" font-family="Arial" font-size="12.00">resource</text>
<polygon fill="none" stroke="black" points="55.75,-97.88 55.75,-116.12 106.25,-116.12 106.25,-97.88 55.75,-97.88"/>
</a>
</g>
</g>
<!-- enterprise view&#45;&gt;resource -->
<g id="edge10" class="edge">
<title>enterprise view&#45;&gt;resource</title>
<path fill="none" stroke="black" d="M266.75,-532.06C294.58,-515.79 329,-488.32 329,-452 329,-452 329,-452 329,-179 329,-135.82 188.27,-117.4 118.83,-110.95"/>
<polygon fill="black" stroke="black" points="119.32,-107.48 109.05,-110.08 118.7,-114.45 119.32,-107.48"/>
<text xml:space="preserve" text-anchor="middle" x="359" y="-305.55" font-family="Arial" font-size="11.00"> aggregates </text>
<text xml:space="preserve" text-anchor="middle" x="359" y="-292.05" font-family="Arial" font-size="11.00"> «some» &#160;</text>
</g>
<!-- role -->
<g id="node9" class="node">
<title>role</title>
<g id="a_node9"><a xlink:href="../role/" xlink:title="&lt;TABLE&gt;" target="_top">
<polygon fill="lightgray" stroke="none" points="69.88,-25.88 69.88,-42.12 92.12,-42.12 92.12,-25.88 69.88,-25.88"/>
<text xml:space="preserve" text-anchor="start" x="70.88" y="-29.73" font-family="Arial" font-size="12.00">role</text>
<polygon fill="none" stroke="black" points="68.88,-24.88 68.88,-43.12 93.12,-43.12 93.12,-24.88 68.88,-24.88"/>
</a>
</g>
</g>
<!-- enterprise view&#45;&gt;role -->
<g id="edge13" class="edge">
<title>enterprise view&#45;&gt;role</title>
<path fill="none" stroke="black" d="M274.08,-543.8C325,-534.89 404,-511.48 404,-452 404,-452 404,-452 404,-106 404,-48.29 204.79,-37.43 119.26,-35.43"/>
<polygon fill="black" stroke="black" points="119.57,-31.94 109.5,-35.24 119.42,-38.94 119.57,-31.94"/>
<text xml:space="preserve" text-anchor="middle" x="434" y="-256.05" font-family="Arial" font-size="11.00"> aggregates </text>
<text xml:space="preserve" text-anchor="middle" x="434" y="-242.55" font-family="Arial" font-size="11.00"> «some» &#160;</text>
</g>
<!-- Invis&#45;&gt;enterpriseObject -->
<!-- enterpriseObject&#45;&gt;informationFlow -->
<!-- informationFlow&#45;&gt;interaction -->
<!-- interaction&#45;&gt;relationship -->
<!-- relationship&#45;&gt;resource -->
<!-- resource&#45;&gt;role -->
</g>
</svg>
