<?xml version="1.0" encoding="UTF-8" standalone="no"?>
<!DOCTYPE svg PUBLIC "-//W3C//DTD SVG 1.1//EN"
 "http://www.w3.org/Graphics/SVG/1.1/DTD/svg11.dtd">
<!-- Generated by graphviz version 14.0.2 (20251019.1705)
 -->
<!-- Pages: 1 -->
<svg width="156pt" height="132pt"
 viewBox="0.00 0.00 156.00 132.00" xmlns="http://www.w3.org/2000/svg" xmlns:xlink="http://www.w3.org/1999/xlink">
<g id="graph0" class="graph" transform="scale(1 1) rotate(0) translate(4 128)">
<polygon fill="white" stroke="none" points="-4,4 -4,-128 152.12,-128 152.12,4 -4,4"/>
<g id="clust2" class="cluster">
<title>cluster_associated</title>
</g>
<!-- extend -->
<g id="node1" class="node">
<title>extend</title>
<g id="a_node1"><a xlink:href="../classes/itsVocabulary__extend.md" xlink:title="&lt;TABLE&gt;">
<polygon fill="lightgray" stroke="none" points="14.12,-25.88 14.12,-42.12 52.12,-42.12 52.12,-25.88 14.12,-25.88"/>
<text xml:space="preserve" text-anchor="start" x="15.12" y="-29.73" font-family="Arial" font-size="12.00">extend</text>
<polygon fill="none" stroke="black" points="13.12,-24.88 13.12,-43.12 53.12,-43.12 53.12,-24.88 13.12,-24.88"/>
</a>
</g>
</g>
<!-- relationship -->
<g id="node2" class="node">
<title>relationship</title>
<g id="a_node2"><a xlink:href="../relationship/" xlink:title="&lt;TABLE&gt;" target="_top">
<polygon fill="lightgray" stroke="none" points="1,-97.88 1,-114.12 65.25,-114.12 65.25,-97.88 1,-97.88"/>
<text xml:space="preserve" text-anchor="start" x="2" y="-101.72" font-family="Arial" font-size="12.00">relationship</text>
<polygon fill="none" stroke="black" points="0,-96.88 0,-115.12 66.25,-115.12 66.25,-96.88 0,-96.88"/>
</a>
</g>
</g>
<!-- extend&#45;&gt;relationship -->
<g id="edge1" class="edge">
<title>extend&#45;&gt;relationship</title>
<path fill="none" stroke="black" d="M33.12,-51.79C33.12,-59.25 33.12,-68.24 33.12,-76.69"/>
<polygon fill="none" stroke="black" points="29.63,-76.54 33.13,-86.54 36.63,-76.54 29.63,-76.54"/>
</g>
<!-- Invis -->
</g>
</svg>
