<?xml version="1.0" encoding="UTF-8" standalone="no"?>
<!DOCTYPE svg PUBLIC "-//W3C//DTD SVG 1.1//EN"
 "http://www.w3.org/Graphics/SVG/1.1/DTD/svg11.dtd">
<!-- Generated by graphviz version 14.0.2 (20251019.1705)
 -->
<!-- Pages: 1 -->
<svg width="258pt" height="175pt"
 viewBox="0.00 0.00 258.00 175.00" xmlns="http://www.w3.org/2000/svg" xmlns:xlink="http://www.w3.org/1999/xlink">
<g id="graph0" class="graph" transform="scale(1 1) rotate(0) translate(4 171)">
<polygon fill="white" stroke="none" points="-4,4 -4,-171 253.62,-171 253.62,4 -4,4"/>
<g id="clust2" class="cluster">
<title>cluster_associated</title>
</g>
<!-- fallback&#45;ready user -->
<g id="node1" class="node">
<title>fallback&#45;ready user</title>
<g id="a_node1"><a xlink:href="../classes/itsVocabulary__fallback-ready user.md" xlink:title="&lt;TABLE&gt;">
<polygon fill="lightgray" stroke="none" points="1,-124.88 1,-141.12 104.25,-141.12 104.25,-124.88 1,-124.88"/>
<text xml:space="preserve" text-anchor="start" x="2" y="-128.72" font-family="Arial" font-size="12.00">fallback&#45;ready user</text>
<polygon fill="none" stroke="black" points="0,-123.88 0,-142.12 105.25,-142.12 105.25,-123.88 0,-123.88"/>
</a>
</g>
</g>
<!-- Invis -->
<!-- fallback&#45;ready user&#45;&gt;Invis -->
<!-- dynamicDrivingTask -->
<g id="node3" class="node">
<title>dynamicDrivingTask</title>
<g id="a_node3"><a xlink:href="../dynamic driving task/" xlink:title="&lt;TABLE&gt;" target="_top">
<polygon fill="lightgray" stroke="none" points="122.25,-25.88 122.25,-42.12 233,-42.12 233,-25.88 122.25,-25.88"/>
<text xml:space="preserve" text-anchor="start" x="123.25" y="-29.73" font-family="Arial" font-size="12.00">dynamic driving task</text>
<polygon fill="none" stroke="black" points="121.25,-24.88 121.25,-43.12 234,-43.12 234,-24.88 121.25,-24.88"/>
</a>
</g>
</g>
<!-- fallback&#45;ready user&#45;&gt;dynamicDrivingTask -->
<g id="edge3" class="edge">
<title>fallback&#45;ready user&#45;&gt;dynamicDrivingTask</title>
<path fill="none" stroke="black" d="M58.38,-115.15C63.87,-101.33 73.4,-82.13 87.38,-70 94.32,-63.97 102.42,-58.92 110.87,-54.7"/>
<polygon fill="black" stroke="black" points="112.26,-57.91 119.91,-50.59 109.36,-51.54 112.26,-57.91"/>
<text xml:space="preserve" text-anchor="middle" x="129" y="-86.55" font-family="Arial" font-size="11.00"> readyToPerform </text>
<text xml:space="preserve" text-anchor="middle" x="129" y="-73.05" font-family="Arial" font-size="11.00"> «some» &#160;</text>
</g>
<!-- Invis&#45;&gt;dynamicDrivingTask -->
</g>
</svg>
