<?xml version="1.0" encoding="UTF-8" standalone="no"?>
<!DOCTYPE svg PUBLIC "-//W3C//DTD SVG 1.1//EN"
 "http://www.w3.org/Graphics/SVG/1.1/DTD/svg11.dtd">
<!-- Generated by graphviz version 14.0.2 (20251019.1705)
 -->
<!-- Pages: 1 -->
<svg width="208pt" height="132pt"
 viewBox="0.00 0.00 208.00 132.00" xmlns="http://www.w3.org/2000/svg" xmlns:xlink="http://www.w3.org/1999/xlink">
<g id="graph0" class="graph" transform="scale(1 1) rotate(0) translate(4 128)">
<polygon fill="white" stroke="none" points="-4,4 -4,-128 203.62,-128 203.62,4 -4,4"/>
<g id="clust2" class="cluster">
<title>cluster_associated</title>
</g>
<!-- fractional ownership -->
<g id="node1" class="node">
<title>fractional ownership</title>
<g id="a_node1"><a xlink:href="../classes/itsVocabulary__fractional ownership.md" xlink:title="&lt;TABLE&gt;">
<polygon fill="lightgray" stroke="none" points="1,-25.88 1,-42.12 110.25,-42.12 110.25,-25.88 1,-25.88"/>
<text xml:space="preserve" text-anchor="start" x="2" y="-29.73" font-family="Arial" font-size="12.00">fractional ownership</text>
<polygon fill="none" stroke="black" points="0,-24.88 0,-43.12 111.25,-43.12 111.25,-24.88 0,-24.88"/>
</a>
</g>
</g>
<!-- cooperative -->
<g id="node2" class="node">
<title>cooperative</title>
<g id="a_node2"><a xlink:href="../cooperative/" xlink:title="&lt;TABLE&gt;" target="_top">
<polygon fill="lightgray" stroke="none" points="23.5,-97.88 23.5,-114.12 87.75,-114.12 87.75,-97.88 23.5,-97.88"/>
<text xml:space="preserve" text-anchor="start" x="24.5" y="-101.72" font-family="Arial" font-size="12.00">cooperative</text>
<polygon fill="none" stroke="black" points="22.5,-96.88 22.5,-115.12 88.75,-115.12 88.75,-96.88 22.5,-96.88"/>
</a>
</g>
</g>
<!-- fractional ownership&#45;&gt;cooperative -->
<g id="edge1" class="edge">
<title>fractional ownership&#45;&gt;cooperative</title>
<path fill="none" stroke="black" d="M55.62,-51.79C55.62,-59.25 55.62,-68.24 55.62,-76.69"/>
<polygon fill="none" stroke="black" points="52.13,-76.54 55.63,-86.54 59.13,-76.54 52.13,-76.54"/>
</g>
<!-- Invis -->
</g>
</svg>
