<?xml version="1.0" encoding="UTF-8" standalone="no"?>
<!DOCTYPE svg PUBLIC "-//W3C//DTD SVG 1.1//EN"
 "http://www.w3.org/Graphics/SVG/1.1/DTD/svg11.dtd">
<!-- Generated by graphviz version 14.0.2 (20251019.1705)
 -->
<!-- Pages: 1 -->
<svg width="205pt" height="232pt"
 viewBox="0.00 0.00 205.00 232.00" xmlns="http://www.w3.org/2000/svg" xmlns:xlink="http://www.w3.org/1999/xlink">
<g id="graph0" class="graph" transform="scale(1 1) rotate(0) translate(4 228)">
<polygon fill="white" stroke="none" points="-4,4 -4,-228 200.5,-228 200.5,4 -4,4"/>
<g id="clust2" class="cluster">
<title>cluster_associated</title>
</g>
<!-- functional object -->
<g id="node1" class="node">
<title>functional object</title>
<g id="a_node1"><a xlink:href="../classes/itsVocabulary__functional object.md" xlink:title="&lt;TABLE&gt;">
<polygon fill="lightgray" stroke="none" points="106.5,-124.88 106.5,-141.12 195.5,-141.12 195.5,-124.88 106.5,-124.88"/>
<text xml:space="preserve" text-anchor="start" x="107.5" y="-128.72" font-family="Arial" font-size="12.00">functional object</text>
<polygon fill="none" stroke="black" points="105.5,-123.88 105.5,-142.12 196.5,-142.12 196.5,-123.88 105.5,-123.88"/>
</a>
</g>
</g>
<!-- resource -->
<g id="node2" class="node">
<title>resource</title>
<g id="a_node2"><a xlink:href="../resource/" xlink:title="&lt;TABLE&gt;" target="_top">
<polygon fill="lightgray" stroke="none" points="126.75,-197.88 126.75,-214.12 175.25,-214.12 175.25,-197.88 126.75,-197.88"/>
<text xml:space="preserve" text-anchor="start" x="127.75" y="-201.72" font-family="Arial" font-size="12.00">resource</text>
<polygon fill="none" stroke="black" points="125.75,-196.88 125.75,-215.12 176.25,-215.12 176.25,-196.88 125.75,-196.88"/>
</a>
</g>
</g>
<!-- functional object&#45;&gt;resource -->
<g id="edge1" class="edge">
<title>functional object&#45;&gt;resource</title>
<path fill="none" stroke="black" d="M151,-150.71C151,-158.47 151,-167.92 151,-176.74"/>
<polygon fill="none" stroke="black" points="147.5,-176.66 151,-186.66 154.5,-176.66 147.5,-176.66"/>
</g>
<!-- Invis -->
<!-- functional object&#45;&gt;Invis -->
<!-- process -->
<g id="node4" class="node">
<title>process</title>
<g id="a_node4"><a xlink:href="../process/" xlink:title="&lt;TABLE&gt;" target="_top">
<polygon fill="lightgray" stroke="none" points="21,-25.88 21,-42.12 65,-42.12 65,-25.88 21,-25.88"/>
<text xml:space="preserve" text-anchor="start" x="22" y="-29.73" font-family="Arial" font-size="12.00">process</text>
<polygon fill="none" stroke="black" points="20,-24.88 20,-43.12 66,-43.12 66,-24.88 20,-24.88"/>
</a>
</g>
</g>
<!-- functional object&#45;&gt;process -->
<g id="edge4" class="edge">
<title>functional object&#45;&gt;process</title>
<path fill="none" stroke="black" d="M132.19,-115.1C115,-99.66 89.38,-76.66 70.01,-59.26"/>
<polygon fill="black" stroke="black" points="72.5,-56.79 62.72,-52.71 67.82,-62 72.5,-56.79"/>
<text xml:space="preserve" text-anchor="middle" x="133.47" y="-86.55" font-family="Arial" font-size="11.00"> groups </text>
<text xml:space="preserve" text-anchor="middle" x="133.47" y="-73.05" font-family="Arial" font-size="11.00"> «some» &#160;</text>
</g>
<!-- Invis&#45;&gt;process -->
</g>
</svg>
