<?xml version="1.0" encoding="UTF-8" standalone="no"?>
<!DOCTYPE svg PUBLIC "-//W3C//DTD SVG 1.1//EN"
 "http://www.w3.org/Graphics/SVG/1.1/DTD/svg11.dtd">
<!-- Generated by graphviz version 14.1.3 (20260303.0454)
 -->
<!-- Pages: 1 -->
<svg width="241pt" height="219pt"
 viewBox="0.00 0.00 241.00 219.00" xmlns="http://www.w3.org/2000/svg" xmlns:xlink="http://www.w3.org/1999/xlink">
<g id="graph0" class="graph" transform="scale(1 1) rotate(0) translate(4 214.5)">
<polygon fill="white" stroke="none" points="-4,4 -4,-214.5 237.12,-214.5 237.12,4 -4,4"/>
<g id="clust2" class="cluster">
<title>cluster_associated</title>
</g>
<!-- functional viewpoint -->
<g id="node1" class="node">
<title>functional viewpoint</title>
<polygon fill="lightgray" stroke="none" points="119.12,-111.38 119.12,-127.62 226.88,-127.62 226.88,-111.38 119.12,-111.38"/>
<text xml:space="preserve" text-anchor="start" x="120.12" y="-115.38" font-family="Arial" font-size="12.00">functional viewpoint</text>
<polygon fill="none" stroke="black" points="118.12,-110.38 118.12,-128.62 227.88,-128.62 227.88,-110.38 118.12,-110.38"/>
</g>
<!-- architectureViewpoint -->
<g id="node2" class="node">
<title>architectureViewpoint</title>
<g id="a_node2"><a xlink:href="../terms/architecture viewpoint/" xlink:title="&lt;TABLE&gt;" target="_top">
<polygon fill="lightgray" stroke="none" points="113.88,-184.38 113.88,-200.62 232.12,-200.62 232.12,-184.38 113.88,-184.38"/>
<text xml:space="preserve" text-anchor="start" x="114.88" y="-188.38" font-family="Arial" font-size="12.00">architecture viewpoint</text>
<polygon fill="none" stroke="black" points="112.88,-183.38 112.88,-201.62 233.12,-201.62 233.12,-183.38 112.88,-183.38"/>
</a>
</g>
</g>
<!-- functional viewpoint&#45;&gt;architectureViewpoint -->
<g id="edge1" class="edge">
<title>functional viewpoint&#45;&gt;architectureViewpoint</title>
<path fill="none" stroke="black" d="M173,-137.21C173,-144.97 173,-154.42 173,-163.24"/>
<polygon fill="none" stroke="black" points="169.5,-163.16 173,-173.16 176.5,-163.16 169.5,-163.16"/>
</g>
<!-- Invis -->
<!-- functional viewpoint&#45;&gt;Invis -->
<!-- functionalView -->
<g id="node4" class="node">
<title>functionalView</title>
<g id="a_node4"><a xlink:href="../terms/functional view/" xlink:title="&lt;TABLE&gt;" target="_top">
<polygon fill="lightgray" stroke="none" points="17.25,-25.88 17.25,-42.12 98.75,-42.12 98.75,-25.88 17.25,-25.88"/>
<text xml:space="preserve" text-anchor="start" x="18.25" y="-29.88" font-family="Arial" font-size="12.00">functional view</text>
<polygon fill="none" stroke="black" points="16.25,-24.88 16.25,-43.12 99.75,-43.12 99.75,-24.88 16.25,-24.88"/>
</a>
</g>
</g>
<!-- functional viewpoint&#45;&gt;functionalView -->
<g id="edge4" class="edge">
<title>functional viewpoint&#45;&gt;functionalView</title>
<path fill="none" stroke="black" d="M149.73,-101.6C132.66,-89.21 109.26,-72.22 90.37,-58.51"/>
<polygon fill="black" stroke="black" points="92.61,-55.8 82.46,-52.76 88.5,-61.47 92.61,-55.8"/>
<text xml:space="preserve" text-anchor="middle" x="144.51" y="-73.05" font-family="Arial" font-size="11.00"> governs </text>
</g>
<!-- Invis&#45;&gt;functionalView -->
</g>
</svg>
