<?xml version="1.0" encoding="UTF-8" standalone="no"?>
<!DOCTYPE svg PUBLIC "-//W3C//DTD SVG 1.1//EN"
 "http://www.w3.org/Graphics/SVG/1.1/DTD/svg11.dtd">
<!-- Generated by graphviz version 14.0.2 (20251019.1705)
 -->
<!-- Pages: 1 -->
<svg width="244pt" height="175pt"
 viewBox="0.00 0.00 244.00 175.00" xmlns="http://www.w3.org/2000/svg" xmlns:xlink="http://www.w3.org/1999/xlink">
<g id="graph0" class="graph" transform="scale(1 1) rotate(0) translate(4 171)">
<polygon fill="white" stroke="none" points="-4,4 -4,-171 240.38,-171 240.38,4 -4,4"/>
<g id="clust2" class="cluster">
<title>cluster_associated</title>
</g>
<!-- geographic identifier -->
<g id="node1" class="node">
<title>geographic identifier</title>
<g id="a_node1"><a xlink:href="../classes/itsVocabulary__geographic identifier.md" xlink:title="&lt;TABLE&gt;">
<polygon fill="lightgray" stroke="none" points="1,-124.88 1,-141.12 111.75,-141.12 111.75,-124.88 1,-124.88"/>
<text xml:space="preserve" text-anchor="start" x="2" y="-128.72" font-family="Arial" font-size="12.00">geographic identifier</text>
<polygon fill="none" stroke="black" points="0,-123.88 0,-142.12 112.75,-142.12 112.75,-123.88 0,-123.88"/>
</a>
</g>
</g>
<!-- Invis -->
<!-- geographic identifier&#45;&gt;Invis -->
<!-- spatialReference -->
<g id="node3" class="node">
<title>spatialReference</title>
<g id="a_node3"><a xlink:href="../spatial reference/" xlink:title="&lt;TABLE&gt;" target="_top">
<polygon fill="lightgray" stroke="none" points="129.12,-25.88 129.12,-42.12 219.62,-42.12 219.62,-25.88 129.12,-25.88"/>
<text xml:space="preserve" text-anchor="start" x="130.12" y="-29.73" font-family="Arial" font-size="12.00">spatial reference</text>
<polygon fill="none" stroke="black" points="128.12,-24.88 128.12,-43.12 220.62,-43.12 220.62,-24.88 128.12,-24.88"/>
</a>
</g>
</g>
<!-- geographic identifier&#45;&gt;spatialReference -->
<g id="edge3" class="edge">
<title>geographic identifier&#45;&gt;spatialReference</title>
<path fill="none" stroke="black" d="M58.97,-115.17C61.93,-101.36 68.05,-82.16 80.38,-70 90.64,-59.86 104.11,-52.62 117.63,-47.46"/>
<polygon fill="black" stroke="black" points="118.67,-50.81 126.99,-44.25 116.4,-44.19 118.67,-50.81"/>
<text xml:space="preserve" text-anchor="middle" x="125.38" y="-86.55" font-family="Arial" font-size="11.00"> referenceUsedBy </text>
<text xml:space="preserve" text-anchor="middle" x="125.38" y="-73.05" font-family="Arial" font-size="11.00"> «some» &#160;</text>
</g>
<!-- Invis&#45;&gt;spatialReference -->
</g>
</svg>
