<?xml version="1.0" encoding="UTF-8" standalone="no"?>
<!DOCTYPE svg PUBLIC "-//W3C//DTD SVG 1.1//EN"
 "http://www.w3.org/Graphics/SVG/1.1/DTD/svg11.dtd">
<!-- Generated by graphviz version 14.0.2 (20251019.1705)
 -->
<!-- Pages: 1 -->
<svg width="200pt" height="132pt"
 viewBox="0.00 0.00 200.00 132.00" xmlns="http://www.w3.org/2000/svg" xmlns:xlink="http://www.w3.org/1999/xlink">
<g id="graph0" class="graph" transform="scale(1 1) rotate(0) translate(4 128)">
<polygon fill="white" stroke="none" points="-4,4 -4,-128 195.88,-128 195.88,4 -4,4"/>
<g id="clust2" class="cluster">
<title>cluster_associated</title>
</g>
<!-- governmental area -->
<g id="node1" class="node">
<title>governmental area</title>
<g id="a_node1"><a xlink:href="../classes/itsVocabulary__governmental area.md" xlink:title="&lt;TABLE&gt;">
<polygon fill="lightgray" stroke="none" points="1,-25.88 1,-42.12 102.75,-42.12 102.75,-25.88 1,-25.88"/>
<text xml:space="preserve" text-anchor="start" x="2" y="-29.73" font-family="Arial" font-size="12.00">governmental area</text>
<polygon fill="none" stroke="black" points="0,-24.88 0,-43.12 103.75,-43.12 103.75,-24.88 0,-24.88"/>
</a>
</g>
</g>
<!-- jurisdictionalArea -->
<g id="node2" class="node">
<title>jurisdictionalArea</title>
<g id="a_node2"><a xlink:href="../jurisdictional area/" xlink:title="&lt;TABLE&gt;" target="_top">
<polygon fill="lightgray" stroke="none" points="3.62,-97.88 3.62,-114.12 100.12,-114.12 100.12,-97.88 3.62,-97.88"/>
<text xml:space="preserve" text-anchor="start" x="4.62" y="-101.72" font-family="Arial" font-size="12.00">jurisdictional area</text>
<polygon fill="none" stroke="black" points="2.62,-96.88 2.62,-115.12 101.12,-115.12 101.12,-96.88 2.62,-96.88"/>
</a>
</g>
</g>
<!-- governmental area&#45;&gt;jurisdictionalArea -->
<g id="edge1" class="edge">
<title>governmental area&#45;&gt;jurisdictionalArea</title>
<path fill="none" stroke="black" d="M51.88,-51.79C51.88,-59.25 51.88,-68.24 51.88,-76.69"/>
<polygon fill="none" stroke="black" points="48.38,-76.54 51.88,-86.54 55.38,-76.54 48.38,-76.54"/>
</g>
<!-- Invis -->
</g>
</svg>
