<?xml version="1.0" encoding="UTF-8" standalone="no"?>
<!DOCTYPE svg PUBLIC "-//W3C//DTD SVG 1.1//EN"
 "http://www.w3.org/Graphics/SVG/1.1/DTD/svg11.dtd">
<!-- Generated by graphviz version 14.1.3 (20260303.0454)
 -->
<!-- Pages: 1 -->
<svg width="220pt" height="162pt"
 viewBox="0.00 0.00 220.00 162.00" xmlns="http://www.w3.org/2000/svg" xmlns:xlink="http://www.w3.org/1999/xlink">
<g id="graph0" class="graph" transform="scale(1 1) rotate(0) translate(4 157.5)">
<polygon fill="white" stroke="none" points="-4,4 -4,-157.5 216,-157.5 216,4 -4,4"/>
<g id="clust2" class="cluster">
<title>cluster_associated</title>
</g>
<!-- gross vehicle mass -->
<g id="node1" class="node">
<title>gross vehicle mass</title>
<polygon fill="lightgray" stroke="none" points="1,-111.38 1,-127.62 105,-127.62 105,-111.38 1,-111.38"/>
<text xml:space="preserve" text-anchor="start" x="2" y="-115.38" font-family="Arial" font-size="12.00">gross vehicle mass</text>
<polygon fill="none" stroke="black" points="0,-110.38 0,-128.62 106,-128.62 106,-110.38 0,-110.38"/>
</g>
<!-- Invis -->
<!-- gross vehicle mass&#45;&gt;Invis -->
<!-- vehicle -->
<g id="node3" class="node">
<title>vehicle</title>
<g id="a_node3"><a xlink:href="../terms/vehicle/" xlink:title="&lt;TABLE&gt;" target="_top">
<polygon fill="lightgray" stroke="none" points="148.88,-25.88 148.88,-42.12 189.12,-42.12 189.12,-25.88 148.88,-25.88"/>
<text xml:space="preserve" text-anchor="start" x="149.88" y="-29.88" font-family="Arial" font-size="12.00">vehicle</text>
<polygon fill="none" stroke="black" points="147.88,-24.88 147.88,-43.12 190.12,-43.12 190.12,-24.88 147.88,-24.88"/>
</a>
</g>
</g>
<!-- gross vehicle mass&#45;&gt;vehicle -->
<g id="edge3" class="edge">
<title>gross vehicle mass&#45;&gt;vehicle</title>
<path fill="none" stroke="black" d="M56.49,-101.71C59.43,-91.34 64.63,-78.45 73.5,-70 89.14,-55.1 111.63,-46.45 130.86,-41.48"/>
<polygon fill="black" stroke="black" points="131.6,-44.9 140.55,-39.24 130.02,-38.08 131.6,-44.9"/>
<text xml:space="preserve" text-anchor="middle" x="119.25" y="-73.05" font-family="Arial" font-size="11.00"> operating mass of </text>
</g>
<!-- Invis&#45;&gt;vehicle -->
</g>
</svg>
