<?xml version="1.0" encoding="UTF-8" standalone="no"?>
<!DOCTYPE svg PUBLIC "-//W3C//DTD SVG 1.1//EN"
 "http://www.w3.org/Graphics/SVG/1.1/DTD/svg11.dtd">
<!-- Generated by graphviz version 14.0.2 (20251019.1705)
 -->
<!-- Pages: 1 -->
<svg width="220pt" height="175pt"
 viewBox="0.00 0.00 220.00 175.00" xmlns="http://www.w3.org/2000/svg" xmlns:xlink="http://www.w3.org/1999/xlink">
<g id="graph0" class="graph" transform="scale(1 1) rotate(0) translate(4 171)">
<polygon fill="white" stroke="none" points="-4,4 -4,-171 216,-171 216,4 -4,4"/>
<g id="clust2" class="cluster">
<title>cluster_associated</title>
</g>
<!-- gross vehicle mass -->
<g id="node1" class="node">
<title>gross vehicle mass</title>
<g id="a_node1"><a xlink:href="../classes/itsVocabulary__gross vehicle mass.md" xlink:title="&lt;TABLE&gt;">
<polygon fill="lightgray" stroke="none" points="1,-124.88 1,-141.12 105,-141.12 105,-124.88 1,-124.88"/>
<text xml:space="preserve" text-anchor="start" x="2" y="-128.72" font-family="Arial" font-size="12.00">gross vehicle mass</text>
<polygon fill="none" stroke="black" points="0,-123.88 0,-142.12 106,-142.12 106,-123.88 0,-123.88"/>
</a>
</g>
</g>
<!-- Invis -->
<!-- gross vehicle mass&#45;&gt;Invis -->
<!-- vehicle -->
<g id="node3" class="node">
<title>vehicle</title>
<g id="a_node3"><a xlink:href="../vehicle/" xlink:title="&lt;TABLE&gt;" target="_top">
<polygon fill="lightgray" stroke="none" points="148.88,-25.88 148.88,-42.12 189.12,-42.12 189.12,-25.88 148.88,-25.88"/>
<text xml:space="preserve" text-anchor="start" x="149.88" y="-29.73" font-family="Arial" font-size="12.00">vehicle</text>
<polygon fill="none" stroke="black" points="147.88,-24.88 147.88,-43.12 190.12,-43.12 190.12,-24.88 147.88,-24.88"/>
</a>
</g>
</g>
<!-- gross vehicle mass&#45;&gt;vehicle -->
<g id="edge3" class="edge">
<title>gross vehicle mass&#45;&gt;vehicle</title>
<path fill="none" stroke="black" d="M55.7,-115.19C58.73,-101.4 64.94,-82.21 77.25,-70 91.79,-55.59 112.87,-46.99 131.17,-41.93"/>
<polygon fill="black" stroke="black" points="131.78,-45.39 140.64,-39.58 130.09,-38.59 131.78,-45.39"/>
<text xml:space="preserve" text-anchor="middle" x="121.12" y="-86.55" font-family="Arial" font-size="11.00"> operatingMassOf </text>
<text xml:space="preserve" text-anchor="middle" x="121.12" y="-73.05" font-family="Arial" font-size="11.00"> «exactly 1» &#160;</text>
</g>
<!-- Invis&#45;&gt;vehicle -->
</g>
</svg>
