<?xml version="1.0" encoding="UTF-8" standalone="no"?>
<!DOCTYPE svg PUBLIC "-//W3C//DTD SVG 1.1//EN"
 "http://www.w3.org/Graphics/SVG/1.1/DTD/svg11.dtd">
<!-- Generated by graphviz version 14.1.3 (20260303.0454)
 -->
<!-- Pages: 1 -->
<svg width="243pt" height="162pt"
 viewBox="0.00 0.00 243.00 162.00" xmlns="http://www.w3.org/2000/svg" xmlns:xlink="http://www.w3.org/1999/xlink">
<g id="graph0" class="graph" transform="scale(1 1) rotate(0) translate(4 157.5)">
<polygon fill="white" stroke="none" points="-4,4 -4,-157.5 238.5,-157.5 238.5,4 -4,4"/>
<g id="clust2" class="cluster">
<title>cluster_associated</title>
</g>
<!-- hard shoulder running -->
<g id="node1" class="node">
<title>hard shoulder running</title>
<polygon fill="lightgray" stroke="none" points="1,-111.38 1,-127.62 120,-127.62 120,-111.38 1,-111.38"/>
<text xml:space="preserve" text-anchor="start" x="2" y="-115.38" font-family="Arial" font-size="12.00">hard shoulder running</text>
<polygon fill="none" stroke="black" points="0,-110.38 0,-128.62 121,-128.62 121,-110.38 0,-110.38"/>
</g>
<!-- Invis -->
<!-- hard shoulder running&#45;&gt;Invis -->
<!-- hardShoulder -->
<g id="node3" class="node">
<title>hardShoulder</title>
<g id="a_node3"><a xlink:href="../terms/hard shoulder/" xlink:title="&lt;TABLE&gt;" target="_top">
<polygon fill="lightgray" stroke="none" points="141.75,-25.88 141.75,-42.12 217.25,-42.12 217.25,-25.88 141.75,-25.88"/>
<text xml:space="preserve" text-anchor="start" x="142.75" y="-29.88" font-family="Arial" font-size="12.00">hard shoulder</text>
<polygon fill="none" stroke="black" points="140.75,-24.88 140.75,-43.12 218.25,-43.12 218.25,-24.88 140.75,-24.88"/>
</a>
</g>
</g>
<!-- hard shoulder running&#45;&gt;hardShoulder -->
<g id="edge3" class="edge">
<title>hard shoulder running&#45;&gt;hardShoulder</title>
<path fill="none" stroke="black" d="M65.28,-101.69C69,-91.31 75.14,-78.42 84.5,-70 97.25,-58.54 114.06,-50.74 130,-45.46"/>
<polygon fill="black" stroke="black" points="130.82,-48.87 139.39,-42.64 128.8,-42.17 130.82,-48.87"/>
<text xml:space="preserve" text-anchor="middle" x="131" y="-73.05" font-family="Arial" font-size="11.00"> operating mode of </text>
</g>
<!-- Invis&#45;&gt;hardShoulder -->
</g>
</svg>
