<?xml version="1.0" encoding="UTF-8" standalone="no"?>
<!DOCTYPE svg PUBLIC "-//W3C//DTD SVG 1.1//EN"
 "http://www.w3.org/Graphics/SVG/1.1/DTD/svg11.dtd">
<!-- Generated by graphviz version 14.0.2 (20251019.1705)
 -->
<!-- Pages: 1 -->
<svg width="300pt" height="175pt"
 viewBox="0.00 0.00 300.00 175.00" xmlns="http://www.w3.org/2000/svg" xmlns:xlink="http://www.w3.org/1999/xlink">
<g id="graph0" class="graph" transform="scale(1 1) rotate(0) translate(4 171)">
<polygon fill="white" stroke="none" points="-4,4 -4,-171 296.38,-171 296.38,4 -4,4"/>
<g id="clust2" class="cluster">
<title>cluster_associated</title>
</g>
<!-- hard shoulder for emergency use -->
<g id="node1" class="node">
<title>hard shoulder for emergency use</title>
<g id="a_node1"><a xlink:href="../classes/itsVocabulary__hard shoulder for emergency use.md" xlink:title="&lt;TABLE&gt;">
<polygon fill="lightgray" stroke="none" points="1,-124.88 1,-141.12 177.75,-141.12 177.75,-124.88 1,-124.88"/>
<text xml:space="preserve" text-anchor="start" x="2" y="-128.72" font-family="Arial" font-size="12.00">hard shoulder for emergency use</text>
<polygon fill="none" stroke="black" points="0,-123.88 0,-142.12 178.75,-142.12 178.75,-123.88 0,-123.88"/>
</a>
</g>
</g>
<!-- Invis -->
<!-- hard shoulder for emergency use&#45;&gt;Invis -->
<!-- hardShoulder -->
<g id="node3" class="node">
<title>hardShoulder</title>
<g id="a_node3"><a xlink:href="../hard shoulder/" xlink:title="&lt;TABLE&gt;" target="_top">
<polygon fill="lightgray" stroke="none" points="199.62,-25.88 199.62,-42.12 275.12,-42.12 275.12,-25.88 199.62,-25.88"/>
<text xml:space="preserve" text-anchor="start" x="200.62" y="-29.73" font-family="Arial" font-size="12.00">hard shoulder</text>
<polygon fill="none" stroke="black" points="198.62,-24.88 198.62,-43.12 276.12,-43.12 276.12,-24.88 198.62,-24.88"/>
</a>
</g>
</g>
<!-- hard shoulder for emergency use&#45;&gt;hardShoulder -->
<g id="edge3" class="edge">
<title>hard shoulder for emergency use&#45;&gt;hardShoulder</title>
<path fill="none" stroke="black" d="M101.2,-115.25C111.66,-101.49 128.03,-82.32 146.12,-70 158.86,-61.32 174.05,-54.4 188.35,-49.07"/>
<polygon fill="black" stroke="black" points="189.35,-52.43 197.62,-45.81 187.03,-45.83 189.35,-52.43"/>
<text xml:space="preserve" text-anchor="middle" x="190.75" y="-86.55" font-family="Arial" font-size="11.00"> operatingModeOf </text>
<text xml:space="preserve" text-anchor="middle" x="190.75" y="-73.05" font-family="Arial" font-size="11.00"> «some» &#160;</text>
</g>
<!-- Invis&#45;&gt;hardShoulder -->
</g>
</svg>
