<?xml version="1.0" encoding="UTF-8" standalone="no"?>
<!DOCTYPE svg PUBLIC "-//W3C//DTD SVG 1.1//EN"
 "http://www.w3.org/Graphics/SVG/1.1/DTD/svg11.dtd">
<!-- Generated by graphviz version 14.1.3 (20260303.0454)
 -->
<!-- Pages: 1 -->
<svg width="248pt" height="235pt"
 viewBox="0.00 0.00 248.00 235.00" xmlns="http://www.w3.org/2000/svg" xmlns:xlink="http://www.w3.org/1999/xlink">
<g id="graph0" class="graph" transform="scale(1 1) rotate(0) translate(4 230.5)">
<polygon fill="white" stroke="none" points="-4,4 -4,-230.5 243.67,-230.5 243.67,4 -4,4"/>
<g id="clust2" class="cluster">
<title>cluster_associated</title>
</g>
<!-- information transfer -->
<g id="node1" class="node">
<title>information transfer</title>
<polygon fill="lightgray" stroke="none" points="13.67,-184.38 13.67,-200.62 117.67,-200.62 117.67,-184.38 13.67,-184.38"/>
<text xml:space="preserve" text-anchor="start" x="14.67" y="-188.38" font-family="Arial" font-size="12.00">information transfer</text>
<polygon fill="none" stroke="black" points="12.67,-183.38 12.67,-201.62 118.67,-201.62 118.67,-183.38 12.67,-183.38"/>
</g>
<!-- Invis -->
<!-- information transfer&#45;&gt;Invis -->
<!-- informationFlow -->
<g id="node3" class="node">
<title>informationFlow</title>
<g id="a_node3"><a xlink:href="../terms/information flow/" xlink:title="&lt;TABLE&gt;" target="_top">
<polygon fill="lightgray" stroke="none" points="136.67,-98.88 136.67,-115.12 222.67,-115.12 222.67,-98.88 136.67,-98.88"/>
<text xml:space="preserve" text-anchor="start" x="137.67" y="-102.88" font-family="Arial" font-size="12.00">information flow</text>
<polygon fill="none" stroke="black" points="135.67,-97.88 135.67,-116.12 223.67,-116.12 223.67,-97.88 135.67,-97.88"/>
</a>
</g>
</g>
<!-- information transfer&#45;&gt;informationFlow -->
<g id="edge6" class="edge">
<title>information transfer&#45;&gt;informationFlow</title>
<path fill="none" stroke="black" d="M81.85,-174.74C91.82,-164.88 105.16,-152.52 118.17,-143 124.17,-138.61 130.76,-134.35 137.34,-130.39"/>
<polygon fill="black" stroke="black" points="138.7,-133.65 145.58,-125.59 135.18,-127.6 138.7,-133.65"/>
<text xml:space="preserve" text-anchor="middle" x="147.42" y="-146.05" font-family="Arial" font-size="11.00"> contents of </text>
</g>
<!-- physicalObject -->
<g id="node4" class="node">
<title>physicalObject</title>
<g id="a_node4"><a xlink:href="../terms/physical object/" xlink:title="&lt;TABLE&gt;" target="_top">
<polygon fill="lightgray" stroke="none" points="136.92,-25.88 136.92,-42.12 218.42,-42.12 218.42,-25.88 136.92,-25.88"/>
<text xml:space="preserve" text-anchor="start" x="137.92" y="-29.88" font-family="Arial" font-size="12.00">physical object</text>
<polygon fill="none" stroke="black" points="135.92,-24.88 135.92,-43.12 219.42,-43.12 219.42,-24.88 135.92,-24.88"/>
</a>
</g>
</g>
<!-- information transfer&#45;&gt;physicalObject -->
<g id="edge4" class="edge">
<title>information transfer&#45;&gt;physicalObject</title>
<path fill="none" stroke="black" d="M44.07,-174.85C19.66,-154 -14.12,-117.54 6.67,-89 33.37,-52.36 85.03,-39.93 124.61,-36.02"/>
<polygon fill="black" stroke="black" points="124.75,-39.52 134.43,-35.22 124.18,-32.55 124.75,-39.52"/>
<text xml:space="preserve" text-anchor="middle" x="32.17" y="-103.3" font-family="Arial" font-size="11.00"> sent from </text>
</g>
<!-- information transfer&#45;&gt;physicalObject -->
<g id="edge5" class="edge">
<title>information transfer&#45;&gt;physicalObject</title>
<path fill="none" stroke="black" d="M65.49,-174.62C66.07,-152.86 69.93,-114.77 88.42,-89 98.03,-75.61 112.09,-64.92 126.22,-56.7"/>
<polygon fill="black" stroke="black" points="127.51,-59.97 134.62,-52.12 124.17,-53.83 127.51,-59.97"/>
<text xml:space="preserve" text-anchor="middle" x="107.55" y="-103.3" font-family="Arial" font-size="11.00"> sent to </text>
</g>
<!-- Invis&#45;&gt;informationFlow -->
<!-- informationFlow&#45;&gt;physicalObject -->
</g>
</svg>
