<?xml version="1.0" encoding="UTF-8" standalone="no"?>
<!DOCTYPE svg PUBLIC "-//W3C//DTD SVG 1.1//EN"
 "http://www.w3.org/Graphics/SVG/1.1/DTD/svg11.dtd">
<!-- Generated by graphviz version 14.0.2 (20251019.1705)
 -->
<!-- Pages: 1 -->
<svg width="184pt" height="175pt"
 viewBox="0.00 0.00 184.00 175.00" xmlns="http://www.w3.org/2000/svg" xmlns:xlink="http://www.w3.org/1999/xlink">
<g id="graph0" class="graph" transform="scale(1 1) rotate(0) translate(4 171)">
<polygon fill="white" stroke="none" points="-4,4 -4,-171 179.75,-171 179.75,4 -4,4"/>
<g id="clust2" class="cluster">
<title>cluster_associated</title>
</g>
<!-- intersection -->
<g id="node1" class="node">
<title>intersection</title>
<g id="a_node1"><a xlink:href="../classes/itsVocabulary__intersection.md" xlink:title="&lt;TABLE&gt;">
<polygon fill="lightgray" stroke="none" points="1,-124.88 1,-141.12 64.5,-141.12 64.5,-124.88 1,-124.88"/>
<text xml:space="preserve" text-anchor="start" x="2" y="-128.72" font-family="Arial" font-size="12.00">intersection</text>
<polygon fill="none" stroke="black" points="0,-123.88 0,-142.12 65.5,-142.12 65.5,-123.88 0,-123.88"/>
</a>
</g>
</g>
<!-- Invis -->
<!-- intersection&#45;&gt;Invis -->
<!-- road -->
<g id="node3" class="node">
<title>road</title>
<g id="a_node3"><a xlink:href="../road/" xlink:title="&lt;TABLE&gt;" target="_top">
<polygon fill="lightgray" stroke="none" points="119.75,-25.88 119.75,-42.12 145.75,-42.12 145.75,-25.88 119.75,-25.88"/>
<text xml:space="preserve" text-anchor="start" x="120.75" y="-29.73" font-family="Arial" font-size="12.00">road</text>
<polygon fill="none" stroke="black" points="118.75,-24.88 118.75,-43.12 146.75,-43.12 146.75,-24.88 118.75,-24.88"/>
</a>
</g>
</g>
<!-- intersection&#45;&gt;road -->
<g id="edge3" class="edge">
<title>intersection&#45;&gt;road</title>
<path fill="none" stroke="black" d="M26.64,-115.13C22.92,-101.66 20.46,-82.97 29.75,-70 44.52,-49.38 72.14,-40.76 95.07,-37.23"/>
<polygon fill="black" stroke="black" points="95.21,-40.74 104.7,-36.03 94.34,-33.79 95.21,-40.74"/>
<text xml:space="preserve" text-anchor="middle" x="79.25" y="-86.55" font-family="Arial" font-size="11.00"> meetingOrCrossing </text>
<text xml:space="preserve" text-anchor="middle" x="79.25" y="-73.05" font-family="Arial" font-size="11.00"> «min 2» &#160;</text>
</g>
<!-- Invis&#45;&gt;road -->
</g>
</svg>
