<?xml version="1.0" encoding="UTF-8" standalone="no"?>
<!DOCTYPE svg PUBLIC "-//W3C//DTD SVG 1.1//EN"
 "http://www.w3.org/Graphics/SVG/1.1/DTD/svg11.dtd">
<!-- Generated by graphviz version 14.0.2 (20251019.1705)
 -->
<!-- Pages: 1 -->
<svg width="316pt" height="248pt"
 viewBox="0.00 0.00 316.00 248.00" xmlns="http://www.w3.org/2000/svg" xmlns:xlink="http://www.w3.org/1999/xlink">
<g id="graph0" class="graph" transform="scale(1 1) rotate(0) translate(4 244)">
<polygon fill="white" stroke="none" points="-4,4 -4,-244 312,-244 312,4 -4,4"/>
<g id="clust2" class="cluster">
<title>cluster_associated</title>
</g>
<!-- ITS application specification -->
<g id="node1" class="node">
<title>ITS application specification</title>
<g id="a_node1"><a xlink:href="../classes/itsVocabulary__ITS application specification.md" xlink:title="&lt;TABLE&gt;">
<polygon fill="lightgray" stroke="none" points="1,-197.88 1,-214.12 153,-214.12 153,-197.88 1,-197.88"/>
<text xml:space="preserve" text-anchor="start" x="2" y="-201.72" font-family="Arial" font-size="12.00">ITS application specification</text>
<polygon fill="none" stroke="black" points="0,-196.88 0,-215.12 154,-215.12 154,-196.88 0,-196.88"/>
</a>
</g>
</g>
<!-- Invis -->
<!-- ITS application specification&#45;&gt;Invis -->
<!-- interoperabilityDesign -->
<g id="node3" class="node">
<title>interoperabilityDesign</title>
<g id="a_node3"><a xlink:href="../interoperability design/" xlink:title="&lt;TABLE&gt;" target="_top">
<polygon fill="lightgray" stroke="none" points="171.12,-98.88 171.12,-115.12 290.88,-115.12 290.88,-98.88 171.12,-98.88"/>
<text xml:space="preserve" text-anchor="start" x="172.12" y="-102.72" font-family="Arial" font-size="12.00">interoperability design</text>
<polygon fill="none" stroke="black" points="170.12,-97.88 170.12,-116.12 291.88,-116.12 291.88,-97.88 170.12,-97.88"/>
</a>
</g>
</g>
<!-- ITS application specification&#45;&gt;interoperabilityDesign -->
<g id="edge4" class="edge">
<title>ITS application specification&#45;&gt;interoperabilityDesign</title>
<path fill="none" stroke="black" d="M103.82,-188.1C129.03,-172.23 166.95,-148.35 194.82,-130.79"/>
<polygon fill="black" stroke="black" points="196.35,-133.96 202.94,-125.67 192.62,-128.04 196.35,-133.96"/>
<text xml:space="preserve" text-anchor="middle" x="195.95" y="-159.55" font-family="Arial" font-size="11.00"> details </text>
<text xml:space="preserve" text-anchor="middle" x="195.95" y="-146.05" font-family="Arial" font-size="11.00"> «some» &#160;</text>
</g>
<!-- itsApplication -->
<g id="node4" class="node">
<title>itsApplication</title>
<g id="a_node4"><a xlink:href="../ITS application/" xlink:title="&lt;TABLE&gt;" target="_top">
<polygon fill="lightgray" stroke="none" points="179.88,-25.88 179.88,-42.12 262.12,-42.12 262.12,-25.88 179.88,-25.88"/>
<text xml:space="preserve" text-anchor="start" x="180.88" y="-29.73" font-family="Arial" font-size="12.00">ITS application</text>
<polygon fill="none" stroke="black" points="178.88,-24.88 178.88,-43.12 263.12,-43.12 263.12,-24.88 178.88,-24.88"/>
</a>
</g>
</g>
<!-- ITS application specification&#45;&gt;itsApplication -->
<g id="edge5" class="edge">
<title>ITS application specification&#45;&gt;itsApplication</title>
<path fill="none" stroke="black" d="M78.27,-188.05C80.94,-163.54 89.09,-117.95 113.75,-89 128.06,-72.2 148.89,-60.05 168.38,-51.59"/>
<polygon fill="black" stroke="black" points="169.68,-54.84 177.63,-47.83 167.05,-48.36 169.68,-54.84"/>
<text xml:space="preserve" text-anchor="middle" x="137.38" y="-110.05" font-family="Arial" font-size="11.00"> for </text>
<text xml:space="preserve" text-anchor="middle" x="137.38" y="-96.55" font-family="Arial" font-size="11.00"> «some» &#160;</text>
</g>
<!-- Invis&#45;&gt;interoperabilityDesign -->
<!-- interoperabilityDesign&#45;&gt;itsApplication -->
</g>
</svg>
