<?xml version="1.0" encoding="UTF-8" standalone="no"?>
<!DOCTYPE svg PUBLIC "-//W3C//DTD SVG 1.1//EN"
 "http://www.w3.org/Graphics/SVG/1.1/DTD/svg11.dtd">
<!-- Generated by graphviz version 14.0.2 (20251019.1705)
 -->
<!-- Pages: 1 -->
<svg width="270pt" height="232pt"
 viewBox="0.00 0.00 270.00 232.00" xmlns="http://www.w3.org/2000/svg" xmlns:xlink="http://www.w3.org/1999/xlink">
<g id="graph0" class="graph" transform="scale(1 1) rotate(0) translate(4 228)">
<polygon fill="white" stroke="none" points="-4,4 -4,-228 265.5,-228 265.5,4 -4,4"/>
<g id="clust2" class="cluster">
<title>cluster_associated</title>
</g>
<!-- ITS on&#45;board equipment -->
<g id="node1" class="node">
<title>ITS on&#45;board equipment</title>
<g id="a_node1"><a xlink:href="../classes/itsVocabulary__ITS on-board equipment.md" xlink:title="&lt;TABLE&gt;">
<polygon fill="lightgray" stroke="none" points="129.5,-124.88 129.5,-141.12 260.5,-141.12 260.5,-124.88 129.5,-124.88"/>
<text xml:space="preserve" text-anchor="start" x="130.5" y="-128.72" font-family="Arial" font-size="12.00">ITS on&#45;board equipment</text>
<polygon fill="none" stroke="black" points="128.5,-123.88 128.5,-142.12 261.5,-142.12 261.5,-123.88 128.5,-123.88"/>
</a>
</g>
</g>
<!-- vehicleSystem -->
<g id="node2" class="node">
<title>vehicleSystem</title>
<g id="a_node2"><a xlink:href="../vehicle system/" xlink:title="&lt;TABLE&gt;" target="_top">
<polygon fill="lightgray" stroke="none" points="154.62,-197.88 154.62,-214.12 235.38,-214.12 235.38,-197.88 154.62,-197.88"/>
<text xml:space="preserve" text-anchor="start" x="155.62" y="-201.72" font-family="Arial" font-size="12.00">vehicle system</text>
<polygon fill="none" stroke="black" points="153.62,-196.88 153.62,-215.12 236.38,-215.12 236.38,-196.88 153.62,-196.88"/>
</a>
</g>
</g>
<!-- ITS on&#45;board equipment&#45;&gt;vehicleSystem -->
<g id="edge1" class="edge">
<title>ITS on&#45;board equipment&#45;&gt;vehicleSystem</title>
<path fill="none" stroke="black" d="M195,-150.71C195,-158.47 195,-167.92 195,-176.74"/>
<polygon fill="none" stroke="black" points="191.5,-176.66 195,-186.66 198.5,-176.66 191.5,-176.66"/>
</g>
<!-- Invis -->
<!-- ITS on&#45;board equipment&#45;&gt;Invis -->
<!-- itsOn&#45;boardUnit -->
<g id="node4" class="node">
<title>itsOn&#45;boardUnit</title>
<g id="a_node4"><a xlink:href="../ITS on-board unit/" xlink:title="&lt;TABLE&gt;" target="_top">
<polygon fill="lightgray" stroke="none" points="16.88,-25.88 16.88,-42.12 111.12,-42.12 111.12,-25.88 16.88,-25.88"/>
<text xml:space="preserve" text-anchor="start" x="17.88" y="-29.73" font-family="Arial" font-size="12.00">ITS on&#45;board unit</text>
<polygon fill="none" stroke="black" points="15.88,-24.88 15.88,-43.12 112.12,-43.12 112.12,-24.88 15.88,-24.88"/>
</a>
</g>
</g>
<!-- ITS on&#45;board equipment&#45;&gt;itsOn&#45;boardUnit -->
<g id="edge4" class="edge">
<title>ITS on&#45;board equipment&#45;&gt;itsOn&#45;boardUnit</title>
<path fill="none" stroke="black" d="M172.18,-115.1C151.05,-99.46 119.42,-76.03 95.81,-58.55"/>
<polygon fill="black" stroke="black" points="97.89,-55.74 87.77,-52.6 93.73,-61.37 97.89,-55.74"/>
<text xml:space="preserve" text-anchor="middle" x="172.46" y="-86.55" font-family="Arial" font-size="11.00"> comprises </text>
<text xml:space="preserve" text-anchor="middle" x="172.46" y="-73.05" font-family="Arial" font-size="11.00"> «some» &#160;</text>
</g>
<!-- Invis&#45;&gt;itsOn&#45;boardUnit -->
</g>
</svg>
