<?xml version="1.0" encoding="UTF-8" standalone="no"?>
<!DOCTYPE svg PUBLIC "-//W3C//DTD SVG 1.1//EN"
 "http://www.w3.org/Graphics/SVG/1.1/DTD/svg11.dtd">
<!-- Generated by graphviz version 14.0.2 (20251019.1705)
 -->
<!-- Pages: 1 -->
<svg width="238pt" height="132pt"
 viewBox="0.00 0.00 238.00 132.00" xmlns="http://www.w3.org/2000/svg" xmlns:xlink="http://www.w3.org/1999/xlink">
<g id="graph0" class="graph" transform="scale(1 1) rotate(0) translate(4 128)">
<polygon fill="white" stroke="none" points="-4,4 -4,-128 233.62,-128 233.62,4 -4,4"/>
<g id="clust2" class="cluster">
<title>cluster_associated</title>
</g>
<!-- ITS reference architecture -->
<g id="node1" class="node">
<title>ITS reference architecture</title>
<g id="a_node1"><a xlink:href="../classes/itsVocabulary__ITS reference architecture.md" xlink:title="&lt;TABLE&gt;">
<polygon fill="lightgray" stroke="none" points="1,-25.88 1,-42.12 140.25,-42.12 140.25,-25.88 1,-25.88"/>
<text xml:space="preserve" text-anchor="start" x="2" y="-29.73" font-family="Arial" font-size="12.00">ITS reference architecture</text>
<polygon fill="none" stroke="black" points="0,-24.88 0,-43.12 141.25,-43.12 141.25,-24.88 0,-24.88"/>
</a>
</g>
</g>
<!-- referenceArchitecture -->
<g id="node2" class="node">
<title>referenceArchitecture</title>
<g id="a_node2"><a xlink:href="../reference architecture/" xlink:title="&lt;TABLE&gt;" target="_top">
<polygon fill="lightgray" stroke="none" points="11.88,-97.88 11.88,-114.12 129.38,-114.12 129.38,-97.88 11.88,-97.88"/>
<text xml:space="preserve" text-anchor="start" x="12.88" y="-101.72" font-family="Arial" font-size="12.00">reference architecture</text>
<polygon fill="none" stroke="black" points="10.88,-96.88 10.88,-115.12 130.38,-115.12 130.38,-96.88 10.88,-96.88"/>
</a>
</g>
</g>
<!-- ITS reference architecture&#45;&gt;referenceArchitecture -->
<g id="edge1" class="edge">
<title>ITS reference architecture&#45;&gt;referenceArchitecture</title>
<path fill="none" stroke="black" d="M70.62,-51.79C70.62,-59.25 70.62,-68.24 70.62,-76.69"/>
<polygon fill="none" stroke="black" points="67.13,-76.54 70.63,-86.54 74.13,-76.54 67.13,-76.54"/>
</g>
<!-- Invis -->
</g>
</svg>
