<?xml version="1.0" encoding="UTF-8" standalone="no"?>
<!DOCTYPE svg PUBLIC "-//W3C//DTD SVG 1.1//EN"
 "http://www.w3.org/Graphics/SVG/1.1/DTD/svg11.dtd">
<!-- Generated by graphviz version 14.0.2 (20251019.1705)
 -->
<!-- Pages: 1 -->
<svg width="266pt" height="248pt"
 viewBox="0.00 0.00 266.00 248.00" xmlns="http://www.w3.org/2000/svg" xmlns:xlink="http://www.w3.org/1999/xlink">
<g id="graph0" class="graph" transform="scale(1 1) rotate(0) translate(4 244)">
<polygon fill="white" stroke="none" points="-4,4 -4,-244 262.12,-244 262.12,4 -4,4"/>
<g id="clust2" class="cluster">
<title>cluster_associated</title>
</g>
<!-- ITS application -->
<g id="node1" class="node">
<title>ITS application</title>
<g id="a_node1"><a xlink:href="../classes/itsVocabulary__ITS application.md" xlink:title="&lt;TABLE&gt;">
<polygon fill="lightgray" stroke="none" points="1,-197.88 1,-214.12 83.25,-214.12 83.25,-197.88 1,-197.88"/>
<text xml:space="preserve" text-anchor="start" x="2" y="-201.72" font-family="Arial" font-size="12.00">ITS application</text>
<polygon fill="none" stroke="black" points="0,-196.88 0,-215.12 84.25,-215.12 84.25,-196.88 0,-196.88"/>
</a>
</g>
</g>
<!-- Invis -->
<!-- ITS application&#45;&gt;Invis -->
<!-- its&#45;sApplicationProcess -->
<g id="node3" class="node">
<title>its&#45;sApplicationProcess</title>
<g id="a_node3"><a xlink:href="../ITS-S application process/" xlink:title="&lt;TABLE&gt;" target="_top">
<polygon fill="lightgray" stroke="none" points="101.5,-98.88 101.5,-115.12 240.75,-115.12 240.75,-98.88 101.5,-98.88"/>
<text xml:space="preserve" text-anchor="start" x="102.5" y="-102.72" font-family="Arial" font-size="12.00">ITS&#45;S application process</text>
<polygon fill="none" stroke="black" points="100.5,-97.88 100.5,-116.12 241.75,-116.12 241.75,-97.88 100.5,-97.88"/>
</a>
</g>
</g>
<!-- ITS application&#45;&gt;its&#45;sApplicationProcess -->
<g id="edge4" class="edge">
<title>ITS application&#45;&gt;its&#45;sApplicationProcess</title>
<path fill="none" stroke="black" d="M59.7,-188.01C73.59,-174.99 93.74,-156.96 112.88,-143 118.57,-138.85 124.77,-134.73 130.94,-130.85"/>
<polygon fill="black" stroke="black" points="132.53,-133.98 139.24,-125.78 128.88,-128.01 132.53,-133.98"/>
<text xml:space="preserve" text-anchor="middle" x="136.5" y="-159.55" font-family="Arial" font-size="11.00"> involves </text>
<text xml:space="preserve" text-anchor="middle" x="136.5" y="-146.05" font-family="Arial" font-size="11.00"> «min 2» &#160;</text>
</g>
<!-- itsService -->
<g id="node4" class="node">
<title>itsService</title>
<g id="a_node4"><a xlink:href="../ITS service/" xlink:title="&lt;TABLE&gt;" target="_top">
<polygon fill="lightgray" stroke="none" points="120.12,-25.88 120.12,-42.12 182.12,-42.12 182.12,-25.88 120.12,-25.88"/>
<text xml:space="preserve" text-anchor="start" x="121.12" y="-29.73" font-family="Arial" font-size="12.00">ITS service</text>
<polygon fill="none" stroke="black" points="119.12,-24.88 119.12,-43.12 183.12,-43.12 183.12,-24.88 119.12,-24.88"/>
</a>
</g>
</g>
<!-- ITS application&#45;&gt;itsService -->
<g id="edge5" class="edge">
<title>ITS application&#45;&gt;itsService</title>
<path fill="none" stroke="black" d="M32.99,-188.08C21.37,-164.01 5.07,-119.42 25.12,-89 43.46,-61.2 79.39,-47.66 108.21,-41.09"/>
<polygon fill="black" stroke="black" points="108.68,-44.57 117.77,-39.13 107.27,-37.71 108.68,-44.57"/>
<text xml:space="preserve" text-anchor="middle" x="58.12" y="-110.05" font-family="Arial" font-size="11.00"> realizationOf </text>
<text xml:space="preserve" text-anchor="middle" x="58.12" y="-96.55" font-family="Arial" font-size="11.00"> «some» &#160;</text>
</g>
<!-- Invis&#45;&gt;its&#45;sApplicationProcess -->
<!-- its&#45;sApplicationProcess&#45;&gt;itsService -->
</g>
</svg>
