<?xml version="1.0" encoding="UTF-8" standalone="no"?>
<!DOCTYPE svg PUBLIC "-//W3C//DTD SVG 1.1//EN"
 "http://www.w3.org/Graphics/SVG/1.1/DTD/svg11.dtd">
<!-- Generated by graphviz version 14.0.2 (20251019.1705)
 -->
<!-- Pages: 1 -->
<svg width="203pt" height="232pt"
 viewBox="0.00 0.00 203.00 232.00" xmlns="http://www.w3.org/2000/svg" xmlns:xlink="http://www.w3.org/1999/xlink">
<g id="graph0" class="graph" transform="scale(1 1) rotate(0) translate(4 228)">
<polygon fill="white" stroke="none" points="-4,4 -4,-228 198.64,-228 198.64,4 -4,4"/>
<g id="clust2" class="cluster">
<title>cluster_associated</title>
</g>
<!-- ITS user need -->
<g id="node1" class="node">
<title>ITS user need</title>
<g id="a_node1"><a xlink:href="../classes/itsVocabulary__ITS user need.md" xlink:title="&lt;TABLE&gt;">
<polygon fill="lightgray" stroke="none" points="106.5,-124.88 106.5,-141.12 183.5,-141.12 183.5,-124.88 106.5,-124.88"/>
<text xml:space="preserve" text-anchor="start" x="107.5" y="-128.72" font-family="Arial" font-size="12.00">ITS user need</text>
<polygon fill="none" stroke="black" points="105.5,-123.88 105.5,-142.12 184.5,-142.12 184.5,-123.88 105.5,-123.88"/>
</a>
</g>
</g>
<!-- userNeed -->
<g id="node2" class="node">
<title>userNeed</title>
<g id="a_node2"><a xlink:href="../user need/" xlink:title="&lt;TABLE&gt;" target="_top">
<polygon fill="lightgray" stroke="none" points="117.38,-197.88 117.38,-214.12 172.62,-214.12 172.62,-197.88 117.38,-197.88"/>
<text xml:space="preserve" text-anchor="start" x="118.38" y="-201.72" font-family="Arial" font-size="12.00">user need</text>
<polygon fill="none" stroke="black" points="116.38,-196.88 116.38,-215.12 173.62,-215.12 173.62,-196.88 116.38,-196.88"/>
</a>
</g>
</g>
<!-- ITS user need&#45;&gt;userNeed -->
<g id="edge1" class="edge">
<title>ITS user need&#45;&gt;userNeed</title>
<path fill="none" stroke="black" d="M145,-150.71C145,-158.47 145,-167.92 145,-176.74"/>
<polygon fill="none" stroke="black" points="141.5,-176.66 145,-186.66 148.5,-176.66 141.5,-176.66"/>
</g>
<!-- Invis -->
<!-- ITS user need&#45;&gt;Invis -->
<!-- itsUser -->
<g id="node4" class="node">
<title>itsUser</title>
<g id="a_node4"><a xlink:href="../ITS user/" xlink:title="&lt;TABLE&gt;" target="_top">
<polygon fill="lightgray" stroke="none" points="19.5,-25.88 19.5,-42.12 66.5,-42.12 66.5,-25.88 19.5,-25.88"/>
<text xml:space="preserve" text-anchor="start" x="20.5" y="-29.73" font-family="Arial" font-size="12.00">ITS user</text>
<polygon fill="none" stroke="black" points="18.5,-24.88 18.5,-43.12 67.5,-43.12 67.5,-24.88 18.5,-24.88"/>
</a>
</g>
</g>
<!-- ITS user need&#45;&gt;itsUser -->
<g id="edge4" class="edge">
<title>ITS user need&#45;&gt;itsUser</title>
<path fill="none" stroke="black" d="M127.23,-115.1C111,-99.66 86.8,-76.66 68.51,-59.26"/>
<polygon fill="black" stroke="black" points="71.32,-57.1 61.66,-52.75 66.49,-62.17 71.32,-57.1"/>
<text xml:space="preserve" text-anchor="middle" x="150.39" y="-86.55" font-family="Arial" font-size="11.00"> desiredResultsOf </text>
<text xml:space="preserve" text-anchor="middle" x="150.39" y="-73.05" font-family="Arial" font-size="11.00"> «some» &#160;</text>
</g>
<!-- Invis&#45;&gt;itsUser -->
</g>
</svg>
