<?xml version="1.0" encoding="UTF-8" standalone="no"?>
<!DOCTYPE svg PUBLIC "-//W3C//DTD SVG 1.1//EN"
 "http://www.w3.org/Graphics/SVG/1.1/DTD/svg11.dtd">
<!-- Generated by graphviz version 14.0.2 (20251019.1705)
 -->
<!-- Pages: 1 -->
<svg width="258pt" height="305pt"
 viewBox="0.00 0.00 258.00 305.00" xmlns="http://www.w3.org/2000/svg" xmlns:xlink="http://www.w3.org/1999/xlink">
<g id="graph0" class="graph" transform="scale(1 1) rotate(0) translate(4 301)">
<polygon fill="white" stroke="none" points="-4,4 -4,-301 253.75,-301 253.75,4 -4,4"/>
<g id="clust2" class="cluster">
<title>cluster_associated</title>
</g>
<!-- ITS&#45;SU service provider -->
<g id="node1" class="node">
<title>ITS&#45;SU service provider</title>
<g id="a_node1"><a xlink:href="../classes/itsVocabulary__ITS-SU service provider.md" xlink:title="&lt;TABLE&gt;">
<polygon fill="lightgray" stroke="none" points="119.25,-197.88 119.25,-214.12 248.75,-214.12 248.75,-197.88 119.25,-197.88"/>
<text xml:space="preserve" text-anchor="start" x="120.25" y="-201.72" font-family="Arial" font-size="12.00">ITS&#45;SU service provider</text>
<polygon fill="none" stroke="black" points="118.25,-196.88 118.25,-215.12 249.75,-215.12 249.75,-196.88 118.25,-196.88"/>
</a>
</g>
</g>
<!-- serviceProvider -->
<g id="node2" class="node">
<title>serviceProvider</title>
<g id="a_node2"><a xlink:href="../service provider/" xlink:title="&lt;TABLE&gt;" target="_top">
<polygon fill="lightgray" stroke="none" points="140.62,-270.88 140.62,-287.12 227.38,-287.12 227.38,-270.88 140.62,-270.88"/>
<text xml:space="preserve" text-anchor="start" x="141.62" y="-274.73" font-family="Arial" font-size="12.00">service provider</text>
<polygon fill="none" stroke="black" points="139.62,-269.88 139.62,-288.12 228.38,-288.12 228.38,-269.88 139.62,-269.88"/>
</a>
</g>
</g>
<!-- ITS&#45;SU service provider&#45;&gt;serviceProvider -->
<g id="edge1" class="edge">
<title>ITS&#45;SU service provider&#45;&gt;serviceProvider</title>
<path fill="none" stroke="black" d="M184,-223.71C184,-231.47 184,-240.92 184,-249.74"/>
<polygon fill="none" stroke="black" points="180.5,-249.66 184,-259.66 187.5,-249.66 180.5,-249.66"/>
</g>
<!-- Invis -->
<!-- ITS&#45;SU service provider&#45;&gt;Invis -->
<!-- its&#45;sUnit -->
<g id="node4" class="node">
<title>its&#45;sUnit</title>
<g id="a_node4"><a xlink:href="../ITS-S unit/" xlink:title="&lt;TABLE&gt;" target="_top">
<polygon fill="lightgray" stroke="none" points="31.38,-98.88 31.38,-115.12 86.62,-115.12 86.62,-98.88 31.38,-98.88"/>
<text xml:space="preserve" text-anchor="start" x="32.38" y="-102.72" font-family="Arial" font-size="12.00">ITS&#45;S unit</text>
<polygon fill="none" stroke="black" points="30.38,-97.88 30.38,-116.12 87.62,-116.12 87.62,-97.88 30.38,-97.88"/>
</a>
</g>
</g>
<!-- ITS&#45;SU service provider&#45;&gt;its&#45;sUnit -->
<g id="edge6" class="edge">
<title>ITS&#45;SU service provider&#45;&gt;its&#45;sUnit</title>
<path fill="none" stroke="black" d="M142.4,-188.03C132.23,-182.97 121.7,-176.9 112.75,-170 99.57,-159.85 87.23,-146.05 77.71,-134.06"/>
<polygon fill="black" stroke="black" points="80.49,-131.93 71.63,-126.12 74.93,-136.19 80.49,-131.93"/>
<text xml:space="preserve" text-anchor="middle" x="136.38" y="-159.55" font-family="Arial" font-size="11.00"> isA </text>
<text xml:space="preserve" text-anchor="middle" x="136.38" y="-146.05" font-family="Arial" font-size="11.00"> «some» &#160;</text>
</g>
<!-- its&#45;suService -->
<g id="node5" class="node">
<title>its&#45;suService</title>
<g id="a_node5"><a xlink:href="../ITS-SU service/" xlink:title="&lt;TABLE&gt;" target="_top">
<polygon fill="lightgray" stroke="none" points="17.5,-25.88 17.5,-42.12 100.5,-42.12 100.5,-25.88 17.5,-25.88"/>
<text xml:space="preserve" text-anchor="start" x="18.5" y="-29.73" font-family="Arial" font-size="12.00">ITS&#45;SU service</text>
<polygon fill="none" stroke="black" points="16.5,-24.88 16.5,-43.12 101.5,-43.12 101.5,-24.88 16.5,-24.88"/>
</a>
</g>
</g>
<!-- ITS&#45;SU service provider&#45;&gt;its&#45;suService -->
<g id="edge5" class="edge">
<title>ITS&#45;SU service provider&#45;&gt;its&#45;suService</title>
<path fill="none" stroke="black" d="M179.4,-188.13C175.42,-175.18 168.9,-157.17 160,-143 139.88,-110.95 109.43,-79.99 87.23,-59.5"/>
<polygon fill="black" stroke="black" points="89.75,-57.06 79.99,-52.94 85.05,-62.25 89.75,-57.06"/>
<text xml:space="preserve" text-anchor="middle" x="170.96" y="-110.05" font-family="Arial" font-size="11.00"> delivers </text>
<text xml:space="preserve" text-anchor="middle" x="170.96" y="-96.55" font-family="Arial" font-size="11.00"> «some» &#160;</text>
</g>
<!-- Invis&#45;&gt;its&#45;sUnit -->
<!-- its&#45;sUnit&#45;&gt;its&#45;suService -->
</g>
</svg>
