<?xml version="1.0" encoding="UTF-8" standalone="no"?>
<!DOCTYPE svg PUBLIC "-//W3C//DTD SVG 1.1//EN"
 "http://www.w3.org/Graphics/SVG/1.1/DTD/svg11.dtd">
<!-- Generated by graphviz version 14.1.3 (20260303.0454)
 -->
<!-- Pages: 1 -->
<svg width="226pt" height="292pt"
 viewBox="0.00 0.00 226.00 292.00" xmlns="http://www.w3.org/2000/svg" xmlns:xlink="http://www.w3.org/1999/xlink">
<g id="graph0" class="graph" transform="scale(1 1) rotate(0) translate(4 287.5)">
<polygon fill="white" stroke="none" points="-4,4 -4,-287.5 221.5,-287.5 221.5,4 -4,4"/>
<g id="clust2" class="cluster">
<title>cluster_associated</title>
</g>
<!-- ITS&#45;SU service -->
<g id="node1" class="node">
<title>ITS&#45;SU service</title>
<polygon fill="lightgray" stroke="none" points="133.5,-184.38 133.5,-200.62 216.5,-200.62 216.5,-184.38 133.5,-184.38"/>
<text xml:space="preserve" text-anchor="start" x="134.5" y="-188.38" font-family="Arial" font-size="12.00">ITS&#45;SU service</text>
<polygon fill="none" stroke="black" points="132.5,-183.38 132.5,-201.62 217.5,-201.62 217.5,-183.38 132.5,-183.38"/>
</g>
<!-- service -->
<g id="node2" class="node">
<title>service</title>
<g id="a_node2"><a xlink:href="../terms/service/" xlink:title="&lt;TABLE&gt;" target="_top">
<polygon fill="lightgray" stroke="none" points="154.88,-257.38 154.88,-273.62 195.12,-273.62 195.12,-257.38 154.88,-257.38"/>
<text xml:space="preserve" text-anchor="start" x="155.88" y="-261.38" font-family="Arial" font-size="12.00">service</text>
<polygon fill="none" stroke="black" points="153.88,-256.38 153.88,-274.62 196.12,-274.62 196.12,-256.38 153.88,-256.38"/>
</a>
</g>
</g>
<!-- ITS&#45;SU service&#45;&gt;service -->
<g id="edge1" class="edge">
<title>ITS&#45;SU service&#45;&gt;service</title>
<path fill="none" stroke="black" d="M175,-210.21C175,-217.97 175,-227.42 175,-236.24"/>
<polygon fill="none" stroke="black" points="171.5,-236.16 175,-246.16 178.5,-236.16 171.5,-236.16"/>
</g>
<!-- Invis -->
<!-- ITS&#45;SU service&#45;&gt;Invis -->
<!-- its&#45;suUser -->
<g id="node4" class="node">
<title>its&#45;suUser</title>
<g id="a_node4"><a xlink:href="../terms/ITS-SU user/" xlink:title="&lt;TABLE&gt;" target="_top">
<polygon fill="lightgray" stroke="none" points="36,-98.88 36,-115.12 104,-115.12 104,-98.88 36,-98.88"/>
<text xml:space="preserve" text-anchor="start" x="37" y="-102.88" font-family="Arial" font-size="12.00">ITS&#45;SU user</text>
<polygon fill="none" stroke="black" points="35,-97.88 35,-116.12 105,-116.12 105,-97.88 35,-97.88"/>
</a>
</g>
</g>
<!-- ITS&#45;SU service&#45;&gt;its&#45;suUser -->
<g id="edge6" class="edge">
<title>ITS&#45;SU service&#45;&gt;its&#45;suUser</title>
<path fill="none" stroke="black" d="M149.82,-174.57C141.83,-168.99 133.05,-162.64 125.25,-156.5 115.7,-148.98 105.6,-140.34 96.7,-132.46"/>
<polygon fill="black" stroke="black" points="99.16,-129.97 89.37,-125.91 94.49,-135.18 99.16,-129.97"/>
<text xml:space="preserve" text-anchor="middle" x="134.62" y="-146.05" font-family="Arial" font-size="11.00"> for </text>
</g>
<!-- its&#45;suUserNeed -->
<g id="node5" class="node">
<title>its&#45;suUserNeed</title>
<g id="a_node5"><a xlink:href="../terms/ITS-SU user need/" xlink:title="&lt;TABLE&gt;" target="_top">
<polygon fill="lightgray" stroke="none" points="17,-25.88 17,-42.12 115,-42.12 115,-25.88 17,-25.88"/>
<text xml:space="preserve" text-anchor="start" x="18" y="-29.88" font-family="Arial" font-size="12.00">ITS&#45;SU user need</text>
<polygon fill="none" stroke="black" points="16,-24.88 16,-43.12 116,-43.12 116,-24.88 16,-24.88"/>
</a>
</g>
</g>
<!-- ITS&#45;SU service&#45;&gt;its&#45;suUserNeed -->
<g id="edge5" class="edge">
<title>ITS&#45;SU service&#45;&gt;its&#45;suUserNeed</title>
<path fill="none" stroke="black" d="M166.21,-174.55C155.1,-153.71 134.91,-117.58 114,-89 106.78,-79.13 98.09,-68.95 90.11,-60.12"/>
<polygon fill="black" stroke="black" points="92.82,-57.89 83.47,-52.92 87.67,-62.64 92.82,-57.89"/>
<text xml:space="preserve" text-anchor="middle" x="152.22" y="-103.3" font-family="Arial" font-size="11.00"> fulfils </text>
</g>
<!-- Invis&#45;&gt;its&#45;suUser -->
<!-- its&#45;suUser&#45;&gt;its&#45;suUserNeed -->
</g>
</svg>
