<?xml version="1.0" encoding="UTF-8" standalone="no"?>
<!DOCTYPE svg PUBLIC "-//W3C//DTD SVG 1.1//EN"
 "http://www.w3.org/Graphics/SVG/1.1/DTD/svg11.dtd">
<!-- Generated by graphviz version 14.1.3 (20260303.0454)
 -->
<!-- Pages: 1 -->
<svg width="318pt" height="162pt"
 viewBox="0.00 0.00 318.00 162.00" xmlns="http://www.w3.org/2000/svg" xmlns:xlink="http://www.w3.org/1999/xlink">
<g id="graph0" class="graph" transform="scale(1 1) rotate(0) translate(4 157.5)">
<polygon fill="white" stroke="none" points="-4,4 -4,-157.5 313.5,-157.5 313.5,4 -4,4"/>
<g id="clust2" class="cluster">
<title>cluster_associated</title>
</g>
<!-- ITS&#45;S application implementation -->
<g id="node1" class="node">
<title>ITS&#45;S application implementation</title>
<polygon fill="lightgray" stroke="none" points="1,-111.38 1,-127.62 180,-127.62 180,-111.38 1,-111.38"/>
<text xml:space="preserve" text-anchor="start" x="2" y="-115.38" font-family="Arial" font-size="12.00">ITS&#45;S application implementation</text>
<polygon fill="none" stroke="black" points="0,-110.38 0,-128.62 181,-128.62 181,-110.38 0,-110.38"/>
</g>
<!-- Invis -->
<!-- ITS&#45;S application implementation&#45;&gt;Invis -->
<!-- its&#45;sApplication -->
<g id="node3" class="node">
<title>its&#45;sApplication</title>
<g id="a_node3"><a xlink:href="../terms/ITS-S application/" xlink:title="&lt;TABLE&gt;" target="_top">
<polygon fill="lightgray" stroke="none" points="198.38,-25.88 198.38,-42.12 292.62,-42.12 292.62,-25.88 198.38,-25.88"/>
<text xml:space="preserve" text-anchor="start" x="199.38" y="-29.88" font-family="Arial" font-size="12.00">ITS&#45;S application</text>
<polygon fill="none" stroke="black" points="197.38,-24.88 197.38,-43.12 293.62,-43.12 293.62,-24.88 197.38,-24.88"/>
</a>
</g>
</g>
<!-- ITS&#45;S application implementation&#45;&gt;its&#45;sApplication -->
<g id="edge3" class="edge">
<title>ITS&#45;S application implementation&#45;&gt;its&#45;sApplication</title>
<path fill="none" stroke="black" d="M108.01,-101.5C119.23,-91.31 134.51,-78.69 149.75,-70 161.4,-63.36 174.55,-57.58 187.28,-52.74"/>
<polygon fill="black" stroke="black" points="188.21,-56.12 196.41,-49.41 185.82,-49.54 188.21,-56.12"/>
<text xml:space="preserve" text-anchor="middle" x="195.12" y="-73.05" font-family="Arial" font-size="11.00"> implementation of </text>
</g>
<!-- Invis&#45;&gt;its&#45;sApplication -->
</g>
</svg>
