<?xml version="1.0" encoding="UTF-8" standalone="no"?>
<!DOCTYPE svg PUBLIC "-//W3C//DTD SVG 1.1//EN"
 "http://www.w3.org/Graphics/SVG/1.1/DTD/svg11.dtd">
<!-- Generated by graphviz version 14.1.3 (20260303.0454)
 -->
<!-- Pages: 1 -->
<svg width="474pt" height="609pt"
 viewBox="0.00 0.00 474.00 609.00" xmlns="http://www.w3.org/2000/svg" xmlns:xlink="http://www.w3.org/1999/xlink">
<g id="graph0" class="graph" transform="scale(1 1) rotate(0) translate(4 604.5)">
<polygon fill="white" stroke="none" points="-4,4 -4,-604.5 470,-604.5 470,4 -4,4"/>
<g id="clust2" class="cluster">
<title>cluster_associated</title>
</g>
<!-- ITS&#45;S reference architecture -->
<g id="node1" class="node">
<title>ITS&#45;S reference architecture</title>
<polygon fill="lightgray" stroke="none" points="158.38,-501.38 158.38,-517.62 309.62,-517.62 309.62,-501.38 158.38,-501.38"/>
<text xml:space="preserve" text-anchor="start" x="159.38" y="-505.38" font-family="Arial" font-size="12.00">ITS&#45;S reference architecture</text>
<polygon fill="none" stroke="black" points="157.38,-500.38 157.38,-518.62 310.62,-518.62 310.62,-500.38 157.38,-500.38"/>
</g>
<!-- referenceArchitecture -->
<g id="node2" class="node">
<title>referenceArchitecture</title>
<g id="a_node2"><a xlink:href="../terms/reference architecture/" xlink:title="&lt;TABLE&gt;" target="_top">
<polygon fill="lightgray" stroke="none" points="175.25,-574.38 175.25,-590.62 292.75,-590.62 292.75,-574.38 175.25,-574.38"/>
<text xml:space="preserve" text-anchor="start" x="176.25" y="-578.38" font-family="Arial" font-size="12.00">reference architecture</text>
<polygon fill="none" stroke="black" points="174.25,-573.38 174.25,-591.62 293.75,-591.62 293.75,-573.38 174.25,-573.38"/>
</a>
</g>
</g>
<!-- ITS&#45;S reference architecture&#45;&gt;referenceArchitecture -->
<g id="edge1" class="edge">
<title>ITS&#45;S reference architecture&#45;&gt;referenceArchitecture</title>
<path fill="none" stroke="black" d="M234,-527.21C234,-534.97 234,-544.42 234,-553.24"/>
<polygon fill="none" stroke="black" points="230.5,-553.16 234,-563.16 237.5,-553.16 230.5,-553.16"/>
</g>
<!-- Invis -->
<!-- ITS&#45;S reference architecture&#45;&gt;Invis -->
<!-- applicationEntity -->
<g id="node4" class="node">
<title>applicationEntity</title>
<g id="a_node4"><a xlink:href="../terms/application entity/" xlink:title="&lt;TABLE&gt;" target="_top">
<polygon fill="lightgray" stroke="none" points="17,-415.88 17,-432.12 109,-432.12 109,-415.88 17,-415.88"/>
<text xml:space="preserve" text-anchor="start" x="18" y="-419.88" font-family="Arial" font-size="12.00">application entity</text>
<polygon fill="none" stroke="black" points="16,-414.88 16,-433.12 110,-433.12 110,-414.88 16,-414.88"/>
</a>
</g>
</g>
<!-- ITS&#45;S reference architecture&#45;&gt;applicationEntity -->
<g id="edge11" class="edge">
<title>ITS&#45;S reference architecture&#45;&gt;applicationEntity</title>
<path fill="none" stroke="black" d="M157.81,-495.95C118.91,-488.86 78.41,-480.11 72,-473.5 66.75,-468.1 64.05,-460.68 62.76,-453.28"/>
<polygon fill="black" stroke="black" points="66.26,-453.09 61.87,-443.44 59.29,-453.72 66.26,-453.09"/>
<text xml:space="preserve" text-anchor="middle" x="102" y="-463.05" font-family="Arial" font-size="11.00"> aggregates </text>
</g>
<!-- facilitiesLayer -->
<g id="node5" class="node">
<title>facilitiesLayer</title>
<g id="a_node5"><a xlink:href="../terms/facilities layer/" xlink:title="&lt;TABLE&gt;" target="_top">
<polygon fill="lightgray" stroke="none" points="32.62,-330.38 32.62,-346.62 107.38,-346.62 107.38,-330.38 32.62,-330.38"/>
<text xml:space="preserve" text-anchor="start" x="33.62" y="-334.38" font-family="Arial" font-size="12.00">facilities layer</text>
<polygon fill="none" stroke="black" points="31.62,-329.38 31.62,-347.62 108.38,-347.62 108.38,-329.38 31.62,-329.38"/>
</a>
</g>
</g>
<!-- ITS&#45;S reference architecture&#45;&gt;facilitiesLayer -->
<g id="edge10" class="edge">
<title>ITS&#45;S reference architecture&#45;&gt;facilitiesLayer</title>
<path fill="none" stroke="black" d="M213.94,-491.61C198.71,-478.52 177.49,-459.69 160,-442 135.2,-416.91 108.79,-386.32 91.04,-365.12"/>
<polygon fill="black" stroke="black" points="93.82,-362.98 84.73,-357.53 88.44,-367.46 93.82,-362.98"/>
<text xml:space="preserve" text-anchor="middle" x="190" y="-420.3" font-family="Arial" font-size="11.00"> aggregates </text>
</g>
<!-- its&#45;sAccessLayer -->
<g id="node6" class="node">
<title>its&#45;sAccessLayer</title>
<g id="a_node6"><a xlink:href="../terms/ITS-S access layer/" xlink:title="&lt;TABLE&gt;" target="_top">
<polygon fill="lightgray" stroke="none" points="18.75,-244.88 18.75,-261.12 121.25,-261.12 121.25,-244.88 18.75,-244.88"/>
<text xml:space="preserve" text-anchor="start" x="19.75" y="-248.88" font-family="Arial" font-size="12.00">ITS&#45;S access layer</text>
<polygon fill="none" stroke="black" points="17.75,-243.88 17.75,-262.12 122.25,-262.12 122.25,-243.88 17.75,-243.88"/>
</a>
</g>
</g>
<!-- ITS&#45;S reference architecture&#45;&gt;its&#45;sAccessLayer -->
<g id="edge14" class="edge">
<title>ITS&#45;S reference architecture&#45;&gt;its&#45;sAccessLayer</title>
<path fill="none" stroke="black" d="M235.33,-491.71C236.24,-470.39 235.18,-433.11 220,-406 213.83,-394.98 207.27,-396.58 198,-388 159.02,-351.9 117.07,-306.62 92.2,-279.02"/>
<polygon fill="black" stroke="black" points="95.04,-276.95 85.76,-271.84 89.83,-281.62 95.04,-276.95"/>
<text xml:space="preserve" text-anchor="middle" x="228" y="-377.55" font-family="Arial" font-size="11.00"> aggregates </text>
</g>
<!-- managementEntity -->
<g id="node7" class="node">
<title>managementEntity</title>
<g id="a_node7"><a xlink:href="../terms/management entity/" xlink:title="&lt;TABLE&gt;" target="_top">
<polygon fill="lightgray" stroke="none" points="17.38,-171.88 17.38,-188.12 120.62,-188.12 120.62,-171.88 17.38,-171.88"/>
<text xml:space="preserve" text-anchor="start" x="18.38" y="-175.88" font-family="Arial" font-size="12.00">management entity</text>
<polygon fill="none" stroke="black" points="16.38,-170.88 16.38,-189.12 121.62,-189.12 121.62,-170.88 16.38,-170.88"/>
</a>
</g>
</g>
<!-- ITS&#45;S reference architecture&#45;&gt;managementEntity -->
<g id="edge12" class="edge">
<title>ITS&#45;S reference architecture&#45;&gt;managementEntity</title>
<path fill="none" stroke="black" d="M242.55,-491.87C254.64,-465.98 273.61,-414.83 258,-374.5 228.49,-298.25 151.69,-236.21 105.58,-204.32"/>
<polygon fill="black" stroke="black" points="107.73,-201.55 97.49,-198.83 103.8,-207.34 107.73,-201.55"/>
<text xml:space="preserve" text-anchor="middle" x="279.33" y="-334.8" font-family="Arial" font-size="11.00"> aggregates </text>
</g>
<!-- securityEntity -->
<g id="node8" class="node">
<title>securityEntity</title>
<g id="a_node8"><a xlink:href="../terms/security entity/" xlink:title="&lt;TABLE&gt;" target="_top">
<polygon fill="lightgray" stroke="none" points="46.62,-98.88 46.62,-115.12 121.38,-115.12 121.38,-98.88 46.62,-98.88"/>
<text xml:space="preserve" text-anchor="start" x="47.62" y="-102.88" font-family="Arial" font-size="12.00">security entity</text>
<polygon fill="none" stroke="black" points="45.62,-97.88 45.62,-116.12 122.38,-116.12 122.38,-97.88 45.62,-97.88"/>
</a>
</g>
</g>
<!-- ITS&#45;S reference architecture&#45;&gt;securityEntity -->
<g id="edge9" class="edge">
<title>ITS&#45;S reference architecture&#45;&gt;securityEntity</title>
<path fill="none" stroke="black" d="M275.98,-491.62C302.2,-478.01 331,-456 331,-425 331,-425 331,-425 331,-179 331,-138.29 205.49,-119.54 133.41,-112.13"/>
<polygon fill="black" stroke="black" points="134.12,-108.68 123.83,-111.19 133.44,-115.65 134.12,-108.68"/>
<text xml:space="preserve" text-anchor="middle" x="361" y="-292.05" font-family="Arial" font-size="11.00"> aggregates </text>
</g>
<!-- transnetLayer -->
<g id="node9" class="node">
<title>transnetLayer</title>
<g id="a_node9"><a xlink:href="../terms/transnet layer/" xlink:title="&lt;TABLE&gt;" target="_top">
<polygon fill="lightgray" stroke="none" points="47,-25.88 47,-42.12 121,-42.12 121,-25.88 47,-25.88"/>
<text xml:space="preserve" text-anchor="start" x="48" y="-29.88" font-family="Arial" font-size="12.00">transnet layer</text>
<polygon fill="none" stroke="black" points="46,-24.88 46,-43.12 122,-43.12 122,-24.88 46,-24.88"/>
</a>
</g>
</g>
<!-- ITS&#45;S reference architecture&#45;&gt;transnetLayer -->
<g id="edge13" class="edge">
<title>ITS&#45;S reference architecture&#45;&gt;transnetLayer</title>
<path fill="none" stroke="black" d="M310.44,-500.73C356.38,-491.34 406,-470.64 406,-425 406,-425 406,-425 406,-106 406,-50.82 223.36,-38.48 133.19,-35.76"/>
<polygon fill="black" stroke="black" points="133.49,-32.26 123.4,-35.49 133.3,-39.26 133.49,-32.26"/>
<text xml:space="preserve" text-anchor="middle" x="436" y="-249.3" font-family="Arial" font-size="11.00"> aggregates </text>
</g>
<!-- Invis&#45;&gt;applicationEntity -->
<!-- applicationEntity&#45;&gt;facilitiesLayer -->
<!-- facilitiesLayer&#45;&gt;its&#45;sAccessLayer -->
<!-- its&#45;sAccessLayer&#45;&gt;managementEntity -->
<!-- managementEntity&#45;&gt;securityEntity -->
<!-- securityEntity&#45;&gt;transnetLayer -->
</g>
</svg>
