<?xml version="1.0" encoding="UTF-8" standalone="no"?>
<!DOCTYPE svg PUBLIC "-//W3C//DTD SVG 1.1//EN"
 "http://www.w3.org/Graphics/SVG/1.1/DTD/svg11.dtd">
<!-- Generated by graphviz version 14.0.2 (20251019.1705)
 -->
<!-- Pages: 1 -->
<svg width="318pt" height="175pt"
 viewBox="0.00 0.00 318.00 175.00" xmlns="http://www.w3.org/2000/svg" xmlns:xlink="http://www.w3.org/1999/xlink">
<g id="graph0" class="graph" transform="scale(1 1) rotate(0) translate(4 171)">
<polygon fill="white" stroke="none" points="-4,4 -4,-171 313.5,-171 313.5,4 -4,4"/>
<g id="clust2" class="cluster">
<title>cluster_associated</title>
</g>
<!-- ITS&#45;S application implementation -->
<g id="node1" class="node">
<title>ITS&#45;S application implementation</title>
<g id="a_node1"><a xlink:href="../classes/itsVocabulary__ITS-S application implementation.md" xlink:title="&lt;TABLE&gt;">
<polygon fill="lightgray" stroke="none" points="1,-124.88 1,-141.12 180,-141.12 180,-124.88 1,-124.88"/>
<text xml:space="preserve" text-anchor="start" x="2" y="-128.72" font-family="Arial" font-size="12.00">ITS&#45;S application implementation</text>
<polygon fill="none" stroke="black" points="0,-123.88 0,-142.12 181,-142.12 181,-123.88 0,-123.88"/>
</a>
</g>
</g>
<!-- Invis -->
<!-- ITS&#45;S application implementation&#45;&gt;Invis -->
<!-- its&#45;sApplication -->
<g id="node3" class="node">
<title>its&#45;sApplication</title>
<g id="a_node3"><a xlink:href="../ITS-S application/" xlink:title="&lt;TABLE&gt;" target="_top">
<polygon fill="lightgray" stroke="none" points="198.38,-25.88 198.38,-42.12 292.62,-42.12 292.62,-25.88 198.38,-25.88"/>
<text xml:space="preserve" text-anchor="start" x="199.38" y="-29.73" font-family="Arial" font-size="12.00">ITS&#45;S application</text>
<polygon fill="none" stroke="black" points="197.38,-24.88 197.38,-43.12 293.62,-43.12 293.62,-24.88 197.38,-24.88"/>
</a>
</g>
</g>
<!-- ITS&#45;S application implementation&#45;&gt;its&#45;sApplication -->
<g id="edge3" class="edge">
<title>ITS&#45;S application implementation&#45;&gt;its&#45;sApplication</title>
<path fill="none" stroke="black" d="M103.16,-115.22C114.31,-101.44 131.67,-82.26 150.5,-70 161.66,-62.73 174.54,-56.7 187.14,-51.81"/>
<polygon fill="black" stroke="black" points="188.01,-55.21 196.19,-48.48 185.6,-48.64 188.01,-55.21"/>
<text xml:space="preserve" text-anchor="middle" x="195.5" y="-86.55" font-family="Arial" font-size="11.00"> implementationOf </text>
<text xml:space="preserve" text-anchor="middle" x="195.5" y="-73.05" font-family="Arial" font-size="11.00"> «some» &#160;</text>
</g>
<!-- Invis&#45;&gt;its&#45;sApplication -->
</g>
</svg>
