<?xml version="1.0" encoding="UTF-8" standalone="no"?>
<!DOCTYPE svg PUBLIC "-//W3C//DTD SVG 1.1//EN"
 "http://www.w3.org/Graphics/SVG/1.1/DTD/svg11.dtd">
<!-- Generated by graphviz version 14.0.2 (20251019.1705)
 -->
<!-- Pages: 1 -->
<svg width="253pt" height="232pt"
 viewBox="0.00 0.00 253.00 232.00" xmlns="http://www.w3.org/2000/svg" xmlns:xlink="http://www.w3.org/1999/xlink">
<g id="graph0" class="graph" transform="scale(1 1) rotate(0) translate(4 228)">
<polygon fill="white" stroke="none" points="-4,4 -4,-228 248.62,-228 248.62,4 -4,4"/>
<g id="clust2" class="cluster">
<title>cluster_associated</title>
</g>
<!-- ITS&#45;S application -->
<g id="node1" class="node">
<title>ITS&#45;S application</title>
<g id="a_node1"><a xlink:href="../classes/itsVocabulary__ITS-S application.md" xlink:title="&lt;TABLE&gt;">
<polygon fill="lightgray" stroke="none" points="126.88,-124.88 126.88,-141.12 221.12,-141.12 221.12,-124.88 126.88,-124.88"/>
<text xml:space="preserve" text-anchor="start" x="127.88" y="-128.72" font-family="Arial" font-size="12.00">ITS&#45;S application</text>
<polygon fill="none" stroke="black" points="125.88,-123.88 125.88,-142.12 222.12,-142.12 222.12,-123.88 125.88,-123.88"/>
</a>
</g>
</g>
<!-- its&#45;sApplicationProcess -->
<g id="node2" class="node">
<title>its&#45;sApplicationProcess</title>
<g id="a_node2"><a xlink:href="../ITS-S application process/" xlink:title="&lt;TABLE&gt;" target="_top">
<polygon fill="lightgray" stroke="none" points="104.38,-197.88 104.38,-214.12 243.62,-214.12 243.62,-197.88 104.38,-197.88"/>
<text xml:space="preserve" text-anchor="start" x="105.38" y="-201.72" font-family="Arial" font-size="12.00">ITS&#45;S application process</text>
<polygon fill="none" stroke="black" points="103.38,-196.88 103.38,-215.12 244.62,-215.12 244.62,-196.88 103.38,-196.88"/>
</a>
</g>
</g>
<!-- ITS&#45;S application&#45;&gt;its&#45;sApplicationProcess -->
<g id="edge1" class="edge">
<title>ITS&#45;S application&#45;&gt;its&#45;sApplicationProcess</title>
<path fill="none" stroke="black" d="M174,-150.71C174,-158.47 174,-167.92 174,-176.74"/>
<polygon fill="none" stroke="black" points="170.5,-176.66 174,-186.66 177.5,-176.66 170.5,-176.66"/>
</g>
<!-- Invis -->
<!-- ITS&#45;S application&#45;&gt;Invis -->
<!-- applicationEntity -->
<g id="node4" class="node">
<title>applicationEntity</title>
<g id="a_node4"><a xlink:href="../application entity/" xlink:title="&lt;TABLE&gt;" target="_top">
<polygon fill="lightgray" stroke="none" points="17,-25.88 17,-42.12 109,-42.12 109,-25.88 17,-25.88"/>
<text xml:space="preserve" text-anchor="start" x="18" y="-29.73" font-family="Arial" font-size="12.00">application entity</text>
<polygon fill="none" stroke="black" points="16,-24.88 16,-43.12 110,-43.12 110,-24.88 16,-24.88"/>
</a>
</g>
</g>
<!-- ITS&#45;S application&#45;&gt;applicationEntity -->
<g id="edge4" class="edge">
<title>ITS&#45;S application&#45;&gt;applicationEntity</title>
<path fill="none" stroke="black" d="M154.67,-115.1C137,-99.66 110.67,-76.66 90.76,-59.26"/>
<polygon fill="black" stroke="black" points="93.09,-56.64 83.25,-52.7 88.48,-61.91 93.09,-56.64"/>
<text xml:space="preserve" text-anchor="middle" x="156.46" y="-86.55" font-family="Arial" font-size="11.00"> residesIn </text>
<text xml:space="preserve" text-anchor="middle" x="156.46" y="-73.05" font-family="Arial" font-size="11.00"> «some» &#160;</text>
</g>
<!-- Invis&#45;&gt;applicationEntity -->
</g>
</svg>
