<?xml version="1.0" encoding="UTF-8" standalone="no"?>
<!DOCTYPE svg PUBLIC "-//W3C//DTD SVG 1.1//EN"
 "http://www.w3.org/Graphics/SVG/1.1/DTD/svg11.dtd">
<!-- Generated by graphviz version 14.0.2 (20251019.1705)
 -->
<!-- Pages: 1 -->
<svg width="384pt" height="175pt"
 viewBox="0.00 0.00 384.00 175.00" xmlns="http://www.w3.org/2000/svg" xmlns:xlink="http://www.w3.org/1999/xlink">
<g id="graph0" class="graph" transform="scale(1 1) rotate(0) translate(4 171)">
<polygon fill="white" stroke="none" points="-4,4 -4,-171 380,-171 380,4 -4,4"/>
<g id="clust2" class="cluster">
<title>cluster_associated</title>
</g>
<!-- ITS&#45;S application process installation -->
<g id="node1" class="node">
<title>ITS&#45;S application process installation</title>
<g id="a_node1"><a xlink:href="../classes/itsVocabulary__ITS-S application process installation.md" xlink:title="&lt;TABLE&gt;">
<polygon fill="lightgray" stroke="none" points="1,-124.88 1,-141.12 201,-141.12 201,-124.88 1,-124.88"/>
<text xml:space="preserve" text-anchor="start" x="2" y="-128.72" font-family="Arial" font-size="12.00">ITS&#45;S application process installation</text>
<polygon fill="none" stroke="black" points="0,-123.88 0,-142.12 202,-142.12 202,-123.88 0,-123.88"/>
</a>
</g>
</g>
<!-- Invis -->
<!-- ITS&#45;S application process installation&#45;&gt;Invis -->
<!-- its&#45;sApplicationProcess -->
<g id="node3" class="node">
<title>its&#45;sApplicationProcess</title>
<g id="a_node3"><a xlink:href="../ITS-S application process/" xlink:title="&lt;TABLE&gt;" target="_top">
<polygon fill="lightgray" stroke="none" points="219.38,-25.88 219.38,-42.12 358.62,-42.12 358.62,-25.88 219.38,-25.88"/>
<text xml:space="preserve" text-anchor="start" x="220.38" y="-29.73" font-family="Arial" font-size="12.00">ITS&#45;S application process</text>
<polygon fill="none" stroke="black" points="218.38,-24.88 218.38,-43.12 359.62,-43.12 359.62,-24.88 218.38,-24.88"/>
</a>
</g>
</g>
<!-- ITS&#45;S application process installation&#45;&gt;its&#45;sApplicationProcess -->
<g id="edge3" class="edge">
<title>ITS&#45;S application process installation&#45;&gt;its&#45;sApplicationProcess</title>
<path fill="none" stroke="black" d="M128.96,-115.19C150.85,-102.27 182.22,-84.27 210.5,-70 219.5,-65.46 229.22,-60.88 238.65,-56.59"/>
<polygon fill="black" stroke="black" points="240.05,-59.8 247.74,-52.51 237.18,-53.41 240.05,-59.8"/>
<text xml:space="preserve" text-anchor="middle" x="244.25" y="-86.55" font-family="Arial" font-size="11.00"> installationOf </text>
<text xml:space="preserve" text-anchor="middle" x="244.25" y="-73.05" font-family="Arial" font-size="11.00"> «some» &#160;</text>
</g>
<!-- Invis&#45;&gt;its&#45;sApplicationProcess -->
</g>
</svg>
