<?xml version="1.0" encoding="UTF-8" standalone="no"?>
<!DOCTYPE svg PUBLIC "-//W3C//DTD SVG 1.1//EN"
 "http://www.w3.org/Graphics/SVG/1.1/DTD/svg11.dtd">
<!-- Generated by graphviz version 14.0.2 (20251019.1705)
 -->
<!-- Pages: 1 -->
<svg width="185pt" height="248pt"
 viewBox="0.00 0.00 185.00 248.00" xmlns="http://www.w3.org/2000/svg" xmlns:xlink="http://www.w3.org/1999/xlink">
<g id="graph0" class="graph" transform="scale(1 1) rotate(0) translate(4 244)">
<polygon fill="white" stroke="none" points="-4,4 -4,-244 181.38,-244 181.38,4 -4,4"/>
<g id="clust2" class="cluster">
<title>cluster_associated</title>
</g>
<!-- ITS&#45;S node -->
<g id="node1" class="node">
<title>ITS&#45;S node</title>
<g id="a_node1"><a xlink:href="../classes/itsVocabulary__ITS-S node.md" xlink:title="&lt;TABLE&gt;">
<polygon fill="lightgray" stroke="none" points="1,-197.88 1,-214.12 63.75,-214.12 63.75,-197.88 1,-197.88"/>
<text xml:space="preserve" text-anchor="start" x="2" y="-201.72" font-family="Arial" font-size="12.00">ITS&#45;S node</text>
<polygon fill="none" stroke="black" points="0,-196.88 0,-215.12 64.75,-215.12 64.75,-196.88 0,-196.88"/>
</a>
</g>
</g>
<!-- Invis -->
<!-- ITS&#45;S node&#45;&gt;Invis -->
<!-- functionality -->
<g id="node3" class="node">
<title>functionality</title>
<polygon fill="lightgray" stroke="none" points="94.5,-98.88 94.5,-115.12 160.25,-115.12 160.25,-98.88 94.5,-98.88"/>
<text xml:space="preserve" text-anchor="start" x="95.5" y="-102.72" font-family="Arial" font-size="12.00">functionality</text>
<polygon fill="none" stroke="black" points="93.5,-97.88 93.5,-116.12 161.25,-116.12 161.25,-97.88 93.5,-97.88"/>
</g>
<!-- ITS&#45;S node&#45;&gt;functionality -->
<g id="edge5" class="edge">
<title>ITS&#45;S node&#45;&gt;functionality</title>
<path fill="none" stroke="black" d="M39.35,-188.2C45.54,-174.78 55.63,-156.1 68.62,-143 73.23,-138.36 78.58,-134.09 84.13,-130.25"/>
<polygon fill="black" stroke="black" points="85.76,-133.37 92.3,-125.03 81.99,-127.47 85.76,-133.37"/>
<text xml:space="preserve" text-anchor="middle" x="96" y="-159.55" font-family="Arial" font-size="11.00"> comprises </text>
<text xml:space="preserve" text-anchor="middle" x="96" y="-146.05" font-family="Arial" font-size="11.00"> «some» &#160;</text>
</g>
<!-- its&#45;sUnit -->
<g id="node4" class="node">
<title>its&#45;sUnit</title>
<g id="a_node4"><a xlink:href="../ITS-S unit/" xlink:title="&lt;TABLE&gt;" target="_top">
<polygon fill="lightgray" stroke="none" points="96.75,-25.88 96.75,-42.12 152,-42.12 152,-25.88 96.75,-25.88"/>
<text xml:space="preserve" text-anchor="start" x="97.75" y="-29.73" font-family="Arial" font-size="12.00">ITS&#45;S unit</text>
<polygon fill="none" stroke="black" points="95.75,-24.88 95.75,-43.12 153,-43.12 153,-24.88 95.75,-24.88"/>
</a>
</g>
</g>
<!-- ITS&#45;S node&#45;&gt;its&#45;sUnit -->
<g id="edge4" class="edge">
<title>ITS&#45;S node&#45;&gt;its&#45;sUnit</title>
<path fill="none" stroke="black" d="M25.26,-188.24C16.32,-164.36 4.25,-120.01 22.88,-89 36.39,-66.5 62.8,-52.87 85.29,-44.93"/>
<polygon fill="black" stroke="black" points="86.07,-48.36 94.5,-41.94 83.91,-41.7 86.07,-48.36"/>
<text xml:space="preserve" text-anchor="middle" x="53.62" y="-110.05" font-family="Arial" font-size="11.00"> containedIn </text>
<text xml:space="preserve" text-anchor="middle" x="53.62" y="-96.55" font-family="Arial" font-size="11.00"> «some» &#160;</text>
</g>
<!-- Invis&#45;&gt;functionality -->
<!-- functionality&#45;&gt;its&#45;sUnit -->
</g>
</svg>
