<?xml version="1.0" encoding="UTF-8" standalone="no"?>
<!DOCTYPE svg PUBLIC "-//W3C//DTD SVG 1.1//EN"
 "http://www.w3.org/Graphics/SVG/1.1/DTD/svg11.dtd">
<!-- Generated by graphviz version 14.1.3 (20260303.0454)
 -->
<!-- Pages: 1 -->
<svg width="262pt" height="162pt"
 viewBox="0.00 0.00 262.00 162.00" xmlns="http://www.w3.org/2000/svg" xmlns:xlink="http://www.w3.org/1999/xlink">
<g id="graph0" class="graph" transform="scale(1 1) rotate(0) translate(4 157.5)">
<polygon fill="white" stroke="none" points="-4,4 -4,-157.5 258.38,-157.5 258.38,4 -4,4"/>
<g id="clust2" class="cluster">
<title>cluster_associated</title>
</g>
<!-- jurisdictional boundary -->
<g id="node1" class="node">
<title>jurisdictional boundary</title>
<polygon fill="lightgray" stroke="none" points="1,-111.38 1,-127.62 123.75,-127.62 123.75,-111.38 1,-111.38"/>
<text xml:space="preserve" text-anchor="start" x="2" y="-115.38" font-family="Arial" font-size="12.00">jurisdictional boundary</text>
<polygon fill="none" stroke="black" points="0,-110.38 0,-128.62 124.75,-128.62 124.75,-110.38 0,-110.38"/>
</g>
<!-- Invis -->
<!-- jurisdictional boundary&#45;&gt;Invis -->
<!-- jurisdictionalArea -->
<g id="node3" class="node">
<title>jurisdictionalArea</title>
<g id="a_node3"><a xlink:href="../terms/jurisdictional area/" xlink:title="&lt;TABLE&gt;" target="_top">
<polygon fill="lightgray" stroke="none" points="141.12,-25.88 141.12,-42.12 237.62,-42.12 237.62,-25.88 141.12,-25.88"/>
<text xml:space="preserve" text-anchor="start" x="142.12" y="-29.88" font-family="Arial" font-size="12.00">jurisdictional area</text>
<polygon fill="none" stroke="black" points="140.12,-24.88 140.12,-43.12 238.62,-43.12 238.62,-24.88 140.12,-24.88"/>
</a>
</g>
</g>
<!-- jurisdictional boundary&#45;&gt;jurisdictionalArea -->
<g id="edge3" class="edge">
<title>jurisdictional boundary&#45;&gt;jurisdictionalArea</title>
<path fill="none" stroke="black" d="M88.08,-101.6C107.1,-89.1 133.23,-71.91 154.19,-58.13"/>
<polygon fill="black" stroke="black" points="156.02,-61.12 162.45,-52.7 152.17,-55.27 156.02,-61.12"/>
<text xml:space="preserve" text-anchor="middle" x="151.85" y="-73.05" font-family="Arial" font-size="11.00"> limit of </text>
</g>
<!-- Invis&#45;&gt;jurisdictionalArea -->
</g>
</svg>
