<?xml version="1.0" encoding="UTF-8" standalone="no"?>
<!DOCTYPE svg PUBLIC "-//W3C//DTD SVG 1.1//EN"
 "http://www.w3.org/Graphics/SVG/1.1/DTD/svg11.dtd">
<!-- Generated by graphviz version 14.1.3 (20260303.0454)
 -->
<!-- Pages: 1 -->
<svg width="174pt" height="219pt"
 viewBox="0.00 0.00 174.00 219.00" xmlns="http://www.w3.org/2000/svg" xmlns:xlink="http://www.w3.org/1999/xlink">
<g id="graph0" class="graph" transform="scale(1 1) rotate(0) translate(4 214.5)">
<polygon fill="white" stroke="none" points="-4,4 -4,-214.5 170,-214.5 170,4 -4,4"/>
<g id="clust2" class="cluster">
<title>cluster_associated</title>
</g>
<!-- lane link -->
<g id="node1" class="node">
<title>lane link</title>
<polygon fill="lightgray" stroke="none" points="115.5,-111.38 115.5,-127.62 162.5,-127.62 162.5,-111.38 115.5,-111.38"/>
<text xml:space="preserve" text-anchor="start" x="116.5" y="-115.38" font-family="Arial" font-size="12.00">lane link</text>
<polygon fill="none" stroke="black" points="114.5,-110.38 114.5,-128.62 163.5,-128.62 163.5,-110.38 114.5,-110.38"/>
</g>
<!-- link -->
<g id="node2" class="node">
<title>link</title>
<g id="a_node2"><a xlink:href="../terms/link/" xlink:title="&lt;TABLE&gt;" target="_top">
<polygon fill="lightgray" stroke="none" points="128.62,-184.38 128.62,-200.62 149.38,-200.62 149.38,-184.38 128.62,-184.38"/>
<text xml:space="preserve" text-anchor="start" x="129.62" y="-188.38" font-family="Arial" font-size="12.00">link</text>
<polygon fill="none" stroke="black" points="127.62,-183.38 127.62,-201.62 150.38,-201.62 150.38,-183.38 127.62,-183.38"/>
</a>
</g>
</g>
<!-- lane link&#45;&gt;link -->
<g id="edge1" class="edge">
<title>lane link&#45;&gt;link</title>
<path fill="none" stroke="black" d="M139,-137.21C139,-144.97 139,-154.42 139,-163.24"/>
<polygon fill="none" stroke="black" points="135.5,-163.16 139,-173.16 142.5,-163.16 135.5,-163.16"/>
</g>
<!-- Invis -->
<!-- lane link&#45;&gt;Invis -->
<!-- laneSegment -->
<g id="node4" class="node">
<title>laneSegment</title>
<g id="a_node4"><a xlink:href="../terms/lane segment/" xlink:title="&lt;TABLE&gt;" target="_top">
<polygon fill="lightgray" stroke="none" points="17,-25.88 17,-42.12 91,-42.12 91,-25.88 17,-25.88"/>
<text xml:space="preserve" text-anchor="start" x="18" y="-29.88" font-family="Arial" font-size="12.00">lane segment</text>
<polygon fill="none" stroke="black" points="16,-24.88 16,-43.12 92,-43.12 92,-24.88 16,-24.88"/>
</a>
</g>
</g>
<!-- lane link&#45;&gt;laneSegment -->
<g id="edge4" class="edge">
<title>lane link&#45;&gt;laneSegment</title>
<path fill="none" stroke="black" d="M121.8,-101.6C109.59,-89.61 92.99,-73.3 79.28,-59.83"/>
<polygon fill="black" stroke="black" points="81.84,-57.44 72.26,-52.93 76.94,-62.44 81.84,-57.44"/>
<text xml:space="preserve" text-anchor="middle" x="130.09" y="-73.05" font-family="Arial" font-size="11.00"> constitutes </text>
</g>
<!-- Invis&#45;&gt;laneSegment -->
</g>
</svg>
