<?xml version="1.0" encoding="UTF-8" standalone="no"?>
<!DOCTYPE svg PUBLIC "-//W3C//DTD SVG 1.1//EN"
 "http://www.w3.org/Graphics/SVG/1.1/DTD/svg11.dtd">
<!-- Generated by graphviz version 14.1.3 (20260303.0454)
 -->
<!-- Pages: 1 -->
<svg width="282pt" height="292pt"
 viewBox="0.00 0.00 282.00 292.00" xmlns="http://www.w3.org/2000/svg" xmlns:xlink="http://www.w3.org/1999/xlink">
<g id="graph0" class="graph" transform="scale(1 1) rotate(0) translate(4 287.5)">
<polygon fill="white" stroke="none" points="-4,4 -4,-287.5 277.55,-287.5 277.55,4 -4,4"/>
<g id="clust2" class="cluster">
<title>cluster_associated</title>
</g>
<!-- level 4 ADS -->
<g id="node1" class="node">
<title>level 4 ADS</title>
<polygon fill="lightgray" stroke="none" points="179.12,-184.38 179.12,-200.62 244.88,-200.62 244.88,-184.38 179.12,-184.38"/>
<text xml:space="preserve" text-anchor="start" x="180.12" y="-188.38" font-family="Arial" font-size="12.00">level 4 ADS</text>
<polygon fill="none" stroke="black" points="178.12,-183.38 178.12,-201.62 245.88,-201.62 245.88,-183.38 178.12,-183.38"/>
</g>
<!-- ads -->
<g id="node2" class="node">
<title>ads</title>
<g id="a_node2"><a xlink:href="../terms/ADS/" xlink:title="&lt;TABLE&gt;" target="_top">
<polygon fill="lightgray" stroke="none" points="198.25,-257.38 198.25,-273.62 225.75,-273.62 225.75,-257.38 198.25,-257.38"/>
<text xml:space="preserve" text-anchor="start" x="199.25" y="-261.38" font-family="Arial" font-size="12.00">ADS</text>
<polygon fill="none" stroke="black" points="197.25,-256.38 197.25,-274.62 226.75,-274.62 226.75,-256.38 197.25,-256.38"/>
</a>
</g>
</g>
<!-- level 4 ADS&#45;&gt;ads -->
<g id="edge1" class="edge">
<title>level 4 ADS&#45;&gt;ads</title>
<path fill="none" stroke="black" d="M212,-210.21C212,-217.97 212,-227.42 212,-236.24"/>
<polygon fill="none" stroke="black" points="208.5,-236.16 212,-246.16 215.5,-236.16 208.5,-236.16"/>
</g>
<!-- Invis -->
<!-- level 4 ADS&#45;&gt;Invis -->
<!-- fallback -->
<g id="node4" class="node">
<title>fallback</title>
<g id="a_node4"><a xlink:href="../terms/fallback/" xlink:title="&lt;TABLE&gt;" target="_top">
<polygon fill="lightgray" stroke="none" points="68.38,-98.88 68.38,-115.12 111.62,-115.12 111.62,-98.88 68.38,-98.88"/>
<text xml:space="preserve" text-anchor="start" x="69.38" y="-102.88" font-family="Arial" font-size="12.00">fallback</text>
<polygon fill="none" stroke="black" points="67.38,-97.88 67.38,-116.12 112.62,-116.12 112.62,-97.88 67.38,-97.88"/>
</a>
</g>
</g>
<!-- level 4 ADS&#45;&gt;fallback -->
<g id="edge5" class="edge">
<title>level 4 ADS&#45;&gt;fallback</title>
<path fill="none" stroke="black" d="M178.53,-176.25C177,-175.64 175.49,-175.06 174,-174.5 148.22,-164.86 135.85,-174.17 114.75,-156.5 107.97,-150.83 102.84,-142.83 99.06,-134.96"/>
<polygon fill="black" stroke="black" points="102.38,-133.82 95.3,-125.94 95.92,-136.51 102.38,-133.82"/>
<text xml:space="preserve" text-anchor="middle" x="156.38" y="-146.05" font-family="Arial" font-size="11.00"> provides its own </text>
</g>
<!-- operationalDesignDomain -->
<g id="node5" class="node">
<title>operationalDesignDomain</title>
<g id="a_node5"><a xlink:href="../terms/operational design domain/" xlink:title="&lt;TABLE&gt;" target="_top">
<polygon fill="lightgray" stroke="none" points="17.12,-25.88 17.12,-42.12 160.88,-42.12 160.88,-25.88 17.12,-25.88"/>
<text xml:space="preserve" text-anchor="start" x="18.12" y="-29.88" font-family="Arial" font-size="12.00">operational design domain</text>
<polygon fill="none" stroke="black" points="16.12,-24.88 16.12,-43.12 161.88,-43.12 161.88,-24.88 16.12,-24.88"/>
</a>
</g>
</g>
<!-- level 4 ADS&#45;&gt;operationalDesignDomain -->
<g id="edge6" class="edge">
<title>level 4 ADS&#45;&gt;operationalDesignDomain</title>
<path fill="none" stroke="black" d="M209.39,-174.94C207.33,-165.15 203.81,-152.8 198,-143 178.11,-109.48 145.35,-79 120.93,-59.03"/>
<polygon fill="black" stroke="black" points="123.2,-56.37 113.21,-52.85 118.83,-61.83 123.2,-56.37"/>
<text xml:space="preserve" text-anchor="middle" x="229.67" y="-103.3" font-family="Arial" font-size="11.00"> operates within a </text>
</g>
<!-- Invis&#45;&gt;fallback -->
<!-- fallback&#45;&gt;operationalDesignDomain -->
</g>
</svg>
