<?xml version="1.0" encoding="UTF-8" standalone="no"?>
<!DOCTYPE svg PUBLIC "-//W3C//DTD SVG 1.1//EN"
 "http://www.w3.org/Graphics/SVG/1.1/DTD/svg11.dtd">
<!-- Generated by graphviz version 14.0.2 (20251019.1705)
 -->
<!-- Pages: 1 -->
<svg width="322pt" height="305pt"
 viewBox="0.00 0.00 322.00 305.00" xmlns="http://www.w3.org/2000/svg" xmlns:xlink="http://www.w3.org/1999/xlink">
<g id="graph0" class="graph" transform="scale(1 1) rotate(0) translate(4 301)">
<polygon fill="white" stroke="none" points="-4,4 -4,-301 317.95,-301 317.95,4 -4,4"/>
<g id="clust2" class="cluster">
<title>cluster_associated</title>
</g>
<!-- level 3 ADS -->
<g id="node1" class="node">
<title>level 3 ADS</title>
<g id="a_node1"><a xlink:href="../classes/itsVocabulary__level 3 ADS.md" xlink:title="&lt;TABLE&gt;">
<polygon fill="lightgray" stroke="none" points="179.12,-197.88 179.12,-214.12 244.88,-214.12 244.88,-197.88 179.12,-197.88"/>
<text xml:space="preserve" text-anchor="start" x="180.12" y="-201.72" font-family="Arial" font-size="12.00">level 3 ADS</text>
<polygon fill="none" stroke="black" points="178.12,-196.88 178.12,-215.12 245.88,-215.12 245.88,-196.88 178.12,-196.88"/>
</a>
</g>
</g>
<!-- ads -->
<g id="node2" class="node">
<title>ads</title>
<g id="a_node2"><a xlink:href="../ADS/" xlink:title="&lt;TABLE&gt;" target="_top">
<polygon fill="lightgray" stroke="none" points="198.25,-270.88 198.25,-287.12 225.75,-287.12 225.75,-270.88 198.25,-270.88"/>
<text xml:space="preserve" text-anchor="start" x="199.25" y="-274.73" font-family="Arial" font-size="12.00">ADS</text>
<polygon fill="none" stroke="black" points="197.25,-269.88 197.25,-288.12 226.75,-288.12 226.75,-269.88 197.25,-269.88"/>
</a>
</g>
</g>
<!-- level 3 ADS&#45;&gt;ads -->
<g id="edge1" class="edge">
<title>level 3 ADS&#45;&gt;ads</title>
<path fill="none" stroke="black" d="M212,-223.71C212,-231.47 212,-240.92 212,-249.74"/>
<polygon fill="none" stroke="black" points="208.5,-249.66 212,-259.66 215.5,-249.66 208.5,-249.66"/>
</g>
<!-- Invis -->
<!-- level 3 ADS&#45;&gt;Invis -->
<!-- fallback&#45;readyUser -->
<g id="node4" class="node">
<title>fallback&#45;readyUser</title>
<g id="a_node4"><a xlink:href="../fallback-ready user/" xlink:title="&lt;TABLE&gt;" target="_top">
<polygon fill="lightgray" stroke="none" points="37.38,-98.88 37.38,-115.12 140.62,-115.12 140.62,-98.88 37.38,-98.88"/>
<text xml:space="preserve" text-anchor="start" x="38.38" y="-102.72" font-family="Arial" font-size="12.00">fallback&#45;ready user</text>
<polygon fill="none" stroke="black" points="36.38,-97.88 36.38,-116.12 141.62,-116.12 141.62,-97.88 36.38,-97.88"/>
</a>
</g>
</g>
<!-- level 3 ADS&#45;&gt;fallback&#45;readyUser -->
<g id="edge6" class="edge">
<title>level 3 ADS&#45;&gt;fallback&#45;readyUser</title>
<path fill="none" stroke="black" d="M178.14,-189.5C176.75,-188.98 175.37,-188.47 174,-188 142.93,-177.25 125.08,-193.65 102.25,-170 93.65,-161.09 90.05,-148.04 88.72,-136.21"/>
<polygon fill="black" stroke="black" points="92.23,-136.26 88.13,-126.49 85.24,-136.68 92.23,-136.26"/>
<text xml:space="preserve" text-anchor="middle" x="171.62" y="-159.55" font-family="Arial" font-size="11.00"> designedWithExpectationOf </text>
<text xml:space="preserve" text-anchor="middle" x="171.62" y="-146.05" font-family="Arial" font-size="11.00"> «some» &#160;</text>
</g>
<!-- operationalDesignDomain -->
<g id="node5" class="node">
<title>operationalDesignDomain</title>
<g id="a_node5"><a xlink:href="../operational design domain/" xlink:title="&lt;TABLE&gt;" target="_top">
<polygon fill="lightgray" stroke="none" points="17.12,-25.88 17.12,-42.12 160.88,-42.12 160.88,-25.88 17.12,-25.88"/>
<text xml:space="preserve" text-anchor="start" x="18.12" y="-29.73" font-family="Arial" font-size="12.00">operational design domain</text>
<polygon fill="none" stroke="black" points="16.12,-24.88 16.12,-43.12 161.88,-43.12 161.88,-24.88 16.12,-24.88"/>
</a>
</g>
</g>
<!-- level 3 ADS&#45;&gt;operationalDesignDomain -->
<g id="edge5" class="edge">
<title>level 3 ADS&#45;&gt;operationalDesignDomain</title>
<path fill="none" stroke="black" d="M230.03,-188C234.48,-182.71 238.65,-176.53 241,-170 245.07,-158.71 246.5,-153.66 241,-143 220.26,-102.81 176.88,-74.32 141.76,-56.73"/>
<polygon fill="black" stroke="black" points="143.52,-53.7 132.99,-52.5 140.47,-60 143.52,-53.7"/>
<text xml:space="preserve" text-anchor="middle" x="271.57" y="-110.05" font-family="Arial" font-size="11.00"> operatesWithinA </text>
<text xml:space="preserve" text-anchor="middle" x="271.57" y="-96.55" font-family="Arial" font-size="11.00"> «some» &#160;</text>
</g>
<!-- Invis&#45;&gt;fallback&#45;readyUser -->
<!-- fallback&#45;readyUser&#45;&gt;operationalDesignDomain -->
</g>
</svg>
