<?xml version="1.0" encoding="UTF-8" standalone="no"?>
<!DOCTYPE svg PUBLIC "-//W3C//DTD SVG 1.1//EN"
 "http://www.w3.org/Graphics/SVG/1.1/DTD/svg11.dtd">
<!-- Generated by graphviz version 14.1.3 (20260303.0454)
 -->
<!-- Pages: 1 -->
<svg width="326pt" height="219pt"
 viewBox="0.00 0.00 326.00 219.00" xmlns="http://www.w3.org/2000/svg" xmlns:xlink="http://www.w3.org/1999/xlink">
<g id="graph0" class="graph" transform="scale(1 1) rotate(0) translate(4 214.5)">
<polygon fill="white" stroke="none" points="-4,4 -4,-214.5 322.25,-214.5 322.25,4 -4,4"/>
<g id="clust2" class="cluster">
<title>cluster_associated</title>
</g>
<!-- level 1 driving automation -->
<g id="node1" class="node">
<title>level 1 driving automation</title>
<polygon fill="lightgray" stroke="none" points="178.75,-111.38 178.75,-127.62 317.25,-127.62 317.25,-111.38 178.75,-111.38"/>
<text xml:space="preserve" text-anchor="start" x="179.75" y="-115.38" font-family="Arial" font-size="12.00">level 1 driving automation</text>
<polygon fill="none" stroke="black" points="177.75,-110.38 177.75,-128.62 318.25,-128.62 318.25,-110.38 177.75,-110.38"/>
</g>
<!-- driverSupportSystem -->
<g id="node2" class="node">
<title>driverSupportSystem</title>
<g id="a_node2"><a xlink:href="../terms/driver support system/" xlink:title="&lt;TABLE&gt;" target="_top">
<polygon fill="lightgray" stroke="none" points="190.38,-184.38 190.38,-200.62 305.62,-200.62 305.62,-184.38 190.38,-184.38"/>
<text xml:space="preserve" text-anchor="start" x="191.38" y="-188.38" font-family="Arial" font-size="12.00">driver support system</text>
<polygon fill="none" stroke="black" points="189.38,-183.38 189.38,-201.62 306.62,-201.62 306.62,-183.38 189.38,-183.38"/>
</a>
</g>
</g>
<!-- level 1 driving automation&#45;&gt;driverSupportSystem -->
<g id="edge1" class="edge">
<title>level 1 driving automation&#45;&gt;driverSupportSystem</title>
<path fill="none" stroke="black" d="M248,-137.21C248,-144.97 248,-154.42 248,-163.24"/>
<polygon fill="none" stroke="black" points="244.5,-163.16 248,-173.16 251.5,-163.16 244.5,-163.16"/>
</g>
<!-- Invis -->
<!-- level 1 driving automation&#45;&gt;Invis -->
<!-- operationalDesignDomain -->
<g id="node4" class="node">
<title>operationalDesignDomain</title>
<g id="a_node4"><a xlink:href="../terms/operational design domain/" xlink:title="&lt;TABLE&gt;" target="_top">
<polygon fill="lightgray" stroke="none" points="17.12,-25.88 17.12,-42.12 160.88,-42.12 160.88,-25.88 17.12,-25.88"/>
<text xml:space="preserve" text-anchor="start" x="18.12" y="-29.88" font-family="Arial" font-size="12.00">operational design domain</text>
<polygon fill="none" stroke="black" points="16.12,-24.88 16.12,-43.12 161.88,-43.12 161.88,-24.88 16.12,-24.88"/>
</a>
</g>
</g>
<!-- level 1 driving automation&#45;&gt;operationalDesignDomain -->
<g id="edge4" class="edge">
<title>level 1 driving automation&#45;&gt;operationalDesignDomain</title>
<path fill="none" stroke="black" d="M215.82,-101.6C191.47,-88.81 157.8,-71.13 131.28,-57.2"/>
<polygon fill="black" stroke="black" points="132.95,-54.13 122.47,-52.58 129.69,-60.32 132.95,-54.13"/>
<text xml:space="preserve" text-anchor="middle" x="221.89" y="-73.05" font-family="Arial" font-size="11.00"> operates within a </text>
</g>
<!-- Invis&#45;&gt;operationalDesignDomain -->
</g>
</svg>
