<?xml version="1.0" encoding="UTF-8" standalone="no"?>
<!DOCTYPE svg PUBLIC "-//W3C//DTD SVG 1.1//EN"
 "http://www.w3.org/Graphics/SVG/1.1/DTD/svg11.dtd">
<!-- Generated by graphviz version 14.0.2 (20251019.1705)
 -->
<!-- Pages: 1 -->
<svg width="168pt" height="175pt"
 viewBox="0.00 0.00 168.00 175.00" xmlns="http://www.w3.org/2000/svg" xmlns:xlink="http://www.w3.org/1999/xlink">
<g id="graph0" class="graph" transform="scale(1 1) rotate(0) translate(4 171)">
<polygon fill="white" stroke="none" points="-4,4 -4,-171 164,-171 164,4 -4,4"/>
<g id="clust2" class="cluster">
<title>cluster_associated</title>
</g>
<!-- link -->
<g id="node1" class="node">
<title>link</title>
<g id="a_node1"><a xlink:href="../classes/itsVocabulary__link.md" xlink:title="&lt;TABLE&gt;">
<polygon fill="lightgray" stroke="none" points="16.62,-124.88 16.62,-141.12 37.38,-141.12 37.38,-124.88 16.62,-124.88"/>
<text xml:space="preserve" text-anchor="start" x="17.62" y="-128.72" font-family="Arial" font-size="12.00">link</text>
<polygon fill="none" stroke="black" points="15.62,-123.88 15.62,-142.12 38.38,-142.12 38.38,-123.88 15.62,-123.88"/>
</a>
</g>
</g>
<!-- Invis -->
<!-- link&#45;&gt;Invis -->
<!-- instant -->
<g id="node3" class="node">
<title>instant</title>
<g id="a_node3"><a xlink:href="../instant/" xlink:title="&lt;TABLE&gt;" target="_top">
<polygon fill="lightgray" stroke="none" points="98.38,-25.88 98.38,-42.12 135.62,-42.12 135.62,-25.88 98.38,-25.88"/>
<text xml:space="preserve" text-anchor="start" x="99.38" y="-29.73" font-family="Arial" font-size="12.00">instant</text>
<polygon fill="none" stroke="black" points="97.38,-24.88 97.38,-43.12 136.62,-43.12 136.62,-24.88 97.38,-24.88"/>
</a>
</g>
</g>
<!-- link&#45;&gt;instant -->
<g id="edge3" class="edge">
<title>link&#45;&gt;instant</title>
<path fill="none" stroke="black" d="M29.83,-115.01C32.83,-101.48 38.77,-82.75 50,-70 58.09,-60.82 69.17,-53.69 79.99,-48.33"/>
<polygon fill="black" stroke="black" points="81.13,-51.65 88.8,-44.34 78.25,-45.27 81.13,-51.65"/>
<text xml:space="preserve" text-anchor="middle" x="81.5" y="-86.55" font-family="Arial" font-size="11.00"> connects </text>
<text xml:space="preserve" text-anchor="middle" x="81.5" y="-73.05" font-family="Arial" font-size="11.00"> «exactly 2» &#160;</text>
</g>
<!-- Invis&#45;&gt;instant -->
</g>
</svg>
