<?xml version="1.0" encoding="UTF-8" standalone="no"?>
<!DOCTYPE svg PUBLIC "-//W3C//DTD SVG 1.1//EN"
 "http://www.w3.org/Graphics/SVG/1.1/DTD/svg11.dtd">
<!-- Generated by graphviz version 14.0.2 (20251019.1705)
 -->
<!-- Pages: 1 -->
<svg width="184pt" height="175pt"
 viewBox="0.00 0.00 184.00 175.00" xmlns="http://www.w3.org/2000/svg" xmlns:xlink="http://www.w3.org/1999/xlink">
<g id="graph0" class="graph" transform="scale(1 1) rotate(0) translate(4 171)">
<polygon fill="white" stroke="none" points="-4,4 -4,-171 180.38,-171 180.38,4 -4,4"/>
<g id="clust2" class="cluster">
<title>cluster_associated</title>
</g>
<!-- loading area -->
<g id="node1" class="node">
<title>loading area</title>
<g id="a_node1"><a xlink:href="../classes/itsVocabulary__loading area.md" xlink:title="&lt;TABLE&gt;">
<polygon fill="lightgray" stroke="none" points="1,-124.88 1,-141.12 69.75,-141.12 69.75,-124.88 1,-124.88"/>
<text xml:space="preserve" text-anchor="start" x="2" y="-128.72" font-family="Arial" font-size="12.00">loading area</text>
<polygon fill="none" stroke="black" points="0,-123.88 0,-142.12 70.75,-142.12 70.75,-123.88 0,-123.88"/>
</a>
</g>
</g>
<!-- Invis -->
<!-- loading area&#45;&gt;Invis -->
<!-- vehicles -->
<g id="node3" class="node">
<title>vehicles</title>
<polygon fill="lightgray" stroke="none" points="110.25,-25.88 110.25,-42.12 156.5,-42.12 156.5,-25.88 110.25,-25.88"/>
<text xml:space="preserve" text-anchor="start" x="111.25" y="-29.73" font-family="Arial" font-size="12.00">vehicles</text>
<polygon fill="none" stroke="black" points="109.25,-24.88 109.25,-43.12 157.5,-43.12 157.5,-24.88 109.25,-24.88"/>
</g>
<!-- loading area&#45;&gt;vehicles -->
<g id="edge3" class="edge">
<title>loading area&#45;&gt;vehicles</title>
<path fill="none" stroke="black" d="M37.2,-115.14C39.48,-101.5 44.57,-82.55 55.88,-70 66.5,-58.2 81.88,-50.13 96.15,-44.75"/>
<polygon fill="black" stroke="black" points="96.97,-48.17 105.31,-41.63 94.71,-41.54 96.97,-48.17"/>
<text xml:space="preserve" text-anchor="middle" x="92.62" y="-86.55" font-family="Arial" font-size="11.00"> forDesignated </text>
<text xml:space="preserve" text-anchor="middle" x="92.62" y="-73.05" font-family="Arial" font-size="11.00"> «some» &#160;</text>
</g>
<!-- Invis&#45;&gt;vehicles -->
</g>
</svg>
