<?xml version="1.0" encoding="UTF-8" standalone="no"?>
<!DOCTYPE svg PUBLIC "-//W3C//DTD SVG 1.1//EN"
 "http://www.w3.org/Graphics/SVG/1.1/DTD/svg11.dtd">
<!-- Generated by graphviz version 14.0.2 (20251019.1705)
 -->
<!-- Pages: 1 -->
<svg width="196pt" height="132pt"
 viewBox="0.00 0.00 196.00 132.00" xmlns="http://www.w3.org/2000/svg" xmlns:xlink="http://www.w3.org/1999/xlink">
<g id="graph0" class="graph" transform="scale(1 1) rotate(0) translate(4 128)">
<polygon fill="white" stroke="none" points="-4,4 -4,-128 192.38,-128 192.38,4 -4,4"/>
<g id="clust2" class="cluster">
<title>cluster_associated</title>
</g>
<!-- low&#45;speed vehicle -->
<g id="node1" class="node">
<title>low&#45;speed vehicle</title>
<g id="a_node1"><a xlink:href="../classes/itsVocabulary__low-speed vehicle.md" xlink:title="&lt;TABLE&gt;">
<polygon fill="lightgray" stroke="none" points="1,-25.88 1,-42.12 99.75,-42.12 99.75,-25.88 1,-25.88"/>
<text xml:space="preserve" text-anchor="start" x="2" y="-29.73" font-family="Arial" font-size="12.00">low&#45;speed vehicle</text>
<polygon fill="none" stroke="black" points="0,-24.88 0,-43.12 100.75,-43.12 100.75,-24.88 0,-24.88"/>
</a>
</g>
</g>
<!-- vehicle -->
<g id="node2" class="node">
<title>vehicle</title>
<g id="a_node2"><a xlink:href="../vehicle/" xlink:title="&lt;TABLE&gt;" target="_top">
<polygon fill="lightgray" stroke="none" points="30.25,-97.88 30.25,-114.12 70.5,-114.12 70.5,-97.88 30.25,-97.88"/>
<text xml:space="preserve" text-anchor="start" x="31.25" y="-101.72" font-family="Arial" font-size="12.00">vehicle</text>
<polygon fill="none" stroke="black" points="29.25,-96.88 29.25,-115.12 71.5,-115.12 71.5,-96.88 29.25,-96.88"/>
</a>
</g>
</g>
<!-- low&#45;speed vehicle&#45;&gt;vehicle -->
<g id="edge1" class="edge">
<title>low&#45;speed vehicle&#45;&gt;vehicle</title>
<path fill="none" stroke="black" d="M50.38,-51.79C50.38,-59.25 50.38,-68.24 50.38,-76.69"/>
<polygon fill="none" stroke="black" points="46.88,-76.54 50.38,-86.54 53.88,-76.54 46.88,-76.54"/>
</g>
<!-- Invis -->
</g>
</svg>
