<?xml version="1.0" encoding="UTF-8" standalone="no"?>
<!DOCTYPE svg PUBLIC "-//W3C//DTD SVG 1.1//EN"
 "http://www.w3.org/Graphics/SVG/1.1/DTD/svg11.dtd">
<!-- Generated by graphviz version 14.0.2 (20251019.1705)
 -->
<!-- Pages: 1 -->
<svg width="412pt" height="132pt"
 viewBox="0.00 0.00 412.00 132.00" xmlns="http://www.w3.org/2000/svg" xmlns:xlink="http://www.w3.org/1999/xlink">
<g id="graph0" class="graph" transform="scale(1 1) rotate(0) translate(4 128)">
<polygon fill="white" stroke="none" points="-4,4 -4,-128 408,-128 408,4 -4,4"/>
<g id="clust2" class="cluster">
<title>cluster_associated</title>
</g>
<!-- maintenance and construction central management system -->
<g id="node1" class="node">
<title>maintenance and construction central management system</title>
<g id="a_node1"><a xlink:href="../classes/itsVocabulary__maintenance and construction central management system.md" xlink:title="&lt;TABLE&gt;">
<polygon fill="lightgray" stroke="none" points="1,-25.88 1,-42.12 315,-42.12 315,-25.88 1,-25.88"/>
<text xml:space="preserve" text-anchor="start" x="2" y="-29.73" font-family="Arial" font-size="12.00">maintenance and construction central management system</text>
<polygon fill="none" stroke="black" points="0,-24.88 0,-43.12 316,-43.12 316,-24.88 0,-24.88"/>
</a>
</g>
</g>
<!-- centralSystem -->
<g id="node2" class="node">
<title>centralSystem</title>
<g id="a_node2"><a xlink:href="../central system/" xlink:title="&lt;TABLE&gt;" target="_top">
<polygon fill="lightgray" stroke="none" points="118.75,-97.88 118.75,-114.12 197.25,-114.12 197.25,-97.88 118.75,-97.88"/>
<text xml:space="preserve" text-anchor="start" x="119.75" y="-101.72" font-family="Arial" font-size="12.00">central system</text>
<polygon fill="none" stroke="black" points="117.75,-96.88 117.75,-115.12 198.25,-115.12 198.25,-96.88 117.75,-96.88"/>
</a>
</g>
</g>
<!-- maintenance and construction central management system&#45;&gt;centralSystem -->
<g id="edge1" class="edge">
<title>maintenance and construction central management system&#45;&gt;centralSystem</title>
<path fill="none" stroke="black" d="M158,-51.79C158,-59.25 158,-68.24 158,-76.69"/>
<polygon fill="none" stroke="black" points="154.5,-76.54 158,-86.54 161.5,-76.54 154.5,-76.54"/>
</g>
<!-- Invis -->
</g>
</svg>
