<?xml version="1.0" encoding="UTF-8" standalone="no"?>
<!DOCTYPE svg PUBLIC "-//W3C//DTD SVG 1.1//EN"
 "http://www.w3.org/Graphics/SVG/1.1/DTD/svg11.dtd">
<!-- Generated by graphviz version 14.1.3 (20260303.0454)
 -->
<!-- Pages: 1 -->
<svg width="194pt" height="162pt"
 viewBox="0.00 0.00 194.00 162.00" xmlns="http://www.w3.org/2000/svg" xmlns:xlink="http://www.w3.org/1999/xlink">
<g id="graph0" class="graph" transform="scale(1 1) rotate(0) translate(4 157.5)">
<polygon fill="white" stroke="none" points="-4,4 -4,-157.5 190.38,-157.5 190.38,4 -4,4"/>
<g id="clust2" class="cluster">
<title>cluster_associated</title>
</g>
<!-- meta&#45;attribute -->
<g id="node1" class="node">
<title>meta&#45;attribute</title>
<g id="a_node1"><a xlink:href="../terms/meta-attribute/" xlink:title="&lt;TABLE&gt;">
<polygon fill="lightgray" stroke="none" points="1,-111.38 1,-127.62 75.75,-127.62 75.75,-111.38 1,-111.38"/>
<text xml:space="preserve" text-anchor="start" x="2" y="-115.38" font-family="Arial" font-size="12.00">meta&#45;attribute</text>
<polygon fill="none" stroke="black" points="0,-110.38 0,-128.62 76.75,-128.62 76.75,-110.38 0,-110.38"/>
</a>
</g>
</g>
<!-- Invis -->
<!-- meta&#45;attribute&#45;&gt;Invis -->
<!-- dataConcept -->
<g id="node3" class="node">
<title>dataConcept</title>
<g id="a_node3"><a xlink:href="../terms/data concept/" xlink:title="&lt;TABLE&gt;" target="_top">
<polygon fill="lightgray" stroke="none" points="99.25,-25.88 99.25,-42.12 169.5,-42.12 169.5,-25.88 99.25,-25.88"/>
<text xml:space="preserve" text-anchor="start" x="100.25" y="-29.88" font-family="Arial" font-size="12.00">data concept</text>
<polygon fill="none" stroke="black" points="98.25,-24.88 98.25,-43.12 170.5,-43.12 170.5,-24.88 98.25,-24.88"/>
</a>
</g>
</g>
<!-- meta&#45;attribute&#45;&gt;dataConcept -->
<g id="edge3" class="edge">
<title>meta&#45;attribute&#45;&gt;dataConcept</title>
<path fill="none" stroke="black" d="M39.19,-101.95C40.5,-91.68 43.7,-78.81 51.38,-70 60.94,-59.02 74.53,-51.4 87.95,-46.14"/>
<polygon fill="black" stroke="black" points="88.88,-49.53 97.16,-42.92 86.57,-42.92 88.88,-49.53"/>
<text xml:space="preserve" text-anchor="middle" x="91.88" y="-73.05" font-family="Arial" font-size="11.00"> characteristic of </text>
</g>
<!-- Invis&#45;&gt;dataConcept -->
</g>
</svg>
