<?xml version="1.0" encoding="UTF-8" standalone="no"?>
<!DOCTYPE svg PUBLIC "-//W3C//DTD SVG 1.1//EN"
 "http://www.w3.org/Graphics/SVG/1.1/DTD/svg11.dtd">
<!-- Generated by graphviz version 14.0.2 (20251019.1705)
 -->
<!-- Pages: 1 -->
<svg width="152pt" height="132pt"
 viewBox="0.00 0.00 152.00 132.00" xmlns="http://www.w3.org/2000/svg" xmlns:xlink="http://www.w3.org/1999/xlink">
<g id="graph0" class="graph" transform="scale(1 1) rotate(0) translate(4 128)">
<polygon fill="white" stroke="none" points="-4,4 -4,-128 147.88,-128 147.88,4 -4,4"/>
<g id="clust2" class="cluster">
<title>cluster_associated</title>
</g>
<!-- motorway -->
<g id="node1" class="node">
<title>motorway</title>
<g id="a_node1"><a xlink:href="../classes/itsVocabulary__motorway.md" xlink:title="&lt;TABLE&gt;">
<polygon fill="lightgray" stroke="none" points="1,-25.88 1,-42.12 54.75,-42.12 54.75,-25.88 1,-25.88"/>
<text xml:space="preserve" text-anchor="start" x="2" y="-29.73" font-family="Arial" font-size="12.00">motorway</text>
<polygon fill="none" stroke="black" points="0,-24.88 0,-43.12 55.75,-43.12 55.75,-24.88 0,-24.88"/>
</a>
</g>
</g>
<!-- road -->
<g id="node2" class="node">
<title>road</title>
<g id="a_node2"><a xlink:href="../road/" xlink:title="&lt;TABLE&gt;" target="_top">
<polygon fill="lightgray" stroke="none" points="14.88,-97.88 14.88,-114.12 40.88,-114.12 40.88,-97.88 14.88,-97.88"/>
<text xml:space="preserve" text-anchor="start" x="15.88" y="-101.72" font-family="Arial" font-size="12.00">road</text>
<polygon fill="none" stroke="black" points="13.88,-96.88 13.88,-115.12 41.88,-115.12 41.88,-96.88 13.88,-96.88"/>
</a>
</g>
</g>
<!-- motorway&#45;&gt;road -->
<g id="edge1" class="edge">
<title>motorway&#45;&gt;road</title>
<path fill="none" stroke="black" d="M27.88,-51.79C27.88,-59.25 27.88,-68.24 27.88,-76.69"/>
<polygon fill="none" stroke="black" points="24.38,-76.54 27.88,-86.54 31.38,-76.54 24.38,-76.54"/>
</g>
<!-- Invis -->
</g>
</svg>
