<?xml version="1.0" encoding="UTF-8" standalone="no"?>
<!DOCTYPE svg PUBLIC "-//W3C//DTD SVG 1.1//EN"
 "http://www.w3.org/Graphics/SVG/1.1/DTD/svg11.dtd">
<!-- Generated by graphviz version 14.0.2 (20251019.1705)
 -->
<!-- Pages: 1 -->
<svg width="270pt" height="132pt"
 viewBox="0.00 0.00 270.00 132.00" xmlns="http://www.w3.org/2000/svg" xmlns:xlink="http://www.w3.org/1999/xlink">
<g id="graph0" class="graph" transform="scale(1 1) rotate(0) translate(4 128)">
<polygon fill="white" stroke="none" points="-4,4 -4,-128 266.12,-128 266.12,4 -4,4"/>
<g id="clust2" class="cluster">
<title>cluster_associated</title>
</g>
<!-- parking space for permit holders -->
<g id="node1" class="node">
<title>parking space for permit holders</title>
<g id="a_node1"><a xlink:href="../classes/itsVocabulary__parking space for permit holders.md" xlink:title="&lt;TABLE&gt;">
<polygon fill="lightgray" stroke="none" points="1,-25.88 1,-42.12 173.25,-42.12 173.25,-25.88 1,-25.88"/>
<text xml:space="preserve" text-anchor="start" x="2" y="-29.73" font-family="Arial" font-size="12.00">parking space for permit holders</text>
<polygon fill="none" stroke="black" points="0,-24.88 0,-43.12 174.25,-43.12 174.25,-24.88 0,-24.88"/>
</a>
</g>
</g>
<!-- designatedParkingSpace -->
<g id="node2" class="node">
<title>designatedParkingSpace</title>
<g id="a_node2"><a xlink:href="../designated parking space/" xlink:title="&lt;TABLE&gt;" target="_top">
<polygon fill="lightgray" stroke="none" points="17.5,-97.88 17.5,-114.12 156.75,-114.12 156.75,-97.88 17.5,-97.88"/>
<text xml:space="preserve" text-anchor="start" x="18.5" y="-101.72" font-family="Arial" font-size="12.00">designated parking space</text>
<polygon fill="none" stroke="black" points="16.5,-96.88 16.5,-115.12 157.75,-115.12 157.75,-96.88 16.5,-96.88"/>
</a>
</g>
</g>
<!-- parking space for permit holders&#45;&gt;designatedParkingSpace -->
<g id="edge1" class="edge">
<title>parking space for permit holders&#45;&gt;designatedParkingSpace</title>
<path fill="none" stroke="black" d="M87.12,-51.79C87.12,-59.25 87.12,-68.24 87.12,-76.69"/>
<polygon fill="none" stroke="black" points="83.63,-76.54 87.13,-86.54 90.63,-76.54 83.63,-76.54"/>
</g>
<!-- Invis -->
</g>
</svg>
