<?xml version="1.0" encoding="UTF-8" standalone="no"?>
<!DOCTYPE svg PUBLIC "-//W3C//DTD SVG 1.1//EN"
 "http://www.w3.org/Graphics/SVG/1.1/DTD/svg11.dtd">
<!-- Generated by graphviz version 14.0.2 (20251019.1705)
 -->
<!-- Pages: 1 -->
<svg width="231pt" height="232pt"
 viewBox="0.00 0.00 231.00 232.00" xmlns="http://www.w3.org/2000/svg" xmlns:xlink="http://www.w3.org/1999/xlink">
<g id="graph0" class="graph" transform="scale(1 1) rotate(0) translate(4 228)">
<polygon fill="white" stroke="none" points="-4,4 -4,-228 227.12,-228 227.12,4 -4,4"/>
<g id="clust2" class="cluster">
<title>cluster_associated</title>
</g>
<!-- physical viewpoint -->
<g id="node1" class="node">
<title>physical viewpoint</title>
<g id="a_node1"><a xlink:href="../classes/itsVocabulary__physical viewpoint.md" xlink:title="&lt;TABLE&gt;">
<polygon fill="lightgray" stroke="none" points="112.88,-124.88 112.88,-141.12 213.12,-141.12 213.12,-124.88 112.88,-124.88"/>
<text xml:space="preserve" text-anchor="start" x="113.88" y="-128.72" font-family="Arial" font-size="12.00">physical viewpoint</text>
<polygon fill="none" stroke="black" points="111.88,-123.88 111.88,-142.12 214.12,-142.12 214.12,-123.88 111.88,-123.88"/>
</a>
</g>
</g>
<!-- architectureViewpoint -->
<g id="node2" class="node">
<title>architectureViewpoint</title>
<g id="a_node2"><a xlink:href="../architecture viewpoint/" xlink:title="&lt;TABLE&gt;" target="_top">
<polygon fill="lightgray" stroke="none" points="103.88,-197.88 103.88,-214.12 222.12,-214.12 222.12,-197.88 103.88,-197.88"/>
<text xml:space="preserve" text-anchor="start" x="104.88" y="-201.72" font-family="Arial" font-size="12.00">architecture viewpoint</text>
<polygon fill="none" stroke="black" points="102.88,-196.88 102.88,-215.12 223.12,-215.12 223.12,-196.88 102.88,-196.88"/>
</a>
</g>
</g>
<!-- physical viewpoint&#45;&gt;architectureViewpoint -->
<g id="edge1" class="edge">
<title>physical viewpoint&#45;&gt;architectureViewpoint</title>
<path fill="none" stroke="black" d="M163,-150.71C163,-158.47 163,-167.92 163,-176.74"/>
<polygon fill="none" stroke="black" points="159.5,-176.66 163,-186.66 166.5,-176.66 159.5,-176.66"/>
</g>
<!-- Invis -->
<!-- physical viewpoint&#45;&gt;Invis -->
<!-- physicalView -->
<g id="node4" class="node">
<title>physicalView</title>
<g id="a_node4"><a xlink:href="../physical view/" xlink:title="&lt;TABLE&gt;" target="_top">
<polygon fill="lightgray" stroke="none" points="17,-25.88 17,-42.12 91,-42.12 91,-25.88 17,-25.88"/>
<text xml:space="preserve" text-anchor="start" x="18" y="-29.73" font-family="Arial" font-size="12.00">physical view</text>
<polygon fill="none" stroke="black" points="16,-24.88 16,-43.12 92,-43.12 92,-24.88 16,-24.88"/>
</a>
</g>
</g>
<!-- physical viewpoint&#45;&gt;physicalView -->
<g id="edge4" class="edge">
<title>physical viewpoint&#45;&gt;physicalView</title>
<path fill="none" stroke="black" d="M144.01,-115.1C126.66,-99.66 100.81,-76.66 81.26,-59.26"/>
<polygon fill="black" stroke="black" points="83.7,-56.74 73.9,-52.71 79.04,-61.97 83.7,-56.74"/>
<text xml:space="preserve" text-anchor="middle" x="145.09" y="-86.55" font-family="Arial" font-size="11.00"> governs </text>
<text xml:space="preserve" text-anchor="middle" x="145.09" y="-73.05" font-family="Arial" font-size="11.00"> «some» &#160;</text>
</g>
<!-- Invis&#45;&gt;physicalView -->
</g>
</svg>
