<?xml version="1.0" encoding="UTF-8" standalone="no"?>
<!DOCTYPE svg PUBLIC "-//W3C//DTD SVG 1.1//EN"
 "http://www.w3.org/Graphics/SVG/1.1/DTD/svg11.dtd">
<!-- Generated by graphviz version 14.0.2 (20251019.1705)
 -->
<!-- Pages: 1 -->
<svg width="267pt" height="404pt"
 viewBox="0.00 0.00 267.00 404.00" xmlns="http://www.w3.org/2000/svg" xmlns:xlink="http://www.w3.org/1999/xlink">
<g id="graph0" class="graph" transform="scale(1 1) rotate(0) translate(4 400)">
<polygon fill="white" stroke="none" points="-4,4 -4,-400 262.63,-400 262.63,4 -4,4"/>
<g id="clust2" class="cluster">
<title>cluster_associated</title>
</g>
<!-- physical view -->
<g id="node1" class="node">
<title>physical view</title>
<g id="a_node1"><a xlink:href="../classes/itsVocabulary__physical view.md" xlink:title="&lt;TABLE&gt;">
<polygon fill="lightgray" stroke="none" points="139,-296.88 139,-313.12 213,-313.12 213,-296.88 139,-296.88"/>
<text xml:space="preserve" text-anchor="start" x="140" y="-300.73" font-family="Arial" font-size="12.00">physical view</text>
<polygon fill="none" stroke="black" points="138,-295.88 138,-314.12 214,-314.12 214,-295.88 138,-295.88"/>
</a>
</g>
</g>
<!-- architectureView -->
<g id="node2" class="node">
<title>architectureView</title>
<g id="a_node2"><a xlink:href="../architecture view/" xlink:title="&lt;TABLE&gt;" target="_top">
<polygon fill="lightgray" stroke="none" points="130,-369.88 130,-386.12 222,-386.12 222,-369.88 130,-369.88"/>
<text xml:space="preserve" text-anchor="start" x="131" y="-373.73" font-family="Arial" font-size="12.00">architecture view</text>
<polygon fill="none" stroke="black" points="129,-368.88 129,-387.12 223,-387.12 223,-368.88 129,-368.88"/>
</a>
</g>
</g>
<!-- physical view&#45;&gt;architectureView -->
<g id="edge1" class="edge">
<title>physical view&#45;&gt;architectureView</title>
<path fill="none" stroke="black" d="M176,-322.71C176,-330.47 176,-339.92 176,-348.74"/>
<polygon fill="none" stroke="black" points="172.5,-348.66 176,-358.66 179.5,-348.66 172.5,-348.66"/>
</g>
<!-- Invis -->
<!-- physical view&#45;&gt;Invis -->
<!-- functionalObject -->
<g id="node4" class="node">
<title>functionalObject</title>
<g id="a_node4"><a xlink:href="../functional object/" xlink:title="&lt;TABLE&gt;" target="_top">
<polygon fill="lightgray" stroke="none" points="24.5,-197.88 24.5,-214.12 113.5,-214.12 113.5,-197.88 24.5,-197.88"/>
<text xml:space="preserve" text-anchor="start" x="25.5" y="-201.72" font-family="Arial" font-size="12.00">functional object</text>
<polygon fill="none" stroke="black" points="23.5,-196.88 23.5,-215.12 114.5,-215.12 114.5,-196.88 23.5,-196.88"/>
</a>
</g>
</g>
<!-- physical view&#45;&gt;functionalObject -->
<g id="edge8" class="edge">
<title>physical view&#45;&gt;functionalObject</title>
<path fill="none" stroke="black" d="M138.02,-288.56C136.66,-288.03 135.32,-287.51 134,-287 112.36,-278.65 100.57,-286.2 85,-269 76.61,-259.73 72.5,-246.63 70.53,-234.86"/>
<polygon fill="black" stroke="black" points="74.05,-234.74 69.38,-225.23 67.1,-235.58 74.05,-234.74"/>
<text xml:space="preserve" text-anchor="middle" x="115" y="-258.55" font-family="Arial" font-size="11.00"> aggregates </text>
<text xml:space="preserve" text-anchor="middle" x="115" y="-245.05" font-family="Arial" font-size="11.00"> «some» &#160;</text>
</g>
<!-- informationTransfer -->
<g id="node5" class="node">
<title>informationTransfer</title>
<g id="a_node5"><a xlink:href="../information transfer/" xlink:title="&lt;TABLE&gt;" target="_top">
<polygon fill="lightgray" stroke="none" points="17,-98.88 17,-115.12 121,-115.12 121,-98.88 17,-98.88"/>
<text xml:space="preserve" text-anchor="start" x="18" y="-102.72" font-family="Arial" font-size="12.00">information transfer</text>
<polygon fill="none" stroke="black" points="16,-97.88 16,-116.12 122,-116.12 122,-97.88 16,-97.88"/>
</a>
</g>
</g>
<!-- physical view&#45;&gt;informationTransfer -->
<g id="edge7" class="edge">
<title>physical view&#45;&gt;informationTransfer</title>
<path fill="none" stroke="black" d="M169.51,-287.02C160.47,-263.99 143.02,-221.86 124,-188 113.4,-169.14 99.61,-149.08 88.48,-133.76"/>
<polygon fill="black" stroke="black" points="91.6,-132.09 82.85,-126.11 85.96,-136.24 91.6,-132.09"/>
<text xml:space="preserve" text-anchor="middle" x="171.72" y="-209.05" font-family="Arial" font-size="11.00"> aggregates </text>
<text xml:space="preserve" text-anchor="middle" x="171.72" y="-195.55" font-family="Arial" font-size="11.00"> «some» &#160;</text>
</g>
<!-- physicalObject -->
<g id="node6" class="node">
<title>physicalObject</title>
<g id="a_node6"><a xlink:href="../physical object/" xlink:title="&lt;TABLE&gt;" target="_top">
<polygon fill="lightgray" stroke="none" points="34.25,-25.88 34.25,-42.12 115.75,-42.12 115.75,-25.88 34.25,-25.88"/>
<text xml:space="preserve" text-anchor="start" x="35.25" y="-29.73" font-family="Arial" font-size="12.00">physical object</text>
<polygon fill="none" stroke="black" points="33.25,-24.88 33.25,-43.12 116.75,-43.12 116.75,-24.88 33.25,-24.88"/>
</a>
</g>
</g>
<!-- physical view&#45;&gt;physicalObject -->
<g id="edge6" class="edge">
<title>physical view&#45;&gt;physicalObject</title>
<path fill="none" stroke="black" d="M186.37,-287.26C199.11,-264.52 217.66,-222.7 206,-188 187.73,-133.61 139.06,-86.09 106.47,-58.98"/>
<polygon fill="black" stroke="black" points="108.89,-56.43 98.92,-52.84 104.47,-61.86 108.89,-56.43"/>
<text xml:space="preserve" text-anchor="middle" x="228.63" y="-159.55" font-family="Arial" font-size="11.00"> aggregates </text>
<text xml:space="preserve" text-anchor="middle" x="228.63" y="-146.05" font-family="Arial" font-size="11.00"> «some» &#160;</text>
</g>
<!-- Invis&#45;&gt;functionalObject -->
<!-- functionalObject&#45;&gt;informationTransfer -->
<!-- informationTransfer&#45;&gt;physicalObject -->
</g>
</svg>
