<?xml version="1.0" encoding="UTF-8" standalone="no"?>
<!DOCTYPE svg PUBLIC "-//W3C//DTD SVG 1.1//EN"
 "http://www.w3.org/Graphics/SVG/1.1/DTD/svg11.dtd">
<!-- Generated by graphviz version 14.0.2 (20251019.1705)
 -->
<!-- Pages: 1 -->
<svg width="201pt" height="132pt"
 viewBox="0.00 0.00 201.00 132.00" xmlns="http://www.w3.org/2000/svg" xmlns:xlink="http://www.w3.org/1999/xlink">
<g id="graph0" class="graph" transform="scale(1 1) rotate(0) translate(4 128)">
<polygon fill="white" stroke="none" points="-4,4 -4,-128 197,-128 197,4 -4,4"/>
<g id="clust2" class="cluster">
<title>cluster_associated</title>
</g>
<!-- physical object -->
<g id="node1" class="node">
<title>physical object</title>
<g id="a_node1"><a xlink:href="../classes/itsVocabulary__physical object.md" xlink:title="&lt;TABLE&gt;">
<polygon fill="lightgray" stroke="none" points="22.25,-25.88 22.25,-42.12 103.75,-42.12 103.75,-25.88 22.25,-25.88"/>
<text xml:space="preserve" text-anchor="start" x="23.25" y="-29.73" font-family="Arial" font-size="12.00">physical object</text>
<polygon fill="none" stroke="black" points="21.25,-24.88 21.25,-43.12 104.75,-43.12 104.75,-24.88 21.25,-24.88"/>
</a>
</g>
</g>
<!-- resource -->
<g id="node2" class="node">
<title>resource</title>
<g id="a_node2"><a xlink:href="../resource/" xlink:title="&lt;TABLE&gt;" target="_top">
<polygon fill="lightgray" stroke="none" points="2.75,-97.88 2.75,-114.12 51.25,-114.12 51.25,-97.88 2.75,-97.88"/>
<text xml:space="preserve" text-anchor="start" x="3.75" y="-101.72" font-family="Arial" font-size="12.00">resource</text>
<polygon fill="none" stroke="black" points="1.75,-96.88 1.75,-115.12 52.25,-115.12 52.25,-96.88 1.75,-96.88"/>
</a>
</g>
</g>
<!-- physical object&#45;&gt;resource -->
<g id="edge1" class="edge">
<title>physical object&#45;&gt;resource</title>
<path fill="none" stroke="black" d="M54.37,-51.79C50.35,-59.59 45.48,-69.07 40.96,-77.85"/>
<polygon fill="none" stroke="black" points="37.87,-76.22 36.41,-86.71 44.09,-79.42 37.87,-76.22"/>
</g>
<!-- system -->
<g id="node3" class="node">
<title>system</title>
<g id="a_node3"><a xlink:href="../system/" xlink:title="&lt;TABLE&gt;" target="_top">
<polygon fill="lightgray" stroke="none" points="79.25,-97.88 79.25,-114.12 118.75,-114.12 118.75,-97.88 79.25,-97.88"/>
<text xml:space="preserve" text-anchor="start" x="80.25" y="-101.72" font-family="Arial" font-size="12.00">system</text>
<polygon fill="none" stroke="black" points="78.25,-96.88 78.25,-115.12 119.75,-115.12 119.75,-96.88 78.25,-96.88"/>
</a>
</g>
</g>
<!-- physical object&#45;&gt;system -->
<g id="edge2" class="edge">
<title>physical object&#45;&gt;system</title>
<path fill="none" stroke="black" d="M71.63,-51.79C75.65,-59.59 80.52,-69.07 85.04,-77.85"/>
<polygon fill="none" stroke="black" points="81.91,-79.42 89.59,-86.71 88.13,-76.22 81.91,-79.42"/>
</g>
<!-- Invis -->
</g>
</svg>
