<?xml version="1.0" encoding="UTF-8" standalone="no"?>
<!DOCTYPE svg PUBLIC "-//W3C//DTD SVG 1.1//EN"
 "http://www.w3.org/Graphics/SVG/1.1/DTD/svg11.dtd">
<!-- Generated by graphviz version 14.0.2 (20251019.1705)
 -->
<!-- Pages: 1 -->
<svg width="202pt" height="132pt"
 viewBox="0.00 0.00 202.00 132.00" xmlns="http://www.w3.org/2000/svg" xmlns:xlink="http://www.w3.org/1999/xlink">
<g id="graph0" class="graph" transform="scale(1 1) rotate(0) translate(4 128)">
<polygon fill="white" stroke="none" points="-4,4 -4,-128 198.38,-128 198.38,4 -4,4"/>
<g id="clust2" class="cluster">
<title>cluster_associated</title>
</g>
<!-- protected road user -->
<g id="node1" class="node">
<title>protected road user</title>
<g id="a_node1"><a xlink:href="../classes/itsVocabulary__protected road user.md" xlink:title="&lt;TABLE&gt;">
<polygon fill="lightgray" stroke="none" points="1,-25.88 1,-42.12 105.75,-42.12 105.75,-25.88 1,-25.88"/>
<text xml:space="preserve" text-anchor="start" x="2" y="-29.73" font-family="Arial" font-size="12.00">protected road user</text>
<polygon fill="none" stroke="black" points="0,-24.88 0,-43.12 106.75,-43.12 106.75,-24.88 0,-24.88"/>
</a>
</g>
</g>
<!-- roadUser -->
<g id="node2" class="node">
<title>roadUser</title>
<g id="a_node2"><a xlink:href="../road user/" xlink:title="&lt;TABLE&gt;" target="_top">
<polygon fill="lightgray" stroke="none" points="27.25,-97.88 27.25,-114.12 79.5,-114.12 79.5,-97.88 27.25,-97.88"/>
<text xml:space="preserve" text-anchor="start" x="28.25" y="-101.72" font-family="Arial" font-size="12.00">road user</text>
<polygon fill="none" stroke="black" points="26.25,-96.88 26.25,-115.12 80.5,-115.12 80.5,-96.88 26.25,-96.88"/>
</a>
</g>
</g>
<!-- protected road user&#45;&gt;roadUser -->
<g id="edge1" class="edge">
<title>protected road user&#45;&gt;roadUser</title>
<path fill="none" stroke="black" d="M53.38,-51.79C53.38,-59.25 53.38,-68.24 53.38,-76.69"/>
<polygon fill="none" stroke="black" points="49.88,-76.54 53.38,-86.54 56.88,-76.54 49.88,-76.54"/>
</g>
<!-- Invis -->
</g>
</svg>
