<?xml version="1.0" encoding="UTF-8" standalone="no"?>
<!DOCTYPE svg PUBLIC "-//W3C//DTD SVG 1.1//EN"
 "http://www.w3.org/Graphics/SVG/1.1/DTD/svg11.dtd">
<!-- Generated by graphviz version 14.0.2 (20251019.1705)
 -->
<!-- Pages: 1 -->
<svg width="185pt" height="132pt"
 viewBox="0.00 0.00 185.00 132.00" xmlns="http://www.w3.org/2000/svg" xmlns:xlink="http://www.w3.org/1999/xlink">
<g id="graph0" class="graph" transform="scale(1 1) rotate(0) translate(4 128)">
<polygon fill="white" stroke="none" points="-4,4 -4,-128 180.88,-128 180.88,4 -4,4"/>
<g id="clust2" class="cluster">
<title>cluster_associated</title>
</g>
<!-- public transport -->
<g id="node1" class="node">
<title>public transport</title>
<g id="a_node1"><a xlink:href="../classes/itsVocabulary__public transport.md" xlink:title="&lt;TABLE&gt;">
<polygon fill="lightgray" stroke="none" points="4,-25.88 4,-42.12 87.75,-42.12 87.75,-25.88 4,-25.88"/>
<text xml:space="preserve" text-anchor="start" x="5" y="-29.73" font-family="Arial" font-size="12.00">public transport</text>
<polygon fill="none" stroke="black" points="3,-24.88 3,-43.12 88.75,-43.12 88.75,-24.88 3,-24.88"/>
</a>
</g>
</g>
<!-- transportService -->
<g id="node2" class="node">
<title>transportService</title>
<g id="a_node2"><a xlink:href="../transport service/" xlink:title="&lt;TABLE&gt;" target="_top">
<polygon fill="lightgray" stroke="none" points="1,-97.88 1,-114.12 90.75,-114.12 90.75,-97.88 1,-97.88"/>
<text xml:space="preserve" text-anchor="start" x="2" y="-101.72" font-family="Arial" font-size="12.00">transport service</text>
<polygon fill="none" stroke="black" points="0,-96.88 0,-115.12 91.75,-115.12 91.75,-96.88 0,-96.88"/>
</a>
</g>
</g>
<!-- public transport&#45;&gt;transportService -->
<g id="edge1" class="edge">
<title>public transport&#45;&gt;transportService</title>
<path fill="none" stroke="black" d="M45.88,-51.79C45.88,-59.25 45.88,-68.24 45.88,-76.69"/>
<polygon fill="none" stroke="black" points="42.38,-76.54 45.88,-86.54 49.38,-76.54 42.38,-76.54"/>
</g>
<!-- Invis -->
</g>
</svg>
