<?xml version="1.0" encoding="UTF-8" standalone="no"?>
<!DOCTYPE svg PUBLIC "-//W3C//DTD SVG 1.1//EN"
 "http://www.w3.org/Graphics/SVG/1.1/DTD/svg11.dtd">
<!-- Generated by graphviz version 14.0.2 (20251019.1705)
 -->
<!-- Pages: 1 -->
<svg width="187pt" height="175pt"
 viewBox="0.00 0.00 187.00 175.00" xmlns="http://www.w3.org/2000/svg" xmlns:xlink="http://www.w3.org/1999/xlink">
<g id="graph0" class="graph" transform="scale(1 1) rotate(0) translate(4 171)">
<polygon fill="white" stroke="none" points="-4,4 -4,-171 182.5,-171 182.5,4 -4,4"/>
<g id="clust2" class="cluster">
<title>cluster_associated</title>
</g>
<!-- road network -->
<g id="node1" class="node">
<title>road network</title>
<g id="a_node1"><a xlink:href="../classes/itsVocabulary__road network.md" xlink:title="&lt;TABLE&gt;">
<polygon fill="lightgray" stroke="none" points="1,-124.88 1,-141.12 72,-141.12 72,-124.88 1,-124.88"/>
<text xml:space="preserve" text-anchor="start" x="2" y="-128.72" font-family="Arial" font-size="12.00">road network</text>
<polygon fill="none" stroke="black" points="0,-123.88 0,-142.12 73,-142.12 73,-123.88 0,-123.88"/>
</a>
</g>
</g>
<!-- Invis -->
<!-- road network&#45;&gt;Invis -->
<!-- road -->
<g id="node3" class="node">
<title>road</title>
<g id="a_node3"><a xlink:href="../road/" xlink:title="&lt;TABLE&gt;" target="_top">
<polygon fill="lightgray" stroke="none" points="122.5,-25.88 122.5,-42.12 148.5,-42.12 148.5,-25.88 122.5,-25.88"/>
<text xml:space="preserve" text-anchor="start" x="123.5" y="-29.73" font-family="Arial" font-size="12.00">road</text>
<polygon fill="none" stroke="black" points="121.5,-24.88 121.5,-43.12 149.5,-43.12 149.5,-24.88 121.5,-24.88"/>
</a>
</g>
</g>
<!-- road network&#45;&gt;road -->
<g id="edge3" class="edge">
<title>road network&#45;&gt;road</title>
<path fill="none" stroke="black" d="M42.98,-115.07C48.81,-101.56 58.48,-82.85 71.5,-70 79.25,-62.36 89,-55.9 98.55,-50.7"/>
<polygon fill="black" stroke="black" points="100.03,-53.87 107.36,-46.23 96.86,-47.63 100.03,-53.87"/>
<text xml:space="preserve" text-anchor="middle" x="101.5" y="-86.55" font-family="Arial" font-size="11.00"> aggregates </text>
<text xml:space="preserve" text-anchor="middle" x="101.5" y="-73.05" font-family="Arial" font-size="11.00"> «some» &#160;</text>
</g>
<!-- Invis&#45;&gt;road -->
</g>
</svg>
