<?xml version="1.0" encoding="UTF-8" standalone="no"?>
<!DOCTYPE svg PUBLIC "-//W3C//DTD SVG 1.1//EN"
 "http://www.w3.org/Graphics/SVG/1.1/DTD/svg11.dtd">
<!-- Generated by graphviz version 14.0.2 (20251019.1705)
 -->
<!-- Pages: 1 -->
<svg width="185pt" height="175pt"
 viewBox="0.00 0.00 185.00 175.00" xmlns="http://www.w3.org/2000/svg" xmlns:xlink="http://www.w3.org/1999/xlink">
<g id="graph0" class="graph" transform="scale(1 1) rotate(0) translate(4 171)">
<polygon fill="white" stroke="none" points="-4,4 -4,-171 181.12,-171 181.12,4 -4,4"/>
<g id="clust2" class="cluster">
<title>cluster_associated</title>
</g>
<!-- road user -->
<g id="node1" class="node">
<title>road user</title>
<g id="a_node1"><a xlink:href="../classes/itsVocabulary__road user.md" xlink:title="&lt;TABLE&gt;">
<polygon fill="lightgray" stroke="none" points="1,-124.88 1,-141.12 53.25,-141.12 53.25,-124.88 1,-124.88"/>
<text xml:space="preserve" text-anchor="start" x="2" y="-128.72" font-family="Arial" font-size="12.00">road user</text>
<polygon fill="none" stroke="black" points="0,-123.88 0,-142.12 54.25,-142.12 54.25,-123.88 0,-123.88"/>
</a>
</g>
</g>
<!-- Invis -->
<!-- road user&#45;&gt;Invis -->
<!-- roadReservation -->
<g id="node3" class="node">
<title>roadReservation</title>
<g id="a_node3"><a xlink:href="../road reservation/" xlink:title="&lt;TABLE&gt;" target="_top">
<polygon fill="lightgray" stroke="none" points="72,-25.88 72,-42.12 160.25,-42.12 160.25,-25.88 72,-25.88"/>
<text xml:space="preserve" text-anchor="start" x="73" y="-29.73" font-family="Arial" font-size="12.00">road reservation</text>
<polygon fill="none" stroke="black" points="71,-24.88 71,-43.12 161.25,-43.12 161.25,-24.88 71,-24.88"/>
</a>
</g>
</g>
<!-- road user&#45;&gt;roadReservation -->
<g id="edge3" class="edge">
<title>road user&#45;&gt;roadReservation</title>
<path fill="none" stroke="black" d="M27.17,-115.27C28.05,-101.7 31.26,-82.8 41.62,-70 46.88,-63.51 53.62,-58.16 60.89,-53.77"/>
<polygon fill="black" stroke="black" points="62.53,-56.86 69.71,-49.06 59.24,-50.68 62.53,-56.86"/>
<text xml:space="preserve" text-anchor="middle" x="76.88" y="-86.55" font-family="Arial" font-size="11.00"> locatedWithin </text>
<text xml:space="preserve" text-anchor="middle" x="76.88" y="-73.05" font-family="Arial" font-size="11.00"> «some» &#160;</text>
</g>
<!-- Invis&#45;&gt;roadReservation -->
</g>
</svg>
