<?xml version="1.0" encoding="UTF-8" standalone="no"?>
<!DOCTYPE svg PUBLIC "-//W3C//DTD SVG 1.1//EN"
 "http://www.w3.org/Graphics/SVG/1.1/DTD/svg11.dtd">
<!-- Generated by graphviz version 14.0.2 (20251019.1705)
 -->
<!-- Pages: 1 -->
<svg width="181pt" height="305pt"
 viewBox="0.00 0.00 181.00 305.00" xmlns="http://www.w3.org/2000/svg" xmlns:xlink="http://www.w3.org/1999/xlink">
<g id="graph0" class="graph" transform="scale(1 1) rotate(0) translate(4 301)">
<polygon fill="white" stroke="none" points="-4,4 -4,-301 177.25,-301 177.25,4 -4,4"/>
<g id="clust2" class="cluster">
<title>cluster_associated</title>
</g>
<!-- road link -->
<g id="node1" class="node">
<title>road link</title>
<g id="a_node1"><a xlink:href="../classes/itsVocabulary__road link.md" xlink:title="&lt;TABLE&gt;">
<polygon fill="lightgray" stroke="none" points="111.12,-197.88 111.12,-214.12 158.88,-214.12 158.88,-197.88 111.12,-197.88"/>
<text xml:space="preserve" text-anchor="start" x="112.12" y="-201.72" font-family="Arial" font-size="12.00">road link</text>
<polygon fill="none" stroke="black" points="110.12,-196.88 110.12,-215.12 159.88,-215.12 159.88,-196.88 110.12,-196.88"/>
</a>
</g>
</g>
<!-- link -->
<g id="node2" class="node">
<title>link</title>
<g id="a_node2"><a xlink:href="../link/" xlink:title="&lt;TABLE&gt;" target="_top">
<polygon fill="lightgray" stroke="none" points="124.62,-270.88 124.62,-287.12 145.38,-287.12 145.38,-270.88 124.62,-270.88"/>
<text xml:space="preserve" text-anchor="start" x="125.62" y="-274.73" font-family="Arial" font-size="12.00">link</text>
<polygon fill="none" stroke="black" points="123.62,-269.88 123.62,-288.12 146.38,-288.12 146.38,-269.88 123.62,-269.88"/>
</a>
</g>
</g>
<!-- road link&#45;&gt;link -->
<g id="edge1" class="edge">
<title>road link&#45;&gt;link</title>
<path fill="none" stroke="black" d="M135,-223.71C135,-231.47 135,-240.92 135,-249.74"/>
<polygon fill="none" stroke="black" points="131.5,-249.66 135,-259.66 138.5,-249.66 131.5,-249.66"/>
</g>
<!-- Invis -->
<!-- road link&#45;&gt;Invis -->
<!-- laneLink -->
<g id="node4" class="node">
<title>laneLink</title>
<g id="a_node4"><a xlink:href="../lane link/" xlink:title="&lt;TABLE&gt;" target="_top">
<polygon fill="lightgray" stroke="none" points="30.5,-98.88 30.5,-115.12 77.5,-115.12 77.5,-98.88 30.5,-98.88"/>
<text xml:space="preserve" text-anchor="start" x="31.5" y="-102.72" font-family="Arial" font-size="12.00">lane link</text>
<polygon fill="none" stroke="black" points="29.5,-97.88 29.5,-116.12 78.5,-116.12 78.5,-97.88 29.5,-97.88"/>
</a>
</g>
</g>
<!-- road link&#45;&gt;laneLink -->
<g id="edge5" class="edge">
<title>road link&#45;&gt;laneLink</title>
<path fill="none" stroke="black" d="M108.01,-190.05C106.66,-189.35 105.32,-188.66 104,-188 86.95,-179.41 76.66,-185.12 65,-170 57.67,-160.49 54.6,-147.73 53.49,-136.25"/>
<polygon fill="black" stroke="black" points="57,-136.28 53.02,-126.46 50,-136.62 57,-136.28"/>
<text xml:space="preserve" text-anchor="middle" x="95" y="-159.55" font-family="Arial" font-size="11.00"> aggregates </text>
<text xml:space="preserve" text-anchor="middle" x="95" y="-146.05" font-family="Arial" font-size="11.00"> «some» &#160;</text>
</g>
<!-- roadSegment -->
<g id="node5" class="node">
<title>roadSegment</title>
<g id="a_node5"><a xlink:href="../road segment/" xlink:title="&lt;TABLE&gt;" target="_top">
<polygon fill="lightgray" stroke="none" points="16.62,-25.88 16.62,-42.12 91.38,-42.12 91.38,-25.88 16.62,-25.88"/>
<text xml:space="preserve" text-anchor="start" x="17.62" y="-29.73" font-family="Arial" font-size="12.00">road segment</text>
<polygon fill="none" stroke="black" points="15.62,-24.88 15.62,-43.12 92.38,-43.12 92.38,-24.88 15.62,-24.88"/>
</a>
</g>
</g>
<!-- road link&#45;&gt;roadSegment -->
<g id="edge6" class="edge">
<title>road link&#45;&gt;roadSegment</title>
<path fill="none" stroke="black" d="M134.17,-188.2C133.1,-175.44 130.64,-157.65 125,-143 113.19,-112.31 91.63,-81.36 75.36,-60.51"/>
<polygon fill="black" stroke="black" points="78.22,-58.5 69.25,-52.86 72.75,-62.86 78.22,-58.5"/>
<text xml:space="preserve" text-anchor="middle" x="144.75" y="-110.05" font-family="Arial" font-size="11.00"> constitutes </text>
<text xml:space="preserve" text-anchor="middle" x="144.75" y="-96.55" font-family="Arial" font-size="11.00"> «some» &#160;</text>
</g>
<!-- Invis&#45;&gt;laneLink -->
<!-- laneLink&#45;&gt;roadSegment -->
</g>
</svg>
