<?xml version="1.0" encoding="UTF-8" standalone="no"?>
<!DOCTYPE svg PUBLIC "-//W3C//DTD SVG 1.1//EN"
 "http://www.w3.org/Graphics/SVG/1.1/DTD/svg11.dtd">
<!-- Generated by graphviz version 14.0.2 (20251019.1705)
 -->
<!-- Pages: 1 -->
<svg width="220pt" height="347pt"
 viewBox="0.00 0.00 220.00 347.00" xmlns="http://www.w3.org/2000/svg" xmlns:xlink="http://www.w3.org/1999/xlink">
<g id="graph0" class="graph" transform="scale(1 1) rotate(0) translate(4 343)">
<polygon fill="white" stroke="none" points="-4,4 -4,-343 216.05,-343 216.05,4 -4,4"/>
<g id="clust2" class="cluster">
<title>cluster_associated</title>
</g>
<!-- road reservation -->
<g id="node1" class="node">
<title>road reservation</title>
<g id="a_node1"><a xlink:href="../classes/itsVocabulary__road reservation.md" xlink:title="&lt;TABLE&gt;">
<polygon fill="lightgray" stroke="none" points="106.88,-296.88 106.88,-313.12 195.12,-313.12 195.12,-296.88 106.88,-296.88"/>
<text xml:space="preserve" text-anchor="start" x="107.88" y="-300.73" font-family="Arial" font-size="12.00">road reservation</text>
<polygon fill="none" stroke="black" points="105.88,-295.88 105.88,-314.12 196.12,-314.12 196.12,-295.88 105.88,-295.88"/>
</a>
</g>
</g>
<!-- Invis -->
<!-- road reservation&#45;&gt;Invis -->
<!-- lane -->
<g id="node3" class="node">
<title>lane</title>
<g id="a_node3"><a xlink:href="../lane/" xlink:title="&lt;TABLE&gt;" target="_top">
<polygon fill="lightgray" stroke="none" points="30.38,-197.88 30.38,-214.12 55.62,-214.12 55.62,-197.88 30.38,-197.88"/>
<text xml:space="preserve" text-anchor="start" x="31.38" y="-201.72" font-family="Arial" font-size="12.00">lane</text>
<polygon fill="none" stroke="black" points="29.38,-196.88 29.38,-215.12 56.62,-215.12 56.62,-196.88 29.38,-196.88"/>
</a>
</g>
</g>
<!-- road reservation&#45;&gt;lane -->
<g id="edge6" class="edge">
<title>road reservation&#45;&gt;lane</title>
<path fill="none" stroke="black" d="M106.05,-291.92C85.1,-285.41 63.25,-277.09 56.25,-269 48.28,-259.8 44.72,-246.98 43.26,-235.38"/>
<polygon fill="black" stroke="black" points="46.75,-235.16 42.5,-225.45 39.77,-235.69 46.75,-235.16"/>
<text xml:space="preserve" text-anchor="middle" x="83.62" y="-258.55" font-family="Arial" font-size="11.00"> comprises </text>
<text xml:space="preserve" text-anchor="middle" x="83.62" y="-245.05" font-family="Arial" font-size="11.00"> «some» &#160;</text>
</g>
<!-- roadside -->
<g id="node4" class="node">
<title>roadside</title>
<g id="a_node4"><a xlink:href="../roadside/" xlink:title="&lt;TABLE&gt;" target="_top">
<polygon fill="lightgray" stroke="none" points="18.75,-98.88 18.75,-115.12 67.25,-115.12 67.25,-98.88 18.75,-98.88"/>
<text xml:space="preserve" text-anchor="start" x="19.75" y="-102.72" font-family="Arial" font-size="12.00">roadside</text>
<polygon fill="none" stroke="black" points="17.75,-97.88 17.75,-116.12 68.25,-116.12 68.25,-97.88 17.75,-97.88"/>
</a>
</g>
</g>
<!-- road reservation&#45;&gt;roadside -->
<g id="edge5" class="edge">
<title>road reservation&#45;&gt;roadside</title>
<path fill="none" stroke="black" d="M141.79,-287.29C123.07,-253.31 80.42,-175.91 57.77,-134.8"/>
<polygon fill="black" stroke="black" points="60.96,-133.34 53.07,-126.27 54.83,-136.72 60.96,-133.34"/>
<text xml:space="preserve" text-anchor="middle" x="133.34" y="-209.05" font-family="Arial" font-size="11.00"> comprises </text>
<text xml:space="preserve" text-anchor="middle" x="133.34" y="-195.55" font-family="Arial" font-size="11.00"> «some» &#160;</text>
</g>
<!-- roadway -->
<g id="node5" class="node">
<title>roadway</title>
<g id="a_node5"><a xlink:href="../roadway/" xlink:title="&lt;TABLE&gt;" target="_top">
<polygon fill="lightgray" stroke="none" points="19.12,-25.88 19.12,-42.12 66.88,-42.12 66.88,-25.88 19.12,-25.88"/>
<text xml:space="preserve" text-anchor="start" x="20.12" y="-29.73" font-family="Arial" font-size="12.00">roadway</text>
<polygon fill="none" stroke="black" points="18.12,-24.88 18.12,-43.12 67.88,-43.12 67.88,-24.88 18.12,-24.88"/>
</a>
</g>
</g>
<!-- road reservation&#45;&gt;roadway -->
<g id="edge7" class="edge">
<title>road reservation&#45;&gt;roadway</title>
<path fill="none" stroke="black" d="M157.56,-287.36C165.63,-264.37 176.86,-221.89 165,-188 146.52,-135.17 101.3,-86.98 71.41,-59.33"/>
<polygon fill="black" stroke="black" points="73.93,-56.89 64.17,-52.77 69.24,-62.08 73.93,-56.89"/>
<text xml:space="preserve" text-anchor="middle" x="184.67" y="-159.55" font-family="Arial" font-size="11.00"> comprises </text>
<text xml:space="preserve" text-anchor="middle" x="184.67" y="-146.05" font-family="Arial" font-size="11.00"> «some» &#160;</text>
</g>
<!-- Invis&#45;&gt;lane -->
<!-- lane&#45;&gt;roadside -->
<!-- roadside&#45;&gt;roadway -->
</g>
</svg>
