<?xml version="1.0" encoding="UTF-8" standalone="no"?>
<!DOCTYPE svg PUBLIC "-//W3C//DTD SVG 1.1//EN"
 "http://www.w3.org/Graphics/SVG/1.1/DTD/svg11.dtd">
<!-- Generated by graphviz version 14.1.3 (20260303.0454)
 -->
<!-- Pages: 1 -->
<svg width="220pt" height="320pt"
 viewBox="0.00 0.00 220.00 320.00" xmlns="http://www.w3.org/2000/svg" xmlns:xlink="http://www.w3.org/1999/xlink">
<g id="graph0" class="graph" transform="scale(1 1) rotate(0) translate(4 316)">
<polygon fill="white" stroke="none" points="-4,4 -4,-316 216.04,-316 216.04,4 -4,4"/>
<g id="clust2" class="cluster">
<title>cluster_associated</title>
</g>
<!-- road reservation -->
<g id="node1" class="node">
<title>road reservation</title>
<polygon fill="lightgray" stroke="none" points="106.88,-269.88 106.88,-286.12 195.12,-286.12 195.12,-269.88 106.88,-269.88"/>
<text xml:space="preserve" text-anchor="start" x="107.88" y="-273.88" font-family="Arial" font-size="12.00">road reservation</text>
<polygon fill="none" stroke="black" points="105.88,-268.88 105.88,-287.12 196.12,-287.12 196.12,-268.88 105.88,-268.88"/>
</g>
<!-- Invis -->
<!-- road reservation&#45;&gt;Invis -->
<!-- lane -->
<g id="node3" class="node">
<title>lane</title>
<g id="a_node3"><a xlink:href="../terms/lane/" xlink:title="&lt;TABLE&gt;" target="_top">
<polygon fill="lightgray" stroke="none" points="30.38,-184.38 30.38,-200.62 55.62,-200.62 55.62,-184.38 30.38,-184.38"/>
<text xml:space="preserve" text-anchor="start" x="31.38" y="-188.38" font-family="Arial" font-size="12.00">lane</text>
<polygon fill="none" stroke="black" points="29.38,-183.38 29.38,-201.62 56.62,-201.62 56.62,-183.38 29.38,-183.38"/>
</a>
</g>
</g>
<!-- road reservation&#45;&gt;lane -->
<g id="edge6" class="edge">
<title>road reservation&#45;&gt;lane</title>
<path fill="none" stroke="black" d="M105.98,-264.67C85.16,-258.14 63.45,-249.85 56.25,-242 51.06,-236.34 47.88,-228.85 45.93,-221.45"/>
<polygon fill="black" stroke="black" points="49.37,-220.82 44.06,-211.66 42.5,-222.14 49.37,-220.82"/>
<text xml:space="preserve" text-anchor="middle" x="83.62" y="-231.55" font-family="Arial" font-size="11.00"> comprises </text>
</g>
<!-- roadside -->
<g id="node4" class="node">
<title>roadside</title>
<g id="a_node4"><a xlink:href="../terms/roadside/" xlink:title="&lt;TABLE&gt;" target="_top">
<polygon fill="lightgray" stroke="none" points="18.75,-98.88 18.75,-115.12 67.25,-115.12 67.25,-98.88 18.75,-98.88"/>
<text xml:space="preserve" text-anchor="start" x="19.75" y="-102.88" font-family="Arial" font-size="12.00">roadside</text>
<polygon fill="none" stroke="black" points="17.75,-97.88 17.75,-116.12 68.25,-116.12 68.25,-97.88 17.75,-97.88"/>
</a>
</g>
</g>
<!-- road reservation&#45;&gt;roadside -->
<g id="edge7" class="edge">
<title>road reservation&#45;&gt;roadside</title>
<path fill="none" stroke="black" d="M140.25,-260.18C121.41,-230.69 82.29,-169.49 59.84,-134.34"/>
<polygon fill="black" stroke="black" points="62.86,-132.57 54.52,-126.03 56.96,-136.34 62.86,-132.57"/>
<text xml:space="preserve" text-anchor="middle" x="135.11" y="-188.8" font-family="Arial" font-size="11.00"> comprises </text>
</g>
<!-- roadway -->
<g id="node5" class="node">
<title>roadway</title>
<g id="a_node5"><a xlink:href="../terms/roadway/" xlink:title="&lt;TABLE&gt;" target="_top">
<polygon fill="lightgray" stroke="none" points="19.12,-25.88 19.12,-42.12 66.88,-42.12 66.88,-25.88 19.12,-25.88"/>
<text xml:space="preserve" text-anchor="start" x="20.12" y="-29.88" font-family="Arial" font-size="12.00">roadway</text>
<polygon fill="none" stroke="black" points="18.12,-24.88 18.12,-43.12 67.88,-43.12 67.88,-24.88 18.12,-24.88"/>
</a>
</g>
</g>
<!-- road reservation&#45;&gt;roadway -->
<g id="edge5" class="edge">
<title>road reservation&#45;&gt;roadway</title>
<path fill="none" stroke="black" d="M158.46,-260.12C166.53,-239.34 176.87,-203.27 166,-174.5 147.85,-126.46 104.77,-84.27 74.75,-59.2"/>
<polygon fill="black" stroke="black" points="77.03,-56.54 67.07,-52.94 72.61,-61.97 77.03,-56.54"/>
<text xml:space="preserve" text-anchor="middle" x="184.67" y="-146.05" font-family="Arial" font-size="11.00"> comprises </text>
</g>
<!-- Invis&#45;&gt;lane -->
<!-- lane&#45;&gt;roadside -->
<!-- roadside&#45;&gt;roadway -->
</g>
</svg>
