<?xml version="1.0" encoding="UTF-8" standalone="no"?>
<!DOCTYPE svg PUBLIC "-//W3C//DTD SVG 1.1//EN"
 "http://www.w3.org/Graphics/SVG/1.1/DTD/svg11.dtd">
<!-- Generated by graphviz version 14.1.3 (20260303.0454)
 -->
<!-- Pages: 1 -->
<svg width="185pt" height="162pt"
 viewBox="0.00 0.00 185.00 162.00" xmlns="http://www.w3.org/2000/svg" xmlns:xlink="http://www.w3.org/1999/xlink">
<g id="graph0" class="graph" transform="scale(1 1) rotate(0) translate(4 157.5)">
<polygon fill="white" stroke="none" points="-4,4 -4,-157.5 181.12,-157.5 181.12,4 -4,4"/>
<g id="clust2" class="cluster">
<title>cluster_associated</title>
</g>
<!-- road user -->
<g id="node1" class="node">
<title>road user</title>
<polygon fill="lightgray" stroke="none" points="1,-111.38 1,-127.62 53.25,-127.62 53.25,-111.38 1,-111.38"/>
<text xml:space="preserve" text-anchor="start" x="2" y="-115.38" font-family="Arial" font-size="12.00">road user</text>
<polygon fill="none" stroke="black" points="0,-110.38 0,-128.62 54.25,-128.62 54.25,-110.38 0,-110.38"/>
</g>
<!-- Invis -->
<!-- road user&#45;&gt;Invis -->
<!-- roadReservation -->
<g id="node3" class="node">
<title>roadReservation</title>
<g id="a_node3"><a xlink:href="../terms/road reservation/" xlink:title="&lt;TABLE&gt;" target="_top">
<polygon fill="lightgray" stroke="none" points="72,-25.88 72,-42.12 160.25,-42.12 160.25,-25.88 72,-25.88"/>
<text xml:space="preserve" text-anchor="start" x="73" y="-29.88" font-family="Arial" font-size="12.00">road reservation</text>
<polygon fill="none" stroke="black" points="71,-24.88 71,-43.12 161.25,-43.12 161.25,-24.88 71,-24.88"/>
</a>
</g>
</g>
<!-- road user&#45;&gt;roadReservation -->
<g id="edge3" class="edge">
<title>road user&#45;&gt;roadReservation</title>
<path fill="none" stroke="black" d="M28.4,-101.57C29.96,-91.41 33.38,-78.79 40.88,-70 46.46,-63.44 53.55,-58.04 61.12,-53.61"/>
<polygon fill="black" stroke="black" points="62.68,-56.74 69.94,-49.03 59.45,-50.53 62.68,-56.74"/>
<text xml:space="preserve" text-anchor="middle" x="76.5" y="-73.05" font-family="Arial" font-size="11.00"> located within </text>
</g>
<!-- Invis&#45;&gt;roadReservation -->
</g>
</svg>
