<?xml version="1.0" encoding="UTF-8" standalone="no"?>
<!DOCTYPE svg PUBLIC "-//W3C//DTD SVG 1.1//EN"
 "http://www.w3.org/Graphics/SVG/1.1/DTD/svg11.dtd">
<!-- Generated by graphviz version 14.0.2 (20251019.1705)
 -->
<!-- Pages: 1 -->
<svg width="173pt" height="175pt"
 viewBox="0.00 0.00 173.00 175.00" xmlns="http://www.w3.org/2000/svg" xmlns:xlink="http://www.w3.org/1999/xlink">
<g id="graph0" class="graph" transform="scale(1 1) rotate(0) translate(4 171)">
<polygon fill="white" stroke="none" points="-4,4 -4,-171 169,-171 169,4 -4,4"/>
<g id="clust2" class="cluster">
<title>cluster_associated</title>
</g>
<!-- roadway -->
<g id="node1" class="node">
<title>roadway</title>
<g id="a_node1"><a xlink:href="../classes/itsVocabulary__roadway.md" xlink:title="&lt;TABLE&gt;">
<polygon fill="lightgray" stroke="none" points="3.12,-124.88 3.12,-141.12 50.88,-141.12 50.88,-124.88 3.12,-124.88"/>
<text xml:space="preserve" text-anchor="start" x="4.12" y="-128.72" font-family="Arial" font-size="12.00">roadway</text>
<polygon fill="none" stroke="black" points="2.12,-123.88 2.12,-142.12 51.88,-142.12 51.88,-123.88 2.12,-123.88"/>
</a>
</g>
</g>
<!-- Invis -->
<!-- roadway&#45;&gt;Invis -->
<!-- travelledWay -->
<g id="node3" class="node">
<title>travelledWay</title>
<g id="a_node3"><a xlink:href="../travelled way/" xlink:title="&lt;TABLE&gt;" target="_top">
<polygon fill="lightgray" stroke="none" points="75.75,-25.88 75.75,-42.12 148.25,-42.12 148.25,-25.88 75.75,-25.88"/>
<text xml:space="preserve" text-anchor="start" x="76.75" y="-29.73" font-family="Arial" font-size="12.00">travelled way</text>
<polygon fill="none" stroke="black" points="74.75,-24.88 74.75,-43.12 149.25,-43.12 149.25,-24.88 74.75,-24.88"/>
</a>
</g>
</g>
<!-- roadway&#45;&gt;travelledWay -->
<g id="edge3" class="edge">
<title>roadway&#45;&gt;travelledWay</title>
<path fill="none" stroke="black" d="M31.66,-115.22C36.04,-101.8 43.67,-83.13 55.25,-70 59.03,-65.72 63.46,-61.78 68.15,-58.22"/>
<polygon fill="black" stroke="black" points="69.9,-61.27 76.15,-52.71 65.93,-55.51 69.9,-61.27"/>
<text xml:space="preserve" text-anchor="middle" x="82.62" y="-86.55" font-family="Arial" font-size="11.00"> comprises </text>
<text xml:space="preserve" text-anchor="middle" x="82.62" y="-73.05" font-family="Arial" font-size="11.00"> «some» &#160;</text>
</g>
<!-- Invis&#45;&gt;travelledWay -->
</g>
</svg>
