<?xml version="1.0" encoding="UTF-8" standalone="no"?>
<!DOCTYPE svg PUBLIC "-//W3C//DTD SVG 1.1//EN"
 "http://www.w3.org/Graphics/SVG/1.1/DTD/svg11.dtd">
<!-- Generated by graphviz version 14.0.2 (20251019.1705)
 -->
<!-- Pages: 1 -->
<svg width="182pt" height="175pt"
 viewBox="0.00 0.00 182.00 175.00" xmlns="http://www.w3.org/2000/svg" xmlns:xlink="http://www.w3.org/1999/xlink">
<g id="graph0" class="graph" transform="scale(1 1) rotate(0) translate(4 171)">
<polygon fill="white" stroke="none" points="-4,4 -4,-171 178,-171 178,4 -4,4"/>
<g id="clust2" class="cluster">
<title>cluster_associated</title>
</g>
<!-- sensor -->
<g id="node1" class="node">
<title>sensor</title>
<g id="a_node1"><a xlink:href="../classes/itsVocabulary__sensor.md" xlink:title="&lt;TABLE&gt;">
<polygon fill="lightgray" stroke="none" points="8,-124.88 8,-141.12 46,-141.12 46,-124.88 8,-124.88"/>
<text xml:space="preserve" text-anchor="start" x="9" y="-128.72" font-family="Arial" font-size="12.00">sensor</text>
<polygon fill="none" stroke="black" points="7,-123.88 7,-142.12 47,-142.12 47,-123.88 7,-123.88"/>
</a>
</g>
</g>
<!-- Invis -->
<!-- sensor&#45;&gt;Invis -->
<!-- materialEntity -->
<g id="node3" class="node">
<title>materialEntity</title>
<g id="a_node3"><a xlink:href="../material entity/" xlink:title="&lt;TABLE&gt;" target="_top">
<polygon fill="lightgray" stroke="none" points="80.88,-25.88 80.88,-42.12 157.12,-42.12 157.12,-25.88 80.88,-25.88"/>
<text xml:space="preserve" text-anchor="start" x="81.88" y="-29.73" font-family="Arial" font-size="12.00">material entity</text>
<polygon fill="none" stroke="black" points="79.88,-24.88 79.88,-43.12 158.12,-43.12 158.12,-24.88 79.88,-24.88"/>
</a>
</g>
</g>
<!-- sensor&#45;&gt;materialEntity -->
<g id="edge3" class="edge">
<title>sensor&#45;&gt;materialEntity</title>
<path fill="none" stroke="black" d="M17.75,-115.23C11.73,-101.82 6.58,-83.15 16,-70 28.19,-52.98 49.14,-44.14 68.97,-39.58"/>
<polygon fill="black" stroke="black" points="69.5,-43.05 78.65,-37.7 68.16,-36.17 69.5,-43.05"/>
<text xml:space="preserve" text-anchor="middle" x="67" y="-86.55" font-family="Arial" font-size="11.00"> observesPropertyOf </text>
<text xml:space="preserve" text-anchor="middle" x="67" y="-73.05" font-family="Arial" font-size="11.00"> «some» &#160;</text>
</g>
<!-- Invis&#45;&gt;materialEntity -->
</g>
</svg>
