<?xml version="1.0" encoding="UTF-8" standalone="no"?>
<!DOCTYPE svg PUBLIC "-//W3C//DTD SVG 1.1//EN"
 "http://www.w3.org/Graphics/SVG/1.1/DTD/svg11.dtd">
<!-- Generated by graphviz version 14.0.2 (20251019.1705)
 -->
<!-- Pages: 1 -->
<svg width="228pt" height="132pt"
 viewBox="0.00 0.00 228.00 132.00" xmlns="http://www.w3.org/2000/svg" xmlns:xlink="http://www.w3.org/1999/xlink">
<g id="graph0" class="graph" transform="scale(1 1) rotate(0) translate(4 128)">
<polygon fill="white" stroke="none" points="-4,4 -4,-128 223.75,-128 223.75,4 -4,4"/>
<g id="clust2" class="cluster">
<title>cluster_associated</title>
</g>
<!-- shared transport service -->
<g id="node1" class="node">
<title>shared transport service</title>
<g id="a_node1"><a xlink:href="../classes/itsVocabulary__shared transport service.md" xlink:title="&lt;TABLE&gt;">
<polygon fill="lightgray" stroke="none" points="1,-25.88 1,-42.12 130.5,-42.12 130.5,-25.88 1,-25.88"/>
<text xml:space="preserve" text-anchor="start" x="2" y="-29.73" font-family="Arial" font-size="12.00">shared transport service</text>
<polygon fill="none" stroke="black" points="0,-24.88 0,-43.12 131.5,-43.12 131.5,-24.88 0,-24.88"/>
</a>
</g>
</g>
<!-- transportService -->
<g id="node2" class="node">
<title>transportService</title>
<g id="a_node2"><a xlink:href="../transport service/" xlink:title="&lt;TABLE&gt;" target="_top">
<polygon fill="lightgray" stroke="none" points="20.88,-97.88 20.88,-114.12 110.62,-114.12 110.62,-97.88 20.88,-97.88"/>
<text xml:space="preserve" text-anchor="start" x="21.88" y="-101.72" font-family="Arial" font-size="12.00">transport service</text>
<polygon fill="none" stroke="black" points="19.88,-96.88 19.88,-115.12 111.62,-115.12 111.62,-96.88 19.88,-96.88"/>
</a>
</g>
</g>
<!-- shared transport service&#45;&gt;transportService -->
<g id="edge1" class="edge">
<title>shared transport service&#45;&gt;transportService</title>
<path fill="none" stroke="black" d="M65.75,-51.79C65.75,-59.25 65.75,-68.24 65.75,-76.69"/>
<polygon fill="none" stroke="black" points="62.25,-76.54 65.75,-86.54 69.25,-76.54 62.25,-76.54"/>
</g>
<!-- Invis -->
</g>
</svg>
