<?xml version="1.0" encoding="UTF-8" standalone="no"?>
<!DOCTYPE svg PUBLIC "-//W3C//DTD SVG 1.1//EN"
 "http://www.w3.org/Graphics/SVG/1.1/DTD/svg11.dtd">
<!-- Generated by graphviz version 14.0.2 (20251019.1705)
 -->
<!-- Pages: 1 -->
<svg width="204pt" height="232pt"
 viewBox="0.00 0.00 204.00 232.00" xmlns="http://www.w3.org/2000/svg" xmlns:xlink="http://www.w3.org/1999/xlink">
<g id="graph0" class="graph" transform="scale(1 1) rotate(0) translate(4 228)">
<polygon fill="white" stroke="none" points="-4,4 -4,-228 200,-228 200,4 -4,4"/>
<g id="clust2" class="cluster">
<title>cluster_associated</title>
</g>
<!-- sidewalk -->
<g id="node1" class="node">
<title>sidewalk</title>
<g id="a_node1"><a xlink:href="../classes/itsVocabulary__sidewalk.md" xlink:title="&lt;TABLE&gt;">
<polygon fill="lightgray" stroke="none" points="108.38,-124.88 108.38,-141.12 157.62,-141.12 157.62,-124.88 108.38,-124.88"/>
<text xml:space="preserve" text-anchor="start" x="109.38" y="-128.72" font-family="Arial" font-size="12.00">sidewalk</text>
<polygon fill="none" stroke="black" points="107.38,-123.88 107.38,-142.12 158.62,-142.12 158.62,-123.88 107.38,-123.88"/>
</a>
</g>
</g>
<!-- footpath -->
<g id="node2" class="node">
<title>footpath</title>
<g id="a_node2"><a xlink:href="../footpath/" xlink:title="&lt;TABLE&gt;" target="_top">
<polygon fill="lightgray" stroke="none" points="74.62,-197.88 74.62,-214.12 119.38,-214.12 119.38,-197.88 74.62,-197.88"/>
<text xml:space="preserve" text-anchor="start" x="75.62" y="-201.72" font-family="Arial" font-size="12.00">footpath</text>
<polygon fill="none" stroke="black" points="73.62,-196.88 73.62,-215.12 120.38,-215.12 120.38,-196.88 73.62,-196.88"/>
</a>
</g>
</g>
<!-- sidewalk&#45;&gt;footpath -->
<g id="edge1" class="edge">
<title>sidewalk&#45;&gt;footpath</title>
<path fill="none" stroke="black" d="M124.53,-150.71C120.41,-158.82 115.36,-168.78 110.72,-177.94"/>
<polygon fill="none" stroke="black" points="107.62,-176.32 106.22,-186.82 113.86,-179.49 107.62,-176.32"/>
</g>
<!-- lane -->
<g id="node3" class="node">
<title>lane</title>
<g id="a_node3"><a xlink:href="../lane/" xlink:title="&lt;TABLE&gt;" target="_top">
<polygon fill="lightgray" stroke="none" points="156.38,-197.88 156.38,-214.12 181.62,-214.12 181.62,-197.88 156.38,-197.88"/>
<text xml:space="preserve" text-anchor="start" x="157.38" y="-201.72" font-family="Arial" font-size="12.00">lane</text>
<polygon fill="none" stroke="black" points="155.38,-196.88 155.38,-215.12 182.62,-215.12 182.62,-196.88 155.38,-196.88"/>
</a>
</g>
</g>
<!-- sidewalk&#45;&gt;lane -->
<g id="edge2" class="edge">
<title>sidewalk&#45;&gt;lane</title>
<path fill="none" stroke="black" d="M141.47,-150.71C145.59,-158.82 150.64,-168.78 155.28,-177.94"/>
<polygon fill="none" stroke="black" points="152.14,-179.49 159.78,-186.82 158.38,-176.32 152.14,-179.49"/>
</g>
<!-- Invis -->
<!-- sidewalk&#45;&gt;Invis -->
<!-- roadside -->
<g id="node5" class="node">
<title>roadside</title>
<g id="a_node5"><a xlink:href="../roadside/" xlink:title="&lt;TABLE&gt;" target="_top">
<polygon fill="lightgray" stroke="none" points="18.75,-25.88 18.75,-42.12 67.25,-42.12 67.25,-25.88 18.75,-25.88"/>
<text xml:space="preserve" text-anchor="start" x="19.75" y="-29.73" font-family="Arial" font-size="12.00">roadside</text>
<polygon fill="none" stroke="black" points="17.75,-24.88 17.75,-43.12 68.25,-43.12 68.25,-24.88 17.75,-24.88"/>
</a>
</g>
</g>
<!-- sidewalk&#45;&gt;roadside -->
<g id="edge5" class="edge">
<title>sidewalk&#45;&gt;roadside</title>
<path fill="none" stroke="black" d="M117.32,-115.1C103.13,-99.8 82.04,-77.07 65.94,-59.73"/>
<polygon fill="black" stroke="black" points="68.89,-57.76 59.53,-52.81 63.76,-62.52 68.89,-57.76"/>
<text xml:space="preserve" text-anchor="middle" x="122.33" y="-86.55" font-family="Arial" font-size="11.00"> along </text>
<text xml:space="preserve" text-anchor="middle" x="122.33" y="-73.05" font-family="Arial" font-size="11.00"> «some» &#160;</text>
</g>
<!-- Invis&#45;&gt;roadside -->
</g>
</svg>
