<?xml version="1.0" encoding="UTF-8" standalone="no"?>
<!DOCTYPE svg PUBLIC "-//W3C//DTD SVG 1.1//EN"
 "http://www.w3.org/Graphics/SVG/1.1/DTD/svg11.dtd">
<!-- Generated by graphviz version 14.0.2 (20251019.1705)
 -->
<!-- Pages: 1 -->
<svg width="180pt" height="132pt"
 viewBox="0.00 0.00 180.00 132.00" xmlns="http://www.w3.org/2000/svg" xmlns:xlink="http://www.w3.org/1999/xlink">
<g id="graph0" class="graph" transform="scale(1 1) rotate(0) translate(4 128)">
<polygon fill="white" stroke="none" points="-4,4 -4,-128 176.12,-128 176.12,4 -4,4"/>
<g id="clust2" class="cluster">
<title>cluster_associated</title>
</g>
<!-- spatial location -->
<g id="node1" class="node">
<title>spatial location</title>
<g id="a_node1"><a xlink:href="../classes/itsVocabulary__spatial location.md" xlink:title="&lt;TABLE&gt;">
<polygon fill="lightgray" stroke="none" points="1,-25.88 1,-42.12 83.25,-42.12 83.25,-25.88 1,-25.88"/>
<text xml:space="preserve" text-anchor="start" x="2" y="-29.73" font-family="Arial" font-size="12.00">spatial location</text>
<polygon fill="none" stroke="black" points="0,-24.88 0,-43.12 84.25,-43.12 84.25,-24.88 0,-24.88"/>
</a>
</g>
</g>
<!-- location -->
<g id="node2" class="node">
<title>location</title>
<g id="a_node2"><a xlink:href="../location/" xlink:title="&lt;TABLE&gt;" target="_top">
<polygon fill="lightgray" stroke="none" points="20.12,-97.88 20.12,-114.12 64.12,-114.12 64.12,-97.88 20.12,-97.88"/>
<text xml:space="preserve" text-anchor="start" x="21.12" y="-101.72" font-family="Arial" font-size="12.00">location</text>
<polygon fill="none" stroke="black" points="19.12,-96.88 19.12,-115.12 65.12,-115.12 65.12,-96.88 19.12,-96.88"/>
</a>
</g>
</g>
<!-- spatial location&#45;&gt;location -->
<g id="edge1" class="edge">
<title>spatial location&#45;&gt;location</title>
<path fill="none" stroke="black" d="M42.12,-51.79C42.12,-59.25 42.12,-68.24 42.12,-76.69"/>
<polygon fill="none" stroke="black" points="38.63,-76.54 42.13,-86.54 45.63,-76.54 38.63,-76.54"/>
</g>
<!-- Invis -->
</g>
</svg>
