<?xml version="1.0" encoding="UTF-8" standalone="no"?>
<!DOCTYPE svg PUBLIC "-//W3C//DTD SVG 1.1//EN"
 "http://www.w3.org/Graphics/SVG/1.1/DTD/svg11.dtd">
<!-- Generated by graphviz version 14.1.3 (20260303.0454)
 -->
<!-- Pages: 1 -->
<svg width="191pt" height="162pt"
 viewBox="0.00 0.00 191.00 162.00" xmlns="http://www.w3.org/2000/svg" xmlns:xlink="http://www.w3.org/1999/xlink">
<g id="graph0" class="graph" transform="scale(1 1) rotate(0) translate(4 157.5)">
<polygon fill="white" stroke="none" points="-4,4 -4,-157.5 187.05,-157.5 187.05,4 -4,4"/>
<g id="clust2" class="cluster">
<title>cluster_associated</title>
</g>
<!-- speed -->
<g id="node1" class="node">
<title>speed</title>
<g id="a_node1"><a xlink:href="../terms/speed/" xlink:title="&lt;TABLE&gt;">
<polygon fill="lightgray" stroke="none" points="17.55,-111.38 17.55,-127.62 52.55,-127.62 52.55,-111.38 17.55,-111.38"/>
<text xml:space="preserve" text-anchor="start" x="18.55" y="-115.38" font-family="Arial" font-size="12.00">speed</text>
<polygon fill="none" stroke="black" points="16.55,-110.38 16.55,-128.62 53.55,-128.62 53.55,-110.38 16.55,-110.38"/>
</a>
</g>
</g>
<!-- Invis -->
<!-- speed&#45;&gt;Invis -->
<!-- materialEntity -->
<g id="node3" class="node">
<title>materialEntity</title>
<g id="a_node3"><a xlink:href="../terms/material entity/" xlink:title="&lt;TABLE&gt;" target="_top">
<polygon fill="lightgray" stroke="none" points="89.93,-25.88 89.93,-42.12 166.18,-42.12 166.18,-25.88 89.93,-25.88"/>
<text xml:space="preserve" text-anchor="start" x="90.93" y="-29.88" font-family="Arial" font-size="12.00">material entity</text>
<polygon fill="none" stroke="black" points="88.93,-24.88 88.93,-43.12 167.18,-43.12 167.18,-24.88 88.93,-24.88"/>
</a>
</g>
</g>
<!-- speed&#45;&gt;materialEntity -->
<g id="edge3" class="edge">
<title>speed&#45;&gt;materialEntity</title>
<path fill="none" stroke="black" d="M13.34,-101.95C3.46,-92.39 -4.48,-80.27 3.3,-70 12.59,-57.75 47.53,-48.6 78.08,-42.73"/>
<polygon fill="black" stroke="black" points="78.39,-46.24 87.59,-41 77.13,-39.35 78.39,-46.24"/>
<text xml:space="preserve" text-anchor="middle" x="72.68" y="-73.05" font-family="Arial" font-size="11.00"> rate of change of position of </text>
</g>
<!-- Invis&#45;&gt;materialEntity -->
</g>
</svg>
