<?xml version="1.0" encoding="UTF-8" standalone="no"?>
<!DOCTYPE svg PUBLIC "-//W3C//DTD SVG 1.1//EN"
 "http://www.w3.org/Graphics/SVG/1.1/DTD/svg11.dtd">
<!-- Generated by graphviz version 14.0.2 (20251019.1705)
 -->
<!-- Pages: 1 -->
<svg width="188pt" height="175pt"
 viewBox="0.00 0.00 188.00 175.00" xmlns="http://www.w3.org/2000/svg" xmlns:xlink="http://www.w3.org/1999/xlink">
<g id="graph0" class="graph" transform="scale(1 1) rotate(0) translate(4 171)">
<polygon fill="white" stroke="none" points="-4,4 -4,-171 184.46,-171 184.46,4 -4,4"/>
<g id="clust2" class="cluster">
<title>cluster_associated</title>
</g>
<!-- speed -->
<g id="node1" class="node">
<title>speed</title>
<g id="a_node1"><a xlink:href="../classes/itsVocabulary__speed.md" xlink:title="&lt;TABLE&gt;">
<polygon fill="lightgray" stroke="none" points="14.96,-124.88 14.96,-141.12 49.96,-141.12 49.96,-124.88 14.96,-124.88"/>
<text xml:space="preserve" text-anchor="start" x="15.96" y="-128.72" font-family="Arial" font-size="12.00">speed</text>
<polygon fill="none" stroke="black" points="13.96,-123.88 13.96,-142.12 50.96,-142.12 50.96,-123.88 13.96,-123.88"/>
</a>
</g>
</g>
<!-- Invis -->
<!-- speed&#45;&gt;Invis -->
<!-- materialEntity -->
<g id="node3" class="node">
<title>materialEntity</title>
<g id="a_node3"><a xlink:href="../material entity/" xlink:title="&lt;TABLE&gt;" target="_top">
<polygon fill="lightgray" stroke="none" points="87.34,-25.88 87.34,-42.12 163.59,-42.12 163.59,-25.88 87.34,-25.88"/>
<text xml:space="preserve" text-anchor="start" x="88.34" y="-29.73" font-family="Arial" font-size="12.00">material entity</text>
<polygon fill="none" stroke="black" points="86.34,-24.88 86.34,-43.12 164.59,-43.12 164.59,-24.88 86.34,-24.88"/>
</a>
</g>
</g>
<!-- speed&#45;&gt;materialEntity -->
<g id="edge3" class="edge">
<title>speed&#45;&gt;materialEntity</title>
<path fill="none" stroke="black" d="M15.66,-115.13C4.67,-102.01 -5.9,-83.78 4.46,-70 20.76,-48.32 49.66,-39.43 75.13,-36.03"/>
<polygon fill="black" stroke="black" points="75.45,-39.52 85.03,-34.99 74.71,-32.56 75.45,-39.52"/>
<text xml:space="preserve" text-anchor="middle" x="71.96" y="-86.55" font-family="Arial" font-size="11.00"> rateOfChangeOfPositionOf </text>
<text xml:space="preserve" text-anchor="middle" x="71.96" y="-73.05" font-family="Arial" font-size="11.00"> «exactly 1» &#160;</text>
</g>
<!-- Invis&#45;&gt;materialEntity -->
</g>
</svg>
