<?xml version="1.0" encoding="UTF-8" standalone="no"?>
<!DOCTYPE svg PUBLIC "-//W3C//DTD SVG 1.1//EN"
 "http://www.w3.org/Graphics/SVG/1.1/DTD/svg11.dtd">
<!-- Generated by graphviz version 14.0.2 (20251019.1705)
 -->
<!-- Pages: 1 -->
<svg width="241pt" height="305pt"
 viewBox="0.00 0.00 241.00 305.00" xmlns="http://www.w3.org/2000/svg" xmlns:xlink="http://www.w3.org/1999/xlink">
<g id="graph0" class="graph" transform="scale(1 1) rotate(0) translate(4 301)">
<polygon fill="white" stroke="none" points="-4,4 -4,-301 236.88,-301 236.88,4 -4,4"/>
<g id="clust2" class="cluster">
<title>cluster_associated</title>
</g>
<!-- transport user need -->
<g id="node1" class="node">
<title>transport user need</title>
<g id="a_node1"><a xlink:href="../classes/itsVocabulary__transport user need.md" xlink:title="&lt;TABLE&gt;">
<polygon fill="lightgray" stroke="none" points="110.62,-197.88 110.62,-214.12 215.38,-214.12 215.38,-197.88 110.62,-197.88"/>
<text xml:space="preserve" text-anchor="start" x="111.62" y="-201.72" font-family="Arial" font-size="12.00">transport user need</text>
<polygon fill="none" stroke="black" points="109.62,-196.88 109.62,-215.12 216.38,-215.12 216.38,-196.88 109.62,-196.88"/>
</a>
</g>
</g>
<!-- userNeed -->
<g id="node2" class="node">
<title>userNeed</title>
<g id="a_node2"><a xlink:href="../user need/" xlink:title="&lt;TABLE&gt;" target="_top">
<polygon fill="lightgray" stroke="none" points="135.38,-270.88 135.38,-287.12 190.62,-287.12 190.62,-270.88 135.38,-270.88"/>
<text xml:space="preserve" text-anchor="start" x="136.38" y="-274.73" font-family="Arial" font-size="12.00">user need</text>
<polygon fill="none" stroke="black" points="134.38,-269.88 134.38,-288.12 191.62,-288.12 191.62,-269.88 134.38,-269.88"/>
</a>
</g>
</g>
<!-- transport user need&#45;&gt;userNeed -->
<g id="edge1" class="edge">
<title>transport user need&#45;&gt;userNeed</title>
<path fill="none" stroke="black" d="M163,-223.71C163,-231.47 163,-240.92 163,-249.74"/>
<polygon fill="none" stroke="black" points="159.5,-249.66 163,-259.66 166.5,-249.66 159.5,-249.66"/>
</g>
<!-- Invis -->
<!-- transport user need&#45;&gt;Invis -->
<!-- materialEntity -->
<g id="node4" class="node">
<title>materialEntity</title>
<g id="a_node4"><a xlink:href="../material entity/" xlink:title="&lt;TABLE&gt;" target="_top">
<polygon fill="lightgray" stroke="none" points="16.88,-98.88 16.88,-115.12 93.12,-115.12 93.12,-98.88 16.88,-98.88"/>
<text xml:space="preserve" text-anchor="start" x="17.88" y="-102.72" font-family="Arial" font-size="12.00">material entity</text>
<polygon fill="none" stroke="black" points="15.88,-97.88 15.88,-116.12 94.12,-116.12 94.12,-97.88 15.88,-97.88"/>
</a>
</g>
</g>
<!-- transport user need&#45;&gt;materialEntity -->
<g id="edge6" class="edge">
<title>transport user need&#45;&gt;materialEntity</title>
<path fill="none" stroke="black" d="M109.71,-189.05C87.55,-181.93 66.15,-174.21 62.75,-170 55.21,-160.67 52.74,-147.83 52.36,-136.26"/>
<polygon fill="black" stroke="black" points="55.86,-136.44 52.57,-126.36 48.86,-136.29 55.86,-136.44"/>
<text xml:space="preserve" text-anchor="middle" x="108.88" y="-159.55" font-family="Arial" font-size="11.00"> desireToTransport </text>
<text xml:space="preserve" text-anchor="middle" x="108.88" y="-146.05" font-family="Arial" font-size="11.00"> «some» &#160;</text>
</g>
<!-- transportUser -->
<g id="node5" class="node">
<title>transportUser</title>
<g id="a_node5"><a xlink:href="../transport user/" xlink:title="&lt;TABLE&gt;" target="_top">
<polygon fill="lightgray" stroke="none" points="18.62,-25.88 18.62,-42.12 93.38,-42.12 93.38,-25.88 18.62,-25.88"/>
<text xml:space="preserve" text-anchor="start" x="19.62" y="-29.73" font-family="Arial" font-size="12.00">transport user</text>
<polygon fill="none" stroke="black" points="17.62,-24.88 17.62,-43.12 94.38,-43.12 94.38,-24.88 17.62,-24.88"/>
</a>
</g>
</g>
<!-- transport user need&#45;&gt;transportUser -->
<g id="edge5" class="edge">
<title>transport user need&#45;&gt;transportUser</title>
<path fill="none" stroke="black" d="M163.53,-188.19C163.32,-175.27 161.63,-157.27 155,-143 139.38,-109.4 109.48,-79.07 86.61,-59.17"/>
<polygon fill="black" stroke="black" points="88.98,-56.58 79.08,-52.79 84.45,-61.92 88.98,-56.58"/>
<text xml:space="preserve" text-anchor="middle" x="188.63" y="-110.05" font-family="Arial" font-size="11.00"> desiredResultsOf </text>
<text xml:space="preserve" text-anchor="middle" x="188.63" y="-96.55" font-family="Arial" font-size="11.00"> «some» &#160;</text>
</g>
<!-- Invis&#45;&gt;materialEntity -->
<!-- materialEntity&#45;&gt;transportUser -->
</g>
</svg>
