<?xml version="1.0" encoding="UTF-8" standalone="no"?>
<!DOCTYPE svg PUBLIC "-//W3C//DTD SVG 1.1//EN"
 "http://www.w3.org/Graphics/SVG/1.1/DTD/svg11.dtd">
<!-- Generated by graphviz version 14.0.2 (20251019.1705)
 -->
<!-- Pages: 1 -->
<svg width="200pt" height="132pt"
 viewBox="0.00 0.00 200.00 132.00" xmlns="http://www.w3.org/2000/svg" xmlns:xlink="http://www.w3.org/1999/xlink">
<g id="graph0" class="graph" transform="scale(1 1) rotate(0) translate(4 128)">
<polygon fill="white" stroke="none" points="-4,4 -4,-128 196.25,-128 196.25,4 -4,4"/>
<g id="clust2" class="cluster">
<title>cluster_associated</title>
</g>
<!-- trip aggregator app -->
<g id="node1" class="node">
<title>trip aggregator app</title>
<g id="a_node1"><a xlink:href="../classes/itsVocabulary__trip aggregator app.md" xlink:title="&lt;TABLE&gt;">
<polygon fill="lightgray" stroke="none" points="1,-25.88 1,-42.12 103.5,-42.12 103.5,-25.88 1,-25.88"/>
<text xml:space="preserve" text-anchor="start" x="2" y="-29.73" font-family="Arial" font-size="12.00">trip aggregator app</text>
<polygon fill="none" stroke="black" points="0,-24.88 0,-43.12 104.5,-43.12 104.5,-24.88 0,-24.88"/>
</a>
</g>
</g>
<!-- mobilityApp -->
<g id="node2" class="node">
<title>mobilityApp</title>
<g id="a_node2"><a xlink:href="../mobility app/" xlink:title="&lt;TABLE&gt;" target="_top">
<polygon fill="lightgray" stroke="none" points="19,-97.88 19,-114.12 85.5,-114.12 85.5,-97.88 19,-97.88"/>
<text xml:space="preserve" text-anchor="start" x="20" y="-101.72" font-family="Arial" font-size="12.00">mobility app</text>
<polygon fill="none" stroke="black" points="18,-96.88 18,-115.12 86.5,-115.12 86.5,-96.88 18,-96.88"/>
</a>
</g>
</g>
<!-- trip aggregator app&#45;&gt;mobilityApp -->
<g id="edge1" class="edge">
<title>trip aggregator app&#45;&gt;mobilityApp</title>
<path fill="none" stroke="black" d="M52.25,-51.79C52.25,-59.25 52.25,-68.24 52.25,-76.69"/>
<polygon fill="none" stroke="black" points="48.75,-76.54 52.25,-86.54 55.75,-76.54 48.75,-76.54"/>
</g>
<!-- Invis -->
</g>
</svg>
