<?xml version="1.0" encoding="UTF-8" standalone="no"?>
<!DOCTYPE svg PUBLIC "-//W3C//DTD SVG 1.1//EN"
 "http://www.w3.org/Graphics/SVG/1.1/DTD/svg11.dtd">
<!-- Generated by graphviz version 14.0.2 (20251019.1705)
 -->
<!-- Pages: 1 -->
<svg width="168pt" height="175pt"
 viewBox="0.00 0.00 168.00 175.00" xmlns="http://www.w3.org/2000/svg" xmlns:xlink="http://www.w3.org/1999/xlink">
<g id="graph0" class="graph" transform="scale(1 1) rotate(0) translate(4 171)">
<polygon fill="white" stroke="none" points="-4,4 -4,-171 164,-171 164,4 -4,4"/>
<g id="clust2" class="cluster">
<title>cluster_associated</title>
</g>
<!-- use case -->
<g id="node1" class="node">
<title>use case</title>
<g id="a_node1"><a xlink:href="../classes/itsVocabulary__use case.md" xlink:title="&lt;TABLE&gt;">
<polygon fill="lightgray" stroke="none" points="2,-124.88 2,-141.12 52,-141.12 52,-124.88 2,-124.88"/>
<text xml:space="preserve" text-anchor="start" x="3" y="-128.72" font-family="Arial" font-size="12.00">use case</text>
<polygon fill="none" stroke="black" points="1,-123.88 1,-142.12 53,-142.12 53,-123.88 1,-123.88"/>
</a>
</g>
</g>
<!-- Invis -->
<!-- use case&#45;&gt;Invis -->
<!-- scenario -->
<g id="node3" class="node">
<title>scenario</title>
<g id="a_node3"><a xlink:href="../scenario/" xlink:title="&lt;TABLE&gt;" target="_top">
<polygon fill="lightgray" stroke="none" points="93.12,-25.88 93.12,-42.12 140.88,-42.12 140.88,-25.88 93.12,-25.88"/>
<text xml:space="preserve" text-anchor="start" x="94.12" y="-29.73" font-family="Arial" font-size="12.00">scenario</text>
<polygon fill="none" stroke="black" points="92.12,-24.88 92.12,-43.12 141.88,-43.12 141.88,-24.88 92.12,-24.88"/>
</a>
</g>
</g>
<!-- use case&#45;&gt;scenario -->
<g id="edge3" class="edge">
<title>use case&#45;&gt;scenario</title>
<path fill="none" stroke="black" d="M30.8,-115.06C34.55,-101.55 41.43,-82.83 53,-70 60.49,-61.69 70.43,-54.95 80.24,-49.69"/>
<polygon fill="black" stroke="black" points="81.52,-52.95 88.94,-45.4 78.43,-46.68 81.52,-52.95"/>
<text xml:space="preserve" text-anchor="middle" x="83" y="-86.55" font-family="Arial" font-size="11.00"> aggregates </text>
<text xml:space="preserve" text-anchor="middle" x="83" y="-73.05" font-family="Arial" font-size="11.00"> «some» &#160;</text>
</g>
<!-- Invis&#45;&gt;scenario -->
</g>
</svg>
