<?xml version="1.0" encoding="UTF-8" standalone="no"?>
<!DOCTYPE svg PUBLIC "-//W3C//DTD SVG 1.1//EN"
 "http://www.w3.org/Graphics/SVG/1.1/DTD/svg11.dtd">
<!-- Generated by graphviz version 14.0.2 (20251019.1705)
 -->
<!-- Pages: 1 -->
<svg width="150pt" height="132pt"
 viewBox="0.00 0.00 150.00 132.00" xmlns="http://www.w3.org/2000/svg" xmlns:xlink="http://www.w3.org/1999/xlink">
<g id="graph0" class="graph" transform="scale(1 1) rotate(0) translate(4 128)">
<polygon fill="white" stroke="none" points="-4,4 -4,-128 146,-128 146,4 -4,4"/>
<g id="clust2" class="cluster">
<title>cluster_associated</title>
</g>
<!-- user -->
<g id="node1" class="node">
<title>user</title>
<g id="a_node1"><a xlink:href="../classes/itsVocabulary__user.md" xlink:title="&lt;TABLE&gt;">
<polygon fill="lightgray" stroke="none" points="14.38,-25.88 14.38,-42.12 39.62,-42.12 39.62,-25.88 14.38,-25.88"/>
<text xml:space="preserve" text-anchor="start" x="15.38" y="-29.73" font-family="Arial" font-size="12.00">user</text>
<polygon fill="none" stroke="black" points="13.38,-24.88 13.38,-43.12 40.62,-43.12 40.62,-24.88 13.38,-24.88"/>
</a>
</g>
</g>
<!-- entity -->
<g id="node2" class="node">
<title>entity</title>
<g id="a_node2"><a xlink:href="../entity/" xlink:title="&lt;TABLE&gt;" target="_top">
<polygon fill="lightgray" stroke="none" points="11.75,-97.88 11.75,-114.12 42.25,-114.12 42.25,-97.88 11.75,-97.88"/>
<text xml:space="preserve" text-anchor="start" x="12.75" y="-101.72" font-family="Arial" font-size="12.00">entity</text>
<polygon fill="none" stroke="black" points="10.75,-96.88 10.75,-115.12 43.25,-115.12 43.25,-96.88 10.75,-96.88"/>
</a>
</g>
</g>
<!-- user&#45;&gt;entity -->
<g id="edge1" class="edge">
<title>user&#45;&gt;entity</title>
<path fill="none" stroke="black" d="M27,-51.79C27,-59.25 27,-68.24 27,-76.69"/>
<polygon fill="none" stroke="black" points="23.5,-76.54 27,-86.54 30.5,-76.54 23.5,-76.54"/>
</g>
<!-- Invis -->
</g>
</svg>
