<?xml version="1.0" encoding="UTF-8" standalone="no"?>
<!DOCTYPE svg PUBLIC "-//W3C//DTD SVG 1.1//EN"
 "http://www.w3.org/Graphics/SVG/1.1/DTD/svg11.dtd">
<!-- Generated by graphviz version 14.0.2 (20251019.1705)
 -->
<!-- Pages: 1 -->
<svg width="214pt" height="175pt"
 viewBox="0.00 0.00 214.00 175.00" xmlns="http://www.w3.org/2000/svg" xmlns:xlink="http://www.w3.org/1999/xlink">
<g id="graph0" class="graph" transform="scale(1 1) rotate(0) translate(4 171)">
<polygon fill="white" stroke="none" points="-4,4 -4,-171 209.5,-171 209.5,4 -4,4"/>
<g id="clust2" class="cluster">
<title>cluster_associated</title>
</g>
<!-- vehicle identifier -->
<g id="node1" class="node">
<title>vehicle identifier</title>
<g id="a_node1"><a xlink:href="../classes/itsVocabulary__vehicle identifier.md" xlink:title="&lt;TABLE&gt;">
<polygon fill="lightgray" stroke="none" points="1,-124.88 1,-141.12 90,-141.12 90,-124.88 1,-124.88"/>
<text xml:space="preserve" text-anchor="start" x="2" y="-128.72" font-family="Arial" font-size="12.00">vehicle identifier</text>
<polygon fill="none" stroke="black" points="0,-123.88 0,-142.12 91,-142.12 91,-123.88 0,-123.88"/>
</a>
</g>
</g>
<!-- Invis -->
<!-- vehicle identifier&#45;&gt;Invis -->
<!-- vehicle -->
<g id="node3" class="node">
<title>vehicle</title>
<g id="a_node3"><a xlink:href="../vehicle/" xlink:title="&lt;TABLE&gt;" target="_top">
<polygon fill="lightgray" stroke="none" points="142.38,-25.88 142.38,-42.12 182.62,-42.12 182.62,-25.88 142.38,-25.88"/>
<text xml:space="preserve" text-anchor="start" x="143.38" y="-29.73" font-family="Arial" font-size="12.00">vehicle</text>
<polygon fill="none" stroke="black" points="141.38,-24.88 141.38,-43.12 183.62,-43.12 183.62,-24.88 141.38,-24.88"/>
</a>
</g>
</g>
<!-- vehicle identifier&#45;&gt;vehicle -->
<g id="edge3" class="edge">
<title>vehicle identifier&#45;&gt;vehicle</title>
<path fill="none" stroke="black" d="M35.12,-115.11C28.32,-101.63 22.34,-82.93 32.25,-70 43.48,-55.35 90.29,-45.47 124.59,-40.04"/>
<polygon fill="black" stroke="black" points="124.81,-43.55 134.17,-38.59 123.76,-36.62 124.81,-43.55"/>
<text xml:space="preserve" text-anchor="middle" x="99.38" y="-86.55" font-family="Arial" font-size="11.00"> globallyUniqueIdentifierFor </text>
<text xml:space="preserve" text-anchor="middle" x="99.38" y="-73.05" font-family="Arial" font-size="11.00"> «exactly 1» &#160;</text>
</g>
<!-- Invis&#45;&gt;vehicle -->
</g>
</svg>
