<?xml version="1.0" encoding="UTF-8" standalone="no"?>
<!DOCTYPE svg PUBLIC "-//W3C//DTD SVG 1.1//EN"
 "http://www.w3.org/Graphics/SVG/1.1/DTD/svg11.dtd">
<!-- Generated by graphviz version 14.1.3 (20260303.0454)
 -->
<!-- Pages: 1 -->
<svg width="208pt" height="162pt"
 viewBox="0.00 0.00 208.00 162.00" xmlns="http://www.w3.org/2000/svg" xmlns:xlink="http://www.w3.org/1999/xlink">
<g id="graph0" class="graph" transform="scale(1 1) rotate(0) translate(4 157.5)">
<polygon fill="white" stroke="none" points="-4,4 -4,-157.5 204,-157.5 204,4 -4,4"/>
<g id="clust2" class="cluster">
<title>cluster_associated</title>
</g>
<!-- vehicle load type -->
<g id="node1" class="node">
<title>vehicle load type</title>
<polygon fill="lightgray" stroke="none" points="1,-111.38 1,-127.62 93,-127.62 93,-111.38 1,-111.38"/>
<text xml:space="preserve" text-anchor="start" x="2" y="-115.38" font-family="Arial" font-size="12.00">vehicle load type</text>
<polygon fill="none" stroke="black" points="0,-110.38 0,-128.62 94,-128.62 94,-110.38 0,-110.38"/>
</g>
<!-- Invis -->
<!-- vehicle load type&#45;&gt;Invis -->
<!-- vehicle -->
<g id="node3" class="node">
<title>vehicle</title>
<g id="a_node3"><a xlink:href="../terms/vehicle/" xlink:title="&lt;TABLE&gt;" target="_top">
<polygon fill="lightgray" stroke="none" points="136.88,-25.88 136.88,-42.12 177.12,-42.12 177.12,-25.88 136.88,-25.88"/>
<text xml:space="preserve" text-anchor="start" x="137.88" y="-29.88" font-family="Arial" font-size="12.00">vehicle</text>
<polygon fill="none" stroke="black" points="135.88,-24.88 135.88,-43.12 178.12,-43.12 178.12,-24.88 135.88,-24.88"/>
</a>
</g>
</g>
<!-- vehicle load type&#45;&gt;vehicle -->
<g id="edge3" class="edge">
<title>vehicle load type&#45;&gt;vehicle</title>
<path fill="none" stroke="black" d="M53.93,-101.87C58.93,-91.56 66.55,-78.68 76.5,-70 88.76,-59.3 104.8,-51.44 119.33,-45.91"/>
<polygon fill="black" stroke="black" points="120.37,-49.26 128.64,-42.63 118.04,-42.65 120.37,-49.26"/>
<text xml:space="preserve" text-anchor="middle" x="114.75" y="-73.05" font-family="Arial" font-size="11.00"> load carried by </text>
</g>
<!-- Invis&#45;&gt;vehicle -->
</g>
</svg>
