<?xml version="1.0" encoding="UTF-8" standalone="no"?>
<!DOCTYPE svg PUBLIC "-//W3C//DTD SVG 1.1//EN"
 "http://www.w3.org/Graphics/SVG/1.1/DTD/svg11.dtd">
<!-- Generated by graphviz version 14.0.2 (20251019.1705)
 -->
<!-- Pages: 1 -->
<svg width="483pt" height="709pt"
 viewBox="0.00 0.00 483.00 709.00" xmlns="http://www.w3.org/2000/svg" xmlns:xlink="http://www.w3.org/1999/xlink">
<g id="graph0" class="graph" transform="scale(1 1) rotate(0) translate(4 704.5)">
<polygon fill="white" stroke="none" points="-4,4 -4,-704.5 479.25,-704.5 479.25,4 -4,4"/>
<g id="clust2" class="cluster">
<title>cluster_associated</title>
</g>
<!-- vehicle -->
<g id="node1" class="node">
<title>vehicle</title>
<g id="a_node1"><a xlink:href="../classes/itsVocabulary__vehicle.md" xlink:title="&lt;TABLE&gt;">
<polygon fill="lightgray" stroke="none" points="275.88,-575.38 275.88,-591.62 316.12,-591.62 316.12,-575.38 275.88,-575.38"/>
<text xml:space="preserve" text-anchor="start" x="276.88" y="-579.23" font-family="Arial" font-size="12.00">vehicle</text>
<polygon fill="none" stroke="black" points="274.88,-574.38 274.88,-592.62 317.12,-592.62 317.12,-574.38 274.88,-574.38"/>
</a>
</g>
</g>
<!-- materialEntity -->
<g id="node2" class="node">
<title>materialEntity</title>
<g id="a_node2"><a xlink:href="../material entity/" xlink:title="&lt;TABLE&gt;" target="_top">
<polygon fill="lightgray" stroke="none" points="308.88,-674.38 308.88,-690.62 385.12,-690.62 385.12,-674.38 308.88,-674.38"/>
<text xml:space="preserve" text-anchor="start" x="309.88" y="-678.23" font-family="Arial" font-size="12.00">material entity</text>
<polygon fill="none" stroke="black" points="307.88,-673.38 307.88,-691.62 386.12,-691.62 386.12,-673.38 307.88,-673.38"/>
</a>
</g>
</g>
<!-- vehicle&#45;&gt;materialEntity -->
<g id="edge1" class="edge">
<title>vehicle&#45;&gt;materialEntity</title>
<path fill="none" stroke="black" d="M315.58,-601.21C320.89,-606.59 326.22,-612.88 330,-619.5 335.9,-629.82 339.83,-642.28 342.41,-653.32"/>
<polygon fill="none" stroke="black" points="338.98,-653.99 344.41,-663.08 345.83,-652.58 338.98,-653.99"/>
</g>
<!-- Invis -->
<!-- vehicle&#45;&gt;Invis -->
<!-- motor -->
<g id="node7" class="node">
<title>motor</title>
<g id="a_node7"><a xlink:href="../motor/" xlink:title="&lt;TABLE&gt;" target="_top">
<polygon fill="lightgray" stroke="none" points="131,-244.88 131,-261.12 163,-261.12 163,-244.88 131,-244.88"/>
<text xml:space="preserve" text-anchor="start" x="132" y="-248.72" font-family="Arial" font-size="12.00">motor</text>
<polygon fill="none" stroke="black" points="130,-243.88 130,-262.12 164,-262.12 164,-243.88 130,-243.88"/>
</a>
</g>
</g>
<!-- vehicle&#45;&gt;motor -->
<g id="edge14" class="edge">
<title>vehicle&#45;&gt;motor</title>
<path fill="none" stroke="black" d="M290.21,-565.78C284.94,-549.08 278,-522.58 278,-499 278,-499 278,-499 278,-351 278,-304.25 223.45,-277.45 184.75,-264.31"/>
<polygon fill="black" stroke="black" points="185.86,-260.99 175.27,-261.27 183.73,-267.66 185.86,-260.99"/>
<text xml:space="preserve" text-anchor="middle" x="301.62" y="-428.05" font-family="Arial" font-size="11.00"> has </text>
<text xml:space="preserve" text-anchor="middle" x="301.62" y="-414.55" font-family="Arial" font-size="11.00"> «min 0» &#160;</text>
</g>
<!-- vehicleInputDevice -->
<g id="node9" class="node">
<title>vehicleInputDevice</title>
<g id="a_node9"><a xlink:href="../vehicle input device/" xlink:title="&lt;TABLE&gt;" target="_top">
<polygon fill="lightgray" stroke="none" points="105.12,-98.88 105.12,-115.12 212.88,-115.12 212.88,-98.88 105.12,-98.88"/>
<text xml:space="preserve" text-anchor="start" x="106.12" y="-102.72" font-family="Arial" font-size="12.00">vehicle input device</text>
<polygon fill="none" stroke="black" points="104.12,-97.88 104.12,-116.12 213.88,-116.12 213.88,-97.88 104.12,-97.88"/>
</a>
</g>
</g>
<!-- vehicle&#45;&gt;vehicleInputDevice -->
<g id="edge15" class="edge">
<title>vehicle&#45;&gt;vehicleInputDevice</title>
<path fill="none" stroke="black" d="M316.58,-565.56C332.91,-550.11 353,-525.68 353,-499 353,-499 353,-499 353,-179 353,-151.05 281.09,-130.82 224.83,-119.26"/>
<polygon fill="black" stroke="black" points="225.79,-115.88 215.3,-117.36 224.42,-122.75 225.79,-115.88"/>
<text xml:space="preserve" text-anchor="middle" x="376.62" y="-355.05" font-family="Arial" font-size="11.00"> has </text>
<text xml:space="preserve" text-anchor="middle" x="376.62" y="-341.55" font-family="Arial" font-size="11.00"> «some» &#160;</text>
</g>
<!-- wheel -->
<g id="node10" class="node">
<title>wheel</title>
<g id="a_node10"><a xlink:href="../wheel/" xlink:title="&lt;TABLE&gt;" target="_top">
<polygon fill="lightgray" stroke="none" points="155.88,-25.88 155.88,-42.12 190.12,-42.12 190.12,-25.88 155.88,-25.88"/>
<text xml:space="preserve" text-anchor="start" x="156.88" y="-29.73" font-family="Arial" font-size="12.00">wheel</text>
<polygon fill="none" stroke="black" points="154.88,-24.88 154.88,-43.12 191.12,-43.12 191.12,-24.88 154.88,-24.88"/>
</a>
</g>
</g>
<!-- vehicle&#45;&gt;wheel -->
<g id="edge13" class="edge">
<title>vehicle&#45;&gt;wheel</title>
<path fill="none" stroke="black" d="M322.71,-577.97C361.28,-569.74 428,-548.35 428,-499 428,-499 428,-499 428,-106 428,-61.49 281.99,-43.69 210.94,-37.66"/>
<polygon fill="black" stroke="black" points="211.57,-34.2 201.32,-36.88 211,-41.18 211.57,-34.2"/>
<text xml:space="preserve" text-anchor="middle" x="451.62" y="-305.55" font-family="Arial" font-size="11.00"> has </text>
<text xml:space="preserve" text-anchor="middle" x="451.62" y="-292.05" font-family="Arial" font-size="11.00"> «min 0» &#160;</text>
</g>
<!-- Nbd36f624475e4223820ce6aa136b6940 -->
<g id="node11" class="node">
<title>Nbd36f624475e4223820ce6aa136b6940</title>
<polygon fill="lightyellow" stroke="none" points="16.25,-673.38 16.25,-691.62 75.75,-691.62 75.75,-673.38 16.25,-673.38"/>
<text xml:space="preserve" text-anchor="start" x="18.25" y="-678.23" font-family="Arial" font-size="12.00">«unionOf»</text>
<polygon fill="none" stroke="black" points="16.25,-673.38 16.25,-691.62 75.75,-691.62 75.75,-673.38 16.25,-673.38"/>
</g>
<!-- vehicle&#45;&gt;Nbd36f624475e4223820ce6aa136b6940 -->
<g id="edge12" class="edge">
<title>vehicle&#45;&gt;Nbd36f624475e4223820ce6aa136b6940</title>
<path fill="none" stroke="black" d="M269.32,-594.88C256.37,-599.71 240.5,-605.29 226,-609.5 206.64,-615.12 200.85,-613.06 181.75,-619.5 148.48,-630.72 112.4,-647.44 85.8,-660.68"/>
<polygon fill="black" stroke="black" points="84.44,-657.45 77.09,-665.07 87.59,-663.7 84.44,-657.45"/>
<text xml:space="preserve" text-anchor="middle" x="223.38" y="-636.05" font-family="Arial" font-size="11.00"> ddtControlledBy </text>
<text xml:space="preserve" text-anchor="middle" x="223.38" y="-622.55" font-family="Arial" font-size="11.00"> «exactly 1» &#160;</text>
</g>
<!-- N9ad9604d7a1f42d29808d0a140f82908 -->
<g id="node12" class="node">
<title>N9ad9604d7a1f42d29808d0a140f82908</title>
<polygon fill="lightyellow" stroke="none" points="222.25,-673.38 222.25,-691.62 281.75,-691.62 281.75,-673.38 222.25,-673.38"/>
<text xml:space="preserve" text-anchor="start" x="224.25" y="-678.23" font-family="Arial" font-size="12.00">«unionOf»</text>
<polygon fill="none" stroke="black" points="222.25,-673.38 222.25,-691.62 281.75,-691.62 281.75,-673.38 222.25,-673.38"/>
</g>
<!-- vehicle&#45;&gt;N9ad9604d7a1f42d29808d0a140f82908 -->
<g id="edge18" class="edge">
<title>vehicle&#45;&gt;N9ad9604d7a1f42d29808d0a140f82908</title>
<path fill="none" stroke="black" d="M288.42,-601.2C281.83,-615.75 272.13,-637.11 264.41,-654.15"/>
<polygon fill="black" stroke="black" points="261.23,-652.67 260.29,-663.23 267.61,-655.56 261.23,-652.67"/>
<text xml:space="preserve" text-anchor="middle" x="302.86" y="-636.05" font-family="Arial" font-size="11.00"> canBe </text>
<text xml:space="preserve" text-anchor="middle" x="302.86" y="-622.55" font-family="Arial" font-size="11.00"> «min 1» &#160;</text>
</g>
<!-- ads -->
<g id="node4" class="node">
<title>ads</title>
<g id="a_node4"><a xlink:href="../ADS/" xlink:title="&lt;TABLE&gt;" target="_top">
<polygon fill="lightgray" stroke="none" points="117.25,-489.88 117.25,-506.12 144.75,-506.12 144.75,-489.88 117.25,-489.88"/>
<text xml:space="preserve" text-anchor="start" x="118.25" y="-493.73" font-family="Arial" font-size="12.00">ADS</text>
<polygon fill="none" stroke="black" points="116.25,-488.88 116.25,-507.12 145.75,-507.12 145.75,-488.88 116.25,-488.88"/>
</a>
</g>
</g>
<!-- Invis&#45;&gt;ads -->
<!-- connected -->
<g id="node5" class="node">
<title>connected</title>
<g id="a_node5"><a xlink:href="../connected/" xlink:title="&lt;TABLE&gt;" target="_top">
<polygon fill="lightgray" stroke="none" points="106.25,-416.88 106.25,-433.12 163.75,-433.12 163.75,-416.88 106.25,-416.88"/>
<text xml:space="preserve" text-anchor="start" x="107.25" y="-420.73" font-family="Arial" font-size="12.00">connected</text>
<polygon fill="none" stroke="black" points="105.25,-415.88 105.25,-434.12 164.75,-434.12 164.75,-415.88 105.25,-415.88"/>
</a>
</g>
</g>
<!-- ads&#45;&gt;connected -->
<!-- driver -->
<g id="node6" class="node">
<title>driver</title>
<g id="a_node6"><a xlink:href="../driver/" xlink:title="&lt;TABLE&gt;" target="_top">
<polygon fill="lightgray" stroke="none" points="119,-343.88 119,-360.12 151,-360.12 151,-343.88 119,-343.88"/>
<text xml:space="preserve" text-anchor="start" x="120" y="-347.73" font-family="Arial" font-size="12.00">driver</text>
<polygon fill="none" stroke="black" points="118,-342.88 118,-361.12 152,-361.12 152,-342.88 118,-342.88"/>
</a>
</g>
</g>
<!-- connected&#45;&gt;driver -->
<!-- driver&#45;&gt;motor -->
<!-- off&#45;grid -->
<g id="node8" class="node">
<title>off&#45;grid</title>
<g id="a_node8"><a xlink:href="../off-grid/" xlink:title="&lt;TABLE&gt;" target="_top">
<polygon fill="lightgray" stroke="none" points="139.62,-171.88 139.62,-188.12 178.38,-188.12 178.38,-171.88 139.62,-171.88"/>
<text xml:space="preserve" text-anchor="start" x="140.62" y="-175.72" font-family="Arial" font-size="12.00">off&#45;grid</text>
<polygon fill="none" stroke="black" points="138.62,-170.88 138.62,-189.12 179.38,-189.12 179.38,-170.88 138.62,-170.88"/>
</a>
</g>
</g>
<!-- motor&#45;&gt;off&#45;grid -->
<!-- off&#45;grid&#45;&gt;vehicleInputDevice -->
<!-- vehicleInputDevice&#45;&gt;wheel -->
<!-- Nbd36f624475e4223820ce6aa136b6940&#45;&gt;ads -->
<g id="edge10" class="edge">
<title>Nbd36f624475e4223820ce6aa136b6940&#45;&gt;ads</title>
<path fill="none" stroke="black" stroke-dasharray="1,5" d="M43.56,-664.71C40.95,-641.17 39.13,-597.64 55.25,-565.5 64.15,-547.75 80.04,-532.68 94.98,-521.39"/>
<polygon fill="black" stroke="black" points="96.76,-524.41 102.85,-515.74 92.69,-518.72 96.76,-524.41"/>
<text xml:space="preserve" text-anchor="middle" x="75.12" y="-579.8" font-family="Arial" font-size="11.00">member</text>
</g>
<!-- Nbd36f624475e4223820ce6aa136b6940&#45;&gt;driver -->
<g id="edge11" class="edge">
<title>Nbd36f624475e4223820ce6aa136b6940&#45;&gt;driver</title>
<path fill="none" stroke="black" stroke-dasharray="1,5" d="M32.45,-664.76C18.88,-646.28 0,-615.07 0,-584.5 0,-584.5 0,-584.5 0,-424 0,-380.01 56.83,-363.22 96.75,-356.84"/>
<polygon fill="black" stroke="black" points="97.1,-360.33 106.51,-355.46 96.11,-353.4 97.1,-360.33"/>
<text xml:space="preserve" text-anchor="middle" x="19.88" y="-494.3" font-family="Arial" font-size="11.00">member</text>
</g>
<!-- N9ad9604d7a1f42d29808d0a140f82908&#45;&gt;connected -->
<g id="edge16" class="edge">
<title>N9ad9604d7a1f42d29808d0a140f82908&#45;&gt;connected</title>
<path fill="none" stroke="black" stroke-dasharray="1,5" d="M222.49,-681.85C194.89,-680.4 155.01,-673.37 135,-646.5 127.83,-636.88 127.89,-629.17 135,-619.5 143.83,-607.49 158.17,-621.51 167,-609.5 201.09,-563.13 182.21,-535.51 167,-480 164.38,-470.44 159.58,-460.85 154.48,-452.46"/>
<polygon fill="black" stroke="black" points="157.46,-450.63 149.06,-444.18 151.6,-454.46 157.46,-450.63"/>
<text xml:space="preserve" text-anchor="middle" x="205.25" y="-537.05" font-family="Arial" font-size="11.00">member</text>
</g>
<!-- N9ad9604d7a1f42d29808d0a140f82908&#45;&gt;off&#45;grid -->
<g id="edge17" class="edge">
<title>N9ad9604d7a1f42d29808d0a140f82908&#45;&gt;off&#45;grid</title>
<path fill="none" stroke="black" stroke-dasharray="1,5" d="M249.17,-664.69C244.55,-637.3 235.1,-581.36 227,-534 215.98,-469.54 202,-454.4 202,-389 202,-389 202,-389 202,-252 202,-235.3 193.19,-219.17 183.55,-206.52"/>
<polygon fill="black" stroke="black" points="186.51,-204.62 177.45,-199.13 181.11,-209.07 186.51,-204.62"/>
<text xml:space="preserve" text-anchor="middle" x="226.06" y="-421.3" font-family="Arial" font-size="11.00">member</text>
</g>
</g>
</svg>
