<?xml version="1.0" encoding="UTF-8" standalone="no"?>
<!DOCTYPE svg PUBLIC "-//W3C//DTD SVG 1.1//EN"
 "http://www.w3.org/Graphics/SVG/1.1/DTD/svg11.dtd">
<!-- Generated by graphviz version 14.1.3 (20260303.0454)
 -->
<!-- Pages: 1 -->
<svg width="236pt" height="162pt"
 viewBox="0.00 0.00 236.00 162.00" xmlns="http://www.w3.org/2000/svg" xmlns:xlink="http://www.w3.org/1999/xlink">
<g id="graph0" class="graph" transform="scale(1 1) rotate(0) translate(4 157.5)">
<polygon fill="white" stroke="none" points="-4,4 -4,-157.5 232,-157.5 232,4 -4,4"/>
<g id="clust2" class="cluster">
<title>cluster_associated</title>
</g>
<!-- architecture view -->
<g id="node1" class="node">
<title>architecture view</title>
<polygon fill="lightgray" stroke="none" points="1,-111.38 1,-127.62 93,-127.62 93,-111.38 1,-111.38"/>
<text xml:space="preserve" text-anchor="start" x="2" y="-115.38" font-family="Arial" font-size="12.00">architecture view</text>
<polygon fill="none" stroke="black" points="0,-110.38 0,-128.62 94,-128.62 94,-110.38 0,-110.38"/>
</g>
<!-- Invis -->
<!-- architecture view&#45;&gt;Invis -->
<!-- architectureModel -->
<g id="node3" class="node">
<title>architectureModel</title>
<g id="a_node3"><a xlink:href="../terms/architecture model/" xlink:title="&lt;TABLE&gt;" target="_top">
<polygon fill="lightgray" stroke="none" points="110.88,-25.88 110.88,-42.12 211.12,-42.12 211.12,-25.88 110.88,-25.88"/>
<text xml:space="preserve" text-anchor="start" x="111.88" y="-29.88" font-family="Arial" font-size="12.00">architecture model</text>
<polygon fill="none" stroke="black" points="109.88,-24.88 109.88,-43.12 212.12,-43.12 212.12,-24.88 109.88,-24.88"/>
</a>
</g>
</g>
<!-- architecture view&#45;&gt;architectureModel -->
<g id="edge3" class="edge">
<title>architecture view&#45;&gt;architectureModel</title>
<path fill="none" stroke="black" d="M61.84,-101.55C71.05,-91.62 83.49,-79.26 96,-70 102.02,-65.54 108.68,-61.3 115.38,-57.4"/>
<polygon fill="black" stroke="black" points="116.79,-60.62 123.82,-52.69 113.38,-54.5 116.79,-60.62"/>
<text xml:space="preserve" text-anchor="middle" x="126" y="-73.05" font-family="Arial" font-size="11.00"> aggregates </text>
</g>
<!-- Invis&#45;&gt;architectureModel -->
</g>
</svg>
