<?xml version="1.0" encoding="UTF-8" standalone="no"?>
<!DOCTYPE svg PUBLIC "-//W3C//DTD SVG 1.1//EN"
 "http://www.w3.org/Graphics/SVG/1.1/DTD/svg11.dtd">
<!-- Generated by graphviz version 14.1.3 (20260303.0454)
 -->
<!-- Pages: 1 -->
<svg width="199pt" height="368pt"
 viewBox="0.00 0.00 199.00 368.00" xmlns="http://www.w3.org/2000/svg" xmlns:xlink="http://www.w3.org/1999/xlink">
<g id="graph0" class="graph" transform="scale(1 1) rotate(0) translate(4 364)">
<polygon fill="white" stroke="none" points="-4,4 -4,-364 194.62,-364 194.62,4 -4,4"/>
<g id="clust2" class="cluster">
<title>cluster_associated</title>
</g>
<!-- carriageway -->
<g id="node1" class="node">
<title>carriageway</title>
<g id="a_node1"><a xlink:href="../terms/carriageway/" xlink:title="&lt;TABLE&gt;">
<polygon fill="lightgray" stroke="none" points="1,-317.88 1,-334.12 68.25,-334.12 68.25,-317.88 1,-317.88"/>
<text xml:space="preserve" text-anchor="start" x="2" y="-321.88" font-family="Arial" font-size="12.00">carriageway</text>
<polygon fill="none" stroke="black" points="0,-316.88 0,-335.12 69.25,-335.12 69.25,-316.88 0,-316.88"/>
</a>
</g>
</g>
<!-- Invis -->
<!-- carriageway&#45;&gt;Invis -->
<!-- usableWidth -->
<g id="node6" class="node">
<title>usableWidth</title>
<g id="a_node6"><a xlink:href="../terms/usable width/" xlink:title="&lt;TABLE&gt;" target="_top">
<polygon fill="lightgray" stroke="none" points="101.88,-25.88 101.88,-42.12 171.38,-42.12 171.38,-25.88 101.88,-25.88"/>
<text xml:space="preserve" text-anchor="start" x="102.88" y="-29.88" font-family="Arial" font-size="12.00">usable width</text>
<polygon fill="none" stroke="black" points="100.88,-24.88 100.88,-43.12 172.38,-43.12 172.38,-24.88 100.88,-24.88"/>
</a>
</g>
</g>
<!-- carriageway&#45;&gt;usableWidth -->
<g id="edge6" class="edge">
<title>carriageway&#45;&gt;usableWidth</title>
<path fill="none" stroke="black" d="M32.02,-308.12C30.03,-293.76 27.62,-272.58 27.62,-254 27.62,-254 27.62,-254 27.62,-106 27.62,-74.22 60.56,-55.93 90.22,-45.89"/>
<polygon fill="black" stroke="black" points="90.98,-49.32 99.49,-43.01 88.9,-42.64 90.98,-49.32"/>
<text xml:space="preserve" text-anchor="middle" x="55" y="-176.3" font-family="Arial" font-size="11.00"> comprises </text>
</g>
<!-- hardshoulder -->
<g id="node3" class="node">
<title>hardshoulder</title>
<polygon fill="lightgray" stroke="none" points="101.38,-244.88 101.38,-261.12 173.88,-261.12 173.88,-244.88 101.38,-244.88"/>
<text xml:space="preserve" text-anchor="start" x="102.38" y="-248.88" font-family="Arial" font-size="12.00">hardshoulder</text>
<polygon fill="none" stroke="black" points="100.38,-243.88 100.38,-262.12 174.88,-262.12 174.88,-243.88 100.38,-243.88"/>
</g>
<!-- Invis&#45;&gt;hardshoulder -->
<!-- hardstanding -->
<g id="node4" class="node">
<title>hardstanding</title>
<g id="a_node4"><a xlink:href="../terms/hardstanding/" xlink:title="&lt;TABLE&gt;" target="_top">
<polygon fill="lightgray" stroke="none" points="101.75,-171.88 101.75,-188.12 173.5,-188.12 173.5,-171.88 101.75,-171.88"/>
<text xml:space="preserve" text-anchor="start" x="102.75" y="-175.88" font-family="Arial" font-size="12.00">hardstanding</text>
<polygon fill="none" stroke="black" points="100.75,-170.88 100.75,-189.12 174.5,-189.12 174.5,-170.88 100.75,-170.88"/>
</a>
</g>
</g>
<!-- hardshoulder&#45;&gt;hardstanding -->
<!-- lay&#45;by -->
<g id="node5" class="node">
<title>lay&#45;by</title>
<g id="a_node5"><a xlink:href="../terms/lay-by/" xlink:title="&lt;TABLE&gt;" target="_top">
<polygon fill="lightgray" stroke="none" points="119.5,-98.88 119.5,-115.12 153.75,-115.12 153.75,-98.88 119.5,-98.88"/>
<text xml:space="preserve" text-anchor="start" x="120.5" y="-102.88" font-family="Arial" font-size="12.00">lay&#45;by</text>
<polygon fill="none" stroke="black" points="118.5,-97.88 118.5,-116.12 154.75,-116.12 154.75,-97.88 118.5,-97.88"/>
</a>
</g>
</g>
<!-- hardstanding&#45;&gt;lay&#45;by -->
<!-- lay&#45;by&#45;&gt;usableWidth -->
</g>
</svg>
