<?xml version="1.0" encoding="UTF-8" standalone="no"?>
<!DOCTYPE svg PUBLIC "-//W3C//DTD SVG 1.1//EN"
 "http://www.w3.org/Graphics/SVG/1.1/DTD/svg11.dtd">
<!-- Generated by graphviz version 14.1.3 (20260303.0454)
 -->
<!-- Pages: 1 -->
<svg width="294pt" height="162pt"
 viewBox="0.00 0.00 294.00 162.00" xmlns="http://www.w3.org/2000/svg" xmlns:xlink="http://www.w3.org/1999/xlink">
<g id="graph0" class="graph" transform="scale(1 1) rotate(0) translate(4 157.5)">
<polygon fill="white" stroke="none" points="-4,4 -4,-157.5 290.38,-157.5 290.38,4 -4,4"/>
<g id="clust2" class="cluster">
<title>cluster_associated</title>
</g>
<!-- driving automation system -->
<g id="node1" class="node">
<title>driving automation system</title>
<polygon fill="lightgray" stroke="none" points="1,-111.38 1,-127.62 141.75,-127.62 141.75,-111.38 1,-111.38"/>
<text xml:space="preserve" text-anchor="start" x="2" y="-115.38" font-family="Arial" font-size="12.00">driving automation system</text>
<polygon fill="none" stroke="black" points="0,-110.38 0,-128.62 142.75,-128.62 142.75,-110.38 0,-110.38"/>
</g>
<!-- Invis -->
<!-- driving automation system&#45;&gt;Invis -->
<!-- dynamicDrivingTask -->
<g id="node3" class="node">
<title>dynamicDrivingTask</title>
<g id="a_node3"><a xlink:href="../terms/dynamic driving task/" xlink:title="&lt;TABLE&gt;" target="_top">
<polygon fill="lightgray" stroke="none" points="159,-25.88 159,-42.12 269.75,-42.12 269.75,-25.88 159,-25.88"/>
<text xml:space="preserve" text-anchor="start" x="160" y="-29.88" font-family="Arial" font-size="12.00">dynamic driving task</text>
<polygon fill="none" stroke="black" points="158,-24.88 158,-43.12 270.75,-43.12 270.75,-24.88 158,-24.88"/>
</a>
</g>
</g>
<!-- driving automation system&#45;&gt;dynamicDrivingTask -->
<g id="edge3" class="edge">
<title>driving automation system&#45;&gt;dynamicDrivingTask</title>
<path fill="none" stroke="black" d="M76.97,-101.94C81.33,-91.4 88.38,-78.22 98.62,-70 112.66,-58.74 130.27,-51.09 147.49,-45.91"/>
<polygon fill="black" stroke="black" points="147.95,-49.41 156.67,-43.39 146.1,-42.66 147.95,-49.41"/>
<text xml:space="preserve" text-anchor="middle" x="153" y="-73.05" font-family="Arial" font-size="11.00"> performs part or all of </text>
</g>
<!-- Invis&#45;&gt;dynamicDrivingTask -->
</g>
</svg>
