<?xml version="1.0" encoding="UTF-8" standalone="no"?>
<!DOCTYPE svg PUBLIC "-//W3C//DTD SVG 1.1//EN"
 "http://www.w3.org/Graphics/SVG/1.1/DTD/svg11.dtd">
<!-- Generated by graphviz version 14.1.3 (20260303.0454)
 -->
<!-- Pages: 1 -->
<svg width="270pt" height="219pt"
 viewBox="0.00 0.00 270.00 219.00" xmlns="http://www.w3.org/2000/svg" xmlns:xlink="http://www.w3.org/1999/xlink">
<g id="graph0" class="graph" transform="scale(1 1) rotate(0) translate(4 214.5)">
<polygon fill="white" stroke="none" points="-4,4 -4,-214.5 265.5,-214.5 265.5,4 -4,4"/>
<g id="clust2" class="cluster">
<title>cluster_associated</title>
</g>
<!-- ITS on&#45;board equipment -->
<g id="node1" class="node">
<title>ITS on&#45;board equipment</title>
<polygon fill="lightgray" stroke="none" points="129.5,-111.38 129.5,-127.62 260.5,-127.62 260.5,-111.38 129.5,-111.38"/>
<text xml:space="preserve" text-anchor="start" x="130.5" y="-115.38" font-family="Arial" font-size="12.00">ITS on&#45;board equipment</text>
<polygon fill="none" stroke="black" points="128.5,-110.38 128.5,-128.62 261.5,-128.62 261.5,-110.38 128.5,-110.38"/>
</g>
<!-- vehicleSystem -->
<g id="node2" class="node">
<title>vehicleSystem</title>
<g id="a_node2"><a xlink:href="../terms/vehicle system/" xlink:title="&lt;TABLE&gt;" target="_top">
<polygon fill="lightgray" stroke="none" points="154.62,-184.38 154.62,-200.62 235.38,-200.62 235.38,-184.38 154.62,-184.38"/>
<text xml:space="preserve" text-anchor="start" x="155.62" y="-188.38" font-family="Arial" font-size="12.00">vehicle system</text>
<polygon fill="none" stroke="black" points="153.62,-183.38 153.62,-201.62 236.38,-201.62 236.38,-183.38 153.62,-183.38"/>
</a>
</g>
</g>
<!-- ITS on&#45;board equipment&#45;&gt;vehicleSystem -->
<g id="edge1" class="edge">
<title>ITS on&#45;board equipment&#45;&gt;vehicleSystem</title>
<path fill="none" stroke="black" d="M195,-137.21C195,-144.97 195,-154.42 195,-163.24"/>
<polygon fill="none" stroke="black" points="191.5,-163.16 195,-173.16 198.5,-163.16 191.5,-163.16"/>
</g>
<!-- Invis -->
<!-- ITS on&#45;board equipment&#45;&gt;Invis -->
<!-- itsOn&#45;boardUnit -->
<g id="node4" class="node">
<title>itsOn&#45;boardUnit</title>
<g id="a_node4"><a xlink:href="../terms/ITS on-board unit/" xlink:title="&lt;TABLE&gt;" target="_top">
<polygon fill="lightgray" stroke="none" points="16.88,-25.88 16.88,-42.12 111.12,-42.12 111.12,-25.88 16.88,-25.88"/>
<text xml:space="preserve" text-anchor="start" x="17.88" y="-29.88" font-family="Arial" font-size="12.00">ITS on&#45;board unit</text>
<polygon fill="none" stroke="black" points="15.88,-24.88 15.88,-43.12 112.12,-43.12 112.12,-24.88 15.88,-24.88"/>
</a>
</g>
</g>
<!-- ITS on&#45;board equipment&#45;&gt;itsOn&#45;boardUnit -->
<g id="edge4" class="edge">
<title>ITS on&#45;board equipment&#45;&gt;itsOn&#45;boardUnit</title>
<path fill="none" stroke="black" d="M168.49,-101.6C148.78,-89.04 121.67,-71.76 100,-57.94"/>
<polygon fill="black" stroke="black" points="102.06,-55.11 91.75,-52.69 98.3,-61.01 102.06,-55.11"/>
<text xml:space="preserve" text-anchor="middle" x="164.72" y="-73.05" font-family="Arial" font-size="11.00"> comprises </text>
</g>
<!-- Invis&#45;&gt;itsOn&#45;boardUnit -->
</g>
</svg>
