<?xml version="1.0" encoding="UTF-8" standalone="no"?>
<!DOCTYPE svg PUBLIC "-//W3C//DTD SVG 1.1//EN"
 "http://www.w3.org/Graphics/SVG/1.1/DTD/svg11.dtd">
<!-- Generated by graphviz version 14.1.3 (20260303.0454)
 -->
<!-- Pages: 1 -->
<svg width="218pt" height="219pt"
 viewBox="0.00 0.00 218.00 219.00" xmlns="http://www.w3.org/2000/svg" xmlns:xlink="http://www.w3.org/1999/xlink">
<g id="graph0" class="graph" transform="scale(1 1) rotate(0) translate(4 214.5)">
<polygon fill="white" stroke="none" points="-4,4 -4,-214.5 213.5,-214.5 213.5,4 -4,4"/>
<g id="clust2" class="cluster">
<title>cluster_associated</title>
</g>
<!-- ITS component -->
<g id="node1" class="node">
<title>ITS component</title>
<polygon fill="lightgray" stroke="none" points="125.5,-111.38 125.5,-127.62 208.5,-127.62 208.5,-111.38 125.5,-111.38"/>
<text xml:space="preserve" text-anchor="start" x="126.5" y="-115.38" font-family="Arial" font-size="12.00">ITS component</text>
<polygon fill="none" stroke="black" points="124.5,-110.38 124.5,-128.62 209.5,-128.62 209.5,-110.38 124.5,-110.38"/>
</g>
<!-- physicalObject -->
<g id="node2" class="node">
<title>physicalObject</title>
<g id="a_node2"><a xlink:href="../terms/physical object/" xlink:title="&lt;TABLE&gt;" target="_top">
<polygon fill="lightgray" stroke="none" points="126.25,-184.38 126.25,-200.62 207.75,-200.62 207.75,-184.38 126.25,-184.38"/>
<text xml:space="preserve" text-anchor="start" x="127.25" y="-188.38" font-family="Arial" font-size="12.00">physical object</text>
<polygon fill="none" stroke="black" points="125.25,-183.38 125.25,-201.62 208.75,-201.62 208.75,-183.38 125.25,-183.38"/>
</a>
</g>
</g>
<!-- ITS component&#45;&gt;physicalObject -->
<g id="edge1" class="edge">
<title>ITS component&#45;&gt;physicalObject</title>
<path fill="none" stroke="black" d="M167,-137.21C167,-144.97 167,-154.42 167,-163.24"/>
<polygon fill="none" stroke="black" points="163.5,-163.16 167,-173.16 170.5,-163.16 163.5,-163.16"/>
</g>
<!-- Invis -->
<!-- ITS component&#45;&gt;Invis -->
<!-- functionalObject -->
<g id="node4" class="node">
<title>functionalObject</title>
<g id="a_node4"><a xlink:href="../terms/functional object/" xlink:title="&lt;TABLE&gt;" target="_top">
<polygon fill="lightgray" stroke="none" points="17.5,-25.88 17.5,-42.12 106.5,-42.12 106.5,-25.88 17.5,-25.88"/>
<text xml:space="preserve" text-anchor="start" x="18.5" y="-29.88" font-family="Arial" font-size="12.00">functional object</text>
<polygon fill="none" stroke="black" points="16.5,-24.88 16.5,-43.12 107.5,-43.12 107.5,-24.88 16.5,-24.88"/>
</a>
</g>
</g>
<!-- ITS component&#45;&gt;functionalObject -->
<g id="edge4" class="edge">
<title>ITS component&#45;&gt;functionalObject</title>
<path fill="none" stroke="black" d="M145.75,-101.6C130.24,-89.27 109,-72.38 91.8,-58.69"/>
<polygon fill="black" stroke="black" points="94.41,-56.3 84.4,-52.81 90.05,-61.78 94.41,-56.3"/>
<text xml:space="preserve" text-anchor="middle" x="150.79" y="-73.05" font-family="Arial" font-size="11.00"> aggregates </text>
</g>
<!-- Invis&#45;&gt;functionalObject -->
</g>
</svg>
