<?xml version="1.0" encoding="UTF-8" standalone="no"?>
<!DOCTYPE svg PUBLIC "-//W3C//DTD SVG 1.1//EN"
 "http://www.w3.org/Graphics/SVG/1.1/DTD/svg11.dtd">
<!-- Generated by graphviz version 14.1.3 (20260303.0454)
 -->
<!-- Pages: 1 -->
<svg width="258pt" height="292pt"
 viewBox="0.00 0.00 258.00 292.00" xmlns="http://www.w3.org/2000/svg" xmlns:xlink="http://www.w3.org/1999/xlink">
<g id="graph0" class="graph" transform="scale(1 1) rotate(0) translate(4 287.5)">
<polygon fill="white" stroke="none" points="-4,4 -4,-287.5 253.75,-287.5 253.75,4 -4,4"/>
<g id="clust2" class="cluster">
<title>cluster_associated</title>
</g>
<!-- ITS&#45;SU service provider -->
<g id="node1" class="node">
<title>ITS&#45;SU service provider</title>
<polygon fill="lightgray" stroke="none" points="119.25,-184.38 119.25,-200.62 248.75,-200.62 248.75,-184.38 119.25,-184.38"/>
<text xml:space="preserve" text-anchor="start" x="120.25" y="-188.38" font-family="Arial" font-size="12.00">ITS&#45;SU service provider</text>
<polygon fill="none" stroke="black" points="118.25,-183.38 118.25,-201.62 249.75,-201.62 249.75,-183.38 118.25,-183.38"/>
</g>
<!-- serviceProvider -->
<g id="node2" class="node">
<title>serviceProvider</title>
<g id="a_node2"><a xlink:href="../terms/service provider/" xlink:title="&lt;TABLE&gt;" target="_top">
<polygon fill="lightgray" stroke="none" points="140.62,-257.38 140.62,-273.62 227.38,-273.62 227.38,-257.38 140.62,-257.38"/>
<text xml:space="preserve" text-anchor="start" x="141.62" y="-261.38" font-family="Arial" font-size="12.00">service provider</text>
<polygon fill="none" stroke="black" points="139.62,-256.38 139.62,-274.62 228.38,-274.62 228.38,-256.38 139.62,-256.38"/>
</a>
</g>
</g>
<!-- ITS&#45;SU service provider&#45;&gt;serviceProvider -->
<g id="edge1" class="edge">
<title>ITS&#45;SU service provider&#45;&gt;serviceProvider</title>
<path fill="none" stroke="black" d="M184,-210.21C184,-217.97 184,-227.42 184,-236.24"/>
<polygon fill="none" stroke="black" points="180.5,-236.16 184,-246.16 187.5,-236.16 180.5,-236.16"/>
</g>
<!-- Invis -->
<!-- ITS&#45;SU service provider&#45;&gt;Invis -->
<!-- its&#45;sUnit -->
<g id="node4" class="node">
<title>its&#45;sUnit</title>
<g id="a_node4"><a xlink:href="../terms/ITS-S unit/" xlink:title="&lt;TABLE&gt;" target="_top">
<polygon fill="lightgray" stroke="none" points="31.38,-98.88 31.38,-115.12 86.62,-115.12 86.62,-98.88 31.38,-98.88"/>
<text xml:space="preserve" text-anchor="start" x="32.38" y="-102.88" font-family="Arial" font-size="12.00">ITS&#45;S unit</text>
<polygon fill="none" stroke="black" points="30.38,-97.88 30.38,-116.12 87.62,-116.12 87.62,-97.88 30.38,-97.88"/>
</a>
</g>
</g>
<!-- ITS&#45;SU service provider&#45;&gt;its&#45;sUnit -->
<g id="edge6" class="edge">
<title>ITS&#45;SU service provider&#45;&gt;its&#45;sUnit</title>
<path fill="none" stroke="black" d="M148.7,-174.66C138.39,-169.28 127.27,-163.02 117.5,-156.5 106.77,-149.34 95.71,-140.58 86.13,-132.48"/>
<polygon fill="black" stroke="black" points="88.46,-129.87 78.6,-125.98 83.88,-135.17 88.46,-129.87"/>
<text xml:space="preserve" text-anchor="middle" x="128.75" y="-146.05" font-family="Arial" font-size="11.00"> is a </text>
</g>
<!-- its&#45;suService -->
<g id="node5" class="node">
<title>its&#45;suService</title>
<g id="a_node5"><a xlink:href="../terms/ITS-SU service/" xlink:title="&lt;TABLE&gt;" target="_top">
<polygon fill="lightgray" stroke="none" points="17.5,-25.88 17.5,-42.12 100.5,-42.12 100.5,-25.88 17.5,-25.88"/>
<text xml:space="preserve" text-anchor="start" x="18.5" y="-29.88" font-family="Arial" font-size="12.00">ITS&#45;SU service</text>
<polygon fill="none" stroke="black" points="16.5,-24.88 16.5,-43.12 101.5,-43.12 101.5,-24.88 16.5,-24.88"/>
</a>
</g>
</g>
<!-- ITS&#45;SU service provider&#45;&gt;its&#45;suService -->
<g id="edge5" class="edge">
<title>ITS&#45;SU service provider&#45;&gt;its&#45;suService</title>
<path fill="none" stroke="black" d="M170.62,-174.75C148.73,-147.34 105.1,-92.71 79.35,-60.47"/>
<polygon fill="black" stroke="black" points="82.2,-58.44 73.23,-52.81 76.73,-62.81 82.2,-58.44"/>
<text xml:space="preserve" text-anchor="middle" x="152.22" y="-103.3" font-family="Arial" font-size="11.00"> delivers </text>
</g>
<!-- Invis&#45;&gt;its&#45;sUnit -->
<!-- its&#45;sUnit&#45;&gt;its&#45;suService -->
</g>
</svg>
