<?xml version="1.0" encoding="UTF-8" standalone="no"?>
<!DOCTYPE svg PUBLIC "-//W3C//DTD SVG 1.1//EN"
 "http://www.w3.org/Graphics/SVG/1.1/DTD/svg11.dtd">
<!-- Generated by graphviz version 14.1.3 (20260303.0454)
 -->
<!-- Pages: 1 -->
<svg width="328pt" height="292pt"
 viewBox="0.00 0.00 328.00 292.00" xmlns="http://www.w3.org/2000/svg" xmlns:xlink="http://www.w3.org/1999/xlink">
<g id="graph0" class="graph" transform="scale(1 1) rotate(0) translate(4 287.5)">
<polygon fill="white" stroke="none" points="-4,4 -4,-287.5 323.69,-287.5 323.69,4 -4,4"/>
<g id="clust2" class="cluster">
<title>cluster_associated</title>
</g>
<!-- level 3 ADS -->
<g id="node1" class="node">
<title>level 3 ADS</title>
<polygon fill="lightgray" stroke="none" points="179.12,-184.38 179.12,-200.62 244.88,-200.62 244.88,-184.38 179.12,-184.38"/>
<text xml:space="preserve" text-anchor="start" x="180.12" y="-188.38" font-family="Arial" font-size="12.00">level 3 ADS</text>
<polygon fill="none" stroke="black" points="178.12,-183.38 178.12,-201.62 245.88,-201.62 245.88,-183.38 178.12,-183.38"/>
</g>
<!-- ads -->
<g id="node2" class="node">
<title>ads</title>
<g id="a_node2"><a xlink:href="../terms/ADS/" xlink:title="&lt;TABLE&gt;" target="_top">
<polygon fill="lightgray" stroke="none" points="198.25,-257.38 198.25,-273.62 225.75,-273.62 225.75,-257.38 198.25,-257.38"/>
<text xml:space="preserve" text-anchor="start" x="199.25" y="-261.38" font-family="Arial" font-size="12.00">ADS</text>
<polygon fill="none" stroke="black" points="197.25,-256.38 197.25,-274.62 226.75,-274.62 226.75,-256.38 197.25,-256.38"/>
</a>
</g>
</g>
<!-- level 3 ADS&#45;&gt;ads -->
<g id="edge1" class="edge">
<title>level 3 ADS&#45;&gt;ads</title>
<path fill="none" stroke="black" d="M212,-210.21C212,-217.97 212,-227.42 212,-236.24"/>
<polygon fill="none" stroke="black" points="208.5,-236.16 212,-246.16 215.5,-236.16 208.5,-236.16"/>
</g>
<!-- Invis -->
<!-- level 3 ADS&#45;&gt;Invis -->
<!-- fallback&#45;readyUser -->
<g id="node4" class="node">
<title>fallback&#45;readyUser</title>
<g id="a_node4"><a xlink:href="../terms/fallback-ready user/" xlink:title="&lt;TABLE&gt;" target="_top">
<polygon fill="lightgray" stroke="none" points="37.38,-98.88 37.38,-115.12 140.62,-115.12 140.62,-98.88 37.38,-98.88"/>
<text xml:space="preserve" text-anchor="start" x="38.38" y="-102.88" font-family="Arial" font-size="12.00">fallback&#45;ready user</text>
<polygon fill="none" stroke="black" points="36.38,-97.88 36.38,-116.12 141.62,-116.12 141.62,-97.88 36.38,-97.88"/>
</a>
</g>
</g>
<!-- level 3 ADS&#45;&gt;fallback&#45;readyUser -->
<g id="edge5" class="edge">
<title>level 3 ADS&#45;&gt;fallback&#45;readyUser</title>
<path fill="none" stroke="black" d="M178.14,-176C176.75,-175.48 175.37,-174.97 174,-174.5 142.93,-163.75 125.74,-179.5 102.25,-156.5 96.7,-151.07 93.41,-143.55 91.47,-136.05"/>
<polygon fill="black" stroke="black" points="94.96,-135.68 89.74,-126.46 88.07,-136.92 94.96,-135.68"/>
<text xml:space="preserve" text-anchor="middle" x="173.12" y="-146.05" font-family="Arial" font-size="11.00"> designed with expectation of </text>
</g>
<!-- operationalDesignDomain -->
<g id="node5" class="node">
<title>operationalDesignDomain</title>
<g id="a_node5"><a xlink:href="../terms/operational design domain/" xlink:title="&lt;TABLE&gt;" target="_top">
<polygon fill="lightgray" stroke="none" points="17.12,-25.88 17.12,-42.12 160.88,-42.12 160.88,-25.88 17.12,-25.88"/>
<text xml:space="preserve" text-anchor="start" x="18.12" y="-29.88" font-family="Arial" font-size="12.00">operational design domain</text>
<polygon fill="none" stroke="black" points="16.12,-24.88 16.12,-43.12 161.88,-43.12 161.88,-24.88 16.12,-24.88"/>
</a>
</g>
</g>
<!-- level 3 ADS&#45;&gt;operationalDesignDomain -->
<g id="edge6" class="edge">
<title>level 3 ADS&#45;&gt;operationalDesignDomain</title>
<path fill="none" stroke="black" d="M233.81,-174.51C242.69,-165.44 249.7,-153.91 244,-143 222.93,-102.64 179.15,-74.3 143.47,-56.81"/>
<polygon fill="black" stroke="black" points="145.08,-53.7 134.54,-52.59 142.09,-60.03 145.08,-53.7"/>
<text xml:space="preserve" text-anchor="middle" x="275.82" y="-103.3" font-family="Arial" font-size="11.00"> operates within a </text>
</g>
<!-- Invis&#45;&gt;fallback&#45;readyUser -->
<!-- fallback&#45;readyUser&#45;&gt;operationalDesignDomain -->
</g>
</svg>
