<?xml version="1.0" encoding="UTF-8" standalone="no"?>
<!DOCTYPE svg PUBLIC "-//W3C//DTD SVG 1.1//EN"
 "http://www.w3.org/Graphics/SVG/1.1/DTD/svg11.dtd">
<!-- Generated by graphviz version 14.1.3 (20260303.0454)
 -->
<!-- Pages: 1 -->
<svg width="168pt" height="162pt"
 viewBox="0.00 0.00 168.00 162.00" xmlns="http://www.w3.org/2000/svg" xmlns:xlink="http://www.w3.org/1999/xlink">
<g id="graph0" class="graph" transform="scale(1 1) rotate(0) translate(4 157.5)">
<polygon fill="white" stroke="none" points="-4,4 -4,-157.5 164,-157.5 164,4 -4,4"/>
<g id="clust2" class="cluster">
<title>cluster_associated</title>
</g>
<!-- link -->
<g id="node1" class="node">
<title>link</title>
<g id="a_node1"><a xlink:href="../terms/link/" xlink:title="&lt;TABLE&gt;">
<polygon fill="lightgray" stroke="none" points="16.62,-111.38 16.62,-127.62 37.38,-127.62 37.38,-111.38 16.62,-111.38"/>
<text xml:space="preserve" text-anchor="start" x="17.62" y="-115.38" font-family="Arial" font-size="12.00">link</text>
<polygon fill="none" stroke="black" points="15.62,-110.38 15.62,-128.62 38.38,-128.62 38.38,-110.38 15.62,-110.38"/>
</a>
</g>
</g>
<!-- Invis -->
<!-- link&#45;&gt;Invis -->
<!-- instant -->
<g id="node3" class="node">
<title>instant</title>
<g id="a_node3"><a xlink:href="../terms/instant/" xlink:title="&lt;TABLE&gt;" target="_top">
<polygon fill="lightgray" stroke="none" points="98.38,-25.88 98.38,-42.12 135.62,-42.12 135.62,-25.88 98.38,-25.88"/>
<text xml:space="preserve" text-anchor="start" x="99.38" y="-29.88" font-family="Arial" font-size="12.00">instant</text>
<polygon fill="none" stroke="black" points="97.38,-24.88 97.38,-43.12 136.62,-43.12 136.62,-24.88 97.38,-24.88"/>
</a>
</g>
</g>
<!-- link&#45;&gt;instant -->
<g id="edge3" class="edge">
<title>link&#45;&gt;instant</title>
<path fill="none" stroke="black" d="M37.85,-101.66C44.71,-91.78 54.16,-79.42 64.25,-70 69.37,-65.23 75.2,-60.66 81.08,-56.5"/>
<polygon fill="black" stroke="black" points="82.66,-59.65 89,-51.16 78.75,-53.85 82.66,-59.65"/>
<text xml:space="preserve" text-anchor="middle" x="88.62" y="-73.05" font-family="Arial" font-size="11.00"> connects </text>
</g>
<!-- Invis&#45;&gt;instant -->
</g>
</svg>
