<?xml version="1.0" encoding="UTF-8" standalone="no"?>
<!DOCTYPE svg PUBLIC "-//W3C//DTD SVG 1.1//EN"
 "http://www.w3.org/Graphics/SVG/1.1/DTD/svg11.dtd">
<!-- Generated by graphviz version 14.1.3 (20260303.0454)
 -->
<!-- Pages: 1 -->
<svg width="174pt" height="235pt"
 viewBox="0.00 0.00 174.00 235.00" xmlns="http://www.w3.org/2000/svg" xmlns:xlink="http://www.w3.org/1999/xlink">
<g id="graph0" class="graph" transform="scale(1 1) rotate(0) translate(4 230.5)">
<polygon fill="white" stroke="none" points="-4,4 -4,-230.5 170.12,-230.5 170.12,4 -4,4"/>
<g id="clust2" class="cluster">
<title>cluster_associated</title>
</g>
<!-- passenger -->
<g id="node1" class="node">
<title>passenger</title>
<g id="a_node1"><a xlink:href="../terms/passenger/" xlink:title="&lt;TABLE&gt;">
<polygon fill="lightgray" stroke="none" points="1,-184.38 1,-200.62 59.25,-200.62 59.25,-184.38 1,-184.38"/>
<text xml:space="preserve" text-anchor="start" x="2" y="-188.38" font-family="Arial" font-size="12.00">passenger</text>
<polygon fill="none" stroke="black" points="0,-183.38 0,-201.62 60.25,-201.62 60.25,-183.38 0,-183.38"/>
</a>
</g>
</g>
<!-- Invis -->
<!-- passenger&#45;&gt;Invis -->
<!-- person -->
<g id="node3" class="node">
<title>person</title>
<g id="a_node3"><a xlink:href="../terms/person/" xlink:title="&lt;TABLE&gt;" target="_top">
<polygon fill="lightgray" stroke="none" points="103.75,-98.88 103.75,-115.12 142.5,-115.12 142.5,-98.88 103.75,-98.88"/>
<text xml:space="preserve" text-anchor="start" x="104.75" y="-102.88" font-family="Arial" font-size="12.00">person</text>
<polygon fill="none" stroke="black" points="102.75,-97.88 102.75,-116.12 143.5,-116.12 143.5,-97.88 102.75,-97.88"/>
</a>
</g>
</g>
<!-- passenger&#45;&gt;person -->
<g id="edge4" class="edge">
<title>passenger&#45;&gt;person</title>
<path fill="none" stroke="black" d="M48.94,-174.6C62.43,-162.49 80.81,-146 95.89,-132.45"/>
<polygon fill="black" stroke="black" points="98.1,-135.17 103.21,-125.88 93.43,-129.96 98.1,-135.17"/>
<text xml:space="preserve" text-anchor="middle" x="93.44" y="-146.05" font-family="Arial" font-size="11.00"> is a </text>
</g>
<!-- vehicle -->
<g id="node4" class="node">
<title>vehicle</title>
<g id="a_node4"><a xlink:href="../terms/vehicle/" xlink:title="&lt;TABLE&gt;" target="_top">
<polygon fill="lightgray" stroke="none" points="103,-25.88 103,-42.12 143.25,-42.12 143.25,-25.88 103,-25.88"/>
<text xml:space="preserve" text-anchor="start" x="104" y="-29.88" font-family="Arial" font-size="12.00">vehicle</text>
<polygon fill="none" stroke="black" points="102,-24.88 102,-43.12 144.25,-43.12 144.25,-24.88 102,-24.88"/>
</a>
</g>
</g>
<!-- passenger&#45;&gt;vehicle -->
<g id="edge5" class="edge">
<title>passenger&#45;&gt;vehicle</title>
<path fill="none" stroke="black" d="M24.48,-174.55C18.41,-153.05 11.58,-115.59 27.12,-89 39.7,-67.49 64.34,-53.89 85.51,-45.72"/>
<polygon fill="black" stroke="black" points="86.51,-49.08 94.76,-42.43 84.16,-42.48 86.51,-49.08"/>
<text xml:space="preserve" text-anchor="middle" x="57.12" y="-103.3" font-family="Arial" font-size="11.00"> travelling in </text>
</g>
<!-- Invis&#45;&gt;person -->
<!-- person&#45;&gt;vehicle -->
</g>
</svg>
