<?xml version="1.0" encoding="UTF-8" standalone="no"?>
<!DOCTYPE svg PUBLIC "-//W3C//DTD SVG 1.1//EN"
 "http://www.w3.org/Graphics/SVG/1.1/DTD/svg11.dtd">
<!-- Generated by graphviz version 14.1.3 (20260303.0454)
 -->
<!-- Pages: 1 -->
<svg width="217pt" height="162pt"
 viewBox="0.00 0.00 217.00 162.00" xmlns="http://www.w3.org/2000/svg" xmlns:xlink="http://www.w3.org/1999/xlink">
<g id="graph0" class="graph" transform="scale(1 1) rotate(0) translate(4 157.5)">
<polygon fill="white" stroke="none" points="-4,4 -4,-157.5 213.38,-157.5 213.38,4 -4,4"/>
<g id="clust2" class="cluster">
<title>cluster_associated</title>
</g>
<!-- payment means -->
<g id="node1" class="node">
<title>payment means</title>
<polygon fill="lightgray" stroke="none" points="1,-111.38 1,-127.62 87.75,-127.62 87.75,-111.38 1,-111.38"/>
<text xml:space="preserve" text-anchor="start" x="2" y="-115.38" font-family="Arial" font-size="12.00">payment means</text>
<polygon fill="none" stroke="black" points="0,-110.38 0,-128.62 88.75,-128.62 88.75,-110.38 0,-110.38"/>
</g>
<!-- Invis -->
<!-- payment means&#45;&gt;Invis -->
<!-- serviceProvider -->
<g id="node3" class="node">
<title>serviceProvider</title>
<g id="a_node3"><a xlink:href="../terms/service provider/" xlink:title="&lt;TABLE&gt;" target="_top">
<polygon fill="lightgray" stroke="none" points="106,-25.88 106,-42.12 192.75,-42.12 192.75,-25.88 106,-25.88"/>
<text xml:space="preserve" text-anchor="start" x="107" y="-29.88" font-family="Arial" font-size="12.00">service provider</text>
<polygon fill="none" stroke="black" points="105,-24.88 105,-43.12 193.75,-43.12 193.75,-24.88 105,-24.88"/>
</a>
</g>
</g>
<!-- payment means&#45;&gt;serviceProvider -->
<g id="edge3" class="edge">
<title>payment means&#45;&gt;serviceProvider</title>
<path fill="none" stroke="black" d="M54.94,-101.75C61.91,-91.65 71.73,-79.04 82.62,-70 88.11,-65.45 94.28,-61.25 100.6,-57.46"/>
<polygon fill="black" stroke="black" points="102.26,-60.54 109.25,-52.59 98.82,-54.44 102.26,-60.54"/>
<text xml:space="preserve" text-anchor="middle" x="114.5" y="-73.05" font-family="Arial" font-size="11.00"> accepted by </text>
</g>
<!-- Invis&#45;&gt;serviceProvider -->
</g>
</svg>
