<?xml version="1.0" encoding="UTF-8" standalone="no"?>
<!DOCTYPE svg PUBLIC "-//W3C//DTD SVG 1.1//EN"
 "http://www.w3.org/Graphics/SVG/1.1/DTD/svg11.dtd">
<!-- Generated by graphviz version 14.1.3 (20260303.0454)
 -->
<!-- Pages: 1 -->
<svg width="318pt" height="219pt"
 viewBox="0.00 0.00 318.00 219.00" xmlns="http://www.w3.org/2000/svg" xmlns:xlink="http://www.w3.org/1999/xlink">
<g id="graph0" class="graph" transform="scale(1 1) rotate(0) translate(4 214.5)">
<polygon fill="white" stroke="none" points="-4,4 -4,-214.5 314.25,-214.5 314.25,4 -4,4"/>
<g id="clust2" class="cluster">
<title>cluster_associated</title>
</g>
<!-- public transport vehicle stop -->
<g id="node1" class="node">
<title>public transport vehicle stop</title>
<polygon fill="lightgray" stroke="none" points="158.75,-111.38 158.75,-127.62 309.25,-127.62 309.25,-111.38 158.75,-111.38"/>
<text xml:space="preserve" text-anchor="start" x="159.75" y="-115.38" font-family="Arial" font-size="12.00">public transport vehicle stop</text>
<polygon fill="none" stroke="black" points="157.75,-110.38 157.75,-128.62 310.25,-128.62 310.25,-110.38 157.75,-110.38"/>
</g>
<!-- pick&#45;upDrop&#45;offArea -->
<g id="node2" class="node">
<title>pick&#45;upDrop&#45;offArea</title>
<g id="a_node2"><a xlink:href="../terms/pick-updrop-off area/" xlink:title="&lt;TABLE&gt;" target="_top">
<polygon fill="lightgray" stroke="none" points="178.25,-184.38 178.25,-200.62 289.75,-200.62 289.75,-184.38 178.25,-184.38"/>
<text xml:space="preserve" text-anchor="start" x="179.25" y="-188.38" font-family="Arial" font-size="12.00">pick&#45;up/drop&#45;off area</text>
<polygon fill="none" stroke="black" points="177.25,-183.38 177.25,-201.62 290.75,-201.62 290.75,-183.38 177.25,-183.38"/>
</a>
</g>
</g>
<!-- public transport vehicle stop&#45;&gt;pick&#45;upDrop&#45;offArea -->
<g id="edge1" class="edge">
<title>public transport vehicle stop&#45;&gt;pick&#45;upDrop&#45;offArea</title>
<path fill="none" stroke="black" d="M234,-137.21C234,-144.97 234,-154.42 234,-163.24"/>
<polygon fill="none" stroke="black" points="230.5,-163.16 234,-173.16 237.5,-163.16 230.5,-163.16"/>
</g>
<!-- Invis -->
<!-- public transport vehicle stop&#45;&gt;Invis -->
<!-- publicTransportVehicle -->
<g id="node4" class="node">
<title>publicTransportVehicle</title>
<polygon fill="lightgray" stroke="none" points="16.88,-25.88 16.88,-42.12 141.12,-42.12 141.12,-25.88 16.88,-25.88"/>
<text xml:space="preserve" text-anchor="start" x="17.88" y="-29.88" font-family="Arial" font-size="12.00">publicTransportVehicle</text>
<polygon fill="none" stroke="black" points="15.88,-24.88 15.88,-43.12 142.12,-43.12 142.12,-24.88 15.88,-24.88"/>
</g>
<!-- public transport vehicle stop&#45;&gt;publicTransportVehicle -->
<g id="edge4" class="edge">
<title>public transport vehicle stop&#45;&gt;publicTransportVehicle</title>
<path fill="none" stroke="black" d="M202.63,-101.6C178.89,-88.81 146.07,-71.13 120.21,-57.2"/>
<polygon fill="black" stroke="black" points="122.12,-54.25 111.65,-52.59 118.8,-60.41 122.12,-54.25"/>
<text xml:space="preserve" text-anchor="middle" x="175.16" y="-73.05" font-family="Arial" font-size="11.00"> for </text>
</g>
<!-- Invis&#45;&gt;publicTransportVehicle -->
</g>
</svg>
