<?xml version="1.0" encoding="UTF-8" standalone="no"?>
<!DOCTYPE svg PUBLIC "-//W3C//DTD SVG 1.1//EN"
 "http://www.w3.org/Graphics/SVG/1.1/DTD/svg11.dtd">
<!-- Generated by graphviz version 14.1.3 (20260303.0454)
 -->
<!-- Pages: 1 -->
<svg width="314pt" height="304pt"
 viewBox="0.00 0.00 314.00 304.00" xmlns="http://www.w3.org/2000/svg" xmlns:xlink="http://www.w3.org/1999/xlink">
<g id="graph0" class="graph" transform="scale(1 1) rotate(0) translate(4 300)">
<polygon fill="white" stroke="none" points="-4,4 -4,-300 310.34,-300 310.34,4 -4,4"/>
<g id="clust2" class="cluster">
<title>cluster_associated</title>
</g>
<!-- remote driver -->
<g id="node1" class="node">
<title>remote driver</title>
<polygon fill="lightgray" stroke="none" points="1,-184.38 1,-200.62 72.75,-200.62 72.75,-184.38 1,-184.38"/>
<text xml:space="preserve" text-anchor="start" x="2" y="-188.38" font-family="Arial" font-size="12.00">remote driver</text>
<polygon fill="none" stroke="black" points="0,-183.38 0,-201.62 73.75,-201.62 73.75,-183.38 0,-183.38"/>
</g>
<!-- driver -->
<g id="node2" class="node">
<title>driver</title>
<g id="a_node2"><a xlink:href="../terms/driver/" xlink:title="&lt;TABLE&gt;" target="_top">
<polygon fill="lightgray" stroke="none" points="20.88,-269.88 20.88,-286.12 52.88,-286.12 52.88,-269.88 20.88,-269.88"/>
<text xml:space="preserve" text-anchor="start" x="21.88" y="-273.88" font-family="Arial" font-size="12.00">driver</text>
<polygon fill="none" stroke="black" points="19.88,-268.88 19.88,-287.12 53.88,-287.12 53.88,-268.88 19.88,-268.88"/>
</a>
</g>
</g>
<!-- remote driver&#45;&gt;driver -->
<g id="edge1" class="edge">
<title>remote driver&#45;&gt;driver</title>
<path fill="none" stroke="black" d="M36.88,-210.37C36.88,-221.35 36.88,-235.93 36.88,-248.65"/>
<polygon fill="none" stroke="black" points="33.38,-248.59 36.88,-258.59 40.38,-248.59 33.38,-248.59"/>
</g>
<!-- Invis -->
<!-- remote driver&#45;&gt;Invis -->
<!-- n913c3a298648426d8d7426245fc96fa7b5 -->
<g id="node6" class="node">
<title>n913c3a298648426d8d7426245fc96fa7b5</title>
<polygon fill="lightyellow" stroke="none" points="169.12,-268.88 169.12,-287.12 228.62,-287.12 228.62,-268.88 169.12,-268.88"/>
<text xml:space="preserve" text-anchor="start" x="171.12" y="-273.88" font-family="Arial" font-size="12.00">«unionOf»</text>
<polygon fill="none" stroke="black" points="169.12,-268.88 169.12,-287.12 228.62,-287.12 228.62,-268.88 169.12,-268.88"/>
</g>
<!-- remote driver&#45;&gt;n913c3a298648426d8d7426245fc96fa7b5 -->
<g id="edge7" class="edge">
<title>remote driver&#45;&gt;n913c3a298648426d8d7426245fc96fa7b5</title>
<path fill="none" stroke="black" d="M63.56,-210.29C68.28,-213.11 73.19,-215.95 77.88,-218.5 104.35,-232.93 134.92,-247.69 158.71,-258.78"/>
<polygon fill="black" stroke="black" points="157.21,-261.94 167.76,-262.97 160.15,-255.59 157.21,-261.94"/>
<text xml:space="preserve" text-anchor="middle" x="134.81" y="-231.55" font-family="Arial" font-size="11.00"> uses </text>
</g>
<!-- nomadicVehicleInputDevice -->
<g id="node4" class="node">
<title>nomadicVehicleInputDevice</title>
<g id="a_node4"><a xlink:href="../terms/nomadic vehicle input device/" xlink:title="&lt;TABLE&gt;" target="_top">
<polygon fill="lightgray" stroke="none" points="90.62,-98.88 90.62,-115.12 247.12,-115.12 247.12,-98.88 90.62,-98.88"/>
<text xml:space="preserve" text-anchor="start" x="91.62" y="-102.88" font-family="Arial" font-size="12.00">nomadic vehicle input device</text>
<polygon fill="none" stroke="black" points="89.62,-97.88 89.62,-116.12 248.12,-116.12 248.12,-97.88 89.62,-97.88"/>
</a>
</g>
</g>
<!-- Invis&#45;&gt;nomadicVehicleInputDevice -->
<!-- remoteVehicleInputDevice -->
<g id="node5" class="node">
<title>remoteVehicleInputDevice</title>
<g id="a_node5"><a xlink:href="../terms/remote vehicle input device/" xlink:title="&lt;TABLE&gt;" target="_top">
<polygon fill="lightgray" stroke="none" points="97.12,-25.88 97.12,-42.12 244.62,-42.12 244.62,-25.88 97.12,-25.88"/>
<text xml:space="preserve" text-anchor="start" x="98.12" y="-29.88" font-family="Arial" font-size="12.00">remote vehicle input device</text>
<polygon fill="none" stroke="black" points="96.12,-24.88 96.12,-43.12 245.62,-43.12 245.62,-24.88 96.12,-24.88"/>
</a>
</g>
</g>
<!-- nomadicVehicleInputDevice&#45;&gt;remoteVehicleInputDevice -->
<!-- n913c3a298648426d8d7426245fc96fa7b5&#45;&gt;nomadicVehicleInputDevice -->
<g id="edge5" class="edge">
<title>n913c3a298648426d8d7426245fc96fa7b5&#45;&gt;nomadicVehicleInputDevice</title>
<path fill="none" stroke="black" stroke-dasharray="1,5" d="M195.89,-260.18C190.72,-231.07 180.07,-171.06 173.79,-135.71"/>
<polygon fill="black" stroke="black" points="177.31,-135.48 172.11,-126.24 170.42,-136.7 177.31,-135.48"/>
<text xml:space="preserve" text-anchor="middle" x="208.19" y="-188.8" font-family="Arial" font-size="11.00">member</text>
</g>
<!-- n913c3a298648426d8d7426245fc96fa7b5&#45;&gt;remoteVehicleInputDevice -->
<g id="edge6" class="edge">
<title>n913c3a298648426d8d7426245fc96fa7b5&#45;&gt;remoteVehicleInputDevice</title>
<path fill="none" stroke="black" stroke-dasharray="1,5" d="M212.48,-260.25C238.32,-226.26 289.19,-147.44 256.88,-89 249.6,-75.84 237.63,-65.46 224.9,-57.46"/>
<polygon fill="black" stroke="black" points="226.81,-54.52 216.4,-52.56 223.31,-60.59 226.81,-54.52"/>
<text xml:space="preserve" text-anchor="middle" x="286.47" y="-146.05" font-family="Arial" font-size="11.00">member</text>
</g>
</g>
</svg>
