<?xml version="1.0" encoding="UTF-8" standalone="no"?>
<!DOCTYPE svg PUBLIC "-//W3C//DTD SVG 1.1//EN"
 "http://www.w3.org/Graphics/SVG/1.1/DTD/svg11.dtd">
<!-- Generated by graphviz version 14.1.3 (20260303.0454)
 -->
<!-- Pages: 1 -->
<svg width="168pt" height="162pt"
 viewBox="0.00 0.00 168.00 162.00" xmlns="http://www.w3.org/2000/svg" xmlns:xlink="http://www.w3.org/1999/xlink">
<g id="graph0" class="graph" transform="scale(1 1) rotate(0) translate(4 157.5)">
<polygon fill="white" stroke="none" points="-4,4 -4,-157.5 164,-157.5 164,4 -4,4"/>
<g id="clust2" class="cluster">
<title>cluster_associated</title>
</g>
<!-- roadside -->
<g id="node1" class="node">
<title>roadside</title>
<g id="a_node1"><a xlink:href="../terms/roadside/" xlink:title="&lt;TABLE&gt;">
<polygon fill="lightgray" stroke="none" points="2.75,-111.38 2.75,-127.62 51.25,-127.62 51.25,-111.38 2.75,-111.38"/>
<text xml:space="preserve" text-anchor="start" x="3.75" y="-115.38" font-family="Arial" font-size="12.00">roadside</text>
<polygon fill="none" stroke="black" points="1.75,-110.38 1.75,-128.62 52.25,-128.62 52.25,-110.38 1.75,-110.38"/>
</a>
</g>
</g>
<!-- Invis -->
<!-- roadside&#45;&gt;Invis -->
<!-- verge -->
<g id="node3" class="node">
<title>verge</title>
<g id="a_node3"><a xlink:href="../terms/verge/" xlink:title="&lt;TABLE&gt;" target="_top">
<polygon fill="lightgray" stroke="none" points="101,-25.88 101,-42.12 133,-42.12 133,-25.88 101,-25.88"/>
<text xml:space="preserve" text-anchor="start" x="102" y="-29.88" font-family="Arial" font-size="12.00">verge</text>
<polygon fill="none" stroke="black" points="100,-24.88 100,-43.12 134,-43.12 134,-24.88 100,-24.88"/>
</a>
</g>
</g>
<!-- roadside&#45;&gt;verge -->
<g id="edge3" class="edge">
<title>roadside&#45;&gt;verge</title>
<path fill="none" stroke="black" d="M35.2,-101.85C40.73,-91.79 48.74,-79.18 58.25,-70 64.74,-63.74 72.54,-58.11 80.32,-53.29"/>
<polygon fill="black" stroke="black" points="81.85,-56.45 88.74,-48.4 78.33,-50.4 81.85,-56.45"/>
<text xml:space="preserve" text-anchor="middle" x="85.62" y="-73.05" font-family="Arial" font-size="11.00"> comprises </text>
</g>
<!-- Invis&#45;&gt;verge -->
</g>
</svg>
