<?xml version="1.0" encoding="UTF-8" standalone="no"?>
<!DOCTYPE svg PUBLIC "-//W3C//DTD SVG 1.1//EN"
 "http://www.w3.org/Graphics/SVG/1.1/DTD/svg11.dtd">
<!-- Generated by graphviz version 14.1.3 (20260303.0454)
 -->
<!-- Pages: 1 -->
<svg width="202pt" height="219pt"
 viewBox="0.00 0.00 202.00 219.00" xmlns="http://www.w3.org/2000/svg" xmlns:xlink="http://www.w3.org/1999/xlink">
<g id="graph0" class="graph" transform="scale(1 1) rotate(0) translate(4 214.5)">
<polygon fill="white" stroke="none" points="-4,4 -4,-214.5 198.38,-214.5 198.38,4 -4,4"/>
<g id="clust2" class="cluster">
<title>cluster_associated</title>
</g>
<!-- service provider -->
<g id="node1" class="node">
<title>service provider</title>
<polygon fill="lightgray" stroke="none" points="106.62,-111.38 106.62,-127.62 193.38,-127.62 193.38,-111.38 106.62,-111.38"/>
<text xml:space="preserve" text-anchor="start" x="107.62" y="-115.38" font-family="Arial" font-size="12.00">service provider</text>
<polygon fill="none" stroke="black" points="105.62,-110.38 105.62,-128.62 194.38,-128.62 194.38,-110.38 105.62,-110.38"/>
</g>
<!-- entity -->
<g id="node2" class="node">
<title>entity</title>
<g id="a_node2"><a xlink:href="../terms/entity/" xlink:title="&lt;TABLE&gt;" target="_top">
<polygon fill="lightgray" stroke="none" points="134.75,-184.38 134.75,-200.62 165.25,-200.62 165.25,-184.38 134.75,-184.38"/>
<text xml:space="preserve" text-anchor="start" x="135.75" y="-188.38" font-family="Arial" font-size="12.00">entity</text>
<polygon fill="none" stroke="black" points="133.75,-183.38 133.75,-201.62 166.25,-201.62 166.25,-183.38 133.75,-183.38"/>
</a>
</g>
</g>
<!-- service provider&#45;&gt;entity -->
<g id="edge1" class="edge">
<title>service provider&#45;&gt;entity</title>
<path fill="none" stroke="black" d="M150,-137.21C150,-144.97 150,-154.42 150,-163.24"/>
<polygon fill="none" stroke="black" points="146.5,-163.16 150,-173.16 153.5,-163.16 146.5,-163.16"/>
</g>
<!-- Invis -->
<!-- service provider&#45;&gt;Invis -->
<!-- service -->
<g id="node4" class="node">
<title>service</title>
<g id="a_node4"><a xlink:href="../terms/service/" xlink:title="&lt;TABLE&gt;" target="_top">
<polygon fill="lightgray" stroke="none" points="22.88,-25.88 22.88,-42.12 63.12,-42.12 63.12,-25.88 22.88,-25.88"/>
<text xml:space="preserve" text-anchor="start" x="23.88" y="-29.88" font-family="Arial" font-size="12.00">service</text>
<polygon fill="none" stroke="black" points="21.88,-24.88 21.88,-43.12 64.12,-43.12 64.12,-24.88 21.88,-24.88"/>
</a>
</g>
</g>
<!-- service provider&#45;&gt;service -->
<g id="edge4" class="edge">
<title>service provider&#45;&gt;service</title>
<path fill="none" stroke="black" d="M128.35,-101.6C112.54,-89.27 90.9,-72.38 73.36,-58.69"/>
<polygon fill="black" stroke="black" points="75.85,-56.2 65.81,-52.8 71.54,-61.71 75.85,-56.2"/>
<text xml:space="preserve" text-anchor="middle" x="124.28" y="-73.05" font-family="Arial" font-size="11.00"> delivers </text>
</g>
<!-- Invis&#45;&gt;service -->
</g>
</svg>
