<?xml version="1.0" encoding="UTF-8" standalone="no"?>
<!DOCTYPE svg PUBLIC "-//W3C//DTD SVG 1.1//EN"
 "http://www.w3.org/Graphics/SVG/1.1/DTD/svg11.dtd">
<!-- Generated by graphviz version 14.1.3 (20260303.0454)
 -->
<!-- Pages: 1 -->
<svg width="168pt" height="235pt"
 viewBox="0.00 0.00 168.00 235.00" xmlns="http://www.w3.org/2000/svg" xmlns:xlink="http://www.w3.org/1999/xlink">
<g id="graph0" class="graph" transform="scale(1 1) rotate(0) translate(4 230.5)">
<polygon fill="white" stroke="none" points="-4,4 -4,-230.5 164,-230.5 164,4 -4,4"/>
<g id="clust2" class="cluster">
<title>cluster_associated</title>
</g>
<!-- service -->
<g id="node1" class="node">
<title>service</title>
<g id="a_node1"><a xlink:href="../terms/service/" xlink:title="&lt;TABLE&gt;">
<polygon fill="lightgray" stroke="none" points="6.88,-184.38 6.88,-200.62 47.12,-200.62 47.12,-184.38 6.88,-184.38"/>
<text xml:space="preserve" text-anchor="start" x="7.88" y="-188.38" font-family="Arial" font-size="12.00">service</text>
<polygon fill="none" stroke="black" points="5.88,-183.38 5.88,-201.62 48.12,-201.62 48.12,-183.38 5.88,-183.38"/>
</a>
</g>
</g>
<!-- Invis -->
<!-- service&#45;&gt;Invis -->
<!-- user -->
<g id="node3" class="node">
<title>user</title>
<g id="a_node3"><a xlink:href="../terms/user/" xlink:title="&lt;TABLE&gt;" target="_top">
<polygon fill="lightgray" stroke="none" points="102.38,-98.88 102.38,-115.12 127.62,-115.12 127.62,-98.88 102.38,-98.88"/>
<text xml:space="preserve" text-anchor="start" x="103.38" y="-102.88" font-family="Arial" font-size="12.00">user</text>
<polygon fill="none" stroke="black" points="101.38,-97.88 101.38,-116.12 128.62,-116.12 128.62,-97.88 101.38,-97.88"/>
</a>
</g>
</g>
<!-- service&#45;&gt;user -->
<g id="edge5" class="edge">
<title>service&#45;&gt;user</title>
<path fill="none" stroke="black" d="M44.81,-174.6C57.57,-162.49 74.96,-146 89.23,-132.45"/>
<polygon fill="black" stroke="black" points="91.28,-135.34 96.12,-125.91 86.46,-130.26 91.28,-135.34"/>
<text xml:space="preserve" text-anchor="middle" x="85.64" y="-146.05" font-family="Arial" font-size="11.00"> for </text>
</g>
<!-- userNeed -->
<g id="node4" class="node">
<title>userNeed</title>
<g id="a_node4"><a xlink:href="../terms/user need/" xlink:title="&lt;TABLE&gt;" target="_top">
<polygon fill="lightgray" stroke="none" points="87.38,-25.88 87.38,-42.12 142.62,-42.12 142.62,-25.88 87.38,-25.88"/>
<text xml:space="preserve" text-anchor="start" x="88.38" y="-29.88" font-family="Arial" font-size="12.00">user need</text>
<polygon fill="none" stroke="black" points="86.38,-24.88 86.38,-43.12 143.62,-43.12 143.62,-24.88 86.38,-24.88"/>
</a>
</g>
</g>
<!-- service&#45;&gt;userNeed -->
<g id="edge4" class="edge">
<title>service&#45;&gt;userNeed</title>
<path fill="none" stroke="black" d="M27.26,-174.64C28.31,-153.23 32.59,-115.87 49,-89 56.1,-77.37 66.63,-67.12 77.2,-58.77"/>
<polygon fill="black" stroke="black" points="79.26,-61.6 85.2,-52.83 75.08,-55.98 79.26,-61.6"/>
<text xml:space="preserve" text-anchor="middle" x="64" y="-103.3" font-family="Arial" font-size="11.00"> fulfils </text>
</g>
<!-- Invis&#45;&gt;user -->
<!-- user&#45;&gt;userNeed -->
</g>
</svg>
