<?xml version="1.0" encoding="UTF-8" standalone="no"?>
<!DOCTYPE svg PUBLIC "-//W3C//DTD SVG 1.1//EN"
 "http://www.w3.org/Graphics/SVG/1.1/DTD/svg11.dtd">
<!-- Generated by graphviz version 14.1.3 (20260303.0454)
 -->
<!-- Pages: 1 -->
<svg width="204pt" height="219pt"
 viewBox="0.00 0.00 204.00 219.00" xmlns="http://www.w3.org/2000/svg" xmlns:xlink="http://www.w3.org/1999/xlink">
<g id="graph0" class="graph" transform="scale(1 1) rotate(0) translate(4 214.5)">
<polygon fill="white" stroke="none" points="-4,4 -4,-214.5 200,-214.5 200,4 -4,4"/>
<g id="clust2" class="cluster">
<title>cluster_associated</title>
</g>
<!-- sidewalk -->
<g id="node1" class="node">
<title>sidewalk</title>
<g id="a_node1"><a xlink:href="../terms/sidewalk/" xlink:title="&lt;TABLE&gt;">
<polygon fill="lightgray" stroke="none" points="108.38,-111.38 108.38,-127.62 157.62,-127.62 157.62,-111.38 108.38,-111.38"/>
<text xml:space="preserve" text-anchor="start" x="109.38" y="-115.38" font-family="Arial" font-size="12.00">sidewalk</text>
<polygon fill="none" stroke="black" points="107.38,-110.38 107.38,-128.62 158.62,-128.62 158.62,-110.38 107.38,-110.38"/>
</a>
</g>
</g>
<!-- footpath -->
<g id="node2" class="node">
<title>footpath</title>
<g id="a_node2"><a xlink:href="../terms/footpath/" xlink:title="&lt;TABLE&gt;" target="_top">
<polygon fill="lightgray" stroke="none" points="74.62,-184.38 74.62,-200.62 119.38,-200.62 119.38,-184.38 74.62,-184.38"/>
<text xml:space="preserve" text-anchor="start" x="75.62" y="-188.38" font-family="Arial" font-size="12.00">footpath</text>
<polygon fill="none" stroke="black" points="73.62,-183.38 73.62,-201.62 120.38,-201.62 120.38,-183.38 73.62,-183.38"/>
</a>
</g>
</g>
<!-- sidewalk&#45;&gt;footpath -->
<g id="edge1" class="edge">
<title>sidewalk&#45;&gt;footpath</title>
<path fill="none" stroke="black" d="M124.53,-137.21C120.41,-145.32 115.36,-155.28 110.72,-164.44"/>
<polygon fill="none" stroke="black" points="107.62,-162.82 106.22,-173.32 113.86,-165.99 107.62,-162.82"/>
</g>
<!-- lane -->
<g id="node3" class="node">
<title>lane</title>
<g id="a_node3"><a xlink:href="../terms/lane/" xlink:title="&lt;TABLE&gt;" target="_top">
<polygon fill="lightgray" stroke="none" points="156.38,-184.38 156.38,-200.62 181.62,-200.62 181.62,-184.38 156.38,-184.38"/>
<text xml:space="preserve" text-anchor="start" x="157.38" y="-188.38" font-family="Arial" font-size="12.00">lane</text>
<polygon fill="none" stroke="black" points="155.38,-183.38 155.38,-201.62 182.62,-201.62 182.62,-183.38 155.38,-183.38"/>
</a>
</g>
</g>
<!-- sidewalk&#45;&gt;lane -->
<g id="edge2" class="edge">
<title>sidewalk&#45;&gt;lane</title>
<path fill="none" stroke="black" d="M141.47,-137.21C145.59,-145.32 150.64,-155.28 155.28,-164.44"/>
<polygon fill="none" stroke="black" points="152.14,-165.99 159.78,-173.32 158.38,-162.82 152.14,-165.99"/>
</g>
<!-- Invis -->
<!-- sidewalk&#45;&gt;Invis -->
<!-- roadside -->
<g id="node5" class="node">
<title>roadside</title>
<g id="a_node5"><a xlink:href="../terms/roadside/" xlink:title="&lt;TABLE&gt;" target="_top">
<polygon fill="lightgray" stroke="none" points="18.75,-25.88 18.75,-42.12 67.25,-42.12 67.25,-25.88 18.75,-25.88"/>
<text xml:space="preserve" text-anchor="start" x="19.75" y="-29.88" font-family="Arial" font-size="12.00">roadside</text>
<polygon fill="none" stroke="black" points="17.75,-24.88 17.75,-43.12 68.25,-43.12 68.25,-24.88 17.75,-24.88"/>
</a>
</g>
</g>
<!-- sidewalk&#45;&gt;roadside -->
<g id="edge5" class="edge">
<title>sidewalk&#45;&gt;roadside</title>
<path fill="none" stroke="black" d="M114.79,-101.6C101.73,-89.49 83.95,-73 69.35,-59.45"/>
<polygon fill="black" stroke="black" points="72.01,-57.14 62.3,-52.9 67.25,-62.27 72.01,-57.14"/>
<text xml:space="preserve" text-anchor="middle" x="109.51" y="-73.05" font-family="Arial" font-size="11.00"> along </text>
</g>
<!-- Invis&#45;&gt;roadside -->
</g>
</svg>
