<?xml version="1.0" encoding="UTF-8" standalone="no"?>
<!DOCTYPE svg PUBLIC "-//W3C//DTD SVG 1.1//EN"
 "http://www.w3.org/Graphics/SVG/1.1/DTD/svg11.dtd">
<!-- Generated by graphviz version 14.1.3 (20260303.0454)
 -->
<!-- Pages: 1 -->
<svg width="180pt" height="162pt"
 viewBox="0.00 0.00 180.00 162.00" xmlns="http://www.w3.org/2000/svg" xmlns:xlink="http://www.w3.org/1999/xlink">
<g id="graph0" class="graph" transform="scale(1 1) rotate(0) translate(4 157.5)">
<polygon fill="white" stroke="none" points="-4,4 -4,-157.5 176.12,-157.5 176.12,4 -4,4"/>
<g id="clust2" class="cluster">
<title>cluster_associated</title>
</g>
<!-- stakeholder -->
<g id="node1" class="node">
<title>stakeholder</title>
<g id="a_node1"><a xlink:href="../terms/stakeholder/" xlink:title="&lt;TABLE&gt;">
<polygon fill="lightgray" stroke="none" points="1,-111.38 1,-127.62 65.25,-127.62 65.25,-111.38 1,-111.38"/>
<text xml:space="preserve" text-anchor="start" x="2" y="-115.38" font-family="Arial" font-size="12.00">stakeholder</text>
<polygon fill="none" stroke="black" points="0,-110.38 0,-128.62 66.25,-128.62 66.25,-110.38 0,-110.38"/>
</a>
</g>
</g>
<!-- Invis -->
<!-- stakeholder&#45;&gt;Invis -->
<!-- concern -->
<g id="node3" class="node">
<title>concern</title>
<g id="a_node3"><a xlink:href="../terms/concern/" xlink:title="&lt;TABLE&gt;" target="_top">
<polygon fill="lightgray" stroke="none" points="106.75,-25.88 106.75,-42.12 151.5,-42.12 151.5,-25.88 106.75,-25.88"/>
<text xml:space="preserve" text-anchor="start" x="107.75" y="-29.88" font-family="Arial" font-size="12.00">concern</text>
<polygon fill="none" stroke="black" points="105.75,-24.88 105.75,-43.12 152.5,-43.12 152.5,-24.88 105.75,-24.88"/>
</a>
</g>
</g>
<!-- stakeholder&#45;&gt;concern -->
<g id="edge3" class="edge">
<title>stakeholder&#45;&gt;concern</title>
<path fill="none" stroke="black" d="M52.55,-101.6C66.61,-89.38 85.8,-72.69 101.45,-59.07"/>
<polygon fill="black" stroke="black" points="103.34,-62.07 108.58,-52.87 98.74,-56.79 103.34,-62.07"/>
<text xml:space="preserve" text-anchor="middle" x="98.5" y="-73.05" font-family="Arial" font-size="11.00"> has </text>
</g>
<!-- Invis&#45;&gt;concern -->
</g>
</svg>
