<?xml version="1.0" encoding="UTF-8" standalone="no"?>
<!DOCTYPE svg PUBLIC "-//W3C//DTD SVG 1.1//EN"
 "http://www.w3.org/Graphics/SVG/1.1/DTD/svg11.dtd">
<!-- Generated by graphviz version 14.1.3 (20260303.0454)
 -->
<!-- Pages: 1 -->
<svg width="215pt" height="162pt"
 viewBox="0.00 0.00 215.00 162.00" xmlns="http://www.w3.org/2000/svg" xmlns:xlink="http://www.w3.org/1999/xlink">
<g id="graph0" class="graph" transform="scale(1 1) rotate(0) translate(4 157.5)">
<polygon fill="white" stroke="none" points="-4,4 -4,-157.5 210.75,-157.5 210.75,4 -4,4"/>
<g id="clust2" class="cluster">
<title>cluster_associated</title>
</g>
<!-- vehicle equipment -->
<g id="node1" class="node">
<title>vehicle equipment</title>
<polygon fill="lightgray" stroke="none" points="1,-111.38 1,-127.62 100.5,-127.62 100.5,-111.38 1,-111.38"/>
<text xml:space="preserve" text-anchor="start" x="2" y="-115.38" font-family="Arial" font-size="12.00">vehicle equipment</text>
<polygon fill="none" stroke="black" points="0,-110.38 0,-128.62 101.5,-128.62 101.5,-110.38 0,-110.38"/>
</g>
<!-- Invis -->
<!-- vehicle equipment&#45;&gt;Invis -->
<!-- vehicle -->
<g id="node3" class="node">
<title>vehicle</title>
<g id="a_node3"><a xlink:href="../terms/vehicle/" xlink:title="&lt;TABLE&gt;" target="_top">
<polygon fill="lightgray" stroke="none" points="143.62,-25.88 143.62,-42.12 183.88,-42.12 183.88,-25.88 143.62,-25.88"/>
<text xml:space="preserve" text-anchor="start" x="144.62" y="-29.88" font-family="Arial" font-size="12.00">vehicle</text>
<polygon fill="none" stroke="black" points="142.62,-24.88 142.62,-43.12 184.88,-43.12 184.88,-24.88 142.62,-24.88"/>
</a>
</g>
</g>
<!-- vehicle equipment&#45;&gt;vehicle -->
<g id="edge3" class="edge">
<title>vehicle equipment&#45;&gt;vehicle</title>
<path fill="none" stroke="black" d="M52.54,-101.76C54.47,-91.41 58.47,-78.52 66.75,-70 82.3,-54.02 105.68,-45.3 125.59,-40.56"/>
<polygon fill="black" stroke="black" points="126.28,-44 135.35,-38.52 124.84,-37.15 126.28,-44"/>
<text xml:space="preserve" text-anchor="middle" x="113.25" y="-73.05" font-family="Arial" font-size="11.00"> in use or on board </text>
</g>
<!-- Invis&#45;&gt;vehicle -->
</g>
</svg>
