<?xml version="1.0" encoding="UTF-8" standalone="no"?>
<!DOCTYPE svg PUBLIC "-//W3C//DTD SVG 1.1//EN"
 "http://www.w3.org/Graphics/SVG/1.1/DTD/svg11.dtd">
<!-- Generated by graphviz version 14.1.3 (20260303.0454)
 -->
<!-- Pages: 1 -->
<svg width="250pt" height="162pt"
 viewBox="0.00 0.00 250.00 162.00" xmlns="http://www.w3.org/2000/svg" xmlns:xlink="http://www.w3.org/1999/xlink">
<g id="graph0" class="graph" transform="scale(1 1) rotate(0) translate(4 157.5)">
<polygon fill="white" stroke="none" points="-4,4 -4,-157.5 245.5,-157.5 245.5,4 -4,4"/>
<g id="clust2" class="cluster">
<title>cluster_associated</title>
</g>
<!-- vehicle sharing -->
<g id="node1" class="node">
<title>vehicle sharing</title>
<polygon fill="lightgray" stroke="none" points="1,-111.38 1,-127.62 84,-127.62 84,-111.38 1,-111.38"/>
<text xml:space="preserve" text-anchor="start" x="2" y="-115.38" font-family="Arial" font-size="12.00">vehicle sharing</text>
<polygon fill="none" stroke="black" points="0,-110.38 0,-128.62 85,-128.62 85,-110.38 0,-110.38"/>
</g>
<!-- Invis -->
<!-- vehicle sharing&#45;&gt;Invis -->
<!-- sharedVehicleService -->
<g id="node3" class="node">
<title>sharedVehicleService</title>
<g id="a_node3"><a xlink:href="../terms/shared vehicle service/" xlink:title="&lt;TABLE&gt;" target="_top">
<polygon fill="lightgray" stroke="none" points="102.88,-25.88 102.88,-42.12 224.12,-42.12 224.12,-25.88 102.88,-25.88"/>
<text xml:space="preserve" text-anchor="start" x="103.88" y="-29.88" font-family="Arial" font-size="12.00">shared vehicle service</text>
<polygon fill="none" stroke="black" points="101.88,-24.88 101.88,-43.12 225.12,-43.12 225.12,-24.88 101.88,-24.88"/>
</a>
</g>
</g>
<!-- vehicle sharing&#45;&gt;sharedVehicleService -->
<g id="edge3" class="edge">
<title>vehicle sharing&#45;&gt;sharedVehicleService</title>
<path fill="none" stroke="black" d="M66.99,-101.6C85.03,-89.15 109.79,-72.07 129.71,-58.32"/>
<polygon fill="black" stroke="black" points="131.56,-61.29 137.8,-52.73 127.59,-55.53 131.56,-61.29"/>
<text xml:space="preserve" text-anchor="middle" x="125.99" y="-73.05" font-family="Arial" font-size="11.00"> using </text>
</g>
<!-- Invis&#45;&gt;sharedVehicleService -->
</g>
</svg>
