<?xml version="1.0" encoding="UTF-8" standalone="no"?>
<!DOCTYPE svg PUBLIC "-//W3C//DTD SVG 1.1//EN"
 "http://www.w3.org/Graphics/SVG/1.1/DTD/svg11.dtd">
<!-- Generated by graphviz version 14.0.2 (20251019.1705)
 -->
<!-- Pages: 1 -->
<svg width="262pt" height="305pt"
 viewBox="0.00 0.00 262.00 305.00" xmlns="http://www.w3.org/2000/svg" xmlns:xlink="http://www.w3.org/1999/xlink">
<g id="graph0" class="graph" transform="scale(1 1) rotate(0) translate(4 301)">
<polygon fill="white" stroke="none" points="-4,4 -4,-301 258.38,-301 258.38,4 -4,4"/>
<g id="clust2" class="cluster">
<title>cluster_associated</title>
</g>
<!-- ADS -->
<g id="node1" class="node">
<title>ADS</title>
<g id="a_node1"><a xlink:href="../classes/itsVocabulary__ADS.md" xlink:title="&lt;TABLE&gt;">
<polygon fill="lightgray" stroke="none" points="169.25,-197.88 169.25,-214.12 196.75,-214.12 196.75,-197.88 169.25,-197.88"/>
<text xml:space="preserve" text-anchor="start" x="170.25" y="-201.72" font-family="Arial" font-size="12.00">ADS</text>
<polygon fill="none" stroke="black" points="168.25,-196.88 168.25,-215.12 197.75,-215.12 197.75,-196.88 168.25,-196.88"/>
</a>
</g>
</g>
<!-- drivingAutomationSystem -->
<g id="node2" class="node">
<title>drivingAutomationSystem</title>
<g id="a_node2"><a xlink:href="../driving automation system/" xlink:title="&lt;TABLE&gt;" target="_top">
<polygon fill="lightgray" stroke="none" points="112.62,-270.88 112.62,-287.12 253.38,-287.12 253.38,-270.88 112.62,-270.88"/>
<text xml:space="preserve" text-anchor="start" x="113.62" y="-274.73" font-family="Arial" font-size="12.00">driving automation system</text>
<polygon fill="none" stroke="black" points="111.62,-269.88 111.62,-288.12 254.38,-288.12 254.38,-269.88 111.62,-269.88"/>
</a>
</g>
</g>
<!-- ADS&#45;&gt;drivingAutomationSystem -->
<g id="edge1" class="edge">
<title>ADS&#45;&gt;drivingAutomationSystem</title>
<path fill="none" stroke="black" d="M183,-223.71C183,-231.47 183,-240.92 183,-249.74"/>
<polygon fill="none" stroke="black" points="179.5,-249.66 183,-259.66 186.5,-249.66 179.5,-249.66"/>
</g>
<!-- Invis -->
<!-- ADS&#45;&gt;Invis -->
<!-- ads&#45;equippedVehicle -->
<g id="node4" class="node">
<title>ads&#45;equippedVehicle</title>
<g id="a_node4"><a xlink:href="../ADS-equipped vehicle/" xlink:title="&lt;TABLE&gt;" target="_top">
<polygon fill="lightgray" stroke="none" points="16.62,-98.88 16.62,-115.12 139.38,-115.12 139.38,-98.88 16.62,-98.88"/>
<text xml:space="preserve" text-anchor="start" x="17.62" y="-102.72" font-family="Arial" font-size="12.00">ADS&#45;equipped vehicle</text>
<polygon fill="none" stroke="black" points="15.62,-97.88 15.62,-116.12 140.38,-116.12 140.38,-97.88 15.62,-97.88"/>
</a>
</g>
</g>
<!-- ADS&#45;&gt;ads&#45;equippedVehicle -->
<g id="edge6" class="edge">
<title>ADS&#45;&gt;ads&#45;equippedVehicle</title>
<path fill="none" stroke="black" d="M156.05,-189.96C154.69,-189.28 153.33,-188.63 152,-188 132.32,-178.75 122.29,-184.96 106.5,-170 96.72,-160.74 90.01,-147.48 85.57,-135.6"/>
<polygon fill="black" stroke="black" points="88.93,-134.62 82.45,-126.24 82.29,-136.83 88.93,-134.62"/>
<text xml:space="preserve" text-anchor="middle" x="135.75" y="-159.55" font-family="Arial" font-size="11.00"> canControl </text>
<text xml:space="preserve" text-anchor="middle" x="135.75" y="-146.05" font-family="Arial" font-size="11.00"> «some» &#160;</text>
</g>
<!-- dynamicDrivingTask -->
<g id="node5" class="node">
<title>dynamicDrivingTask</title>
<g id="a_node5"><a xlink:href="../dynamic driving task/" xlink:title="&lt;TABLE&gt;" target="_top">
<polygon fill="lightgray" stroke="none" points="25.62,-25.88 25.62,-42.12 136.38,-42.12 136.38,-25.88 25.62,-25.88"/>
<text xml:space="preserve" text-anchor="start" x="26.62" y="-29.73" font-family="Arial" font-size="12.00">dynamic driving task</text>
<polygon fill="none" stroke="black" points="24.62,-24.88 24.62,-43.12 137.38,-43.12 137.38,-24.88 24.62,-24.88"/>
</a>
</g>
</g>
<!-- ADS&#45;&gt;dynamicDrivingTask -->
<g id="edge5" class="edge">
<title>ADS&#45;&gt;dynamicDrivingTask</title>
<path fill="none" stroke="black" d="M181.33,-188.28C178.27,-164.44 170.02,-120.13 149,-89 141.09,-77.29 129.86,-66.91 118.79,-58.46"/>
<polygon fill="black" stroke="black" points="121,-55.74 110.84,-52.72 116.9,-61.41 121,-55.74"/>
<text xml:space="preserve" text-anchor="middle" x="202.06" y="-110.05" font-family="Arial" font-size="11.00"> performsAllOf </text>
<text xml:space="preserve" text-anchor="middle" x="202.06" y="-96.55" font-family="Arial" font-size="11.00"> «some» &#160;</text>
</g>
<!-- Invis&#45;&gt;ads&#45;equippedVehicle -->
<!-- ads&#45;equippedVehicle&#45;&gt;dynamicDrivingTask -->
</g>
</svg>
