<?xml version="1.0" encoding="UTF-8" standalone="no"?>
<!DOCTYPE svg PUBLIC "-//W3C//DTD SVG 1.1//EN"
 "http://www.w3.org/Graphics/SVG/1.1/DTD/svg11.dtd">
<!-- Generated by graphviz version 14.0.2 (20251019.1705)
 -->
<!-- Pages: 1 -->
<svg width="150pt" height="132pt"
 viewBox="0.00 0.00 150.00 132.00" xmlns="http://www.w3.org/2000/svg" xmlns:xlink="http://www.w3.org/1999/xlink">
<g id="graph0" class="graph" transform="scale(1 1) rotate(0) translate(4 128)">
<polygon fill="white" stroke="none" points="-4,4 -4,-128 146,-128 146,4 -4,4"/>
<g id="clust2" class="cluster">
<title>cluster_associated</title>
</g>
<!-- alley -->
<g id="node1" class="node">
<title>alley</title>
<g id="a_node1"><a xlink:href="../classes/itsVocabulary__alley.md" xlink:title="&lt;TABLE&gt;">
<polygon fill="lightgray" stroke="none" points="13.25,-25.88 13.25,-42.12 40.75,-42.12 40.75,-25.88 13.25,-25.88"/>
<text xml:space="preserve" text-anchor="start" x="14.25" y="-29.73" font-family="Arial" font-size="12.00">alley</text>
<polygon fill="none" stroke="black" points="12.25,-24.88 12.25,-43.12 41.75,-43.12 41.75,-24.88 12.25,-24.88"/>
</a>
</g>
</g>
<!-- road -->
<g id="node2" class="node">
<title>road</title>
<g id="a_node2"><a xlink:href="../road/" xlink:title="&lt;TABLE&gt;" target="_top">
<polygon fill="lightgray" stroke="none" points="14,-97.88 14,-114.12 40,-114.12 40,-97.88 14,-97.88"/>
<text xml:space="preserve" text-anchor="start" x="15" y="-101.72" font-family="Arial" font-size="12.00">road</text>
<polygon fill="none" stroke="black" points="13,-96.88 13,-115.12 41,-115.12 41,-96.88 13,-96.88"/>
</a>
</g>
</g>
<!-- alley&#45;&gt;road -->
<g id="edge1" class="edge">
<title>alley&#45;&gt;road</title>
<path fill="none" stroke="black" d="M27,-51.79C27,-59.25 27,-68.24 27,-76.69"/>
<polygon fill="none" stroke="black" points="23.5,-76.54 27,-86.54 30.5,-76.54 23.5,-76.54"/>
</g>
<!-- Invis -->
</g>
</svg>
