<?xml version="1.0" encoding="UTF-8" standalone="no"?>
<!DOCTYPE svg PUBLIC "-//W3C//DTD SVG 1.1//EN"
 "http://www.w3.org/Graphics/SVG/1.1/DTD/svg11.dtd">
<!-- Generated by graphviz version 14.0.2 (20251019.1705)
 -->
<!-- Pages: 1 -->
<svg width="277pt" height="175pt"
 viewBox="0.00 0.00 277.00 175.00" xmlns="http://www.w3.org/2000/svg" xmlns:xlink="http://www.w3.org/1999/xlink">
<g id="graph0" class="graph" transform="scale(1 1) rotate(0) translate(4 171)">
<polygon fill="white" stroke="none" points="-4,4 -4,-171 272.88,-171 272.88,4 -4,4"/>
<g id="clust2" class="cluster">
<title>cluster_associated</title>
</g>
<!-- anonymized vehicle reference -->
<g id="node1" class="node">
<title>anonymized vehicle reference</title>
<g id="a_node1"><a xlink:href="../classes/itsVocabulary__anonymized vehicle reference.md" xlink:title="&lt;TABLE&gt;">
<polygon fill="lightgray" stroke="none" points="1,-124.88 1,-141.12 162.75,-141.12 162.75,-124.88 1,-124.88"/>
<text xml:space="preserve" text-anchor="start" x="2" y="-128.72" font-family="Arial" font-size="12.00">anonymized vehicle reference</text>
<polygon fill="none" stroke="black" points="0,-123.88 0,-142.12 163.75,-142.12 163.75,-123.88 0,-123.88"/>
</a>
</g>
</g>
<!-- Invis -->
<!-- anonymized vehicle reference&#45;&gt;Invis -->
<!-- vehicle -->
<g id="node3" class="node">
<title>vehicle</title>
<g id="a_node3"><a xlink:href="../vehicle/" xlink:title="&lt;TABLE&gt;" target="_top">
<polygon fill="lightgray" stroke="none" points="205.75,-25.88 205.75,-42.12 246,-42.12 246,-25.88 205.75,-25.88"/>
<text xml:space="preserve" text-anchor="start" x="206.75" y="-29.73" font-family="Arial" font-size="12.00">vehicle</text>
<polygon fill="none" stroke="black" points="204.75,-24.88 204.75,-43.12 247,-43.12 247,-24.88 204.75,-24.88"/>
</a>
</g>
</g>
<!-- anonymized vehicle reference&#45;&gt;vehicle -->
<g id="edge3" class="edge">
<title>anonymized vehicle reference&#45;&gt;vehicle</title>
<path fill="none" stroke="black" d="M84.79,-115.2C88.07,-101.22 94.75,-81.77 107.88,-70 129.95,-50.21 162.76,-41.59 188.18,-37.84"/>
<polygon fill="black" stroke="black" points="188.29,-41.36 197.78,-36.63 187.42,-34.41 188.29,-41.36"/>
<text xml:space="preserve" text-anchor="middle" x="164.88" y="-86.55" font-family="Arial" font-size="11.00"> encodedReferenceFor </text>
<text xml:space="preserve" text-anchor="middle" x="164.88" y="-73.05" font-family="Arial" font-size="11.00"> «exactly 1» &#160;</text>
</g>
<!-- Invis&#45;&gt;vehicle -->
</g>
</svg>
