<?xml version="1.0" encoding="UTF-8" standalone="no"?>
<!DOCTYPE svg PUBLIC "-//W3C//DTD SVG 1.1//EN"
 "http://www.w3.org/Graphics/SVG/1.1/DTD/svg11.dtd">
<!-- Generated by graphviz version 14.0.2 (20251019.1705)
 -->
<!-- Pages: 1 -->
<svg width="302pt" height="175pt"
 viewBox="0.00 0.00 302.00 175.00" xmlns="http://www.w3.org/2000/svg" xmlns:xlink="http://www.w3.org/1999/xlink">
<g id="graph0" class="graph" transform="scale(1 1) rotate(0) translate(4 171)">
<polygon fill="white" stroke="none" points="-4,4 -4,-171 298.38,-171 298.38,4 -4,4"/>
<g id="clust2" class="cluster">
<title>cluster_associated</title>
</g>
<!-- architecture framework -->
<g id="node1" class="node">
<title>architecture framework</title>
<g id="a_node1"><a xlink:href="../classes/itsVocabulary__architecture framework.md" xlink:title="&lt;TABLE&gt;">
<polygon fill="lightgray" stroke="none" points="1,-124.88 1,-141.12 123.75,-141.12 123.75,-124.88 1,-124.88"/>
<text xml:space="preserve" text-anchor="start" x="2" y="-128.72" font-family="Arial" font-size="12.00">architecture framework</text>
<polygon fill="none" stroke="black" points="0,-123.88 0,-142.12 124.75,-142.12 124.75,-123.88 0,-123.88"/>
</a>
</g>
</g>
<!-- Invis -->
<!-- architecture framework&#45;&gt;Invis -->
<!-- architectureDescription -->
<g id="node3" class="node">
<title>architectureDescription</title>
<g id="a_node3"><a xlink:href="../architecture description/" xlink:title="&lt;TABLE&gt;" target="_top">
<polygon fill="lightgray" stroke="none" points="151.5,-25.88 151.5,-42.12 277.25,-42.12 277.25,-25.88 151.5,-25.88"/>
<text xml:space="preserve" text-anchor="start" x="152.5" y="-29.73" font-family="Arial" font-size="12.00">architecture description</text>
<polygon fill="none" stroke="black" points="150.5,-24.88 150.5,-43.12 278.25,-43.12 278.25,-24.88 150.5,-24.88"/>
</a>
</g>
</g>
<!-- architecture framework&#45;&gt;architectureDescription -->
<g id="edge3" class="edge">
<title>architecture framework&#45;&gt;architectureDescription</title>
<path fill="none" stroke="black" d="M46.85,-115.01C36.58,-101.65 26.81,-83.17 37.62,-70 50.72,-54.06 97.25,-45.25 139.28,-40.46"/>
<polygon fill="black" stroke="black" points="139.62,-43.94 149.19,-39.4 138.87,-36.98 139.62,-43.94"/>
<text xml:space="preserve" text-anchor="middle" x="132.5" y="-86.55" font-family="Arial" font-size="11.00"> conventionsPrinciplesAndPracticesFor </text>
<text xml:space="preserve" text-anchor="middle" x="132.5" y="-73.05" font-family="Arial" font-size="11.00"> «some» &#160;</text>
</g>
<!-- Invis&#45;&gt;architectureDescription -->
</g>
</svg>
