<?xml version="1.0" encoding="UTF-8" standalone="no"?>
<!DOCTYPE svg PUBLIC "-//W3C//DTD SVG 1.1//EN"
 "http://www.w3.org/Graphics/SVG/1.1/DTD/svg11.dtd">
<!-- Generated by graphviz version 14.0.2 (20251019.1705)
 -->
<!-- Pages: 1 -->
<svg width="186pt" height="132pt"
 viewBox="0.00 0.00 186.00 132.00" xmlns="http://www.w3.org/2000/svg" xmlns:xlink="http://www.w3.org/1999/xlink">
<g id="graph0" class="graph" transform="scale(1 1) rotate(0) translate(4 128)">
<polygon fill="white" stroke="none" points="-4,4 -4,-128 181.75,-128 181.75,4 -4,4"/>
<g id="clust2" class="cluster">
<title>cluster_associated</title>
</g>
<!-- area destination -->
<g id="node1" class="node">
<title>area destination</title>
<g id="a_node1"><a xlink:href="../classes/itsVocabulary__area destination.md" xlink:title="&lt;TABLE&gt;">
<polygon fill="lightgray" stroke="none" points="1,-25.88 1,-42.12 88.5,-42.12 88.5,-25.88 1,-25.88"/>
<text xml:space="preserve" text-anchor="start" x="2" y="-29.73" font-family="Arial" font-size="12.00">area destination</text>
<polygon fill="none" stroke="black" points="0,-24.88 0,-43.12 89.5,-43.12 89.5,-24.88 0,-24.88"/>
</a>
</g>
</g>
<!-- areaLocation -->
<g id="node2" class="node">
<title>areaLocation</title>
<g id="a_node2"><a xlink:href="../area location/" xlink:title="&lt;TABLE&gt;" target="_top">
<polygon fill="lightgray" stroke="none" points="9.25,-97.88 9.25,-114.12 80.25,-114.12 80.25,-97.88 9.25,-97.88"/>
<text xml:space="preserve" text-anchor="start" x="10.25" y="-101.72" font-family="Arial" font-size="12.00">area location</text>
<polygon fill="none" stroke="black" points="8.25,-96.88 8.25,-115.12 81.25,-115.12 81.25,-96.88 8.25,-96.88"/>
</a>
</g>
</g>
<!-- area destination&#45;&gt;areaLocation -->
<g id="edge1" class="edge">
<title>area destination&#45;&gt;areaLocation</title>
<path fill="none" stroke="black" d="M44.75,-51.79C44.75,-59.25 44.75,-68.24 44.75,-76.69"/>
<polygon fill="none" stroke="black" points="41.25,-76.54 44.75,-86.54 48.25,-76.54 41.25,-76.54"/>
</g>
<!-- Invis -->
</g>
</svg>
