<?xml version="1.0" encoding="UTF-8" standalone="no"?>
<!DOCTYPE svg PUBLIC "-//W3C//DTD SVG 1.1//EN"
 "http://www.w3.org/Graphics/SVG/1.1/DTD/svg11.dtd">
<!-- Generated by graphviz version 14.0.2 (20251019.1705)
 -->
<!-- Pages: 1 -->
<svg width="175pt" height="132pt"
 viewBox="0.00 0.00 175.00 132.00" xmlns="http://www.w3.org/2000/svg" xmlns:xlink="http://www.w3.org/1999/xlink">
<g id="graph0" class="graph" transform="scale(1 1) rotate(0) translate(4 128)">
<polygon fill="white" stroke="none" points="-4,4 -4,-128 171.12,-128 171.12,4 -4,4"/>
<g id="clust2" class="cluster">
<title>cluster_associated</title>
</g>
<!-- area location -->
<g id="node1" class="node">
<title>area location</title>
<g id="a_node1"><a xlink:href="../classes/itsVocabulary__area location.md" xlink:title="&lt;TABLE&gt;">
<polygon fill="lightgray" stroke="none" points="6.62,-25.88 6.62,-42.12 77.62,-42.12 77.62,-25.88 6.62,-25.88"/>
<text xml:space="preserve" text-anchor="start" x="7.62" y="-29.73" font-family="Arial" font-size="12.00">area location</text>
<polygon fill="none" stroke="black" points="5.62,-24.88 5.62,-43.12 78.62,-43.12 78.62,-24.88 5.62,-24.88"/>
</a>
</g>
</g>
<!-- spatialLocation -->
<g id="node2" class="node">
<title>spatialLocation</title>
<g id="a_node2"><a xlink:href="../spatial location/" xlink:title="&lt;TABLE&gt;" target="_top">
<polygon fill="lightgray" stroke="none" points="1,-97.88 1,-114.12 83.25,-114.12 83.25,-97.88 1,-97.88"/>
<text xml:space="preserve" text-anchor="start" x="2" y="-101.72" font-family="Arial" font-size="12.00">spatial location</text>
<polygon fill="none" stroke="black" points="0,-96.88 0,-115.12 84.25,-115.12 84.25,-96.88 0,-96.88"/>
</a>
</g>
</g>
<!-- area location&#45;&gt;spatialLocation -->
<g id="edge1" class="edge">
<title>area location&#45;&gt;spatialLocation</title>
<path fill="none" stroke="black" d="M42.12,-51.79C42.12,-59.25 42.12,-68.24 42.12,-76.69"/>
<polygon fill="none" stroke="black" points="38.63,-76.54 42.13,-86.54 45.63,-76.54 38.63,-76.54"/>
</g>
<!-- Invis -->
</g>
</svg>
