<?xml version="1.0" encoding="UTF-8" standalone="no"?>
<!DOCTYPE svg PUBLIC "-//W3C//DTD SVG 1.1//EN"
 "http://www.w3.org/Graphics/SVG/1.1/DTD/svg11.dtd">
<!-- Generated by graphviz version 14.0.2 (20251019.1705)
 -->
<!-- Pages: 1 -->
<svg width="234pt" height="132pt"
 viewBox="0.00 0.00 234.00 132.00" xmlns="http://www.w3.org/2000/svg" xmlns:xlink="http://www.w3.org/1999/xlink">
<g id="graph0" class="graph" transform="scale(1 1) rotate(0) translate(4 128)">
<polygon fill="white" stroke="none" points="-4,4 -4,-128 230.12,-128 230.12,4 -4,4"/>
<g id="clust2" class="cluster">
<title>cluster_associated</title>
</g>
<!-- B2C mobility sharing app -->
<g id="node1" class="node">
<title>B2C mobility sharing app</title>
<g id="a_node1"><a xlink:href="../classes/itsVocabulary__B2C mobility sharing app.md" xlink:title="&lt;TABLE&gt;">
<polygon fill="lightgray" stroke="none" points="1,-25.88 1,-42.12 137.25,-42.12 137.25,-25.88 1,-25.88"/>
<text xml:space="preserve" text-anchor="start" x="2" y="-29.73" font-family="Arial" font-size="12.00">B2C mobility sharing app</text>
<polygon fill="none" stroke="black" points="0,-24.88 0,-43.12 138.25,-43.12 138.25,-24.88 0,-24.88"/>
</a>
</g>
</g>
<!-- mobilityApp -->
<g id="node2" class="node">
<title>mobilityApp</title>
<g id="a_node2"><a xlink:href="../mobility app/" xlink:title="&lt;TABLE&gt;" target="_top">
<polygon fill="lightgray" stroke="none" points="35.88,-97.88 35.88,-114.12 102.38,-114.12 102.38,-97.88 35.88,-97.88"/>
<text xml:space="preserve" text-anchor="start" x="36.88" y="-101.72" font-family="Arial" font-size="12.00">mobility app</text>
<polygon fill="none" stroke="black" points="34.88,-96.88 34.88,-115.12 103.38,-115.12 103.38,-96.88 34.88,-96.88"/>
</a>
</g>
</g>
<!-- B2C mobility sharing app&#45;&gt;mobilityApp -->
<g id="edge1" class="edge">
<title>B2C mobility sharing app&#45;&gt;mobilityApp</title>
<path fill="none" stroke="black" d="M69.12,-51.79C69.12,-59.25 69.12,-68.24 69.12,-76.69"/>
<polygon fill="none" stroke="black" points="65.63,-76.54 69.13,-86.54 72.63,-76.54 65.63,-76.54"/>
</g>
<!-- Invis -->
</g>
</svg>
