<?xml version="1.0" encoding="UTF-8" standalone="no"?>
<!DOCTYPE svg PUBLIC "-//W3C//DTD SVG 1.1//EN"
 "http://www.w3.org/Graphics/SVG/1.1/DTD/svg11.dtd">
<!-- Generated by graphviz version 14.0.2 (20251019.1705)
 -->
<!-- Pages: 1 -->
<svg width="212pt" height="132pt"
 viewBox="0.00 0.00 212.00 132.00" xmlns="http://www.w3.org/2000/svg" xmlns:xlink="http://www.w3.org/1999/xlink">
<g id="graph0" class="graph" transform="scale(1 1) rotate(0) translate(4 128)">
<polygon fill="white" stroke="none" points="-4,4 -4,-128 207.62,-128 207.62,4 -4,4"/>
<g id="clust2" class="cluster">
<title>cluster_associated</title>
</g>
<!-- bikesharing service -->
<g id="node1" class="node">
<title>bikesharing service</title>
<g id="a_node1"><a xlink:href="../classes/itsVocabulary__bikesharing service.md" xlink:title="&lt;TABLE&gt;">
<polygon fill="lightgray" stroke="none" points="8.88,-25.88 8.88,-42.12 114.38,-42.12 114.38,-25.88 8.88,-25.88"/>
<text xml:space="preserve" text-anchor="start" x="9.88" y="-29.73" font-family="Arial" font-size="12.00">bikesharing service</text>
<polygon fill="none" stroke="black" points="7.88,-24.88 7.88,-43.12 115.38,-43.12 115.38,-24.88 7.88,-24.88"/>
</a>
</g>
</g>
<!-- sharedVehicleService -->
<g id="node2" class="node">
<title>sharedVehicleService</title>
<g id="a_node2"><a xlink:href="../shared vehicle service/" xlink:title="&lt;TABLE&gt;" target="_top">
<polygon fill="lightgray" stroke="none" points="1,-97.88 1,-114.12 122.25,-114.12 122.25,-97.88 1,-97.88"/>
<text xml:space="preserve" text-anchor="start" x="2" y="-101.72" font-family="Arial" font-size="12.00">shared vehicle service</text>
<polygon fill="none" stroke="black" points="0,-96.88 0,-115.12 123.25,-115.12 123.25,-96.88 0,-96.88"/>
</a>
</g>
</g>
<!-- bikesharing service&#45;&gt;sharedVehicleService -->
<g id="edge1" class="edge">
<title>bikesharing service&#45;&gt;sharedVehicleService</title>
<path fill="none" stroke="black" d="M61.62,-51.79C61.62,-59.25 61.62,-68.24 61.62,-76.69"/>
<polygon fill="none" stroke="black" points="58.13,-76.54 61.63,-86.54 65.13,-76.54 58.13,-76.54"/>
</g>
<!-- Invis -->
</g>
</svg>
