<?xml version="1.0" encoding="UTF-8" standalone="no"?>
<!DOCTYPE svg PUBLIC "-//W3C//DTD SVG 1.1//EN"
 "http://www.w3.org/Graphics/SVG/1.1/DTD/svg11.dtd">
<!-- Generated by graphviz version 14.0.2 (20251019.1705)
 -->
<!-- Pages: 1 -->
<svg width="304pt" height="232pt"
 viewBox="0.00 0.00 304.00 232.00" xmlns="http://www.w3.org/2000/svg" xmlns:xlink="http://www.w3.org/1999/xlink">
<g id="graph0" class="graph" transform="scale(1 1) rotate(0) translate(4 228)">
<polygon fill="white" stroke="none" points="-4,4 -4,-228 299.5,-228 299.5,4 -4,4"/>
<g id="clust2" class="cluster">
<title>cluster_associated</title>
</g>
<!-- communications viewpoint -->
<g id="node1" class="node">
<title>communications viewpoint</title>
<g id="a_node1"><a xlink:href="../classes/itsVocabulary__communications viewpoint.md" xlink:title="&lt;TABLE&gt;">
<polygon fill="lightgray" stroke="none" points="151.5,-124.88 151.5,-141.12 294.5,-141.12 294.5,-124.88 151.5,-124.88"/>
<text xml:space="preserve" text-anchor="start" x="152.5" y="-128.72" font-family="Arial" font-size="12.00">communications viewpoint</text>
<polygon fill="none" stroke="black" points="150.5,-123.88 150.5,-142.12 295.5,-142.12 295.5,-123.88 150.5,-123.88"/>
</a>
</g>
</g>
<!-- architectureViewpoint -->
<g id="node2" class="node">
<title>architectureViewpoint</title>
<g id="a_node2"><a xlink:href="../architecture viewpoint/" xlink:title="&lt;TABLE&gt;" target="_top">
<polygon fill="lightgray" stroke="none" points="163.88,-197.88 163.88,-214.12 282.12,-214.12 282.12,-197.88 163.88,-197.88"/>
<text xml:space="preserve" text-anchor="start" x="164.88" y="-201.72" font-family="Arial" font-size="12.00">architecture viewpoint</text>
<polygon fill="none" stroke="black" points="162.88,-196.88 162.88,-215.12 283.12,-215.12 283.12,-196.88 162.88,-196.88"/>
</a>
</g>
</g>
<!-- communications viewpoint&#45;&gt;architectureViewpoint -->
<g id="edge1" class="edge">
<title>communications viewpoint&#45;&gt;architectureViewpoint</title>
<path fill="none" stroke="black" d="M223,-150.71C223,-158.47 223,-167.92 223,-176.74"/>
<polygon fill="none" stroke="black" points="219.5,-176.66 223,-186.66 226.5,-176.66 219.5,-176.66"/>
</g>
<!-- Invis -->
<!-- communications viewpoint&#45;&gt;Invis -->
<!-- communicationsView -->
<g id="node4" class="node">
<title>communicationsView</title>
<g id="a_node4"><a xlink:href="../communications view/" xlink:title="&lt;TABLE&gt;" target="_top">
<polygon fill="lightgray" stroke="none" points="16.62,-25.88 16.62,-42.12 133.38,-42.12 133.38,-25.88 16.62,-25.88"/>
<text xml:space="preserve" text-anchor="start" x="17.62" y="-29.73" font-family="Arial" font-size="12.00">communications view</text>
<polygon fill="none" stroke="black" points="15.62,-24.88 15.62,-43.12 134.38,-43.12 134.38,-24.88 15.62,-24.88"/>
</a>
</g>
</g>
<!-- communications viewpoint&#45;&gt;communicationsView -->
<g id="edge4" class="edge">
<title>communications viewpoint&#45;&gt;communicationsView</title>
<path fill="none" stroke="black" d="M197.22,-115.1C173.03,-99.25 136.65,-75.41 109.88,-57.86"/>
<polygon fill="black" stroke="black" points="112.03,-55.09 101.75,-52.53 108.2,-60.94 112.03,-55.09"/>
<text xml:space="preserve" text-anchor="middle" x="190.23" y="-86.55" font-family="Arial" font-size="11.00"> governs </text>
<text xml:space="preserve" text-anchor="middle" x="190.23" y="-73.05" font-family="Arial" font-size="11.00"> «some» &#160;</text>
</g>
<!-- Invis&#45;&gt;communicationsView -->
</g>
</svg>
