<?xml version="1.0" encoding="UTF-8" standalone="no"?>
<!DOCTYPE svg PUBLIC "-//W3C//DTD SVG 1.1//EN"
 "http://www.w3.org/Graphics/SVG/1.1/DTD/svg11.dtd">
<!-- Generated by graphviz version 14.0.2 (20251019.1705)
 -->
<!-- Pages: 1 -->
<svg width="205pt" height="175pt"
 viewBox="0.00 0.00 205.00 175.00" xmlns="http://www.w3.org/2000/svg" xmlns:xlink="http://www.w3.org/1999/xlink">
<g id="graph0" class="graph" transform="scale(1 1) rotate(0) translate(4 171)">
<polygon fill="white" stroke="none" points="-4,4 -4,-171 201.25,-171 201.25,4 -4,4"/>
<g id="clust2" class="cluster">
<title>cluster_associated</title>
</g>
<!-- cross&#45;section -->
<g id="node1" class="node">
<title>cross&#45;section</title>
<g id="a_node1"><a xlink:href="../classes/itsVocabulary__cross-section.md" xlink:title="&lt;TABLE&gt;">
<polygon fill="lightgray" stroke="none" points="1,-124.88 1,-141.12 73.5,-141.12 73.5,-124.88 1,-124.88"/>
<text xml:space="preserve" text-anchor="start" x="2" y="-128.72" font-family="Arial" font-size="12.00">cross&#45;section</text>
<polygon fill="none" stroke="black" points="0,-123.88 0,-142.12 74.5,-142.12 74.5,-123.88 0,-123.88"/>
</a>
</g>
</g>
<!-- Invis -->
<!-- cross&#45;section&#45;&gt;Invis -->
<!-- roadReservation -->
<g id="node3" class="node">
<title>roadReservation</title>
<g id="a_node3"><a xlink:href="../road reservation/" xlink:title="&lt;TABLE&gt;" target="_top">
<polygon fill="lightgray" stroke="none" points="92.12,-25.88 92.12,-42.12 180.38,-42.12 180.38,-25.88 92.12,-25.88"/>
<text xml:space="preserve" text-anchor="start" x="93.12" y="-29.73" font-family="Arial" font-size="12.00">road reservation</text>
<polygon fill="none" stroke="black" points="91.12,-24.88 91.12,-43.12 181.38,-43.12 181.38,-24.88 91.12,-24.88"/>
</a>
</g>
</g>
<!-- cross&#45;section&#45;&gt;roadReservation -->
<g id="edge3" class="edge">
<title>cross&#45;section&#45;&gt;roadReservation</title>
<path fill="none" stroke="black" d="M45.39,-115.24C52.5,-101.83 63.81,-83.17 77.5,-70 81.94,-65.73 86.99,-61.75 92.22,-58.13"/>
<polygon fill="black" stroke="black" points="93.97,-61.17 100.48,-52.81 90.18,-55.28 93.97,-61.17"/>
<text xml:space="preserve" text-anchor="middle" x="104.88" y="-86.55" font-family="Arial" font-size="11.00"> comprises </text>
<text xml:space="preserve" text-anchor="middle" x="104.88" y="-73.05" font-family="Arial" font-size="11.00"> «some» &#160;</text>
</g>
<!-- Invis&#45;&gt;roadReservation -->
</g>
</svg>
