<?xml version="1.0" encoding="UTF-8" standalone="no"?>
<!DOCTYPE svg PUBLIC "-//W3C//DTD SVG 1.1//EN"
 "http://www.w3.org/Graphics/SVG/1.1/DTD/svg11.dtd">
<!-- Generated by graphviz version 14.0.2 (20251019.1705)
 -->
<!-- Pages: 1 -->
<svg width="154pt" height="132pt"
 viewBox="0.00 0.00 154.00 132.00" xmlns="http://www.w3.org/2000/svg" xmlns:xlink="http://www.w3.org/1999/xlink">
<g id="graph0" class="graph" transform="scale(1 1) rotate(0) translate(4 128)">
<polygon fill="white" stroke="none" points="-4,4 -4,-128 150,-128 150,4 -4,4"/>
<g id="clust2" class="cluster">
<title>cluster_associated</title>
</g>
<!-- cycle lane -->
<g id="node1" class="node">
<title>cycle lane</title>
<g id="a_node1"><a xlink:href="../classes/itsVocabulary__cycle lane.md" xlink:title="&lt;TABLE&gt;">
<polygon fill="lightgray" stroke="none" points="1,-25.88 1,-42.12 57,-42.12 57,-25.88 1,-25.88"/>
<text xml:space="preserve" text-anchor="start" x="2" y="-29.73" font-family="Arial" font-size="12.00">cycle lane</text>
<polygon fill="none" stroke="black" points="0,-24.88 0,-43.12 58,-43.12 58,-24.88 0,-24.88"/>
</a>
</g>
</g>
<!-- lane -->
<g id="node2" class="node">
<title>lane</title>
<g id="a_node2"><a xlink:href="../lane/" xlink:title="&lt;TABLE&gt;" target="_top">
<polygon fill="lightgray" stroke="none" points="16.38,-97.88 16.38,-114.12 41.62,-114.12 41.62,-97.88 16.38,-97.88"/>
<text xml:space="preserve" text-anchor="start" x="17.38" y="-101.72" font-family="Arial" font-size="12.00">lane</text>
<polygon fill="none" stroke="black" points="15.38,-96.88 15.38,-115.12 42.62,-115.12 42.62,-96.88 15.38,-96.88"/>
</a>
</g>
</g>
<!-- cycle lane&#45;&gt;lane -->
<g id="edge1" class="edge">
<title>cycle lane&#45;&gt;lane</title>
<path fill="none" stroke="black" d="M29,-51.79C29,-59.25 29,-68.24 29,-76.69"/>
<polygon fill="none" stroke="black" points="25.5,-76.54 29,-86.54 32.5,-76.54 25.5,-76.54"/>
</g>
<!-- Invis -->
</g>
</svg>
