<?xml version="1.0" encoding="UTF-8" standalone="no"?>
<!DOCTYPE svg PUBLIC "-//W3C//DTD SVG 1.1//EN"
 "http://www.w3.org/Graphics/SVG/1.1/DTD/svg11.dtd">
<!-- Generated by graphviz version 14.0.2 (20251019.1705)
 -->
<!-- Pages: 1 -->
<svg width="207pt" height="175pt"
 viewBox="0.00 0.00 207.00 175.00" xmlns="http://www.w3.org/2000/svg" xmlns:xlink="http://www.w3.org/1999/xlink">
<g id="graph0" class="graph" transform="scale(1 1) rotate(0) translate(4 171)">
<polygon fill="white" stroke="none" points="-4,4 -4,-171 203,-171 203,4 -4,4"/>
<g id="clust2" class="cluster">
<title>cluster_associated</title>
</g>
<!-- design speed -->
<g id="node1" class="node">
<title>design speed</title>
<g id="a_node1"><a xlink:href="../classes/itsVocabulary__design speed.md" xlink:title="&lt;TABLE&gt;">
<polygon fill="lightgray" stroke="none" points="1,-124.88 1,-141.12 75,-141.12 75,-124.88 1,-124.88"/>
<text xml:space="preserve" text-anchor="start" x="2" y="-128.72" font-family="Arial" font-size="12.00">design speed</text>
<polygon fill="none" stroke="black" points="0,-123.88 0,-142.12 76,-142.12 76,-123.88 0,-123.88"/>
</a>
</g>
</g>
<!-- Invis -->
<!-- design speed&#45;&gt;Invis -->
<!-- vehicle -->
<g id="node3" class="node">
<title>vehicle</title>
<g id="a_node3"><a xlink:href="../vehicle/" xlink:title="&lt;TABLE&gt;" target="_top">
<polygon fill="lightgray" stroke="none" points="135.88,-25.88 135.88,-42.12 176.12,-42.12 176.12,-25.88 135.88,-25.88"/>
<text xml:space="preserve" text-anchor="start" x="136.88" y="-29.73" font-family="Arial" font-size="12.00">vehicle</text>
<polygon fill="none" stroke="black" points="134.88,-24.88 134.88,-43.12 177.12,-43.12 177.12,-24.88 134.88,-24.88"/>
</a>
</g>
</g>
<!-- design speed&#45;&gt;vehicle -->
<g id="edge3" class="edge">
<title>design speed&#45;&gt;vehicle</title>
<path fill="none" stroke="black" d="M24.13,-115.03C15,-101.68 6.46,-83.19 16.75,-70 29.09,-54.17 81.03,-44.4 117.85,-39.34"/>
<polygon fill="black" stroke="black" points="118.24,-42.82 127.7,-38.05 117.33,-35.88 118.24,-42.82"/>
<text xml:space="preserve" text-anchor="middle" x="88.38" y="-86.55" font-family="Arial" font-size="11.00"> maximumSustainedSpeedOf </text>
<text xml:space="preserve" text-anchor="middle" x="88.38" y="-73.05" font-family="Arial" font-size="11.00"> «exactly 1» &#160;</text>
</g>
<!-- Invis&#45;&gt;vehicle -->
</g>
</svg>
