<?xml version="1.0" encoding="UTF-8" standalone="no"?>
<!DOCTYPE svg PUBLIC "-//W3C//DTD SVG 1.1//EN"
 "http://www.w3.org/Graphics/SVG/1.1/DTD/svg11.dtd">
<!-- Generated by graphviz version 14.0.2 (20251019.1705)
 -->
<!-- Pages: 1 -->
<svg width="189pt" height="248pt"
 viewBox="0.00 0.00 189.00 248.00" xmlns="http://www.w3.org/2000/svg" xmlns:xlink="http://www.w3.org/1999/xlink">
<g id="graph0" class="graph" transform="scale(1 1) rotate(0) translate(4 244)">
<polygon fill="white" stroke="none" points="-4,4 -4,-244 184.62,-244 184.62,4 -4,4"/>
<g id="clust2" class="cluster">
<title>cluster_associated</title>
</g>
<!-- driving space -->
<g id="node1" class="node">
<title>driving space</title>
<g id="a_node1"><a xlink:href="../classes/itsVocabulary__driving space.md" xlink:title="&lt;TABLE&gt;">
<polygon fill="lightgray" stroke="none" points="1,-197.88 1,-214.12 74.25,-214.12 74.25,-197.88 1,-197.88"/>
<text xml:space="preserve" text-anchor="start" x="2" y="-201.72" font-family="Arial" font-size="12.00">driving space</text>
<polygon fill="none" stroke="black" points="0,-196.88 0,-215.12 75.25,-215.12 75.25,-196.88 0,-196.88"/>
</a>
</g>
</g>
<!-- Invis -->
<!-- driving space&#45;&gt;Invis -->
<!-- roadway -->
<g id="node3" class="node">
<title>roadway</title>
<g id="a_node3"><a xlink:href="../roadway/" xlink:title="&lt;TABLE&gt;" target="_top">
<polygon fill="lightgray" stroke="none" points="113.75,-98.88 113.75,-115.12 161.5,-115.12 161.5,-98.88 113.75,-98.88"/>
<text xml:space="preserve" text-anchor="start" x="114.75" y="-102.72" font-family="Arial" font-size="12.00">roadway</text>
<polygon fill="none" stroke="black" points="112.75,-97.88 112.75,-116.12 162.5,-116.12 162.5,-97.88 112.75,-97.88"/>
</a>
</g>
</g>
<!-- driving space&#45;&gt;roadway -->
<g id="edge4" class="edge">
<title>driving space&#45;&gt;roadway</title>
<path fill="none" stroke="black" d="M44.87,-188.12C51.3,-174.64 61.74,-155.94 75.12,-143 82.53,-135.84 91.69,-129.65 100.68,-124.55"/>
<polygon fill="black" stroke="black" points="102.14,-127.74 109.34,-119.97 98.86,-121.55 102.14,-127.74"/>
<text xml:space="preserve" text-anchor="middle" x="104.38" y="-159.55" font-family="Arial" font-size="11.00"> areaAbove </text>
<text xml:space="preserve" text-anchor="middle" x="104.38" y="-146.05" font-family="Arial" font-size="11.00"> «some» &#160;</text>
</g>
<!-- vehicle -->
<g id="node4" class="node">
<title>vehicle</title>
<g id="a_node4"><a xlink:href="../vehicle/" xlink:title="&lt;TABLE&gt;" target="_top">
<polygon fill="lightgray" stroke="none" points="117.5,-25.88 117.5,-42.12 157.75,-42.12 157.75,-25.88 117.5,-25.88"/>
<text xml:space="preserve" text-anchor="start" x="118.5" y="-29.73" font-family="Arial" font-size="12.00">vehicle</text>
<polygon fill="none" stroke="black" points="116.5,-24.88 116.5,-43.12 158.75,-43.12 158.75,-24.88 116.5,-24.88"/>
</a>
</g>
</g>
<!-- driving space&#45;&gt;vehicle -->
<g id="edge5" class="edge">
<title>driving space&#45;&gt;vehicle</title>
<path fill="none" stroke="black" d="M28.78,-188.16C17.54,-164.17 1.79,-119.69 21.38,-89 38.5,-62.16 72.79,-48.46 99.71,-41.59"/>
<polygon fill="black" stroke="black" points="100.3,-45.04 109.25,-39.38 98.72,-38.22 100.3,-45.04"/>
<text xml:space="preserve" text-anchor="middle" x="61.5" y="-110.05" font-family="Arial" font-size="11.00"> forMovementOf </text>
<text xml:space="preserve" text-anchor="middle" x="61.5" y="-96.55" font-family="Arial" font-size="11.00"> «some» &#160;</text>
</g>
<!-- Invis&#45;&gt;roadway -->
<!-- roadway&#45;&gt;vehicle -->
</g>
</svg>
