<?xml version="1.0" encoding="UTF-8" standalone="no"?>
<!DOCTYPE svg PUBLIC "-//W3C//DTD SVG 1.1//EN"
 "http://www.w3.org/Graphics/SVG/1.1/DTD/svg11.dtd">
<!-- Generated by graphviz version 14.0.2 (20251019.1705)
 -->
<!-- Pages: 1 -->
<svg width="282pt" height="232pt"
 viewBox="0.00 0.00 282.00 232.00" xmlns="http://www.w3.org/2000/svg" xmlns:xlink="http://www.w3.org/1999/xlink">
<g id="graph0" class="graph" transform="scale(1 1) rotate(0) translate(4 228)">
<polygon fill="white" stroke="none" points="-4,4 -4,-228 278.38,-228 278.38,4 -4,4"/>
<g id="clust2" class="cluster">
<title>cluster_associated</title>
</g>
<!-- driver support system -->
<g id="node1" class="node">
<title>driver support system</title>
<g id="a_node1"><a xlink:href="../classes/itsVocabulary__driver support system.md" xlink:title="&lt;TABLE&gt;">
<polygon fill="lightgray" stroke="none" points="145.38,-124.88 145.38,-141.12 260.62,-141.12 260.62,-124.88 145.38,-124.88"/>
<text xml:space="preserve" text-anchor="start" x="146.38" y="-128.72" font-family="Arial" font-size="12.00">driver support system</text>
<polygon fill="none" stroke="black" points="144.38,-123.88 144.38,-142.12 261.62,-142.12 261.62,-123.88 144.38,-123.88"/>
</a>
</g>
</g>
<!-- drivingAutomationSystem -->
<g id="node2" class="node">
<title>drivingAutomationSystem</title>
<g id="a_node2"><a xlink:href="../driving automation system/" xlink:title="&lt;TABLE&gt;" target="_top">
<polygon fill="lightgray" stroke="none" points="132.62,-197.88 132.62,-214.12 273.38,-214.12 273.38,-197.88 132.62,-197.88"/>
<text xml:space="preserve" text-anchor="start" x="133.62" y="-201.72" font-family="Arial" font-size="12.00">driving automation system</text>
<polygon fill="none" stroke="black" points="131.62,-196.88 131.62,-215.12 274.38,-215.12 274.38,-196.88 131.62,-196.88"/>
</a>
</g>
</g>
<!-- driver support system&#45;&gt;drivingAutomationSystem -->
<g id="edge1" class="edge">
<title>driver support system&#45;&gt;drivingAutomationSystem</title>
<path fill="none" stroke="black" d="M203,-150.71C203,-158.47 203,-167.92 203,-176.74"/>
<polygon fill="none" stroke="black" points="199.5,-176.66 203,-186.66 206.5,-176.66 199.5,-176.66"/>
</g>
<!-- Invis -->
<!-- driver support system&#45;&gt;Invis -->
<!-- dynamicDrivingTask -->
<g id="node4" class="node">
<title>dynamicDrivingTask</title>
<g id="a_node4"><a xlink:href="../dynamic driving task/" xlink:title="&lt;TABLE&gt;" target="_top">
<polygon fill="lightgray" stroke="none" points="16.62,-25.88 16.62,-42.12 127.38,-42.12 127.38,-25.88 16.62,-25.88"/>
<text xml:space="preserve" text-anchor="start" x="17.62" y="-29.73" font-family="Arial" font-size="12.00">dynamic driving task</text>
<polygon fill="none" stroke="black" points="15.62,-24.88 15.62,-43.12 128.38,-43.12 128.38,-24.88 15.62,-24.88"/>
</a>
</g>
</g>
<!-- driver support system&#45;&gt;dynamicDrivingTask -->
<g id="edge4" class="edge">
<title>driver support system&#45;&gt;dynamicDrivingTask</title>
<path fill="none" stroke="black" d="M180.18,-115.1C159.05,-99.46 127.42,-76.03 103.81,-58.55"/>
<polygon fill="black" stroke="black" points="105.89,-55.74 95.77,-52.6 101.73,-61.37 105.89,-55.74"/>
<text xml:space="preserve" text-anchor="middle" x="193.21" y="-86.55" font-family="Arial" font-size="11.00"> performsPartOf </text>
<text xml:space="preserve" text-anchor="middle" x="193.21" y="-73.05" font-family="Arial" font-size="11.00"> «some» &#160;</text>
</g>
<!-- Invis&#45;&gt;dynamicDrivingTask -->
</g>
</svg>
