<?xml version="1.0" encoding="UTF-8" standalone="no"?>
<!DOCTYPE svg PUBLIC "-//W3C//DTD SVG 1.1//EN"
 "http://www.w3.org/Graphics/SVG/1.1/DTD/svg11.dtd">
<!-- Generated by graphviz version 14.0.2 (20251019.1705)
 -->
<!-- Pages: 1 -->
<svg width="209pt" height="132pt"
 viewBox="0.00 0.00 209.00 132.00" xmlns="http://www.w3.org/2000/svg" xmlns:xlink="http://www.w3.org/1999/xlink">
<g id="graph0" class="graph" transform="scale(1 1) rotate(0) translate(4 128)">
<polygon fill="white" stroke="none" points="-4,4 -4,-128 205.38,-128 205.38,4 -4,4"/>
<g id="clust2" class="cluster">
<title>cluster_associated</title>
</g>
<!-- dual&#45;mode vehicle -->
<g id="node1" class="node">
<title>dual&#45;mode vehicle</title>
<g id="a_node1"><a xlink:href="../classes/itsVocabulary__dual-mode vehicle.md" xlink:title="&lt;TABLE&gt;">
<polygon fill="lightgray" stroke="none" points="12.25,-25.88 12.25,-42.12 112.5,-42.12 112.5,-25.88 12.25,-25.88"/>
<text xml:space="preserve" text-anchor="start" x="13.25" y="-29.73" font-family="Arial" font-size="12.00">dual&#45;mode vehicle</text>
<polygon fill="none" stroke="black" points="11.25,-24.88 11.25,-43.12 113.5,-43.12 113.5,-24.88 11.25,-24.88"/>
</a>
</g>
</g>
<!-- ads&#45;equippedVehicle -->
<g id="node2" class="node">
<title>ads&#45;equippedVehicle</title>
<g id="a_node2"><a xlink:href="../ADS-equipped vehicle/" xlink:title="&lt;TABLE&gt;" target="_top">
<polygon fill="lightgray" stroke="none" points="1,-97.88 1,-114.12 123.75,-114.12 123.75,-97.88 1,-97.88"/>
<text xml:space="preserve" text-anchor="start" x="2" y="-101.72" font-family="Arial" font-size="12.00">ADS&#45;equipped vehicle</text>
<polygon fill="none" stroke="black" points="0,-96.88 0,-115.12 124.75,-115.12 124.75,-96.88 0,-96.88"/>
</a>
</g>
</g>
<!-- dual&#45;mode vehicle&#45;&gt;ads&#45;equippedVehicle -->
<g id="edge1" class="edge">
<title>dual&#45;mode vehicle&#45;&gt;ads&#45;equippedVehicle</title>
<path fill="none" stroke="black" d="M62.38,-51.79C62.38,-59.25 62.38,-68.24 62.38,-76.69"/>
<polygon fill="none" stroke="black" points="58.88,-76.54 62.38,-86.54 65.88,-76.54 58.88,-76.54"/>
</g>
<!-- Invis -->
</g>
</svg>
