<?xml version="1.0" encoding="UTF-8" standalone="no"?>
<!DOCTYPE svg PUBLIC "-//W3C//DTD SVG 1.1//EN"
 "http://www.w3.org/Graphics/SVG/1.1/DTD/svg11.dtd">
<!-- Generated by graphviz version 14.0.2 (20251019.1705)
 -->
<!-- Pages: 1 -->
<svg width="270pt" height="305pt"
 viewBox="0.00 0.00 270.00 305.00" xmlns="http://www.w3.org/2000/svg" xmlns:xlink="http://www.w3.org/1999/xlink">
<g id="graph0" class="graph" transform="scale(1 1) rotate(0) translate(4 301)">
<polygon fill="white" stroke="none" points="-4,4 -4,-301 266.4,-301 266.4,4 -4,4"/>
<g id="clust2" class="cluster">
<title>cluster_associated</title>
</g>
<!-- dual carriageway -->
<g id="node1" class="node">
<title>dual carriageway</title>
<g id="a_node1"><a xlink:href="../classes/itsVocabulary__dual carriageway.md" xlink:title="&lt;TABLE&gt;">
<polygon fill="lightgray" stroke="none" points="167.25,-197.88 167.25,-214.12 260.75,-214.12 260.75,-197.88 167.25,-197.88"/>
<text xml:space="preserve" text-anchor="start" x="168.25" y="-201.72" font-family="Arial" font-size="12.00">dual carriageway</text>
<polygon fill="none" stroke="black" points="166.25,-196.88 166.25,-215.12 261.75,-215.12 261.75,-196.88 166.25,-196.88"/>
</a>
</g>
</g>
<!-- roadway -->
<g id="node2" class="node">
<title>roadway</title>
<g id="a_node2"><a xlink:href="../roadway/" xlink:title="&lt;TABLE&gt;" target="_top">
<polygon fill="lightgray" stroke="none" points="190.12,-270.88 190.12,-287.12 237.88,-287.12 237.88,-270.88 190.12,-270.88"/>
<text xml:space="preserve" text-anchor="start" x="191.12" y="-274.73" font-family="Arial" font-size="12.00">roadway</text>
<polygon fill="none" stroke="black" points="189.12,-269.88 189.12,-288.12 238.88,-288.12 238.88,-269.88 189.12,-269.88"/>
</a>
</g>
</g>
<!-- dual carriageway&#45;&gt;roadway -->
<g id="edge1" class="edge">
<title>dual carriageway&#45;&gt;roadway</title>
<path fill="none" stroke="black" d="M214,-223.71C214,-231.47 214,-240.92 214,-249.74"/>
<polygon fill="none" stroke="black" points="210.5,-249.66 214,-259.66 217.5,-249.66 210.5,-249.66"/>
</g>
<!-- Invis -->
<!-- dual carriageway&#45;&gt;Invis -->
<!-- carriageway -->
<g id="node4" class="node">
<title>carriageway</title>
<g id="a_node4"><a xlink:href="../carriageway/" xlink:title="&lt;TABLE&gt;" target="_top">
<polygon fill="lightgray" stroke="none" points="49.38,-98.88 49.38,-115.12 116.62,-115.12 116.62,-98.88 49.38,-98.88"/>
<text xml:space="preserve" text-anchor="start" x="50.38" y="-102.72" font-family="Arial" font-size="12.00">carriageway</text>
<polygon fill="none" stroke="black" points="48.38,-97.88 48.38,-116.12 117.62,-116.12 117.62,-97.88 48.38,-97.88"/>
</a>
</g>
</g>
<!-- dual carriageway&#45;&gt;carriageway -->
<g id="edge5" class="edge">
<title>dual carriageway&#45;&gt;carriageway</title>
<path fill="none" stroke="black" stroke-dasharray="5,2" d="M166.42,-189.35C164.93,-188.89 163.45,-188.44 162,-188 133.3,-179.34 117.68,-191.7 97,-170 88.44,-161.01 84.69,-147.95 83.19,-136.13"/>
<polygon fill="black" stroke="black" points="86.7,-136.14 82.45,-126.43 79.72,-136.67 86.7,-136.14"/>
<text xml:space="preserve" text-anchor="middle" x="154" y="-159.55" font-family="Arial" font-size="11.00"> onProperty: comprises </text>
<text xml:space="preserve" text-anchor="middle" x="154" y="-146.05" font-family="Arial" font-size="11.00"> «exactly 2» &#160;</text>
</g>
<!-- physicalTrafficSeparator -->
<g id="node5" class="node">
<title>physicalTrafficSeparator</title>
<g id="a_node5"><a xlink:href="../physical traffic separator/" xlink:title="&lt;TABLE&gt;" target="_top">
<polygon fill="lightgray" stroke="none" points="17.5,-25.88 17.5,-42.12 148.5,-42.12 148.5,-25.88 17.5,-25.88"/>
<text xml:space="preserve" text-anchor="start" x="18.5" y="-29.73" font-family="Arial" font-size="12.00">physical traffic separator</text>
<polygon fill="none" stroke="black" points="16.5,-24.88 16.5,-43.12 149.5,-43.12 149.5,-24.88 16.5,-24.88"/>
</a>
</g>
</g>
<!-- dual carriageway&#45;&gt;physicalTrafficSeparator -->
<g id="edge6" class="edge">
<title>dual carriageway&#45;&gt;physicalTrafficSeparator</title>
<path fill="none" stroke="black" d="M216.7,-188.04C217.97,-175.04 217.93,-157.01 211,-143 192.59,-105.77 154.87,-76.46 125.12,-57.82"/>
<polygon fill="black" stroke="black" points="127.04,-54.89 116.67,-52.7 123.41,-60.88 127.04,-54.89"/>
<text xml:space="preserve" text-anchor="middle" x="230.9" y="-110.05" font-family="Arial" font-size="11.00"> has </text>
<text xml:space="preserve" text-anchor="middle" x="230.9" y="-96.55" font-family="Arial" font-size="11.00"> «exactly 1» &#160;</text>
</g>
<!-- Invis&#45;&gt;carriageway -->
<!-- carriageway&#45;&gt;physicalTrafficSeparator -->
</g>
</svg>
