<?xml version="1.0" encoding="UTF-8" standalone="no"?>
<!DOCTYPE svg PUBLIC "-//W3C//DTD SVG 1.1//EN"
 "http://www.w3.org/Graphics/SVG/1.1/DTD/svg11.dtd">
<!-- Generated by graphviz version 14.0.2 (20251019.1705)
 -->
<!-- Pages: 1 -->
<svg width="197pt" height="175pt"
 viewBox="0.00 0.00 197.00 175.00" xmlns="http://www.w3.org/2000/svg" xmlns:xlink="http://www.w3.org/1999/xlink">
<g id="graph0" class="graph" transform="scale(1 1) rotate(0) translate(4 171)">
<polygon fill="white" stroke="none" points="-4,4 -4,-171 193.09,-171 193.09,4 -4,4"/>
<g id="clust2" class="cluster">
<title>cluster_associated</title>
</g>
<!-- duration -->
<g id="node1" class="node">
<title>duration</title>
<g id="a_node1"><a xlink:href="../classes/itsVocabulary__duration.md" xlink:title="&lt;TABLE&gt;">
<polygon fill="lightgray" stroke="none" points="33.34,-124.88 33.34,-141.12 78.84,-141.12 78.84,-124.88 33.34,-124.88"/>
<text xml:space="preserve" text-anchor="start" x="34.34" y="-128.72" font-family="Arial" font-size="12.00">duration</text>
<polygon fill="none" stroke="black" points="32.34,-123.88 32.34,-142.12 79.84,-142.12 79.84,-123.88 32.34,-123.88"/>
</a>
</g>
</g>
<!-- Invis -->
<!-- duration&#45;&gt;Invis -->
<!-- instant -->
<g id="node3" class="node">
<title>instant</title>
<g id="a_node3"><a xlink:href="../instant/" xlink:title="&lt;TABLE&gt;" target="_top">
<polygon fill="lightgray" stroke="none" points="127.47,-25.88 127.47,-42.12 164.72,-42.12 164.72,-25.88 127.47,-25.88"/>
<text xml:space="preserve" text-anchor="start" x="128.47" y="-29.73" font-family="Arial" font-size="12.00">instant</text>
<polygon fill="none" stroke="black" points="126.47,-24.88 126.47,-43.12 165.72,-43.12 165.72,-24.88 126.47,-24.88"/>
</a>
</g>
</g>
<!-- duration&#45;&gt;instant -->
<g id="edge3" class="edge">
<title>duration&#45;&gt;instant</title>
<path fill="none" stroke="black" d="M29.28,-120.25C19.87,-114.66 10.35,-106.98 5.09,-97 -0.5,-86.38 -2.3,-79.45 5.09,-70 17.7,-53.89 70.94,-44.14 108.27,-39.16"/>
<polygon fill="black" stroke="black" points="108.29,-42.69 117.77,-37.96 107.41,-35.74 108.29,-42.69"/>
<text xml:space="preserve" text-anchor="middle" x="36.59" y="-86.55" font-family="Arial" font-size="11.00"> startsAt </text>
<text xml:space="preserve" text-anchor="middle" x="36.59" y="-73.05" font-family="Arial" font-size="11.00"> «exactly 1» &#160;</text>
</g>
<!-- duration&#45;&gt;instant -->
<g id="edge4" class="edge">
<title>duration&#45;&gt;instant</title>
<path fill="none" stroke="black" d="M61.51,-115.17C66.49,-101.72 74.96,-83.04 87.09,-70 93.37,-63.26 101.24,-57.39 109.17,-52.49"/>
<polygon fill="black" stroke="black" points="110.86,-55.56 117.81,-47.56 107.39,-49.48 110.86,-55.56"/>
<text xml:space="preserve" text-anchor="middle" x="118.59" y="-86.55" font-family="Arial" font-size="11.00"> endsAt </text>
<text xml:space="preserve" text-anchor="middle" x="118.59" y="-73.05" font-family="Arial" font-size="11.00"> «exactly 1» &#160;</text>
</g>
<!-- Invis&#45;&gt;instant -->
</g>
</svg>
