<?xml version="1.0" encoding="UTF-8" standalone="no"?>
<!DOCTYPE svg PUBLIC "-//W3C//DTD SVG 1.1//EN"
 "http://www.w3.org/Graphics/SVG/1.1/DTD/svg11.dtd">
<!-- Generated by graphviz version 14.0.2 (20251019.1705)
 -->
<!-- Pages: 1 -->
<svg width="312pt" height="132pt"
 viewBox="0.00 0.00 312.00 132.00" xmlns="http://www.w3.org/2000/svg" xmlns:xlink="http://www.w3.org/1999/xlink">
<g id="graph0" class="graph" transform="scale(1 1) rotate(0) translate(4 128)">
<polygon fill="white" stroke="none" points="-4,4 -4,-128 307.75,-128 307.75,4 -4,4"/>
<g id="clust2" class="cluster">
<title>cluster_associated</title>
</g>
<!-- emergency management central system -->
<g id="node1" class="node">
<title>emergency management central system</title>
<g id="a_node1"><a xlink:href="../classes/itsVocabulary__emergency management central system.md" xlink:title="&lt;TABLE&gt;">
<polygon fill="lightgray" stroke="none" points="1,-25.88 1,-42.12 214.5,-42.12 214.5,-25.88 1,-25.88"/>
<text xml:space="preserve" text-anchor="start" x="2" y="-29.73" font-family="Arial" font-size="12.00">emergency management central system</text>
<polygon fill="none" stroke="black" points="0,-24.88 0,-43.12 215.5,-43.12 215.5,-24.88 0,-24.88"/>
</a>
</g>
</g>
<!-- centralSystem -->
<g id="node2" class="node">
<title>centralSystem</title>
<g id="a_node2"><a xlink:href="../central system/" xlink:title="&lt;TABLE&gt;" target="_top">
<polygon fill="lightgray" stroke="none" points="68.5,-97.88 68.5,-114.12 147,-114.12 147,-97.88 68.5,-97.88"/>
<text xml:space="preserve" text-anchor="start" x="69.5" y="-101.72" font-family="Arial" font-size="12.00">central system</text>
<polygon fill="none" stroke="black" points="67.5,-96.88 67.5,-115.12 148,-115.12 148,-96.88 67.5,-96.88"/>
</a>
</g>
</g>
<!-- emergency management central system&#45;&gt;centralSystem -->
<g id="edge1" class="edge">
<title>emergency management central system&#45;&gt;centralSystem</title>
<path fill="none" stroke="black" d="M107.75,-51.79C107.75,-59.25 107.75,-68.24 107.75,-76.69"/>
<polygon fill="none" stroke="black" points="104.25,-76.54 107.75,-86.54 111.25,-76.54 104.25,-76.54"/>
</g>
<!-- Invis -->
</g>
</svg>
