<?xml version="1.0" encoding="UTF-8" standalone="no"?>
<!DOCTYPE svg PUBLIC "-//W3C//DTD SVG 1.1//EN"
 "http://www.w3.org/Graphics/SVG/1.1/DTD/svg11.dtd">
<!-- Generated by graphviz version 14.0.2 (20251019.1705)
 -->
<!-- Pages: 1 -->
<svg width="243pt" height="232pt"
 viewBox="0.00 0.00 243.00 232.00" xmlns="http://www.w3.org/2000/svg" xmlns:xlink="http://www.w3.org/1999/xlink">
<g id="graph0" class="graph" transform="scale(1 1) rotate(0) translate(4 228)">
<polygon fill="white" stroke="none" points="-4,4 -4,-228 239.12,-228 239.12,4 -4,4"/>
<g id="clust2" class="cluster">
<title>cluster_associated</title>
</g>
<!-- enterprise viewpoint -->
<g id="node1" class="node">
<title>enterprise viewpoint</title>
<g id="a_node1"><a xlink:href="../classes/itsVocabulary__enterprise viewpoint.md" xlink:title="&lt;TABLE&gt;">
<polygon fill="lightgray" stroke="none" points="120.38,-124.88 120.38,-141.12 229.62,-141.12 229.62,-124.88 120.38,-124.88"/>
<text xml:space="preserve" text-anchor="start" x="121.38" y="-128.72" font-family="Arial" font-size="12.00">enterprise viewpoint</text>
<polygon fill="none" stroke="black" points="119.38,-123.88 119.38,-142.12 230.62,-142.12 230.62,-123.88 119.38,-123.88"/>
</a>
</g>
</g>
<!-- architectureViewpoint -->
<g id="node2" class="node">
<title>architectureViewpoint</title>
<g id="a_node2"><a xlink:href="../architecture viewpoint/" xlink:title="&lt;TABLE&gt;" target="_top">
<polygon fill="lightgray" stroke="none" points="115.88,-197.88 115.88,-214.12 234.12,-214.12 234.12,-197.88 115.88,-197.88"/>
<text xml:space="preserve" text-anchor="start" x="116.88" y="-201.72" font-family="Arial" font-size="12.00">architecture viewpoint</text>
<polygon fill="none" stroke="black" points="114.88,-196.88 114.88,-215.12 235.12,-215.12 235.12,-196.88 114.88,-196.88"/>
</a>
</g>
</g>
<!-- enterprise viewpoint&#45;&gt;architectureViewpoint -->
<g id="edge1" class="edge">
<title>enterprise viewpoint&#45;&gt;architectureViewpoint</title>
<path fill="none" stroke="black" d="M175,-150.71C175,-158.47 175,-167.92 175,-176.74"/>
<polygon fill="none" stroke="black" points="171.5,-176.66 175,-186.66 178.5,-176.66 171.5,-176.66"/>
</g>
<!-- Invis -->
<!-- enterprise viewpoint&#45;&gt;Invis -->
<!-- enterpriseView -->
<g id="node4" class="node">
<title>enterpriseView</title>
<g id="a_node4"><a xlink:href="../enterprise view/" xlink:title="&lt;TABLE&gt;" target="_top">
<polygon fill="lightgray" stroke="none" points="17.5,-25.88 17.5,-42.12 100.5,-42.12 100.5,-25.88 17.5,-25.88"/>
<text xml:space="preserve" text-anchor="start" x="18.5" y="-29.73" font-family="Arial" font-size="12.00">enterprise view</text>
<polygon fill="none" stroke="black" points="16.5,-24.88 16.5,-43.12 101.5,-43.12 101.5,-24.88 16.5,-24.88"/>
</a>
</g>
</g>
<!-- enterprise viewpoint&#45;&gt;enterpriseView -->
<g id="edge4" class="edge">
<title>enterprise viewpoint&#45;&gt;enterpriseView</title>
<path fill="none" stroke="black" d="M154.79,-115.1C136.25,-99.6 108.57,-76.45 87.73,-59.02"/>
<polygon fill="black" stroke="black" points="90.05,-56.4 80.14,-52.67 85.56,-61.77 90.05,-56.4"/>
<text xml:space="preserve" text-anchor="middle" x="154.43" y="-86.55" font-family="Arial" font-size="11.00"> governs </text>
<text xml:space="preserve" text-anchor="middle" x="154.43" y="-73.05" font-family="Arial" font-size="11.00"> «some» &#160;</text>
</g>
<!-- Invis&#45;&gt;enterpriseView -->
</g>
</svg>
