<?xml version="1.0" encoding="UTF-8" standalone="no"?>
<!DOCTYPE svg PUBLIC "-//W3C//DTD SVG 1.1//EN"
 "http://www.w3.org/Graphics/SVG/1.1/DTD/svg11.dtd">
<!-- Generated by graphviz version 14.0.2 (20251019.1705)
 -->
<!-- Pages: 1 -->
<svg width="224pt" height="132pt"
 viewBox="0.00 0.00 224.00 132.00" xmlns="http://www.w3.org/2000/svg" xmlns:xlink="http://www.w3.org/1999/xlink">
<g id="graph0" class="graph" transform="scale(1 1) rotate(0) translate(4 128)">
<polygon fill="white" stroke="none" points="-4,4 -4,-128 220.25,-128 220.25,4 -4,4"/>
<g id="clust2" class="cluster">
<title>cluster_associated</title>
</g>
<!-- field support equipment -->
<g id="node1" class="node">
<title>field support equipment</title>
<g id="a_node1"><a xlink:href="../classes/itsVocabulary__field support equipment.md" xlink:title="&lt;TABLE&gt;">
<polygon fill="lightgray" stroke="none" points="1,-25.88 1,-42.12 127.5,-42.12 127.5,-25.88 1,-25.88"/>
<text xml:space="preserve" text-anchor="start" x="2" y="-29.73" font-family="Arial" font-size="12.00">field support equipment</text>
<polygon fill="none" stroke="black" points="0,-24.88 0,-43.12 128.5,-43.12 128.5,-24.88 0,-24.88"/>
</a>
</g>
</g>
<!-- fieldSystem -->
<g id="node2" class="node">
<title>fieldSystem</title>
<g id="a_node2"><a xlink:href="../field system/" xlink:title="&lt;TABLE&gt;" target="_top">
<polygon fill="lightgray" stroke="none" points="31.75,-97.88 31.75,-114.12 96.75,-114.12 96.75,-97.88 31.75,-97.88"/>
<text xml:space="preserve" text-anchor="start" x="32.75" y="-101.72" font-family="Arial" font-size="12.00">field system</text>
<polygon fill="none" stroke="black" points="30.75,-96.88 30.75,-115.12 97.75,-115.12 97.75,-96.88 30.75,-96.88"/>
</a>
</g>
</g>
<!-- field support equipment&#45;&gt;fieldSystem -->
<g id="edge1" class="edge">
<title>field support equipment&#45;&gt;fieldSystem</title>
<path fill="none" stroke="black" d="M64.25,-51.79C64.25,-59.25 64.25,-68.24 64.25,-76.69"/>
<polygon fill="none" stroke="black" points="60.75,-76.54 64.25,-86.54 67.75,-76.54 60.75,-76.54"/>
</g>
<!-- Invis -->
</g>
</svg>
