<?xml version="1.0" encoding="UTF-8" standalone="no"?>
<!DOCTYPE svg PUBLIC "-//W3C//DTD SVG 1.1//EN"
 "http://www.w3.org/Graphics/SVG/1.1/DTD/svg11.dtd">
<!-- Generated by graphviz version 14.0.2 (20251019.1705)
 -->
<!-- Pages: 1 -->
<svg width="337pt" height="477pt"
 viewBox="0.00 0.00 337.00 477.00" xmlns="http://www.w3.org/2000/svg" xmlns:xlink="http://www.w3.org/1999/xlink">
<g id="graph0" class="graph" transform="scale(1 1) rotate(0) translate(4 473)">
<polygon fill="white" stroke="none" points="-4,4 -4,-473 333,-473 333,4 -4,4"/>
<g id="clust2" class="cluster">
<title>cluster_associated</title>
</g>
<!-- functional view -->
<g id="node1" class="node">
<title>functional view</title>
<g id="a_node1"><a xlink:href="../classes/itsVocabulary__functional view.md" xlink:title="&lt;TABLE&gt;">
<polygon fill="lightgray" stroke="none" points="149.25,-369.88 149.25,-386.12 230.75,-386.12 230.75,-369.88 149.25,-369.88"/>
<text xml:space="preserve" text-anchor="start" x="150.25" y="-373.73" font-family="Arial" font-size="12.00">functional view</text>
<polygon fill="none" stroke="black" points="148.25,-368.88 148.25,-387.12 231.75,-387.12 231.75,-368.88 148.25,-368.88"/>
</a>
</g>
</g>
<!-- architectureView -->
<g id="node2" class="node">
<title>architectureView</title>
<g id="a_node2"><a xlink:href="../architecture view/" xlink:title="&lt;TABLE&gt;" target="_top">
<polygon fill="lightgray" stroke="none" points="144,-442.88 144,-459.12 236,-459.12 236,-442.88 144,-442.88"/>
<text xml:space="preserve" text-anchor="start" x="145" y="-446.73" font-family="Arial" font-size="12.00">architecture view</text>
<polygon fill="none" stroke="black" points="143,-441.88 143,-460.12 237,-460.12 237,-441.88 143,-441.88"/>
</a>
</g>
</g>
<!-- functional view&#45;&gt;architectureView -->
<g id="edge1" class="edge">
<title>functional view&#45;&gt;architectureView</title>
<path fill="none" stroke="black" d="M190,-395.71C190,-403.47 190,-412.92 190,-421.74"/>
<polygon fill="none" stroke="black" points="186.5,-421.66 190,-431.66 193.5,-421.66 186.5,-421.66"/>
</g>
<!-- Invis -->
<!-- functional view&#45;&gt;Invis -->
<!-- dataFlow -->
<g id="node4" class="node">
<title>dataFlow</title>
<g id="a_node4"><a xlink:href="../data flow/" xlink:title="&lt;TABLE&gt;" target="_top">
<polygon fill="lightgray" stroke="none" points="18,-270.88 18,-287.12 68,-287.12 68,-270.88 18,-270.88"/>
<text xml:space="preserve" text-anchor="start" x="19" y="-274.73" font-family="Arial" font-size="12.00">data flow</text>
<polygon fill="none" stroke="black" points="17,-269.88 17,-288.12 69,-288.12 69,-269.88 17,-269.88"/>
</a>
</g>
</g>
<!-- functional view&#45;&gt;dataFlow -->
<g id="edge8" class="edge">
<title>functional view&#45;&gt;dataFlow</title>
<path fill="none" stroke="black" d="M148.48,-361.29C146.98,-360.83 145.48,-360.4 144,-360 100.43,-348.13 73.24,-376.41 44,-342 36.16,-332.77 35.01,-319.68 36.2,-307.9"/>
<polygon fill="black" stroke="black" points="39.62,-308.68 37.75,-298.25 32.71,-307.57 39.62,-308.68"/>
<text xml:space="preserve" text-anchor="middle" x="74" y="-331.55" font-family="Arial" font-size="11.00"> aggregates </text>
<text xml:space="preserve" text-anchor="middle" x="74" y="-318.05" font-family="Arial" font-size="11.00"> «some» &#160;</text>
</g>
<!-- process -->
<g id="node5" class="node">
<title>process</title>
<g id="a_node5"><a xlink:href="../process/" xlink:title="&lt;TABLE&gt;" target="_top">
<polygon fill="lightgray" stroke="none" points="52,-171.88 52,-188.12 96,-188.12 96,-171.88 52,-171.88"/>
<text xml:space="preserve" text-anchor="start" x="53" y="-175.72" font-family="Arial" font-size="12.00">process</text>
<polygon fill="none" stroke="black" points="51,-170.88 51,-189.12 97,-189.12 97,-170.88 51,-170.88"/>
</a>
</g>
</g>
<!-- functional view&#45;&gt;process -->
<g id="edge7" class="edge">
<title>functional view&#45;&gt;process</title>
<path fill="none" stroke="black" d="M172.27,-360.27C156.84,-344.97 134.71,-321.1 120,-297 102.83,-268.87 89.82,-233.22 82.09,-208.91"/>
<polygon fill="black" stroke="black" points="85.46,-207.95 79.17,-199.42 78.77,-210.01 85.46,-207.95"/>
<text xml:space="preserve" text-anchor="middle" x="150" y="-282.05" font-family="Arial" font-size="11.00"> aggregates </text>
<text xml:space="preserve" text-anchor="middle" x="150" y="-268.55" font-family="Arial" font-size="11.00"> «some» &#160;</text>
</g>
<!-- processSpecification -->
<g id="node6" class="node">
<title>processSpecification</title>
<g id="a_node6"><a xlink:href="../process specification/" xlink:title="&lt;TABLE&gt;" target="_top">
<polygon fill="lightgray" stroke="none" points="17.12,-98.88 17.12,-115.12 130.88,-115.12 130.88,-98.88 17.12,-98.88"/>
<text xml:space="preserve" text-anchor="start" x="18.12" y="-102.72" font-family="Arial" font-size="12.00">process specification</text>
<polygon fill="none" stroke="black" points="16.12,-97.88 16.12,-116.12 131.88,-116.12 131.88,-97.88 16.12,-97.88"/>
</a>
</g>
</g>
<!-- functional view&#45;&gt;processSpecification -->
<g id="edge9" class="edge">
<title>functional view&#45;&gt;processSpecification</title>
<path fill="none" stroke="black" d="M191.2,-360.29C192.27,-337.23 192.13,-294.66 180,-261 161.91,-210.8 123.05,-161.7 97.75,-133.17"/>
<polygon fill="black" stroke="black" points="100.37,-130.85 91.07,-125.78 95.17,-135.55 100.37,-130.85"/>
<text xml:space="preserve" text-anchor="middle" x="202.29" y="-232.55" font-family="Arial" font-size="11.00"> aggregates </text>
<text xml:space="preserve" text-anchor="middle" x="202.29" y="-219.05" font-family="Arial" font-size="11.00"> «some» &#160;</text>
</g>
<!-- terminator -->
<g id="node7" class="node">
<title>terminator</title>
<g id="a_node7"><a xlink:href="../terminator/" xlink:title="&lt;TABLE&gt;" target="_top">
<polygon fill="lightgray" stroke="none" points="61.38,-25.88 61.38,-42.12 116.62,-42.12 116.62,-25.88 61.38,-25.88"/>
<text xml:space="preserve" text-anchor="start" x="62.38" y="-29.73" font-family="Arial" font-size="12.00">terminator</text>
<polygon fill="none" stroke="black" points="60.38,-24.88 60.38,-43.12 117.62,-43.12 117.62,-24.88 60.38,-24.88"/>
</a>
</g>
</g>
<!-- functional view&#45;&gt;terminator -->
<g id="edge10" class="edge">
<title>functional view&#45;&gt;terminator</title>
<path fill="none" stroke="black" d="M215.87,-360.32C238.91,-343.22 269,-314.32 269,-280 269,-280 269,-280 269,-106 269,-76.03 181.58,-53.35 128.58,-42.35"/>
<polygon fill="black" stroke="black" points="129.5,-38.97 119.01,-40.42 128.12,-45.83 129.5,-38.97"/>
<text xml:space="preserve" text-anchor="middle" x="299" y="-183.05" font-family="Arial" font-size="11.00"> aggregates </text>
<text xml:space="preserve" text-anchor="middle" x="299" y="-169.55" font-family="Arial" font-size="11.00"> «some» &#160;</text>
</g>
<!-- Invis&#45;&gt;dataFlow -->
<!-- dataFlow&#45;&gt;process -->
<!-- process&#45;&gt;processSpecification -->
<!-- processSpecification&#45;&gt;terminator -->
</g>
</svg>
