<?xml version="1.0" encoding="UTF-8" standalone="no"?>
<!DOCTYPE svg PUBLIC "-//W3C//DTD SVG 1.1//EN"
 "http://www.w3.org/Graphics/SVG/1.1/DTD/svg11.dtd">
<!-- Generated by graphviz version 14.0.2 (20251019.1705)
 -->
<!-- Pages: 1 -->
<svg width="186pt" height="175pt"
 viewBox="0.00 0.00 186.00 175.00" xmlns="http://www.w3.org/2000/svg" xmlns:xlink="http://www.w3.org/1999/xlink">
<g id="graph0" class="graph" transform="scale(1 1) rotate(0) translate(4 171)">
<polygon fill="white" stroke="none" points="-4,4 -4,-171 182,-171 182,4 -4,4"/>
<g id="clust2" class="cluster">
<title>cluster_associated</title>
</g>
<!-- gazetteer -->
<g id="node1" class="node">
<title>gazetteer</title>
<g id="a_node1"><a xlink:href="../classes/itsVocabulary__gazetteer.md" xlink:title="&lt;TABLE&gt;">
<polygon fill="lightgray" stroke="none" points="1.25,-124.88 1.25,-141.12 52.75,-141.12 52.75,-124.88 1.25,-124.88"/>
<text xml:space="preserve" text-anchor="start" x="2.25" y="-128.72" font-family="Arial" font-size="12.00">gazetteer</text>
<polygon fill="none" stroke="black" points="0.25,-123.88 0.25,-142.12 53.75,-142.12 53.75,-123.88 0.25,-123.88"/>
</a>
</g>
</g>
<!-- Invis -->
<!-- gazetteer&#45;&gt;Invis -->
<!-- spatialReference -->
<g id="node3" class="node">
<title>spatialReference</title>
<g id="a_node3"><a xlink:href="../spatial reference/" xlink:title="&lt;TABLE&gt;" target="_top">
<polygon fill="lightgray" stroke="none" points="70.75,-25.88 70.75,-42.12 161.25,-42.12 161.25,-25.88 70.75,-25.88"/>
<text xml:space="preserve" text-anchor="start" x="71.75" y="-29.73" font-family="Arial" font-size="12.00">spatial reference</text>
<polygon fill="none" stroke="black" points="69.75,-24.88 69.75,-43.12 162.25,-43.12 162.25,-24.88 69.75,-24.88"/>
</a>
</g>
</g>
<!-- gazetteer&#45;&gt;spatialReference -->
<g id="edge3" class="edge">
<title>gazetteer&#45;&gt;spatialReference</title>
<path fill="none" stroke="black" d="M30.5,-115.06C34.01,-101.55 40.59,-82.84 52,-70 56,-65.5 60.71,-61.47 65.75,-57.89"/>
<polygon fill="black" stroke="black" points="67.26,-61.07 73.78,-52.73 63.48,-55.18 67.26,-61.07"/>
<text xml:space="preserve" text-anchor="middle" x="82" y="-86.55" font-family="Arial" font-size="11.00"> aggregates </text>
<text xml:space="preserve" text-anchor="middle" x="82" y="-73.05" font-family="Arial" font-size="11.00"> «some» &#160;</text>
</g>
<!-- Invis&#45;&gt;spatialReference -->
</g>
</svg>
