<?xml version="1.0" encoding="UTF-8" standalone="no"?>
<!DOCTYPE svg PUBLIC "-//W3C//DTD SVG 1.1//EN"
 "http://www.w3.org/Graphics/SVG/1.1/DTD/svg11.dtd">
<!-- Generated by graphviz version 14.0.2 (20251019.1705)
 -->
<!-- Pages: 1 -->
<svg width="253pt" height="175pt"
 viewBox="0.00 0.00 253.00 175.00" xmlns="http://www.w3.org/2000/svg" xmlns:xlink="http://www.w3.org/1999/xlink">
<g id="graph0" class="graph" transform="scale(1 1) rotate(0) translate(4 171)">
<polygon fill="white" stroke="none" points="-4,4 -4,-171 248.5,-171 248.5,4 -4,4"/>
<g id="clust2" class="cluster">
<title>cluster_associated</title>
</g>
<!-- gross vehicle mass rating -->
<g id="node1" class="node">
<title>gross vehicle mass rating</title>
<g id="a_node1"><a xlink:href="../classes/itsVocabulary__gross vehicle mass rating.md" xlink:title="&lt;TABLE&gt;">
<polygon fill="lightgray" stroke="none" points="1,-124.88 1,-141.12 138,-141.12 138,-124.88 1,-124.88"/>
<text xml:space="preserve" text-anchor="start" x="2" y="-128.72" font-family="Arial" font-size="12.00">gross vehicle mass rating</text>
<polygon fill="none" stroke="black" points="0,-123.88 0,-142.12 139,-142.12 139,-123.88 0,-123.88"/>
</a>
</g>
</g>
<!-- Invis -->
<!-- gross vehicle mass rating&#45;&gt;Invis -->
<!-- vehicle -->
<g id="node3" class="node">
<title>vehicle</title>
<g id="a_node3"><a xlink:href="../vehicle/" xlink:title="&lt;TABLE&gt;" target="_top">
<polygon fill="lightgray" stroke="none" points="181.38,-25.88 181.38,-42.12 221.62,-42.12 221.62,-25.88 181.38,-25.88"/>
<text xml:space="preserve" text-anchor="start" x="182.38" y="-29.73" font-family="Arial" font-size="12.00">vehicle</text>
<polygon fill="none" stroke="black" points="180.38,-24.88 180.38,-43.12 222.62,-43.12 222.62,-24.88 180.38,-24.88"/>
</a>
</g>
</g>
<!-- gross vehicle mass rating&#45;&gt;vehicle -->
<g id="edge3" class="edge">
<title>gross vehicle mass rating&#45;&gt;vehicle</title>
<path fill="none" stroke="black" d="M65.77,-115.08C63.8,-101.4 63.57,-82.44 73.75,-70 85.12,-56.11 130.12,-46.15 163.51,-40.49"/>
<polygon fill="black" stroke="black" points="163.96,-43.96 173.27,-38.9 162.84,-37.05 163.96,-43.96"/>
<text xml:space="preserve" text-anchor="middle" x="135.62" y="-86.55" font-family="Arial" font-size="11.00"> maxOperatingWeightFor </text>
<text xml:space="preserve" text-anchor="middle" x="135.62" y="-73.05" font-family="Arial" font-size="11.00"> «exactly 1» &#160;</text>
</g>
<!-- Invis&#45;&gt;vehicle -->
</g>
</svg>
