<?xml version="1.0" encoding="UTF-8" standalone="no"?>
<!DOCTYPE svg PUBLIC "-//W3C//DTD SVG 1.1//EN"
 "http://www.w3.org/Graphics/SVG/1.1/DTD/svg11.dtd">
<!-- Generated by graphviz version 14.0.2 (20251019.1705)
 -->
<!-- Pages: 1 -->
<svg width="258pt" height="248pt"
 viewBox="0.00 0.00 258.00 248.00" xmlns="http://www.w3.org/2000/svg" xmlns:xlink="http://www.w3.org/1999/xlink">
<g id="graph0" class="graph" transform="scale(1 1) rotate(0) translate(4 244)">
<polygon fill="white" stroke="none" points="-4,4 -4,-244 254.33,-244 254.33,4 -4,4"/>
<g id="clust2" class="cluster">
<title>cluster_associated</title>
</g>
<!-- information transfer -->
<g id="node1" class="node">
<title>information transfer</title>
<g id="a_node1"><a xlink:href="../classes/itsVocabulary__information transfer.md" xlink:title="&lt;TABLE&gt;">
<polygon fill="lightgray" stroke="none" points="24.33,-197.88 24.33,-214.12 128.33,-214.12 128.33,-197.88 24.33,-197.88"/>
<text xml:space="preserve" text-anchor="start" x="25.33" y="-201.72" font-family="Arial" font-size="12.00">information transfer</text>
<polygon fill="none" stroke="black" points="23.33,-196.88 23.33,-215.12 129.33,-215.12 129.33,-196.88 23.33,-196.88"/>
</a>
</g>
</g>
<!-- Invis -->
<!-- information transfer&#45;&gt;Invis -->
<!-- informationFlow -->
<g id="node3" class="node">
<title>informationFlow</title>
<g id="a_node3"><a xlink:href="../information flow/" xlink:title="&lt;TABLE&gt;" target="_top">
<polygon fill="lightgray" stroke="none" points="147.33,-98.88 147.33,-115.12 233.33,-115.12 233.33,-98.88 147.33,-98.88"/>
<text xml:space="preserve" text-anchor="start" x="148.33" y="-102.72" font-family="Arial" font-size="12.00">information flow</text>
<polygon fill="none" stroke="black" points="146.33,-97.88 146.33,-116.12 234.33,-116.12 234.33,-97.88 146.33,-97.88"/>
</a>
</g>
</g>
<!-- information transfer&#45;&gt;informationFlow -->
<g id="edge6" class="edge">
<title>information transfer&#45;&gt;informationFlow</title>
<path fill="none" stroke="black" d="M88.34,-188.09C98.35,-174.78 113.52,-156.31 129.58,-143 134.87,-138.62 140.78,-134.47 146.78,-130.66"/>
<polygon fill="black" stroke="black" points="148.16,-133.91 154.91,-125.75 144.54,-127.92 148.16,-133.91"/>
<text xml:space="preserve" text-anchor="middle" x="158.46" y="-159.55" font-family="Arial" font-size="11.00"> contentsOf </text>
<text xml:space="preserve" text-anchor="middle" x="158.46" y="-146.05" font-family="Arial" font-size="11.00"> «some» &#160;</text>
</g>
<!-- physicalObject -->
<g id="node4" class="node">
<title>physicalObject</title>
<g id="a_node4"><a xlink:href="../physical object/" xlink:title="&lt;TABLE&gt;" target="_top">
<polygon fill="lightgray" stroke="none" points="147.58,-25.88 147.58,-42.12 229.08,-42.12 229.08,-25.88 147.58,-25.88"/>
<text xml:space="preserve" text-anchor="start" x="148.58" y="-29.73" font-family="Arial" font-size="12.00">physical object</text>
<polygon fill="none" stroke="black" points="146.58,-24.88 146.58,-43.12 230.08,-43.12 230.08,-24.88 146.58,-24.88"/>
</a>
</g>
</g>
<!-- information transfer&#45;&gt;physicalObject -->
<g id="edge4" class="edge">
<title>information transfer&#45;&gt;physicalObject</title>
<path fill="none" stroke="black" d="M53.74,-188.23C25.35,-165.1 -16.88,-122.45 7.58,-89 22.84,-68.14 88,-52.47 135.72,-43.53"/>
<polygon fill="black" stroke="black" points="136.13,-47.01 145.34,-41.78 134.87,-40.12 136.13,-47.01"/>
<text xml:space="preserve" text-anchor="middle" x="33.46" y="-110.05" font-family="Arial" font-size="11.00"> sentFrom </text>
<text xml:space="preserve" text-anchor="middle" x="33.46" y="-96.55" font-family="Arial" font-size="11.00"> «some» &#160;</text>
</g>
<!-- information transfer&#45;&gt;physicalObject -->
<g id="edge5" class="edge">
<title>information transfer&#45;&gt;physicalObject</title>
<path fill="none" stroke="black" d="M73.85,-188.4C71.17,-164.32 69.68,-119.27 90.08,-89 101.18,-72.54 119.02,-60.62 136.48,-52.25"/>
<polygon fill="black" stroke="black" points="137.57,-55.59 145.28,-48.33 134.72,-49.2 137.57,-55.59"/>
<text xml:space="preserve" text-anchor="middle" x="113.71" y="-110.05" font-family="Arial" font-size="11.00"> sentTo </text>
<text xml:space="preserve" text-anchor="middle" x="113.71" y="-96.55" font-family="Arial" font-size="11.00"> «some» &#160;</text>
</g>
<!-- Invis&#45;&gt;informationFlow -->
<!-- informationFlow&#45;&gt;physicalObject -->
</g>
</svg>
