<?xml version="1.0" encoding="UTF-8" standalone="no"?>
<!DOCTYPE svg PUBLIC "-//W3C//DTD SVG 1.1//EN"
 "http://www.w3.org/Graphics/SVG/1.1/DTD/svg11.dtd">
<!-- Generated by graphviz version 14.0.2 (20251019.1705)
 -->
<!-- Pages: 1 -->
<svg width="242pt" height="248pt"
 viewBox="0.00 0.00 242.00 248.00" xmlns="http://www.w3.org/2000/svg" xmlns:xlink="http://www.w3.org/1999/xlink">
<g id="graph0" class="graph" transform="scale(1 1) rotate(0) translate(4 244)">
<polygon fill="white" stroke="none" points="-4,4 -4,-244 238.25,-244 238.25,4 -4,4"/>
<g id="clust2" class="cluster">
<title>cluster_associated</title>
</g>
<!-- intersection manoeuvre -->
<g id="node1" class="node">
<title>intersection manoeuvre</title>
<g id="a_node1"><a xlink:href="../classes/itsVocabulary__intersection manoeuvre.md" xlink:title="&lt;TABLE&gt;">
<polygon fill="lightgray" stroke="none" points="1,-197.88 1,-214.12 127.5,-214.12 127.5,-197.88 1,-197.88"/>
<text xml:space="preserve" text-anchor="start" x="2" y="-201.72" font-family="Arial" font-size="12.00">intersection manoeuvre</text>
<polygon fill="none" stroke="black" points="0,-196.88 0,-215.12 128.5,-215.12 128.5,-196.88 0,-196.88"/>
</a>
</g>
</g>
<!-- Invis -->
<!-- intersection manoeuvre&#45;&gt;Invis -->
<!-- egressLane -->
<g id="node3" class="node">
<title>egressLane</title>
<g id="a_node3"><a xlink:href="../egress lane/" xlink:title="&lt;TABLE&gt;" target="_top">
<polygon fill="lightgray" stroke="none" points="151.12,-98.88 151.12,-115.12 215.38,-115.12 215.38,-98.88 151.12,-98.88"/>
<text xml:space="preserve" text-anchor="start" x="152.12" y="-102.72" font-family="Arial" font-size="12.00">egress lane</text>
<polygon fill="none" stroke="black" points="150.12,-97.88 150.12,-116.12 216.38,-116.12 216.38,-97.88 150.12,-97.88"/>
</a>
</g>
</g>
<!-- intersection manoeuvre&#45;&gt;egressLane -->
<g id="edge5" class="edge">
<title>intersection manoeuvre&#45;&gt;egressLane</title>
<path fill="none" stroke="black" d="M82.47,-188.21C96.53,-175.45 116.62,-157.67 135,-143 139.85,-139.13 145.08,-135.15 150.24,-131.32"/>
<polygon fill="black" stroke="black" points="152.13,-134.28 158.14,-125.56 148,-128.62 152.13,-134.28"/>
<text xml:space="preserve" text-anchor="middle" x="158.62" y="-159.55" font-family="Arial" font-size="11.00"> to </text>
<text xml:space="preserve" text-anchor="middle" x="158.62" y="-146.05" font-family="Arial" font-size="11.00"> «some» &#160;</text>
</g>
<!-- ingressLane -->
<g id="node4" class="node">
<title>ingressLane</title>
<g id="a_node4"><a xlink:href="../ingress lane/" xlink:title="&lt;TABLE&gt;" target="_top">
<polygon fill="lightgray" stroke="none" points="149.62,-25.88 149.62,-42.12 216.88,-42.12 216.88,-25.88 149.62,-25.88"/>
<text xml:space="preserve" text-anchor="start" x="150.62" y="-29.73" font-family="Arial" font-size="12.00">ingress lane</text>
<polygon fill="none" stroke="black" points="148.62,-24.88 148.62,-43.12 217.88,-43.12 217.88,-24.88 148.62,-24.88"/>
</a>
</g>
</g>
<!-- intersection manoeuvre&#45;&gt;ingressLane -->
<g id="edge4" class="edge">
<title>intersection manoeuvre&#45;&gt;ingressLane</title>
<path fill="none" stroke="black" d="M64.66,-188.34C66.04,-164.19 71.69,-119.04 94,-89 105.45,-73.59 122.72,-61.68 139.02,-53.02"/>
<polygon fill="black" stroke="black" points="140.25,-56.32 147.64,-48.72 137.13,-50.05 140.25,-56.32"/>
<text xml:space="preserve" text-anchor="middle" x="117.62" y="-110.05" font-family="Arial" font-size="11.00"> from </text>
<text xml:space="preserve" text-anchor="middle" x="117.62" y="-96.55" font-family="Arial" font-size="11.00"> «some» &#160;</text>
</g>
<!-- Invis&#45;&gt;egressLane -->
<!-- egressLane&#45;&gt;ingressLane -->
</g>
</svg>
