<?xml version="1.0" encoding="UTF-8" standalone="no"?>
<!DOCTYPE svg PUBLIC "-//W3C//DTD SVG 1.1//EN"
 "http://www.w3.org/Graphics/SVG/1.1/DTD/svg11.dtd">
<!-- Generated by graphviz version 14.0.2 (20251019.1705)
 -->
<!-- Pages: 1 -->
<svg width="213pt" height="232pt"
 viewBox="0.00 0.00 213.00 232.00" xmlns="http://www.w3.org/2000/svg" xmlns:xlink="http://www.w3.org/1999/xlink">
<g id="graph0" class="graph" transform="scale(1 1) rotate(0) translate(4 228)">
<polygon fill="white" stroke="none" points="-4,4 -4,-228 208.62,-228 208.62,4 -4,4"/>
<g id="clust2" class="cluster">
<title>cluster_associated</title>
</g>
<!-- interface dialogue -->
<g id="node1" class="node">
<title>interface dialogue</title>
<g id="a_node1"><a xlink:href="../classes/itsVocabulary__interface dialogue.md" xlink:title="&lt;TABLE&gt;">
<polygon fill="lightgray" stroke="none" points="106.38,-124.88 106.38,-141.12 203.62,-141.12 203.62,-124.88 106.38,-124.88"/>
<text xml:space="preserve" text-anchor="start" x="107.38" y="-128.72" font-family="Arial" font-size="12.00">interface dialogue</text>
<polygon fill="none" stroke="black" points="105.38,-123.88 105.38,-142.12 204.62,-142.12 204.62,-123.88 105.38,-123.88"/>
</a>
</g>
</g>
<!-- dataConcept -->
<g id="node2" class="node">
<title>dataConcept</title>
<g id="a_node2"><a xlink:href="../data concept/" xlink:title="&lt;TABLE&gt;" target="_top">
<polygon fill="lightgray" stroke="none" points="119.88,-197.88 119.88,-214.12 190.12,-214.12 190.12,-197.88 119.88,-197.88"/>
<text xml:space="preserve" text-anchor="start" x="120.88" y="-201.72" font-family="Arial" font-size="12.00">data concept</text>
<polygon fill="none" stroke="black" points="118.88,-196.88 118.88,-215.12 191.12,-215.12 191.12,-196.88 118.88,-196.88"/>
</a>
</g>
</g>
<!-- interface dialogue&#45;&gt;dataConcept -->
<g id="edge1" class="edge">
<title>interface dialogue&#45;&gt;dataConcept</title>
<path fill="none" stroke="black" d="M155,-150.71C155,-158.47 155,-167.92 155,-176.74"/>
<polygon fill="none" stroke="black" points="151.5,-176.66 155,-186.66 158.5,-176.66 151.5,-176.66"/>
</g>
<!-- Invis -->
<!-- interface dialogue&#45;&gt;Invis -->
<!-- message -->
<g id="node4" class="node">
<title>message</title>
<g id="a_node4"><a xlink:href="../message/" xlink:title="&lt;TABLE&gt;" target="_top">
<polygon fill="lightgray" stroke="none" points="17.62,-25.88 17.62,-42.12 68.38,-42.12 68.38,-25.88 17.62,-25.88"/>
<text xml:space="preserve" text-anchor="start" x="18.62" y="-29.73" font-family="Arial" font-size="12.00">message</text>
<polygon fill="none" stroke="black" points="16.62,-24.88 16.62,-43.12 69.38,-43.12 69.38,-24.88 16.62,-24.88"/>
</a>
</g>
</g>
<!-- interface dialogue&#45;&gt;message -->
<g id="edge4" class="edge">
<title>interface dialogue&#45;&gt;message</title>
<path fill="none" stroke="black" d="M135.49,-115.1C117.58,-99.6 90.86,-76.45 70.74,-59.02"/>
<polygon fill="black" stroke="black" points="73.28,-56.59 63.43,-52.69 68.7,-61.89 73.28,-56.59"/>
<text xml:space="preserve" text-anchor="middle" x="135.95" y="-86.55" font-family="Arial" font-size="11.00"> uses </text>
<text xml:space="preserve" text-anchor="middle" x="135.95" y="-73.05" font-family="Arial" font-size="11.00"> «some» &#160;</text>
</g>
<!-- Invis&#45;&gt;message -->
</g>
</svg>
