<?xml version="1.0" encoding="UTF-8" standalone="no"?>
<!DOCTYPE svg PUBLIC "-//W3C//DTD SVG 1.1//EN"
 "http://www.w3.org/Graphics/SVG/1.1/DTD/svg11.dtd">
<!-- Generated by graphviz version 14.0.2 (20251019.1705)
 -->
<!-- Pages: 1 -->
<svg width="250pt" height="248pt"
 viewBox="0.00 0.00 250.00 248.00" xmlns="http://www.w3.org/2000/svg" xmlns:xlink="http://www.w3.org/1999/xlink">
<g id="graph0" class="graph" transform="scale(1 1) rotate(0) translate(4 244)">
<polygon fill="white" stroke="none" points="-4,4 -4,-244 245.88,-244 245.88,4 -4,4"/>
<g id="clust2" class="cluster">
<title>cluster_associated</title>
</g>
<!-- interoperability design -->
<g id="node1" class="node">
<title>interoperability design</title>
<g id="a_node1"><a xlink:href="../classes/itsVocabulary__interoperability design.md" xlink:title="&lt;TABLE&gt;">
<polygon fill="lightgray" stroke="none" points="1,-197.88 1,-214.12 120.75,-214.12 120.75,-197.88 1,-197.88"/>
<text xml:space="preserve" text-anchor="start" x="2" y="-201.72" font-family="Arial" font-size="12.00">interoperability design</text>
<polygon fill="none" stroke="black" points="0,-196.88 0,-215.12 121.75,-215.12 121.75,-196.88 0,-196.88"/>
</a>
</g>
</g>
<!-- Invis -->
<!-- interoperability design&#45;&gt;Invis -->
<!-- physicalObject -->
<g id="node3" class="node">
<title>physicalObject</title>
<g id="a_node3"><a xlink:href="../physical object/" xlink:title="&lt;TABLE&gt;" target="_top">
<polygon fill="lightgray" stroke="none" points="143.12,-98.88 143.12,-115.12 224.62,-115.12 224.62,-98.88 143.12,-98.88"/>
<text xml:space="preserve" text-anchor="start" x="144.12" y="-102.72" font-family="Arial" font-size="12.00">physical object</text>
<polygon fill="none" stroke="black" points="142.12,-97.88 142.12,-116.12 225.62,-116.12 225.62,-97.88 142.12,-97.88"/>
</a>
</g>
</g>
<!-- interoperability design&#45;&gt;physicalObject -->
<g id="edge5" class="edge">
<title>interoperability design&#45;&gt;physicalObject</title>
<path fill="none" stroke="black" d="M79.27,-188.08C93.48,-175.27 113.84,-157.46 132.62,-143 137.77,-139.04 143.33,-135.01 148.82,-131.16"/>
<polygon fill="black" stroke="black" points="150.43,-134.3 156.68,-125.75 146.46,-128.54 150.43,-134.3"/>
<text xml:space="preserve" text-anchor="middle" x="156.25" y="-159.55" font-family="Arial" font-size="11.00"> using </text>
<text xml:space="preserve" text-anchor="middle" x="156.25" y="-146.05" font-family="Arial" font-size="11.00"> «some» &#160;</text>
</g>
<!-- service -->
<g id="node4" class="node">
<title>service</title>
<g id="a_node4"><a xlink:href="../service/" xlink:title="&lt;TABLE&gt;" target="_top">
<polygon fill="lightgray" stroke="none" points="155.75,-25.88 155.75,-42.12 196,-42.12 196,-25.88 155.75,-25.88"/>
<text xml:space="preserve" text-anchor="start" x="156.75" y="-29.73" font-family="Arial" font-size="12.00">service</text>
<polygon fill="none" stroke="black" points="154.75,-24.88 154.75,-43.12 197,-43.12 197,-24.88 154.75,-24.88"/>
</a>
</g>
</g>
<!-- interoperability design&#45;&gt;service -->
<g id="edge4" class="edge">
<title>interoperability design&#45;&gt;service</title>
<path fill="none" stroke="black" d="M46.44,-188.25C27.71,-164.38 -0.12,-120.02 21.88,-89 47.97,-52.19 101.2,-40.28 137.7,-36.54"/>
<polygon fill="black" stroke="black" points="137.74,-40.05 147.4,-35.71 137.14,-33.07 137.74,-40.05"/>
<text xml:space="preserve" text-anchor="middle" x="77.38" y="-110.05" font-family="Arial" font-size="11.00"> definesHowToProvide </text>
<text xml:space="preserve" text-anchor="middle" x="77.38" y="-96.55" font-family="Arial" font-size="11.00"> «some» &#160;</text>
</g>
<!-- Invis&#45;&gt;physicalObject -->
<!-- physicalObject&#45;&gt;service -->
</g>
</svg>
