<?xml version="1.0" encoding="UTF-8" standalone="no"?>
<!DOCTYPE svg PUBLIC "-//W3C//DTD SVG 1.1//EN"
 "http://www.w3.org/Graphics/SVG/1.1/DTD/svg11.dtd">
<!-- Generated by graphviz version 14.0.2 (20251019.1705)
 -->
<!-- Pages: 1 -->
<svg width="226pt" height="232pt"
 viewBox="0.00 0.00 226.00 232.00" xmlns="http://www.w3.org/2000/svg" xmlns:xlink="http://www.w3.org/1999/xlink">
<g id="graph0" class="graph" transform="scale(1 1) rotate(0) translate(4 228)">
<polygon fill="white" stroke="none" points="-4,4 -4,-228 222.25,-228 222.25,4 -4,4"/>
<g id="clust2" class="cluster">
<title>cluster_associated</title>
</g>
<!-- ITS service provider -->
<g id="node1" class="node">
<title>ITS service provider</title>
<g id="a_node1"><a xlink:href="../classes/itsVocabulary__ITS service provider.md" xlink:title="&lt;TABLE&gt;">
<polygon fill="lightgray" stroke="none" points="108.75,-124.88 108.75,-141.12 217.25,-141.12 217.25,-124.88 108.75,-124.88"/>
<text xml:space="preserve" text-anchor="start" x="109.75" y="-128.72" font-family="Arial" font-size="12.00">ITS service provider</text>
<polygon fill="none" stroke="black" points="107.75,-123.88 107.75,-142.12 218.25,-142.12 218.25,-123.88 107.75,-123.88"/>
</a>
</g>
</g>
<!-- serviceProvider -->
<g id="node2" class="node">
<title>serviceProvider</title>
<g id="a_node2"><a xlink:href="../service provider/" xlink:title="&lt;TABLE&gt;" target="_top">
<polygon fill="lightgray" stroke="none" points="119.62,-197.88 119.62,-214.12 206.38,-214.12 206.38,-197.88 119.62,-197.88"/>
<text xml:space="preserve" text-anchor="start" x="120.62" y="-201.72" font-family="Arial" font-size="12.00">service provider</text>
<polygon fill="none" stroke="black" points="118.62,-196.88 118.62,-215.12 207.38,-215.12 207.38,-196.88 118.62,-196.88"/>
</a>
</g>
</g>
<!-- ITS service provider&#45;&gt;serviceProvider -->
<g id="edge1" class="edge">
<title>ITS service provider&#45;&gt;serviceProvider</title>
<path fill="none" stroke="black" d="M163,-150.71C163,-158.47 163,-167.92 163,-176.74"/>
<polygon fill="none" stroke="black" points="159.5,-176.66 163,-186.66 166.5,-176.66 159.5,-176.66"/>
</g>
<!-- Invis -->
<!-- ITS service provider&#45;&gt;Invis -->
<!-- itsService -->
<g id="node4" class="node">
<title>itsService</title>
<g id="a_node4"><a xlink:href="../ITS service/" xlink:title="&lt;TABLE&gt;" target="_top">
<polygon fill="lightgray" stroke="none" points="17,-25.88 17,-42.12 79,-42.12 79,-25.88 17,-25.88"/>
<text xml:space="preserve" text-anchor="start" x="18" y="-29.73" font-family="Arial" font-size="12.00">ITS service</text>
<polygon fill="none" stroke="black" points="16,-24.88 16,-43.12 80,-43.12 80,-24.88 16,-24.88"/>
</a>
</g>
</g>
<!-- ITS service provider&#45;&gt;itsService -->
<g id="edge4" class="edge">
<title>ITS service provider&#45;&gt;itsService</title>
<path fill="none" stroke="black" d="M142.97,-115.1C124.58,-99.6 97.14,-76.45 76.48,-59.02"/>
<polygon fill="black" stroke="black" points="78.86,-56.45 68.96,-52.68 74.35,-61.8 78.86,-56.45"/>
<text xml:space="preserve" text-anchor="middle" x="142.81" y="-86.55" font-family="Arial" font-size="11.00"> delivers </text>
<text xml:space="preserve" text-anchor="middle" x="142.81" y="-73.05" font-family="Arial" font-size="11.00"> «some» &#160;</text>
</g>
<!-- Invis&#45;&gt;itsService -->
</g>
</svg>
