<?xml version="1.0" encoding="UTF-8" standalone="no"?>
<!DOCTYPE svg PUBLIC "-//W3C//DTD SVG 1.1//EN"
 "http://www.w3.org/Graphics/SVG/1.1/DTD/svg11.dtd">
<!-- Generated by graphviz version 14.0.2 (20251019.1705)
 -->
<!-- Pages: 1 -->
<svg width="192pt" height="132pt"
 viewBox="0.00 0.00 192.00 132.00" xmlns="http://www.w3.org/2000/svg" xmlns:xlink="http://www.w3.org/1999/xlink">
<g id="graph0" class="graph" transform="scale(1 1) rotate(0) translate(4 128)">
<polygon fill="white" stroke="none" points="-4,4 -4,-128 188.12,-128 188.12,4 -4,4"/>
<g id="clust2" class="cluster">
<title>cluster_associated</title>
</g>
<!-- ITS on&#45;board unit -->
<g id="node1" class="node">
<title>ITS on&#45;board unit</title>
<g id="a_node1"><a xlink:href="../classes/itsVocabulary__ITS on-board unit.md" xlink:title="&lt;TABLE&gt;">
<polygon fill="lightgray" stroke="none" points="1,-25.88 1,-42.12 95.25,-42.12 95.25,-25.88 1,-25.88"/>
<text xml:space="preserve" text-anchor="start" x="2" y="-29.73" font-family="Arial" font-size="12.00">ITS on&#45;board unit</text>
<polygon fill="none" stroke="black" points="0,-24.88 0,-43.12 96.25,-43.12 96.25,-24.88 0,-24.88"/>
</a>
</g>
</g>
<!-- connectedUnit -->
<g id="node2" class="node">
<title>connectedUnit</title>
<g id="a_node2"><a xlink:href="../connected unit/" xlink:title="&lt;TABLE&gt;" target="_top">
<polygon fill="lightgray" stroke="none" points="8.12,-97.88 8.12,-114.12 88.12,-114.12 88.12,-97.88 8.12,-97.88"/>
<text xml:space="preserve" text-anchor="start" x="9.12" y="-101.72" font-family="Arial" font-size="12.00">connected unit</text>
<polygon fill="none" stroke="black" points="7.12,-96.88 7.12,-115.12 89.12,-115.12 89.12,-96.88 7.12,-96.88"/>
</a>
</g>
</g>
<!-- ITS on&#45;board unit&#45;&gt;connectedUnit -->
<g id="edge1" class="edge">
<title>ITS on&#45;board unit&#45;&gt;connectedUnit</title>
<path fill="none" stroke="black" d="M48.12,-51.79C48.12,-59.25 48.12,-68.24 48.12,-76.69"/>
<polygon fill="none" stroke="black" points="44.63,-76.54 48.13,-86.54 51.63,-76.54 44.63,-76.54"/>
</g>
<!-- Invis -->
</g>
</svg>
