<?xml version="1.0" encoding="UTF-8" standalone="no"?>
<!DOCTYPE svg PUBLIC "-//W3C//DTD SVG 1.1//EN"
 "http://www.w3.org/Graphics/SVG/1.1/DTD/svg11.dtd">
<!-- Generated by graphviz version 14.0.2 (20251019.1705)
 -->
<!-- Pages: 1 -->
<svg width="236pt" height="175pt"
 viewBox="0.00 0.00 236.00 175.00" xmlns="http://www.w3.org/2000/svg" xmlns:xlink="http://www.w3.org/1999/xlink">
<g id="graph0" class="graph" transform="scale(1 1) rotate(0) translate(4 171)">
<polygon fill="white" stroke="none" points="-4,4 -4,-171 232,-171 232,4 -4,4"/>
<g id="clust2" class="cluster">
<title>cluster_associated</title>
</g>
<!-- ITS deployment -->
<g id="node1" class="node">
<title>ITS deployment</title>
<g id="a_node1"><a xlink:href="../classes/itsVocabulary__ITS deployment.md" xlink:title="&lt;TABLE&gt;">
<polygon fill="lightgray" stroke="none" points="1,-124.88 1,-141.12 87,-141.12 87,-124.88 1,-124.88"/>
<text xml:space="preserve" text-anchor="start" x="2" y="-128.72" font-family="Arial" font-size="12.00">ITS deployment</text>
<polygon fill="none" stroke="black" points="0,-123.88 0,-142.12 88,-142.12 88,-123.88 0,-123.88"/>
</a>
</g>
</g>
<!-- Invis -->
<!-- ITS deployment&#45;&gt;Invis -->
<!-- itsImplementation -->
<g id="node3" class="node">
<title>itsImplementation</title>
<g id="a_node3"><a xlink:href="../ITS implementation/" xlink:title="&lt;TABLE&gt;" target="_top">
<polygon fill="lightgray" stroke="none" points="105.25,-25.88 105.25,-42.12 210.75,-42.12 210.75,-25.88 105.25,-25.88"/>
<text xml:space="preserve" text-anchor="start" x="106.25" y="-29.73" font-family="Arial" font-size="12.00">ITS implementation</text>
<polygon fill="none" stroke="black" points="104.25,-24.88 104.25,-43.12 211.75,-43.12 211.75,-24.88 104.25,-24.88"/>
</a>
</g>
</g>
<!-- ITS deployment&#45;&gt;itsImplementation -->
<g id="edge3" class="edge">
<title>ITS deployment&#45;&gt;itsImplementation</title>
<path fill="none" stroke="black" d="M51.75,-115.17C58.72,-101.54 70.08,-82.61 84.5,-70 89.88,-65.3 96,-61.09 102.35,-57.36"/>
<polygon fill="black" stroke="black" points="104,-60.45 111.13,-52.62 100.67,-54.29 104,-60.45"/>
<text xml:space="preserve" text-anchor="middle" x="118.25" y="-86.55" font-family="Arial" font-size="11.00"> installationOf </text>
<text xml:space="preserve" text-anchor="middle" x="118.25" y="-73.05" font-family="Arial" font-size="11.00"> «some» &#160;</text>
</g>
<!-- Invis&#45;&gt;itsImplementation -->
</g>
</svg>
