<?xml version="1.0" encoding="UTF-8" standalone="no"?>
<!DOCTYPE svg PUBLIC "-//W3C//DTD SVG 1.1//EN"
 "http://www.w3.org/Graphics/SVG/1.1/DTD/svg11.dtd">
<!-- Generated by graphviz version 14.0.2 (20251019.1705)
 -->
<!-- Pages: 1 -->
<svg width="228pt" height="232pt"
 viewBox="0.00 0.00 228.00 232.00" xmlns="http://www.w3.org/2000/svg" xmlns:xlink="http://www.w3.org/1999/xlink">
<g id="graph0" class="graph" transform="scale(1 1) rotate(0) translate(4 228)">
<polygon fill="white" stroke="none" points="-4,4 -4,-228 224,-228 224,4 -4,4"/>
<g id="clust2" class="cluster">
<title>cluster_associated</title>
</g>
<!-- ITS user -->
<g id="node1" class="node">
<title>ITS user</title>
<g id="a_node1"><a xlink:href="../classes/itsVocabulary__ITS user.md" xlink:title="&lt;TABLE&gt;">
<polygon fill="lightgray" stroke="none" points="169.5,-124.88 169.5,-141.12 216.5,-141.12 216.5,-124.88 169.5,-124.88"/>
<text xml:space="preserve" text-anchor="start" x="170.5" y="-128.72" font-family="Arial" font-size="12.00">ITS user</text>
<polygon fill="none" stroke="black" points="168.5,-123.88 168.5,-142.12 217.5,-142.12 217.5,-123.88 168.5,-123.88"/>
</a>
</g>
</g>
<!-- user -->
<g id="node2" class="node">
<title>user</title>
<g id="a_node2"><a xlink:href="../user/" xlink:title="&lt;TABLE&gt;" target="_top">
<polygon fill="lightgray" stroke="none" points="180.38,-197.88 180.38,-214.12 205.62,-214.12 205.62,-197.88 180.38,-197.88"/>
<text xml:space="preserve" text-anchor="start" x="181.38" y="-201.72" font-family="Arial" font-size="12.00">user</text>
<polygon fill="none" stroke="black" points="179.38,-196.88 179.38,-215.12 206.62,-215.12 206.62,-196.88 179.38,-196.88"/>
</a>
</g>
</g>
<!-- ITS user&#45;&gt;user -->
<g id="edge1" class="edge">
<title>ITS user&#45;&gt;user</title>
<path fill="none" stroke="black" d="M193,-150.71C193,-158.47 193,-167.92 193,-176.74"/>
<polygon fill="none" stroke="black" points="189.5,-176.66 193,-186.66 196.5,-176.66 189.5,-176.66"/>
</g>
<!-- Invis -->
<!-- ITS user&#45;&gt;Invis -->
<!-- surfaceTransportSystem -->
<g id="node4" class="node">
<title>surfaceTransportSystem</title>
<g id="a_node4"><a xlink:href="../surface transport system/" xlink:title="&lt;TABLE&gt;" target="_top">
<polygon fill="lightgray" stroke="none" points="17.5,-25.88 17.5,-42.12 148.5,-42.12 148.5,-25.88 17.5,-25.88"/>
<text xml:space="preserve" text-anchor="start" x="18.5" y="-29.73" font-family="Arial" font-size="12.00">surface transport system</text>
<polygon fill="none" stroke="black" points="16.5,-24.88 16.5,-43.12 149.5,-43.12 149.5,-24.88 16.5,-24.88"/>
</a>
</g>
</g>
<!-- ITS user&#45;&gt;surfaceTransportSystem -->
<g id="edge4" class="edge">
<title>ITS user&#45;&gt;surfaceTransportSystem</title>
<path fill="none" stroke="black" d="M173.84,-115.1C156.33,-99.66 130.24,-76.66 110.51,-59.26"/>
<polygon fill="black" stroke="black" points="112.89,-56.69 103.08,-52.7 108.26,-61.94 112.89,-56.69"/>
<text xml:space="preserve" text-anchor="middle" x="174.71" y="-86.55" font-family="Arial" font-size="11.00"> uses </text>
<text xml:space="preserve" text-anchor="middle" x="174.71" y="-73.05" font-family="Arial" font-size="11.00"> «some» &#160;</text>
</g>
<!-- Invis&#45;&gt;surfaceTransportSystem -->
</g>
</svg>
