<?xml version="1.0" encoding="UTF-8" standalone="no"?>
<!DOCTYPE svg PUBLIC "-//W3C//DTD SVG 1.1//EN"
 "http://www.w3.org/Graphics/SVG/1.1/DTD/svg11.dtd">
<!-- Generated by graphviz version 14.0.2 (20251019.1705)
 -->
<!-- Pages: 1 -->
<svg width="164pt" height="132pt"
 viewBox="0.00 0.00 164.00 132.00" xmlns="http://www.w3.org/2000/svg" xmlns:xlink="http://www.w3.org/1999/xlink">
<g id="graph0" class="graph" transform="scale(1 1) rotate(0) translate(4 128)">
<polygon fill="white" stroke="none" points="-4,4 -4,-128 160.25,-128 160.25,4 -4,4"/>
<g id="clust2" class="cluster">
<title>cluster_associated</title>
</g>
<!-- ITS&#45;S router -->
<g id="node1" class="node">
<title>ITS&#45;S router</title>
<g id="a_node1"><a xlink:href="../classes/itsVocabulary__ITS-S router.md" xlink:title="&lt;TABLE&gt;">
<polygon fill="lightgray" stroke="none" points="1,-25.88 1,-42.12 67.5,-42.12 67.5,-25.88 1,-25.88"/>
<text xml:space="preserve" text-anchor="start" x="2" y="-29.73" font-family="Arial" font-size="12.00">ITS&#45;S router</text>
<polygon fill="none" stroke="black" points="0,-24.88 0,-43.12 68.5,-43.12 68.5,-24.88 0,-24.88"/>
</a>
</g>
</g>
<!-- its&#45;sNode -->
<g id="node2" class="node">
<title>its&#45;sNode</title>
<g id="a_node2"><a xlink:href="../ITS-S node/" xlink:title="&lt;TABLE&gt;" target="_top">
<polygon fill="lightgray" stroke="none" points="2.88,-97.88 2.88,-114.12 65.62,-114.12 65.62,-97.88 2.88,-97.88"/>
<text xml:space="preserve" text-anchor="start" x="3.88" y="-101.72" font-family="Arial" font-size="12.00">ITS&#45;S node</text>
<polygon fill="none" stroke="black" points="1.88,-96.88 1.88,-115.12 66.62,-115.12 66.62,-96.88 1.88,-96.88"/>
</a>
</g>
</g>
<!-- ITS&#45;S router&#45;&gt;its&#45;sNode -->
<g id="edge1" class="edge">
<title>ITS&#45;S router&#45;&gt;its&#45;sNode</title>
<path fill="none" stroke="black" d="M34.25,-51.79C34.25,-59.25 34.25,-68.24 34.25,-76.69"/>
<polygon fill="none" stroke="black" points="30.75,-76.54 34.25,-86.54 37.75,-76.54 30.75,-76.54"/>
</g>
<!-- Invis -->
</g>
</svg>
