<?xml version="1.0" encoding="UTF-8" standalone="no"?>
<!DOCTYPE svg PUBLIC "-//W3C//DTD SVG 1.1//EN"
 "http://www.w3.org/Graphics/SVG/1.1/DTD/svg11.dtd">
<!-- Generated by graphviz version 14.0.2 (20251019.1705)
 -->
<!-- Pages: 1 -->
<svg width="257pt" height="248pt"
 viewBox="0.00 0.00 257.00 248.00" xmlns="http://www.w3.org/2000/svg" xmlns:xlink="http://www.w3.org/1999/xlink">
<g id="graph0" class="graph" transform="scale(1 1) rotate(0) translate(4 244)">
<polygon fill="white" stroke="none" points="-4,4 -4,-244 253.16,-244 253.16,4 -4,4"/>
<g id="clust2" class="cluster">
<title>cluster_associated</title>
</g>
<!-- ITS&#45;S unit -->
<g id="node1" class="node">
<title>ITS&#45;S unit</title>
<g id="a_node1"><a xlink:href="../classes/itsVocabulary__ITS-S unit.md" xlink:title="&lt;TABLE&gt;">
<polygon fill="lightgray" stroke="none" points="18.54,-197.88 18.54,-214.12 73.79,-214.12 73.79,-197.88 18.54,-197.88"/>
<text xml:space="preserve" text-anchor="start" x="19.54" y="-201.72" font-family="Arial" font-size="12.00">ITS&#45;S unit</text>
<polygon fill="none" stroke="black" points="17.54,-196.88 17.54,-215.12 74.79,-215.12 74.79,-196.88 17.54,-196.88"/>
</a>
</g>
</g>
<!-- Invis -->
<!-- ITS&#45;S unit&#45;&gt;Invis -->
<!-- its&#45;sCommunicationUnit -->
<g id="node3" class="node">
<title>its&#45;sCommunicationUnit</title>
<g id="a_node3"><a xlink:href="../ITS-S communication unit/" xlink:title="&lt;TABLE&gt;" target="_top">
<polygon fill="lightgray" stroke="none" points="92.54,-98.88 92.54,-115.12 231.79,-115.12 231.79,-98.88 92.54,-98.88"/>
<text xml:space="preserve" text-anchor="start" x="93.54" y="-102.72" font-family="Arial" font-size="12.00">ITS&#45;S communication unit</text>
<polygon fill="none" stroke="black" points="91.54,-97.88 91.54,-116.12 232.79,-116.12 232.79,-97.88 91.54,-97.88"/>
</a>
</g>
</g>
<!-- ITS&#45;S unit&#45;&gt;its&#45;sCommunicationUnit -->
<g id="edge5" class="edge">
<title>ITS&#45;S unit&#45;&gt;its&#45;sCommunicationUnit</title>
<path fill="none" stroke="black" d="M55.31,-188.26C63.39,-174.69 76.22,-155.79 91.41,-143 97.05,-138.26 103.43,-133.96 110.01,-130.14"/>
<polygon fill="black" stroke="black" points="111.26,-133.44 118.38,-125.59 107.92,-127.29 111.26,-133.44"/>
<text xml:space="preserve" text-anchor="middle" x="118.79" y="-159.55" font-family="Arial" font-size="11.00"> comprises </text>
<text xml:space="preserve" text-anchor="middle" x="118.79" y="-146.05" font-family="Arial" font-size="11.00"> «some» &#160;</text>
</g>
<!-- itsStation -->
<g id="node4" class="node">
<title>itsStation</title>
<g id="a_node4"><a xlink:href="../ITS station/" xlink:title="&lt;TABLE&gt;" target="_top">
<polygon fill="lightgray" stroke="none" points="112.66,-25.88 112.66,-42.12 171.66,-42.12 171.66,-25.88 112.66,-25.88"/>
<text xml:space="preserve" text-anchor="start" x="113.66" y="-29.73" font-family="Arial" font-size="12.00">ITS station</text>
<polygon fill="none" stroke="black" points="111.66,-24.88 111.66,-43.12 172.66,-43.12 172.66,-24.88 111.66,-24.88"/>
</a>
</g>
</g>
<!-- ITS&#45;S unit&#45;&gt;itsStation -->
<g id="edge4" class="edge">
<title>ITS&#45;S unit&#45;&gt;itsStation</title>
<path fill="none" stroke="black" d="M32.09,-188.37C13.83,-164.63 -13.34,-120.45 7.91,-89 28.52,-58.5 69.51,-45.23 100.8,-39.45"/>
<polygon fill="black" stroke="black" points="101.04,-42.96 110.34,-37.89 99.91,-36.05 101.04,-42.96"/>
<text xml:space="preserve" text-anchor="middle" x="45.04" y="-110.05" font-family="Arial" font-size="11.00"> instantiationOf </text>
<text xml:space="preserve" text-anchor="middle" x="45.04" y="-96.55" font-family="Arial" font-size="11.00"> «some» &#160;</text>
</g>
<!-- Invis&#45;&gt;its&#45;sCommunicationUnit -->
<!-- its&#45;sCommunicationUnit&#45;&gt;itsStation -->
</g>
</svg>
