<?xml version="1.0" encoding="UTF-8" standalone="no"?>
<!DOCTYPE svg PUBLIC "-//W3C//DTD SVG 1.1//EN"
 "http://www.w3.org/Graphics/SVG/1.1/DTD/svg11.dtd">
<!-- Generated by graphviz version 14.0.2 (20251019.1705)
 -->
<!-- Pages: 1 -->
<svg width="184pt" height="305pt"
 viewBox="0.00 0.00 184.00 305.00" xmlns="http://www.w3.org/2000/svg" xmlns:xlink="http://www.w3.org/1999/xlink">
<g id="graph0" class="graph" transform="scale(1 1) rotate(0) translate(4 301)">
<polygon fill="white" stroke="none" points="-4,4 -4,-301 179.56,-301 179.56,4 -4,4"/>
<g id="clust2" class="cluster">
<title>cluster_associated</title>
</g>
<!-- junction -->
<g id="node1" class="node">
<title>junction</title>
<g id="a_node1"><a xlink:href="../classes/itsVocabulary__junction.md" xlink:title="&lt;TABLE&gt;">
<polygon fill="lightgray" stroke="none" points="111,-197.88 111,-214.12 155,-214.12 155,-197.88 111,-197.88"/>
<text xml:space="preserve" text-anchor="start" x="112" y="-201.72" font-family="Arial" font-size="12.00">junction</text>
<polygon fill="none" stroke="black" points="110,-196.88 110,-215.12 156,-215.12 156,-196.88 110,-196.88"/>
</a>
</g>
</g>
<!-- intersection -->
<g id="node2" class="node">
<title>intersection</title>
<g id="a_node2"><a xlink:href="../intersection/" xlink:title="&lt;TABLE&gt;" target="_top">
<polygon fill="lightgray" stroke="none" points="101.25,-270.88 101.25,-287.12 164.75,-287.12 164.75,-270.88 101.25,-270.88"/>
<text xml:space="preserve" text-anchor="start" x="102.25" y="-274.73" font-family="Arial" font-size="12.00">intersection</text>
<polygon fill="none" stroke="black" points="100.25,-269.88 100.25,-288.12 165.75,-288.12 165.75,-269.88 100.25,-269.88"/>
</a>
</g>
</g>
<!-- junction&#45;&gt;intersection -->
<g id="edge1" class="edge">
<title>junction&#45;&gt;intersection</title>
<path fill="none" stroke="black" d="M133,-223.71C133,-231.47 133,-240.92 133,-249.74"/>
<polygon fill="none" stroke="black" points="129.5,-249.66 133,-259.66 136.5,-249.66 129.5,-249.66"/>
</g>
<!-- Invis -->
<!-- junction&#45;&gt;Invis -->
<!-- egressLane -->
<g id="node4" class="node">
<title>egressLane</title>
<g id="a_node4"><a xlink:href="../egress lane/" xlink:title="&lt;TABLE&gt;" target="_top">
<polygon fill="lightgray" stroke="none" points="18.88,-98.88 18.88,-115.12 83.12,-115.12 83.12,-98.88 18.88,-98.88"/>
<text xml:space="preserve" text-anchor="start" x="19.88" y="-102.72" font-family="Arial" font-size="12.00">egress lane</text>
<polygon fill="none" stroke="black" points="17.88,-97.88 17.88,-116.12 84.12,-116.12 84.12,-97.88 17.88,-97.88"/>
</a>
</g>
</g>
<!-- junction&#45;&gt;egressLane -->
<g id="edge6" class="edge">
<title>junction&#45;&gt;egressLane</title>
<path fill="none" stroke="black" d="M106.15,-191.91C86.72,-182.39 63.75,-170.99 63,-170 55.72,-160.41 52.48,-147.63 51.15,-136.17"/>
<polygon fill="black" stroke="black" points="54.66,-136.14 50.47,-126.4 47.67,-136.62 54.66,-136.14"/>
<text xml:space="preserve" text-anchor="middle" x="93" y="-159.55" font-family="Arial" font-size="11.00"> aggregates </text>
<text xml:space="preserve" text-anchor="middle" x="93" y="-146.05" font-family="Arial" font-size="11.00"> «some» &#160;</text>
</g>
<!-- ingressLane -->
<g id="node5" class="node">
<title>ingressLane</title>
<g id="a_node5"><a xlink:href="../ingress lane/" xlink:title="&lt;TABLE&gt;" target="_top">
<polygon fill="lightgray" stroke="none" points="17.38,-25.88 17.38,-42.12 84.62,-42.12 84.62,-25.88 17.38,-25.88"/>
<text xml:space="preserve" text-anchor="start" x="18.38" y="-29.73" font-family="Arial" font-size="12.00">ingress lane</text>
<polygon fill="none" stroke="black" points="16.38,-24.88 16.38,-43.12 85.62,-43.12 85.62,-24.88 16.38,-24.88"/>
</a>
</g>
</g>
<!-- junction&#45;&gt;ingressLane -->
<g id="edge5" class="edge">
<title>junction&#45;&gt;ingressLane</title>
<path fill="none" stroke="black" d="M131.86,-188.04C130.63,-175.35 128.1,-157.73 123,-143 112.25,-111.98 90.42,-81.29 73.6,-60.6"/>
<polygon fill="black" stroke="black" points="76.35,-58.43 67.25,-52.99 70.97,-62.91 76.35,-58.43"/>
<text xml:space="preserve" text-anchor="middle" x="145.56" y="-110.05" font-family="Arial" font-size="11.00"> aggregates </text>
<text xml:space="preserve" text-anchor="middle" x="145.56" y="-96.55" font-family="Arial" font-size="11.00"> «some» &#160;</text>
</g>
<!-- Invis&#45;&gt;egressLane -->
<!-- egressLane&#45;&gt;ingressLane -->
</g>
</svg>
