<?xml version="1.0" encoding="UTF-8" standalone="no"?>
<!DOCTYPE svg PUBLIC "-//W3C//DTD SVG 1.1//EN"
 "http://www.w3.org/Graphics/SVG/1.1/DTD/svg11.dtd">
<!-- Generated by graphviz version 14.0.2 (20251019.1705)
 -->
<!-- Pages: 1 -->
<svg width="188pt" height="132pt"
 viewBox="0.00 0.00 188.00 132.00" xmlns="http://www.w3.org/2000/svg" xmlns:xlink="http://www.w3.org/1999/xlink">
<g id="graph0" class="graph" transform="scale(1 1) rotate(0) translate(4 128)">
<polygon fill="white" stroke="none" points="-4,4 -4,-128 184.25,-128 184.25,4 -4,4"/>
<g id="clust2" class="cluster">
<title>cluster_associated</title>
</g>
<!-- junction at grade -->
<g id="node1" class="node">
<title>junction at grade</title>
<g id="a_node1"><a xlink:href="../classes/itsVocabulary__junction at grade.md" xlink:title="&lt;TABLE&gt;">
<polygon fill="lightgray" stroke="none" points="1,-25.88 1,-42.12 91.5,-42.12 91.5,-25.88 1,-25.88"/>
<text xml:space="preserve" text-anchor="start" x="2" y="-29.73" font-family="Arial" font-size="12.00">junction at grade</text>
<polygon fill="none" stroke="black" points="0,-24.88 0,-43.12 92.5,-43.12 92.5,-24.88 0,-24.88"/>
</a>
</g>
</g>
<!-- junction -->
<g id="node2" class="node">
<title>junction</title>
<g id="a_node2"><a xlink:href="../junction/" xlink:title="&lt;TABLE&gt;" target="_top">
<polygon fill="lightgray" stroke="none" points="24.25,-97.88 24.25,-114.12 68.25,-114.12 68.25,-97.88 24.25,-97.88"/>
<text xml:space="preserve" text-anchor="start" x="25.25" y="-101.72" font-family="Arial" font-size="12.00">junction</text>
<polygon fill="none" stroke="black" points="23.25,-96.88 23.25,-115.12 69.25,-115.12 69.25,-96.88 23.25,-96.88"/>
</a>
</g>
</g>
<!-- junction at grade&#45;&gt;junction -->
<g id="edge1" class="edge">
<title>junction at grade&#45;&gt;junction</title>
<path fill="none" stroke="black" d="M46.25,-51.79C46.25,-59.25 46.25,-68.24 46.25,-76.69"/>
<polygon fill="none" stroke="black" points="42.75,-76.54 46.25,-86.54 49.75,-76.54 42.75,-76.54"/>
</g>
<!-- Invis -->
</g>
</svg>
