<?xml version="1.0" encoding="UTF-8" standalone="no"?>
<!DOCTYPE svg PUBLIC "-//W3C//DTD SVG 1.1//EN"
 "http://www.w3.org/Graphics/SVG/1.1/DTD/svg11.dtd">
<!-- Generated by graphviz version 14.0.2 (20251019.1705)
 -->
<!-- Pages: 1 -->
<svg width="242pt" height="175pt"
 viewBox="0.00 0.00 242.00 175.00" xmlns="http://www.w3.org/2000/svg" xmlns:xlink="http://www.w3.org/1999/xlink">
<g id="graph0" class="graph" transform="scale(1 1) rotate(0) translate(4 171)">
<polygon fill="white" stroke="none" points="-4,4 -4,-171 238.25,-171 238.25,4 -4,4"/>
<g id="clust2" class="cluster">
<title>cluster_associated</title>
</g>
<!-- jurisdictional area -->
<g id="node1" class="node">
<title>jurisdictional area</title>
<g id="a_node1"><a xlink:href="../classes/itsVocabulary__jurisdictional area.md" xlink:title="&lt;TABLE&gt;">
<polygon fill="lightgray" stroke="none" points="1,-124.88 1,-141.12 97.5,-141.12 97.5,-124.88 1,-124.88"/>
<text xml:space="preserve" text-anchor="start" x="2" y="-128.72" font-family="Arial" font-size="12.00">jurisdictional area</text>
<polygon fill="none" stroke="black" points="0,-123.88 0,-142.12 98.5,-142.12 98.5,-123.88 0,-123.88"/>
</a>
</g>
</g>
<!-- Invis -->
<!-- jurisdictional area&#45;&gt;Invis -->
<!-- jurisdictionalEntity -->
<g id="node3" class="node">
<title>jurisdictionalEntity</title>
<g id="a_node3"><a xlink:href="../jurisdictional entity/" xlink:title="&lt;TABLE&gt;" target="_top">
<polygon fill="lightgray" stroke="none" points="115.75,-25.88 115.75,-42.12 216.75,-42.12 216.75,-25.88 115.75,-25.88"/>
<text xml:space="preserve" text-anchor="start" x="116.75" y="-29.73" font-family="Arial" font-size="12.00">jurisdictional entity</text>
<polygon fill="none" stroke="black" points="114.75,-24.88 114.75,-43.12 217.75,-43.12 217.75,-24.88 114.75,-24.88"/>
</a>
</g>
</g>
<!-- jurisdictional area&#45;&gt;jurisdictionalEntity -->
<g id="edge3" class="edge">
<title>jurisdictional area&#45;&gt;jurisdictionalEntity</title>
<path fill="none" stroke="black" d="M54.13,-115.23C58.91,-101.45 67.43,-82.27 80.75,-70 87.7,-63.59 95.98,-58.28 104.62,-53.9"/>
<polygon fill="black" stroke="black" points="105.87,-57.18 113.48,-49.81 102.93,-50.82 105.87,-57.18"/>
<text xml:space="preserve" text-anchor="middle" x="120.5" y="-86.55" font-family="Arial" font-size="11.00"> rulesDefinedBy </text>
<text xml:space="preserve" text-anchor="middle" x="120.5" y="-73.05" font-family="Arial" font-size="11.00"> «some» &#160;</text>
</g>
<!-- Invis&#45;&gt;jurisdictionalEntity -->
</g>
</svg>
