<?xml version="1.0" encoding="UTF-8" standalone="no"?>
<!DOCTYPE svg PUBLIC "-//W3C//DTD SVG 1.1//EN"
 "http://www.w3.org/Graphics/SVG/1.1/DTD/svg11.dtd">
<!-- Generated by graphviz version 14.0.2 (20251019.1705)
 -->
<!-- Pages: 1 -->
<svg width="278pt" height="305pt"
 viewBox="0.00 0.00 278.00 305.00" xmlns="http://www.w3.org/2000/svg" xmlns:xlink="http://www.w3.org/1999/xlink">
<g id="graph0" class="graph" transform="scale(1 1) rotate(0) translate(4 301)">
<polygon fill="white" stroke="none" points="-4,4 -4,-301 274.31,-301 274.31,4 -4,4"/>
<g id="clust2" class="cluster">
<title>cluster_associated</title>
</g>
<!-- level 5 ADS -->
<g id="node1" class="node">
<title>level 5 ADS</title>
<g id="a_node1"><a xlink:href="../classes/itsVocabulary__level 5 ADS.md" xlink:title="&lt;TABLE&gt;">
<polygon fill="lightgray" stroke="none" points="179.12,-197.88 179.12,-214.12 244.88,-214.12 244.88,-197.88 179.12,-197.88"/>
<text xml:space="preserve" text-anchor="start" x="180.12" y="-201.72" font-family="Arial" font-size="12.00">level 5 ADS</text>
<polygon fill="none" stroke="black" points="178.12,-196.88 178.12,-215.12 245.88,-215.12 245.88,-196.88 178.12,-196.88"/>
</a>
</g>
</g>
<!-- ads -->
<g id="node2" class="node">
<title>ads</title>
<g id="a_node2"><a xlink:href="../ADS/" xlink:title="&lt;TABLE&gt;" target="_top">
<polygon fill="lightgray" stroke="none" points="198.25,-270.88 198.25,-287.12 225.75,-287.12 225.75,-270.88 198.25,-270.88"/>
<text xml:space="preserve" text-anchor="start" x="199.25" y="-274.73" font-family="Arial" font-size="12.00">ADS</text>
<polygon fill="none" stroke="black" points="197.25,-269.88 197.25,-288.12 226.75,-288.12 226.75,-269.88 197.25,-269.88"/>
</a>
</g>
</g>
<!-- level 5 ADS&#45;&gt;ads -->
<g id="edge1" class="edge">
<title>level 5 ADS&#45;&gt;ads</title>
<path fill="none" stroke="black" d="M212,-223.71C212,-231.47 212,-240.92 212,-249.74"/>
<polygon fill="none" stroke="black" points="208.5,-249.66 212,-259.66 215.5,-249.66 208.5,-249.66"/>
</g>
<!-- Invis -->
<!-- level 5 ADS&#45;&gt;Invis -->
<!-- fallback -->
<g id="node4" class="node">
<title>fallback</title>
<g id="a_node4"><a xlink:href="../fallback/" xlink:title="&lt;TABLE&gt;" target="_top">
<polygon fill="lightgray" stroke="none" points="71.38,-98.88 71.38,-115.12 114.62,-115.12 114.62,-98.88 71.38,-98.88"/>
<text xml:space="preserve" text-anchor="start" x="72.38" y="-102.72" font-family="Arial" font-size="12.00">fallback</text>
<polygon fill="none" stroke="black" points="70.38,-97.88 70.38,-116.12 115.62,-116.12 115.62,-97.88 70.38,-97.88"/>
</a>
</g>
</g>
<!-- level 5 ADS&#45;&gt;fallback -->
<g id="edge6" class="edge">
<title>level 5 ADS&#45;&gt;fallback</title>
<path fill="none" stroke="black" d="M178.52,-189.78C177,-189.16 175.49,-188.57 174,-188 149.48,-178.63 136.95,-187.9 117.75,-170 108.11,-161.02 102.16,-147.79 98.51,-135.85"/>
<polygon fill="black" stroke="black" points="101.97,-135.25 96.06,-126.45 95.19,-137.01 101.97,-135.25"/>
<text xml:space="preserve" text-anchor="middle" x="157.88" y="-159.55" font-family="Arial" font-size="11.00"> providesItsOwn </text>
<text xml:space="preserve" text-anchor="middle" x="157.88" y="-146.05" font-family="Arial" font-size="11.00"> «some» &#160;</text>
</g>
<!-- operationalDesignDomain -->
<g id="node5" class="node">
<title>operationalDesignDomain</title>
<g id="a_node5"><a xlink:href="../operational design domain/" xlink:title="&lt;TABLE&gt;" target="_top">
<polygon fill="lightgray" stroke="none" points="17.12,-25.88 17.12,-42.12 160.88,-42.12 160.88,-25.88 17.12,-25.88"/>
<text xml:space="preserve" text-anchor="start" x="18.12" y="-29.73" font-family="Arial" font-size="12.00">operational design domain</text>
<polygon fill="none" stroke="black" points="16.12,-24.88 16.12,-43.12 161.88,-43.12 161.88,-24.88 16.12,-24.88"/>
</a>
</g>
</g>
<!-- level 5 ADS&#45;&gt;operationalDesignDomain -->
<g id="edge5" class="edge">
<title>level 5 ADS&#45;&gt;operationalDesignDomain</title>
<path fill="none" stroke="black" d="M210.76,-188.03C209.22,-175.03 205.76,-157 198,-143 179.11,-108.91 146.21,-78.51 121.48,-58.72"/>
<polygon fill="black" stroke="black" points="123.68,-55.99 113.64,-52.6 119.37,-61.51 123.68,-55.99"/>
<text xml:space="preserve" text-anchor="middle" x="227.93" y="-110.05" font-family="Arial" font-size="11.00"> operatesWithinA </text>
<text xml:space="preserve" text-anchor="middle" x="227.93" y="-96.55" font-family="Arial" font-size="11.00"> «some» &#160;</text>
</g>
<!-- Invis&#45;&gt;fallback -->
<!-- fallback&#45;&gt;operationalDesignDomain -->
</g>
</svg>
