<?xml version="1.0" encoding="UTF-8" standalone="no"?>
<!DOCTYPE svg PUBLIC "-//W3C//DTD SVG 1.1//EN"
 "http://www.w3.org/Graphics/SVG/1.1/DTD/svg11.dtd">
<!-- Generated by graphviz version 14.0.2 (20251019.1705)
 -->
<!-- Pages: 1 -->
<svg width="205pt" height="132pt"
 viewBox="0.00 0.00 205.00 132.00" xmlns="http://www.w3.org/2000/svg" xmlns:xlink="http://www.w3.org/1999/xlink">
<g id="graph0" class="graph" transform="scale(1 1) rotate(0) translate(4 128)">
<polygon fill="white" stroke="none" points="-4,4 -4,-128 200.75,-128 200.75,4 -4,4"/>
<g id="clust2" class="cluster">
<title>cluster_associated</title>
</g>
<!-- link location -->
<g id="node1" class="node">
<title>link location</title>
<g id="a_node1"><a xlink:href="../classes/itsVocabulary__link location.md" xlink:title="&lt;TABLE&gt;">
<polygon fill="lightgray" stroke="none" points="41.88,-25.88 41.88,-42.12 107.62,-42.12 107.62,-25.88 41.88,-25.88"/>
<text xml:space="preserve" text-anchor="start" x="42.88" y="-29.73" font-family="Arial" font-size="12.00">link location</text>
<polygon fill="none" stroke="black" points="40.88,-24.88 40.88,-43.12 108.62,-43.12 108.62,-24.88 40.88,-24.88"/>
</a>
</g>
</g>
<!-- pre&#45;codedSpatialReference -->
<g id="node2" class="node">
<title>pre&#45;codedSpatialReference</title>
<g id="a_node2"><a xlink:href="../pre-coded spatial reference/" xlink:title="&lt;TABLE&gt;" target="_top">
<polygon fill="lightgray" stroke="none" points="1,-97.88 1,-114.12 148.5,-114.12 148.5,-97.88 1,-97.88"/>
<text xml:space="preserve" text-anchor="start" x="2" y="-101.72" font-family="Arial" font-size="12.00">pre&#45;coded spatial reference</text>
<polygon fill="none" stroke="black" points="0,-96.88 0,-115.12 149.5,-115.12 149.5,-96.88 0,-96.88"/>
</a>
</g>
</g>
<!-- link location&#45;&gt;pre&#45;codedSpatialReference -->
<g id="edge1" class="edge">
<title>link location&#45;&gt;pre&#45;codedSpatialReference</title>
<path fill="none" stroke="black" d="M74.75,-51.79C74.75,-59.25 74.75,-68.24 74.75,-76.69"/>
<polygon fill="none" stroke="black" points="71.25,-76.54 74.75,-86.54 78.25,-76.54 71.25,-76.54"/>
</g>
<!-- Invis -->
</g>
</svg>
