<?xml version="1.0" encoding="UTF-8" standalone="no"?>
<!DOCTYPE svg PUBLIC "-//W3C//DTD SVG 1.1//EN"
 "http://www.w3.org/Graphics/SVG/1.1/DTD/svg11.dtd">
<!-- Generated by graphviz version 14.0.2 (20251019.1705)
 -->
<!-- Pages: 1 -->
<svg width="242pt" height="175pt"
 viewBox="0.00 0.00 242.00 175.00" xmlns="http://www.w3.org/2000/svg" xmlns:xlink="http://www.w3.org/1999/xlink">
<g id="graph0" class="graph" transform="scale(1 1) rotate(0) translate(4 171)">
<polygon fill="white" stroke="none" points="-4,4 -4,-171 237.5,-171 237.5,4 -4,4"/>
<g id="clust2" class="cluster">
<title>cluster_associated</title>
</g>
<!-- location referencing -->
<g id="node1" class="node">
<title>location referencing</title>
<g id="a_node1"><a xlink:href="../classes/itsVocabulary__location referencing.md" xlink:title="&lt;TABLE&gt;">
<polygon fill="lightgray" stroke="none" points="1,-124.88 1,-141.12 108,-141.12 108,-124.88 1,-124.88"/>
<text xml:space="preserve" text-anchor="start" x="2" y="-128.72" font-family="Arial" font-size="12.00">location referencing</text>
<polygon fill="none" stroke="black" points="0,-123.88 0,-142.12 109,-142.12 109,-123.88 0,-123.88"/>
</a>
</g>
</g>
<!-- Invis -->
<!-- location referencing&#45;&gt;Invis -->
<!-- spatialReference -->
<g id="node3" class="node">
<title>spatialReference</title>
<g id="a_node3"><a xlink:href="../spatial reference/" xlink:title="&lt;TABLE&gt;" target="_top">
<polygon fill="lightgray" stroke="none" points="126.25,-25.88 126.25,-42.12 216.75,-42.12 216.75,-25.88 126.25,-25.88"/>
<text xml:space="preserve" text-anchor="start" x="127.25" y="-29.73" font-family="Arial" font-size="12.00">spatial reference</text>
<polygon fill="none" stroke="black" points="125.25,-24.88 125.25,-43.12 217.75,-43.12 217.75,-24.88 125.25,-24.88"/>
</a>
</g>
</g>
<!-- location referencing&#45;&gt;spatialReference -->
<g id="edge3" class="edge">
<title>location referencing&#45;&gt;spatialReference</title>
<path fill="none" stroke="black" d="M55.42,-115.2C57.04,-101.4 61.4,-82.22 73,-70 84.06,-58.35 99.25,-50.58 114.39,-45.38"/>
<polygon fill="black" stroke="black" points="115.35,-48.75 123.9,-42.49 113.31,-42.05 115.35,-48.75"/>
<text xml:space="preserve" text-anchor="middle" x="120.25" y="-86.55" font-family="Arial" font-size="11.00"> processToDevelop </text>
<text xml:space="preserve" text-anchor="middle" x="120.25" y="-73.05" font-family="Arial" font-size="11.00"> «some» &#160;</text>
</g>
<!-- Invis&#45;&gt;spatialReference -->
</g>
</svg>
