<?xml version="1.0" encoding="UTF-8" standalone="no"?>
<!DOCTYPE svg PUBLIC "-//W3C//DTD SVG 1.1//EN"
 "http://www.w3.org/Graphics/SVG/1.1/DTD/svg11.dtd">
<!-- Generated by graphviz version 14.0.2 (20251019.1705)
 -->
<!-- Pages: 1 -->
<svg width="174pt" height="132pt"
 viewBox="0.00 0.00 174.00 132.00" xmlns="http://www.w3.org/2000/svg" xmlns:xlink="http://www.w3.org/1999/xlink">
<g id="graph0" class="graph" transform="scale(1 1) rotate(0) translate(4 128)">
<polygon fill="white" stroke="none" points="-4,4 -4,-128 170.12,-128 170.12,4 -4,4"/>
<g id="clust2" class="cluster">
<title>cluster_associated</title>
</g>
<!-- material entity -->
<g id="node1" class="node">
<title>material entity</title>
<g id="a_node1"><a xlink:href="../classes/itsVocabulary__material entity.md" xlink:title="&lt;TABLE&gt;">
<polygon fill="lightgray" stroke="none" points="1,-25.88 1,-42.12 77.25,-42.12 77.25,-25.88 1,-25.88"/>
<text xml:space="preserve" text-anchor="start" x="2" y="-29.73" font-family="Arial" font-size="12.00">material entity</text>
<polygon fill="none" stroke="black" points="0,-24.88 0,-43.12 78.25,-43.12 78.25,-24.88 0,-24.88"/>
</a>
</g>
</g>
<!-- entity -->
<g id="node2" class="node">
<title>entity</title>
<g id="a_node2"><a xlink:href="../entity/" xlink:title="&lt;TABLE&gt;" target="_top">
<polygon fill="lightgray" stroke="none" points="23.88,-97.88 23.88,-114.12 54.38,-114.12 54.38,-97.88 23.88,-97.88"/>
<text xml:space="preserve" text-anchor="start" x="24.88" y="-101.72" font-family="Arial" font-size="12.00">entity</text>
<polygon fill="none" stroke="black" points="22.88,-96.88 22.88,-115.12 55.38,-115.12 55.38,-96.88 22.88,-96.88"/>
</a>
</g>
</g>
<!-- material entity&#45;&gt;entity -->
<g id="edge1" class="edge">
<title>material entity&#45;&gt;entity</title>
<path fill="none" stroke="black" d="M39.12,-51.79C39.12,-59.25 39.12,-68.24 39.12,-76.69"/>
<polygon fill="none" stroke="black" points="35.63,-76.54 39.13,-86.54 42.63,-76.54 35.63,-76.54"/>
</g>
<!-- Invis -->
</g>
</svg>
