<?xml version="1.0" encoding="UTF-8" standalone="no"?>
<!DOCTYPE svg PUBLIC "-//W3C//DTD SVG 1.1//EN"
 "http://www.w3.org/Graphics/SVG/1.1/DTD/svg11.dtd">
<!-- Generated by graphviz version 14.0.2 (20251019.1705)
 -->
<!-- Pages: 1 -->
<svg width="177pt" height="305pt"
 viewBox="0.00 0.00 177.00 305.00" xmlns="http://www.w3.org/2000/svg" xmlns:xlink="http://www.w3.org/1999/xlink">
<g id="graph0" class="graph" transform="scale(1 1) rotate(0) translate(4 301)">
<polygon fill="white" stroke="none" points="-4,4 -4,-301 173.12,-301 173.12,4 -4,4"/>
<g id="clust2" class="cluster">
<title>cluster_associated</title>
</g>
<!-- message -->
<g id="node1" class="node">
<title>message</title>
<g id="a_node1"><a xlink:href="../classes/itsVocabulary__message.md" xlink:title="&lt;TABLE&gt;">
<polygon fill="lightgray" stroke="none" points="107.62,-197.88 107.62,-214.12 158.38,-214.12 158.38,-197.88 107.62,-197.88"/>
<text xml:space="preserve" text-anchor="start" x="108.62" y="-201.72" font-family="Arial" font-size="12.00">message</text>
<polygon fill="none" stroke="black" points="106.62,-196.88 106.62,-215.12 159.38,-215.12 159.38,-196.88 106.62,-196.88"/>
</a>
</g>
</g>
<!-- dataConcept -->
<g id="node2" class="node">
<title>dataConcept</title>
<g id="a_node2"><a xlink:href="../data concept/" xlink:title="&lt;TABLE&gt;" target="_top">
<polygon fill="lightgray" stroke="none" points="97.88,-270.88 97.88,-287.12 168.12,-287.12 168.12,-270.88 97.88,-270.88"/>
<text xml:space="preserve" text-anchor="start" x="98.88" y="-274.73" font-family="Arial" font-size="12.00">data concept</text>
<polygon fill="none" stroke="black" points="96.88,-269.88 96.88,-288.12 169.12,-288.12 169.12,-269.88 96.88,-269.88"/>
</a>
</g>
</g>
<!-- message&#45;&gt;dataConcept -->
<g id="edge1" class="edge">
<title>message&#45;&gt;dataConcept</title>
<path fill="none" stroke="black" d="M133,-223.71C133,-231.47 133,-240.92 133,-249.74"/>
<polygon fill="none" stroke="black" points="129.5,-249.66 133,-259.66 136.5,-249.66 129.5,-249.66"/>
</g>
<!-- Invis -->
<!-- message&#45;&gt;Invis -->
<!-- dataElement -->
<g id="node4" class="node">
<title>dataElement</title>
<g id="a_node4"><a xlink:href="../data element/" xlink:title="&lt;TABLE&gt;" target="_top">
<polygon fill="lightgray" stroke="none" points="17.5,-98.88 17.5,-115.12 88.5,-115.12 88.5,-98.88 17.5,-98.88"/>
<text xml:space="preserve" text-anchor="start" x="18.5" y="-102.72" font-family="Arial" font-size="12.00">data element</text>
<polygon fill="none" stroke="black" points="16.5,-97.88 16.5,-116.12 89.5,-116.12 89.5,-97.88 16.5,-97.88"/>
</a>
</g>
</g>
<!-- message&#45;&gt;dataElement -->
<g id="edge6" class="edge">
<title>message&#45;&gt;dataElement</title>
<path fill="none" stroke="black" d="M106.3,-190.28C89.71,-181.09 71.42,-170.85 70.75,-170 63.13,-160.35 58.78,-147.57 56.29,-136.12"/>
<polygon fill="black" stroke="black" points="59.76,-135.59 54.59,-126.34 52.86,-136.8 59.76,-135.59"/>
<text xml:space="preserve" text-anchor="middle" x="94.38" y="-159.55" font-family="Arial" font-size="11.00"> contains </text>
<text xml:space="preserve" text-anchor="middle" x="94.38" y="-146.05" font-family="Arial" font-size="11.00"> «min 0» &#160;</text>
</g>
<!-- dataFrame -->
<g id="node5" class="node">
<title>dataFrame</title>
<g id="a_node5"><a xlink:href="../data frame/" xlink:title="&lt;TABLE&gt;" target="_top">
<polygon fill="lightgray" stroke="none" points="27.88,-25.88 27.88,-42.12 86.12,-42.12 86.12,-25.88 27.88,-25.88"/>
<text xml:space="preserve" text-anchor="start" x="28.88" y="-29.73" font-family="Arial" font-size="12.00">data frame</text>
<polygon fill="none" stroke="black" points="26.88,-24.88 26.88,-43.12 87.12,-43.12 87.12,-24.88 26.88,-24.88"/>
</a>
</g>
</g>
<!-- message&#45;&gt;dataFrame -->
<g id="edge5" class="edge">
<title>message&#45;&gt;dataFrame</title>
<path fill="none" stroke="black" d="M130.44,-188.39C126.34,-165.06 116.9,-121.79 99,-89 93.65,-79.2 86.57,-69.32 79.74,-60.73"/>
<polygon fill="black" stroke="black" points="82.56,-58.65 73.5,-53.16 77.16,-63.1 82.56,-58.65"/>
<text xml:space="preserve" text-anchor="middle" x="137.91" y="-110.05" font-family="Arial" font-size="11.00"> contains </text>
<text xml:space="preserve" text-anchor="middle" x="137.91" y="-96.55" font-family="Arial" font-size="11.00"> «min 0» &#160;</text>
</g>
<!-- Invis&#45;&gt;dataElement -->
<!-- dataElement&#45;&gt;dataFrame -->
</g>
</svg>
