<?xml version="1.0" encoding="UTF-8" standalone="no"?>
<!DOCTYPE svg PUBLIC "-//W3C//DTD SVG 1.1//EN"
 "http://www.w3.org/Graphics/SVG/1.1/DTD/svg11.dtd">
<!-- Generated by graphviz version 14.0.2 (20251019.1705)
 -->
<!-- Pages: 1 -->
<svg width="228pt" height="132pt"
 viewBox="0.00 0.00 228.00 132.00" xmlns="http://www.w3.org/2000/svg" xmlns:xlink="http://www.w3.org/1999/xlink">
<g id="graph0" class="graph" transform="scale(1 1) rotate(0) translate(4 128)">
<polygon fill="white" stroke="none" points="-4,4 -4,-128 223.75,-128 223.75,4 -4,4"/>
<g id="clust2" class="cluster">
<title>cluster_associated</title>
</g>
<!-- moderate vehicle speed -->
<g id="node1" class="node">
<title>moderate vehicle speed</title>
<g id="a_node1"><a xlink:href="../classes/itsVocabulary__moderate vehicle speed.md" xlink:title="&lt;TABLE&gt;">
<polygon fill="lightgray" stroke="none" points="1,-25.88 1,-42.12 130.5,-42.12 130.5,-25.88 1,-25.88"/>
<text xml:space="preserve" text-anchor="start" x="2" y="-29.73" font-family="Arial" font-size="12.00">moderate vehicle speed</text>
<polygon fill="none" stroke="black" points="0,-24.88 0,-43.12 131.5,-43.12 131.5,-24.88 0,-24.88"/>
</a>
</g>
</g>
<!-- speed -->
<g id="node2" class="node">
<title>speed</title>
<g id="a_node2"><a xlink:href="../speed/" xlink:title="&lt;TABLE&gt;" target="_top">
<polygon fill="lightgray" stroke="none" points="48.25,-97.88 48.25,-114.12 83.25,-114.12 83.25,-97.88 48.25,-97.88"/>
<text xml:space="preserve" text-anchor="start" x="49.25" y="-101.72" font-family="Arial" font-size="12.00">speed</text>
<polygon fill="none" stroke="black" points="47.25,-96.88 47.25,-115.12 84.25,-115.12 84.25,-96.88 47.25,-96.88"/>
</a>
</g>
</g>
<!-- moderate vehicle speed&#45;&gt;speed -->
<g id="edge1" class="edge">
<title>moderate vehicle speed&#45;&gt;speed</title>
<path fill="none" stroke="black" d="M65.75,-51.79C65.75,-59.25 65.75,-68.24 65.75,-76.69"/>
<polygon fill="none" stroke="black" points="62.25,-76.54 65.75,-86.54 69.25,-76.54 62.25,-76.54"/>
</g>
<!-- Invis -->
</g>
</svg>
