<?xml version="1.0" encoding="UTF-8" standalone="no"?>
<!DOCTYPE svg PUBLIC "-//W3C//DTD SVG 1.1//EN"
 "http://www.w3.org/Graphics/SVG/1.1/DTD/svg11.dtd">
<!-- Generated by graphviz version 14.0.2 (20251019.1705)
 -->
<!-- Pages: 1 -->
<svg width="204pt" height="175pt"
 viewBox="0.00 0.00 204.00 175.00" xmlns="http://www.w3.org/2000/svg" xmlns:xlink="http://www.w3.org/1999/xlink">
<g id="graph0" class="graph" transform="scale(1 1) rotate(0) translate(4 171)">
<polygon fill="white" stroke="none" points="-4,4 -4,-171 200.25,-171 200.25,4 -4,4"/>
<g id="clust2" class="cluster">
<title>cluster_associated</title>
</g>
<!-- model kind -->
<g id="node1" class="node">
<title>model kind</title>
<g id="a_node1"><a xlink:href="../classes/itsVocabulary__model kind.md" xlink:title="&lt;TABLE&gt;">
<polygon fill="lightgray" stroke="none" points="1,-124.88 1,-141.12 61.5,-141.12 61.5,-124.88 1,-124.88"/>
<text xml:space="preserve" text-anchor="start" x="2" y="-128.72" font-family="Arial" font-size="12.00">model kind</text>
<polygon fill="none" stroke="black" points="0,-123.88 0,-142.12 62.5,-142.12 62.5,-123.88 0,-123.88"/>
</a>
</g>
</g>
<!-- Invis -->
<!-- model kind&#45;&gt;Invis -->
<!-- architectureModel -->
<g id="node3" class="node">
<title>architectureModel</title>
<g id="a_node3"><a xlink:href="../architecture model/" xlink:title="&lt;TABLE&gt;" target="_top">
<polygon fill="lightgray" stroke="none" points="79.12,-25.88 79.12,-42.12 179.38,-42.12 179.38,-25.88 79.12,-25.88"/>
<text xml:space="preserve" text-anchor="start" x="80.12" y="-29.73" font-family="Arial" font-size="12.00">architecture model</text>
<polygon fill="none" stroke="black" points="78.12,-24.88 78.12,-43.12 180.38,-43.12 180.38,-24.88 78.12,-24.88"/>
</a>
</g>
</g>
<!-- model kind&#45;&gt;architectureModel -->
<g id="edge3" class="edge">
<title>model kind&#45;&gt;architectureModel</title>
<path fill="none" stroke="black" d="M41.34,-115.24C49.81,-102.01 62.78,-83.58 77,-70 81.23,-65.96 85.99,-62.07 90.85,-58.45"/>
<polygon fill="black" stroke="black" points="92.84,-61.34 99.01,-52.73 88.82,-55.61 92.84,-61.34"/>
<text xml:space="preserve" text-anchor="middle" x="100.62" y="-86.55" font-family="Arial" font-size="11.00"> governs </text>
<text xml:space="preserve" text-anchor="middle" x="100.62" y="-73.05" font-family="Arial" font-size="11.00"> «some» &#160;</text>
</g>
<!-- Invis&#45;&gt;architectureModel -->
</g>
</svg>
