<?xml version="1.0" encoding="UTF-8" standalone="no"?>
<!DOCTYPE svg PUBLIC "-//W3C//DTD SVG 1.1//EN"
 "http://www.w3.org/Graphics/SVG/1.1/DTD/svg11.dtd">
<!-- Generated by graphviz version 14.0.2 (20251019.1705)
 -->
<!-- Pages: 1 -->
<svg width="182pt" height="132pt"
 viewBox="0.00 0.00 182.00 132.00" xmlns="http://www.w3.org/2000/svg" xmlns:xlink="http://www.w3.org/1999/xlink">
<g id="graph0" class="graph" transform="scale(1 1) rotate(0) translate(4 128)">
<polygon fill="white" stroke="none" points="-4,4 -4,-128 178.25,-128 178.25,4 -4,4"/>
<g id="clust2" class="cluster">
<title>cluster_associated</title>
</g>
<!-- movable bridge -->
<g id="node1" class="node">
<title>movable bridge</title>
<g id="a_node1"><a xlink:href="../classes/itsVocabulary__movable bridge.md" xlink:title="&lt;TABLE&gt;">
<polygon fill="lightgray" stroke="none" points="1,-25.88 1,-42.12 85.5,-42.12 85.5,-25.88 1,-25.88"/>
<text xml:space="preserve" text-anchor="start" x="2" y="-29.73" font-family="Arial" font-size="12.00">movable bridge</text>
<polygon fill="none" stroke="black" points="0,-24.88 0,-43.12 86.5,-43.12 86.5,-24.88 0,-24.88"/>
</a>
</g>
</g>
<!-- bridge -->
<g id="node2" class="node">
<title>bridge</title>
<g id="a_node2"><a xlink:href="../bridge/" xlink:title="&lt;TABLE&gt;" target="_top">
<polygon fill="lightgray" stroke="none" points="25.38,-97.88 25.38,-114.12 61.12,-114.12 61.12,-97.88 25.38,-97.88"/>
<text xml:space="preserve" text-anchor="start" x="26.38" y="-101.72" font-family="Arial" font-size="12.00">bridge</text>
<polygon fill="none" stroke="black" points="24.38,-96.88 24.38,-115.12 62.12,-115.12 62.12,-96.88 24.38,-96.88"/>
</a>
</g>
</g>
<!-- movable bridge&#45;&gt;bridge -->
<g id="edge1" class="edge">
<title>movable bridge&#45;&gt;bridge</title>
<path fill="none" stroke="black" d="M43.25,-51.79C43.25,-59.25 43.25,-68.24 43.25,-76.69"/>
<polygon fill="none" stroke="black" points="39.75,-76.54 43.25,-86.54 46.75,-76.54 39.75,-76.54"/>
</g>
<!-- Invis -->
</g>
</svg>
