<?xml version="1.0" encoding="UTF-8" standalone="no"?>
<!DOCTYPE svg PUBLIC "-//W3C//DTD SVG 1.1//EN"
 "http://www.w3.org/Graphics/SVG/1.1/DTD/svg11.dtd">
<!-- Generated by graphviz version 14.0.2 (20251019.1705)
 -->
<!-- Pages: 1 -->
<svg width="288pt" height="305pt"
 viewBox="0.00 0.00 288.00 305.00" xmlns="http://www.w3.org/2000/svg" xmlns:xlink="http://www.w3.org/1999/xlink">
<g id="graph0" class="graph" transform="scale(1 1) rotate(0) translate(4 301)">
<polygon fill="white" stroke="none" points="-4,4 -4,-301 284.12,-301 284.12,4 -4,4"/>
<g id="clust2" class="cluster">
<title>cluster_associated</title>
</g>
<!-- multiple carriageway -->
<g id="node1" class="node">
<title>multiple carriageway</title>
<g id="a_node1"><a xlink:href="../classes/itsVocabulary__multiple carriageway.md" xlink:title="&lt;TABLE&gt;">
<polygon fill="lightgray" stroke="none" points="166.88,-197.88 166.88,-214.12 279.12,-214.12 279.12,-197.88 166.88,-197.88"/>
<text xml:space="preserve" text-anchor="start" x="167.88" y="-201.72" font-family="Arial" font-size="12.00">multiple carriageway</text>
<polygon fill="none" stroke="black" points="165.88,-196.88 165.88,-215.12 280.12,-215.12 280.12,-196.88 165.88,-196.88"/>
</a>
</g>
</g>
<!-- roadway -->
<g id="node2" class="node">
<title>roadway</title>
<g id="a_node2"><a xlink:href="../roadway/" xlink:title="&lt;TABLE&gt;" target="_top">
<polygon fill="lightgray" stroke="none" points="199.12,-270.88 199.12,-287.12 246.88,-287.12 246.88,-270.88 199.12,-270.88"/>
<text xml:space="preserve" text-anchor="start" x="200.12" y="-274.73" font-family="Arial" font-size="12.00">roadway</text>
<polygon fill="none" stroke="black" points="198.12,-269.88 198.12,-288.12 247.88,-288.12 247.88,-269.88 198.12,-269.88"/>
</a>
</g>
</g>
<!-- multiple carriageway&#45;&gt;roadway -->
<g id="edge1" class="edge">
<title>multiple carriageway&#45;&gt;roadway</title>
<path fill="none" stroke="black" d="M223,-223.71C223,-231.47 223,-240.92 223,-249.74"/>
<polygon fill="none" stroke="black" points="219.5,-249.66 223,-259.66 226.5,-249.66 219.5,-249.66"/>
</g>
<!-- Invis -->
<!-- multiple carriageway&#45;&gt;Invis -->
<!-- carriageway -->
<g id="node4" class="node">
<title>carriageway</title>
<g id="a_node4"><a xlink:href="../carriageway/" xlink:title="&lt;TABLE&gt;" target="_top">
<polygon fill="lightgray" stroke="none" points="49.38,-98.88 49.38,-115.12 116.62,-115.12 116.62,-98.88 49.38,-98.88"/>
<text xml:space="preserve" text-anchor="start" x="50.38" y="-102.72" font-family="Arial" font-size="12.00">carriageway</text>
<polygon fill="none" stroke="black" points="48.38,-97.88 48.38,-116.12 117.62,-116.12 117.62,-97.88 48.38,-97.88"/>
</a>
</g>
</g>
<!-- multiple carriageway&#45;&gt;carriageway -->
<g id="edge5" class="edge">
<title>multiple carriageway&#45;&gt;carriageway</title>
<path fill="none" stroke="black" stroke-dasharray="5,2" d="M166.02,-188.97C134.55,-180.07 101.65,-170.65 101,-170 92.07,-161.1 87.51,-148.05 85.21,-136.21"/>
<polygon fill="black" stroke="black" points="88.7,-135.87 83.8,-126.48 81.77,-136.88 88.7,-135.87"/>
<text xml:space="preserve" text-anchor="middle" x="158" y="-159.55" font-family="Arial" font-size="11.00"> onProperty: comprises </text>
<text xml:space="preserve" text-anchor="middle" x="158" y="-146.05" font-family="Arial" font-size="11.00"> «min 3» &#160;</text>
</g>
<!-- physicalTrafficSeparator -->
<g id="node5" class="node">
<title>physicalTrafficSeparator</title>
<g id="a_node5"><a xlink:href="../physical traffic separator/" xlink:title="&lt;TABLE&gt;" target="_top">
<polygon fill="lightgray" stroke="none" points="17.5,-25.88 17.5,-42.12 148.5,-42.12 148.5,-25.88 17.5,-25.88"/>
<text xml:space="preserve" text-anchor="start" x="18.5" y="-29.73" font-family="Arial" font-size="12.00">physical traffic separator</text>
<polygon fill="none" stroke="black" points="16.5,-24.88 16.5,-43.12 149.5,-43.12 149.5,-24.88 16.5,-24.88"/>
</a>
</g>
</g>
<!-- multiple carriageway&#45;&gt;physicalTrafficSeparator -->
<g id="edge6" class="edge">
<title>multiple carriageway&#45;&gt;physicalTrafficSeparator</title>
<path fill="none" stroke="black" d="M224.1,-188.17C224.21,-175.07 222.69,-156.85 215,-143 194.32,-105.74 155.17,-76.24 124.86,-57.55"/>
<polygon fill="black" stroke="black" points="127.04,-54.78 116.66,-52.64 123.44,-60.78 127.04,-54.78"/>
<text xml:space="preserve" text-anchor="middle" x="225.99" y="-110.05" font-family="Arial" font-size="11.00"> has </text>
<text xml:space="preserve" text-anchor="middle" x="225.99" y="-96.55" font-family="Arial" font-size="11.00"> «min 2» &#160;</text>
</g>
<!-- Invis&#45;&gt;carriageway -->
<!-- carriageway&#45;&gt;physicalTrafficSeparator -->
</g>
</svg>
