<?xml version="1.0" encoding="UTF-8" standalone="no"?>
<!DOCTYPE svg PUBLIC "-//W3C//DTD SVG 1.1//EN"
 "http://www.w3.org/Graphics/SVG/1.1/DTD/svg11.dtd">
<!-- Generated by graphviz version 14.0.2 (20251019.1705)
 -->
<!-- Pages: 1 -->
<svg width="178pt" height="132pt"
 viewBox="0.00 0.00 178.00 132.00" xmlns="http://www.w3.org/2000/svg" xmlns:xlink="http://www.w3.org/1999/xlink">
<g id="graph0" class="graph" transform="scale(1 1) rotate(0) translate(4 128)">
<polygon fill="white" stroke="none" points="-4,4 -4,-128 174.38,-128 174.38,4 -4,4"/>
<g id="clust2" class="cluster">
<title>cluster_associated</title>
</g>
<!-- navigation app -->
<g id="node1" class="node">
<title>navigation app</title>
<g id="a_node1"><a xlink:href="../classes/itsVocabulary__navigation app.md" xlink:title="&lt;TABLE&gt;">
<polygon fill="lightgray" stroke="none" points="1,-25.88 1,-42.12 81.75,-42.12 81.75,-25.88 1,-25.88"/>
<text xml:space="preserve" text-anchor="start" x="2" y="-29.73" font-family="Arial" font-size="12.00">navigation app</text>
<polygon fill="none" stroke="black" points="0,-24.88 0,-43.12 82.75,-43.12 82.75,-24.88 0,-24.88"/>
</a>
</g>
</g>
<!-- mobilityApp -->
<g id="node2" class="node">
<title>mobilityApp</title>
<g id="a_node2"><a xlink:href="../mobility app/" xlink:title="&lt;TABLE&gt;" target="_top">
<polygon fill="lightgray" stroke="none" points="8.12,-97.88 8.12,-114.12 74.62,-114.12 74.62,-97.88 8.12,-97.88"/>
<text xml:space="preserve" text-anchor="start" x="9.12" y="-101.72" font-family="Arial" font-size="12.00">mobility app</text>
<polygon fill="none" stroke="black" points="7.12,-96.88 7.12,-115.12 75.62,-115.12 75.62,-96.88 7.12,-96.88"/>
</a>
</g>
</g>
<!-- navigation app&#45;&gt;mobilityApp -->
<g id="edge1" class="edge">
<title>navigation app&#45;&gt;mobilityApp</title>
<path fill="none" stroke="black" d="M41.38,-51.79C41.38,-59.25 41.38,-68.24 41.38,-76.69"/>
<polygon fill="none" stroke="black" points="37.88,-76.54 41.38,-86.54 44.88,-76.54 37.88,-76.54"/>
</g>
<!-- Invis -->
</g>
</svg>
