<?xml version="1.0" encoding="UTF-8" standalone="no"?>
<!DOCTYPE svg PUBLIC "-//W3C//DTD SVG 1.1//EN"
 "http://www.w3.org/Graphics/SVG/1.1/DTD/svg11.dtd">
<!-- Generated by graphviz version 14.0.2 (20251019.1705)
 -->
<!-- Pages: 1 -->
<svg width="226pt" height="132pt"
 viewBox="0.00 0.00 226.00 132.00" xmlns="http://www.w3.org/2000/svg" xmlns:xlink="http://www.w3.org/1999/xlink">
<g id="graph0" class="graph" transform="scale(1 1) rotate(0) translate(4 128)">
<polygon fill="white" stroke="none" points="-4,4 -4,-128 221.62,-128 221.62,4 -4,4"/>
<g id="clust2" class="cluster">
<title>cluster_associated</title>
</g>
<!-- nomadic vehicle device -->
<g id="node1" class="node">
<title>nomadic vehicle device</title>
<g id="a_node1"><a xlink:href="../classes/itsVocabulary__nomadic vehicle device.md" xlink:title="&lt;TABLE&gt;">
<polygon fill="lightgray" stroke="none" points="1,-25.88 1,-42.12 128.25,-42.12 128.25,-25.88 1,-25.88"/>
<text xml:space="preserve" text-anchor="start" x="2" y="-29.73" font-family="Arial" font-size="12.00">nomadic vehicle device</text>
<polygon fill="none" stroke="black" points="0,-24.88 0,-43.12 129.25,-43.12 129.25,-24.88 0,-24.88"/>
</a>
</g>
</g>
<!-- personalSystem -->
<g id="node2" class="node">
<title>personalSystem</title>
<g id="a_node2"><a xlink:href="../personal system/" xlink:title="&lt;TABLE&gt;" target="_top">
<polygon fill="lightgray" stroke="none" points="20.12,-97.88 20.12,-114.12 109.12,-114.12 109.12,-97.88 20.12,-97.88"/>
<text xml:space="preserve" text-anchor="start" x="21.12" y="-101.72" font-family="Arial" font-size="12.00">personal system</text>
<polygon fill="none" stroke="black" points="19.12,-96.88 19.12,-115.12 110.12,-115.12 110.12,-96.88 19.12,-96.88"/>
</a>
</g>
</g>
<!-- nomadic vehicle device&#45;&gt;personalSystem -->
<g id="edge1" class="edge">
<title>nomadic vehicle device&#45;&gt;personalSystem</title>
<path fill="none" stroke="black" d="M64.62,-51.79C64.62,-59.25 64.62,-68.24 64.62,-76.69"/>
<polygon fill="none" stroke="black" points="61.13,-76.54 64.63,-86.54 68.13,-76.54 61.13,-76.54"/>
</g>
<!-- Invis -->
</g>
</svg>
