<?xml version="1.0" encoding="UTF-8" standalone="no"?>
<!DOCTYPE svg PUBLIC "-//W3C//DTD SVG 1.1//EN"
 "http://www.w3.org/Graphics/SVG/1.1/DTD/svg11.dtd">
<!-- Generated by graphviz version 14.0.2 (20251019.1705)
 -->
<!-- Pages: 1 -->
<svg width="254pt" height="132pt"
 viewBox="0.00 0.00 254.00 132.00" xmlns="http://www.w3.org/2000/svg" xmlns:xlink="http://www.w3.org/1999/xlink">
<g id="graph0" class="graph" transform="scale(1 1) rotate(0) translate(4 128)">
<polygon fill="white" stroke="none" points="-4,4 -4,-128 250.25,-128 250.25,4 -4,4"/>
<g id="clust2" class="cluster">
<title>cluster_associated</title>
</g>
<!-- nomadic vehicle input device -->
<g id="node1" class="node">
<title>nomadic vehicle input device</title>
<g id="a_node1"><a xlink:href="../classes/itsVocabulary__nomadic vehicle input device.md" xlink:title="&lt;TABLE&gt;">
<polygon fill="lightgray" stroke="none" points="1,-25.88 1,-42.12 157.5,-42.12 157.5,-25.88 1,-25.88"/>
<text xml:space="preserve" text-anchor="start" x="2" y="-29.73" font-family="Arial" font-size="12.00">nomadic vehicle input device</text>
<polygon fill="none" stroke="black" points="0,-24.88 0,-43.12 158.5,-43.12 158.5,-24.88 0,-24.88"/>
</a>
</g>
</g>
<!-- vehicleInputDevice -->
<g id="node2" class="node">
<title>vehicleInputDevice</title>
<g id="a_node2"><a xlink:href="../vehicle input device/" xlink:title="&lt;TABLE&gt;" target="_top">
<polygon fill="lightgray" stroke="none" points="25.38,-97.88 25.38,-114.12 133.12,-114.12 133.12,-97.88 25.38,-97.88"/>
<text xml:space="preserve" text-anchor="start" x="26.38" y="-101.72" font-family="Arial" font-size="12.00">vehicle input device</text>
<polygon fill="none" stroke="black" points="24.38,-96.88 24.38,-115.12 134.12,-115.12 134.12,-96.88 24.38,-96.88"/>
</a>
</g>
</g>
<!-- nomadic vehicle input device&#45;&gt;vehicleInputDevice -->
<g id="edge1" class="edge">
<title>nomadic vehicle input device&#45;&gt;vehicleInputDevice</title>
<path fill="none" stroke="black" d="M79.25,-51.79C79.25,-59.25 79.25,-68.24 79.25,-76.69"/>
<polygon fill="none" stroke="black" points="75.75,-76.54 79.25,-86.54 82.75,-76.54 75.75,-76.54"/>
</g>
<!-- Invis -->
</g>
</svg>
