<?xml version="1.0" encoding="UTF-8" standalone="no"?>
<!DOCTYPE svg PUBLIC "-//W3C//DTD SVG 1.1//EN"
 "http://www.w3.org/Graphics/SVG/1.1/DTD/svg11.dtd">
<!-- Generated by graphviz version 14.0.2 (20251019.1705)
 -->
<!-- Pages: 1 -->
<svg width="174pt" height="175pt"
 viewBox="0.00 0.00 174.00 175.00" xmlns="http://www.w3.org/2000/svg" xmlns:xlink="http://www.w3.org/1999/xlink">
<g id="graph0" class="graph" transform="scale(1 1) rotate(0) translate(4 171)">
<polygon fill="white" stroke="none" points="-4,4 -4,-171 170,-171 170,4 -4,4"/>
<g id="clust2" class="cluster">
<title>cluster_associated</title>
</g>
<!-- off&#45;grid -->
<g id="node1" class="node">
<title>off&#45;grid</title>
<g id="a_node1"><a xlink:href="../classes/itsVocabulary__off-grid.md" xlink:title="&lt;TABLE&gt;">
<polygon fill="lightgray" stroke="none" points="7.62,-124.88 7.62,-141.12 46.38,-141.12 46.38,-124.88 7.62,-124.88"/>
<text xml:space="preserve" text-anchor="start" x="8.62" y="-128.72" font-family="Arial" font-size="12.00">off&#45;grid</text>
<polygon fill="none" stroke="black" points="6.62,-123.88 6.62,-142.12 47.38,-142.12 47.38,-123.88 6.62,-123.88"/>
</a>
</g>
</g>
<!-- Invis -->
<!-- off&#45;grid&#45;&gt;Invis -->
<!-- materialEntity -->
<g id="node3" class="node">
<title>materialEntity</title>
<g id="a_node3"><a xlink:href="../material entity/" xlink:title="&lt;TABLE&gt;" target="_top">
<polygon fill="lightgray" stroke="none" points="72.88,-25.88 72.88,-42.12 149.12,-42.12 149.12,-25.88 72.88,-25.88"/>
<text xml:space="preserve" text-anchor="start" x="73.88" y="-29.73" font-family="Arial" font-size="12.00">material entity</text>
<polygon fill="none" stroke="black" points="71.88,-24.88 71.88,-43.12 150.12,-43.12 150.12,-24.88 71.88,-24.88"/>
</a>
</g>
</g>
<!-- off&#45;grid&#45;&gt;materialEntity -->
<g id="edge3" class="edge">
<title>off&#45;grid&#45;&gt;materialEntity</title>
<path fill="none" stroke="black" d="M22.88,-115.24C20.59,-101.83 19.77,-83.17 28.75,-70 36.47,-58.68 48.64,-51.01 61.28,-45.81"/>
<polygon fill="black" stroke="black" points="62.26,-49.17 70.5,-42.51 59.91,-42.58 62.26,-49.17"/>
<text xml:space="preserve" text-anchor="middle" x="68.88" y="-86.55" font-family="Arial" font-size="11.00"> characteristicOf </text>
<text xml:space="preserve" text-anchor="middle" x="68.88" y="-73.05" font-family="Arial" font-size="11.00"> «some» &#160;</text>
</g>
<!-- Invis&#45;&gt;materialEntity -->
</g>
</svg>
