<?xml version="1.0" encoding="UTF-8" standalone="no"?>
<!DOCTYPE svg PUBLIC "-//W3C//DTD SVG 1.1//EN"
 "http://www.w3.org/Graphics/SVG/1.1/DTD/svg11.dtd">
<!-- Generated by graphviz version 14.0.2 (20251019.1705)
 -->
<!-- Pages: 1 -->
<svg width="200pt" height="175pt"
 viewBox="0.00 0.00 200.00 175.00" xmlns="http://www.w3.org/2000/svg" xmlns:xlink="http://www.w3.org/1999/xlink">
<g id="graph0" class="graph" transform="scale(1 1) rotate(0) translate(4 171)">
<polygon fill="white" stroke="none" points="-4,4 -4,-171 196.12,-171 196.12,4 -4,4"/>
<g id="clust2" class="cluster">
<title>cluster_associated</title>
</g>
<!-- open&#45;access -->
<g id="node1" class="node">
<title>open&#45;access</title>
<g id="a_node1"><a xlink:href="../classes/itsVocabulary__open-access.md" xlink:title="&lt;TABLE&gt;">
<polygon fill="lightgray" stroke="none" points="1,-124.88 1,-141.12 71.25,-141.12 71.25,-124.88 1,-124.88"/>
<text xml:space="preserve" text-anchor="start" x="2" y="-128.72" font-family="Arial" font-size="12.00">open&#45;access</text>
<polygon fill="none" stroke="black" points="0,-123.88 0,-142.12 72.25,-142.12 72.25,-123.88 0,-123.88"/>
</a>
</g>
</g>
<!-- Invis -->
<!-- open&#45;access&#45;&gt;Invis -->
<!-- financialModel -->
<g id="node3" class="node">
<title>financialModel</title>
<g id="a_node3"><a xlink:href="../financial model/" xlink:title="&lt;TABLE&gt;" target="_top">
<polygon fill="lightgray" stroke="none" points="91.62,-25.88 91.62,-42.12 174.62,-42.12 174.62,-25.88 91.62,-25.88"/>
<text xml:space="preserve" text-anchor="start" x="92.62" y="-29.73" font-family="Arial" font-size="12.00">financial model</text>
<polygon fill="none" stroke="black" points="90.62,-24.88 90.62,-43.12 175.62,-43.12 175.62,-24.88 90.62,-24.88"/>
</a>
</g>
</g>
<!-- open&#45;access&#45;&gt;financialModel -->
<g id="edge3" class="edge">
<title>open&#45;access&#45;&gt;financialModel</title>
<path fill="none" stroke="black" d="M45.11,-115.11C52.75,-101.8 64.64,-83.34 78.38,-70 82.73,-65.78 87.66,-61.78 92.75,-58.11"/>
<polygon fill="black" stroke="black" points="94.4,-61.22 100.72,-52.71 90.47,-55.42 94.4,-61.22"/>
<text xml:space="preserve" text-anchor="middle" x="104.25" y="-86.55" font-family="Arial" font-size="11.00"> describes </text>
<text xml:space="preserve" text-anchor="middle" x="104.25" y="-73.05" font-family="Arial" font-size="11.00"> «some» &#160;</text>
</g>
<!-- Invis&#45;&gt;financialModel -->
</g>
</svg>
