<?xml version="1.0" encoding="UTF-8" standalone="no"?>
<!DOCTYPE svg PUBLIC "-//W3C//DTD SVG 1.1//EN"
 "http://www.w3.org/Graphics/SVG/1.1/DTD/svg11.dtd">
<!-- Generated by graphviz version 14.0.2 (20251019.1705)
 -->
<!-- Pages: 1 -->
<svg width="328pt" height="175pt"
 viewBox="0.00 0.00 328.00 175.00" xmlns="http://www.w3.org/2000/svg" xmlns:xlink="http://www.w3.org/1999/xlink">
<g id="graph0" class="graph" transform="scale(1 1) rotate(0) translate(4 171)">
<polygon fill="white" stroke="none" points="-4,4 -4,-171 323.88,-171 323.88,4 -4,4"/>
<g id="clust2" class="cluster">
<title>cluster_associated</title>
</g>
<!-- operational design domain -->
<g id="node1" class="node">
<title>operational design domain</title>
<g id="a_node1"><a xlink:href="../classes/itsVocabulary__operational design domain.md" xlink:title="&lt;TABLE&gt;">
<polygon fill="lightgray" stroke="none" points="1,-124.88 1,-141.12 144.75,-141.12 144.75,-124.88 1,-124.88"/>
<text xml:space="preserve" text-anchor="start" x="2" y="-128.72" font-family="Arial" font-size="12.00">operational design domain</text>
<polygon fill="none" stroke="black" points="0,-123.88 0,-142.12 145.75,-142.12 145.75,-123.88 0,-123.88"/>
</a>
</g>
</g>
<!-- Invis -->
<!-- operational design domain&#45;&gt;Invis -->
<!-- drivingAutomationSystem -->
<g id="node3" class="node">
<title>drivingAutomationSystem</title>
<g id="a_node3"><a xlink:href="../driving automation system/" xlink:title="&lt;TABLE&gt;" target="_top">
<polygon fill="lightgray" stroke="none" points="162.5,-25.88 162.5,-42.12 303.25,-42.12 303.25,-25.88 162.5,-25.88"/>
<text xml:space="preserve" text-anchor="start" x="163.5" y="-29.73" font-family="Arial" font-size="12.00">driving automation system</text>
<polygon fill="none" stroke="black" points="161.5,-24.88 161.5,-43.12 304.25,-43.12 304.25,-24.88 161.5,-24.88"/>
</a>
</g>
</g>
<!-- operational design domain&#45;&gt;drivingAutomationSystem -->
<g id="edge3" class="edge">
<title>operational design domain&#45;&gt;drivingAutomationSystem</title>
<path fill="none" stroke="black" d="M97.2,-115.03C115.95,-102.18 142.66,-84.36 166.88,-70 174.17,-65.68 182.04,-61.28 189.71,-57.13"/>
<polygon fill="black" stroke="black" points="191.12,-60.34 198.3,-52.55 187.83,-54.17 191.12,-60.34"/>
<text xml:space="preserve" text-anchor="middle" x="193.88" y="-86.55" font-family="Arial" font-size="11.00"> forAGiven </text>
<text xml:space="preserve" text-anchor="middle" x="193.88" y="-73.05" font-family="Arial" font-size="11.00"> «some» &#160;</text>
</g>
<!-- Invis&#45;&gt;drivingAutomationSystem -->
</g>
</svg>
