<?xml version="1.0" encoding="UTF-8" standalone="no"?>
<!DOCTYPE svg PUBLIC "-//W3C//DTD SVG 1.1//EN"
 "http://www.w3.org/Graphics/SVG/1.1/DTD/svg11.dtd">
<!-- Generated by graphviz version 14.0.2 (20251019.1705)
 -->
<!-- Pages: 1 -->
<svg width="174pt" height="248pt"
 viewBox="0.00 0.00 174.00 248.00" xmlns="http://www.w3.org/2000/svg" xmlns:xlink="http://www.w3.org/1999/xlink">
<g id="graph0" class="graph" transform="scale(1 1) rotate(0) translate(4 244)">
<polygon fill="white" stroke="none" points="-4,4 -4,-244 170.12,-244 170.12,4 -4,4"/>
<g id="clust2" class="cluster">
<title>cluster_associated</title>
</g>
<!-- passenger -->
<g id="node1" class="node">
<title>passenger</title>
<g id="a_node1"><a xlink:href="../classes/itsVocabulary__passenger.md" xlink:title="&lt;TABLE&gt;">
<polygon fill="lightgray" stroke="none" points="1,-197.88 1,-214.12 59.25,-214.12 59.25,-197.88 1,-197.88"/>
<text xml:space="preserve" text-anchor="start" x="2" y="-201.72" font-family="Arial" font-size="12.00">passenger</text>
<polygon fill="none" stroke="black" points="0,-196.88 0,-215.12 60.25,-215.12 60.25,-196.88 0,-196.88"/>
</a>
</g>
</g>
<!-- Invis -->
<!-- passenger&#45;&gt;Invis -->
<!-- person -->
<g id="node3" class="node">
<title>person</title>
<g id="a_node3"><a xlink:href="../person/" xlink:title="&lt;TABLE&gt;" target="_top">
<polygon fill="lightgray" stroke="none" points="103.75,-98.88 103.75,-115.12 142.5,-115.12 142.5,-98.88 103.75,-98.88"/>
<text xml:space="preserve" text-anchor="start" x="104.75" y="-102.72" font-family="Arial" font-size="12.00">person</text>
<polygon fill="none" stroke="black" points="102.75,-97.88 102.75,-116.12 143.5,-116.12 143.5,-97.88 102.75,-97.88"/>
</a>
</g>
</g>
<!-- passenger&#45;&gt;person -->
<g id="edge4" class="edge">
<title>passenger&#45;&gt;person</title>
<path fill="none" stroke="black" d="M39.07,-188.21C46.66,-174.97 58.43,-156.53 71.88,-143 76.5,-138.35 81.82,-133.93 87.24,-129.9"/>
<polygon fill="black" stroke="black" points="88.95,-132.98 95.13,-124.37 84.93,-127.24 88.95,-132.98"/>
<text xml:space="preserve" text-anchor="middle" x="95.5" y="-159.55" font-family="Arial" font-size="11.00"> isA </text>
<text xml:space="preserve" text-anchor="middle" x="95.5" y="-146.05" font-family="Arial" font-size="11.00"> «some» &#160;</text>
</g>
<!-- vehicle -->
<g id="node4" class="node">
<title>vehicle</title>
<g id="a_node4"><a xlink:href="../vehicle/" xlink:title="&lt;TABLE&gt;" target="_top">
<polygon fill="lightgray" stroke="none" points="103,-25.88 103,-42.12 143.25,-42.12 143.25,-25.88 103,-25.88"/>
<text xml:space="preserve" text-anchor="start" x="104" y="-29.73" font-family="Arial" font-size="12.00">vehicle</text>
<polygon fill="none" stroke="black" points="102,-24.88 102,-43.12 144.25,-43.12 144.25,-24.88 102,-24.88"/>
</a>
</g>
</g>
<!-- passenger&#45;&gt;vehicle -->
<g id="edge5" class="edge">
<title>passenger&#45;&gt;vehicle</title>
<path fill="none" stroke="black" d="M25.07,-188.3C18.89,-164.49 11.33,-120.21 29.38,-89 41.49,-68.05 65.15,-54.51 85.68,-46.23"/>
<polygon fill="black" stroke="black" points="86.78,-49.55 94.93,-42.78 84.34,-42.99 86.78,-49.55"/>
<text xml:space="preserve" text-anchor="middle" x="58.25" y="-110.05" font-family="Arial" font-size="11.00"> travellingIn </text>
<text xml:space="preserve" text-anchor="middle" x="58.25" y="-96.55" font-family="Arial" font-size="11.00"> «some» &#160;</text>
</g>
<!-- Invis&#45;&gt;person -->
<!-- person&#45;&gt;vehicle -->
</g>
</svg>
