<?xml version="1.0" encoding="UTF-8" standalone="no"?>
<!DOCTYPE svg PUBLIC "-//W3C//DTD SVG 1.1//EN"
 "http://www.w3.org/Graphics/SVG/1.1/DTD/svg11.dtd">
<!-- Generated by graphviz version 14.0.2 (20251019.1705)
 -->
<!-- Pages: 1 -->
<svg width="217pt" height="175pt"
 viewBox="0.00 0.00 217.00 175.00" xmlns="http://www.w3.org/2000/svg" xmlns:xlink="http://www.w3.org/1999/xlink">
<g id="graph0" class="graph" transform="scale(1 1) rotate(0) translate(4 171)">
<polygon fill="white" stroke="none" points="-4,4 -4,-171 213.38,-171 213.38,4 -4,4"/>
<g id="clust2" class="cluster">
<title>cluster_associated</title>
</g>
<!-- payment means -->
<g id="node1" class="node">
<title>payment means</title>
<g id="a_node1"><a xlink:href="../classes/itsVocabulary__payment means.md" xlink:title="&lt;TABLE&gt;">
<polygon fill="lightgray" stroke="none" points="1,-124.88 1,-141.12 87.75,-141.12 87.75,-124.88 1,-124.88"/>
<text xml:space="preserve" text-anchor="start" x="2" y="-128.72" font-family="Arial" font-size="12.00">payment means</text>
<polygon fill="none" stroke="black" points="0,-123.88 0,-142.12 88.75,-142.12 88.75,-123.88 0,-123.88"/>
</a>
</g>
</g>
<!-- Invis -->
<!-- payment means&#45;&gt;Invis -->
<!-- serviceProvider -->
<g id="node3" class="node">
<title>serviceProvider</title>
<g id="a_node3"><a xlink:href="../service provider/" xlink:title="&lt;TABLE&gt;" target="_top">
<polygon fill="lightgray" stroke="none" points="106,-25.88 106,-42.12 192.75,-42.12 192.75,-25.88 106,-25.88"/>
<text xml:space="preserve" text-anchor="start" x="107" y="-29.73" font-family="Arial" font-size="12.00">service provider</text>
<polygon fill="none" stroke="black" points="105,-24.88 105,-43.12 193.75,-43.12 193.75,-24.88 105,-24.88"/>
</a>
</g>
</g>
<!-- payment means&#45;&gt;serviceProvider -->
<g id="edge3" class="edge">
<title>payment means&#45;&gt;serviceProvider</title>
<path fill="none" stroke="black" d="M52.21,-115.07C59.12,-101.56 70.23,-82.85 84.12,-70 88.96,-65.53 94.48,-61.44 100.2,-57.77"/>
<polygon fill="black" stroke="black" points="101.85,-60.86 108.66,-52.75 98.27,-54.84 101.85,-60.86"/>
<text xml:space="preserve" text-anchor="middle" x="115.25" y="-86.55" font-family="Arial" font-size="11.00"> acceptedBy </text>
<text xml:space="preserve" text-anchor="middle" x="115.25" y="-73.05" font-family="Arial" font-size="11.00"> «some» &#160;</text>
</g>
<!-- Invis&#45;&gt;serviceProvider -->
</g>
</svg>
