<?xml version="1.0" encoding="UTF-8" standalone="no"?>
<!DOCTYPE svg PUBLIC "-//W3C//DTD SVG 1.1//EN"
 "http://www.w3.org/Graphics/SVG/1.1/DTD/svg11.dtd">
<!-- Generated by graphviz version 14.0.2 (20251019.1705)
 -->
<!-- Pages: 1 -->
<svg width="245pt" height="175pt"
 viewBox="0.00 0.00 245.00 175.00" xmlns="http://www.w3.org/2000/svg" xmlns:xlink="http://www.w3.org/1999/xlink">
<g id="graph0" class="graph" transform="scale(1 1) rotate(0) translate(4 171)">
<polygon fill="white" stroke="none" points="-4,4 -4,-171 240.51,-171 240.51,4 -4,4"/>
<g id="clust2" class="cluster">
<title>cluster_associated</title>
</g>
<!-- payment mode -->
<g id="node1" class="node">
<title>payment mode</title>
<g id="a_node1"><a xlink:href="../classes/itsVocabulary__payment mode.md" xlink:title="&lt;TABLE&gt;">
<polygon fill="lightgray" stroke="none" points="22.14,-124.88 22.14,-141.12 102.89,-141.12 102.89,-124.88 22.14,-124.88"/>
<text xml:space="preserve" text-anchor="start" x="23.14" y="-128.72" font-family="Arial" font-size="12.00">payment mode</text>
<polygon fill="none" stroke="black" points="21.14,-123.88 21.14,-142.12 103.89,-142.12 103.89,-123.88 21.14,-123.88"/>
</a>
</g>
</g>
<!-- Invis -->
<!-- payment mode&#45;&gt;Invis -->
<!-- serviceProvider -->
<g id="node3" class="node">
<title>serviceProvider</title>
<g id="a_node3"><a xlink:href="../service provider/" xlink:title="&lt;TABLE&gt;" target="_top">
<polygon fill="lightgray" stroke="none" points="133.14,-25.88 133.14,-42.12 219.89,-42.12 219.89,-25.88 133.14,-25.88"/>
<text xml:space="preserve" text-anchor="start" x="134.14" y="-29.73" font-family="Arial" font-size="12.00">service provider</text>
<polygon fill="none" stroke="black" points="132.14,-24.88 132.14,-43.12 220.89,-43.12 220.89,-24.88 132.14,-24.88"/>
</a>
</g>
</g>
<!-- payment mode&#45;&gt;serviceProvider -->
<g id="edge3" class="edge">
<title>payment mode&#45;&gt;serviceProvider</title>
<path fill="none" stroke="black" d="M22.66,-115.09C15.69,-110.29 9.36,-104.32 5.26,-97 -0.61,-86.53 -2.33,-79.3 5.26,-70 19.74,-52.27 76.63,-43.28 120.91,-38.89"/>
<polygon fill="black" stroke="black" points="121.01,-42.39 130.65,-37.98 120.37,-35.42 121.01,-42.39"/>
<text xml:space="preserve" text-anchor="middle" x="97.89" y="-86.55" font-family="Arial" font-size="11.00"> timingAndLocationOfRemunerationTo </text>
<text xml:space="preserve" text-anchor="middle" x="97.89" y="-73.05" font-family="Arial" font-size="11.00"> «some» &#160;</text>
</g>
<!-- Invis&#45;&gt;serviceProvider -->
</g>
</svg>
