<?xml version="1.0" encoding="UTF-8" standalone="no"?>
<!DOCTYPE svg PUBLIC "-//W3C//DTD SVG 1.1//EN"
 "http://www.w3.org/Graphics/SVG/1.1/DTD/svg11.dtd">
<!-- Generated by graphviz version 14.0.2 (20251019.1705)
 -->
<!-- Pages: 1 -->
<svg width="180pt" height="132pt"
 viewBox="0.00 0.00 180.00 132.00" xmlns="http://www.w3.org/2000/svg" xmlns:xlink="http://www.w3.org/1999/xlink">
<g id="graph0" class="graph" transform="scale(1 1) rotate(0) translate(4 128)">
<polygon fill="white" stroke="none" points="-4,4 -4,-128 176.25,-128 176.25,4 -4,4"/>
<g id="clust2" class="cluster">
<title>cluster_associated</title>
</g>
<!-- peer&#45;to&#45;peer -->
<g id="node1" class="node">
<title>peer&#45;to&#45;peer</title>
<g id="a_node1"><a xlink:href="../classes/itsVocabulary__peer-to-peer.md" xlink:title="&lt;TABLE&gt;">
<polygon fill="lightgray" stroke="none" points="15.62,-25.88 15.62,-42.12 82.88,-42.12 82.88,-25.88 15.62,-25.88"/>
<text xml:space="preserve" text-anchor="start" x="16.62" y="-29.73" font-family="Arial" font-size="12.00">peer&#45;to&#45;peer</text>
<polygon fill="none" stroke="black" points="14.62,-24.88 14.62,-43.12 83.88,-43.12 83.88,-24.88 14.62,-24.88"/>
</a>
</g>
</g>
<!-- contractualModel -->
<g id="node2" class="node">
<title>contractualModel</title>
<g id="a_node2"><a xlink:href="../contractual model/" xlink:title="&lt;TABLE&gt;" target="_top">
<polygon fill="lightgray" stroke="none" points="1,-97.88 1,-114.12 97.5,-114.12 97.5,-97.88 1,-97.88"/>
<text xml:space="preserve" text-anchor="start" x="2" y="-101.72" font-family="Arial" font-size="12.00">contractual model</text>
<polygon fill="none" stroke="black" points="0,-96.88 0,-115.12 98.5,-115.12 98.5,-96.88 0,-96.88"/>
</a>
</g>
</g>
<!-- peer&#45;to&#45;peer&#45;&gt;contractualModel -->
<g id="edge1" class="edge">
<title>peer&#45;to&#45;peer&#45;&gt;contractualModel</title>
<path fill="none" stroke="black" d="M49.25,-51.79C49.25,-59.25 49.25,-68.24 49.25,-76.69"/>
<polygon fill="none" stroke="black" points="45.75,-76.54 49.25,-86.54 52.75,-76.54 45.75,-76.54"/>
</g>
<!-- Invis -->
</g>
</svg>
