<?xml version="1.0" encoding="UTF-8" standalone="no"?>
<!DOCTYPE svg PUBLIC "-//W3C//DTD SVG 1.1//EN"
 "http://www.w3.org/Graphics/SVG/1.1/DTD/svg11.dtd">
<!-- Generated by graphviz version 14.0.2 (20251019.1705)
 -->
<!-- Pages: 1 -->
<svg width="192pt" height="132pt"
 viewBox="0.00 0.00 192.00 132.00" xmlns="http://www.w3.org/2000/svg" xmlns:xlink="http://www.w3.org/1999/xlink">
<g id="graph0" class="graph" transform="scale(1 1) rotate(0) translate(4 128)">
<polygon fill="white" stroke="none" points="-4,4 -4,-128 187.75,-128 187.75,4 -4,4"/>
<g id="clust2" class="cluster">
<title>cluster_associated</title>
</g>
<!-- point coordinates -->
<g id="node1" class="node">
<title>point coordinates</title>
<g id="a_node1"><a xlink:href="../classes/itsVocabulary__point coordinates.md" xlink:title="&lt;TABLE&gt;">
<polygon fill="lightgray" stroke="none" points="1,-25.88 1,-42.12 94.5,-42.12 94.5,-25.88 1,-25.88"/>
<text xml:space="preserve" text-anchor="start" x="2" y="-29.73" font-family="Arial" font-size="12.00">point coordinates</text>
<polygon fill="none" stroke="black" points="0,-24.88 0,-43.12 95.5,-43.12 95.5,-24.88 0,-24.88"/>
</a>
</g>
</g>
<!-- coordinateTuple -->
<g id="node2" class="node">
<title>coordinateTuple</title>
<g id="a_node2"><a xlink:href="../coordinate tuple/" xlink:title="&lt;TABLE&gt;" target="_top">
<polygon fill="lightgray" stroke="none" points="4,-97.88 4,-114.12 91.5,-114.12 91.5,-97.88 4,-97.88"/>
<text xml:space="preserve" text-anchor="start" x="5" y="-101.72" font-family="Arial" font-size="12.00">coordinate tuple</text>
<polygon fill="none" stroke="black" points="3,-96.88 3,-115.12 92.5,-115.12 92.5,-96.88 3,-96.88"/>
</a>
</g>
</g>
<!-- point coordinates&#45;&gt;coordinateTuple -->
<g id="edge1" class="edge">
<title>point coordinates&#45;&gt;coordinateTuple</title>
<path fill="none" stroke="black" d="M47.75,-51.79C47.75,-59.25 47.75,-68.24 47.75,-76.69"/>
<polygon fill="none" stroke="black" points="44.25,-76.54 47.75,-86.54 51.25,-76.54 44.25,-76.54"/>
</g>
<!-- Invis -->
</g>
</svg>
