<?xml version="1.0" encoding="UTF-8" standalone="no"?>
<!DOCTYPE svg PUBLIC "-//W3C//DTD SVG 1.1//EN"
 "http://www.w3.org/Graphics/SVG/1.1/DTD/svg11.dtd">
<!-- Generated by graphviz version 14.0.2 (20251019.1705)
 -->
<!-- Pages: 1 -->
<svg width="224pt" height="132pt"
 viewBox="0.00 0.00 224.00 132.00" xmlns="http://www.w3.org/2000/svg" xmlns:xlink="http://www.w3.org/1999/xlink">
<g id="graph0" class="graph" transform="scale(1 1) rotate(0) translate(4 128)">
<polygon fill="white" stroke="none" points="-4,4 -4,-128 219.88,-128 219.88,4 -4,4"/>
<g id="clust2" class="cluster">
<title>cluster_associated</title>
</g>
<!-- private customer model -->
<g id="node1" class="node">
<title>private customer model</title>
<g id="a_node1"><a xlink:href="../classes/itsVocabulary__private customer model.md" xlink:title="&lt;TABLE&gt;">
<polygon fill="lightgray" stroke="none" points="1,-25.88 1,-42.12 126.75,-42.12 126.75,-25.88 1,-25.88"/>
<text xml:space="preserve" text-anchor="start" x="2" y="-29.73" font-family="Arial" font-size="12.00">private customer model</text>
<polygon fill="none" stroke="black" points="0,-24.88 0,-43.12 127.75,-43.12 127.75,-24.88 0,-24.88"/>
</a>
</g>
</g>
<!-- contractualModel -->
<g id="node2" class="node">
<title>contractualModel</title>
<g id="a_node2"><a xlink:href="../contractual model/" xlink:title="&lt;TABLE&gt;" target="_top">
<polygon fill="lightgray" stroke="none" points="15.62,-97.88 15.62,-114.12 112.12,-114.12 112.12,-97.88 15.62,-97.88"/>
<text xml:space="preserve" text-anchor="start" x="16.62" y="-101.72" font-family="Arial" font-size="12.00">contractual model</text>
<polygon fill="none" stroke="black" points="14.62,-96.88 14.62,-115.12 113.12,-115.12 113.12,-96.88 14.62,-96.88"/>
</a>
</g>
</g>
<!-- private customer model&#45;&gt;contractualModel -->
<g id="edge1" class="edge">
<title>private customer model&#45;&gt;contractualModel</title>
<path fill="none" stroke="black" d="M63.88,-51.79C63.88,-59.25 63.88,-68.24 63.88,-76.69"/>
<polygon fill="none" stroke="black" points="60.38,-76.54 63.88,-86.54 67.38,-76.54 60.38,-76.54"/>
</g>
<!-- Invis -->
</g>
</svg>
