<?xml version="1.0" encoding="UTF-8" standalone="no"?>
<!DOCTYPE svg PUBLIC "-//W3C//DTD SVG 1.1//EN"
 "http://www.w3.org/Graphics/SVG/1.1/DTD/svg11.dtd">
<!-- Generated by graphviz version 14.0.2 (20251019.1705)
 -->
<!-- Pages: 1 -->
<svg width="318pt" height="232pt"
 viewBox="0.00 0.00 318.00 232.00" xmlns="http://www.w3.org/2000/svg" xmlns:xlink="http://www.w3.org/1999/xlink">
<g id="graph0" class="graph" transform="scale(1 1) rotate(0) translate(4 228)">
<polygon fill="white" stroke="none" points="-4,4 -4,-228 314.25,-228 314.25,4 -4,4"/>
<g id="clust2" class="cluster">
<title>cluster_associated</title>
</g>
<!-- public transport vehicle stop -->
<g id="node1" class="node">
<title>public transport vehicle stop</title>
<g id="a_node1"><a xlink:href="../classes/itsVocabulary__public transport vehicle stop.md" xlink:title="&lt;TABLE&gt;">
<polygon fill="lightgray" stroke="none" points="158.75,-124.88 158.75,-141.12 309.25,-141.12 309.25,-124.88 158.75,-124.88"/>
<text xml:space="preserve" text-anchor="start" x="159.75" y="-128.72" font-family="Arial" font-size="12.00">public transport vehicle stop</text>
<polygon fill="none" stroke="black" points="157.75,-123.88 157.75,-142.12 310.25,-142.12 310.25,-123.88 157.75,-123.88"/>
</a>
</g>
</g>
<!-- pick&#45;upDrop&#45;offArea -->
<g id="node2" class="node">
<title>pick&#45;upDrop&#45;offArea</title>
<g id="a_node2"><a xlink:href="../pick-up/drop-off area/" xlink:title="&lt;TABLE&gt;" target="_top">
<polygon fill="lightgray" stroke="none" points="178.25,-197.88 178.25,-214.12 289.75,-214.12 289.75,-197.88 178.25,-197.88"/>
<text xml:space="preserve" text-anchor="start" x="179.25" y="-201.72" font-family="Arial" font-size="12.00">pick&#45;up/drop&#45;off area</text>
<polygon fill="none" stroke="black" points="177.25,-196.88 177.25,-215.12 290.75,-215.12 290.75,-196.88 177.25,-196.88"/>
</a>
</g>
</g>
<!-- public transport vehicle stop&#45;&gt;pick&#45;upDrop&#45;offArea -->
<g id="edge1" class="edge">
<title>public transport vehicle stop&#45;&gt;pick&#45;upDrop&#45;offArea</title>
<path fill="none" stroke="black" d="M234,-150.71C234,-158.47 234,-167.92 234,-176.74"/>
<polygon fill="none" stroke="black" points="230.5,-176.66 234,-186.66 237.5,-176.66 230.5,-176.66"/>
</g>
<!-- Invis -->
<!-- public transport vehicle stop&#45;&gt;Invis -->
<!-- publicTransportVehicle -->
<g id="node4" class="node">
<title>publicTransportVehicle</title>
<polygon fill="lightgray" stroke="none" points="16.88,-25.88 16.88,-42.12 141.12,-42.12 141.12,-25.88 16.88,-25.88"/>
<text xml:space="preserve" text-anchor="start" x="17.88" y="-29.73" font-family="Arial" font-size="12.00">publicTransportVehicle</text>
<polygon fill="none" stroke="black" points="15.88,-24.88 15.88,-43.12 142.12,-43.12 142.12,-24.88 15.88,-24.88"/>
</g>
<!-- public transport vehicle stop&#45;&gt;publicTransportVehicle -->
<g id="edge4" class="edge">
<title>public transport vehicle stop&#45;&gt;publicTransportVehicle</title>
<path fill="none" stroke="black" d="M207,-115.1C181.63,-99.23 143.47,-75.35 115.41,-57.79"/>
<polygon fill="black" stroke="black" points="117.57,-55.01 107.23,-52.67 113.85,-60.94 117.57,-55.01"/>
<text xml:space="preserve" text-anchor="middle" x="198.57" y="-86.55" font-family="Arial" font-size="11.00"> for </text>
<text xml:space="preserve" text-anchor="middle" x="198.57" y="-73.05" font-family="Arial" font-size="11.00"> «some» &#160;</text>
</g>
<!-- Invis&#45;&gt;publicTransportVehicle -->
</g>
</svg>
