<?xml version="1.0" encoding="UTF-8" standalone="no"?>
<!DOCTYPE svg PUBLIC "-//W3C//DTD SVG 1.1//EN"
 "http://www.w3.org/Graphics/SVG/1.1/DTD/svg11.dtd">
<!-- Generated by graphviz version 14.0.2 (20251019.1705)
 -->
<!-- Pages: 1 -->
<svg width="232pt" height="132pt"
 viewBox="0.00 0.00 232.00 132.00" xmlns="http://www.w3.org/2000/svg" xmlns:xlink="http://www.w3.org/1999/xlink">
<g id="graph0" class="graph" transform="scale(1 1) rotate(0) translate(4 128)">
<polygon fill="white" stroke="none" points="-4,4 -4,-128 228.38,-128 228.38,4 -4,4"/>
<g id="clust2" class="cluster">
<title>cluster_associated</title>
</g>
<!-- public information device -->
<g id="node1" class="node">
<title>public information device</title>
<g id="a_node1"><a xlink:href="../classes/itsVocabulary__public information device.md" xlink:title="&lt;TABLE&gt;">
<polygon fill="lightgray" stroke="none" points="1,-25.88 1,-42.12 135.75,-42.12 135.75,-25.88 1,-25.88"/>
<text xml:space="preserve" text-anchor="start" x="2" y="-29.73" font-family="Arial" font-size="12.00">public information device</text>
<polygon fill="none" stroke="black" points="0,-24.88 0,-43.12 136.75,-43.12 136.75,-24.88 0,-24.88"/>
</a>
</g>
</g>
<!-- personalSystem -->
<g id="node2" class="node">
<title>personalSystem</title>
<g id="a_node2"><a xlink:href="../personal system/" xlink:title="&lt;TABLE&gt;" target="_top">
<polygon fill="lightgray" stroke="none" points="23.88,-97.88 23.88,-114.12 112.88,-114.12 112.88,-97.88 23.88,-97.88"/>
<text xml:space="preserve" text-anchor="start" x="24.88" y="-101.72" font-family="Arial" font-size="12.00">personal system</text>
<polygon fill="none" stroke="black" points="22.88,-96.88 22.88,-115.12 113.88,-115.12 113.88,-96.88 22.88,-96.88"/>
</a>
</g>
</g>
<!-- public information device&#45;&gt;personalSystem -->
<g id="edge1" class="edge">
<title>public information device&#45;&gt;personalSystem</title>
<path fill="none" stroke="black" d="M68.38,-51.79C68.38,-59.25 68.38,-68.24 68.38,-76.69"/>
<polygon fill="none" stroke="black" points="64.88,-76.54 68.38,-86.54 71.88,-76.54 64.88,-76.54"/>
</g>
<!-- Invis -->
</g>
</svg>
