<?xml version="1.0" encoding="UTF-8" standalone="no"?>
<!DOCTYPE svg PUBLIC "-//W3C//DTD SVG 1.1//EN"
 "http://www.w3.org/Graphics/SVG/1.1/DTD/svg11.dtd">
<!-- Generated by graphviz version 14.0.2 (20251019.1705)
 -->
<!-- Pages: 1 -->
<svg width="278pt" height="132pt"
 viewBox="0.00 0.00 278.00 132.00" xmlns="http://www.w3.org/2000/svg" xmlns:xlink="http://www.w3.org/1999/xlink">
<g id="graph0" class="graph" transform="scale(1 1) rotate(0) translate(4 128)">
<polygon fill="white" stroke="none" points="-4,4 -4,-128 273.88,-128 273.88,4 -4,4"/>
<g id="clust2" class="cluster">
<title>cluster_associated</title>
</g>
<!-- real&#45;time traveller information app -->
<g id="node1" class="node">
<title>real&#45;time traveller information app</title>
<g id="a_node1"><a xlink:href="../classes/itsVocabulary__real-time traveller information app.md" xlink:title="&lt;TABLE&gt;">
<polygon fill="lightgray" stroke="none" points="1,-25.88 1,-42.12 180.75,-42.12 180.75,-25.88 1,-25.88"/>
<text xml:space="preserve" text-anchor="start" x="2" y="-29.73" font-family="Arial" font-size="12.00">real&#45;time traveller information app</text>
<polygon fill="none" stroke="black" points="0,-24.88 0,-43.12 181.75,-43.12 181.75,-24.88 0,-24.88"/>
</a>
</g>
</g>
<!-- mobilityApp -->
<g id="node2" class="node">
<title>mobilityApp</title>
<g id="a_node2"><a xlink:href="../mobility app/" xlink:title="&lt;TABLE&gt;" target="_top">
<polygon fill="lightgray" stroke="none" points="57.62,-97.88 57.62,-114.12 124.12,-114.12 124.12,-97.88 57.62,-97.88"/>
<text xml:space="preserve" text-anchor="start" x="58.62" y="-101.72" font-family="Arial" font-size="12.00">mobility app</text>
<polygon fill="none" stroke="black" points="56.62,-96.88 56.62,-115.12 125.12,-115.12 125.12,-96.88 56.62,-96.88"/>
</a>
</g>
</g>
<!-- real&#45;time traveller information app&#45;&gt;mobilityApp -->
<g id="edge1" class="edge">
<title>real&#45;time traveller information app&#45;&gt;mobilityApp</title>
<path fill="none" stroke="black" d="M90.88,-51.79C90.88,-59.25 90.88,-68.24 90.88,-76.69"/>
<polygon fill="none" stroke="black" points="87.38,-76.54 90.88,-86.54 94.38,-76.54 87.38,-76.54"/>
</g>
<!-- Invis -->
</g>
</svg>
