<?xml version="1.0" encoding="UTF-8" standalone="no"?>
<!DOCTYPE svg PUBLIC "-//W3C//DTD SVG 1.1//EN"
 "http://www.w3.org/Graphics/SVG/1.1/DTD/svg11.dtd">
<!-- Generated by graphviz version 14.0.2 (20251019.1705)
 -->
<!-- Pages: 1 -->
<svg width="246pt" height="132pt"
 viewBox="0.00 0.00 246.00 132.00" xmlns="http://www.w3.org/2000/svg" xmlns:xlink="http://www.w3.org/1999/xlink">
<g id="graph0" class="graph" transform="scale(1 1) rotate(0) translate(4 128)">
<polygon fill="white" stroke="none" points="-4,4 -4,-128 241.75,-128 241.75,4 -4,4"/>
<g id="clust2" class="cluster">
<title>cluster_associated</title>
</g>
<!-- remote vehicle input device -->
<g id="node1" class="node">
<title>remote vehicle input device</title>
<g id="a_node1"><a xlink:href="../classes/itsVocabulary__remote vehicle input device.md" xlink:title="&lt;TABLE&gt;">
<polygon fill="lightgray" stroke="none" points="1,-25.88 1,-42.12 148.5,-42.12 148.5,-25.88 1,-25.88"/>
<text xml:space="preserve" text-anchor="start" x="2" y="-29.73" font-family="Arial" font-size="12.00">remote vehicle input device</text>
<polygon fill="none" stroke="black" points="0,-24.88 0,-43.12 149.5,-43.12 149.5,-24.88 0,-24.88"/>
</a>
</g>
</g>
<!-- vehicleInputDevice -->
<g id="node2" class="node">
<title>vehicleInputDevice</title>
<g id="a_node2"><a xlink:href="../vehicle input device/" xlink:title="&lt;TABLE&gt;" target="_top">
<polygon fill="lightgray" stroke="none" points="20.88,-97.88 20.88,-114.12 128.62,-114.12 128.62,-97.88 20.88,-97.88"/>
<text xml:space="preserve" text-anchor="start" x="21.88" y="-101.72" font-family="Arial" font-size="12.00">vehicle input device</text>
<polygon fill="none" stroke="black" points="19.88,-96.88 19.88,-115.12 129.62,-115.12 129.62,-96.88 19.88,-96.88"/>
</a>
</g>
</g>
<!-- remote vehicle input device&#45;&gt;vehicleInputDevice -->
<g id="edge1" class="edge">
<title>remote vehicle input device&#45;&gt;vehicleInputDevice</title>
<path fill="none" stroke="black" d="M74.75,-51.79C74.75,-59.25 74.75,-68.24 74.75,-76.69"/>
<polygon fill="none" stroke="black" points="71.25,-76.54 74.75,-86.54 78.25,-76.54 71.25,-76.54"/>
</g>
<!-- Invis -->
</g>
</svg>
