<?xml version="1.0" encoding="UTF-8" standalone="no"?>
<!DOCTYPE svg PUBLIC "-//W3C//DTD SVG 1.1//EN"
 "http://www.w3.org/Graphics/SVG/1.1/DTD/svg11.dtd">
<!-- Generated by graphviz version 14.0.2 (20251019.1705)
 -->
<!-- Pages: 1 -->
<svg width="216pt" height="132pt"
 viewBox="0.00 0.00 216.00 132.00" xmlns="http://www.w3.org/2000/svg" xmlns:xlink="http://www.w3.org/1999/xlink">
<g id="graph0" class="graph" transform="scale(1 1) rotate(0) translate(4 128)">
<polygon fill="white" stroke="none" points="-4,4 -4,-128 211.75,-128 211.75,4 -4,4"/>
<g id="clust2" class="cluster">
<title>cluster_associated</title>
</g>
<!-- ridesourced service -->
<g id="node1" class="node">
<title>ridesourced service</title>
<g id="a_node1"><a xlink:href="../classes/itsVocabulary__ridesourced service.md" xlink:title="&lt;TABLE&gt;">
<polygon fill="lightgray" stroke="none" points="12.62,-25.88 12.62,-42.12 118.88,-42.12 118.88,-25.88 12.62,-25.88"/>
<text xml:space="preserve" text-anchor="start" x="13.62" y="-29.73" font-family="Arial" font-size="12.00">ridesourced service</text>
<polygon fill="none" stroke="black" points="11.62,-24.88 11.62,-43.12 119.88,-43.12 119.88,-24.88 11.62,-24.88"/>
</a>
</g>
</g>
<!-- sharedTransportService -->
<g id="node2" class="node">
<title>sharedTransportService</title>
<g id="a_node2"><a xlink:href="../shared transport service/" xlink:title="&lt;TABLE&gt;" target="_top">
<polygon fill="lightgray" stroke="none" points="1,-97.88 1,-114.12 130.5,-114.12 130.5,-97.88 1,-97.88"/>
<text xml:space="preserve" text-anchor="start" x="2" y="-101.72" font-family="Arial" font-size="12.00">shared transport service</text>
<polygon fill="none" stroke="black" points="0,-96.88 0,-115.12 131.5,-115.12 131.5,-96.88 0,-96.88"/>
</a>
</g>
</g>
<!-- ridesourced service&#45;&gt;sharedTransportService -->
<g id="edge1" class="edge">
<title>ridesourced service&#45;&gt;sharedTransportService</title>
<path fill="none" stroke="black" d="M65.75,-51.79C65.75,-59.25 65.75,-68.24 65.75,-76.69"/>
<polygon fill="none" stroke="black" points="62.25,-76.54 65.75,-86.54 69.25,-76.54 62.25,-76.54"/>
</g>
<!-- Invis -->
</g>
</svg>
