<?xml version="1.0" encoding="UTF-8" standalone="no"?>
<!DOCTYPE svg PUBLIC "-//W3C//DTD SVG 1.1//EN"
 "http://www.w3.org/Graphics/SVG/1.1/DTD/svg11.dtd">
<!-- Generated by graphviz version 14.0.2 (20251019.1705)
 -->
<!-- Pages: 1 -->
<svg width="231pt" height="347pt"
 viewBox="0.00 0.00 231.00 347.00" xmlns="http://www.w3.org/2000/svg" xmlns:xlink="http://www.w3.org/1999/xlink">
<g id="graph0" class="graph" transform="scale(1 1) rotate(0) translate(4 343)">
<polygon fill="white" stroke="none" points="-4,4 -4,-343 227.36,-343 227.36,4 -4,4"/>
<g id="clust2" class="cluster">
<title>cluster_associated</title>
</g>
<!-- road model -->
<g id="node1" class="node">
<title>road model</title>
<g id="a_node1"><a xlink:href="../classes/itsVocabulary__road model.md" xlink:title="&lt;TABLE&gt;">
<polygon fill="lightgray" stroke="none" points="107,-296.88 107,-313.12 169,-313.12 169,-296.88 107,-296.88"/>
<text xml:space="preserve" text-anchor="start" x="108" y="-300.73" font-family="Arial" font-size="12.00">road model</text>
<polygon fill="none" stroke="black" points="106,-295.88 106,-314.12 170,-314.12 170,-295.88 106,-295.88"/>
</a>
</g>
</g>
<!-- Invis -->
<!-- road model&#45;&gt;Invis -->
<!-- link -->
<g id="node3" class="node">
<title>link</title>
<g id="a_node3"><a xlink:href="../link/" xlink:title="&lt;TABLE&gt;" target="_top">
<polygon fill="lightgray" stroke="none" points="47.62,-197.88 47.62,-214.12 68.38,-214.12 68.38,-197.88 47.62,-197.88"/>
<text xml:space="preserve" text-anchor="start" x="48.62" y="-201.72" font-family="Arial" font-size="12.00">link</text>
<polygon fill="none" stroke="black" points="46.62,-196.88 46.62,-215.12 69.38,-215.12 69.38,-196.88 46.62,-196.88"/>
</a>
</g>
</g>
<!-- road model&#45;&gt;link -->
<g id="edge7" class="edge">
<title>road model&#45;&gt;link</title>
<path fill="none" stroke="black" d="M106.21,-288.97C104.78,-288.3 103.38,-287.64 102,-287 84.7,-278.92 73.93,-284.65 63,-269 56.21,-259.27 54.33,-246.48 54.39,-235.04"/>
<polygon fill="black" stroke="black" points="57.87,-235.49 54.95,-225.31 50.88,-235.09 57.87,-235.49"/>
<text xml:space="preserve" text-anchor="middle" x="91.5" y="-258.55" font-family="Arial" font-size="11.00"> constitutes </text>
<text xml:space="preserve" text-anchor="middle" x="91.5" y="-245.05" font-family="Arial" font-size="11.00"> «some» &#160;</text>
</g>
<!-- node -->
<g id="node4" class="node">
<title>node</title>
<g id="a_node4"><a xlink:href="../node/" xlink:title="&lt;TABLE&gt;" target="_top">
<polygon fill="lightgray" stroke="none" points="43.5,-98.88 43.5,-115.12 72.5,-115.12 72.5,-98.88 43.5,-98.88"/>
<text xml:space="preserve" text-anchor="start" x="44.5" y="-102.72" font-family="Arial" font-size="12.00">node</text>
<polygon fill="none" stroke="black" points="42.5,-97.88 42.5,-116.12 73.5,-116.12 73.5,-97.88 42.5,-97.88"/>
</a>
</g>
</g>
<!-- road model&#45;&gt;node -->
<g id="edge6" class="edge">
<title>road model&#45;&gt;node</title>
<path fill="none" stroke="black" d="M133.86,-287.2C130.57,-274.6 125.62,-257.01 120,-242 105.79,-204.02 85.47,-161.81 72.01,-135.1"/>
<polygon fill="black" stroke="black" points="75.21,-133.67 67.56,-126.34 68.97,-136.84 75.21,-133.67"/>
<text xml:space="preserve" text-anchor="middle" x="141.18" y="-209.05" font-family="Arial" font-size="11.00"> constitutes </text>
<text xml:space="preserve" text-anchor="middle" x="141.18" y="-195.55" font-family="Arial" font-size="11.00"> «some» &#160;</text>
</g>
<!-- roadNetwork -->
<g id="node5" class="node">
<title>roadNetwork</title>
<g id="a_node5"><a xlink:href="../road network/" xlink:title="&lt;TABLE&gt;" target="_top">
<polygon fill="lightgray" stroke="none" points="17.5,-25.88 17.5,-42.12 88.5,-42.12 88.5,-25.88 17.5,-25.88"/>
<text xml:space="preserve" text-anchor="start" x="18.5" y="-29.73" font-family="Arial" font-size="12.00">road network</text>
<polygon fill="none" stroke="black" points="16.5,-24.88 16.5,-43.12 89.5,-43.12 89.5,-24.88 16.5,-24.88"/>
</a>
</g>
</g>
<!-- road model&#45;&gt;roadNetwork -->
<g id="edge5" class="edge">
<title>road model&#45;&gt;roadNetwork</title>
<path fill="none" stroke="black" d="M149.92,-287.37C164.6,-264.74 186.19,-223.05 174,-188 155.68,-135.3 110.83,-87.07 81.18,-59.38"/>
<polygon fill="black" stroke="black" points="83.75,-56.98 74.01,-52.81 79.02,-62.15 83.75,-56.98"/>
<text xml:space="preserve" text-anchor="middle" x="194.86" y="-159.55" font-family="Arial" font-size="11.00"> represents </text>
<text xml:space="preserve" text-anchor="middle" x="194.86" y="-146.05" font-family="Arial" font-size="11.00"> «some» &#160;</text>
</g>
<!-- Invis&#45;&gt;link -->
<!-- link&#45;&gt;node -->
<!-- node&#45;&gt;roadNetwork -->
</g>
</svg>
