<?xml version="1.0" encoding="UTF-8" standalone="no"?>
<!DOCTYPE svg PUBLIC "-//W3C//DTD SVG 1.1//EN"
 "http://www.w3.org/Graphics/SVG/1.1/DTD/svg11.dtd">
<!-- Generated by graphviz version 14.0.2 (20251019.1705)
 -->
<!-- Pages: 1 -->
<svg width="183pt" height="175pt"
 viewBox="0.00 0.00 183.00 175.00" xmlns="http://www.w3.org/2000/svg" xmlns:xlink="http://www.w3.org/1999/xlink">
<g id="graph0" class="graph" transform="scale(1 1) rotate(0) translate(4 171)">
<polygon fill="white" stroke="none" points="-4,4 -4,-171 178.62,-171 178.62,4 -4,4"/>
<g id="clust2" class="cluster">
<title>cluster_associated</title>
</g>
<!-- road section -->
<g id="node1" class="node">
<title>road section</title>
<g id="a_node1"><a xlink:href="../classes/itsVocabulary__road section.md" xlink:title="&lt;TABLE&gt;">
<polygon fill="lightgray" stroke="none" points="1,-124.88 1,-141.12 68.25,-141.12 68.25,-124.88 1,-124.88"/>
<text xml:space="preserve" text-anchor="start" x="2" y="-128.72" font-family="Arial" font-size="12.00">road section</text>
<polygon fill="none" stroke="black" points="0,-123.88 0,-142.12 69.25,-142.12 69.25,-123.88 0,-123.88"/>
</a>
</g>
</g>
<!-- Invis -->
<!-- road section&#45;&gt;Invis -->
<!-- roadLink -->
<g id="node3" class="node">
<title>roadLink</title>
<g id="a_node3"><a xlink:href="../road link/" xlink:title="&lt;TABLE&gt;" target="_top">
<polygon fill="lightgray" stroke="none" points="107.75,-25.88 107.75,-42.12 155.5,-42.12 155.5,-25.88 107.75,-25.88"/>
<text xml:space="preserve" text-anchor="start" x="108.75" y="-29.73" font-family="Arial" font-size="12.00">road link</text>
<polygon fill="none" stroke="black" points="106.75,-24.88 106.75,-43.12 156.5,-43.12 156.5,-24.88 106.75,-24.88"/>
</a>
</g>
</g>
<!-- road section&#45;&gt;roadLink -->
<g id="edge3" class="edge">
<title>road section&#45;&gt;roadLink</title>
<path fill="none" stroke="black" d="M40.51,-115.06C45.89,-101.55 54.94,-82.83 67.62,-70 75.28,-62.26 85,-55.78 94.54,-50.57"/>
<polygon fill="black" stroke="black" points="96.02,-53.75 103.37,-46.11 92.87,-47.5 96.02,-53.75"/>
<text xml:space="preserve" text-anchor="middle" x="97.62" y="-86.55" font-family="Arial" font-size="11.00"> aggregates </text>
<text xml:space="preserve" text-anchor="middle" x="97.62" y="-73.05" font-family="Arial" font-size="11.00"> «some» &#160;</text>
</g>
<!-- Invis&#45;&gt;roadLink -->
</g>
</svg>
