<?xml version="1.0" encoding="UTF-8" standalone="no"?>
<!DOCTYPE svg PUBLIC "-//W3C//DTD SVG 1.1//EN"
 "http://www.w3.org/Graphics/SVG/1.1/DTD/svg11.dtd">
<!-- Generated by graphviz version 14.0.2 (20251019.1705)
 -->
<!-- Pages: 1 -->
<svg width="190pt" height="175pt"
 viewBox="0.00 0.00 190.00 175.00" xmlns="http://www.w3.org/2000/svg" xmlns:xlink="http://www.w3.org/1999/xlink">
<g id="graph0" class="graph" transform="scale(1 1) rotate(0) translate(4 171)">
<polygon fill="white" stroke="none" points="-4,4 -4,-171 186.38,-171 186.38,4 -4,4"/>
<g id="clust2" class="cluster">
<title>cluster_associated</title>
</g>
<!-- road identifier -->
<g id="node1" class="node">
<title>road identifier</title>
<g id="a_node1"><a xlink:href="../classes/itsVocabulary__road identifier.md" xlink:title="&lt;TABLE&gt;">
<polygon fill="lightgray" stroke="none" points="1,-124.88 1,-141.12 75.75,-141.12 75.75,-124.88 1,-124.88"/>
<text xml:space="preserve" text-anchor="start" x="2" y="-128.72" font-family="Arial" font-size="12.00">road identifier</text>
<polygon fill="none" stroke="black" points="0,-123.88 0,-142.12 76.75,-142.12 76.75,-123.88 0,-123.88"/>
</a>
</g>
</g>
<!-- Invis -->
<!-- road identifier&#45;&gt;Invis -->
<!-- road -->
<g id="node3" class="node">
<title>road</title>
<g id="a_node3"><a xlink:href="../road/" xlink:title="&lt;TABLE&gt;" target="_top">
<polygon fill="lightgray" stroke="none" points="126.38,-25.88 126.38,-42.12 152.38,-42.12 152.38,-25.88 126.38,-25.88"/>
<text xml:space="preserve" text-anchor="start" x="127.38" y="-29.73" font-family="Arial" font-size="12.00">road</text>
<polygon fill="none" stroke="black" points="125.38,-24.88 125.38,-43.12 153.38,-43.12 153.38,-24.88 125.38,-24.88"/>
</a>
</g>
</g>
<!-- road identifier&#45;&gt;road -->
<g id="edge3" class="edge">
<title>road identifier&#45;&gt;road</title>
<path fill="none" stroke="black" d="M49.6,-115.04C58.81,-101.86 72.68,-83.61 87.38,-70 92.23,-65.5 97.72,-61.16 103.26,-57.16"/>
<polygon fill="black" stroke="black" points="105.04,-60.19 111.29,-51.64 101.07,-54.42 105.04,-60.19"/>
<text xml:space="preserve" text-anchor="middle" x="111.38" y="-86.55" font-family="Arial" font-size="11.00"> identifies </text>
<text xml:space="preserve" text-anchor="middle" x="111.38" y="-73.05" font-family="Arial" font-size="11.00"> «some» &#160;</text>
</g>
<!-- Invis&#45;&gt;road -->
</g>
</svg>
