<?xml version="1.0" encoding="UTF-8" standalone="no"?>
<!DOCTYPE svg PUBLIC "-//W3C//DTD SVG 1.1//EN"
 "http://www.w3.org/Graphics/SVG/1.1/DTD/svg11.dtd">
<!-- Generated by graphviz version 14.0.2 (20251019.1705)
 -->
<!-- Pages: 1 -->
<svg width="220pt" height="132pt"
 viewBox="0.00 0.00 220.00 132.00" xmlns="http://www.w3.org/2000/svg" xmlns:xlink="http://www.w3.org/1999/xlink">
<g id="graph0" class="graph" transform="scale(1 1) rotate(0) translate(4 128)">
<polygon fill="white" stroke="none" points="-4,4 -4,-128 215.62,-128 215.62,4 -4,4"/>
<g id="clust2" class="cluster">
<title>cluster_associated</title>
</g>
<!-- shared vehicle service -->
<g id="node1" class="node">
<title>shared vehicle service</title>
<g id="a_node1"><a xlink:href="../classes/itsVocabulary__shared vehicle service.md" xlink:title="&lt;TABLE&gt;">
<polygon fill="lightgray" stroke="none" points="1,-25.88 1,-42.12 122.25,-42.12 122.25,-25.88 1,-25.88"/>
<text xml:space="preserve" text-anchor="start" x="2" y="-29.73" font-family="Arial" font-size="12.00">shared vehicle service</text>
<polygon fill="none" stroke="black" points="0,-24.88 0,-43.12 123.25,-43.12 123.25,-24.88 0,-24.88"/>
</a>
</g>
</g>
<!-- transportService -->
<g id="node2" class="node">
<title>transportService</title>
<g id="a_node2"><a xlink:href="../transport service/" xlink:title="&lt;TABLE&gt;" target="_top">
<polygon fill="lightgray" stroke="none" points="16.75,-97.88 16.75,-114.12 106.5,-114.12 106.5,-97.88 16.75,-97.88"/>
<text xml:space="preserve" text-anchor="start" x="17.75" y="-101.72" font-family="Arial" font-size="12.00">transport service</text>
<polygon fill="none" stroke="black" points="15.75,-96.88 15.75,-115.12 107.5,-115.12 107.5,-96.88 15.75,-96.88"/>
</a>
</g>
</g>
<!-- shared vehicle service&#45;&gt;transportService -->
<g id="edge1" class="edge">
<title>shared vehicle service&#45;&gt;transportService</title>
<path fill="none" stroke="black" d="M61.62,-51.79C61.62,-59.25 61.62,-68.24 61.62,-76.69"/>
<polygon fill="none" stroke="black" points="58.13,-76.54 61.63,-86.54 65.13,-76.54 58.13,-76.54"/>
</g>
<!-- Invis -->
</g>
</svg>
