<?xml version="1.0" encoding="UTF-8" standalone="no"?>
<!DOCTYPE svg PUBLIC "-//W3C//DTD SVG 1.1//EN"
 "http://www.w3.org/Graphics/SVG/1.1/DTD/svg11.dtd">
<!-- Generated by graphviz version 14.0.2 (20251019.1705)
 -->
<!-- Pages: 1 -->
<svg width="230pt" height="132pt"
 viewBox="0.00 0.00 230.00 132.00" xmlns="http://www.w3.org/2000/svg" xmlns:xlink="http://www.w3.org/1999/xlink">
<g id="graph0" class="graph" transform="scale(1 1) rotate(0) translate(4 128)">
<polygon fill="white" stroke="none" points="-4,4 -4,-128 225.5,-128 225.5,4 -4,4"/>
<g id="clust2" class="cluster">
<title>cluster_associated</title>
</g>
<!-- surface transport system -->
<g id="node1" class="node">
<title>surface transport system</title>
<g id="a_node1"><a xlink:href="../classes/itsVocabulary__surface transport system.md" xlink:title="&lt;TABLE&gt;">
<polygon fill="lightgray" stroke="none" points="1,-25.88 1,-42.12 132,-42.12 132,-25.88 1,-25.88"/>
<text xml:space="preserve" text-anchor="start" x="2" y="-29.73" font-family="Arial" font-size="12.00">surface transport system</text>
<polygon fill="none" stroke="black" points="0,-24.88 0,-43.12 133,-43.12 133,-24.88 0,-24.88"/>
</a>
</g>
</g>
<!-- transportSystem -->
<g id="node2" class="node">
<title>transportSystem</title>
<g id="a_node2"><a xlink:href="../transport system/" xlink:title="&lt;TABLE&gt;" target="_top">
<polygon fill="lightgray" stroke="none" points="22,-97.88 22,-114.12 111,-114.12 111,-97.88 22,-97.88"/>
<text xml:space="preserve" text-anchor="start" x="23" y="-101.72" font-family="Arial" font-size="12.00">transport system</text>
<polygon fill="none" stroke="black" points="21,-96.88 21,-115.12 112,-115.12 112,-96.88 21,-96.88"/>
</a>
</g>
</g>
<!-- surface transport system&#45;&gt;transportSystem -->
<g id="edge1" class="edge">
<title>surface transport system&#45;&gt;transportSystem</title>
<path fill="none" stroke="black" d="M66.5,-51.79C66.5,-59.25 66.5,-68.24 66.5,-76.69"/>
<polygon fill="none" stroke="black" points="63,-76.54 66.5,-86.54 70,-76.54 63,-76.54"/>
</g>
<!-- Invis -->
</g>
</svg>
