<?xml version="1.0" encoding="UTF-8" standalone="no"?>
<!DOCTYPE svg PUBLIC "-//W3C//DTD SVG 1.1//EN"
 "http://www.w3.org/Graphics/SVG/1.1/DTD/svg11.dtd">
<!-- Generated by graphviz version 14.0.2 (20251019.1705)
 -->
<!-- Pages: 1 -->
<svg width="230pt" height="347pt"
 viewBox="0.00 0.00 230.00 347.00" xmlns="http://www.w3.org/2000/svg" xmlns:xlink="http://www.w3.org/1999/xlink">
<g id="graph0" class="graph" transform="scale(1 1) rotate(0) translate(4 343)">
<polygon fill="white" stroke="none" points="-4,4 -4,-343 226.33,-343 226.33,4 -4,4"/>
<g id="clust2" class="cluster">
<title>cluster_associated</title>
</g>
<!-- system -->
<g id="node1" class="node">
<title>system</title>
<g id="a_node1"><a xlink:href="../classes/itsVocabulary__system.md" xlink:title="&lt;TABLE&gt;">
<polygon fill="lightgray" stroke="none" points="113.25,-296.88 113.25,-313.12 152.75,-313.12 152.75,-296.88 113.25,-296.88"/>
<text xml:space="preserve" text-anchor="start" x="114.25" y="-300.73" font-family="Arial" font-size="12.00">system</text>
<polygon fill="none" stroke="black" points="112.25,-295.88 112.25,-314.12 153.75,-314.12 153.75,-295.88 112.25,-295.88"/>
</a>
</g>
</g>
<!-- Invis -->
<!-- system&#45;&gt;Invis -->
<!-- architecture -->
<g id="node3" class="node">
<title>architecture</title>
<g id="a_node3"><a xlink:href="../architecture/" xlink:title="&lt;TABLE&gt;" target="_top">
<polygon fill="lightgray" stroke="none" points="18.88,-197.88 18.88,-214.12 83.12,-214.12 83.12,-197.88 18.88,-197.88"/>
<text xml:space="preserve" text-anchor="start" x="19.88" y="-201.72" font-family="Arial" font-size="12.00">architecture</text>
<polygon fill="none" stroke="black" points="17.88,-196.88 17.88,-215.12 84.12,-215.12 84.12,-196.88 17.88,-196.88"/>
</a>
</g>
</g>
<!-- system&#45;&gt;architecture -->
<g id="edge6" class="edge">
<title>system&#45;&gt;architecture</title>
<path fill="none" stroke="black" d="M106.05,-290.91C86.56,-281.39 63.51,-270 62.75,-269 55.49,-259.4 52.29,-246.63 51.01,-235.17"/>
<polygon fill="black" stroke="black" points="54.52,-235.15 50.38,-225.4 47.54,-235.61 54.52,-235.15"/>
<text xml:space="preserve" text-anchor="middle" x="86.38" y="-258.55" font-family="Arial" font-size="11.00"> exhibits </text>
<text xml:space="preserve" text-anchor="middle" x="86.38" y="-245.05" font-family="Arial" font-size="11.00"> «some» &#160;</text>
</g>
<!-- environment -->
<g id="node4" class="node">
<title>environment</title>
<g id="a_node4"><a xlink:href="../environment/" xlink:title="&lt;TABLE&gt;" target="_top">
<polygon fill="lightgray" stroke="none" points="17,-98.88 17,-115.12 85,-115.12 85,-98.88 17,-98.88"/>
<text xml:space="preserve" text-anchor="start" x="18" y="-102.72" font-family="Arial" font-size="12.00">environment</text>
<polygon fill="none" stroke="black" points="16,-97.88 16,-116.12 86,-116.12 86,-97.88 16,-97.88"/>
</a>
</g>
</g>
<!-- system&#45;&gt;environment -->
<g id="edge5" class="edge">
<title>system&#45;&gt;environment</title>
<path fill="none" stroke="black" d="M128.08,-287.18C121.2,-264.34 107.87,-222.42 93,-188 85.12,-169.75 74.74,-149.96 66.28,-134.63"/>
<polygon fill="black" stroke="black" points="69.46,-133.14 61.52,-126.12 63.35,-136.56 69.46,-133.14"/>
<text xml:space="preserve" text-anchor="middle" x="133.02" y="-209.05" font-family="Arial" font-size="11.00"> situatedIn </text>
<text xml:space="preserve" text-anchor="middle" x="133.02" y="-195.55" font-family="Arial" font-size="11.00"> «some» &#160;</text>
</g>
<!-- user -->
<g id="node5" class="node">
<title>user</title>
<g id="a_node5"><a xlink:href="../user/" xlink:title="&lt;TABLE&gt;" target="_top">
<polygon fill="lightgray" stroke="none" points="42.38,-25.88 42.38,-42.12 67.62,-42.12 67.62,-25.88 42.38,-25.88"/>
<text xml:space="preserve" text-anchor="start" x="43.38" y="-29.73" font-family="Arial" font-size="12.00">user</text>
<polygon fill="none" stroke="black" points="41.38,-24.88 41.38,-43.12 68.62,-43.12 68.62,-24.88 41.38,-24.88"/>
</a>
</g>
</g>
<!-- system&#45;&gt;user -->
<g id="edge7" class="edge">
<title>system&#45;&gt;user</title>
<path fill="none" stroke="black" d="M143.14,-287.34C155.6,-264.68 173.85,-222.97 163,-188 147.1,-136.78 106.86,-88.05 80.24,-59.86"/>
<polygon fill="black" stroke="black" points="82.97,-57.65 73.51,-52.88 77.93,-62.51 82.97,-57.65"/>
<text xml:space="preserve" text-anchor="middle" x="189.33" y="-159.55" font-family="Arial" font-size="11.00"> designedFor </text>
<text xml:space="preserve" text-anchor="middle" x="189.33" y="-146.05" font-family="Arial" font-size="11.00"> «some» &#160;</text>
</g>
<!-- Invis&#45;&gt;architecture -->
<!-- architecture&#45;&gt;environment -->
<!-- environment&#45;&gt;user -->
</g>
</svg>
