<?xml version="1.0" encoding="UTF-8" standalone="no"?>
<!DOCTYPE svg PUBLIC "-//W3C//DTD SVG 1.1//EN"
 "http://www.w3.org/Graphics/SVG/1.1/DTD/svg11.dtd">
<!-- Generated by graphviz version 14.0.2 (20251019.1705)
 -->
<!-- Pages: 1 -->
<svg width="182pt" height="132pt"
 viewBox="0.00 0.00 182.00 132.00" xmlns="http://www.w3.org/2000/svg" xmlns:xlink="http://www.w3.org/1999/xlink">
<g id="graph0" class="graph" transform="scale(1 1) rotate(0) translate(4 128)">
<polygon fill="white" stroke="none" points="-4,4 -4,-128 177.5,-128 177.5,4 -4,4"/>
<g id="clust2" class="cluster">
<title>cluster_associated</title>
</g>
<!-- taxi hailing app -->
<g id="node1" class="node">
<title>taxi hailing app</title>
<g id="a_node1"><a xlink:href="../classes/itsVocabulary__taxi hailing app.md" xlink:title="&lt;TABLE&gt;">
<polygon fill="lightgray" stroke="none" points="1,-25.88 1,-42.12 84,-42.12 84,-25.88 1,-25.88"/>
<text xml:space="preserve" text-anchor="start" x="2" y="-29.73" font-family="Arial" font-size="12.00">taxi hailing app</text>
<polygon fill="none" stroke="black" points="0,-24.88 0,-43.12 85,-43.12 85,-24.88 0,-24.88"/>
</a>
</g>
</g>
<!-- mobilityApp -->
<g id="node2" class="node">
<title>mobilityApp</title>
<g id="a_node2"><a xlink:href="../mobility app/" xlink:title="&lt;TABLE&gt;" target="_top">
<polygon fill="lightgray" stroke="none" points="9.25,-97.88 9.25,-114.12 75.75,-114.12 75.75,-97.88 9.25,-97.88"/>
<text xml:space="preserve" text-anchor="start" x="10.25" y="-101.72" font-family="Arial" font-size="12.00">mobility app</text>
<polygon fill="none" stroke="black" points="8.25,-96.88 8.25,-115.12 76.75,-115.12 76.75,-96.88 8.25,-96.88"/>
</a>
</g>
</g>
<!-- taxi hailing app&#45;&gt;mobilityApp -->
<g id="edge1" class="edge">
<title>taxi hailing app&#45;&gt;mobilityApp</title>
<path fill="none" stroke="black" d="M42.5,-51.79C42.5,-59.25 42.5,-68.24 42.5,-76.69"/>
<polygon fill="none" stroke="black" points="39,-76.54 42.5,-86.54 46,-76.54 39,-76.54"/>
</g>
<!-- Invis -->
</g>
</svg>
