<?xml version="1.0" encoding="UTF-8" standalone="no"?>
<!DOCTYPE svg PUBLIC "-//W3C//DTD SVG 1.1//EN"
 "http://www.w3.org/Graphics/SVG/1.1/DTD/svg11.dtd">
<!-- Generated by graphviz version 14.0.2 (20251019.1705)
 -->
<!-- Pages: 1 -->
<svg width="280pt" height="132pt"
 viewBox="0.00 0.00 280.00 132.00" xmlns="http://www.w3.org/2000/svg" xmlns:xlink="http://www.w3.org/1999/xlink">
<g id="graph0" class="graph" transform="scale(1 1) rotate(0) translate(4 128)">
<polygon fill="white" stroke="none" points="-4,4 -4,-128 276.38,-128 276.38,4 -4,4"/>
<g id="clust2" class="cluster">
<title>cluster_associated</title>
</g>
<!-- traffic management central system -->
<g id="node1" class="node">
<title>traffic management central system</title>
<g id="a_node1"><a xlink:href="../classes/itsVocabulary__traffic management central system.md" xlink:title="&lt;TABLE&gt;">
<polygon fill="lightgray" stroke="none" points="1,-25.88 1,-42.12 183.75,-42.12 183.75,-25.88 1,-25.88"/>
<text xml:space="preserve" text-anchor="start" x="2" y="-29.73" font-family="Arial" font-size="12.00">traffic management central system</text>
<polygon fill="none" stroke="black" points="0,-24.88 0,-43.12 184.75,-43.12 184.75,-24.88 0,-24.88"/>
</a>
</g>
</g>
<!-- centralSystem -->
<g id="node2" class="node">
<title>centralSystem</title>
<g id="a_node2"><a xlink:href="../central system/" xlink:title="&lt;TABLE&gt;" target="_top">
<polygon fill="lightgray" stroke="none" points="53.12,-97.88 53.12,-114.12 131.62,-114.12 131.62,-97.88 53.12,-97.88"/>
<text xml:space="preserve" text-anchor="start" x="54.12" y="-101.72" font-family="Arial" font-size="12.00">central system</text>
<polygon fill="none" stroke="black" points="52.12,-96.88 52.12,-115.12 132.62,-115.12 132.62,-96.88 52.12,-96.88"/>
</a>
</g>
</g>
<!-- traffic management central system&#45;&gt;centralSystem -->
<g id="edge1" class="edge">
<title>traffic management central system&#45;&gt;centralSystem</title>
<path fill="none" stroke="black" d="M92.38,-51.79C92.38,-59.25 92.38,-68.24 92.38,-76.69"/>
<polygon fill="none" stroke="black" points="88.88,-76.54 92.38,-86.54 95.88,-76.54 88.88,-76.54"/>
</g>
<!-- Invis -->
</g>
</svg>
