<?xml version="1.0" encoding="UTF-8" standalone="no"?>
<!DOCTYPE svg PUBLIC "-//W3C//DTD SVG 1.1//EN"
 "http://www.w3.org/Graphics/SVG/1.1/DTD/svg11.dtd">
<!-- Generated by graphviz version 14.0.2 (20251019.1705)
 -->
<!-- Pages: 1 -->
<svg width="188pt" height="132pt"
 viewBox="0.00 0.00 188.00 132.00" xmlns="http://www.w3.org/2000/svg" xmlns:xlink="http://www.w3.org/1999/xlink">
<g id="graph0" class="graph" transform="scale(1 1) rotate(0) translate(4 128)">
<polygon fill="white" stroke="none" points="-4,4 -4,-128 183.5,-128 183.5,4 -4,4"/>
<g id="clust2" class="cluster">
<title>cluster_associated</title>
</g>
<!-- transport system -->
<g id="node1" class="node">
<title>transport system</title>
<g id="a_node1"><a xlink:href="../classes/itsVocabulary__transport system.md" xlink:title="&lt;TABLE&gt;">
<polygon fill="lightgray" stroke="none" points="1,-25.88 1,-42.12 90,-42.12 90,-25.88 1,-25.88"/>
<text xml:space="preserve" text-anchor="start" x="2" y="-29.73" font-family="Arial" font-size="12.00">transport system</text>
<polygon fill="none" stroke="black" points="0,-24.88 0,-43.12 91,-43.12 91,-24.88 0,-24.88"/>
</a>
</g>
</g>
<!-- system -->
<g id="node2" class="node">
<title>system</title>
<g id="a_node2"><a xlink:href="../system/" xlink:title="&lt;TABLE&gt;" target="_top">
<polygon fill="lightgray" stroke="none" points="25.75,-97.88 25.75,-114.12 65.25,-114.12 65.25,-97.88 25.75,-97.88"/>
<text xml:space="preserve" text-anchor="start" x="26.75" y="-101.72" font-family="Arial" font-size="12.00">system</text>
<polygon fill="none" stroke="black" points="24.75,-96.88 24.75,-115.12 66.25,-115.12 66.25,-96.88 24.75,-96.88"/>
</a>
</g>
</g>
<!-- transport system&#45;&gt;system -->
<g id="edge1" class="edge">
<title>transport system&#45;&gt;system</title>
<path fill="none" stroke="black" d="M45.5,-51.79C45.5,-59.25 45.5,-68.24 45.5,-76.69"/>
<polygon fill="none" stroke="black" points="42,-76.54 45.5,-86.54 49,-76.54 42,-76.54"/>
</g>
<!-- Invis -->
</g>
</svg>
