<?xml version="1.0" encoding="UTF-8" standalone="no"?>
<!DOCTYPE svg PUBLIC "-//W3C//DTD SVG 1.1//EN"
 "http://www.w3.org/Graphics/SVG/1.1/DTD/svg11.dtd">
<!-- Generated by graphviz version 14.0.2 (20251019.1705)
 -->
<!-- Pages: 1 -->
<svg width="251pt" height="232pt"
 viewBox="0.00 0.00 251.00 232.00" xmlns="http://www.w3.org/2000/svg" xmlns:xlink="http://www.w3.org/1999/xlink">
<g id="graph0" class="graph" transform="scale(1 1) rotate(0) translate(4 228)">
<polygon fill="white" stroke="none" points="-4,4 -4,-228 247.25,-228 247.25,4 -4,4"/>
<g id="clust2" class="cluster">
<title>cluster_associated</title>
</g>
<!-- transport infrastructure -->
<g id="node1" class="node">
<title>transport infrastructure</title>
<g id="a_node1"><a xlink:href="../classes/itsVocabulary__transport infrastructure.md" xlink:title="&lt;TABLE&gt;">
<polygon fill="lightgray" stroke="none" points="121.75,-124.88 121.75,-141.12 242.25,-141.12 242.25,-124.88 121.75,-124.88"/>
<text xml:space="preserve" text-anchor="start" x="122.75" y="-128.72" font-family="Arial" font-size="12.00">transport infrastructure</text>
<polygon fill="none" stroke="black" points="120.75,-123.88 120.75,-142.12 243.25,-142.12 243.25,-123.88 120.75,-123.88"/>
</a>
</g>
</g>
<!-- system -->
<g id="node2" class="node">
<title>system</title>
<g id="a_node2"><a xlink:href="../system/" xlink:title="&lt;TABLE&gt;" target="_top">
<polygon fill="lightgray" stroke="none" points="162.25,-197.88 162.25,-214.12 201.75,-214.12 201.75,-197.88 162.25,-197.88"/>
<text xml:space="preserve" text-anchor="start" x="163.25" y="-201.72" font-family="Arial" font-size="12.00">system</text>
<polygon fill="none" stroke="black" points="161.25,-196.88 161.25,-215.12 202.75,-215.12 202.75,-196.88 161.25,-196.88"/>
</a>
</g>
</g>
<!-- transport infrastructure&#45;&gt;system -->
<g id="edge1" class="edge">
<title>transport infrastructure&#45;&gt;system</title>
<path fill="none" stroke="black" d="M182,-150.71C182,-158.47 182,-167.92 182,-176.74"/>
<polygon fill="none" stroke="black" points="178.5,-176.66 182,-186.66 185.5,-176.66 178.5,-176.66"/>
</g>
<!-- Invis -->
<!-- transport infrastructure&#45;&gt;Invis -->
<!-- transportFacility -->
<g id="node4" class="node">
<title>transportFacility</title>
<g id="a_node4"><a xlink:href="../transport facility/" xlink:title="&lt;TABLE&gt;" target="_top">
<polygon fill="lightgray" stroke="none" points="17.38,-25.88 17.38,-42.12 102.62,-42.12 102.62,-25.88 17.38,-25.88"/>
<text xml:space="preserve" text-anchor="start" x="18.38" y="-29.73" font-family="Arial" font-size="12.00">transport facility</text>
<polygon fill="none" stroke="black" points="16.38,-24.88 16.38,-43.12 103.62,-43.12 103.62,-24.88 16.38,-24.88"/>
</a>
</g>
</g>
<!-- transport infrastructure&#45;&gt;transportFacility -->
<g id="edge4" class="edge">
<title>transport infrastructure&#45;&gt;transportFacility</title>
<path fill="none" stroke="black" d="M160.75,-115.1C141.16,-99.53 111.87,-76.24 89.92,-58.79"/>
<polygon fill="black" stroke="black" points="92.2,-56.13 82.19,-52.64 87.84,-61.61 92.2,-56.13"/>
<text xml:space="preserve" text-anchor="middle" x="161.02" y="-86.55" font-family="Arial" font-size="11.00"> systemOf </text>
<text xml:space="preserve" text-anchor="middle" x="161.02" y="-73.05" font-family="Arial" font-size="11.00"> «some» &#160;</text>
</g>
<!-- Invis&#45;&gt;transportFacility -->
</g>
</svg>
