<?xml version="1.0" encoding="UTF-8" standalone="no"?>
<!DOCTYPE svg PUBLIC "-//W3C//DTD SVG 1.1//EN"
 "http://www.w3.org/Graphics/SVG/1.1/DTD/svg11.dtd">
<!-- Generated by graphviz version 14.0.2 (20251019.1705)
 -->
<!-- Pages: 1 -->
<svg width="242pt" height="404pt"
 viewBox="0.00 0.00 242.00 404.00" xmlns="http://www.w3.org/2000/svg" xmlns:xlink="http://www.w3.org/1999/xlink">
<g id="graph0" class="graph" transform="scale(1 1) rotate(0) translate(4 400)">
<polygon fill="white" stroke="none" points="-4,4 -4,-400 237.86,-400 237.86,4 -4,4"/>
<g id="clust2" class="cluster">
<title>cluster_associated</title>
</g>
<!-- transport service -->
<g id="node1" class="node">
<title>transport service</title>
<g id="a_node1"><a xlink:href="../classes/itsVocabulary__transport service.md" xlink:title="&lt;TABLE&gt;">
<polygon fill="lightgray" stroke="none" points="139.12,-296.88 139.12,-313.12 228.88,-313.12 228.88,-296.88 139.12,-296.88"/>
<text xml:space="preserve" text-anchor="start" x="140.12" y="-300.73" font-family="Arial" font-size="12.00">transport service</text>
<polygon fill="none" stroke="black" points="138.12,-295.88 138.12,-314.12 229.88,-314.12 229.88,-295.88 138.12,-295.88"/>
</a>
</g>
</g>
<!-- service -->
<g id="node2" class="node">
<title>service</title>
<g id="a_node2"><a xlink:href="../service/" xlink:title="&lt;TABLE&gt;" target="_top">
<polygon fill="lightgray" stroke="none" points="163.88,-369.88 163.88,-386.12 204.12,-386.12 204.12,-369.88 163.88,-369.88"/>
<text xml:space="preserve" text-anchor="start" x="164.88" y="-373.73" font-family="Arial" font-size="12.00">service</text>
<polygon fill="none" stroke="black" points="162.88,-368.88 162.88,-387.12 205.12,-387.12 205.12,-368.88 162.88,-368.88"/>
</a>
</g>
</g>
<!-- transport service&#45;&gt;service -->
<g id="edge1" class="edge">
<title>transport service&#45;&gt;service</title>
<path fill="none" stroke="black" d="M184,-322.71C184,-330.47 184,-339.92 184,-348.74"/>
<polygon fill="none" stroke="black" points="180.5,-348.66 184,-358.66 187.5,-348.66 180.5,-348.66"/>
</g>
<!-- Invis -->
<!-- transport service&#45;&gt;Invis -->
<!-- materialEntity -->
<g id="node4" class="node">
<title>materialEntity</title>
<g id="a_node4"><a xlink:href="../material entity/" xlink:title="&lt;TABLE&gt;" target="_top">
<polygon fill="lightgray" stroke="none" points="37.88,-197.88 37.88,-214.12 114.12,-214.12 114.12,-197.88 37.88,-197.88"/>
<text xml:space="preserve" text-anchor="start" x="38.88" y="-201.72" font-family="Arial" font-size="12.00">material entity</text>
<polygon fill="none" stroke="black" points="36.88,-196.88 36.88,-215.12 115.12,-215.12 115.12,-196.88 36.88,-196.88"/>
</a>
</g>
</g>
<!-- transport service&#45;&gt;materialEntity -->
<g id="edge8" class="edge">
<title>transport service&#45;&gt;materialEntity</title>
<path fill="none" stroke="black" d="M138.16,-288.02C113.52,-279.33 87.95,-270.13 87,-269 79.21,-259.75 76.1,-246.93 75.08,-235.34"/>
<polygon fill="black" stroke="black" points="78.58,-235.29 74.71,-225.42 71.58,-235.54 78.58,-235.29"/>
<text xml:space="preserve" text-anchor="middle" x="114" y="-258.55" font-family="Arial" font-size="11.00"> transports </text>
<text xml:space="preserve" text-anchor="middle" x="114" y="-245.05" font-family="Arial" font-size="11.00"> «some» &#160;</text>
</g>
<!-- transportUser -->
<g id="node5" class="node">
<title>transportUser</title>
<g id="a_node5"><a xlink:href="../transport user/" xlink:title="&lt;TABLE&gt;" target="_top">
<polygon fill="lightgray" stroke="none" points="38.62,-98.88 38.62,-115.12 113.38,-115.12 113.38,-98.88 38.62,-98.88"/>
<text xml:space="preserve" text-anchor="start" x="39.62" y="-102.72" font-family="Arial" font-size="12.00">transport user</text>
<polygon fill="none" stroke="black" points="37.62,-97.88 37.62,-116.12 114.38,-116.12 114.38,-97.88 37.62,-97.88"/>
</a>
</g>
</g>
<!-- transport service&#45;&gt;transportUser -->
<g id="edge7" class="edge">
<title>transport service&#45;&gt;transportUser</title>
<path fill="none" stroke="black" d="M175.78,-287.31C164.51,-264.61 143.44,-222.85 124,-188 113.9,-169.9 101.91,-149.9 92.43,-134.43"/>
<polygon fill="black" stroke="black" points="95.63,-132.95 87.41,-126.27 89.67,-136.62 95.63,-132.95"/>
<text xml:space="preserve" text-anchor="middle" x="166.6" y="-209.05" font-family="Arial" font-size="11.00"> for </text>
<text xml:space="preserve" text-anchor="middle" x="166.6" y="-195.55" font-family="Arial" font-size="11.00"> «some» &#160;</text>
</g>
<!-- transportUserNeed -->
<g id="node6" class="node">
<title>transportUserNeed</title>
<g id="a_node6"><a xlink:href="../transport user need/" xlink:title="&lt;TABLE&gt;" target="_top">
<polygon fill="lightgray" stroke="none" points="16.62,-25.88 16.62,-42.12 121.38,-42.12 121.38,-25.88 16.62,-25.88"/>
<text xml:space="preserve" text-anchor="start" x="17.62" y="-29.73" font-family="Arial" font-size="12.00">transport user need</text>
<polygon fill="none" stroke="black" points="15.62,-24.88 15.62,-43.12 122.38,-43.12 122.38,-24.88 15.62,-24.88"/>
</a>
</g>
</g>
<!-- transport service&#45;&gt;transportUserNeed -->
<g id="edge6" class="edge">
<title>transport service&#45;&gt;transportUserNeed</title>
<path fill="none" stroke="black" d="M189.51,-287.02C196.08,-264 204.89,-221.87 194,-188 176.73,-134.27 130.02,-86.41 98.85,-59.06"/>
<polygon fill="black" stroke="black" points="101.53,-56.75 91.66,-52.89 96.97,-62.06 101.53,-56.75"/>
<text xml:space="preserve" text-anchor="middle" x="210.23" y="-159.55" font-family="Arial" font-size="11.00"> fulfils </text>
<text xml:space="preserve" text-anchor="middle" x="210.23" y="-146.05" font-family="Arial" font-size="11.00"> «some» &#160;</text>
</g>
<!-- Invis&#45;&gt;materialEntity -->
<!-- materialEntity&#45;&gt;transportUser -->
<!-- transportUser&#45;&gt;transportUserNeed -->
</g>
</svg>
