<?xml version="1.0" encoding="UTF-8" standalone="no"?>
<!DOCTYPE svg PUBLIC "-//W3C//DTD SVG 1.1//EN"
 "http://www.w3.org/Graphics/SVG/1.1/DTD/svg11.dtd">
<!-- Generated by graphviz version 14.0.2 (20251019.1705)
 -->
<!-- Pages: 1 -->
<svg width="224pt" height="132pt"
 viewBox="0.00 0.00 224.00 132.00" xmlns="http://www.w3.org/2000/svg" xmlns:xlink="http://www.w3.org/1999/xlink">
<g id="graph0" class="graph" transform="scale(1 1) rotate(0) translate(4 128)">
<polygon fill="white" stroke="none" points="-4,4 -4,-128 219.88,-128 219.88,4 -4,4"/>
<g id="clust2" class="cluster">
<title>cluster_associated</title>
</g>
<!-- ultra&#45;low&#45;speed vehicle -->
<g id="node1" class="node">
<title>ultra&#45;low&#45;speed vehicle</title>
<g id="a_node1"><a xlink:href="../classes/itsVocabulary__ultra-low-speed vehicle.md" xlink:title="&lt;TABLE&gt;">
<polygon fill="lightgray" stroke="none" points="1,-25.88 1,-42.12 126.75,-42.12 126.75,-25.88 1,-25.88"/>
<text xml:space="preserve" text-anchor="start" x="2" y="-29.73" font-family="Arial" font-size="12.00">ultra&#45;low&#45;speed vehicle</text>
<polygon fill="none" stroke="black" points="0,-24.88 0,-43.12 127.75,-43.12 127.75,-24.88 0,-24.88"/>
</a>
</g>
</g>
<!-- vehicle -->
<g id="node2" class="node">
<title>vehicle</title>
<g id="a_node2"><a xlink:href="../vehicle/" xlink:title="&lt;TABLE&gt;" target="_top">
<polygon fill="lightgray" stroke="none" points="43.75,-97.88 43.75,-114.12 84,-114.12 84,-97.88 43.75,-97.88"/>
<text xml:space="preserve" text-anchor="start" x="44.75" y="-101.72" font-family="Arial" font-size="12.00">vehicle</text>
<polygon fill="none" stroke="black" points="42.75,-96.88 42.75,-115.12 85,-115.12 85,-96.88 42.75,-96.88"/>
</a>
</g>
</g>
<!-- ultra&#45;low&#45;speed vehicle&#45;&gt;vehicle -->
<g id="edge1" class="edge">
<title>ultra&#45;low&#45;speed vehicle&#45;&gt;vehicle</title>
<path fill="none" stroke="black" d="M63.88,-51.79C63.88,-59.25 63.88,-68.24 63.88,-76.69"/>
<polygon fill="none" stroke="black" points="60.38,-76.54 63.88,-86.54 67.38,-76.54 60.38,-76.54"/>
</g>
<!-- Invis -->
</g>
</svg>
