<?xml version="1.0" encoding="UTF-8" standalone="no"?>
<!DOCTYPE svg PUBLIC "-//W3C//DTD SVG 1.1//EN"
 "http://www.w3.org/Graphics/SVG/1.1/DTD/svg11.dtd">
<!-- Generated by graphviz version 14.0.2 (20251019.1705)
 -->
<!-- Pages: 1 -->
<svg width="170pt" height="132pt"
 viewBox="0.00 0.00 170.00 132.00" xmlns="http://www.w3.org/2000/svg" xmlns:xlink="http://www.w3.org/1999/xlink">
<g id="graph0" class="graph" transform="scale(1 1) rotate(0) translate(4 128)">
<polygon fill="white" stroke="none" points="-4,4 -4,-128 165.5,-128 165.5,4 -4,4"/>
<g id="clust2" class="cluster">
<title>cluster_associated</title>
</g>
<!-- unconnected -->
<g id="node1" class="node">
<title>unconnected</title>
<g id="a_node1"><a xlink:href="../classes/itsVocabulary__unconnected.md" xlink:title="&lt;TABLE&gt;">
<polygon fill="lightgray" stroke="none" points="1,-25.88 1,-42.12 72,-42.12 72,-25.88 1,-25.88"/>
<text xml:space="preserve" text-anchor="start" x="2" y="-29.73" font-family="Arial" font-size="12.00">unconnected</text>
<polygon fill="none" stroke="black" points="0,-24.88 0,-43.12 73,-43.12 73,-24.88 0,-24.88"/>
</a>
</g>
</g>
<!-- off&#45;grid -->
<g id="node2" class="node">
<title>off&#45;grid</title>
<g id="a_node2"><a xlink:href="../off-grid/" xlink:title="&lt;TABLE&gt;" target="_top">
<polygon fill="lightgray" stroke="none" points="17.12,-97.88 17.12,-114.12 55.88,-114.12 55.88,-97.88 17.12,-97.88"/>
<text xml:space="preserve" text-anchor="start" x="18.12" y="-101.72" font-family="Arial" font-size="12.00">off&#45;grid</text>
<polygon fill="none" stroke="black" points="16.12,-96.88 16.12,-115.12 56.88,-115.12 56.88,-96.88 16.12,-96.88"/>
</a>
</g>
</g>
<!-- unconnected&#45;&gt;off&#45;grid -->
<g id="edge1" class="edge">
<title>unconnected&#45;&gt;off&#45;grid</title>
<path fill="none" stroke="black" d="M36.5,-51.79C36.5,-59.25 36.5,-68.24 36.5,-76.69"/>
<polygon fill="none" stroke="black" points="33,-76.54 36.5,-86.54 40,-76.54 33,-76.54"/>
</g>
<!-- Invis -->
</g>
</svg>
