<?xml version="1.0" encoding="UTF-8" standalone="no"?>
<!DOCTYPE svg PUBLIC "-//W3C//DTD SVG 1.1//EN"
 "http://www.w3.org/Graphics/SVG/1.1/DTD/svg11.dtd">
<!-- Generated by graphviz version 14.0.2 (20251019.1705)
 -->
<!-- Pages: 1 -->
<svg width="164pt" height="132pt"
 viewBox="0.00 0.00 164.00 132.00" xmlns="http://www.w3.org/2000/svg" xmlns:xlink="http://www.w3.org/1999/xlink">
<g id="graph0" class="graph" transform="scale(1 1) rotate(0) translate(4 128)">
<polygon fill="white" stroke="none" points="-4,4 -4,-128 159.88,-128 159.88,4 -4,4"/>
<g id="clust2" class="cluster">
<title>cluster_associated</title>
</g>
<!-- unequipped -->
<g id="node1" class="node">
<title>unequipped</title>
<g id="a_node1"><a xlink:href="../classes/itsVocabulary__unequipped.md" xlink:title="&lt;TABLE&gt;">
<polygon fill="lightgray" stroke="none" points="1,-25.88 1,-42.12 66.75,-42.12 66.75,-25.88 1,-25.88"/>
<text xml:space="preserve" text-anchor="start" x="2" y="-29.73" font-family="Arial" font-size="12.00">unequipped</text>
<polygon fill="none" stroke="black" points="0,-24.88 0,-43.12 67.75,-43.12 67.75,-24.88 0,-24.88"/>
</a>
</g>
</g>
<!-- off&#45;grid -->
<g id="node2" class="node">
<title>off&#45;grid</title>
<g id="a_node2"><a xlink:href="../off-grid/" xlink:title="&lt;TABLE&gt;" target="_top">
<polygon fill="lightgray" stroke="none" points="14.5,-97.88 14.5,-114.12 53.25,-114.12 53.25,-97.88 14.5,-97.88"/>
<text xml:space="preserve" text-anchor="start" x="15.5" y="-101.72" font-family="Arial" font-size="12.00">off&#45;grid</text>
<polygon fill="none" stroke="black" points="13.5,-96.88 13.5,-115.12 54.25,-115.12 54.25,-96.88 13.5,-96.88"/>
</a>
</g>
</g>
<!-- unequipped&#45;&gt;off&#45;grid -->
<g id="edge1" class="edge">
<title>unequipped&#45;&gt;off&#45;grid</title>
<path fill="none" stroke="black" d="M33.88,-51.79C33.88,-59.25 33.88,-68.24 33.88,-76.69"/>
<polygon fill="none" stroke="black" points="30.38,-76.54 33.88,-86.54 37.38,-76.54 30.38,-76.54"/>
</g>
<!-- Invis -->
</g>
</svg>
