<?xml version="1.0" encoding="UTF-8" standalone="no"?>
<!DOCTYPE svg PUBLIC "-//W3C//DTD SVG 1.1//EN"
 "http://www.w3.org/Graphics/SVG/1.1/DTD/svg11.dtd">
<!-- Generated by graphviz version 14.0.2 (20251019.1705)
 -->
<!-- Pages: 1 -->
<svg width="186pt" height="175pt"
 viewBox="0.00 0.00 186.00 175.00" xmlns="http://www.w3.org/2000/svg" xmlns:xlink="http://www.w3.org/1999/xlink">
<g id="graph0" class="graph" transform="scale(1 1) rotate(0) translate(4 171)">
<polygon fill="white" stroke="none" points="-4,4 -4,-171 181.75,-171 181.75,4 -4,4"/>
<g id="clust2" class="cluster">
<title>cluster_associated</title>
</g>
<!-- usable width -->
<g id="node1" class="node">
<title>usable width</title>
<g id="a_node1"><a xlink:href="../classes/itsVocabulary__usable width.md" xlink:title="&lt;TABLE&gt;">
<polygon fill="lightgray" stroke="none" points="1,-124.88 1,-141.12 70.5,-141.12 70.5,-124.88 1,-124.88"/>
<text xml:space="preserve" text-anchor="start" x="2" y="-128.72" font-family="Arial" font-size="12.00">usable width</text>
<polygon fill="none" stroke="black" points="0,-123.88 0,-142.12 71.5,-142.12 71.5,-123.88 0,-123.88"/>
</a>
</g>
</g>
<!-- Invis -->
<!-- usable width&#45;&gt;Invis -->
<!-- trafficLane -->
<g id="node3" class="node">
<title>trafficLane</title>
<g id="a_node3"><a xlink:href="../traffic lane/" xlink:title="&lt;TABLE&gt;" target="_top">
<polygon fill="lightgray" stroke="none" points="104.38,-25.88 104.38,-42.12 161.12,-42.12 161.12,-25.88 104.38,-25.88"/>
<text xml:space="preserve" text-anchor="start" x="105.38" y="-29.73" font-family="Arial" font-size="12.00">traffic lane</text>
<polygon fill="none" stroke="black" points="103.38,-24.88 103.38,-43.12 162.12,-43.12 162.12,-24.88 103.38,-24.88"/>
</a>
</g>
</g>
<!-- usable width&#45;&gt;trafficLane -->
<g id="edge3" class="edge">
<title>usable width&#45;&gt;trafficLane</title>
<path fill="none" stroke="black" d="M43.31,-115.22C49.96,-101.8 60.66,-83.13 74,-70 79.87,-64.22 86.88,-58.99 93.98,-54.46"/>
<polygon fill="black" stroke="black" points="95.53,-57.61 102.32,-49.48 91.94,-51.6 95.53,-57.61"/>
<text xml:space="preserve" text-anchor="middle" x="101.38" y="-86.55" font-family="Arial" font-size="11.00"> comprises </text>
<text xml:space="preserve" text-anchor="middle" x="101.38" y="-73.05" font-family="Arial" font-size="11.00"> «some» &#160;</text>
</g>
<!-- Invis&#45;&gt;trafficLane -->
</g>
</svg>
