<?xml version="1.0" encoding="UTF-8" standalone="no"?>
<!DOCTYPE svg PUBLIC "-//W3C//DTD SVG 1.1//EN"
 "http://www.w3.org/Graphics/SVG/1.1/DTD/svg11.dtd">
<!-- Generated by graphviz version 14.0.2 (20251019.1705)
 -->
<!-- Pages: 1 -->
<svg width="173pt" height="175pt"
 viewBox="0.00 0.00 173.00 175.00" xmlns="http://www.w3.org/2000/svg" xmlns:xlink="http://www.w3.org/1999/xlink">
<g id="graph0" class="graph" transform="scale(1 1) rotate(0) translate(4 171)">
<polygon fill="white" stroke="none" points="-4,4 -4,-171 168.62,-171 168.62,4 -4,4"/>
<g id="clust2" class="cluster">
<title>cluster_associated</title>
</g>
<!-- user need -->
<g id="node1" class="node">
<title>user need</title>
<g id="a_node1"><a xlink:href="../classes/itsVocabulary__user need.md" xlink:title="&lt;TABLE&gt;">
<polygon fill="lightgray" stroke="none" points="1,-124.88 1,-141.12 56.25,-141.12 56.25,-124.88 1,-124.88"/>
<text xml:space="preserve" text-anchor="start" x="2" y="-128.72" font-family="Arial" font-size="12.00">user need</text>
<polygon fill="none" stroke="black" points="0,-123.88 0,-142.12 57.25,-142.12 57.25,-123.88 0,-123.88"/>
</a>
</g>
</g>
<!-- Invis -->
<!-- user need&#45;&gt;Invis -->
<!-- user -->
<g id="node3" class="node">
<title>user</title>
<g id="a_node3"><a xlink:href="../user/" xlink:title="&lt;TABLE&gt;" target="_top">
<polygon fill="lightgray" stroke="none" points="109,-25.88 109,-42.12 134.25,-42.12 134.25,-25.88 109,-25.88"/>
<text xml:space="preserve" text-anchor="start" x="110" y="-29.73" font-family="Arial" font-size="12.00">user</text>
<polygon fill="none" stroke="black" points="108,-24.88 108,-43.12 135.25,-43.12 135.25,-24.88 108,-24.88"/>
</a>
</g>
</g>
<!-- user need&#45;&gt;user -->
<g id="edge3" class="edge">
<title>user need&#45;&gt;user</title>
<path fill="none" stroke="black" d="M23.95,-115.19C21.27,-101.75 20.02,-83.07 29.12,-70 41.43,-52.34 63.88,-43.58 83.57,-39.24"/>
<polygon fill="black" stroke="black" points="84.07,-42.71 93.27,-37.44 82.8,-35.83 84.07,-42.71"/>
<text xml:space="preserve" text-anchor="middle" x="73.38" y="-86.55" font-family="Arial" font-size="11.00"> desiredResultsOf </text>
<text xml:space="preserve" text-anchor="middle" x="73.38" y="-73.05" font-family="Arial" font-size="11.00"> «some» &#160;</text>
</g>
<!-- Invis&#45;&gt;user -->
</g>
</svg>
