<?xml version="1.0" encoding="UTF-8" standalone="no"?>
<!DOCTYPE svg PUBLIC "-//W3C//DTD SVG 1.1//EN"
 "http://www.w3.org/Graphics/SVG/1.1/DTD/svg11.dtd">
<!-- Generated by graphviz version 14.0.2 (20251019.1705)
 -->
<!-- Pages: 1 -->
<svg width="172pt" height="132pt"
 viewBox="0.00 0.00 172.00 132.00" xmlns="http://www.w3.org/2000/svg" xmlns:xlink="http://www.w3.org/1999/xlink">
<g id="graph0" class="graph" transform="scale(1 1) rotate(0) translate(4 128)">
<polygon fill="white" stroke="none" points="-4,4 -4,-128 168,-128 168,4 -4,4"/>
<g id="clust2" class="cluster">
<title>cluster_associated</title>
</g>
<!-- value domain -->
<g id="node1" class="node">
<title>value domain</title>
<g id="a_node1"><a xlink:href="../classes/itsVocabulary__value domain.md" xlink:title="&lt;TABLE&gt;">
<polygon fill="lightgray" stroke="none" points="1,-25.88 1,-42.12 75,-42.12 75,-25.88 1,-25.88"/>
<text xml:space="preserve" text-anchor="start" x="2" y="-29.73" font-family="Arial" font-size="12.00">value domain</text>
<polygon fill="none" stroke="black" points="0,-24.88 0,-43.12 76,-43.12 76,-24.88 0,-24.88"/>
</a>
</g>
</g>
<!-- dataConcept -->
<g id="node2" class="node">
<title>dataConcept</title>
<g id="a_node2"><a xlink:href="../data concept/" xlink:title="&lt;TABLE&gt;" target="_top">
<polygon fill="lightgray" stroke="none" points="2.88,-97.88 2.88,-114.12 73.12,-114.12 73.12,-97.88 2.88,-97.88"/>
<text xml:space="preserve" text-anchor="start" x="3.88" y="-101.72" font-family="Arial" font-size="12.00">data concept</text>
<polygon fill="none" stroke="black" points="1.88,-96.88 1.88,-115.12 74.12,-115.12 74.12,-96.88 1.88,-96.88"/>
</a>
</g>
</g>
<!-- value domain&#45;&gt;dataConcept -->
<g id="edge1" class="edge">
<title>value domain&#45;&gt;dataConcept</title>
<path fill="none" stroke="black" d="M38,-51.79C38,-59.25 38,-68.24 38,-76.69"/>
<polygon fill="none" stroke="black" points="34.5,-76.54 38,-86.54 41.5,-76.54 34.5,-76.54"/>
</g>
<!-- Invis -->
</g>
</svg>
