<?xml version="1.0" encoding="UTF-8" standalone="no"?>
<!DOCTYPE svg PUBLIC "-//W3C//DTD SVG 1.1//EN"
 "http://www.w3.org/Graphics/SVG/1.1/DTD/svg11.dtd">
<!-- Generated by graphviz version 14.0.2 (20251019.1705)
 -->
<!-- Pages: 1 -->
<svg width="215pt" height="175pt"
 viewBox="0.00 0.00 215.00 175.00" xmlns="http://www.w3.org/2000/svg" xmlns:xlink="http://www.w3.org/1999/xlink">
<g id="graph0" class="graph" transform="scale(1 1) rotate(0) translate(4 171)">
<polygon fill="white" stroke="none" points="-4,4 -4,-171 210.75,-171 210.75,4 -4,4"/>
<g id="clust2" class="cluster">
<title>cluster_associated</title>
</g>
<!-- vehicle equipment -->
<g id="node1" class="node">
<title>vehicle equipment</title>
<g id="a_node1"><a xlink:href="../classes/itsVocabulary__vehicle equipment.md" xlink:title="&lt;TABLE&gt;">
<polygon fill="lightgray" stroke="none" points="1,-124.88 1,-141.12 100.5,-141.12 100.5,-124.88 1,-124.88"/>
<text xml:space="preserve" text-anchor="start" x="2" y="-128.72" font-family="Arial" font-size="12.00">vehicle equipment</text>
<polygon fill="none" stroke="black" points="0,-123.88 0,-142.12 101.5,-142.12 101.5,-123.88 0,-123.88"/>
</a>
</g>
</g>
<!-- Invis -->
<!-- vehicle equipment&#45;&gt;Invis -->
<!-- vehicle -->
<g id="node3" class="node">
<title>vehicle</title>
<g id="a_node3"><a xlink:href="../vehicle/" xlink:title="&lt;TABLE&gt;" target="_top">
<polygon fill="lightgray" stroke="none" points="143.62,-25.88 143.62,-42.12 183.88,-42.12 183.88,-25.88 143.62,-25.88"/>
<text xml:space="preserve" text-anchor="start" x="144.62" y="-29.73" font-family="Arial" font-size="12.00">vehicle</text>
<polygon fill="none" stroke="black" points="142.62,-24.88 142.62,-43.12 184.88,-43.12 184.88,-24.88 142.62,-24.88"/>
</a>
</g>
</g>
<!-- vehicle equipment&#45;&gt;vehicle -->
<g id="edge3" class="edge">
<title>vehicle equipment&#45;&gt;vehicle</title>
<path fill="none" stroke="black" d="M52.1,-115.23C54.05,-101.46 58.83,-82.28 70.5,-70 85.07,-54.67 107,-46 125.94,-41.12"/>
<polygon fill="black" stroke="black" points="126.51,-44.58 135.48,-38.95 124.95,-37.76 126.51,-44.58"/>
<text xml:space="preserve" text-anchor="middle" x="115.12" y="-86.55" font-family="Arial" font-size="11.00"> inUseOrOnBoard </text>
<text xml:space="preserve" text-anchor="middle" x="115.12" y="-73.05" font-family="Arial" font-size="11.00"> «exactly 1» &#160;</text>
</g>
<!-- Invis&#45;&gt;vehicle -->
</g>
</svg>
