<?xml version="1.0" encoding="UTF-8" standalone="no"?>
<!DOCTYPE svg PUBLIC "-//W3C//DTD SVG 1.1//EN"
 "http://www.w3.org/Graphics/SVG/1.1/DTD/svg11.dtd">
<!-- Generated by graphviz version 14.0.2 (20251019.1705)
 -->
<!-- Pages: 1 -->
<svg width="208pt" height="175pt"
 viewBox="0.00 0.00 208.00 175.00" xmlns="http://www.w3.org/2000/svg" xmlns:xlink="http://www.w3.org/1999/xlink">
<g id="graph0" class="graph" transform="scale(1 1) rotate(0) translate(4 171)">
<polygon fill="white" stroke="none" points="-4,4 -4,-171 204,-171 204,4 -4,4"/>
<g id="clust2" class="cluster">
<title>cluster_associated</title>
</g>
<!-- vehicle load type -->
<g id="node1" class="node">
<title>vehicle load type</title>
<g id="a_node1"><a xlink:href="../classes/itsVocabulary__vehicle load type.md" xlink:title="&lt;TABLE&gt;">
<polygon fill="lightgray" stroke="none" points="1,-124.88 1,-141.12 93,-141.12 93,-124.88 1,-124.88"/>
<text xml:space="preserve" text-anchor="start" x="2" y="-128.72" font-family="Arial" font-size="12.00">vehicle load type</text>
<polygon fill="none" stroke="black" points="0,-123.88 0,-142.12 94,-142.12 94,-123.88 0,-123.88"/>
</a>
</g>
</g>
<!-- Invis -->
<!-- vehicle load type&#45;&gt;Invis -->
<!-- vehicle -->
<g id="node3" class="node">
<title>vehicle</title>
<g id="a_node3"><a xlink:href="../vehicle/" xlink:title="&lt;TABLE&gt;" target="_top">
<polygon fill="lightgray" stroke="none" points="136.88,-25.88 136.88,-42.12 177.12,-42.12 177.12,-25.88 136.88,-25.88"/>
<text xml:space="preserve" text-anchor="start" x="137.88" y="-29.73" font-family="Arial" font-size="12.00">vehicle</text>
<polygon fill="none" stroke="black" points="135.88,-24.88 135.88,-43.12 178.12,-43.12 178.12,-24.88 135.88,-24.88"/>
</a>
</g>
</g>
<!-- vehicle load type&#45;&gt;vehicle -->
<g id="edge3" class="edge">
<title>vehicle load type&#45;&gt;vehicle</title>
<path fill="none" stroke="black" d="M51.92,-115.05C56.66,-101.35 65.03,-82.38 78,-70 89.59,-58.94 105.25,-51.02 119.58,-45.54"/>
<polygon fill="black" stroke="black" points="120.48,-48.93 128.75,-42.32 118.16,-42.33 120.48,-48.93"/>
<text xml:space="preserve" text-anchor="middle" x="115.5" y="-86.55" font-family="Arial" font-size="11.00"> loadCarriedBy </text>
<text xml:space="preserve" text-anchor="middle" x="115.5" y="-73.05" font-family="Arial" font-size="11.00"> «exactly 1» &#160;</text>
</g>
<!-- Invis&#45;&gt;vehicle -->
</g>
</svg>
