<?xml version="1.0" encoding="UTF-8" standalone="no"?>
<!DOCTYPE svg PUBLIC "-//W3C//DTD SVG 1.1//EN"
 "http://www.w3.org/Graphics/SVG/1.1/DTD/svg11.dtd">
<!-- Generated by graphviz version 14.0.2 (20251019.1705)
 -->
<!-- Pages: 1 -->
<svg width="250pt" height="175pt"
 viewBox="0.00 0.00 250.00 175.00" xmlns="http://www.w3.org/2000/svg" xmlns:xlink="http://www.w3.org/1999/xlink">
<g id="graph0" class="graph" transform="scale(1 1) rotate(0) translate(4 171)">
<polygon fill="white" stroke="none" points="-4,4 -4,-171 245.5,-171 245.5,4 -4,4"/>
<g id="clust2" class="cluster">
<title>cluster_associated</title>
</g>
<!-- vehicle sharing -->
<g id="node1" class="node">
<title>vehicle sharing</title>
<g id="a_node1"><a xlink:href="../classes/itsVocabulary__vehicle sharing.md" xlink:title="&lt;TABLE&gt;">
<polygon fill="lightgray" stroke="none" points="1,-124.88 1,-141.12 84,-141.12 84,-124.88 1,-124.88"/>
<text xml:space="preserve" text-anchor="start" x="2" y="-128.72" font-family="Arial" font-size="12.00">vehicle sharing</text>
<polygon fill="none" stroke="black" points="0,-123.88 0,-142.12 85,-142.12 85,-123.88 0,-123.88"/>
</a>
</g>
</g>
<!-- Invis -->
<!-- vehicle sharing&#45;&gt;Invis -->
<!-- sharedVehicleService -->
<g id="node3" class="node">
<title>sharedVehicleService</title>
<g id="a_node3"><a xlink:href="../shared vehicle service/" xlink:title="&lt;TABLE&gt;" target="_top">
<polygon fill="lightgray" stroke="none" points="102.88,-25.88 102.88,-42.12 224.12,-42.12 224.12,-25.88 102.88,-25.88"/>
<text xml:space="preserve" text-anchor="start" x="103.88" y="-29.73" font-family="Arial" font-size="12.00">shared vehicle service</text>
<polygon fill="none" stroke="black" points="101.88,-24.88 101.88,-43.12 225.12,-43.12 225.12,-24.88 101.88,-24.88"/>
</a>
</g>
</g>
<!-- vehicle sharing&#45;&gt;sharedVehicleService -->
<g id="edge3" class="edge">
<title>vehicle sharing&#45;&gt;sharedVehicleService</title>
<path fill="none" stroke="black" d="M58.15,-115.21C70.76,-102.14 89.3,-83.93 107.25,-70 112.55,-65.89 118.35,-61.83 124.15,-58.02"/>
<polygon fill="black" stroke="black" points="125.98,-61.01 132.55,-52.69 122.23,-55.1 125.98,-61.01"/>
<text xml:space="preserve" text-anchor="middle" x="130.88" y="-86.55" font-family="Arial" font-size="11.00"> using </text>
<text xml:space="preserve" text-anchor="middle" x="130.88" y="-73.05" font-family="Arial" font-size="11.00"> «some» &#160;</text>
</g>
<!-- Invis&#45;&gt;sharedVehicleService -->
</g>
</svg>
