<?xml version="1.0" encoding="UTF-8" standalone="no"?>
<!DOCTYPE svg PUBLIC "-//W3C//DTD SVG 1.1//EN"
 "http://www.w3.org/Graphics/SVG/1.1/DTD/svg11.dtd">
<!-- Generated by graphviz version 14.0.2 (20251019.1705)
 -->
<!-- Pages: 1 -->
<svg width="204pt" height="175pt"
 viewBox="0.00 0.00 204.00 175.00" xmlns="http://www.w3.org/2000/svg" xmlns:xlink="http://www.w3.org/1999/xlink">
<g id="graph0" class="graph" transform="scale(1 1) rotate(0) translate(4 171)">
<polygon fill="white" stroke="none" points="-4,4 -4,-171 200.12,-171 200.12,4 -4,4"/>
<g id="clust2" class="cluster">
<title>cluster_associated</title>
</g>
<!-- vehicle fuel type -->
<g id="node1" class="node">
<title>vehicle fuel type</title>
<g id="a_node1"><a xlink:href="../classes/itsVocabulary__vehicle fuel type.md" xlink:title="&lt;TABLE&gt;">
<polygon fill="lightgray" stroke="none" points="1,-124.88 1,-141.12 89.25,-141.12 89.25,-124.88 1,-124.88"/>
<text xml:space="preserve" text-anchor="start" x="2" y="-128.72" font-family="Arial" font-size="12.00">vehicle fuel type</text>
<polygon fill="none" stroke="black" points="0,-123.88 0,-142.12 90.25,-142.12 90.25,-123.88 0,-123.88"/>
</a>
</g>
</g>
<!-- Invis -->
<!-- vehicle fuel type&#45;&gt;Invis -->
<!-- vehicle -->
<g id="node3" class="node">
<title>vehicle</title>
<g id="a_node3"><a xlink:href="../vehicle/" xlink:title="&lt;TABLE&gt;" target="_top">
<polygon fill="lightgray" stroke="none" points="133,-25.88 133,-42.12 173.25,-42.12 173.25,-25.88 133,-25.88"/>
<text xml:space="preserve" text-anchor="start" x="134" y="-29.73" font-family="Arial" font-size="12.00">vehicle</text>
<polygon fill="none" stroke="black" points="132,-24.88 132,-43.12 174.25,-43.12 174.25,-24.88 132,-24.88"/>
</a>
</g>
</g>
<!-- vehicle fuel type&#45;&gt;vehicle -->
<g id="edge3" class="edge">
<title>vehicle fuel type&#45;&gt;vehicle</title>
<path fill="none" stroke="black" d="M53.29,-115.04C60.46,-101.52 71.94,-82.79 86.12,-70 94.9,-62.09 105.78,-55.41 116.21,-50.08"/>
<polygon fill="black" stroke="black" points="117.52,-53.34 125.02,-45.86 114.49,-47.03 117.52,-53.34"/>
<text xml:space="preserve" text-anchor="middle" x="117.62" y="-86.55" font-family="Arial" font-size="11.00"> fuelUsedBy </text>
<text xml:space="preserve" text-anchor="middle" x="117.62" y="-73.05" font-family="Arial" font-size="11.00"> «exactly 1» &#160;</text>
</g>
<!-- Invis&#45;&gt;vehicle -->
</g>
</svg>
